/* XPM */
static char *result[] = {
/* columns rows colors chars-per-pixel */
"40 40 14 1 ",
"  c #B3B1D8",
". c #B3B0D9",
"X c #B4B0D8",
"o c #B4B0D9",
"O c #B4B1D9",
"+ c #B5B1D9",
"@ c #B4B2D9",
"# c #B4B1DA",
"$ c #B6B3DB",
"% c #B9B6DF",
"& c #BAB7E0",
"* c #BBB8E2",
"= c #BCB8E2",
"- c #C1BEE9",
/* pixels */
"O+ X++XX++XX+XXXXXX+++XX+X+X+XXX+X+++X+X",
"@-&=************************************",
"+$O+OOOO+OOO++OOOOOOO+OOOOOOOOOO+OOo+oOO",
"O&.OOOOOOOOOOOOOOOOOOOOOOOOOOOOOOOOOOOOO",
"O%#OOOOOOOOOOOOOOOOOOOOOOOOOOOOOOOOOOOOO",
"O%#OOOOOOOOOOOOOOOOOOOOOOOOOOOOOOOOOOOOO",
"O%.OOOOOOOOOOOOOOOOOOOOOOOOOOOOOOOOOOOOO",
"O%#OOOOOOOOOOOOOOOOOOOOOOOOOOOOOOOOOOOOO",
"O%.OOOOOOOOOOOOOOOOOOOOOOOOOOOOOOOOOOOOO",
"O%#OOOOOOOOOOOOOOOOOOOOOOOOOOOOOOOOOOOOO",
"O%.OOOOOOOOOOOOOOOOOOOOOOOOOOOOOOOOOOOOO",
"O%#OOOOOOOOOOOOOOOOOOOOOOOOOOOOOOOOOOOOO",
"O%.OOOOOOOOOOOOOOOOOOOOOOOOOOOOOOOOOOOOO",
"O%.OOOOOOOOOOOOOOOOOOOOOOOOOOOOOOOOOOOOO",
"O%#OOOOOOOOOOOOOOOOOOOOOOOOOOOOOOOOOOOOO",
"O%#OOOOOOOOOOOOOOOOOOOOOOOOOOOOOOOOOOOOO",
"O%#OOOOOOOOOOOOOOOOOOOOOOOOOOOOOOOOOOOOO",
"O%#OOOOOOOOOOOOOOOOOOOOOOOOOOOOOOOOOOOOO",
"O%#OOOOOOOOOOOOOOOOOOOOOOOOOOOOOOOOOOOOO",
"O%.OOOOOOOOOOOOOOOOOOOOOOOOOOOOOOOOOOOOO",
"O%.OOOOOOOOOOOOOOOOOOOOOOOOOOOOOOOOOOOOO",
"O%.OOOOOOOOOOOOOOOOOOOOOOOOOOOOOOOOOOOOO",
"O%.OOOOOOOOOOOOOOOOOOOOOOOOOOOOOOOOOOOOO",
"O%.OOOOOOOOOOOOOOOOOOOOOOOOOOOOOOOOOOOOO",
"O%.OOOOOOOOOOOOOOOOOOOOOOOOOOOOOOOOOOOOO",
"O%.OOOOOOOOOOOOOOOOOOOOOOOOOOOOOOOOOOOOO",
"O%.OOOOOOOOOOOOOOOOOOOOOOOOOOOOOOOOOOOOO",
"O%#OOOOOOOOOOOOOOOOOOOOOOOOOOOOOOOOOOOOO",
"O%.OOOOOOOOOOOOOOOOOOOOOOOOOOOOOOOOOOOOO",
"O%.OOOOOOOOOOOOOOOOOOOOOOOOOOOOOOOOOOOOO",
"O%#OOOOOOOOOOOOOOOOOOOOOOOOOOOOOOOOOOOOO",
"O%#OOOOOOOOOOOOOOOOOOOOOOOOOOOOOOOOOOOOO",
"O%.OOOOOOOOOOOOOOOOOOOOOOOOOOOOOOOOOOOOO",
"O%.OOOOOOOOOOOOOOOOOOOOOOOOOOOOOOOOOOOOO",
"O%#OOOOOOOOOOOOOOOOOOOOOOOOOOOOOOOOOOOOO",
"O%#OOOOOOOOOOOOOOOOOOOOOOOOOOOOOOOOOOOOO",
"O%.OOOOOOOOOOOOOOOOOOOOOOOOOOOOOOOOOOOOO",
"O%.OOOOOOOOOOOOOOOOOOOOOOOOOOOOOOOOOOOOO",
"O%.OOOOOOOOOOOOOOOOOOOOOOOOOOOOOOOOOOOOO",
"O%#OOOOOOOOOOOOOOOOOOOOOOOOOOOOOOOOOOOOO"
};
