/* XPM */
static char *result[] = {
/* columns rows colors chars-per-pixel */
"30 30 19 1 ",
"  c black",
". c #010000",
"X c #010101",
"o c #020000",
"O c #030000",
"+ c #020101",
"@ c #030101",
"# c #070101",
"$ c #070102",
"% c #0A0101",
"& c #0E0101",
"* c #0F0101",
"= c #180203",
"- c #1D0203",
"; c #1E0203",
": c #FD151C",
"> c #FE151C",
", c #FF151C",
"< c None",
/* pixels */
"<<<<<<<<<<<<<<<<<<<<<<<<<<<<<<",
"<<<<<<<<<<<<<<<<<<<<<<<<<<<<<<",
"<<<<<<<<<<<<<<<<<<<<<<<<<<<<<<",
"<<<<<<<<<<<<<<<<<<<<<<<<<<<<<<",
"<<<<.X@@@@@@@@@@@@@@@@@@+o<<<<",
"<<<<X ==================#@<<<<",
"<<<< O,,,,,,,,,,,,,,,,,,;o<<<<",
"<<<<.&,:>>>>>>>>>>>>>>:,-o<<<<",
"<<<<.*,>,,,,,,,,,,,,,,>,;o<<<<",
"<<<<.*,>,,,,,,,,,,,,,,>,;o<<<<",
"<<<<.*,>,,,,,,,,,,,,,,>,;o<<<<",
"<<<<.*,>,,,,,,,,,,,,,,>,;o<<<<",
"<<<<.*,>,,,,,,,,,,,,,,>,;o<<<<",
"<<<<.*,>,,,,,,,,,,,,,,>,;o<<<<",
"<<<<.*,>,,,,,,,,,,,,,,>,;o<<<<",
"<<<<.*,>,,,,,,,,,,,,,,>,;o<<<<",
"<<<<.*,>,,,,,,,,,,,,,,>,;o<<<<",
"<<<<.*,>,,,,,,,,,,,,,,>,;o<<<<",
"<<<<.*,>,,,,,,,,,,,,,,>,;o<<<<",
"<<<<.*,>,,,,,,,,,,,,,,>,;o<<<<",
"<<<<.*,>,,,,,,,,,,,,,,>,;o<<<<",
"<<<<.*,>,,,,,,,,,,,,,,>,;o<<<<",
"<<<<.&,:>>>>>>>>>>>>>>:,-o<<<<",
"<<<<.*,,,,,,,,,,,,,,,,,,;o<<<<",
"<<<<.X%%%%%%%%%%%%%%%%%%$o<<<<",
"<<<<.                   +o<<<<",
"<<<<<<<<<<<<<<<<<<<<<<<<<<<<<<",
"<<<<<<<<<<<<<<<<<<<<<<<<<<<<<<",
"<<<<<<<<<<<<<<<<<<<<<<<<<<<<<<",
"<<<<<<<<<<<<<<<<<<<<<<<<<<<<<<"
};
