/* XPM */
static char *Calice_8[] = {
/* columns rows colors chars-per-pixel */
"50 52 17 1 ",
"  c #916141",
". c #9A7F43",
"X c #9B8125",
"o c #AF9126",
"O c #B99E29",
"+ c #B3AF32",
"@ c #C3BE28",
"# c #D2B22A",
"$ c #C1C52D",
"% c #D4CF2C",
"& c #D4C031",
"* c #E8D731",
"= c #BDF054",
"- c #D2F548",
"; c #F0FFA2",
": c #F2FDC0",
"> c white",
/* pixels */
"$$$$$$$$$$$$$$$$$$$$$$$$$$$$$$$$$$$$$$$$$$$$$$$$$$",
"$$$$$$$$$$$$$$$$$$$$$$$$$$$$$$$$$$$$$$$$$$$$$$$$$$",
"$$$$$$$$$$$$$$$$$$$$$$$$$$$$$$>>>$$$$$$$$$$$$$$$$$",
"$$$$$$$$$$$$$$$$$$$$$$$$$$$$$>>>>>$$$$$$$$$$$$$$$$",
"$$$$$$$$$$$$$$$$$>>$$$$$$$$$$>>>>>$$$$$$$$$$$$$$$$",
"$$$$$$$$$$$$$$$$$>>$$$$$$$$$$>>>>$$$$$$$$$$$$$$$$$",
"$$$$$$$$$$$$$$$$$$$$$$$$$$$$$$>>$$$$$$$$$$$$$$$$$$",
"$$$$$$$$$$$$$$$$$$$$$$$$$$$$$$$$$$$$$$$$$$$$$$$$$$",
"$$$$$$$$$$$$$$$$$$$$$$$$$$$$$$$$$$$$$$$$$$$$$$$$$$",
"$$$$$$$$$$$$$$$$>>>$$$$$$$$$$$$$$$$$$$$$$$$$$$$$$$",
"$$$$$$$$$$$$$$>>>>>>$$$$$$$$$$$$$$$$$$$$$$$$$$$$$$",
"$$$$$$$$$$$$$>>>>>>>$$$$$$$$$$$$$$$$$$$$$$$$$$$$$$",
"$$$$$$$$$$$$$>>>>>>>>$$$$$$$$$$$$$$$$$$$$$$$$$$$$$",
"$$$$$$$$$$$$$$>>>>>$$$$$$$$$$$$$$$$$$$$$$$$$$$$$$$",
"$$$$$$$$$$$$$$$>>$$$$$$$$$$$$$$$$$$$$$$$$$$$$$$$$$",
"$$$$$$$$$$$$$$$$$$$$$$$$$$$$$$>>>$$$$$$$$$$$$$$$$$",
"$$$$$$$$$$$$$$$$$$$$$$$$$$$$$>>>>>$$$$$$$$$$$$$$$$",
"$$$$$$$$$$$$$$$$$$$$$$$$$$$$$>>>>>$$$$$$$$$$$$$$$$",
"$$$$$$$$$$$$$$$$$$$$$$$$$$$$$>>>>>$$$$$$$$$$$$$$$$",
"$$$$$$$$$$$$$$$$$$$$$$$$$$$$>>>>>$$$$$$$$$$$$$$$$$",
"$$$$$$$$$$$$$$$$$$$$$$$$$$$$>>>>$$$$$$$$$$$$$$$$$$",
"$$$$$$$$$$$$$$$$$$$$$$$$$$$$$>>$$$$$$$$$$$$$$$$$$$",
"$$$$$$$$$$$$$$$$$$$$$$$$$$$$$$$$$$$$$$$$$$$$$$$$$$",
"$$$$$$$$$$$$$$$$$$$$$$$$$$$$$$$$$$$$$$$$$$$$$$$$$$",
"$$$$$$$$$$$$$$$$$$$$$>>>>>:---$$$$$$$$$$$$$$$$$$$$",
"$$$$$$$$$$$$$$$$$$>>>>>>&&&&&&---$$$$$$$$$$$$$$$$$",
"$$$$$$$$$$$$$$$$>>&>>>>;;;;;;;&&&-:$$$$$$$$$$$$$$$",
"$$$$$$$$$$$$$$$>>&>>>>>>;;;;;----&&:$$$$$$$$$$$$$$",
"$$$$$$$$$$$$$$>>*>>>>>>>;;;;-------*:$$$$$$$$$$$$$",
"$$$$$$$$$$$$$$>*>>>>>>>>>----------*-$$$$$$$$$$$$$",
"$$$$$$$$$$$$$>>>>->>>>>>>;;;>;-;;---*>$$$$$$$$$$$$",
"$$$$$$$$$$$$$>*>-*>>>>>>>;>>>----*--*:$$$$$$$$$$$$",
"$$$$$$$$$$$$$>--*->>>>>>>>>>>>*---*---$$$$$$$$$$$$",
"$$$$$$$$$$$$$>-**-->>>>>>>>>>>>**-**-@$$$$$$$$$$$$",
"$$$$$$$$$$$$$>-**-*>>>>>>>>>>>>***>*-@$$$$$$$$$$$$",
"$$$$$$$$$$$$$>:**-*>>>>>>>>>>>>***>*-X$$$$$$$$$$$$",
"$$$$$$$$$$$$$>>:-**&>>>>>>>>>>&&*>>>OX$$$$$$$$$$$$",
"$$$$$$$$$$$$$>>>>--o>>>>>>>>>&o>>>>>>>$$$$$$$$$$$$",
"$$$$$$$$$$$$$$>>##---ooooooooo>-:>>>X$$$$$$$$$$$$$",
"$$$$$$$$$$$$$$>>>####=::>>>>>=####>OX$$$$$$$$$$$$$",
"$$$$$$$$$$$$$$$>>####%%%%%%%%%####>X$$$$$$$$$$$$$$",
"$$$$$$$$$$$$$$$$ ####=%%%%%%%%#### $$$$$$$$$$$$$$$",
"$$$$$$$$$$$$$$$$$  ##=%%%%%%%=##  $$$$$$$$$$$$$$$$",
"$$$$$$$$$$$$$$$$>..   =%%%%%=   .. $$$$$$$$$$$$$$$",
"$$$$$$$$$$$$$$$>>+.... O%%%O ....++ $$$$$$$$$$$$$$",
"$$$$$$$$$$$$$$>>+..... .%%%. .....++ $$$$$$$$$$$$$",
"$$$$$$$$$$$$$$>>+...  +++%+++  ...++X$$$$$$$$$$$$$",
"$$$$$$$$$$$$$$>>++..+++%%%%%+++..++%X$$$$$$$$$$$$$",
"$$$$$$$$$$$$$$$>>=++++%%%%%%%++++%%X$$$$$$$$$$$$$$",
"$$$$$$$$$$$$$$$$>X=%%+++++++++%=%XX$$$$$$$$$$$$$$$",
"$$$$$$$$$$$$$$$$$$XXX%%%====%%XXX$$$$$$$$$$$$$$$$$",
"$$$$$$$$$$$$$$$$$$$$$XXXXXXXXX$$$$$$$$$$$$$$$$$$$$"
};
