/* XPM */
static char *Calice_10[] = {
/* columns rows colors chars-per-pixel */
"50 52 18 1 ",
"  c #916141",
". c #9A7F43",
"X c #9B8125",
"o c #AF9126",
"O c #B99E29",
"+ c #B3AF32",
"@ c #C3BE28",
"# c #D2B22A",
"$ c #C1C52D",
"% c #D4CF2C",
"& c #D4C031",
"* c #E8D731",
"= c #BDF054",
"- c #D2F548",
"; c #F0FFA2",
": c #BFD1D3",
"> c #F2FDC0",
", c white",
/* pixels */
"$$$$$$$$$$$$$$$$$$$$$$$$$$$$$$$$$$$$$$$$$$$$$$$$$$",
"$$$$$$$$$$$$$$$$$$$$$$$$$$$$$$$$$$$$$$$$$$$$$$$$$$",
"$$$$$$$$$$$$$$$$$$$$$$$$$$$$$$$$$$$$$$$$$$$$$$$$$$",
"$$$$$$$$$$$$$$$$$$$$$$$$$$$$$$$$$$$$$$$$$$$$$$$$$$",
"$$$$$$$$$$$$$$$$$$$$$$$$$$$$$$$$$$$$$$$$$$$$$$$$$$",
"$$$$$$$$$$$$$$$$$$$$$$$$$$$$$$$$$$$$$$$$$$$$$$$$$$",
"$$$$$$$$$$$$$$$$$$$$$$$$$$$$$$$$$$$$$$$$$$$$$$$$$$",
"$$$$$$$$$$$$$$$$$$$$$$$$$$$$$$$$$$$$$$$$$$$$$$$$$$",
"$$$$$$$$$$$$$$$$,,,$$$$$$$$$$$$$$$$$$$$$$$$$$$$$$$",
"$$$$$$$$$$$$$$$,,,,,$$$$$$$$$$$$$$$$$$$$$$$$$$$$$$",
"$$$$$$$$$$$$$$$,,,,,$$$$$$$$,,,$$$$$$$$$$$$$$$$$$$",
"$$$$$$$$$$$$$$$,,,,$$$$$$$$,,,:,$$$$$$$$$$$$$$$$$$",
"$$$$$$$$$$$$$$$$,,$$$$$$$$,,,,:,$$$$$$$$$$$$$$$$$$",
"$$$$$$$$$$$$$$$$$$$$$$$$$,,:,,,,$$$$$$$$$$$$$$$$$$",
"$$$$$$$$$$$$$$$$$$$$$$$$$,,,,,,,$$$$$$$$$$$$$$$$$$",
"$$$$$$$$$$$$$$$$$$$$$$$$$,,,,,,$$$$$$$$$$$$$$$$$$$",
"$$$$$$$$$$$$$$$$$$$$$$$$$$$,,,$$$$$$$$$$$$$$$$$$$$",
"$$$$$$$$$$$$$$$$,,,,,$$$$$$$,,$$$$$$$$$$$$$$$$$$$$",
"$$$$$$$$$$$$$$$,,,,:,,$$$$$$$,$$$$$$$$$$$$$$$$$$$$",
"$$$$$$$$$$$$$$,,:,::,,$$$$$,,,,,$$$$$$$$$$$$$$$$$$",
"$$$$$$$$$$$$$$,::,,,,,,$$$,,,,,,,$$$$$$$$$$$$$$$$$",
"$$$$$$$$$$$$$$,,,,,,,,,,,,,,,,,,,,$$$$$$$$$$$$$$$$",
"$$$$$$$$$$$$$$,,,::,,,,$,,,,,,,,,,$$$$$$$$$$$$$$$$",
"$$$$$$$$$$$$$$$,,:,,,,$$$,,,,,,,,,$$$$$$$$$$$$$$$$",
"$$$$$$$$$$$$$$$,,,,,,-->,,,,,,,,,,$$$$$$$$$$$$$$$$",
"$$$$$$$$$$$$$$$$,,,,,,&&&&,,,,,,,$$$$$$$$$$$$$$$$$",
"$$$$$$$$$$$$$$$$,>&,,,,,,,,,,,,,&->$$$$$$$$$$$$$$$",
"$$$$$$$$$$$$$$$,,&---,,;;,,,,,,,,&&,$$$$$$$$$$$$$$",
"$$$$$$$$$$$$$$,,*----,--;,,;,,,,,,-*,$$$$$$$$$$$$$",
"$$$$$$$$$$$$$$>*----*,*--,,,---,,,,*,$$$$$$$$$$$$$",
"$$$$$$$$$$$$$>*---**,,;,,,,,,;-;;,,,*,$$$$$$$$$$$$",
"$$$$$$$$$$$$,>*--*-,,,,,,,,,,----*,,*,$$$$$$$$$$$$",
"$$$$$$$$$$$$,---*--,,,,,,,,,,,*---*,-,$$$$$$$$$$$$",
"$$$$$$$$$$,,,,,**--,,,,,,,,,,,***-*,-,$$$$$$$$$$$$",
"$$$$$$$$$$$$,@-**-**,,,,,,,,,,******-,$$$$$$$$$$$$",
"$$$$$$$$$$$$,X>**-**,,,,,,,,,,&*****,,$$$$$$$$$$$$",
"$$$$$$$$$$$$$XO>-**&&,,,,,,,,&&&**->,,$$$$$$$$$$$$",
"$$$$$$$$$$$$$XOO,,-oo&,,,,,,&&oo->>,,,$$$$$$$$$$$$",
"$$$$$$$$$$$$$$XO##---ooooooooo-->,,,,$$$$$$$$$$$$$",
"$$$$$$$$$$$$$$XO%####=>>,,>>==,,,,,,,$$$$$$$$$$$$$",
"$$$$$$$$$$$$$$$X%####%%%%%%%%%,,,,,,$$$$$$$$$$$$$$",
"$$$$$$$$$$$$$$$$ ####=%%%%%%%,,,,,,$$$$$$$$$$$$$$$",
"$$$$$$$$$$$$$$$$$  ##=%%%%%%,,,,  $$$$$$$$$$$$$$$$",
"$$$$$$$$$$$$$$$$ ..   =%%%%,,   .. $$$$$$$$$$$$$$$",
"$$$$$$$$$$$$$$$ ++.... O%%%, ....++,$$$$$$$$$$$$$$",
"$$$$$$$$$$$$$$ ++..... .%%%, .....+,,$$$$$$$$$$$$$",
"$$$$$$$$$$$$$$X++...  +++%+,,  ...,,,$$$$$$$$$$$$$",
"$$$$$$$$$$$$$$X%++..+++%%%%,,,+..,,,,$$$$$$$$$$$$$",
"$$$$$$$$$$$$$$$X%=++++%%%%%%,,+++,,,$$$$$$$$$$$$$$",
"$$$$$$$$$$$$$$$$XX=%%++++++++,,,,,,$$$$$$$$$$$$$$$",
"$$$$$$$$$$$$$$$$$$XXX%%%====%%,,,$$$$$$$$$$$$$$$$$",
"$$$$$$$$$$$$$$$$$$$$$XXXXXXXXX$$$$$$$$$$$$$$$$$$$$"
};
