/* XPM */
static char *result[] = {
/* columns rows colors chars-per-pixel */
"40 40 102 2 ",
"   c #957215",
".  c #9F7B1B",
"X  c #A27C17",
"o  c #A27E1D",
"O  c #A37E1F",
"+  c #A37F22",
"@  c #A17F27",
"#  c #A38023",
"$  c #A38024",
"%  c #A48126",
"&  c #AE8824",
"*  c #A48228",
"=  c #A4822A",
"-  c #A5822A",
";  c #A5822B",
":  c #A5842F",
">  c #B58E27",
",  c #B08B2B",
"<  c #B6902B",
"1  c #B99229",
"2  c #BD952B",
"3  c #A38231",
"4  c #A68431",
"5  c #A38336",
"6  c #A68636",
"7  c #A7883C",
"8  c #B3913A",
"9  c #C39B2E",
"0  c #C59C2F",
"q  c #C79E2F",
"w  c #CDA332",
"e  c #CDA434",
"r  c #CEA436",
"t  c #C8A139",
"y  c #C9A238",
"u  c #CBA43B",
"i  c #CEA538",
"p  c #CEA63A",
"a  c #CFA63B",
"s  c #CFA83D",
"d  c #CFA83F",
"f  c #D0A93E",
"g  c #D0A83F",
"h  c #B49441",
"j  c #B59444",
"k  c #B59545",
"l  c #BA9840",
"z  c #BD9B43",
"x  c #BF9D45",
"c  c #B69649",
"v  c #B79A51",
"b  c #CBA540",
"n  c #C9A443",
"m  c #CCA641",
"M  c #C3A148",
"N  c #C2A14E",
"B  c #C5A44E",
"V  c #CCA84B",
"C  c #CCA94C",
"Z  c #D0A941",
"A  c #D1AA42",
"S  c #D1AA43",
"D  c #D1AB43",
"F  c #D1AB44",
"G  c #D1AB47",
"H  c #D2AC46",
"J  c #D2AD48",
"K  c #D2AC4A",
"L  c #D2AD4B",
"P  c #D3AE4A",
"I  c #D3AF4F",
"U  c #D4AF4D",
"Y  c #D4AF4E",
"T  c #D4B04F",
"R  c #C6A652",
"E  c #CFAE56",
"W  c #CFAE57",
"Q  c #D4B050",
"!  c #D4B153",
"~  c #D5B254",
"^  c #D6B356",
"/  c #D6B357",
"(  c #D7B559",
")  c #D7B65E",
"_  c #D8B75D",
"`  c #D9B962",
"'  c #D9B863",
"]  c #DABA66",
"[  c #DABB67",
"{  c #DABC6A",
"}  c #DCBE6E",
"|  c #DDC073",
" . c #DDC074",
".. c #DEC178",
"X. c #DFC47A",
"o. c #DEC27C",
"O. c #DEC37D",
"+. c #DFC47E",
"@. c #E1C884",
"#. c #E3CA89",
"$. c #E5CE92",
"%. c None",
/* pixels */
"%.%.%.%.%.%.%.%.%.%.%.%.%.%.%.%.%.%.%.%.%.%.%.%.%.%.%.%.%.%.%.%.%.%.%.%.%.%.%.%.",
"%.%.%.%.%.%.%.%.%.%.%.%.%.%.%.%.%.%.%.%.%.%.%.%.%.%.%.%.%.%.%.%.%.%.%.%.%.%.%.%.",
"%.%.%.%.%.%.%.%.%.%.%.%.%.%.%.%.%.%.%.%.%.%.%.%.%.%.%.%.%.%.%.%.%.%.%.%.%.%.%.%.",
"%.%.%.%.%.%.%.%.%.%.%.%.%.%.%.%.%.%.%.%.%.%.%.%.%.%.%.%.%.%.%.%.%.%.%.%.%.%.%.%.",
"%.%.%.%.%.%.%.%.%.%.%.%.%.%.%.%.%.%.%.%.%.%.%.%.%.%.%.%.%.%.%.%.%.%.%.%.%.%.%.%.",
"%.%.%.%.%.%.%.%.%.%.%.%.%.%.%.%.%.%.%.%.%.%.%.%.%.%.%.%.%.%.%.%.%.%.%.%.%.%.%.%.",
"%.%.%.%.%.%.%.%.%.%.%.%.%.%.%.%.                %.%.%.%.%.%.%.%.%.%.%.%.%.%.%.%.",
"%.%.%.%.%.%.%.%.%.%.%.%.%.%.%.%.                %.%.%.%.%.%.%.%.%.%.%.%.%.%.%.%.",
"%.%.%.%.%.%.%.%.%.%.%.%.%.      w w w w i P P P       %.%.%.%.%.%.%.%.%.%.%.%.%.",
"%.%.%.%.%.%.%.%.%.%.%.%.. & & & w w w w r A A A 8 8 8 @ %.%.%.%.%.%.%.%.%.%.%.%.",
"%.%.%.%.%.%.%.%.%.%.%.  o w w w w w w w w w w w ^ ^ ^ ;   %.%.%.%.%.%.%.%.%.%.%.",
"%.%.%.%.%.%.%.%.%.%.  2 0 w w w o o o o o o o o a g F C M   %.%.%.%.%.%.%.%.%.%.",
"%.%.%.%.%.%.%.%.%.. o 0 w w q 9 o o o o O % % % 9 y F Y V ; @ %.%.%.%.%.%.%.%.%.",
"%.%.%.%.%.%.%.%.  & w w w w &   w w w w i P P P   8 ^ a a ^ 8   %.%.%.%.%.%.%.%.",
"%.%.%.%.%.%.%.%.  & w w q & > 1 w w w w e s s s x l 8 b H ^ 8   %.%.%.%.%.%.%.%.",
"%.%.%.%.%.%.%.%.  & w w 9   1 w w w w w w w w w ^ x   n U ^ 8   %.%.%.%.%.%.%.%.",
"%.%.%.%.%.%.    w w w o o w w w w w w w w w w w w S ^ ; + f ) }     %.%.%.%.%.%.",
"%.%.%.%.%.%.    w w w o o w w w w w w w w w w w w S ^ ; $ D ' |     %.%.%.%.%.%.",
"%.%.%.%.%.%.    w w w o o w w w w w w w w w w w w S ^ ; % P { X.    %.%.%.%.%.%.",
"%.%.%.%.%.%.    w w w o o w w w w w w w w w w w w S ^ ; - ~  .@.    %.%.%.%.%.%.",
"%.%.%.%.%.%.    w w w o o w w w w w w w w w w w w S ^ ; ; ^ ..#.    %.%.%.%.%.%.",
"%.%.%.%.%.%.    w w w o o w w w w w w w w w w w w S ^ ; ; ^ +.$.    %.%.%.%.%.%.",
"%.%.%.%.%.%.    w w w o o w w w w w w w w w w w w G _ : * T O.$.    %.%.%.%.%.%.",
"%.%.%.%.%.%.    w w w o o w w w w w w w w w w w w K ` 4 % P o.$.    %.%.%.%.%.%.",
"%.%.%.%.%.%.%.%.  & w w 9   1 w w w w w w w w w ` N   n Q ` h   %.%.%.%.%.%.%.%.",
"%.%.%.%.%.%.%.%.  & w w q & > 1 w w w w w w Z K B z , m Y [ k   %.%.%.%.%.%.%.%.",
"%.%.%.%.%.%.%.%.  & w w w w &   w w w w w w ! ` X < f f L } c   %.%.%.%.%.%.%.%.",
"%.%.%.%.%.%.%.%.%.. o 0 w w q 9 o o o o o o = 4 t u f / E 6 3 %.%.%.%.%.%.%.%.%.",
"%.%.%.%.%.%.%.%.%.%.  2 0 w w w o o o o o o # % F J I W R   %.%.%.%.%.%.%.%.%.%.",
"%.%.%.%.%.%.%.%.%.%.%.  o w w w w w w w w w A P ^ ] X.7   %.%.%.%.%.%.%.%.%.%.%.",
"%.%.%.%.%.%.%.%.%.%.%.%.. & & & w w w w p ! / ( 8 j v 5 %.%.%.%.%.%.%.%.%.%.%.%.",
"%.%.%.%.%.%.%.%.%.%.%.%.%.      w w w w d ` ` `       %.%.%.%.%.%.%.%.%.%.%.%.%.",
"%.%.%.%.%.%.%.%.%.%.%.%.%.%.%.%.                %.%.%.%.%.%.%.%.%.%.%.%.%.%.%.%.",
"%.%.%.%.%.%.%.%.%.%.%.%.%.%.%.%.                %.%.%.%.%.%.%.%.%.%.%.%.%.%.%.%.",
"%.%.%.%.%.%.%.%.%.%.%.%.%.%.%.%.%.%.%.%.%.%.%.%.%.%.%.%.%.%.%.%.%.%.%.%.%.%.%.%.",
"%.%.%.%.%.%.%.%.%.%.%.%.%.%.%.%.%.%.%.%.%.%.%.%.%.%.%.%.%.%.%.%.%.%.%.%.%.%.%.%.",
"%.%.%.%.%.%.%.%.%.%.%.%.%.%.%.%.%.%.%.%.%.%.%.%.%.%.%.%.%.%.%.%.%.%.%.%.%.%.%.%.",
"%.%.%.%.%.%.%.%.%.%.%.%.%.%.%.%.%.%.%.%.%.%.%.%.%.%.%.%.%.%.%.%.%.%.%.%.%.%.%.%.",
"%.%.%.%.%.%.%.%.%.%.%.%.%.%.%.%.%.%.%.%.%.%.%.%.%.%.%.%.%.%.%.%.%.%.%.%.%.%.%.%.",
"%.%.%.%.%.%.%.%.%.%.%.%.%.%.%.%.%.%.%.%.%.%.%.%.%.%.%.%.%.%.%.%.%.%.%.%.%.%.%.%."
};
