/* XPM */
static char *Grass_08[] = {
/* columns rows colors chars-per-pixel */
"64 64 12 1 ",
"  c #636917",
". c #656C17",
"X c #686F16",
"o c #72751B",
"O c #787B21",
"+ c #A2783C",
"@ c #7F8124",
"# c #7F8226",
"$ c #A2814F",
"% c #C6A740",
"& c #9CA8AD",
"* c #B3B0A9",
/* pixels */
"oooooooooooooooooooooooooooooooooooooooooooooooooooooooooooooooo",
"oooooooooooooooooooooooooooooooooooooooooooooooooooooooooooooooo",
"oooooooooooooooooooooooooooooooooooooooooooooooooooooooooooooooo",
"oooooooooooooooooooooooooooooooooooooooooooooooooooooooooooooooo",
"oooooooooooooooooooooooooooooooooooooooooooooooooooooooooooooooo",
"oooooooooooooooooooooooooooooooooooooooooooooooooooooooooooooooo",
"ooooooooooooooooooooooooooooooooooooooooooooooooooooO@oooo##oooo",
"ooooooooooooooooooooooooooooooooooooooooooooooooooooo@#ooO#ooooo",
"oooooooooooooooooooooooooooooooooooooooooooooooooooooOOoOO.ooooo",
"ooooooooooooooooooooooooooooooooooooooooooooooooooooo%%oOO.ooooo",
"oooooooooooooooooooooooooooooooooooooooooooooooooooo%++%..oooooo",
"oooooooooooooooooooooooooooooooooooooooooooooooooooo %% oooooooo",
"ooooooooooooooooo@ooooooooooooooooooooooooooooooooooo  ooooooooo",
"ooooooooooooooooOOoo@OOooooooooooooooooooooooooooooooooooooooooo",
"ooooooooooooo@ooOXoO@@oooooooooooooooooooooooooooooooooooooooooo",
"oooooooooooooo@OXoOO@Xoooooooooooooooooooooooooooooooooooooooooo",
"oooooooooooooXOOooOOXO@ooooooooooooooooooooooooooooooooooooooooo",
"ooooooooooooooXOoo**OOXooooooooooooooooooooooooooooooooooooooooo",
"oooooooooooooooXo*$$*Xoooooooooooooooooooooooooooooooooooooooooo",
"ooooooooooooooooo ** ooooooooooooooooooooooooooooooooooooooooooo",
"ooooooooooooooo*$o  oooooooooooooooooooooooooooooooooooooooooooo",
"ooooooooooooooo**ooooooooooooooooooooooooooooooooooooooooooooooo",
"ooooooooooooooo  ooooooooooooooooooooooooooooooooooooooooooooooo",
"oooooooooooooooooooooooooooooooooooooooooooooooooooooooooooooooo",
"oooooooooooooooooooooooooooooooooooooooooooooooooooooooooooooooo",
"oooooO@@oooooooooooooooooooooooooooooooooooooooooooooooooooooooo",
"oooooo@OOooooooooooooooooooooooooooooooooooooooooooooooooooooooo",
"ooooooXOOooooooooooooooooooooooooooooooooooooooooooooooooooooooo",
"oooooooXXooooooooooooooooooooooooooooooooooooooooooooooooooooooo",
"oooooooooooooooooooooooooooooooooooooooooooooooooooooooooooooooo",
"oooooooooooooooooooooooooooooooooooooooooooooooooooooooooooooooo",
"oooooooooooooooooooooooooooooooooooooooooooooooooooooooooooooooo",
"oooooooooooooooooooooooooooooooooooooooooooooooooooooooooooooooo",
"oooooooooooooooooooooooooooooooooooooooooooooooooooooooooooooooo",
"ooooooooooooooooooooooooooooOooooooooooooooooooooooooooooooooooo",
"ooooooooooooooooooooooooooo@@ooooooooooooooooooooooooooooooooooo",
"ooooooooooooooooooooooooooO@Xooooooooooooooooooooooooooooooooooo",
"ooooooooooooooooooooooooooOOoooooooooooooooooooooooooooooooooooo",
"ooooooooooooooooooooooooooXXoooooooooooooooooooooooooooooooooooo",
"oooooooooooooooooooooooooooooooooooooooooooooooooooooooooooooooo",
"oooooooooooooooooooooooooooooooooooooooooooooooooooooooooooooooo",
"oooooooooooooooooooooooooooooooooooooooooooooooooooooooooooooooo",
"oooooooooooooooooooooooooooooooooooooooooooooooooooooooooooooooo",
"oooooooooooooooooooooooooooooooooooooooooooooooooooooo@ooooooooo",
"oooooooooooooooooooooooooooooooooooooooooooooooooooooOOooO@@oooo",
"oooooooooooooooooooooooooooooooooooooooooooooooooo@ooOXoOO@ooooo",
"ooooooooooooooooooooooooooooooooooooooooooooooooooXOOoXOOOXooooo",
"ooooooo@@ooooOOoooooooooooooooooooooooooooooooooooXOO&&OOXO@oooo",
"oooooooo@OOo@@oooooooooooooooooooooooooooooooooooooX&$$&XOOXoooo",
"oooooO@@XOXOOXoooooooooooooooooooooooooooooooooooooo && XOXooooo",
"oooooo@OOXXO&&ooooooooooooooooooooooooooooooo@@Oooooo  &&ooooooo",
"ooooooXO**oO$&oooooooooooooooooooooooooooooooo@OO**oooo$&ooooooo",
"ooooooo*$$*o  ooooooooooooooooooooooooooooooooXO*$$*ooo  ooooooo",
"ooooooo ** ooooooooooooooooooooooooooooooooooooX ** oooooooooooo",
"oooooooo  ooooooooooooooooooooooooooooooooooooooo  ooooooooooooo",
"oooooooooooooooooooooooooooooooooooooooooooooooooooooooooooooooo",
"oooooooooooooooooooooooooooooooooooooooooooooooooooooooooooooooo",
"oooooooooooooooooooooooooooooooooooooooooooooooooooooooooooooooo",
"oooooooooooooooooooooooooooooooooooooooooooooooooooooooooooooooo",
"oooooooooooooooooooooooooooooooooooooooooooooooooooooooooooooooo",
"oooooooooooooooooooooooooooooooooooooooooooooooooooooooooooooooo",
"oooooooooooooooooooooooooooooooooooooooooooooooooooooooooooooooo",
"oooooooooooooooooooooooooooooooooooooooooooooooooooooooooooooooo",
"oooooooooooooooooooooooooooooooooooooooooooooooooooooooooooooooo"
};
