/* XPM */
static char *Grass_02[] = {
/* columns rows colors chars-per-pixel */
"64 64 4 1 ",
"  c #656C17",
". c #72751B",
"X c #787B21",
"o c #7F8226",
/* pixels */
"................................................................",
"................................................................",
"................................................................",
"................................................................",
"................................................................",
"........................oXX.....................................",
".........................XXX....................................",
"..........................  ....................................",
"................................................................",
"................................................................",
"................................................................",
"................................................................",
"................................................................",
"...........o....................................................",
"....Xoo...o.....................................................",
".....oXX.oo.................................XX..................",
"..... XX.XX................................oX...................",
"...... X X ...............................XX ...................",
"....... . ............................ooX.XX ...................",
".......................................oXX X ...................",
"....................................... XX  ....................",
"........................................  ......................",
"................................................................",
"................................................................",
"...........................................................o....",
"....................................................Xoo...o.....",
".....................................................oXX.oo.....",
"..................................................... XX.XX.....",
"...................................................... X.X .....",
"....................................................... . ......",
"................................................................",
"................................................................",
"................................................................",
"................................................................",
"................................................................",
"................................................................",
"................................................................",
"................................................................",
"......................oo........................................",
".......................oX....o..................................",
".......................XXX.Xo...................................",
"....................oXX XXXX ...................................",
".....................XXX  XX ...................................",
"..................... XX..X ....................................",
"...................... X........................................",
"........................................oX......................",
"...................................oX..Xo ......................",
"................................... XX.XX.......................",
".................................... XXX .......................",
".................................... XX ........................",
"..................................... X.........................",
"................................................................",
"................................................................",
"................................................................",
"........................................................Xoo.....",
".......................................................XXo......",
".......................................................XX ......",
".......................................................  .......",
"................................................................",
"................................................................",
"................................................................",
"................................................................",
"................................................................",
"................................................................"
};
