/* XPM */
static char *Grass_14[] = {
/* columns rows colors chars-per-pixel */
"64 64 29 1 ",
"  c #656C17",
". c #686F16",
"X c #72751B",
"o c #787B21",
"O c #605C48",
"+ c #64604B",
"@ c #6C6852",
"# c #7C7B6E",
"$ c #807F72",
"% c #7F8124",
"& c #7F8226",
"* c #828077",
"= c #848377",
"- c #838178",
"; c #838278",
": c #838279",
"> c #848279",
", c #878679",
"< c #86847A",
"1 c #86847B",
"2 c #87857C",
"3 c #87867C",
"4 c #87867D",
"5 c #88867D",
"6 c #89877F",
"7 c #8A887F",
"8 c #8D8B83",
"9 c #8E8C83",
"0 c #939189",
/* pixels */
"XXXXXXXXXXXXXXXXXX$$$$$$#####$XXXX$$$$$$$XXXXXXXXXXXXXXXXXXXXXXX",
"XXXXXXXXXXXXXXXXX2$$$$$$$$$$$$3XX6$$$$$$$XXXXXXXXXXXXXXXXXXXXXXX",
"XXXo%%XXXXXXXXXXX6$$$$$$$$$$$$6XX3$$$$$$$$XXXXXXXXXXXXXXXXXXXXXX",
"XXXX%ooXXXXXXXXXX2$$$$$$$$$$$$2XX2$$$$$$$$$$$$2XXXXXXXXo%XXXX%%X",
"XXXX.ooXXXXXXXXXX6$$$$$$$$$$$$2XX2$$$$$$$$$$$$2XXXXXXXXX&&XXo&XX",
"XXXXX..XXXXXXXXXX2$$$$$$$$$$$$6XX6$$$$$$$$$$$$6XXXXXXXXXooXoo XX",
"XXXXXXXXXXXXXXXXX6$$$$$$$$$$$$6XX3$$$$$$$$$$$$6XXXXXXXXX  Xoo XX",
"XXXXXXXXXXXXXXXXX2$$$$$$$$$$$$2XX6$$$$$$$$$$$$2XXXXXXXXXXXX  XXX",
"XXXXXXXXXXXXXXXXX6$$$$$$$$$$##1XX3$$$$$$$$$$$$2XXXXXXXXXXXXXXXXX",
"XXXXXXXXXXXXXXXXX1$$$$$$$$$$$#8XX2$$$$$$$$$$$$6XXXXXXXXXXXXXXXXX",
"XXXXXXXXXXXXXX%XX1$$$$$$$$>$$$XXX2$$$$$$$$$$$$6XXXXXXXXXXXXXXXXX",
"XXXXXXXXXXXXX%XXX8$$$$$$$$oo#oXXX6$$$$$$$$$$$$6XXXXXXXXXXXXXXXXX",
"XXXXXXXXXXXXooXXX8$#$$$$$$$&ooXXX3$$$$$$$$$$$$8XXXXXXXXXXXXXXXXX",
"XXXXXXXXXXXXoo XXO999999999oooXXXO999999999999OXXXXXXXXXXXXXXXXX",
"XXXXXXXXXXXX  o&XXOOO+O+OOO oo oo&&+O+++O+++OOXXXXXXXXXXXXXXXXXX",
"XXXXXXXXXXXXXXooXXoXXoXXoXXo  oooXXXXXXXXXXXoXXXXXXXXXXXXXXXXXXX",
"XXXXXXXXXXXXXX  XX$$$$$$$$$$$$oo X##########XXXXXXXXXXXXXXXXXXXX",
"XXXXXXXXXXXXXXXXX6$$$$$$$$$$$$o X:###########XXXXXXXXXXXXXXXXXXX",
"XXXXXXXXXXXXXXXXX6#$$$$$$$$$$$8XX$############$oXXXXXXXXXXXXXXXX",
"XXXXXXXXXXXXXXXXX4**$$$$$$$$$$8XX1############:XXXXXXXXXXXXXXXXX",
"XXXXXXXXXXXXXXXXX6$$$$$$$$$$$#8XX:############:XXXXXXXXXXXXXXXXX",
"XXXXXXXXXXXXXXXXX,$$$$$$$$$$$#:XX:############:XXXXXXXXXXXXXXXXX",
"XXXXXXXXXXXXXXXXX,$$$$$$$$$$$$$XX>############$XXXXXXXXXXXXXXXXX",
"XXXXXXXXXXXXXXXXXX88888$$$$$$$8XX:############:oXXXXXXXXXXXXXXXX",
"XXXXXXXXXXXXXXXXXX++ @+8###:$$8XX>############$oXXXXXXXXXXXXXXXX",
"XXXXXXXXXXXXXXXXX6*##XX+8:$#$$8XX>############$XXXXXXXXXXXXXXXXX",
"XXXXXXXXXXXXXXXXX3*$#=XX+8$$#$:XX>############$XXXXXXXXXXXXXXXXX",
"XXXXXXXXXXXXXXXXX,$$**#*o+80##8XXXX###########$oXXXXXXXXXXXXXXXX",
"XXXXXXXXXXXXXXXXX3**#***XXO+##8XXXXX##########>XXXXXXXXXXXXXXXXX",
"XXXXXXXXXXXXXXXXX+887799XXXX80+XXXXXX866666668OXXXXXXXXXXXXXXXXX",
"XXXXXXXXXXXXXXXXXX++++++XXXX+OXXXXXXXOOOOOOOOOXXXXXXXXXXXXXXXXXX",
"XXXXXXXXXXXXXXXXXXXXXXXXXXXXoXXXXXXXXXXXXXXXXXXXXXXXXXXXXXXXXXXX",
"XXXXXXXXXXXXXXXXXX############XXXX2,,,,,,,,,,,XXXXXXXXXXXXXXXXXX",
"XXXXXXXXXXXXXXXXX>############>XX822,,,,,,,,,,9XXXXXXXXXXXXXXXXX",
"XXXXXXXXXXXXXXXXX>############>XX8$1,,,,,,,,,,9XXXXXXXXXXXXXXXXX",
"XXXXXXXXXXXXXXXXX>############>XX881,,,,,,,,,,9XXXXXXXXXXXXXXXXX",
"XXXXXXXXXXXXXXXXX>############>XX6,,,,,,,,,,,,9XXXXXXXXXXXXXXXXX",
"XXXXXXXXXXXXXXXXX>############>XX6,,,,,,,,,,,,9XXXXXXXXXXXXXXXXX",
"XXXXXXXXXXXXXXXXX>############>XX6,,,,,,,,,,,,9XXXXXXXXXXXXXXXXX",
"XXXXXXXXXXXXXXXXX>###########6>XX6,,,,,,,,,,,,9XXXXXXXXXXXXXXXXX",
"XXXXXXXXXXXXXXXXX>##########6OOXX9,,,,,,,,,,,,9XXXXXXXXXXXXXXXXX",
"XXXXXXXXXXXXXXXXX>#########6OXXXX9,,,,,,,,,,,,9XXXXXXXXXXXXXXXXX",
"XXXXXXXXXXXXXXXXX>####66666OXXXXX9,,,,,,,,,,,,9XXXXXXXXXXXXXXXXX",
"XXXXXXXXXXXXXXXXX>###6OOOOXXXXXXX9,,,,,,,,,,,,9XXXXXXXXXXXXXXXXX",
"XXXXXXXXXXXXXXXXX>##6OXXX####8XXX9,,,,,,,,,,,,9XXXXXXXXXXXXXXXXX",
"XXXXXXXXXXXXXXXXXO66OXXX#####8XXX@000000000000@XXXXXXXXXXXXXXXXX",
"XXXXXXXXXXXXXXXXXXOOX%XX86181OXXXXO+++++++++++XXXXXXXXXXXXXXXXXX",
"XXXXXXXXXXXXXXXXXXXXooXX%ooOOXXXXXXXXXXXXXXXXXXXXXXXXXXXXXXXXXXX",
"XXXXXXXXXXXXXXXXXoXXo.Xoo%XXXXXXXX$$$$$$$$$$$$XXXXXXXXXXXXXXXXXX",
"XXXXXXXXXXXXXXXXXX&o.XXoo.XXXXXXX>$$$$$$$$$$$$1XXXXXXXXXXXXXXXXX",
"XXXXXXXXXXXXXXXXXXooXXoo.o%XXXXXX1$$$$$$$$$$$$1XXXXXXXXXXXXXXXXX",
"XXXXXXXXXXXXXXXXXXX.XXo.oo.XXXXXX1$$$$$$$$$$$$4XXXXXXXXXXXXXXXXX",
"XXXXXXXXXXXXXXXXXXXXXX..o.XXXXXXX4$$$$$$$$$$$$4XXXXXXXXXX&oXXXXX",
"XXXXXXXXXXXXXXXXXXXXXXXXXXXXXXXXX4$$$$$$$$$$$$4XXXXX&oXXo% XXXXX",
"XXXXXXXXXXXXXXXXXXXXXXXXXXXXXXXXX4$$$$$$$$$$$$1XXXXX.ooXooXXXXXX",
"XXXXXXXXXXX%XXXXXXXXXXXXXXXXXXXXX49999$$$$$$$$4XXXXXX.ooo XXXXXX",
"XXXXo&&XXX&XXXXXXXXXXXXXXXXXXXXXXO++++9$$$$$$$6XXXXXX oo XXXXXXX",
"XXXXX&ooX&&XXXXXXXXXXXXXXXXXXXXXXXXXXXO9$$$$$$&&oXXXXX oXXXXXXXX",
"XXXXX ooXooXXXXXXXXXXXXXXXXXXXXXXXXXXXX+099$$$1&ooXXXXXXXXXXXXXX",
"XXXXXX oXo XXXXXXXXXXXXXXXXXXXXXXXXXXXXX++O9$$2 ooXXXXXXXXXXXXXX",
"XXXXXXX X XXXXXXXXXXXXXXXXXXXXXXXXXXXXXXXXX+99OX  XXXXXXXXXXXXXX",
"XXXXXXXXXXXXXXXXXXXXXXXXXXXXXXXXXXXXXXXXXXXX++XXXXXXXXXXXXXXXXXX",
"XXXXXXXXXXXXXXXXXXXXXXXXXXXXXXXXXXXXXXXXXXXXXXXXXXXXXXXXXXXXXXXX",
"XXXXXXXXXXXXXXXXXXXXXXXXXXXXXXXXXXXXXXXXXXXXXXXXXXXXXXXXXXXXXXXX"
};
