/* XPM */
static char *Grass_15[] = {
/* columns rows colors chars-per-pixel */
"64 64 23 1 ",
"  c #656C17",
". c #686F16",
"X c #72751B",
"o c #787B21",
"O c #605C48",
"+ c #64604B",
"@ c #6C6852",
"# c #7C7B6E",
"$ c #807F72",
"% c #7F8124",
"& c #7F8226",
"* c #838279",
"= c #848279",
"- c #878679",
"; c #86847A",
": c #87857C",
"> c #87867C",
", c #87867D",
"< c #88867D",
"1 c #89877F",
"2 c #8D8B83",
"3 c #8E8C83",
"4 c #939189",
/* pixels */
"XX$$$$$$$$$$$$XXXXXXXXXXXXXXXXXXXXXXXXXXXXXXXXXXXXXX$$$$$$$$$$XX",
"X<$$$$$$$$$$$$<XXXXXXXXXXXXXXXXXXXXXXXXXXXXXXXXXXXX$$$$$$$$$$$<X",
"X<$$$$$$$$$$$$<XXXXXXXXXXXXXXXXXXXXXXXXXXXXXXXXXX<$$$$$$$$$$$$<X",
"X<$$$$$$$$$$$$<XXXXXXXXXXXXXXXXXXXXXXXXXXXXXXXXXX<$$$$$$$$$$$$<X",
"X<$$$$$$$$$$$$<XXXXXXXXXXXXXXXXXXXXXXXXXXXXXXXXXX<$$$$$$$$$$$$<X",
"X<$$$$$$$$$$$$<XXXXXXXXXXXXXXXXXXXXXXXXXXXXXXXXXX<$$$$$$$$$$$$<X",
"X<$$$$$$$$$$$$<XXXXXXXXXXXXXXXXXXXXXXXXXXXXXXXXXX<$$$$$$$$$$$$<X",
"X<$$$$$$$$$$$$<XXXXXXXXXXXXXXXXXXXXXXXXXXXXXXXXXX<$$$$$$$$$$$$<X",
"X<$$$$$$$$$$$$<XXXXXXXXXXXXXXXXXXXXXXXXXXXXXXXXXX<$$$$$$$$$$$$<X",
"X<$$$$$$$$$$$$<XXXXXXXXXXXXXXXXXXXXXXXXXXXXXXXXXX<$$$$$$$$$$$$<X",
"X22222$$$$$$$$<XXXXXXXXXXXXXXXXXXXXXXXXXXXXXXXXXX<$$$$$$$$$$$$2X",
"XXX+++2$$$$$$$<XXXXXXXXXXXXXXXXXXXXXXXXXXXXXXXXXX<$$$$$$$$$222+X",
"XXXXXX+2$$$$$$<XXXXXXXXXXXXXXXXXXXXXXXXXXXXXXXXXX<$$$$$$$$2+++XX",
"XXXXXXX+222222XXXXXXXXXXXXXXXXXXXXXXXXXXXXXXXXXXX+22222222+XXo&&",
"XXXXXXXX++++++XXXXXXXXXXXXXXXXXXXXXXXXXXXXXXXXXXXX++++++++XXoo&X",
"XXXXXXXXXXXXXXXXXXXXXXXXXXXXXXXXXXXXXXXXXXXXXXXXXXXXXXXXXXXXoo X",
"XXXXXXXXXXXXXXXXXXXXXXXXXXXXXXXXXXXXXXXXXXXXXXXXXXXXXXXo&XXXo XX",
"XXXXXXXXXXXXXXXXXXXXXXXXXXXXXXXXXXXXXXXXXXXXXXXXXXXXXXX &oXX o&X",
"XXXXXXXXXXXXXXXXXXXXXXXXXXXXXXXXXXXXXXXXXXXXXXXXXXXXXXXXooXXoo X",
"XXXXXXXXXXXXXXXXXXXXXXXXXXXXXXXXXXXXXXXXXXXXXXXXXXXXXXXX o oo XX",
"XXXXXXXXXXXXXXXXXXXXXXXXXXXXXXXXXXXXXXXXXXXXXXXXXXXXXXXXX  oo XX",
"XXXXXXXXXXXXXXXXXXXXXXXXXXXXXXXXXXXXXXXXXXXXXXXXXXXXXXXXXXXo XXX",
"XXXXXXXXXXXXXXXXXXXXXXXXXXXXXXXXXXXXXXXXXXXXXXXXXXXXXXXXXXXXXXXX",
"XXXXXXXXXXXX&&XXXXXXXXXXXXXXXXXXXXXXXXXXXXXXXXXXXXXXXXXXXXXXXXXX",
"XXXXXXXXXXXXX&ooXXX&&XXXXXXXXXXXXXXXXXXXXXXXXXXXXXXXXXXXXXXXXXXX",
"XXXXXXXXXXXXX ooXXo&XXXXXXXXXXXXXXXXXXXXXXXXXXXXXXXXXXXXXXXXXXXX",
"XXXXXXXXXXXXXX  XoooXXXXXXXXXXXXXXXXXXXXXXXXXXXXXXXXXXXXXXXXXXXX",
"XXXXXXXXXXXXXXXXXoo XXXXXXXXXXXXXXXXXXXXXXXXXXXXXXXXXXXXXXXXXXXX",
"XXXXXXXXXXXXXXXXX  XXXXXXXXXXXXXXXXXXXXXXXXXXXXXXXXXXXXXXXXXXXXX",
"XXXXXXXXXXXXXXXXXXXXXXXXXXXXXXXXXXXXXXXXXXXXXXXXXXXXXXXXXXXXXXXX",
"XXXXXXXXXXXXXXXXXXXXXXXXXXXXXXXXXXXXXXXXXXXXXXXXXXXXXXXXXXXXXXXX",
"XXXXXXXXXXXXXXXXXXXXXXXXXXXXXXXXXXXXXXXXXXXXXXXXXXXXXXXXXXXXXXXX",
"XXXXXXXXXXXXXXXXXX$$$$$$$$$$$$XXXXXXXX3-------XXXXXXXXXXXXXXXXXX",
"XXXXXXXXXXXXXXXXX<$$$$$$$$$$$$<XXXXXXX3-------3XXXXXXXXXXXXXXXXX",
"XXXXXXXXXXXXXXXXX<$$$$$$$$$$$$<XXXXXXX@4------3XXXXXXXXXXXXXXXXX",
"XXXXXXXXXXXXXXXXX<$$$$$$$$$$$$<XXXXXXXX@44----3XXXXXXXXXXXXXXXXX",
"XXXXXXXXXXXXXXXXX<$$$$$$$$$$$$<XXX--3XXX@@444-3XXXXXXXXXXXX&oXXX",
"XXXXXXXXXXXXXXXXX<$$$$$$$$$$$$<XX3----3XXX@@@43XXXXXXX&oXXo& XXX",
"XXXXXXXXXXXXXXXXX<$$$$$$$$$$$$<XX3-----3XXXXX@@XXXXXXX ooXooXXXX",
"XXo%&XXXXXXXXXXXX+<$$$$$$$$$$$<XX3------3XXXXXXXXXXXXXX ooo XXXX",
"XXX%ooXXXXXXXXXXXX+<$$$$$$$$$$<XX3----------3XXXXXXXXXX oo XXXXX",
"XXX.ooXXXXXXXXXXXo&&$$$$$$$$$$<XX3-----------3XXXXXXXXXX oXXXXXX",
"XXXX..XXXXXXXXXXoo&2$$$$$$$$$$<XX3------------3XXXXXXXXXXXXXXXXX",
"XXXXXXXXXXXXXXXXoo +<$$$$$$$$$<XX3------------3XXXXXXXXXXXXXXXXX",
"XXXXXXXXXXXo&XXXo XX+<$$$$$$$*<XX3------------3XXXXXXXXXXXXXXXXX",
"XXXXXXXXXXX &oXX o&XX222332223OXX@444444444444@XXXXXXXXXXXXXXXXX",
"XXXXXXXXXXXXooXXoo XX+++++++O+XXXX@@@@@@@@@@@@XXXXXXXXXXXXXXXXXX",
"XXXXXXXXXXXX o oo XXXXXXXXXXXXXXXXXXXXXXXXXXXXXXXXXXXXXXXXXXXXXX",
"XXXXXXXXX=###  Xo XX:$$$$$$$$$XXXX$$$$$$$$$$$XXXXXXXXXXXXX:$$$XX",
"XXXXXXXX=#####-o XX:$$$$$$$$$$;XX<$$$$$$$$$$$$XXXXXXXXXXX-$$$$;X",
"XXXXXXX=######;XXX<$$$$$$$$$$$;XX<$$$$$$$$$$$$<XXXXXXXXX,$$$$$:X",
"XXX;##########;XX:$$$$$$$$$$$$<XX<$$$$$$$$$$$$<XXXXXXXX,$$$$$$,X",
"XX=###########$XX<$$$$$$$$$$$$,XX<$$$$$$$$$$$$<XXX$$$$$$$$$$$$,X",
"X=############:XX<$$$$$$$$$$$$,XX<$$$$$$$$$$$$<XX,$$$$$$$$$$$$,X",
"X=############$oX<$$$$$$$$$$$$<XX<$$$$$$$$$$$$<XX<$$$$$$$$$$$$,X",
"X=############$XX<$$$$$$$$$$$$,XX<$$$$$$$$$$$$<XX<$$$$$$$$$$$$,X",
"X*############:oX<$$$$$$$$$$$$<XX<$$$$$$$$$$$$<XX<$$$$$$$$$$$$,X",
"X$############$XX<$$$$$$$$$$$$<XX<$$$$$$$$$$$$<XX<$$$$$$$$$$$$:X",
"X*############2XX-$$$$$$$$$$$$<XXX2&33$$$$$$$$<XX<$$$$$$$$$$$$:X",
"X=###########:OXX-$$$$$$$$$$$$1XXX++&O2$$$$$$$<XX<$$$$$$$$$$$$:X",
"X=##########2OXXX+3*$$$=$$$$$$<XXXXXoo+3$$$$$$<XX<$$$$$$$$$$$$:X",
"XO,2,,2,:2,:OXXXXX+32223222233OXXX.XooXO222222+XX+222222222322OX",
"XXOOOOOOOOOOXXXXXXX+O+++++O+++XXX&oX..XX++++++XXXX++++++++++++XX",
"XXXXXXXXXXXXXXXXXXXXXXXXXXXXXXXXXooXXXXXXXXXXXXXXXXXXXXXXXXXXXXX"
};
