/* XPM */
static char *Grass_11[] = {
/* columns rows colors chars-per-pixel */
"64 64 29 1 ",
"  c #686F16",
". c #72751B",
"X c #787B21",
"o c #605C48",
"O c #64604B",
"+ c #6C6852",
"@ c #7C7B6E",
"# c #807F72",
"$ c #7F8124",
"% c #848377",
"& c #838279",
"* c #848279",
"= c #878679",
"- c #86847A",
"; c #86847B",
": c #87857C",
"> c #87867C",
", c #87867D",
"< c #88867D",
"1 c #89877F",
"2 c #8A8A7D",
"3 c #8C8A80",
"4 c #8C8A81",
"5 c #8D8B82",
"6 c #8D8B83",
"7 c #8D8C82",
"8 c #8D8C83",
"9 c #8E8C83",
"0 c #939189",
/* pixels */
"................................................................",
"................................................................",
"................................................................",
"................................................................",
"................................................................",
"................................................................",
"................................................................",
"................................................................",
"................................................$$...$..........",
".................................................$$.$...........",
".................................................XX X...........",
"................................................. X  ...........",
"..................................X$$............. .............",
"...................................$XX..........................",
"................................... XX..........................",
"....................................  ..........................",
"..============....@@@@@@@@@@@@........<#######....@%@%@%@%@%@% .",
".9============9..*@@@@@@@@@@@@*......<########<..1%@%@%@%@%@%@=.",
".9============9..*@@@@@@@@@@@@*.....<#########<..1@%@%@%@%@%##=.",
".9============9..*@@@@@@@@@@@@*..<############<..=%@%@%@%@%@#%=.",
".9============9..*@@@@@@@@@@@@*..<############<..=@%@%@%######=.",
".9============9..*@@@@@@@@@@@@*..<############<..1%@%@%@######=.",
".9============9..*@@@@@@@@@@@@*..<############<..1@%@%@%######=.",
".9============9..*@@@@@@@@@@@@*..<############<..:%@%@%@######=.",
".9============9..*@@@@@@@@@@@@*..<############<..<############=.",
".9============9..*@@@@@@@@@@@@*..<############<..<############1.",
".9============9..*@@@@@@@@@@@@*..<############<..<############=.",
".9============9..*@@@@@@@@@@@@*..<############<..99999########1.",
".9============9..*@@@@@@@@@@@@*..3############3...oooo0#######<.",
".+000000000000+..o111111111116O..o909369909990o.......o9999099o.",
"..++++++++++++....OooooooOOOOO....ooooooooo+oo.........+oooo+o..",
"................................................................",
"..############....############....@@@@@@@@@@@@....#4==========..",
".1############:..*############*.X#@@@@@@@@@@@@*..4;;==========1.",
".:############:..=############=..##@@@@@@@@@@@*..9::==========9.",
".1############1..1############1..###@@@@@@@@@@*..2=:==========9.",
".1@###########1..:############1..:@@@@@@@@@@@@*..9============9.",
".:############=..:############*..:@@@@@@@@@@@@*..9============9.",
".1############1..:############;..:@@@@@@@@@@@@*..9============6.",
".1############:..1############1..4@@@@@@@@@@@@*..9============6.",
".=############:..1############1..4@@@@@@@@@@@@*..9============6.",
".1############1..:############1..#@@@@@@@@@@@11..9============6.",
".=############1..=############;..4@@@@@@@111ooo..9============6.",
".1############:..1############;..:@@@@@@#ooo.....00===========2.",
".3###########%1..4###########%=..:@@@@@@:o.......++00======2==9.",
".o996666999969o..o996666999999o..O11111$$.....$....++000000000o.",
"..OOOOoOOOOOoO....OOOOoOOOOOoO....Oooooo$XX.X$.......++++++++O..",
".....................................X$$ X XX ..................",
"......................................$XX  XX ..................",
"...................................... XX..X ...................",
"....................................... X.......................",
"................................................................",
"................................................................",
"................................................................",
"................................................................",
"................................................................",
"................................................................",
"................................................................",
"........................................................X$$.....",
".........................................................$XX....",
"......................................................... XX....",
"..........................................................  ....",
"................................................................",
"................................................................"
};
