/* XPM */
static char *Grass_07[] = {
/* columns rows colors chars-per-pixel */
"64 64 13 1 ",
"  c #636917",
". c #656C17",
"X c #686F16",
"o c #72751B",
"O c #787B21",
"+ c #A2783C",
"@ c #7F8124",
"# c #7F8226",
"$ c #A2814F",
"% c #BD9842",
"& c #C6A740",
"* c #9CA8AD",
"= c #B3B0A9",
/* pixels */
"oooooooooooooooooooooooooooooooooooooooooooooooooooooooooooooooo",
"oooooooooooooooooooooooooooooooooooooooooooooooooooooooooooooooo",
"oooooooooooooooooooooooooooooooooooooooooooooooooooooooooooooooo",
"oooooooooooooooooooooooooooooooooooooooooooooO#ooooooooooooooooo",
"oooooooooooooooooooooooooooooooooooooooooooooo##oooooooooooooooo",
"ooooooooooooooooooooooooooooooooooooooooooooooOOOooooooooooooooo",
"oooooooooooooooooooooooooooooooooooooooooooooo.OO.OO##oooooooooo",
"ooooooooooooooooooooooooooooooooooooooooooooooo**OOOoooooooooooo",
"oooooooooooooooooooooooooooooooooooooooooooooo*$*OO.oooooooooooo",
"oooooooooooooooooooO#ooooOOooooooooooooooooooo** O.ooooooooooooo",
"oooooooooooooooooooo##ooOOoooooooooooooooooooo  oooooooooooooooo",
"oooooooooooooooooooo.OOoOOoooooooooooooooooooooooooooooooooooooo",
"oooooooooooooooooooo.OOo..oooooooooooooooooooooooooooooooooooooo",
"ooooooooooooooooooooo..oooooooooooooooooooooooooooooooooooo#oooo",
"oooooooooooooooooooooooooooooooooooooooooooooooooooooooooo#ooooo",
"oooooooooooooooooooooooooooooooooooooooooooooooooooooooooOOooooo",
"oooooooooooooooooooooooooooooooooooooooooooooooooooooooooOO.oooo",
"ooooooooooooooooooooooooooooooooooooooooooooooooooooooooo..O#ooo",
"oooooooooooooooooooooooooooooooooooooooooooooooooooooooooooOOooo",
"ooooooooooooooooooooooooooooooooooooooooooooooooooooooooooo..ooo",
"oooooooo%%oooooooooooooooooooooooooooooooooooooooooooooooooooooo",
"ooooooo%++%o&&oooooooooooooooooooooooo##ooooo#oooooooooooooooooo",
"ooooooo %% &+&ooooooooooooooooooooooooo#OOoO#ooooooooooooooooooo",
"oooooooo  o&& ooooooooooooooooooooooO##.O.OO.ooooooooooooooooooo",
"ooooooooooo  oooooooooooooooooooooooo#OO**OO.oo==ooooooooooooooo",
"ooooooooooooooooooooooooooooooooooooo.O*$$*.ooo$=ooooooooooooooo",
"oooooooooooooooooooooooooooooooooooooo. ** ==oo  ooooooooooooooo",
"oooooooooooooooooooooooooooooooooooooooo  =$=ooooooooooooooooooo",
"oooooooooooooooooooooooooooooooooooooooooo== ooooooooooooooooooo",
"oooooooooooooooooooooooooooooooooooooooooo  oooooooooooooooooooo",
"oooooooooooooooooooooooooooooooooooooooooooooooooooooooooooooooo",
"oooooooooooooooooooooooooooooooooooooooooooooooooooooooooooooooo",
"oooooooooooooooooooooooooooooooooooooooooooooooooooooooooooooooo",
"oooooooooooooooooooooooooooooooooooooooooooooooooooooooooooooooo",
"oooooooooooooooooooooooooooooooooooooooooooooooooooooooooooooooo",
"oooooo@ooooooooooooooooooooooooooooooooooooooooooooooooooooooooo",
"ooooooo@oooooooooooooooooooooooooooOOooooooooooooooooooooooooooo",
"oooooooOOooooooooooooooooooooooooooX#@oooooooooooooooooooooooooo",
"ooooooXOOooooooooooooooooooooooooooo@OOoooOooooooooooooooooooooo",
"ooooo@OXXoooooooooooooooooooooooooooXOOo@Ooooooooooooooooooooooo",
"oooooOOoooooooooooooooooooooooooooooXOOO&&oooooooooooo@ooooooooo",
"oooooXXooooooooooooooooooooooooooooooXX&++&ooooooooooOOoo@@Ooooo",
"ooooooooooooooooooooooooooooooooooooooo && %%oooooOooOXoOO@ooooo",
"oooooooooooooooooooooooooooooooooooooooo  o+%oooooo@OXooOOXooooo",
"ooooooooooooooooooooooooooooooooooooooooooo  ooooooOO&&OOXO@oooo",
"ooooooooooooooooooooooooooOooooooooooooooooooooooooo&++&XOOXoooo",
"ooooooooooooooooooooooooooOOoooooooooooooooooooooooo && XOXooooo",
"ooooooooooooooooooooooooo==Oooooooooooooooooooooooooo  oo%%ooooo",
"oooooooooooooooooooooooo=$=Xoooooooooooooooooo@@Oooooooo%++%oooo",
"oooooooooooooooooooooooo== oooooooooooooooooooo@OOoooooo %% oooo",
"oooo@@ooooo@oooooooooooo  oooooooooooooooooooooXOOooooo&&  ooooo",
"ooooo@OOoO@oooooooooooooooooooooooooooooooooooooXXoooo&+& oooooo",
"ooO@@XOXOOXooooooooooooooooooooooooooooooooooooooooooo&& ooooooo",
"ooo@O==XOOXo@@ooo@oooooooooooooooooooooooooooooooooooo  oooooooo",
"oooX=$$=OXooo@@o@ooooooooooooooooooooooooooooooooooooooooooooooo",
"oooo == oooooOOXOoooooooooooooooooo@@ooooOOooooooooooooooooooooo",
"ooooo  ooooo**OXXooooooooooooooooooo@Oo&&Oooooooooooooooooooo@@o",
"ooooooooooo*$$*oooooooooooooooooooooXOO&+OooooooooooooooOooOO@oo",
"ooooooooooo ** o**ooooooooooooooooooXOO  Xoooooooooooooo@@XOOXoo",
"oooooooooooo  oo$*oooooooooooooooooooXXooooooooooooooooo@OOXXooo",
"oooooooooooooooo  ooooooooooooooooooooooooooooooooooooooXOOooooo",
"oooooooooooooooooooooooooooooooooooooooooooooooooooooooooooooooo",
"oooooooooooooooooooooooooooooooooooooooooooooooooooooooooooooooo",
"oooooooooooooooooooooooooooooooooooooooooooooooooooooooooooooooo"
};
