/* XPM */
static char *Grass_09[] = {
/* columns rows colors chars-per-pixel */
"64 64 40 1 ",
"  c #656C17",
". c #686F16",
"X c #72751B",
"o c #787B21",
"O c #605C48",
"+ c #64604B",
"@ c #66624D",
"# c #676455",
"$ c #6C6852",
"% c #7C7B6E",
"& c #807F72",
"* c #7F8124",
"= c #7F8226",
"- c #818074",
"; c #828175",
": c #848377",
"> c #838178",
", c #838279",
"< c #848279",
"1 c #878679",
"2 c #86847A",
"3 c #86847B",
"4 c #87857C",
"5 c #87867C",
"6 c #87867D",
"7 c #88867D",
"8 c #88867E",
"9 c #88877E",
"0 c #89877F",
"q c #8A8A7D",
"w c #8C8A80",
"e c #8C8A81",
"r c #8D8B82",
"t c #8D8B83",
"y c #8D8C82",
"u c #8D8C83",
"i c #8E8C83",
"p c #8E8C84",
"a c #8E8D84",
"s c #939189",
/* pixels */
"XX&&&&&&&&&&&&XXXX%%%%%%%%%%%%XXXX&&&&&&&&&&&&XXXX%%%%%%%%%%%%XX",
"X7&&&&&&&&&&&&7XX3%%%%%%%%%%%%>XX8&&&&&&&&&&&&8XX&%%%%%%%%%%%%3X",
"X7&&&&&&&&&&&&7XX,%%%%%%%%%%%%3XX8%&&&&&&&&&&&wXX&%%%%%%%%%%%%3X",
"X7&&&&&&&&&&&&7XX,%%%%%%%%%%%%3XX8&&&&&&&&&&&&8XX8%%%%%%%%%%%%&X",
"X7&&&&&&&&&&&&7XX3%%%%%%%%%%%%&XX++8&&&&&&&&&&&XX3%%%%%%%%%%%%3X",
"X7&&&&&&&&&&&&7XX,%%%%%%%%%%%%3XXX8&&&&&&&&&&&eXX3%%%%%%%%%%%%3X",
"X7&&&&&&&&&&&&7XX3%%%%%%%%%%%%,XXX8&&&&&&&&&&&8XX3%%%%%%%%%%%%>X",
"X7&&&&&&&&&&&&7XX&%%%%%%%%%%%%,XX8&&&&&&&&&&&&8XX&%%%%%%%%%%%%3X",
"X7&&&&&&&&&&&&7XX8%%%%%%%%%%%%<XX8%&&&&&&&&&&&8XX3%%%%%%%%%%%%>X",
"X7&&&&&&&&&&&&7XX&%%%%%%%%%%%%<XX8&&&&&&&&&&&&8XX3%%%%%%%%%%%%>X",
"X7&&&&&&&&&&&&7XX8%%%%%%%%%%%%2XX8&&&&&&&&&&&&8XX>%%%%%%%%%%%%3X",
"X7&&&&&&&&&&&&7XX&%%%%%%%%%%%%4XX8&&&&&&&&&&&o=XX>%oo%%%%%%%%%>X",
"X7&&&&&&&&&&&&7XX&%%%%%%%%%%&%&XX8&&&&&&&&&&&&==X>oo%%%%%%%%%%8X",
"X+tttttttttttt+XXOe8wweeeww47tOXXOtttttttttttt oo+oo000000888tXX",
"XX+@@@@@@@@@@+XXXXOOOOOOOOOOOOXXXX++++++++++++ ooX  +++OOOOO++XX",
"XXXXXXXXXXXXXXXXXXXXXXXXXXXXXXXXXXXXXXXXXXXXXXX  XXXXXXXXXXXXXXX",
"XX111111111111XXXX%:%&&&&&&&&&XXXX&&&&&&&&&&&&XXXX8&1111111111XX",
"Xi111111111111iXX::%--&&&&&&&&2XX;&&&&&&&&&&&&7XXt&w1111111111iX",
"Xi111111111111iXX1%:&&&&&&&&&&2XX4&&&&&&&&&&&&7XXpe&1111111111iX",
"Xi111111111111iXX4:%&&&&&&&&&&7XX4&&&&&&&&&&&&7XXp4e1111111114iX",
"Xi111111111111iXX1&&&&&&&&&&&&7XX7&&&&&&&&&&&&7XXp111111111111iX",
"Xi111111111111iXX4&&&&&&&&&&&&7XX7&&&&&&&&&&&&7XXp111111111111iX",
"Xi111111111111iXX7&&&&&&&&&&&&7XX7&&&&&&&&&&&&4XXp411111111111iX",
"Xi111111111111iXX7&&&&&&&&&&&&4XX7&&&&&&&&&&&&7XXp441111111114iX",
"Xi111111111111iXX7-%--------&&4XX4&&&&&&&&&&&&qXXi111111111111iX",
"Xi111111111111iXX7%:-%%--%%-&&4XX4&&&&&&&&&&&&4XXi111111111111iX",
"Xi111111111111iXX7:%--------&&qXX9&&&&&&&&&&&&4XXi1111q1111111iX",
"Xi111111111111iXX7----%--%--&&2XX4&&&&&&&&&&&&4XXs1111X1111111iX",
"Xi111111111111iXX7%---%--%;;;-qXX4&&&%:%&&&&&-4XXi11q**1111111iX",
"X$ssssssssssss@XX+iitittqqqqqqOXX+ttitaattttti+XX+sso=.sssssss$X",
"XX@@$$$$$$$@@@XXXX++++++++++@@XXXX++++++++++++XXXX+$Xo$$$$$$$$XX",
"XXXXXXXXXXXXXXXXXXXXXXXXXXXXXXXXXXXXXXXXXXXXXXXXXXXX..XXXXXXXXXX",
"XX&&&&&&&&&&&&XXXX&&&&&&&&&&&%XXXX111111111111XXXX&&&&&&&&&&&&XX",
"Xe&&&&&&&&&&&&&XXe&&&&&&&&&&&%8XXt111111111111qXX4&&&&&&&&&&&&7X",
"X8&&&&&&&&&&&&eoXw&&&&&&&&&&&&8XXt111111111111qXX4&&&&&&&&&&&&7X",
"X8&&&&&&&&&&&&&XX8&&&&&&&&&&&&8XXi111111111111iXX9&&&&&&&&&&&&7X",
"X8&&&&&&&&&&&&4XX&&&&&&&&&&&w##XXy111111111111iXXq&&&&&&&&&&&&7X",
"X8&&&&&&&&&&&&wXX8&&&&&&&&&&%wXXXi111111111111iXX4&&&&&&&&&&&&7X",
"X8&&&&&&&&&&&&wXX8&&&&&&&&&&&eXXXy111111111111iXX7&&&&&&&&&&&&7X",
"X8&&&&&&&&&&&&3XXe&&&&&&&&&&%%wXXy111111111111iXX4&&&&&&&&&&&&7X",
"X&&&&&&&&&&&&&4XX8&&&&&&&&&&&&eXXy111111111111iXX7&&&&&&&&&&&&7X",
"oe&&&&&&&&&&&&4XX8&&&&&&&&&&&&&XX$u11111111111iXX7&&&&&&&&&&&&pX",
"X&&&&&&&&&&&&&wXX8%&&&&&&&&&&&wXXX$u1111111111iXX7&&&&&&&&&&%t+X",
"X8&&&&&&&&&&&&4XX8&&&&&&&&&&&&wXXXXu1111111111iXX7&&&&&&&&&&a+XX",
"Xe&&&&&&&&&&=oOXXe&&&&&&&&&&%%eX==Xs1111111111iXX7&&&&&&&&&a@XXX",
"X+ttppt=oppo= oXXOppttttppptpttXX*oossssssssss+XX+ttttttttpOXXXX",
"XX+++++ ooOooXXXXXOOOO++OOOO#O+XX X.$$$$$$$$$$XXXX++@+O@O@@XXXXX",
"XXXXXXXX ooo XXXXXXXoXXoXXoXXoXXXX..XXXXXXXXXXXXXXXXXXXXXXXXXXXX",
"XX&&&&&& oo XXXXXXXXX%%%%%%%%%XXXX&&&&&&&&&&XXXXXX&&:%:%wXX-&&XX",
"X8&&&&&&& oXXXXXXXXX%%%%%%%%%%,XX7&&&&&&&&&&&&XXX7&&%:%:7X-%&&7X",
"X8&&&&&&&&&&&XXXXXo%%%%%%%%%%%,XX7&&&&&&&&&&&&7XXq&&:%&w@:%:&&7X",
"X8&&&&&&&&&&&&8Xo&%%%%%%%%%%%%,XX4&&&&&&&&&&&&7XX7oo%4eOX%:%&&7X",
"X8&&&&&&&&&&&&8XX&%%%%%%%%%%%%,XX4:%&&&&&&&&&&7XX=*7wO@XX&&&&&7X",
"X8&&&&&&&&&&&&&Xoo%%%%%%%%%%%%&XX4%:&&&&&&&&&&7Xoo.+@XXX&&&&&&7X",
"X8&&&&&&&&&&&&&o==%%%%%%%%%%%%&XX9-&&&&&&&&&&&7Xoo.XXXX&&&&&&&7X",
"X8&&&&&&&&&&&&3oo %%%%%%%%%%%%,oX4&&&&&&&&&&&&7Xo XXX&&&&&&&&&7X",
"X8&&&&&&&&&&&&&oo&%%%%%%%%%%%%,XX4&&&&&&&&&&&&7XXXX&&&&&&&&&&&7X",
"X8&&&&&&&&&&&&e  e%%%%%%%%%%%%,XX9&&&&&&&&&&&&7XX7&&&&&&&&&&&&7X",
"X8&&&&&&&&&&&&8XX%%%%%%%%%%%%%,XX9&&&&&&&&&&&&7XXq&&&&&&&&&&&&7X",
"X8&&&&&&&&&&&&8Xo&%%%%%%%%%%%waXX4&&&&&&&&&&&ttXX4&&&&&&&&&&&&7X",
"X8&&&&&&&&&&&&8XXw%%%%%%%%%%eO+XX4:%&-%:&&tto==XXw-%&&&&:%:%&%7X",
"XOtptttttttttt+XXOtweeewwww3+XXXX+ttywuwpa++O=ooX+patttttttppp@X",
"XXO@++++++++++XXXXOOOOOOOOOOXXXXXX++++++@OXXX.ooXX++++++O@++++XX",
"XXXXXXXXXXXXXXXXXXoXX XXXXXXXXXXXXXXXXXXXXXXXX.oXXXXXXXXXXXXXXXX"
};
