/* XPM */
static char *Grass_13[] = {
/* columns rows colors chars-per-pixel */
"64 64 38 1 ",
"  c #656C17",
". c #686F16",
"X c #72751B",
"o c #787B21",
"O c #5F5B46",
"+ c #605C48",
"@ c #64604B",
"# c #6C6852",
"$ c #7C7B6E",
"% c #7E7D71",
"& c #807F72",
"* c #807F73",
"= c #7F8124",
"- c #7F8226",
"; c #828077",
": c #838178",
"> c #838278",
", c #838279",
"< c #848279",
"1 c #84827A",
"2 c #878679",
"3 c #87857C",
"4 c #87867D",
"5 c #88867D",
"6 c #88867E",
"7 c #88877E",
"8 c #89877E",
"9 c #89877F",
"0 c #8A8A7D",
"q c #898780",
"w c #8C8A80",
"e c #8C8A81",
"r c #8D8B82",
"t c #8D8B83",
"y c #8D8C82",
"u c #8D8C83",
"i c #8E8C83",
"p c #939189",
/* pixels */
"XX&&&&&&&&&&&&XXXX222222222222XXXX&&&&&&&&&&&&XXXXXXX$$$$$$$$$XX",
"X5&&&&&&&&&&&&4XX02222222222220XX5&&&&&&&&&&&&5XXXXXoo$$$$$$$$&X",
"X5&&&&&&&&&&&&5XXq2222222222220XX5&&&&&&&&&&&&2XXXX=o$$$$$$$$$*X",
"X5&&&&&&&&&&&&5XXi222222222222iXX5&&&&&&&&&&&&2XXXoo,$$$$$$$$%<X",
"X5&&&&&&&&&&&&5XXi222222222222iXX2;;&;%;&&&&&&--oXoo<$$$$$$$$$,X",
"X5&&&&&&&&&&&&5XXi222222222222iXX@2o=q2&&&&&&;qooo o$$$$$$$$$$,X",
"X5&&&&&&&&&&&&5XXi222222222222iXXX@@-o@0;&&&&&6 oo<$$$$$$$$$$$,X",
"X5&&&&&&&&&&&&5XXi222222222222iXXXXXooX+5&&&&&6X <%$$$$$$$$$$$<X",
"X5&&&&&&&&&&&&5XXi222222222222iXXXXX. XX q;%**qXX<$$$$$$$$$$$$<X",
"X5&&&&&&&&&&&&5XXi222222222222tXXXXXXXXXX@q%**6XX<$$$$$$$$$$$$<X",
"X@5&&&&&&&&&&&5XXi222222222222tXX$;;;XXXXXq%**qXX<$$$$$$$$$$$$<X",
"XX@5&&&&&&&&&&4XXi222222222222tXX;;$;;XXXoq%*%*XX,$$$$$$$$$$$$<X",
"XXX@5&&&&&;;&&4XXi222222=2222p#XX0;;;$;XXXtt**qXXO5$$$$$$$$$$$qX",
"XXXX@tttti0itt+XX#ppppp= pppp#XXX@ii00iXXX++ttqXXX+5555qqq5t55XX",
"XXXXX@@@@@@@@@@XXX####oo ####XXXXX@@@@@XXXXX@+@XXXXO+O+++++@@+XX",
"XXXXXXXXXXXXXXXXXXXXXXo XXXXXXXXXXXXXXXXXXXXoXoXXXXXXXXXXXXXXXXX",
"XX$$$XX<$$$$$$XXXXXX&&&&&&&&&&XXXXXXXX0&;;;$;;XXXX&&&&&&&&&&XXXX",
"X<$$$$X<$$$$$$<XXX&&&&&&&&&&&&5XXXXXX0&&-$;;;;2XX4&&&&&&&&&&&&XX",
"X<$$$$$+q$$$$$<XX5;&&&&&&&&&&&5XXXXX0&&&>&$;$;2XX4&&&&&&&&&&&&5X",
"X<$$$$$X+q5$$$<XX5&&&&&&&&&&&&5XXX44&&&&&&;;$;2XX4&&&&&&&&&&&&5X",
"X<$$$$$XX++qq5qXX5&&&&&&&&&&&&5XX4&&&&&&&&&&$;2XX4&&&&&&&&&&&&5X",
"X<$$$$$$XXX++++XX2&&&&&&&&&&&&5XX0&&&&&&&&&&;;2XX4&&&&&&&&&&&&5X",
"X<$$$$$$$XXXXXXXX5&&&&&&&&&&&&5XX0&&&&&&&&&&;$2XX4&&&&&&&&&&&&5X",
"X<$$$$$$$$$XXXXXX5&&&&&&&&&&&&5XX4&&&&&&&&&&;;2XX4&&&&&&&&&&&&5X",
"X<$$$$$$$$$$$XXXX5&&&&&&&&&&&&5XX7*%&&&&$;;;$;2XX5&&&&&&&&&iii@X",
"X<$$$$$$$$$$$$<XX5&&&&&&&&&&&&5XX7**&&&&;;$;$;2XX5&&&&&&&&i@+@XX",
"X<$$$$$$$$$$$$<XX5&&&&&&&&&&&&5XX7**&&&&;$;$;;2XX5&&&&*&&i@XXXXX",
"X<$$$$$$$$$$$$<XX@t&&&&&&&&&&&5XX7**&&&&;$;;;$2XX4&&&&**t+XXXXXX",
"X<$$$$$$$$$$$&<XXX@ttt&&&&&&&&5XX7&&&&&&;;;;%;5XX4&&**&i@XXXXXXX",
"XXq50qqqq55q5qtXXXX@@@tttttttttXX@qq0777qq220q@XX@iiiii+XXXXXXXX",
"XX+++++++++++++XXXXXXX@@@@@@@@@XXX@@@@@@@@@@+@XXXX+@@@@XXXXXXXXX",
"XXXXXXXXXXXXXXXXXXXXXXXXXXXXXXXXXXXXXXXXXXXXXXXXXXXXXXXXXXXXXXXX",
"XXXXX5&&&&&&&&XXXX&&&&&&&&&&&&XXXX222222222222XXXX;;;;$-&&&&&&=.",
"XXXX5&&&&&&&&&5XX5&&&&&&&&&&&&5XXu222222222222iXX5;$$;;;&&&&&&2X",
"XXX5&&&&&&&&&&5XX5&&&&&&&&&&&&5XXu222222222222iXX2;$$;;;&&&&&&0X",
"X5&&&&&&&&&&&&5XX5&&&&&&&&&&&&5XXu222222222222iXX2;;;;$$&&&&&&0X",
"X5&&&&&&&&&&&&5XX5&&&&&&&&&&&&5XXu222222222222iXX2$;;$;;&&&&&&2X",
"X5&&&&&&&&&&&&5XX5&&&&&&&&&&&&5XXu222222222222iXX2;;;;$;&&&&&&2X",
"X5&&&&&&&&&&&&5XX5t&&&&&&&&&&&5XXu222222222222iXX2;$$$;;&&&&&&7X",
"X5&&&&&&&&&&&&5XX@@t&&&&&&&&&&5XXu222222222222iXX2;;;;;$&&&&&&2X",
"X5&&&&&&&&&&&&5XXXX@tt&&&&&&&&5XXu222222222222iXX4*%&&&&&&&&&&7X",
"X5&&&&&&&&&&&&5XXXXX@@tttt&&&&5XXu222222222222iXX@iti&&&&&&&&&7X",
"X5&&&&&&&&&&&@@XXXXXXX@@@@t&&&5XXi222222222222#XXX@@@t*&&&&&&&7X",
"X5&&&&&&&&&&@XXXXXXXXXXXXX@5&&5XX02222222po==#XXXXXXX@i%&&&&&&7X",
"X5&&&&&&&&&@XXXXXXXXXXXXXoX5&;5XX0222222p##=ooXXXXXXXX@i&%&%&&4X",
"X@tttttttt@XXXXXXXXXXXXX==X@ti@XXXpppppp#XX ooXXXXXXXXX@iiiyyy@X",
"XX@@@@@@@@XXXXXXXXXXXXXo=.XX@@XXXX######XXXX..XXXXXXXXXX@@@@@@XX",
"XXXXXXXXXXXXXXXXXXXXXXXooXXXXXXXXXXXXXXXXXXXXXXXXXXXXXXXXXXXXXXX",
"XX222222222XXXXXXXXXXXX..XXXXXXXXXXXXXXXXXXXXXXXXXX$$$$$qXXXXXXX",
"Xi222222222iXXX=XXXXXXXXXXXXXXXXXXXXXXXXXXXXXXXXXX,$$$$q+XXX$$,X",
"Xi222222222iXXXooXXXXXXXXXXXXXXXXXXXXXXXXXX-=XXXXX<$$$qOXXX$$$<X",
"Xi222222222==oX oXXXXXXXXXXXXXXXXXXXXXXXXXXX-ooXXX-=qqOXXXX$$$<X",
"Xi22222222##-oo  X--oXXXXXXXXXXXXXXXXXXXXXXX ooXXo-+++XXXX<$$$<X",
"Xi2222222o-X ooX oo-XXXXXXXXXXXXXXXXXXXXXXXXX  XoooXXXXXX<$$$$<X",
"Xi222222#X-oo oXoooXXXXXXXXXXXXXXXXXXXXXXXXXXXXXoo XXXXX<$$$$$<X",
"Xi22222#XX ooX  oo XXXXXXXXXXXXXXXXXXXXXXXXXXXXX  XXX%$$$$$$$$<X",
"Xi2222iXXXX oXX   XXXXXXXXXXXXXXXXXXXXXXXXXXXXXXXXXX<$$$$$$$$$<X",
"Xi2222iXXXXX XooXXXXXXXXXXXXXXXXXXXXXXXXXXXXXXXXXXXX<$$$$$$$$$<X",
"Xi222##XXXXXXX- XXXXXXXXXXXXXXXXXXXXXXXXXXXXXXXXXXXXq$$$$$$$$$<X",
"Xi22#XXXXXXXXX XXXXXXXXXXX==oXXXXXXXXXXXXXXXXXXXXXXX+0$$$$$$$$<X",
"X###XXXXXXXXXXXXXXXXXXXXXoo=XXXXXXXXXXXXXXXXXXXXXXXXX+5$$$$$$$,X",
"XXXXXXXXXXXXXXXXXXXXXXXXXoo XXXXXXXXXXXXXXXXXXXXXXXXXX+qqq5q0q+X",
"XXXXXXXXXXXXXXXXXXXXXXXXX..XXXXXXXXXXXXXXXXXXXXXXXXXXXX+++++++XX",
"XXXXXXXXXXXXXXXXXXXXXXXXXXXXXXXXXXXXXXXXXXXXXXXXXXXXXXXXXXXXXXXX"
};
