/* XPM */
static char *Grass_12[] = {
/* columns rows colors chars-per-pixel */
"64 64 32 1 ",
"  c #656C17",
". c #686F16",
"X c #72751B",
"o c #787B21",
"O c #605C48",
"+ c #64604B",
"@ c #68644F",
"# c #6C6852",
"$ c #7C7B6E",
"% c #807F72",
"& c #7F8124",
"* c #7F8226",
"= c #838275",
"- c #838279",
"; c #848279",
": c #878679",
"> c #86847A",
", c #87857C",
"< c #87867C",
"1 c #87867D",
"2 c #88867D",
"3 c #89877F",
"4 c #8A8A7D",
"5 c #8A887F",
"6 c #8C8A80",
"7 c #8C8A81",
"8 c #8D8B82",
"9 c #8D8B83",
"0 c #8D8C83",
"q c #8E8C83",
"w c #8F8D85",
"e c #939189",
/* pixels */
"XXXXXXXXXXXXXXXXXXXXXXXXXXXXXXXXXXXXXXXXXXXXXXXXXXXXXXXXXXXXXXXX",
"XXXXXXXXXXXXXXXXXXXXXXXXXXXXXXXXXXXXXXXXXXXXXXXXXXXXXXXXXXXXXXXX",
"XXXXXXXXXXXXXXXXXXXXXXXXXXXXXXXXXXXXXXXXXXXXXXXXXXXXXXXXXXXXXXXX",
"XXXXXXXXXXXXXXXXXXXXXXXXXXXXXXXXXXXXXXXXXXXXXXXXXXXXXXXXXXXooXXX",
"XXXXXXXXXXXXXXXXXXXXXXXXXXXXXXXXXXXXXXXXXXXXXXXXXXXXXXXXXX*oXXXX",
"XXX&XXXXXXXXXXXXXXXXXXXXXXXXXXXXXXXXXXXXXXXXXXXXXXXXXXXXXoo XXXX",
"XXXX&XXXXXXXXXXXXXXXXXXXXXXXXXXXXXXXXXXXXXXXXXXXXXXXX**oXoo XXXX",
"XXXXooXXXXXXXXXXXXXXXXXXXXXXXXXXXXXXXXXXXXXXXXXXXXXXXX*oo o XXXX",
"XXX.ooXXXXXXXXXXXXXXXXXo**XXXXXXXXXXXXXXXXXXXXXXXXXXXX oo  XXXXX",
"XX&o..XXXXXXXXXXXXXXXXoo*XXXXXXXXXXXXXXXXXXXXXXXXXXXXXX  XXXXXXX",
"XXooXXXXXXXXXXXXXXXXXXoo XXXXXXXXXXXXXXXXXXXXXXXXXXXXXXXXXXXXXXX",
"XX..XXXXXXXXXXXXXo*XXXo XXXXXXXXXXXXXXXXXXXXXXXXXXXXXXXXXXXXXXXX",
"XXXXXXXXXXXXXXXXX *oXX o*XXXXXXXXXXXXXXXXXXXXXXXXXXXXXXXXXXXXXXX",
"XXXXXXXXXXXXXXXXXXooXXoo XXXXXXXXXXXXXXXXXXXXXXXXXXXXXXXXXXXXXXX",
"XXXXXXXXXXXXXXXXXX o oo XXXXXXXXXXXXXXXXXXXXXXXXXXXXXXXXXXXXXXXX",
"XXXXXXXXXXXXXXXXXXX  oo XXXXXXXXXXXXXXXXXXXXXXXXXXXXXXXXXXXXXXXX",
"XX============XXXXXXXo 6%%%%%%XXXX%%%%%9XX%%%%XXXX%%%%%%%%%%%%XX",
"X5============6XXXXXXX6$%%%%%%2XX2%%%%9+XX%%%%2XX2%%%%%%%%%%%%2X",
"X5============6XXXX6%%$$%%%%%%2XX2%%%%+XXX%%%%2XX2%%%%%%%%%%%%2X",
"X5============6XX,$$%=$-%%%%%%2XX99999+XX%%%%%2XX2%%%%%%%%%%%%2X",
"X5============1XX,%%%%%%%%%%%%2XX+++++XX%%%%%%2XX2%%%%%%%%%%%wwX",
"X5===========%6XX6%%%%%%%%%%%%2XXXXXXXX%%%%%%%2XX2%%%%%%%%%%wOOX",
"Xwwww=========6XX6%%%%%%%%%%%%2XXX%%%%%%%%%%%%2XX2%%%%%%%%%%XXXX",
"X@@@@www======6XX,%%%%%%%%%%%%2XX2%%%%%%%%%%%%2XX2%%%%%%%%%%XXXX",
"XXXXX@@@w=====7XX,$%%%%%%%%%%%6XX2%%%%%%%%%%%%2XX2%%%%%%%%%%XXXX",
"Xq===XXX@w====-XX,%%%%%%%%%%%%1XX2%%%%%%%%%%%%2XX2%%%%%%%%%%%XXX",
"Xq=====XX@w===;XX6%%%%%%%%%%%%1XX2%%%%%%%%9w99+XX2%%%%%%%%%%%%XX",
"Xq======XX@5==;XX6%%%%%%%%%%%$1XX2%%%%%%%wO+++XXXO9%%%%%%%%%%%2X",
"Xq=======o*@7-1*o6$%%%$%%%$%%%6XX2%%%%%%2+XXXXXXXX+w%%%%%%%%%$2X",
"X#wwwwwwwX&&++o&XOwwwwwwwwwwww+XX+999999wXXXXXXXXXXOww999wwwwwOX",
"XX#@@@@@@XooXoo XXOOO+++O+++O+XXXX+++++++XXXXXXXXXXX++++O+++++XX",
"XXXXXXXXXX  Xoo XXoXXXXXXXXXXXXXXXXXXXXXXXXXXXXXXXXXXXXXXXXXXXXX",
"XX%%%%%%%%%%%  XXXXX%%%%%%%%%%XXXX$$$$$$$$$$$$oXXX-6::::::::::XX",
"X2%%%%%%%%%%%%2XXXX%%%%%%%%%%%>XX;$$$$$$$$$$$$$XX76%::::::::::qX",
"X2%%%%%%%%%%%%2XXX%%%%%%%%%%%%1XX;$$$$$$$$$$$$$XX6-,::::::::::qX",
"X2%%%%%%%%%%%%2XX1%%%%%%%%%%%%1XX;$$$$$$$$$$$$-oXeeee:::::::::qX",
"X2%%%%%%%%%%%%2XX>%%%%%%%%%%%%1XX;$$$$$$$$$$$$%XX####e>:::::::qX",
"X2%%%%%%%%%%%%2XX1%%%%%%%%%%%%1XX;$$$$$$$$$$$$,XXXXXXX>>::::::8X",
"X2%%%%%%%%%%%%2XX2%%%%%%%%%%$=1XX;$$$$$$$$,6666XXXXXXXe;::::::8X",
"X2%%%%%%%%%%%%2XX2%%%%%%%%%%=$1XX;$$$$$$$6OOOO**XXXXXX#ee:::::8X",
"X2%%%%%%%%%%%%2XX2$=%%%%%%%%%%1XX;$$$$$$oOXXoo*XXq:::XX##e::::8X",
"X2%%%%%%%%%%%%2XX+9w999%%%%%%%1XX;$$$$$6Oo*Xoo XXw::::XXX#e:::8X",
"X2%%%%%%%%%%%%2XXX+++O+1%%%%%%1XX;$$$66OX*oo  XXXq::::::XX#eee8X",
"X2%%%%%%%99999XXXXXXXXX9%%%=%%1XXX622OOXX ooXXXXXq:::::::XX###XX",
"X2%%%%%%w+++++XXXXXXXXX*o%%$%%>XXXOOOXXXXX XXXXXXq:::::::XXXXXXX",
"X+999999+XXXXXXXXX*oXXo* 00900+XXXXXXXXXXXXXXXXXX#eeeeeeeoXXXXXX",
"XX++++++XXXXXXXXXX ooXooX+++++XXXXXXXXXXXXXXXXXXXX######ooXXXXXX",
"XXXXXXXXXXXXXXXXXXX ooo XXXXXXXXXXXXXXXXXXXXXXXXXXXXXXXXo.XXXXXX",
"XXXXXXXXXXXXXXXXXXX oo XXXXXXXXXXXXXXXXXXXXXXXXXXXXXXXXX.XXXXXXX",
"XXXXXXXXXXXXXXXXXXXX oXXXXXXXXXXXXXXXXXXXXXXXXXXXXXXXXXXXXXXXXXX",
"XXXXXXXXXXXXXXXXXXXXXXXXXXXXXXXXXXXXXXXXXXXXXXXXXXXXXXXXXXXXXXXX",
"XXXXXXXXXXXXXXXXXXXXXXXXXXXXXXXXXXXXXXXXXXXXXXXXXXXXXXXXXXXXXXXX",
"XXXXXXXXXXXXXXXXXXXXXXXXXXXXXXXXXXXXXXXXXXXXXXXXXXXXXXXXXXXXXXXX",
"XXXXXXXXXXXXXXXXXXXXXXXXXXXXXXXXXXXXXXXXXXXXXXXXXXXXXXXXXXXXXXXX",
"XXXXXXXXXXXXXXXXXXXXXXXXXXXXXXXXXXXXXooXXXXXXXXXXXXXXXXXXXXXXXXX",
"XXXXXXXXXXXXXXXXXXXXXXXXXXXXXXXXXXXXX.&&XXXXXXXXXXXXXXXXXXXXXXXX",
"XXXXXXXXXXXXXXXXXXXXXXXXXXXXXXXXXXXXXX&ooXXXoXXXXXXXXXXXXXXXXXXX",
"XXXXXXXXXXXXXXXXXXXXXXXXXXXXXXXXXXXXXX.ooX&oXXXXXXXXXXXXXXXXXXXX",
"XXXXXXXXXXXXXXXXXXXXXXXXXXXXXXXXXXXXXX.ooo&&XXXXXXXXXXXXXXXXXXXX",
"XXXXXXXXXXXXXXXXXXXXXXXXXXXXXXXXXXXXXXX..oo.XXXXXXXXXXXXXXXXXXXX",
"XXXXXXXXXXXXXXXXXXXXXXXXXXXXXXXXXXXXXXXXX..XXXXXXXXXXXXXXXXXXXXX",
"XXXXXXXXXXXXXXXXXXXXXXXXXXXXXXXXXXXXXXXXXXXXXXXXXXXXXXXXXXXXXXXX",
"XXXXXXXXXXXXXXXXXXXXXXXXXXXXXXXXXXXXXXXXXXXXXXXXXXXXXXXXXXXXXXXX",
"XXXXXXXXXXXXXXXXXXXXXXXXXXXXXXXXXXXXXXXXXXXXXXXXXXXXXXXXXXXXXXXX"
};
