/* XPM */
static char *Grass_08[] = {
/* columns rows colors chars-per-pixel */
"64 64 12 1 ",
"  c #959E22",
". c #98A323",
"X c #9DA722",
"o c #ACB028",
"O c #B4B82F",
"+ c #BBBE33",
"@ c #BCC036",
"# c #DABD5B",
"$ c #E6DE64",
"% c #DFCB82",
"& c #EAEFF1",
"* c #F3F2F0",
/* pixels */
"oooooooooooooooooooooooooooooooooooooooooooooooooooooooooooooooo",
"oooooooooooooooooooooooooooooooooooooooooooooooooooooooooooooooo",
"oooooooooooooooooooooooooooooooooooooooooooooooooooooooooooooooo",
"oooooooooooooooooooooooooooooooooooooooooooooooooooooooooooooooo",
"oooooooooooooooooooooooooooooooooooooooooooooooooooooooooooooooo",
"oooooooooooooooooooooooooooooooooooooooooooooooooooooooooooooooo",
"ooooooooooooooooooooooooooooooooooooooooooooooooooooO@oooo@@oooo",
"ooooooooooooooooooooooooooooooooooooooooooooooooooooo@@ooO@ooooo",
"oooooooooooooooooooooooooooooooooooooooooooooooooooooOOoOO.ooooo",
"ooooooooooooooooooooooooooooooooooooooooooooooooooooo$$oOO.ooooo",
"oooooooooooooooooooooooooooooooooooooooooooooooooooo$##$..oooooo",
"oooooooooooooooooooooooooooooooooooooooooooooooooooo $$ oooooooo",
"ooooooooooooooooo+ooooooooooooooooooooooooooooooooooo  ooooooooo",
"ooooooooooooooooOOoo+OOooooooooooooooooooooooooooooooooooooooooo",
"ooooooooooooo+ooOXoO++oooooooooooooooooooooooooooooooooooooooooo",
"oooooooooooooo+OXoOO+Xoooooooooooooooooooooooooooooooooooooooooo",
"oooooooooooooXOOooOOXO+ooooooooooooooooooooooooooooooooooooooooo",
"ooooooooooooooXOoo**OOXooooooooooooooooooooooooooooooooooooooooo",
"oooooooooooooooXo*%%*Xoooooooooooooooooooooooooooooooooooooooooo",
"ooooooooooooooooo ** ooooooooooooooooooooooooooooooooooooooooooo",
"ooooooooooooooo*%o  oooooooooooooooooooooooooooooooooooooooooooo",
"ooooooooooooooo**ooooooooooooooooooooooooooooooooooooooooooooooo",
"ooooooooooooooo  ooooooooooooooooooooooooooooooooooooooooooooooo",
"oooooooooooooooooooooooooooooooooooooooooooooooooooooooooooooooo",
"oooooooooooooooooooooooooooooooooooooooooooooooooooooooooooooooo",
"oooooO++oooooooooooooooooooooooooooooooooooooooooooooooooooooooo",
"oooooo+OOooooooooooooooooooooooooooooooooooooooooooooooooooooooo",
"ooooooXOOooooooooooooooooooooooooooooooooooooooooooooooooooooooo",
"oooooooXXooooooooooooooooooooooooooooooooooooooooooooooooooooooo",
"oooooooooooooooooooooooooooooooooooooooooooooooooooooooooooooooo",
"oooooooooooooooooooooooooooooooooooooooooooooooooooooooooooooooo",
"oooooooooooooooooooooooooooooooooooooooooooooooooooooooooooooooo",
"oooooooooooooooooooooooooooooooooooooooooooooooooooooooooooooooo",
"oooooooooooooooooooooooooooooooooooooooooooooooooooooooooooooooo",
"ooooooooooooooooooooooooooooOooooooooooooooooooooooooooooooooooo",
"ooooooooooooooooooooooooooo++ooooooooooooooooooooooooooooooooooo",
"ooooooooooooooooooooooooooO+Xooooooooooooooooooooooooooooooooooo",
"ooooooooooooooooooooooooooOOoooooooooooooooooooooooooooooooooooo",
"ooooooooooooooooooooooooooXXoooooooooooooooooooooooooooooooooooo",
"oooooooooooooooooooooooooooooooooooooooooooooooooooooooooooooooo",
"oooooooooooooooooooooooooooooooooooooooooooooooooooooooooooooooo",
"oooooooooooooooooooooooooooooooooooooooooooooooooooooooooooooooo",
"oooooooooooooooooooooooooooooooooooooooooooooooooooooooooooooooo",
"oooooooooooooooooooooooooooooooooooooooooooooooooooooo+ooooooooo",
"oooooooooooooooooooooooooooooooooooooooooooooooooooooOOooO++oooo",
"oooooooooooooooooooooooooooooooooooooooooooooooooo+ooOXoOO+ooooo",
"ooooooooooooooooooooooooooooooooooooooooooooooooooXOOoXOOOXooooo",
"ooooooo++ooooOOoooooooooooooooooooooooooooooooooooXOO&&OOXO+oooo",
"oooooooo+OOo++oooooooooooooooooooooooooooooooooooooX&%%&XOOXoooo",
"oooooO++XOXOOXoooooooooooooooooooooooooooooooooooooo && XOXooooo",
"oooooo+OOXXO&&ooooooooooooooooooooooooooooooo++Oooooo  &&ooooooo",
"ooooooXO**oO%&oooooooooooooooooooooooooooooooo+OO**oooo%&ooooooo",
"ooooooo*%%*o  ooooooooooooooooooooooooooooooooXO*%%*ooo  ooooooo",
"ooooooo ** ooooooooooooooooooooooooooooooooooooX ** oooooooooooo",
"oooooooo  ooooooooooooooooooooooooooooooooooooooo  ooooooooooooo",
"oooooooooooooooooooooooooooooooooooooooooooooooooooooooooooooooo",
"oooooooooooooooooooooooooooooooooooooooooooooooooooooooooooooooo",
"oooooooooooooooooooooooooooooooooooooooooooooooooooooooooooooooo",
"oooooooooooooooooooooooooooooooooooooooooooooooooooooooooooooooo",
"oooooooooooooooooooooooooooooooooooooooooooooooooooooooooooooooo",
"oooooooooooooooooooooooooooooooooooooooooooooooooooooooooooooooo",
"oooooooooooooooooooooooooooooooooooooooooooooooooooooooooooooooo",
"oooooooooooooooooooooooooooooooooooooooooooooooooooooooooooooooo",
"oooooooooooooooooooooooooooooooooooooooooooooooooooooooooooooooo"
};
