/* XPM */
static char *Grass_10[] = {
/* columns rows colors chars-per-pixel */
"64 64 31 1 ",
"  c #656C17",
". c #686F16",
"X c #72751B",
"o c #787B21",
"O c #605C48",
"+ c #64604B",
"@ c #6C6852",
"# c #7C7B6E",
"$ c #807F72",
"% c #7F8124",
"& c #7F8226",
"* c #828076",
"= c #828077",
"- c #848377",
"; c #838178",
": c #838278",
"> c #838279",
", c #848279",
"< c #878679",
"1 c #87867D",
"2 c #88867D",
"3 c #89877F",
"4 c #8A8A7D",
"5 c #8C8A80",
"6 c #8C8A81",
"7 c #8D8B82",
"8 c #8D8B83",
"9 c #8D8C82",
"0 c #8D8C83",
"q c #8E8C83",
"w c #939189",
/* pixels */
"XXXXXXXXXXXXXXXXXX<<<<<<<<<<<<XXXX$$$$$$$$$$$$XXXXXXXXXXXXXXXXXX",
"XXXXXXXXXXXXXXXXXq<<<<<<<<<<<<qXX2$$$$$$$$$$$$2XXXXXXXXXXXXXXXXX",
"XXXXXXXXXXXXXXXXXq<<<<<<<<<<<<qXX2$$$$$$$$$$$$2XXXXXXXXXXXXXXXXX",
"XXXXXXXXXXXXXXXXXq<<<<<<<<<<<<qXX2$$$$$$$$$$$$2XXXXXXXXXXXXXXXXX",
"XXXXXXXXXXXXXXXXXq<<<<<<<<<<<<qXX2$$$$$$$$$$$$2XXXXXXXXXXXXXXXXX",
"XXXXXXXXXXXXXXXXXq<<<<<<<<<<<<qXX2$$$$$$$$$$$$2XXXXXXXXXXXXXXXXX",
"XXXXXXXXXXXXXXXXXq<<<<<<<<<<<<qXX2$$$$$$$$$$$$1XXXXXXXXXXXXXXXXX",
"XXXXXXXXXXXXXXXXXq<<<<<<<<<<<<qXX2$$$$$$$$$$$$1XXXXXXXXXXXXXXXXX",
"XXXXXXXXXXXXXXXXXq<<<<<<<<<<<<qXX2$$$$$$$$$$$$5XXXXXXXXXXXXXXXXX",
"XXXXXXXXXXXXXXXXXq<<<<<<<<<<<<qXX2$$$$$$$$$$$$1XXXXXXXXXXXXXXXXX",
"XXXXXXXXXXXXXXXXXq<<<<<<<<<<<<qXX2$$$$$$$$$$=$5XXXXXXXXXXXXXXXXX",
"XXXXXXXXXXXXXXXXXq<<<<<<<<<<<<qXX2$$$$$$$$$$##1XXXXXXXXXXXXXXXXX",
"XXXXXXXXXXXXXXXXXq<<<<<<<<<<<<qXX2$$$$$$$$#$$$5XXXXXXXXXXXXXXXXX",
"XXXXXXXXXXXXXXXXX+wwwwwwwwwwww+XX+888888521558OXXXXXXXXXXXXXXXXX",
"XXXXXXXXXXXXXXXXXX+++++++@@@@+XXXX+++++OOOOOOOXXXXXXXXXXXXXXXXXX",
"XXXXXXXXXXXXXXXXXXXXXXXXXXXXXXXXXXXXXXXXXXXXXXXXXXXXXXXXXXXXXXXX",
"XXXXXXXXXXXXXXXXXX$$$$$$$$$$$$XXXX############XXXXXXXXXXXXXXXXXX",
"XXXXXXXXXXXXXXXXX2$$$$$$$$$$$$1XX1############$XXXXXXXXXXXXXXXXX",
"XXXXXXXXXXXXXXXXX2$$$$$$$$$$$$2XX>############>XXXXXXXXXXXXXXXXX",
"XXXXXXXXXXXXXXXXX2$$$$$$$$$$$$2XX>############>XXXXXXXXXXXXXXXXX",
"XXXXXXXXXXXXXXXXX2$$$$$$$$$$$$2XX>############>XXXXXXXXXXXXXXXXX",
"XXXXXXXXXXXXXXXXX2$$$$$$$$$$$$2XX>############>XXXXXXXXXXXXXXXXX",
"XXXXXXXXXXXXXXXXX2$$$$$$$$$$$$2XX,############>XXXXXXXXXXXXXXXXX",
"XXXXXXXXXXXXXXXXX2$$$$$$$$$$$$2XX>############>XXXXXXXXXXXXXXXXX",
"XXXXXXXXXXXXXXXXX2$$$$$$$$$$$$2XX,############>XXXXXXXXXXXXXXXXX",
"XXXXXXXXXXXXXXXXX2$$$$$$$$$$$$2XX,############$XXXXXXXXXXXXXXXXX",
"XXXXXXXXXXXXXXXXX2$$$$$$$$$$$$2XX,############$XXXXXXXXXXXXXXXXX",
"XXXXXXXXXXXXXXXXX2$$$$$$$$$$$$2XX,############>oXXXXXXXXXXXXXXXX",
"XXXXXXXXXXXXXXXXX2$$$$$$$$$$$$2XX>############$XXXXXXXXXXXXXXXXX",
"XXXXXXXXXXXXXXXXX+888888888888+XXO336133666$55OXXXXXXXXXXXXXXXXX",
"XXXXXXXXXXXXXXXXXX++++++++++++XXXXOOOOOOOOOOOOXXXXXXXXXXXXXXXXXX",
"XXXXXXXXXXXXXXXXXXXXXXXXXXXXXXXXXXXXXXXXXXXXXXXXXXXXXXXXXXXXXXXX",
"XXXXXXXXXXXXXXXXXX$$$$$$$XXXXXXXXX$$$$$$$$$$$$XXXXXXXXXXXXXXXXXX",
"XXXXXXXXXXXXXXXXX2$$$$$$$XXXXXXXX3$$$$$$$$$$$$2XXXX&oXXXXXXXXXXX",
"XXXXXXXXXXXXXXXXX2$$$$$$$$XXXXXXX3#$$$$$$$$$$$%oXXo& XXXXXXXXXXX",
"XXXXXXXXXXXXXXXXX2$$$$$$$$$$$XXXX1$$$$$$$$$$$$ ooXooXXXXXXXXXXXX",
"XXXXXXXXXXXXXXXXX2$$$$$$$$$$$$XXX3$$$$$$$$$$$$2 ooo XXXXXXXXXXXX",
"XXXXXXXXXXXXXXXXX2$$$$$$$$$$$$2XX3$$$$$$$$$$$$2 oo XXXXXXXXXXXXX",
"XXXXXXXXXXXXXXXXX2$$$$$$$$$$$$2XX3$$$$$$$$$$$$2X oXXXXXXXXXXXXXX",
"XXXXXXXXXXXXXXXXX2$$$$$$$$$$$$2XX3$$$$$$$$$$$$2XXXXXXXXXXXXXXXXX",
"XXXXXXXXXXXXXXXXX2$$$$$$$$$$$$2XX3$$$$$$$$$$$$2XXXXXXXXXXXXXXXXX",
"XXXXXXXXXXXXXXXXX2$$$$$$$$$$$$2XX,$$$$$$$$$$$$2XXXXXXXXXXXXXXXXX",
"XXXXXXXXXXXXXXXXX2$$$$$$$$$$$$<XX3$$$$$$$$$$$$5XXXXXXXXXXXXXXXXX",
"XXXXXXXXXXXXXXXXX2$$$$$$$$$$$$2XX3$$$$$$$$$$$$2XXXXXXXXXXXXXXXXX",
"XXXXXXXXXXXXXXXXX<**$$$$*$$$$*2XX3$$$$$$$$$$$$6XXXXXXXXXXXXXXXXX",
"XXXXXXXXXXXXXXXXX+8qq888qq88qqOXXO88888888qq8qOXXXXXXXXXXXXXXXXX",
"XXXXXXXXXXXXXX&ooX++++O+++++O+XXXXOOOOOOOOOOOOXXXXXXXXXXXXXXXXXX",
"XXXXXXXXXXXXXXXoooXXXXXXXXXXXXXXXXoXoXoXoXoXoXXXXXXXXXXXXXXXXXXX",
"XXXXXXXXXXXXXXXX  $#########$$XXXX<<<<<<<<<<<<XXXXXXXXXXXXXXXXXX",
"XXXXXXXXXXXXXXXXX2###########$2XX4<<<<<<<<<<<<4XXXXXXXXXXXXXXXXX",
"XXXXXXXXXXXXXXXXX,############2XX8<<<<<<<<<<<<qXXXXXXXXXXXXXXXXX",
"XXXXXXXXXXXXXXXXX,############,XXq<<<<<<<<<<<<qXXXXXXXXXXXXXXXXX",
"XXXXXXXXXXXXXXXXX,############,XX8<<<<<<<<<<<<qXXXXXXXXXXXXXXXXX",
"XXXXXXXXXXXXXXXXX,############,XX8<<<<<<<<<<<<qXXXXXXXXXXXXXXXXX",
"XXXXXXXXXXXXXXXXX,############,XXq<<<<<<<<<<<<qXXXXXXXXXXXXXXXXX",
"XXXXXXXXXXXXXXXXX,############,XXq<<<<<<<<<%<2qXXXXXXXXXXXXXXXXX",
"XXXXXXXXXXXXXXXXX,############,XXq<<<<<<<<<<%<qXXXXXXXXXXXXXXXXX",
"XXXXXXXXXXXXXXXXX,############,XXq<<<<<<22<<oX@XXXXXXXXXXXXXXXXX",
"XXXXXXXXXXXXXXXXX,############,XXq<<<<<<www.ooXXXXXXXXXXXXXXXXXX",
"XXXXXXXXXXXXXXXXX,############,XXq<<<<<q@@%o..XXXXXXXXXXXXXXXXXX",
"XXXXXXXXXXXXXXXXX,############,XXq<<<<<qXXooXXXXXXXXXXXXXXXXXXXX",
"XXXXXXXXXXXXXXXXXO333333333332OXX@wwwww@XX..XXXXXXXXXXXXXXXXXXXX",
"XXXXXXXXXXXXXXXXXXOOOOOOOOOOOOXXXX@@@@@XXXXXXXXXXXXXXXXXXXXXXXXX",
"XXXXXXXXXXXXXXXXXXXXXXXXXXXXXXXXXXXXXXXXXXXXXXXXXXXXXXXXXXXXXXXX"
};
