/* XPM */
static char *player[] = {
/* columns rows colors chars-per-pixel */
"28 28 201 2 ",
"   c #000000",
".  c #020009",
"X  c #0B000E",
"o  c #16040F",
"O  c #0D0516",
"+  c #06031A",
"@  c #0E0619",
"#  c #0E0A1B",
"$  c #130211",
"%  c #1B0713",
"&  c #100718",
"*  c #11091A",
"=  c #1B0B1D",
"-  c #1D111E",
";  c #220D1E",
":  c #2B1013",
">  c #34181B",
",  c #391D1E",
"<  c #160E23",
"1  c #1C0D21",
"2  c #1D1423",
"3  c #1E1826",
"4  c #240F20",
"5  c #241423",
"6  c #281B29",
"7  c #321C2B",
"8  c #3A1A2D",
"9  c #25222E",
"0  c #3A2322",
"q  c #37272C",
"w  c #222534",
"e  c #2A2732",
"r  c #2C2933",
"t  c #392A35",
"y  c #393439",
"u  c #3A3A3E",
"i  c #451218",
"p  c #632919",
"a  c #48292A",
"s  c #442333",
"d  c #462938",
"f  c #44293B",
"g  c #4C2B3A",
"h  c #542F3B",
"j  c #463236",
"k  c #4B313E",
"l  c #593139",
"z  c #67362A",
"x  c #6B3932",
"c  c #683B3A",
"v  c #703C30",
"b  c #74432F",
"n  c #66463B",
"m  c #7B4535",
"M  c #774D31",
"N  c #392F46",
"B  c #363A48",
"V  c #483844",
"C  c #4C3D49",
"Z  c #533544",
"A  c #3D4453",
"S  c #474346",
"D  c #4D4A4D",
"F  c #524C47",
"G  c #5C4C46",
"H  c #55464B",
"J  c #534A4B",
"K  c #59524D",
"L  c #494956",
"P  c #595656",
"I  c #5C5955",
"U  c #59575C",
"Y  c #5A5A5D",
"T  c #60564B",
"R  c #6C554D",
"E  c #6C5552",
"W  c #625D54",
"Q  c #6D535A",
"!  c #55645E",
"~  c #666156",
"^  c #676258",
"/  c #696459",
"(  c #515665",
")  c #6A5E66",
"_  c #50606A",
"`  c #556375",
"'  c #596877",
"]  c #5C6976",
"[  c #646666",
"{  c #6C6A63",
"}  c #796A69",
"|  c #787567",
" . c #686B77",
".. c #636C79",
"X. c #6C717A",
"o. c #747571",
"O. c #84472C",
"+. c #994D2C",
"@. c #87512E",
"#. c #9C5427",
"$. c #9E522E",
"%. c #844B35",
"&. c #874D36",
"*. c #86533E",
"=. c #975738",
"-. c #A9572D",
";. c #AA5B32",
":. c #9D613F",
">. c #906938",
",. c #996A3E",
"<. c #BD6B26",
"1. c #A4783A",
"2. c #C36E27",
"3. c #C5712A",
"4. c #CB732A",
"5. c #D57827",
"6. c #D87D30",
"7. c #875B4A",
"8. c #85654B",
"9. c #9A7748",
"0. c #8B6D50",
"q. c #AA6D49",
"w. c #A47543",
"e. c #A56C57",
"r. c #9A746D",
"t. c #887672",
"y. c #947B79",
"u. c #DA8636",
"i. c #D58838",
"p. c #DA8938",
"a. c #E4933B",
"s. c #E19538",
"d. c #9D864B",
"f. c #99875A",
"g. c #A98B4E",
"h. c #A99658",
"j. c #ADA656",
"k. c #8D8872",
"l. c #8B8A7A",
"z. c #B29263",
"x. c #AD8974",
"c. c #ACAF6C",
"v. c #CE8846",
"b. c #D98E72",
"n. c #DA9474",
"m. c #EA9B6D",
"M. c #E89F7C",
"N. c #E4A669",
"B. c #E9A17D",
"V. c #D7CE58",
"C. c #D9D364",
"Z. c #DAD568",
"A. c #D8DB78",
"S. c #DBDD7C",
"D. c #E5D46A",
"F. c #E2DE72",
"G. c #E4E66E",
"H. c #E5E972",
"J. c #FBFF78",
"K. c #697A85",
"L. c #737D86",
"P. c #777B89",
"I. c #8C7B84",
"U. c #7C8C91",
"Y. c #7D9299",
"T. c #5CA5B2",
"R. c #89978B",
"E. c #969A89",
"W. c #86929D",
"Q. c #AE9893",
"!. c #A39899",
"~. c #9DA28F",
"^. c #8293A0",
"/. c #9AA9A6",
"(. c #93ACB4",
"). c #92B4BE",
"_. c #B2A1A0",
"`. c #AFBAA9",
"'. c #D1B684",
"]. c #D2BA84",
"[. c #C0A196",
"{. c #DCDF80",
"}. c #DDCC92",
"|. c #E4C682",
" X c #FFE18F",
".X c #E8F189",
"XX c #E4ED95",
"oX c #FAFF99",
"OX c #D6D9BE",
"+X c #F9CEA8",
"@X c #C9B6C1",
"#X c #85CCC6",
"$X c #A5E9E1",
"%X c #DCEDD4",
"&X c #DAEAD8",
"*X c #E9FDC7",
"=X c #E8FED6",
"-X c #D8F3E3",
";X c #EAFEE5",
":X c #ECFFE9",
">X c #FFFFF7",
/* pixels */
"*                                                       ",
"  F | j 8 R C C H 7 j E C C C C H t a R C C H 7 j | F * ",
"* ( R.( c -.H G G V m $.J G G G T V x -.J G G k U W.[ @ ",
"& P.`...>.a.+.$.-.G 9.u.+.$.$.-.-.n 0.s.+.$.-.n X.`.P.@ ",
"& x.+Xe.9.F.u.u.a.#.h.D.6.i.p.p.a.;.9.F.u.i.a.#.e.+Xx.O ",
"@ j.J.1.r.=XV.C.H.#.Q.*XV.Z.Z.C.H.1.r.=XV.C.G.,.w.J.j.O ",
"O `.>XE.l.;X%X%X;Xl.E.:X%X&X&X%X;X~.l.;X&X%X;Xl.E.>X`.O ",
"O c.oXd.y.;XA.S..X,.!.=XA.{.{.S..Xg.y.;XS.S..X9.f.oXc.@ ",
"O z. X:.1.XX].].}.=.g.XX'.'.].'.}.q.w.XX'.].}.:.q. Xz.@ ",
"O I.@Xt.0.|.n.n.B.7.f.|.b.n.n.n.M.e.0.|.n.n.B.7.} @XI.@ ",
"$ K.).` Q '.2.2.5.n t.m.<.4.3.3.5.M ) B.<.2.5.n ` (.K.@ ",
"O  .(.C p 5.x x M 8 O.<.z x x c m s z 4.x v M i ( ). .& ",
"* I k.u 8 *.f f k 2 a &.f g g j h 5 0 *.f g k % ` #XF # ",
"& T Y._.[.Y.W.W.| D @.N.-X&X&XS.s.7.L | ^.W.W.T.$XOXF # ",
"# ^ { U / ( ( Y I N ;.v.' o.o.! i.;.N I Y ( Y _ [ { S # ",
"* J I S D J J J Y 6 t 8.z * * c 8.t 6 P J F D D V D S * ",
"* 7 j t r e e e r # t n > # # > n r # r r r r r u H q * ",
"& L Q 9 O ; ; ; ; + z O.2 - - - O.z + 4 ; = ; X B o.j & ",
"$ L.R.y 1 Z g g Z 2 q :.M + + O.=.q 2 h k g Z = L /.K # ",
"& T { 6 = g J s J 6 6 R b = - b R w = h J s J 3 y | y * ",
"& W { 9 = h &.s &.0 1 V G @.@.J V ; 1 l &.s %.> u t.y * ",
"@ W { e 1 c =.g &.=.a < 5 6 5 2 = 7 d l =.f =., u | u * ",
"* W { 6 . o % $ o : $ . . . . . . $ $ $ % $ =   A U.y * ",
"@ W / S Y ] ` ' ' ` ] ............] ] ' ' ' ' _ !._.y * ",
"& / I J o.L.L.L.L.U.X.L.L.L.L.L.L.L.L.L.L.L.L.L.y.t.u * ",
"& I { I P K K K K K K K K K K K K K K K K K K K D Y S & ",
"* y I / ~ ^ ^ ^ ^ ~ ~ ^ ~ ^ / ~ ^ ^ ^ ^ ~ ~ ~ ~ / W y * ",
"* * & & & * * * * @ # * # & * & * @ * & * * * * * * * * "
};
