/* XPM */
static char *Spawn_01[] = {
/* columns rows colors chars-per-pixel */
"97 73 160 2 ",
"   c #7D3515",
".  c #823716",
"X  c #843917",
"o  c #883B17",
"O  c #863C1C",
"+  c #893C19",
"@  c #8C421E",
"#  c #8A4423",
"$  c #8D4927",
"%  c #8D4C2B",
"&  c #924521",
"*  c #914924",
"=  c #9B4C26",
"-  c #924D2A",
";  c #9F4E29",
":  c #94512C",
">  c #99532D",
",  c #8E5231",
"<  c #945433",
"1  c #9B5632",
"2  c #945836",
"3  c #9D5A35",
"4  c #935B3B",
"5  c #985A39",
"6  c #A1522A",
"7  c #A15D36",
"8  c #A15E39",
"9  c #817F20",
"0  c #9E623D",
"q  c #A2633B",
"w  c #9D6542",
"e  c #9B6B44",
"r  c #9D6849",
"t  c #9F7149",
"y  c #9D7D5D",
"u  c #A36540",
"i  c #A56A43",
"p  c #A96E43",
"a  c #A46D4B",
"s  c #A96E49",
"d  c #A77047",
"f  c #AA7046",
"g  c #A4714C",
"h  c #AB744B",
"j  c #AF794E",
"k  c #A67453",
"l  c #A97750",
"z  c #A77E53",
"x  c #AD7C54",
"c  c #A2765B",
"v  c #A57A5D",
"b  c #AA7E5C",
"n  c #B27F56",
"m  c #9C7E63",
"M  c #A77F62",
"N  c #AA7F62",
"B  c #8F8824",
"V  c #948D29",
"C  c #99912E",
"Z  c #ACB828",
"A  c #C1C52D",
"S  c #C9CD35",
"D  c #D1D43D",
"F  c #AE8259",
"G  c #AF8A5E",
"H  c #B38256",
"J  c #B28359",
"K  c #B4885C",
"L  c #9D8265",
"P  c #9E8469",
"I  c #9F886C",
"U  c #9F8C73",
"Y  c #A28565",
"T  c #AA8265",
"R  c #A38A66",
"E  c #AE8A62",
"W  c #A2856B",
"Q  c #A68B6A",
"!  c #AA8C6A",
"~  c #B28D62",
"^  c #B38B69",
"/  c #B88E6C",
"(  c #A79068",
")  c #AB926C",
"_  c #B29064",
"`  c #B4946C",
"'  c #B99B6E",
"]  c #A28C73",
"[  c #A98D70",
"{  c #A28E79",
"}  c #B18E71",
"|  c #A69176",
" . c #AB9374",
".. c #AD9977",
"X. c #A3907A",
"o. c #AB947A",
"O. c #A79A7F",
"+. c #AE9A7D",
"@. c #B29375",
"#. c #BA9670",
"$. c #B49B75",
"%. c #BA9D72",
"&. c #B2967B",
"*. c #B39D7C",
"=. c #B99B7C",
"-. c #B5A27C",
";. c #C29F75",
":. c #A69983",
">. c #AB9C84",
",. c #AB9E8A",
"<. c #B39E84",
"1. c #B89F88",
"2. c #AB9F90",
"3. c #AEA28D",
"4. c #B3A285",
"5. c #BAA484",
"6. c #B4A58B",
"7. c #BAA68A",
"8. c #B9A98D",
"9. c #AFA391",
"0. c #B2A694",
"q. c #BAA790",
"w. c #B3A996",
"e. c #BBAD94",
"r. c #B2A798",
"t. c #B5AB9B",
"y. c #B9AF9B",
"u. c #BEB196",
"i. c #BDB29B",
"p. c #B8AFA2",
"a. c #BDB5A3",
"s. c #BEB8A4",
"d. c #BFB6A9",
"f. c #BFB8AA",
"g. c #C2B49C",
"h. c #C3B89F",
"j. c #C0B6A2",
"k. c #C2BBA6",
"l. c #C3BDAC",
"z. c #C5BFB1",
"x. c #C5C0AE",
"c. c #CAC1AD",
"v. c #C6C2B2",
"b. c #CAC5B5",
"n. c #CCC8B6",
"m. c #CCC7B9",
"M. c #CECABC",
"N. c #D0CDBE",
"B. c #D2D0BF",
"V. c #CECCC1",
"C. c #D1CEC2",
"Z. c #D4D1C5",
"A. c #D8D5C7",
"S. c #D6D3C9",
"D. c #D8D6CA",
"F. c #DAD8CE",
"G. c #DDDCD3",
"H. c #E0DED6",
"J. c #E1DFD8",
"K. c #E2E1DA",
/* pixels */
"A A A A A A A A A A A A A A A A A A A A A A A A A A A A A A A A A A A A A n n n n n H J J n H H H H n j f j h f A A A A A A A A A A A A A A A A A A A A A A A A A A A A A A A A A A A A A A A A A ",
"A A A A A A A A A A A A A A A A A A A A A A A A A A A A A A A A A A A A f S.m.N.N.m.n.C.Z.Z.Z.Z.A.Z.Z.Z.A.A.m.m.f B B A A A A A A A A A A A A A A A A A A A A A A A A A A A A A A A A A A A A A A ",
"A A A A A A A A A A A A A A A A A A A A A A A A A A A A A A A A A A A A s F.N.C.Z.Z.Z.S.A.C.Z.Z.Z.Z.Z.Z.A.A.C.n.m.h B B A A A A A A A A A A A A A A A A A A A A A A A A A A A A A A A A A A A A A ",
"A A A A A A A A A A A A A A A A A A A A A A A A A A A A A A A A A A A A s F.Z.S.Z.S.Z.Z.A.1.1.1.1.<.A.A.Z.Z.Z.A.M.f B B A A A A A A A A A A A A A A A A A A A A A A A A A A A A A A A A A A A A A ",
"A A A A A A A A A A A A A A A A A A A A A A A A A A A A A A A A A A A A p F.Z.Z.S.Z.Z.A.A.H.H.H.G.1.A.A.A.A.A.C.F.h B B A A A A A A A A A A A A A A A A A A A A A A A A A A A A A A A A A A A A A ",
"A A A A A A A A A A A A A A A A A A A A A A A A A A A A A A A 1 > 7 7 i f G.Z.Z.Z.S.S.Z.Z.<.<.<.<.<.D.A.Z.C.C.A.G.h X . 3 3 3 A A A A A A A A A A A A A A A A A A A A A A A A A A A A A A A A A A ",
"A A A A A A A A A A A A A A A A A A A A A A A A A A A A a s s m.M.N.N.M.f G.Z.S.A.A.Z.A.A.<.G.K.H.H.Z.D.D.A.Z.A.G.h 8.8.M.M.M.1 7 7 A A A A A A A A A A A A A A A A A A A A A A A A A A A A A A A ",
"A A A A A A A A A A A A A A A A A A A A A A A A A s h h C.C.M.M.M.M.N.N.f F.Z.Z.C.S.A.A.A.o.A. . .| D.Z.A.A.A.A.G.j 8.8.m.M.M.M.C.C.7 q q A A A A D A A A A A A A A A A A A A A A A A A A A A A A ",
"A A A A A A A A A A A A A A A A A A A A A A A A x C.Z.C.C.C.n.7 7 7 7 7 f F.Z.A.A.A.A.A.A.G.A.G.G.G.A.A.A.A.A.S.G.j 8 8 8 8 8 C.C.C.Z.C.Z.q A A A S S A A A A A A A A A A A A A A A A A A A A A A ",
"A A A A A A A A A A A A A A A A A A A A A n x x C.Z.C.Z.Z.3 3 A.Z.A.A.A.f A.N.A.A.A.A.Z.S.A.A.F.A.S.A.A.A.A.A.S.F.j C.S.S.Z.S.> q Z.Z.C.Z.q A A A A A A A A A A A A A A A A A A A A A A A A A A A ",
"A A A A A A A A A A A A A A A A A A A i s C.S.G.@.C.C.1 3 N.B.B.N.N.Z.A.f A.A.S.B.A.A.A.A.S.A.A.A.A.A.A.A.A.S.A.H.j C.A.S.Z.Z.Z.S.q s Z.Z.x q q q q A A A A A A A A A A A A A A A A A A A A A A A ",
"A A A A A A A A A A A A A A A A A i a S.D.C.C.C.G.3 7 v.z.C.B.B.B.C.C.A.f F.Z.S.A.A.A.A.A.A.A.A.A.D.A.A.A.A.A.A.H.q A.C.Z.Z.Z.Z.Z.Z.S.s h H.n.c.b.c.q q q A A A A A A A A A A A A A A A A A A A A ",
"A A A A A A A A A A A A A A A A 5 F.D.S.C.Z.Z.3 3 C.z.z.v.C.N.B.N.B.B.A.D.h G.Z.A.A.A.A.A.A.D.D.A.A.D.A.A.A.Z.G.t N.N.B.V.Z.Z.Z.S.Z.Z.S.D.7 > v.b.c.c.n.M.0 A A A A A A A A A A A A A A A A A A A ",
"A A A A A A A A A A A A A A i 3 F.Z.S.C.Z.Z.3 N.Z.C.Z.N.c.B.Z.Z.A.B.N.N.F.d G.D.A.A.G.G.G.G.G.G.H.H.H.H.D.D.D.G.e B.V.N.C.C.S.Z.S.S.S.Z.Z.A.Z.+ n.B.N.N.m.m.: : A A A A A A A A A A A A A A A A A ",
"A A A A A A A A A A A A A 3 G.F.S.S.Z.Z.3 3 Z.C.C.B.N.B.Z.Z.Z.Z.N.N.A.D.z * K.G.K.H.6.8.i.i.a.p.p.p.i.a.J.K.K.K.0 V.N.N.V.N.Z.Z.C.Z.S.S.Z.D.S.S.+ + n.M.M.Z.N.N.@ A A A A A A A A A A A A A A A A ",
"A A A A A A A A A A A A A - F.S.D.S.D.3 C.C.C.C.B.B.N.Z.B.Z.B.Z.A.A.D.1 b * <.4.4.6.6.6.p.y.t.t.a.p.a.s.f.f.l.f.w G.H.H.N.N.V.Z.S.Z.C.b.n.C.Z.C.Z.Z.o C.C.Z.Z.Z.+ A A A A A A A A A A A A A A A A ",
"A A A A A A A A A A A u i F.c c S.S.3 C.C.C.C.Z.N.C.N.Z.Z.Z.Z.S.F.F.2.2.2 $ >.4.6.6.6.6.' ' %.' ' %.-.' l.l.f.k.0 z.v.z.G.G.V.M.V.M.m.m.m.V.V.C.Z.Z.Z.O Z.Z.y v H.& & A A A A A A A A A A A A A A ",
"A A A A A A A A A A i F.F.C.G.F.c 5 V.Z.C.C.Z.C.C.C.Z.Z.Z.Z.F.F.,.,.2.,.,.# &.<.3.w..     @ # % , 2 2 : &.&.f.f.w z.z.z.v.z.G.G.M.V.C.M.N.V.V.C.C.Z.N.V.X v F.G.C.F.F.& A A A A A A A A A A A A A ",
"A A A A A A A A A u F.C.C.C.V.C.1 C.C.V.Z.N.C.N.Z.Z.Z.C.D.F.| X.>.>.,.,.,.. . . . . ' _ _ ' $.` @.#.$.$.u 5 5 5 4 z.v.z.v.v.f.f.G.G.Z.V.N.V.M.M.M.N.M.N.Z.X Z.V.C.C.C.H.& A A A A A A A A A A A A ",
"A A A A A A A A i D.N.C.C.C.N.1 S.C.C.C.Z.D.Z.Z.S.C.S.D.] ] ] | :.>..   . $.$.%.$.%.h.i.i.i.s.i.j.k.k.l.z. .[ Y T a a k l.v.f.f.f.f.G.V.N.N.N.N.N.N.V.M.N.C.  Z.C.C.Z.m.F.& A A A A A A A A A A A ",
"A A A A A A A A i D.M.C.C.V.< S.S.Z.Z.Z.S.S.Z.Z.Z.Z.F.U ] U U U . . !  ...u.i.i.i.j.i.g.i.i.k.h.j.x.l.z.z.l.v.Q Q Q  .C.0 w f.f.a.p.p.G.V.V.V.m.M.M.M.V.M.M.M.  S.C.C.V.D.; A A A A A A A A A A A ",
"A A A A A A A - Z.m.m.m.m.1 S.S.S.S.Z.S.Z.Z.Z.Z.Z.F.P U I I     [ [ g.y.u.u.u.u.i.i.g.a.s.i.l.l.k.x.z.z.z.c.l.[ Q Q V.s.M.m.5 5 f.s.r.r.G.S.S.V.M.M.M.V.V.M.V.Z.o C.M.M.N.Z.+ A A A A A A A A A A ",
"A A A A A A A > C.M.m.m.m.1 S.S.S.Z.S.Z.G.D.D.G.F.m L L I   4.O.u.u.e.g.i.s.s.j.j.i.i.g.i.x.l.l.x.c.l.l.z.x. .V.V.V.s.s.k.k.M.n.- f.r.t.t.G.D.S.Z.V.V.M.M.Z.V.Z.o M.M.N.N.N.+ A A A A A A A A A A ",
"A A A A A A X Z.m.m.M.M.1 S.S.C.S.S.Z.D.D.G.G.G.y L L     >.u.y.i.u.g.i.s.i.s.i.s.s.s.l.k.k.l.l.l.l.v.l.l.@.V.k.l.k.x.k.x.l.k.k.M.5 5 r.t.r.G.D.S.S.M.V.V.V.Z.Z.Z.p N.M.B.B.m.+ A A A A A A A A A ",
"A A i u i u i i i i i u e i y c m G.G.G.H.F.H.m m m . Y  .u.i.i.u.y.i.i.s.s.s.i.a.s.s.k.l.k.l.l.l.x.x.l.I V.l.k.k.k.f.s.x.k.k.x.l.m.m.< t.4.o.G.F.F.S.S.S.k N k N i p p p p p p p p p p p A A A A ",
"A i G.D.D.D.V.M.V.M.M.m.b.b.b.m.v.y c >.[ [ F.m y   ! ! u.i.u.u.u.u.i.b.M.b.M.m.M.M.M.M.M.N.N.N.V.N.N...R V.N.N.V.C.V.V.k.l.l.s.v.v.z.b.- <.$.G.c c k k c S.S.S.Z.C.N.C.Z.Z.B.Z.Z.N.Z.N.H.p A A A ",
"i G.D.D.D.V.C.N.N.V.V.m.m.m.m.M.M.V.m.H.[ [ Q m   Q Q s.i.s.s.i.i.i.m.L m y y y F L L R I ) |  .| |  . . . . . .|  . .| N.k.l.s.b.z.v.v.n.. $.<.J.S.S.F.F.V.N.C.C.C.C.B.Z.N.Z.B.N.Z.C.B.H.p A A A ",
"g G.V.V.N.V.N.V.N.N.N.V.V.M.V.V.V.M.V.m.G.F.W . ) Q s.s.a.a.a.i.u.i.W |  .o.....O...O.-.+.+.+.+.+.-.O.4.4.4.4.-.4.4.4.4.4.x.f.x.k.v.z.v.v.n.. >.J.S.F.N.V.V.N.N.M.C.Z.Z.Z.Z.B.Z.Z.B.Z.Z.H.p 9 V A ",
"h G.C.C.M.C.V.N.M.C.C.M.V.M.C.M.M.M.N.M.M.F.W   ! s.a.a.a.a.s.s.j.s.L | ..s.l.s.k.k.k.k.x.k.k.x.l.x.k.l.l.k.l.x.b.b.4.4.4.M.l.f.l.l.z.v.z.z.. <.J.S.V.V.N.Z.N.Z.N.N.N.N.N.Z.B.Z.B.Z.B.B.K.p B B B ",
"d G.C.C.N.C.C.C.C.C.C.V.M.C.M.C.C.C.V.M.G.2.. Q ) i.s.s.+.+.s.s.k.k.L ..l.s.s.k.h.x.k.k.k.k.x.k.l.x.x.l.x.l.x.v.b.b.l.4.4.| l.l.l.z.z.z.M.z.z.. ,.G.M.V.N.N.N.N.N.Z.Z.N.Z.N.A.N.Z.B.C.Z.H.p B B B ",
"h G.C.C.Z.C.C.q.q.1.C.C.Z.C.C.V.C.M.C.M.H.,.. ! ) s.s.s.v.b...s.f.f.o.+.l.l.k.k.h.k.k.k.x.k.l.x.x.x.x.x.l.x.l.l.l.l.x.4.6. .k.l.l.z.z.z.z.z.z.+ 1.G.V.V.N.N.N.Z.A.Z.N.A.7.7.;.Z.Z.Z.Z.N.H.f B B B ",
"h G.C.C.Z.C.&.F.F.F.&.C.C.C.C.C.C.N.M.C.F.. Q Q s.s.s.s.s.s.m.L s.x.o.+.k.l.l.k.k.x.k.x.k.x.l.x.x.x.l.x.x.x.x.x.x.l.x.6.4.6.k.l.l.l.l.l.z.z.l.z.. J.C.M.N.N.Z.Z.A.Z.A.Z.1.F.F.Z.5.N.A.A.K.f B B B ",
"s G.V.Z.Z.Z.@.C.[ V.&.C.Z.C.C.C.Z.V.D.G.G.. ! ! f.f.f.s.s.s.f.m.Y L +.+.x.l.l.l.l.l.l.x.l.x.v.x.x.x.v.v.x.x.x.x.x.x.x.4.6.4.x.x.l.l.z.l.l.l.f.z.X G.V.V.V.C.S.Z.Z.Z.Z.A.;.A.1.;.=.A.A.D.J.s B B B ",
"a J.Z.Z.Z.S.N V.F.Z.T Z.Z.Z.Z.Z.Z.Z.F.D.G.. Q Q l.l.l.f.s.l.x.V.*.+.+.4.l.z.l.v.x.z.l.x.x.x.x.x.x.x.x.x.x.x.x.x.x.x.x.8.6.6.s.x.z.l.f.z.f.z.l.l.X G.C.V.V.Z.S.Z.Z.S.A.Z.N S.F.F.J D.A.A.H.p B B B ",
"a H.Z.Z.Z.Z.F.N M v G.Z.Z.Z.Z.Z.V.Z.Z.D.G.. Q Q l.l.l.l.x.x.x.v.C.>.<.>.l.z.v.v.v.m.n.M.x.x.x.x.x.x.b.v.v.x.x.x.x.x.x.8.6.x.x.x.f.z.z.l.z.l.z.z.X G.Z.Z.Z.Z.Z.C.Z.Z.Z.D.k s s S.D.D.D.A.H.p B B B ",
"i H.S.S.Z.S.Z.H.F.F.D.Z.S.Z.Z.Z.Z.Z.Z.F.G.X R Q x.x.l.x.f.x.x.x.V.4.4.4.v.l.v.v.b.n.M.n.x.x.x.v.b.x.v.n.b.x.x.x.x.x.x.4.6.l.l.x.z.l.l.z.l.z.f.z.X G.C.Z.S.Z.Z.Z.Z.Z.A.D.G.F.F.S.D.D.A.D.H.p B B B ",
"p H.D.S.S.S.S.A.D.S.A.S.Z.S.Z.A.Z.S.Z.Z.G.X ( ( x.z.l.z.f.v.z.z.x.V.6.6.v.v.v.v.n.n.M.v.v.v.v.v.v.n.v.b.v.v.b.x.x.x.x.8.e.v.v.x.v.f.z.l.l.l.l.l.X G.C.C.S.S.S.S.Z.A.D.D.F.S.F.S.D.D.D.D.G.p B B B ",
"p H.F.F.S.A.A.A.A.D.S.S.S.S.A.Z.Z.Z.Z.Z.G.X ( R z.l.f.v.z.f.z.z.v.v.6.w.v.v.v.v.v.b.v.b.v.v.b.b.n.v.n.b.n.v.b.x.n.b.b.y.e.v.v.l.l.l.l.f.l.a.a.a.O G.S.C.C.C.Z.Z.Z.D.F.F.S.F.F.F.D.D.D.D.J.p B B B ",
"i J.F.F.S.S.S.A.A.S.S.A.S.A.S.S.Z.Z.S.Z.G.X ( ( z.z.v.v.M.M.b.v.v.v.8.6.v.v.v.v.b.v.b.b.b.b.n.b.n.n.n.n.b.b.b.n.b.n.b.u.y.v.v.v.l.l.l.l.d.s.i.s.X G.Z.C.A.D.A.D.D.D.D.D.F.F.D.D.c.F.D.D.G.p B B B ",
"8 J.F.F.F.A.S.S.S.S.A.S.A.Z.S.S.S.Z.r 5 2 $   U v.v.v.v.b.M.M.b.x.v.8.e.b.v.b.v.v.v.b.b.b.n.b.b.n.v.v.n.n.n.n.n.b.n.b.y.e.v.v.v.f.l.d.a.a.a.s.X c c M c D.D.D.D.D.F.D.D.D.D.l.z.l.z.D.G.G.p B B B ",
"1 K.J.J.J.K.G.J.H.H.H.H.G.v Y Y [ 1.G.D.D.G.. ( M.m.M.m.m.m.M.M.v.v.w.u.v.v.v.v.v.b.b.b.b.b.b.b.b.b.v.m.n.M.m.n.n.b.b.u.y.v.v.v.v.l.l.a.a.a.l.. F.D.D.A.c c r } / } @.J.H.H.H.H.H.J.H.G.G.s B B B ",
". z.l.d.f.r.r.p.r.t.t.t.b H.F.F.F.F.C.M.C.V.M.3 v.m.m.M.m.M.b.v.v.v.e.e.b.b.v.b.v.m.b.b.b.b.b.n.n.n.n.n.m.m.m.m.n.n.b.i.u.v.v.v.v.v.x.v.i.a.0 m.m.m.m.m.F.F.F.} } } l.1.3.0.0.0.0.0.r.r.f.X B B B ",
"o l.d.0.0.0.9.w.0.0.r.q.h 0 H.Z.V.V.Z.V.N.N.M.C.a v.m.M.M.b.M.v.v.v.y.y.V.b.v.v.b.b.b.b.b.b.b.n.n.m.m.m.b.m.m.m.b.m.V.i.i.v.v.v.v.v.v.v.v.q M.m.m.m.M.m.M.m.m.F.u z.,.2.3.3.3.9.r.9.9.0.f.O B B B ",
". l.9.9.3.o.~ ~ ~ ^ n f i q H.Z.S.V.Z.V.N.C.N.N.D.l m.m.b.M.M.v.v.v.8.y.4.V.Z.C.V.V.V.Z.Z.C.C.Z.Z.Z.Z.Z.V.Z.C.C.Z.V.8.t.t.v.v.v.v.v.v.z.0 k.M.n.m.m.m.m.m.m.m.F.c E J E G G G T E 0.0.0.d.X B B B ",
"  f.3.9.o D.V.N.N.m.k.k.k.$ :.G.Z.C.Z.C.C.C.Z.Z.Z.F.k v.m.M.M.M.v.v.t.i.y.6.8.4.4.4.4.4.4.4.4.6.4.-.*.$.$....... .*.i.y.u.v.b.v.v.v.v.q e.k.k.C.C.C.m.m.M.m.F.r.. l.M.M.Z.A.S.S.G.o r.9.f.. B B B ",
"X p.3.3.o G.C.M.M.b.z.k.k.% Q G.Z.C.Z.C.Z.Z.Z.V.Z.Z.G.k b.m.n.m.b.v.V.V.u.u.t.i.i.i.i.i.i.i.i.i.i.i.i.i.i.i.i.i.i.y.i.y.C.v.v.v.v.z.x 8.y.F.S.C.Z.C.C.C.V.m.G.2.o l.N.N.C.A.S.S.G.X 9.9.p.O B B A ",
"B X X X X X.G.M.M.V.b.b.b.b.$ ( F.Z.Z.Z.V.Z.Z.C.C.Z.G.G.z h m.M.M.M.v.v.V.Z.V.V.V.C.C.V.Z.Z.C.Z.Z.V.C.g.i.i.i.Z.V.Z.V.V.b.v.b.v.u u e.8.D.C.V.V.V.S.C.C.V.F.m o l.M.N.C.C.S.S.F.,.X X X . B B A A ",
"A B B B X U G.C.N.N.N.b.b.b., U X.G.Z.Z.Z.Z.Z.Z.Z.Z.Z.F.Z.Z.x M.M.M.m.v.v.v.v.m.b.b.b.M.n.b.b.b.b.m.m.C.V.i.u.b.v.v.b.b.b.b.b.2 C.S.C.C.C.C.S.C.S.C.C.C.G.m M o k.M.m.Z.C.C.Z.G.2.X B B B B A A A ",
"A A A A B . { F.C.N.C.M.C.b.b.: o.r.G.Z.Z.Z.S.Z.S.Z.Z.Z.Z.Z.N.q s N.m.N.B.z.z.N.z.m.m.m.m.c.m.m.m.b.b.b.b.C.V.b.v.m.v.v.v.u q Z.S.V.S.Z.Z.S.Z.S.Z.Z.V.F.L W . l.x.M.M.Z.S.Z.F.P X B B B A A A A A ",
"A A A A A X { 2.F.N.M.M.M.b.b.m.; t.t.G.G.G.S.Z.S.S.Z.S.Z.B.Z.N.Z.8 6 7 N.N.z.z.m.z.c.m.m.m.m.c.b.m.n.b.b.b.m.v.v.b.q q q D.S.S.S.S.V.V.S.S.Z.S.S.Z.F.P P # k.k.k.M.m.S.Z.F.L P   B C A A A A A A ",
"A A A A A B O 9.F.C.V.M.M.M.M.N > t.p.p... .G.S.Z.S.S.S.S.Z.N.Z.N.N.N.z.7 7 z.z.n.m.m.m.m.z.m.m.n.b.v.m.b.b.b.v.m.> M.Z.S.S.S.S.S.S.S.S.Z.S.Z.S.S.F.U m M O o k.k.M.Z.Z.Z.F.L   B B V S A A A A A ",
"A A A A A A X 9.0.F.C.C.C.^ ^ ^ c & p.a.f... .H.S.S.S.S.Z.Z.Z.Z.Z.N.A.m.N.z.j s j j j n n n n j x x x x x s b.v.0 M.M.Z.S.S.S.S.S.S.S.Z.S.S.S.G.G.{ W ] @ g.g.b b Z.Z.Z.F.P L   V B Z S A A D A A ",
"A A A A A A B X r.r.F.} ^ G.G.F.c c & p.s.h.k.G.D.S.S.Z.S.Z.Z.B.Z.N.N.B.N.z.j A.A.A.A.F.A.A.A.Z.Z.Z.Z.N.Z.C.q q M.M.C.Z.S.S.S.D.D.S.D.D.Z.S.H.X.{ [ W , e.g.b.b.v.c k G...L   V V V Z A S S Z A A ",
"A A A A A A A B . t.c G.F.C.V.C.F.F.F.& a.h.h.g.G.G.D.S.Z.S.Z.Z.Z.N.N.B.N.;.D.D.A.A.A.A.A.Z.Z.Z.C.Z.C.Z.C.C.Z.F.v Z.Z.Z.C.S.S.S.S.S.Z.Z.H.H.|  .{ [ $ g.c.z.c.z.v.n.G.% 4.  V 9 V S A A S S Z A A ",
"A A A A A A D D . t.c d.G.V.S.C.S.V.M.N.6 6 j.j.s.y.G.G.D.Z.Z.Z.Z.Z.Z.B.Z.;.A.N.N.A.D.A.Z.B.B.A.Z.C.Z.B.Z.C.C.F.v Z.S.C.C.S.S.S.S.D.H.H.o.| X.X.# 5 M.M.n.M.m.b.b.S.m % +.X V V Z S A A Z Z A A A ",
"A A A A A A A D V . y d.p.G.V.S.C.M.V.N.N.C.& s.s.i.a.t.G.H.H.Z.Z.B.Z.Z.n G.A.A.N.A.A.A.B.A.Z.B.C.Z.N.Z.B.C.Z.C.H.b C.C.S.S.S.G.H.H.o.o.o.o.[ : v.v.M.m.N.n.m.m.C.L m %   B 9 S Z Z A A A A A A A ",
"A A A A A A A Z S V . z.p.p.F.S.Z.V.M.Z.S.Z.S.* = i.y.y.t.e.8.G.H.H.Z.Z.K F.A.A.A.A.A.A.A.B.A.B.Z.Z.Z.B.N.Z.C.N.H.x C.Z.H.H.H...o.o.o...| % < b.z.m.M.M.M.m.m.Z.m M m   B B A A A A A A A A A A A ",
"A A A A A A D S Z S V - p.t.t.F.F.Z.Z.Z.S.S.S.F.G.; ; e.u.e.8.7.=.;.H.H.K F.Z.Z.A.A.B.A.A.g.B.A.B.g.Z.Z.Z.C.A.Z.H.n H.H.$.$...+.| | | 4 2 x.b.c.z.m.m.n.m.A.Z.m m m % B B A A A A A A A A A A A A ",
"A A A A A A Z S S Z S B X i.p.p.s.F.Z.S.S.S.S.F.D.&.D.> . e.8.5.5.*.-.) j F.A.Z.A.A.A.A.A.G.g.g.g.H.C.Z.A.Z.Z.N.H.x z $.$.$..... .w 5 N.y C.v.z.N.m.M.m.N.P P m m   B B A A A A A A A A A A A A A ",
"A A A A A A A Z S Z Z A B . p.y.p.t.G.F.S.F.F.F.#.D.C.C.C.. o o =.-.*.` H G.F.D.A.A.A.A.A.;.G.H.H.1.A.A.A.A.Z.Z.H.x z $.-.$.X X . Z.D.D.S.8.Z.M.m.n.Z.C.] P m m   B B A A A A A A A A A A A A A A ",
"A A A A A A A A A A A A A B   . p.p.p.p.G.G.G.^ D.Z.V.C.C.C.N.v.o o + + n G.D.D.F.A.A.A.A.H./ / / G.A.A.A.A.Z.Z.F.F X X . . n.M.M.Z.Z.A.Z.S.e.m.D.A.{ { U P     B B A A A A A A A A A A A A A A A ",
"A A A A A A A A A A A A A A B B . i.t.t.p.t.c G.V.C.C.V.N.N.M.v.c.n.n.c.n H.F.A.F.F.F.A.A.j G.H.F./ A.A.A.A.A.A.G.H 8.8.N.N.N.n.M.Z.Z.Z.Z.C.G.F.1.[ { { U   B B A A A A A A A A A A A A A A A A A ",
"A A A A A A A A A A A A A A A A B . . t.t.t.k z.G.G.G.Z.C.N.M.N.v.v.v.n.j H.F.F.D.F.D.F.A.H.D.D.A.H.A.A.A.A.Z.S.K.x 6.8.C.C.N.Z.Z.Z.Z.G.G.G.P 4 ,.P ] .   B A A A A A A A A A A A A A A A A A A A ",
"A A A A A A A A A A A A A A A A A B B . . t.y v.t.r.9.G.G.G.G.N.c.n.c.c.j K.F.A.F.F.D.F.A.A.D.A.A.A.A.A.A.A.A.S.H.j 6.6.N.N.N.F.F.F.G.R Y m P 4 <.    B B A A A A A A A A A A A A A A A A A A A A ",
"A A A A A A A A A A A A A A A A A A A B B . . z.r.r.r.9.9.9.,.F.F.G.D.G.h K.J.K.K.J.J.H.H.G.F.F.G.G.G.G.G.G.K.K.G.d g.e.G.G.G.) ) ( R R L L L     B B A A A A A A A A A A A A A A A A A A A A A A ",
"A A A A A A A A A A A A A A A A A A A A A B B . . r.r.9.9.3.,.,.,.>.| ] X l.l.l.p.y.y.y.i.t.t.t.t.i.9.w.k.k.f.k.f.$ t t ` ) ) ) ) ( R R Y     B B A A A A A A A A A A A A A A A A A A A A A A A A ",
"A A A A A A A A A A A A A A A A A A A A A A A B B . . 9.3.3.,.,.>.>.[ Q X l.l.t.t.y.t.y.t.t.t.w.e.9.9.9.9.6.3.f.f.  e t ) ) ) ) ( ( (     B V D A A A A A A A A A A A A A A A A A A A A A A A A A ",
"A A A A A A A A A A A A A A A A A A A A A A A A A B B . . .   ,.:.O.| Q X l.t.t.r.t.r.r.0.0.0.9.3.9.9.3.9.3.3.3.f.  e t ) ) )         B B A A D S S A A A D D A A A A A A A A A A A A A A A A A A ",
"A A A A A A A A A A A A A A A A A A A A A A A A A A A B B B B . . . . . . f.t.t.y.0.3.,.3.:.3.3.,.9.3.9.3.,.3.3.a.            B B B B A A A A Z S S A A S D A A A A A A A A A A A A A A A A A A A ",
"A A A A A A A A A A A A A A A A A A A A A A A A A A A A A A A B B B B B . f.t.t.[ ! | 3.:.3.3.3.,.9.3.3.3.3.,.:.p.  B B B B B A A A A A A A A A Z Z A S S A A A A A A A A A A A A A A A A A A A A ",
"A A A A A A A A A A A A A A A A A A A A A A A A A A A A A A A A A A A A . f. .Q ! [ ! ,.,.,.:.:.,.,.:.,.:.:.:.O.p.  B B A A A A A A A A A A A A A A A S S Z A A A A A A A A A A A A A A A A A A A ",
"A A A A A A A A A A A A A A A A A A A A A A A A A A A A A A A A A A A A B         .                               B B A A A A A A A A A A A A A A A A Z Z A A A A A A A A A A A A A A A A A A A A ",
"A A A A A A A A A A A A A A A A A A A A A A A A A A A A A A A A A A A A A B B B B B B B B B B B B B B B B B B B B B A A A A A A A A A A A A A A A A A A A A A A A A A A A A A A A A A A A A A A A "
};
