/* XPM */
static char *Spawn[] = {
/* columns rows colors chars-per-pixel */
"97 73 156 2 ",
"   c #7D3515",
".  c #823716",
"X  c #843917",
"o  c #883B17",
"O  c #863C1C",
"+  c #893C19",
"@  c #8C421E",
"#  c #8A4423",
"$  c #8D4927",
"%  c #8D4C2B",
"&  c #924521",
"*  c #914924",
"=  c #9B4C26",
"-  c #924D2A",
";  c #9F4E29",
":  c #94512C",
">  c #99532D",
",  c #8E5231",
"<  c #945433",
"1  c #9B5632",
"2  c #945836",
"3  c #9D5A35",
"4  c #935B3B",
"5  c #985A39",
"6  c #A1522A",
"7  c #A15D36",
"8  c #A15E39",
"9  c #9F6037",
"0  c #96603E",
"q  c #9E623D",
"w  c #A2633B",
"e  c #9D6542",
"r  c #9B6B44",
"t  c #9D6849",
"y  c #9F7149",
"u  c #9D7D5D",
"i  c #A36540",
"p  c #A56A43",
"a  c #A96E43",
"s  c #A46D4B",
"d  c #A96E49",
"f  c #A77047",
"g  c #AA7046",
"h  c #A4714C",
"j  c #AB744B",
"k  c #AF794E",
"l  c #A67453",
"z  c #A97750",
"x  c #A77E53",
"c  c #AD7C54",
"v  c #A2765B",
"b  c #A57A5D",
"n  c #AA7E5C",
"m  c #B27F56",
"M  c #9C7E63",
"N  c #A77F62",
"B  c #AA7F62",
"V  c #AE8259",
"C  c #AF8A5E",
"Z  c #B38256",
"A  c #B28359",
"S  c #B4885C",
"D  c #9D8265",
"F  c #9E8469",
"G  c #9F886C",
"H  c #9F8C73",
"J  c #A28565",
"K  c #AA8265",
"L  c #A38A66",
"P  c #AE8A62",
"I  c #A2856B",
"U  c #AA8668",
"Y  c #A68B6A",
"T  c #AA8C6A",
"R  c #B28D62",
"E  c #B38B69",
"W  c #B88E6C",
"Q  c #A79068",
"!  c #AB926C",
"~  c #B29064",
"^  c #B4946C",
"/  c #B99B6E",
"(  c #A28C73",
")  c #A98D70",
"_  c #A28E79",
"`  c #B18E71",
"'  c #A69176",
"]  c #AB9374",
"[  c #AD9977",
"{  c #A3907A",
"}  c #AB947A",
"|  c #A79A7F",
" . c #AE9A7D",
".. c #B29375",
"X. c #BA9670",
"o. c #B49B75",
"O. c #BA9D72",
"+. c #B2967B",
"@. c #B39D7C",
"#. c #B99B7C",
"$. c #B5A27C",
"%. c #C29F75",
"&. c #A69983",
"*. c #AB9C84",
"=. c #AB9E8A",
"-. c #B39E84",
";. c #B89F88",
":. c #AB9F90",
">. c #AEA28D",
",. c #B3A285",
"<. c #BAA484",
"1. c #B4A58B",
"2. c #BAA68A",
"3. c #B9A98D",
"4. c #AFA391",
"5. c #B2A694",
"6. c #BAA790",
"7. c #B3A996",
"8. c #BBAD94",
"9. c #B2A798",
"0. c #B5AB9B",
"q. c #B9AF9B",
"w. c #BEB196",
"e. c #BDB29B",
"r. c #B8AFA2",
"t. c #BDB5A3",
"y. c #BEB8A4",
"u. c #BFB6A9",
"i. c #BFB8AA",
"p. c #C2B49C",
"a. c #C3B89F",
"s. c #C0B6A2",
"d. c #C2BBA6",
"f. c #C3BDAC",
"g. c #C5BFB1",
"h. c #C5C0AE",
"j. c #CAC1AD",
"k. c #C6C2B2",
"l. c #CAC5B5",
"z. c #CCC8B6",
"x. c #CCC7B9",
"c. c #CECABC",
"v. c #D0CDBE",
"b. c #D2D0BF",
"n. c #CECCC1",
"m. c #D1CEC2",
"M. c #D4D1C5",
"N. c #D8D5C7",
"B. c #D6D3C9",
"V. c #D8D6CA",
"C. c #DAD8CE",
"Z. c #DDDCD3",
"A. c #E0DED6",
"S. c #E1DFD8",
"D. c #E2E1DA",
"F. c None",
/* pixels */
"F.F.F.F.F.F.F.F.F.F.F.F.F.F.F.F.F.F.F.F.F.F.F.F.F.F.F.F.F.F.F.F.F.F.F.F.F.m m m m m m A A Z Z Z Z Z m k j j j g F.F.F.F.F.F.F.F.F.F.F.F.F.F.F.F.F.F.F.F.F.F.F.F.F.F.F.F.F.F.F.F.F.F.F.F.F.F.F.F.F.",
"F.F.F.F.F.F.F.F.F.F.F.F.F.F.F.F.F.F.F.F.F.F.F.F.F.F.F.F.F.F.F.F.F.F.F.F.f B.c.x.c.x.c.m.m.N.M.M.N.m.M.M.N.N.c.x.j F.F.F.F.F.F.F.F.F.F.F.F.F.F.F.F.F.F.F.F.F.F.F.F.F.F.F.F.F.F.F.F.F.F.F.F.F.F.F.F.",
"F.F.F.F.F.F.F.F.F.F.F.F.F.F.F.F.F.F.F.F.F.F.F.F.F.F.F.F.F.F.F.F.F.F.F.F.d V.v.B.m.N.N.m.N.m.N.N.M.M.N.M.m.N.B.x.z.d F.F.F.F.F.F.F.F.F.F.F.F.F.F.F.F.F.F.F.F.F.F.F.F.F.F.F.F.F.F.F.F.F.F.F.F.F.F.F.",
"F.F.F.F.F.F.F.F.F.F.F.F.F.F.F.F.F.F.F.F.F.F.F.F.F.F.F.F.F.F.F.F.F.F.F.F.f C.m.B.B.M.M.B.B.;.-.-.;.-.N.N.B.N.m.N.x.g F.F.F.F.F.F.F.F.F.F.F.F.F.F.F.F.F.F.F.F.F.F.F.F.F.F.F.F.F.F.F.F.F.F.F.F.F.F.F.",
"F.F.F.F.F.F.F.F.F.F.F.F.F.F.F.F.F.F.F.F.F.F.F.F.F.F.F.F.F.F.F.F.F.F.F.F.g C.B.M.M.B.m.B.N.A.C.D.A.-.N.N.m.N.N.m.Z.j F.F.F.F.F.F.F.F.F.F.F.F.F.F.F.F.F.F.F.F.F.F.F.F.F.F.F.F.F.F.F.F.F.F.F.F.F.F.F.",
"F.F.F.F.F.F.F.F.F.F.F.F.F.F.F.F.F.F.F.F.F.F.F.F.F.F.F.F.F.F.F.3 3 7 7 p g Z.m.B.B.M.N.N.N.-.,.-.-.-.N.B.N.N.m.B.C.j X X 7 3 3 F.F.F.F.F.F.F.F.F.F.F.F.F.F.F.F.F.F.F.F.F.F.F.F.F.F.F.F.F.F.F.F.F.F.",
"F.F.F.F.F.F.F.F.F.F.F.F.F.F.F.F.F.F.F.F.F.F.F.F.F.F.F.F.a d d c.x.v.v.c.a C.B.M.M.N.B.N.N.-.C.D.A.A.M.B.M.N.M.N.A.j 3.3.c.x.x.3 7 7 F.F.F.F.F.F.F.F.F.F.F.F.F.F.F.F.F.F.F.F.F.F.F.F.F.F.F.F.F.F.F.",
"F.F.F.F.F.F.F.F.F.F.F.F.F.F.F.F.F.F.F.F.F.F.F.F.F.h j j m.M.c.x.c.c.v.v.g C.N.M.N.m.N.N.N.} N.] ` } V.N.N.M.N.N.A.j 3.3.c.x.x.n.m.v.w w w F.F.F.F.F.F.F.F.F.F.F.F.F.F.F.F.F.F.F.F.F.F.F.F.F.F.F.F.",
"F.F.F.F.F.F.F.F.F.F.F.F.F.F.F.F.F.F.F.F.F.F.F.F.c v.m.B.M.M.x.7 3 7 7 7 g C.N.N.N.N.N.N.B.C.N.D.Z.Z.N.N.N.N.B.N.Z.j 3 w 7 8 7 m.m.m.M.m.M.w F.F.F.F.F.F.F.F.F.F.F.F.F.F.F.F.F.F.F.F.F.F.F.F.F.F.F.",
"F.F.F.F.F.F.F.F.F.F.F.F.F.F.F.F.F.F.F.F.F.m c c m.M.m.m.m.3 3 M.N.N.N.N.f N.x.N.N.N.N.N.N.B.N.C.N.N.N.N.N.N.N.B.Z.k B.m.B.M.B.> w m.M.v.M.w F.F.F.F.F.F.F.F.F.F.F.F.F.F.F.F.F.F.F.F.F.F.F.F.F.F.F.",
"F.F.F.F.F.F.F.F.F.F.F.F.F.F.F.F.F.F.F.p d m.M.Z...m.m.3 3 v.b.b.b.b.B.N.a N.N.N.N.N.N.M.N.B.N.N.N.N.N.V.N.N.N.N.A.j N.B.M.B.M.M.B.w f m.M.z w w w w F.F.F.F.F.F.F.F.F.F.F.F.F.F.F.F.F.F.F.F.F.F.F.",
"F.F.F.F.F.F.F.F.F.F.F.F.F.F.F.F.F.p s C.C.m.m.M.Z.3 7 g.k.v.b.b.b.v.v.B.g V.N.B.N.N.N.N.N.N.V.N.N.N.V.V.N.N.N.N.Z.w N.B.M.M.M.M.B.B.B.d j D.z.j.l.j.w w w F.F.F.F.F.F.F.F.F.F.F.F.F.F.F.F.F.F.F.F.",
"F.F.F.F.F.F.F.F.F.F.F.F.F.F.F.F.3 C.B.M.m.M.M.3 3 m.k.g.j.m.v.v.v.b.v.N.V.k Z.M.N.N.N.N.N.N.V.V.N.N.N.V.V.B.B.C.y v.v.b.m.M.M.B.B.M.M.C.B.7 > j.j.j.h.c.c.q F.F.F.F.F.F.F.F.F.F.F.F.F.F.F.F.F.F.F.",
"F.F.F.F.F.F.F.F.F.F.F.F.F.F.p 3 C.B.M.m.M.M.3 v.M.m.v.v.g.b.N.M.M.b.b.v.C.s Z.B.b.N.Z.Z.A.Z.Z.Z.A.A.A.A.V.V.N.Z.r b.v.n.c.m.M.M.M.B.B.M.M.B.B.o b.c.x.v.c.c.: > F.F.F.F.F.F.F.F.F.F.F.F.F.F.F.F.F.",
"F.F.F.F.F.F.F.F.F.F.F.F.F.3 Z.C.B.B.B.B.3 3 m.m.m.b.M.v.M.M.M.b.b.v.N.V.x * D.S.D.A.1.3.q.t.q.q.0.r.e.t.D.D.D.D.e c.v.v.v.v.M.B.m.M.B.B.B.M.B.B.o O v.z.c.m.b.m.@ F.F.F.F.F.F.F.F.F.F.F.F.F.F.F.F.",
"F.F.F.F.F.F.F.F.F.F.F.F.F.- C.B.B.B.B.3 m.m.M.m.b.v.b.M.b.b.M.M.N.N.C.> n $ @.,.1.1.1.1.q.q.0.r.t.r.t.y.i.i.i.i.e Z.A.A.v.n.v.M.M.M.M.l.l.M.B.m.B.M.o M.m.m.m.M.+ F.F.F.F.F.F.F.F.F.F.F.F.F.F.F.F.",
"F.F.F.F.F.F.F.F.F.F.F.i p Z.v v B.B.3 M.M.M.c.M.v.M.v.M.b.M.B.B.C.C.>.>.2 $  .,.1.1.1.1./ / / O.$./ $./ i.i.d.d.e g.g.g.Z.Z.n.n.n.b.l.l.l.n.n.M.n.n.B.  M.m.v b C.# = F.F.F.F.F.F.F.F.F.F.F.F.F.F.",
"F.F.F.F.F.F.F.F.F.F.p C.C.m.Z.Z.v 1 c.n.c.M.b.M.v.v.M.M.M.M.C.C.*.=.:.=.=.#  .-.>.5.X X X X # : , 2 2 > #.@.i.i.e g.k.g.k.g.Z.A.n.n.n.n.n.m.v.M.M.M.v.m.o u Z.Z.m.C.C.* F.F.F.F.F.F.F.F.F.F.F.F.F.",
"F.F.F.F.F.F.F.F.F.i C.m.m.m.n.m.5 m.n.M.m.M.c.m.B.M.m.m.C.C.' { *.=.=.=.=.. . . . . ^ ~ ^ ^ ^ ^ X.o.^ o.e 5 5 5 4 g.g.g.k.g.y.i.Z.Z.n.n.n.n.c.c.n.c.v.v.m.X n.m.m.m.m.Z.= F.F.F.F.F.F.F.F.F.F.F.F.",
"F.F.F.F.F.F.F.F.i V.v.m.m.m.v.1 B.n.M.n.M.M.B.M.m.B.B.C.( ( ( ' &.&.  .   #.o.o.o.o.e.p.y.e.t.d.s.s.d.k.g.' T U K s s l f.k.i.i.u.i.Z.n.b.c.m.v.v.v.v.c.c.c.@ M.M.M.m.x.C.* F.F.F.F.F.F.F.F.F.F.F.",
"F.F.F.F.F.F.F.F.i C.c.m.m.n.2 B.B.m.m.B.M.M.M.B.M.M.C.H ( H H H .   ) ] [ w.e.p.e.p.e.e.e.d.y.e.d.f.g.g.g.g.g.Y Y Y ] n.q e i.i.t.t.9.Z.c.n.n.c.c.c.c.n.c.c.c.X m.m.M.n.N.; F.F.F.F.F.F.F.F.F.F.F.",
"F.F.F.F.F.F.F.- M.x.x.x.x.1 B.B.B.B.B.M.B.M.M.M.M.C.F H G G     ) ` 8.p.e.w.w.w.p.e.p.s.e.e.h.d.f.f.f.f.f.j.g.) Y Q n.d.x.x.5 5 u.u.0.0.Z.B.B.n.n.x.n.x.n.c.n.M.X m.c.c.v.m.+ F.F.F.F.F.F.F.F.F.F.",
"F.F.F.F.F.F.F.> m.c.x.c.x.1 B.B.B.B.M.B.Z.V.B.Z.C.M D D G   ,.&.w.w.8.p.d.e.e.d.d.e.e.e.e.h.d.h.f.f.j.f.f.g.T m.n.n.h.e.d.d.c.x.- i.0.0.0.Z.B.B.B.c.x.n.c.B.m.n.o c.n.v.v.b.+ F.F.F.F.F.F.F.F.F.F.",
"F.F.F.F.F.F.X B.x.x.x.c.1 B.B.n.B.M.M.C.C.Z.Z.Z.u D D     *.w.e.w.e.e.p.e.t.t.t.t.y.d.d.h.y.h.y.f.g.f.j.k.} m.d.d.i.h.e.h.h.d.f.x.5 5 9.0.9.Z.B.B.B.n.n.m.m.m.B.m.p v.v.b.b.b.+ F.F.F.F.F.F.F.F.F.",
"F.F.p i p p i p p p i p i i N N u Z.Z.Z.Z.Z.A.M M M   U ] w.w.w.e.8.e.y.t.y.t.t.e.d.y.h.h.d.h.h.f.f.h.h.G n.f.i.f.d.d.f.d.f.d.f.d.x.x.< 9.,. .Z.V.B.B.M.M.b b m b a a a a a a g a a a a a F.F.F.F.",
"F.p Z.V.B.C.c.n.c.n.n.l.x.x.k.k.l.u v *.) ) C.M u   Y T e.e.w.e.e.e.e.l.x.l.x.x.x.z.c.c.c.c.n.c.n.v.n.[ L n.v.v.n.n.n.n.f.d.f.d.k.k.k.l.- =.o.A.v v v b v B.B.C.N.m.b.m.m.M.b.M.b.M.M.v.S.a F.F.F.",
"p Z.C.B.B.m.n.m.m.c.c.l.l.l.l.n.n.c.c.C.T T Y M   Q Y y.t.e.t.w.w.e.l.u D D V M D D J G L ! ' ] ' ' [ ! ] ! ! [ ] ' ' ] b.f.d.f.k.k.g.k.z.X o.*.S.B.V.V.V.n.M.g.m.m.m.m.m.m.M.b.M.b.M.m.A.a F.F.F.",
"j Z.n.n.v.m.v.m.n.m.m.m.c.n.m.c.c.c.m.c.A.Z.I   ! Y y.t.t.t.y.e.e.e.Y ' ! } } } | [ [ $. . . . . .$.| ,.,.>.,.1.,.,.,.,.,.d.f.i.i.k.k.g.k.x.X  .S.V.V.m.m.n.M.N.m.v.M.m.m.b.N.m.b.b.M.m.S.a F.F.F.",
"h Z.m.v.m.v.m.c.v.v.v.m.c.n.c.n.m.c.c.c.c.Z.I   T t.t.t.e.y.y.t.d.y.D ] ] i.i.y.d.d.d.d.y.d.d.d.h.d.d.h.h.d.h.d.l.l.,.,.,.n.f.f.d.f.g.l.g.x.. ;.S.B.n.n.v.v.m.g.v.m.M.v.M.b.M.M.b.b.m.b.A.a F.F.F.",
"f Z.v.v.v.m.n.n.m.m.v.n.m.c.v.n.n.m.n.c.Z.=.X Y Q y.t.y. . .y.d.y.y.D ] y.y.e.h.a.h.d.d.h.h.h.h.f.h.d.h.f.f.d.z.l.l.f.1.>.Q f.i.f.g.l.g.g.g.g.. =.Z.n.n.m.M.m.m.v.v.M.M.M.M.M.b.b.b.M.M.D.g F.F.F.",
"j Z.m.m.M.m.m.6.2.2.m.m.m.m.m.n.v.n.v.c.Z.:.  Y ! y.y.y.l.l.| y.f.i.[ | d.y.h.d.d.d.d.d.h.h.f.f.h.h.h.h.f.f.h.d.f.f.h.,.1.] f.d.f.g.g.g.l.g.g.+ ;.A.n.c.g.N.v.M.M.M.M.M.2.;.%.M.x.b.m.M.A.g F.F.F.",
"f Z.m.B.M.m...Z.C.C.*.m.m.m.m.m.m.c.m.v.Z.. Y T y.y.y.y.y.y.z.D y.f.} [ h.h.d.h.d.d.h.d.h.d.f.h.h.h.h.h.h.h.h.h.h.h.f.1.,.,.f.f.f.f.f.f.f.g.f.f.. Z.m.m.m.v.M.M.N.M.M.M.%.A.N.M.p.v.N.N.A.g F.F.F.",
"s Z.M.M.M.B...m.T m.+.m.m.M.m.m.n.M.C.C.Z.. T Y i.i.i.y.y.y.i.x.J J  .*.f.f.k.f.f.f.f.h.d.h.h.h.h.h.h.h.h.h.h.j.h.h.h.1.1.1.h.h.i.g.f.f.f.f.i.h.X Z.n.n.n.n.M.M.M.B.N.N.%.B.;.%.#.N.N.V.S.a F.F.F.",
"d Z.M.M.M.B.B M.C.M.K M.B.m.B.m.M.n.C.B.Z.X Y L f.f.f.i.y.f.h.n. . . .,.f.f.k.f.k.k.f.f.h.h.h.h.k.h.k.h.h.h.h.h.h.h.h.1.1.,.h.d.g.f.f.g.i.g.k.i.X Z.c.m.M.M.M.M.B.M.M.B.B V.C.V.K N.N.N.S.a F.F.F.",
"d Z.M.M.M.M.C.c N N C.B.B.M.M.M.M.M.M.C.Z.X Y Y f.f.f.f.h.h.g.k.m.*.-.*.f.f.f.k.k.x.x.x.h.h.k.k.k.h.k.z.h.h.h.h.h.h.h.3.1.f.h.d.i.g.g.f.g.i.g.g.X Z.M.M.M.M.M.M.M.M.B.N.l d d B.C.V.N.N.S.a F.F.F.",
"d A.M.B.B.M.B.Z.C.C.N.M.B.M.M.B.M.M.M.C.Z.. Y Q h.h.f.h.i.h.f.f.m.,.,.,.k.k.k.k.x.z.z.z.h.h.h.k.h.h.h.z.l.h.h.h.h.h.h.3.3.f.h.h.g.f.f.g.f.g.f.g.X Z.M.B.M.B.M.M.M.M.M.B.A.C.C.B.N.N.N.N.A.a F.F.F.",
"p Z.C.B.B.B.B.B.B.B.B.B.B.M.M.M.M.M.M.M.Z.X Q Y h.g.f.g.g.g.g.g.k.n.1.1.k.k.k.k.z.z.x.k.k.k.k.k.z.z.k.z.k.k.k.h.h.h.h.7.7.k.k.h.h.f.f.f.f.f.f.f.X Z.M.M.m.B.M.B.N.B.V.C.B.B.B.B.N.C.N.N.A.a F.F.F.",
"d Z.C.C.V.B.B.B.B.N.B.N.B.N.N.B.M.M.M.B.Z.X Q Y g.f.i.k.g.k.f.k.k.k.1.1.k.k.k.l.l.k.l.l.z.k.l.k.k.z.z.z.k.k.k.k.z.z.z.8.8.k.k.f.h.i.f.i.f.t.t.t.X Z.m.M.M.m.M.M.m.C.V.V.B.A.B.A.C.C.N.C.S.d F.F.F.",
"i D.C.C.B.B.N.B.B.B.B.N.N.M.B.B.M.M.M.B.Z.X Q Q g.g.k.k.c.k.l.k.k.k.3.5.k.h.k.l.l.l.z.k.k.z.l.l.z.z.z.k.z.k.z.z.z.l.l.8.w.k.k.k.i.h.f.f.i.t.t.t.X Z.n.M.V.B.V.V.V.V.V.V.C.N.C.C.j.N.V.B.Z.a F.F.F.",
"w S.C.C.C.N.B.B.N.N.B.B.B.B.M.B.B.M.e 5 2 $   H k.k.k.k.l.c.c.k.k.k.3.8.k.k.l.k.k.l.k.z.k.l.z.k.z.k.k.z.z.c.z.z.l.z.z.q.8.k.k.k.f.f.i.t.t.t.t.X v N v v V.V.N.V.V.C.V.N.C.C.f.f.j.f.V.Z.S.p F.F.F.",
"3 S.S.S.D.S.Z.Z.A.A.A.A.A.b J J ) ;.Z.C.B.C.X T x.x.x.x.x.c.c.c.k.k.7.8.k.k.k.l.l.k.l.l.z.k.x.l.l.l.l.z.x.x.x.x.z.z.l.e.0.k.k.k.k.i.h.t.t.e.f.X B.C.V.V.v N t ` W ` ..S.A.A.A.A.A.A.A.Z.Z.p F.F.F.",
"X f.u.d.g.9.9.r.9.9.0.9.n A.Z.C.C.C.m.n.n.b.c.2 k.c.x.x.c.x.c.k.k.k.8.8.l.k.l.k.k.l.k.l.k.z.z.z.z.z.l.z.c.x.x.x.z.l.l.q.8.k.k.k.k.k.h.k.t.t.w x.x.x.x.x.C.C.C.` ` ` f.:.=.5.5.9.9.5.9.9.f.X F.F.F.",
"X d.i.9.5.5.4.9.9.5.9.6.j q A.m.n.M.m.m.c.b.M.c.p l.c.c.x.x.c.k.k.k.8.q.m.k.l.k.l.l.l.l.l.l.l.z.z.c.z.c.z.z.z.l.l.z.n.e.e.k.l.k.k.k.k.l.k.q x.x.x.x.x.x.x.x.l.C.e l.-.:.>.>.4.4.5.5.4.9.f.X F.F.F.",
"O d.:.9.4.] R R R R m d a w A.M.M.n.m.m.m.c.b.b.C.l l.l.x.c.x.k.k.k.8.8.,.m.m.m.n.n.n.B.m.M.m.m.M.m.M.m.m.m.m.M.m.n.3.e.q.l.k.k.k.k.k.k.q d.x.x.x.x.x.x.x.x.c.C.l P P A C C P P C 5.5.5.i.X F.F.F.",
"X i.4.>.o Z.c.c.v.l.d.d.d.$ &.A.M.M.n.n.m.m.m.M.M.C.v l.c.z.z.c.k.k.q.q.q.1.1.1.,.,.,.1.,.,.1.<.,.,.@.o.o.} ..[ [ @.e.0.w.l.k.k.g.l.g.w q.d.s.n.M.m.x.x.c.x.C.9.. f.c.c.N.m.M.B.Z.X 9.4.u.O F.F.F.",
"X r.>.>.o C.M.c.n.l.l.d.d.% L A.M.n.M.M.M.m.m.M.M.M.Z.z l.z.c.c.x.k.n.n.q.w.q.e.e.e.e.e.e.e.e.e.e.e.e.e.e.e.e.e.e.q.e.e.n.k.k.k.l.g.z 3.q.B.C.M.m.m.m.m.n.x.C.:.o f.v.v.m.N.B.M.Z.. 4.4.r.. F.F.F.",
"F.X X X X { Z.c.v.c.l.l.l.l.$ Y C.M.M.M.m.M.M.M.M.n.Z.C.x j z.z.c.x.k.k.n.n.M.n.n.n.n.n.M.m.M.M.m.m.m.p.e.e.e.n.m.m.n.n.l.k.k.k.i i 8.3.N.m.n.n.M.M.m.m.n.Z.M o d.v.v.m.M.M.B.Z.=.. X X X F.F.F.F.",
"F.F.F.F.X _ C.m.v.c.v.l.l.l.% H | C.M.M.B.M.M.M.M.M.M.Z.M.m.V v.c.c.x.k.k.l.k.l.z.l.x.z.z.l.l.l.l.x.l.m.m.w.q.l.l.l.l.l.l.k.l.2 M.M.m.M.m.m.M.M.M.m.m.m.C.N M o f.x.c.m.m.m.M.Z.:.X F.F.F.F.F.F.F.",
"F.F.F.F.F.X _ C.m.c.c.m.c.l.l.- _ 9.A.B.m.B.M.M.M.M.B.M.M.M.m.w d M.x.v.b.x.g.g.x.g.x.x.x.x.x.x.x.x.l.l.l.n.n.l.l.l.l.l.l.i w M.m.m.M.m.M.M.M.M.B.B.n.Z.D J . f.f.c.n.B.B.M.C.J o F.F.F.F.F.F.F.F.",
"F.F.F.F.F.X ( 5.C.c.c.m.m.l.l.x.> 0.0.Z.Z.Z.B.B.B.B.B.B.M.m.m.m.M.6 7 7 v.g.v.x.g.x.g.x.x.j.x.x.x.l.z.l.l.l.l.l.l.k.8 w i B.B.B.B.B.m.M.B.B.B.M.B.n.C.F D # d.f.d.c.x.B.M.C.D D X F.F.F.F.F.F.F.F.",
"F.F.F.F.F.F.O 4.C.m.m.c.c.c.c.B ; 0.r.s.[ ..Z.B.M.B.M.B.N.m.M.m.m.v.b.g.6 8 g.g.x.g.x.j.j.x.x.x.x.l.l.l.l.l.l.l.k.> v.m.M.B.B.M.B.B.B.B.B.M.B.B.M.C.G F N O o f.d.c.B.n.M.Z.D . F.F.F.F.F.F.F.F.F.",
"F.F.F.F.F.F.. 4.9.C.m.c.m.E E E v & r.r.y.] ] A.B.B.B.B.N.M.m.m.m.v.M.x.x.x.k d k m k m m m k k m c c c c d l.k.r c.c.m.B.B.B.B.B.V.B.B.B.B.B.Z.Z.( ( I # p.p.c b B.M.M.C.M D . F.F.F.F.F.F.F.F.F.",
"F.F.F.F.F.F.F.X 9.:.C.W E Z.Z.C.v v & r.y.a.a.Z.B.B.B.B.B.B.M.m.m.b.b.b.v.j.d V.C.N.C.N.N.N.N.M.M.m.M.v.m.M.w w v.c.n.M.V.B.B.B.B.B.B.B.B.B.Z.} _ ) I : 8.p.l.g.k.v l Z.} D . F.F.F.F.F.F.F.F.F.F.",
"F.F.F.F.F.F.F.F.. 9.N Z.C.m.M.m.C.C.Z.& t.a.a.p.A.Z.B.B.M.B.M.M.m.M.b.v.M.%.C.V.N.N.N.N.N.N.N.M.m.M.m.M.m.m.m.C.B n.M.M.M.B.B.B.B.B.B.B.Z.D.' ( _ ( # p.k.j.l.g.k.z.A.% *.  F.F.F.F.F.F.F.F.F.F.F.",
"F.F.F.F.F.F.F.F.. r.v u.Z.n.m.M.M.n.c.v.> 6 p.d.y.e.Z.Z.B.M.M.M.M.M.m.M.b.%.N.M.b.N.C.N.v.v.v.N.M.m.M.b.M.v.M.Z.b m.M.m.M.M.B.B.B.B.A.Z.} } ' ' $ 5 v.v.x.z.c.l.l.B.M $ *.X F.F.F.F.F.F.F.F.F.F.F.",
"F.F.F.F.F.F.F.F.F.. M i.r.Z.M.n.m.m.c.v.v.m.& t.y.q.e.q.Z.A.A.M.b.M.M.M.m Z.M.b.N.N.b.N.N.v.N.v.m.M.m.M.v.M.v.m.A.n M.m.B.B.B.A.A.Z.| } } } ' < g.l.x.x.x.v.x.x.m.D M %   F.F.F.F.F.F.F.F.F.F.F.F.",
"F.F.F.F.F.F.F.F.F.F.X g.r.0.Z.M.M.n.c.M.M.B.B.- = e.e.q.8.w.3.Z.A.A.M.M.S Z.N.M.N.N.N.N.N.b.b.N.M.N.m.m.M.b.M.m.C.m v.m.A.D.A.[ } | } ' ' % < k.j.x.x.x.x.x.x.M.M N M   F.F.F.F.F.F.F.F.F.F.F.F.F.",
"F.F.F.F.F.F.F.F.F.F.F.% 0.r.q.C.C.M.M.M.B.B.B.C.C.> = 8.q.8.3.<.#.%.A.Z.S C.m.N.N.N.b.N.N.p.N.N.M.p.m.m.M.M.M.m.A.m A.A.o.@.o.[ ] ] ] 4 2 h.j.j.g.v.x.x.x.B.B.M M M % F.F.F.F.F.F.F.F.F.F.F.F.F.F.",
"F.F.F.F.F.F.F.F.F.F.F.F.X 0.r.r.t.C.B.M.B.B.B.C.C.+.V.>   8.3.1.<.$.#.^ k Z.N.N.N.N.N.N.N.Z.p.p.p.A.b.N.M.M.v.m.A.n c o.o.o.[ ] ] 0 5 v.v M.h.g.v.x.c.c.v.F D D M   F.F.F.F.F.F.F.F.F.F.F.F.F.F.F.",
"F.F.F.F.F.F.F.F.F.F.F.F.F.X r.q.r.r.C.C.B.C.C.C.X.V.m.m.m.X o o @.@.$.! m Z.N.C.N.N.N.N.N.%.Z.Z.A.;.N.N.N.N.N.M.A.c x o.$.o.X X . N.B.B.B.8.M.c.z.z.m.m.H G D M   F.F.F.F.F.F.F.F.F.F.F.F.F.F.F.F.",
"F.F.F.F.F.F.F.F.F.F.F.F.F.F.X X 0.r.r.r.Z.Z.Z.W N.m.m.m.b.c.c.k.o o o @ m Z.C.V.N.N.N.N.N.A.B %.W N.M.M.N.N.M.m.C.V X X .   x.c.z.B.B.B.N.N.8.z.C.M._ _ ( F     F.F.F.F.F.F.F.F.F.F.F.F.F.F.F.F.F.",
"F.F.F.F.F.F.F.F.F.F.F.F.F.F.F.F.. t.q.0.0.9.v Z.m.m.m.n.m.m.m.l.j.l.j.z.k A.C.V.Z.N.Z.N.M.k Z.A.C.%.N.N.N.N.N.N.D.V 3.3.b.b.b.x.z.B.M.M.m.m.C.Z.;.) _ ( (   F.F.F.F.F.F.F.F.F.F.F.F.F.F.F.F.F.F.F.",
"F.F.F.F.F.F.F.F.F.F.F.F.F.F.F.F.F.. X 0.0.0.v g.Z.Z.Z.m.m.c.c.c.l.l.l.j.k D.V.C.N.Z.C.Z.C.Z.N.C.N.A.N.N.N.N.B.N.D.k 3.1.m.m.b.m.B.M.B.C.A.C.F 4 >.I _     F.F.F.F.F.F.F.F.F.F.F.F.F.F.F.F.F.F.F.F.",
"F.F.F.F.F.F.F.F.F.F.F.F.F.F.F.F.F.F.F.. X 0.v l.9.9.9.Z.Z.Z.A.b.k.j.j.j.j D.C.V.C.C.N.N.N.N.C.N.N.N.N.N.N.N.N.B.D.j 1.1.c.c.b.C.C.Z.C.Y I M D 4 =.    F.F.F.F.F.F.F.F.F.F.F.F.F.F.F.F.F.F.F.F.F.F.",
"F.F.F.F.F.F.F.F.F.F.F.F.F.F.F.F.F.F.F.F.F.. . g.9.9.9.4.4.4.=.C.C.Z.C.Z.j S.S.D.D.S.S.A.Z.Z.Z.C.Z.Z.C.C.Z.Z.D.D.A.s p.3.C.C.C.! ! Q L C D D D     F.F.F.F.F.F.F.F.F.F.F.F.F.F.F.F.F.F.F.F.F.F.F.F.",
"F.F.F.F.F.F.F.F.F.F.F.F.F.F.F.F.F.F.F.F.F.F.F.. . 5.9.4.4.4.=.=.=.*.' T X g.d.g.r.q.q.q.q.q.0.0.q.7.7.7.h.y.y.d.i.$ h h [ ^ ! ! ! Q Q G D     F.F.F.F.F.F.F.F.F.F.F.F.F.F.F.F.F.F.F.F.F.F.F.F.F.F.",
"F.F.F.F.F.F.F.F.F.F.F.F.F.F.F.F.F.F.F.F.F.F.F.F.F.. . 4.>.>.=.=.*.&.' T X g.f.0.0.0.0.0.q.0.0.0.7.1.4.4.4.1.>.i.i.  r y ! ^ Q ! Q Q Q     F.F.F.F.F.F.F.F.F.F.F.F.F.F.F.F.F.F.F.F.F.F.F.F.F.F.F.F.",
"F.F.F.F.F.F.F.F.F.F.F.F.F.F.F.F.F.F.F.F.F.F.F.F.F.F.F..   . . =.&.| ' T X i.9.0.0.0.0.9.5.5.5.4.4.4.4.4.4.>.>.>.y.  r h ! ! !         F.F.F.F.F.F.F.F.F.F.F.F.F.F.F.F.F.F.F.F.F.F.F.F.F.F.F.F.F.F.",
"F.F.F.F.F.F.F.F.F.F.F.F.F.F.F.F.F.F.F.F.F.F.F.F.F.F.F.F.F.F.F.. . . . . X i.0.0.0.6.>.=.=.>.&.4.:.4.4.4.>.=.>.>.u.            F.F.F.F.F.F.F.F.F.F.F.F.F.F.F.F.F.F.F.F.F.F.F.F.F.F.F.F.F.F.F.F.F.F.",
"F.F.F.F.F.F.F.F.F.F.F.F.F.F.F.F.F.F.F.F.F.F.F.F.F.F.F.F.F.F.F.F.F.F.F.F.. i.9.9.( T ] =.=.&.>.>.=.>.>.>.>.>.>.&.t.  F.F.F.F.F.F.F.F.F.F.F.F.F.F.F.F.F.F.F.F.F.F.F.F.F.F.F.F.F.F.F.F.F.F.F.F.F.F.F.",
"F.F.F.F.F.F.F.F.F.F.F.F.F.F.F.F.F.F.F.F.F.F.F.F.F.F.F.F.F.F.F.F.F.F.F.F.. y.' T ! ! T =.=.=.&.&.=.&.&.&.&.&.| &.t.  F.F.F.F.F.F.F.F.F.F.F.F.F.F.F.F.F.F.F.F.F.F.F.F.F.F.F.F.F.F.F.F.F.F.F.F.F.F.F.",
"F.F.F.F.F.F.F.F.F.F.F.F.F.F.F.F.F.F.F.F.F.F.F.F.F.F.F.F.F.F.F.F.F.F.F.F.F.  X   .     .                           F.F.F.F.F.F.F.F.F.F.F.F.F.F.F.F.F.F.F.F.F.F.F.F.F.F.F.F.F.F.F.F.F.F.F.F.F.F.F.F.",
"F.F.F.F.F.F.F.F.F.F.F.F.F.F.F.F.F.F.F.F.F.F.F.F.F.F.F.F.F.F.F.F.F.F.F.F.F.F.F.F.F.F.F.F.F.F.F.F.F.F.F.F.F.F.F.F.F.F.F.F.F.F.F.F.F.F.F.F.F.F.F.F.F.F.F.F.F.F.F.F.F.F.F.F.F.F.F.F.F.F.F.F.F.F.F.F.F."
};
