/* XPM */
static char *Tile_41[] = {
/* columns rows colors chars-per-pixel */
"40 40 6 1 ",
"  c #25131A",
". c #1F3736",
"X c #3D253B",
"o c #523B40",
"O c #5C6B53",
"+ c #8A961F",
/* pixels */
"+++++++XXOOOOOOOXXXXXXXXOOOOOOOXXX+++++ ",
"+++++++XXOOOOOOOXXXXXXXXOOOOOOOXXX.+.++ ",
"+++++++XXXOOOOOXXXXXXXXXXOOOOOXXXX+++.. ",
"+++++++XXXOOOOOXXXXXXXXXXOOOOOXXXX+++.. ",
"+++++++XXXXXXXXOOXXXXXXXXXXXXXXX+++++++ ",
"++++++XXXXXXXXXOOOOXXXXXOOOOOXX++++++++ ",
"+++++XXXXXXXXXXXOOOXXXOOOOOOOXX++++++++ ",
"XXXXXXXOOOOOOOXXXXXXXXOOOOOOOXX++++++++ ",
"XXXXXXXOOOOOOOXXXXXXXXOOOOOOOXX++++++++ ",
"OOXXXXOOOOOOOOOXXXXXXXOOOOOXXXX++++++.. ",
"OOOOXXOOOOOOOOOOXXXXXXXXXXXOOOOX++++.++ ",
"OOOOXXOOOOOOOOOOXXXXXXXXXXOOOOOOXX..+++ ",
"OOOOXXOOOOOOOOOOXXXXXXXXXXOOOOOOXX.++++ ",
"OOOOXXOOOOOOOOOOXXXXXXXXXXOOOOOOXX.++++ ",
"OOOOXXOOOOOOOOOOXXXXXXXXXXOOOOOOXX.++++ ",
"OOXXXXXOOOOOOOOOXXXXXXXXXXXOOOOXXX.++++ ",
"XXXXXXXXXOOOOOOXXXXXXXXXOOOXXXX++++..++ ",
"XXXXXXXXXXXXXXXXXXXXXXXXOOOOOX+++++++.. ",
"XXXXXXXXXXXXXXXXXXXXXXXXOOOOOX+++++++.. ",
"XXXXXXXXXXXXXXXXXXXXXXXXOOOOOX+++++++++ ",
"XXXXXXXXXXXXXXXXXXXXXXXXXOOOOX+++++++++ ",
"XXXXXXXoooooooXXXXXXooXXXXXXXXX++++++++ ",
"XXXXXXoooooooooXXXXXooXXOOOOOOXXXX+++++ ",
"XXXXXXoooooooooXXXXXooXXOOOOOOXXXX+++++ ",
"oXXXXXoooooooooXXXXXXXOOOOOOOOOXXX...++ ",
"oXXXXXoooooooooXXXXXXXOOOOOOOOOOXX.++.. ",
"XXXXXXooooooooXXXXXXXXOOOOOOOOOOXX+++++ ",
"XXXXXXXoooooXXXXXXXXXXOOOOOOOOOOXX+++++ ",
"XXXXXXXoooooXXXXXXXXXXOOOOOOOOOOXX+++++ ",
"XXXXXXXXXXXXXXXXXXXXXXOOOOOOOOOOXX.++.. ",
"XXXXXXXXXXXXXXXXXXXXXXXXOOOOOOOOXX..... ",
"XXXXXXXXXXXXXXXXXXXXXXXXXOOOOOOXXX+++.. ",
"XXXXXXXXXXXXXXXXXXXXXOOOXXXXXXXX+++++++ ",
"XXXXXXXXXXXXXXXXXXXXXOOOXXXXXXXX+++++++ ",
"XXXXXXXXXXXXXXXXoooXXOOOOXXXXXX++++++++ ",
"oXXXXXXXXXXXXXXXoooXXXOOOXXXXXX++++++.. ",
"ooXXXXXXXXXXXXXXXXXXXXXXXOOOOOXX++++.++ ",
"ooooXXXXXXXXXXXXXXXXXXXXOOOOOOOXXX.++++ ",
"ooooXXXXXXXXXXXXXXXXXXXXOOOOOOOXXX.++++ ",
"ooooXXXXXXXXXXXXXXXXXXXXOOOOOOOXXX+++++ "
};
