/* XPM */
static char *Tile_3[] = {
/* columns rows colors chars-per-pixel */
"40 40 4 1 ",
"  c #3D253B",
". c #523B40",
"X c #5C6B53",
"o c #8A961F",
/* pixels */
"....                                 ...",
"....                                 ...",
"..                    ....             .",
"..                    ....             .",
"                     ......             ",
"                     ......             ",
"       ....          ......             ",
"      ......         ......             ",
"      ......         ......             ",
"     .......          ....              ",
"     .......                            ",
"     ......                             ",
"      ....                        ..    ",
"      ....                        ..    ",
"                                ....    ",
"                                ...     ",
"                                        ",
"                                        ",
"                                        ",
"                     ...                ",
"                                        ",
"       .......      ..                  ",
"      .........     ..   XXXXXX         ",
"      .........     ..   XXXXXX         ",
".     .........         XXXXXXXX     XXX",
".     .........         XXXXXXXXXX  XXXX",
"      ........          XXXXXXXXXX  XXXX",
"       .....            XXXXXXXXXX  XXXX",
"       .....            XXXXXXXXXX  XXXX",
"                        XXXXXXXXXX  XXXX",
"                         XXXXXXXXX   XXX",
"                          XXXXXX        ",
"                     XXX           ooooo",
"                     XXX           ooooo",
"                ...  XXXX         oooooo",
".               ...   XXX       oooooooo",
"..                       XXXXX  oooooooo",
"....                    XXXXXXX oooooooo",
"....                    XXXXXXX oooooooo",
"....                    XXXXXXX oooooooo"
};
