/* XPM */
static char *Tile_51[] = {
/* columns rows colors chars-per-pixel */
"40 40 5 1 ",
"  c #1F3736",
". c #3D253B",
"X c #523B40",
"o c #5C6B53",
"O c #8A961F",
/* pixels */
"  OOOOOOO.oooooooooo.................XXX",
"OO  OOO...oooooooooo.................XXX",
"OOOO......oooooooooo..XXXX.............X",
"OOOO......oooooooooo..XXXX.............X",
"OOOO.oooo.ooooooooo..XXXXXX.............",
"OO...ooooo.oooooo....XXXXXX.............",
".....ooooo...........XXXXXX.............",
".....ooooo...........XXXXXX.............",
".....ooooo...........XXXXXX.............",
"oo....ooooXXXX........XXXX..............",
"oooo.....XXXXXX.........................",
"oooo.....XXXXXX.........................",
"oooo.....XXXXXX...................XX....",
"oooo.....XXXXXX...................XX....",
"oooo......XXXX..................XXXX....",
"oo..............................XXX.....",
"........................................",
"........................................",
"........................................",
".....................XXX................",
".....................XXXX...............",
".......XXXXXXX........XXX...............",
"......XXXXXXXXX.........................",
"......XXXXXXXXX.........................",
"X.....XXXXXXXXX........................X",
"X.....XXXXXXXXX........................X",
"......XXXXXXXX..........................",
".......XXXXX...............XXXXX........",
".......XXXXX...............XXXXX........",
"..........................XXXXXXXX......",
"..........................XXXXXXXX......",
"..........................XXXXXXXX......",
"...........................XXXXX........",
"...........................XXXXX........",
"................XXX.....................",
"X...............XXX....................X",
"XX...................................XXX",
"XXXX.................................XXX",
"XXXX.................................XXX",
"XXXX.................................XXX"
};
