/* XPM */
static char *Tile_22[] = {
/* columns rows colors chars-per-pixel */
"40 40 6 1 ",
"  c #1F3736",
". c #25131A",
"X c #523B40",
"o c #8A961F",
"O c #5C6B53",
"+ c #3D253B",
/* pixels */
"........................................",
"oo  ooooo ooooooo  oooooo ooo   ooo oooo",
"o oooooooo ooooo ooooooo ooooo ooooo ooo",
"o oooooooo ooooo ooooooo ooooo ooooo ooo",
"ooooooooooo oooo ooooooo ooooo ooooooooo",
"o ooooooooo     oooooooo  ooo  oooooo  o",
"++++ooooooo+++++oooooo++++++++++ooooo+++",
"+++++ooooo+OOOO+oooooo+++OOOOOO+++oo++++",
"+++++ooooo+OOOO+oooooo+++OOOOOO+++oo++++",
"OO++++++++OOOOOO+oooo+++OOOOOOOO+++++OOO",
"OOOO++++++OOOOOO++++++OOOOOOOOOO++++OOOO",
"OOOO+OOOO+OOOOOO+OOOO+OOOOOOOOOO++++OOOO",
"OOOO+OOOOO+OOOO+OOOOO+OOOOOOOOOO++++OOOO",
"OOOO+OOOOO+OOOO+OOOOO+OOOOOOOOOO++++OOOO",
"OOOO+OOOOO++++++OOOOO+OOOOOOOOOO++++OOOO",
"OO+++OOOOO++++++OOOO++OOOOOOOOO+++OO+OOO",
"++++++OOOO++++++++++++++OOOOOO++OOOO++++",
"++++++++++++++++++++++++++++++++OOO+++++",
"++++++++++++++++++++++++++++++++OOO+++++",
"+++++++++++++++++++++XXX++++++++++++++++",
"+++++++++++++++++++++XXXX+++++++++++++++",
"+++++++XXXXXXX++++++++XXX+++++++++++++++",
"++++++XXXXXXXXX+++++++++++++++++++++++++",
"++++++XXXXXXXXX+++++++++++++++++++++++++",
"X+++++XXXXXXXXX++++++++++++++++++++++++X",
"X+++++XXXXXXXXX++++++++++++++++++++++++X",
"++++++XXXXXXXX++++++++++++++++++++++++++",
"+++++++XXXXX+++++++++++++++XXXXX++++++++",
"+++++++XXXXX+++++++++++++++XXXXX++++++++",
"++++++++++++++++++++++++++XXXXXXXX++++++",
"++++++++++++++++++++++++++XXXXXXXX++++++",
"++++++++++++++++++++++++++XXXXXXXX++++++",
"+++++++++++++++++++++++++++XXXXX++++++++",
"+++++++++++++++++++++++++++XXXXX++++++++",
"++++++++++++++++XXX+++++++++++++++++++++",
"X+++++++++++++++XXX++++++++++++++++++++X",
"XX+++++++++++++++++++++++++++++++++++XXX",
"XXXX+++++++++++++++++++++++++++++++++XXX",
"XXXX+++++++++++++++++++++++++++++++++XXX",
"XXXX+++++++++++++++++++++++++++++++++XXX"
};
