/* XPM */
static char *Tile_48[] = {
/* columns rows colors chars-per-pixel */
"40 40 7 1 ",
"  c #25131A",
". c #1F3736",
"X c #3D253B",
"o c #523B40",
"O c #5C6B53",
"+ c #8A961F",
"@ c None",
/* pixels */
"@@                                   @@@",
"@ ..+++++.+++++++..++++++.+++...+++++  @",
" .++++++++.+++++.+++++++.+++++.++++++++ ",
" .++++++++.+++++.+++++++.+++++.++++++++ ",
" ++++++++++.++++.+++++++.+++++.++++++++ ",
" ++++++++++.....++++++++..+++..++++++++ ",
" ++++++++++XXXXX++++++XXXXXXXX.++++++++ ",
" .++++++++OOOOOX++++++XXXOOOOXX++++++++ ",
" .++++++++OOOOOX++++++XXXOOOOXX++++++++ ",
" ......XXOOOOOOOX++++XXXOOOOOOX++++++.. ",
" .+++.XOOOOOOOOOOXXXXXOOOOOOOOXX++++.++ ",
" +++++XOOOOOOOOOOXXOOXOOOOOOOOXXXX..+++ ",
" +++++XOOOOOOOOOOXXOOXOOOOOOOXXXXX.++++ ",
" +++++XOOOOOOOOOOXXOOXOOOOOOOXXXXX.++++ ",
" .+++.XOOOOOOOOOOXXOOXXXOOOXXXXXXX.++++ ",
" +....XXXOOOOOOOOXXXXXXXXXXXXXXXXX.++++ ",
" +++++XXXXOOOOOOXXXXXXXXOOOXXXX++++..++ ",
" ++++++++XXXXXXXXXXXXXXXOOOOOX+++++++.. ",
" ++++++++XXXXXXXXXXXXXXXOOOOOX+++++++.. ",
" +++++++++XOOOOXXXXXXXXXOOOOOX+++++++++ ",
" +++++++++XOOOOOXXXXXXXXXOOOOX+++++++++ ",
" .++++++++XOOOOOXXXXooXXXXXXXXX++++++++ ",
" +...++++XXXOOOOXXXXooXXOOOOOOXXXX+++++ ",
" +...++++XXXOOOOXXXXooXXOOOOOOXXXX+++++ ",
" ++++.XXXOOOXXXXXXXXXXOOOOOOOOOXXX...++ ",
" ++++.XOOOOOOOXXXXXXXXOOOOOOOOOOXX.++.. ",
" ++++.XOOOOOOOXXXXXXXXOOOOOOOOOOXX+++++ ",
" +++..XOOOOOOOXXXXXXXXOOOOOOOOOOXX+++++ ",
" +++..XOOOOOOOXXXXXXXXOOOOOOOOOOXX+++++ ",
" +..+++XXOOOXXXXXXXXXXOOOOOOOOOOXX.++.. ",
" .+++++++XXXOOOOOXXXXXXXOOOOOOOOXX..... ",
" ++++++++XXOOOOOOXXXXXXXXOOOOOOXXX+++.. ",
" ++++++++XXOOOOOOXXXXOOOXXXXXXXX+++++++ ",
" ++++++++XXOOOOOOXXXXOOOXXXXXXXX+++++++ ",
" ++++++++XXOOOOOXXXXXOOOOXXXXXX++++++++ ",
" ++++++XXXXXXXXXXXXXXXOOOXXXXXX++++++.. ",
" .++++XXXXOOOOOXXXXXXXXXXOOOOOXX++++.++ ",
" +..+.XXXOOOOOOOXXXXXXXXOOOOOOOXXX.++++ ",
" +..+.XXXOOOOOOOXXXXXXXXOOOOOOOXXX.++++ ",
" +++++XXXOOOOOOOXXXXXXXXOOOOOOOXXX+++++ "
};
