/* XPM */
static char *Tile_9[] = {
/* columns rows colors chars-per-pixel */
"40 40 6 1 ",
"  c #25131A",
". c #1F3736",
"X c #3D253B",
"o c #523B40",
"O c #5C6B53",
"+ c #8A961F",
/* pixels */
" +++++XXXOOOOOOOXXXXXXXXXXXXXXXXXXXXXooo",
" ++++.XXXOOOOOOOXXXXXXXXXXXXXXXXXXXXXooo",
" +..+++XXXOOOOOXXXXXXXooooXXXXXXXXXXXXXo",
" +..+++XXXOOOOOXXXXXXXooooXXXXXXXXXXXXXo",
" .+++++++XXXXXXOOXXXXooooooXXXXXXXXXXXXX",
" ++++++++XXXXXXOOOOXXooooooXXXXXXXXXXXXX",
" ++++++XXXXXXXXXOOOXXooooooXXXXXXXXXXXXX",
" .++++XXXOOOOOOXXXXXXooooooXXXXXXXXXXXXX",
" .++++XXXOOOOOOXXXXXXooooooXXXXXXXXXXXXX",
" .....XOOOOOOOOOXXXXXXooooXXXXXXXXXXXXXX",
" .+++.XOOOOOOOOOOXXXXXXXXXXXXXXXXXXXXXXX",
" +++++XOOOOOOOOOOXXXXXXXXXXXXXXXXXXXXXXX",
" +++++XOOOOOOOOOOXXXXXXXXXXXXXXXXXooXXXX",
" +++++XOOOOOOOOOOXXXXXXXXXXXXXXXXXooXXXX",
" .+++.XOOOOOOOOOOXXXXXXXXXXXXXXXooooXXXX",
" +....XXXOOOOOOOOXXXXXXXXXXXXXXXoooXXXXX",
" +++++XXXXOOOOOOXXXXXXXXXXXXXXXXXXXXXXXX",
" ++++++++XXXXXXXXXXXXXXXXXXXXXXXXXXXXXXX",
" ++++++++XXXXXXXXXXXXXXXXXXXXXXXXXXXXXXX",
" +++++++++XOOOOXXXXXXoooXXXXXXXXXXXXXXXX",
" +++++++++XOOOOOXXXXXooooXXXXXXXXXXXXXXX",
" .++++++++XOOOOOXXXXXXoooXXXXXXXXXXXXXXX",
" +...++++XXXOOOOXXXXXXXXXXXXXXXXXXXXXXXX",
" +...++++XXXOOOOXXXXXXXXXXXXXXXXXXXXXXXX",
" ++++.XXXOOOXXXXXXXXXXXXXXXXXXXXXXXXXXXo",
" ++++.XOOOOOOOXXXXXXXXXXXXXXXXXXXXXXXXXo",
" ++++.XOOOOOOOXXXXXXXXXXXXXXXXXXXXXXXXXX",
" +++..XOOOOOOOXXXXXXXXXXXXXoooooXXXXXXXX",
" +++..XOOOOOOOXXXXXXXXXXXXXoooooXXXXXXXX",
" +..+++XXOOOXXXXXXXXXXXXXXooooooooXXXXXX",
" .+++++++XXXOOOOOXXXXXXXXXooooooooXXXXXX",
" ++++++++XXOOOOOOXXXXXXXXXooooooooXXXXXX",
" ++++++++XXOOOOOOXXXXXXXXXXoooooXXXXXXXX",
" ++++++++XXOOOOOOXXXXXXXXXXoooooXXXXXXXX",
" ++++++++XXOOOOOXXXXXXXXXXXXXXXXXXXXXXXX",
" ++++++XXXXXXXXXXXXXXXXXXXXXXXXXXXXXXXXo",
" .++++XXXXOOOOOXXXXXXXXXXXXXXXXXXXXXXooo",
" +..+.XXXOOOOOOOXXXXXXXXXXXXXXXXXXXXXooo",
" +..+.XXXOOOOOOOXXXXXXXXXXXXXXXXXXXXXooo",
" +++++XXXOOOOOOOXXXXXXXXXXXXXXXXXXXXXooo"
};
