/* XPM */
static char *Tile_34[] = {
/* columns rows colors chars-per-pixel */
"40 40 6 1 ",
"  c #1F3736",
". c #25131A",
"X c #523B40",
"o c #8A961F",
"O c #5C6B53",
"+ c #3D253B",
/* pixels */
".ooooo+++OOOOOOO+++++++++++++++++++++XXX",
".oooo +++OOOOOOO+++++++++++++++++++++XXX",
".o  ooo+++OOOOO+++++++XXXX+++++++++++++X",
".o  ooo+++OOOOO+++++++XXXX+++++++++++++X",
". ooooooo++++++OO++++XXXXXX+++++++++++++",
".oooooooo++++++OOOO++XXXXXX+++++++++++++",
".oooooo+++++++++OOO++XXXXXX+++++++++++++",
". oooo+++OOOOOO++++++XXXXXX+++++++++++++",
". oooo+++OOOOOO++++++XXXXXX+++++++++++++",
".     +OOOOOOOOO++++++XXXX++++++++++++++",
". ooo +OOOOOOOOOO+++++++++++++++++++++++",
".ooooo+OOOOOOOOOO+++++++++++++++++++++++",
".ooooo+OOOOOOOOOO+++++++++++++++++XX++++",
".ooooo+OOOOOOOOOO+++++++++++++++++XX++++",
". ooo +OOOOOOOOOO+++++++++++++++XXXX++++",
".o    +++OOOOOOOO+++++++++++++++XXX+++++",
".ooooo++++OOOOOO++++++++++++++++++++++++",
".oooooooo+++++++++++++++++++++++++++++++",
".oooooooo+++++++++++++++++++++++++++++++",
".ooooooooo+OOOO++++++XXX++++++++++++++++",
".ooooooooo+OOOOO++++++++++++++++++++++++",
". oooooooo+OOOOO++++XX++++++++++++++++++",
".o   oooo+++OOOO++++XX+++OOOOOO+++++++++",
".o   oooo+++OOOO++++XX+++OOOOOO+++++++++",
".oooo +++OOO++++++++++++OOOOOOOO+++++OOO",
".oooo +OOOOOOO++++++++++OOOOOOOOOO++OOOO",
".oooo +OOOOOOO++++++++++OOOOOOOOOO++OOOO",
".ooo  +OOOOOOO++++++++++OOOOOOOOOO++OOOO",
".ooo  +OOOOOOO++++++++++OOOOOOOOOO++OOOO",
".o  ooo++OOO++++++++++++OOOOOOOOOO++OOOO",
". ooooooo+++OOOOO++++++++OOOOOOOOO+++OOO",
".oooooooo++OOOOOO+++++++++OOOOOO++++++++",
".oooooooo++OOOOOO++++OOO+++++++++++ooooo",
".oooooooo++OOOOOO++++OOO+++++++++++ooooo",
".oooooooo++OOOOO+++++OOOO+++++++++oooooo",
".oooooo+++++++++++++++OOO+++++++oooooooo",
". oooo++++OOOOO++++++++++OOOOO++oooooooo",
".o  o +++OOOOOOO++++++++OOOOOOO+oooooooo",
".o  o +++OOOOOOO++++++++OOOOOOO+oooooooo",
".ooooo+++OOOOOOO++++++++OOOOOOO+oooooooo"
};
