/* XPM */
static char *Tile_20[] = {
/* columns rows colors chars-per-pixel */
"40 40 7 1 ",
"  c #25131A",
". c #1F3736",
"X c #3D253B",
"o c #523B40",
"O c #5C6B53",
"+ c #8A961F",
"@ c None",
/* pixels */
"ooooXXXXXXXXXXXXXXXXXXXXOOOOOOOXXX+++++ ",
"ooooXXXXXXXXXXXXXXXXXXXXOOOOOOOXXX.+.++ ",
"ooXXXXXXXXXXXXXXXXXXXXXXXOOOOOXXXX+++.. ",
"ooXXXXXXXXXXXXXXXXXXXXXXXOOOOOXXXX+++.. ",
"XXXXXXXXXXXXXXXXXXXXXXXXXXXXXXXX+++++++ ",
"XXXXXXXXXXXXXXXXXXXXXXXXOOOOOXX++++++++ ",
"XXXXXXXooooXXXXXXXXXXXOOOOOOOXX++++++++ ",
"XXXXXXooooooXXXXXXXXXXOOOOOOOXX++++++++ ",
"XXXXXXooooooXXXXXXXXXXOOOOOOOXX++++++++ ",
"XXXXXoooooooXXXXXXXXXXOOOOOXXXX++++++.. ",
"XXXXXoooooooXXXXXXXXXXXXXXXOOOOX++++.++ ",
"XXXXXooooooXXXXXXXXXXXXXXXOOOOOOXX..+++ ",
"XXXXXXooooXXXXXXXXXXXXXXXXOOOOOOXX.++++ ",
"XXXXXXooooXXXXXXXXXXXXXXXXOOOOOOXX.++++ ",
"XXXXXXXXXXXXXXXXXXXXXXXXXXOOOOOOXX.++++ ",
"XXXXXXXXXXXXXXXXXXXXXXXXXXXOOOOXXX.++++ ",
"XXXXXXXXXXXXXXXXXXXXXXXXOOOXXXX++++..++ ",
"XXXXXXXXXXXXXXXXXXXXXXXXOOOOOX+++++++.. ",
"XXXXXXXXXXXXXXXXXXXXXXXXOOOOOX+++++++.. ",
"XXXXXXXXXXXXXXXXXXXXXXXXOOOOOX+++++++++ ",
"XXXXXXXXXXXXXXXXoooXXXXXXXXXXX+++++++++ ",
"XXXXXOOXXXXXXXXXoooXXXXXXXXXXXX++++++++ ",
"XXXXOOOXXXOOOOOOXXXXXXXXXXXXXXOOOO+++++ ",
"XXXXOOOXXXOOOOOOXXXXXXXXXXXXXXOOOO+++++ ",
"OOXXOOXXXOOOOOOOOXXXOOOOXXXXXXOOOO...++ ",
"OOOOXXXOOOOOOOOOOXXOOOOOXXXXXXOOOO.++.. ",
"OOOOXXXOOOOOOOOOOXXOOOOOXOOOOXOOOO+++++ ",
"OOOOXXXOOOOOOOOOOXXOOOXXOOOOOOXOOO+++++ ",
"OOOOXXXOOOOOOOOOOXXOOOXXOOOOOOXOOO+++++ ",
"OOOOXXXOOOOOOOOOOXXXXXXXOOOOOOXXXX.++.. ",
"OOXXXXXOOOOOOOOOXXX+++XXOOOOOOXX....... ",
"XXXX++XXXOOOOOOXX+++++++XOOOOX+++++++.. ",
"XX+++++XXXXXXXXXX+++++++XXXXX++++++++++ ",
"XX+++++XXXXXXXXXX+++++++XXXXX++++++++++ ",
"+.+++++++..+++..++++++++.....++++++++++ ",
"+++++++++.+++++.++++++..+++..++++++++++ ",
"++..+++++.+++++.++++++..+++++.+++++++++ ",
"++++.++....+++.++++++.++++++++.++++++  @",
"++++.++....+++.++++++.++++++++.++++++  @",
"                                     @@@"
};
