/* XPM */
static char *Tile_50[] = {
/* columns rows colors chars-per-pixel */
"40 40 6 1 ",
"  c #25131A",
". c #1F3736",
"X c #3D253B",
"o c #5C6B53",
"O c #8A961F",
"+ c None",
/* pixels */
" OOOOOXXXoooooooXXXXXXXXoooooooXXXOOOOO ",
" OOOO.XXXoooooooXXXXXXXXoooooooXXX.O.OO ",
" O..OOOXXXoooooXXXXXXXXXXoooooXXXXOOO.. ",
" O..OOOXXXoooooXXXXXXXXXXoooooXXXXOOO.. ",
" .OOOOOOOXXXXXXooXXXXXXXXXXXXXXXOOOOOOO ",
" OOOOOOOOXXXXXXooooXXXXXoooooXXOOOOOOOO ",
" OOOOOOXXXXXXXXXoooXXXoooooooXXOOOOOOOO ",
" .OOOOXXXooooooXXXXXXXoooooooXXOOOOOOOO ",
" .OOOOXXXooooooXXXXXXXoooooooXXOOOOOOOO ",
" .....XoooooooooXXXXXXoooooXXXXOOOOOO.. ",
" .OOO.XooooooooooXXXXXXXXXXooooXOOOO.OO ",
" OOOOOXooooooooooXXXXXXXXXooooooXX..OOO ",
" OOOOOXooooooooooXXXXXXXXXooooooXX.OOOO ",
" OOOOOXooooooooooXXXXXXXXXooooooXX.OOOO ",
" .OOO.XooooooooooXXXXXXXXXooooooXX.OOOO ",
" O....XXXooooooooXXXXXXXXXXooooXXX.OOOO ",
" OOOOOXXXXooooooXXXXXXXXoooXXXXOOOO..OO ",
" OOOOOOOOXXXXXXXXXXXXXXXoooooXOOOOOOO.. ",
" OOOOOOOOXXXXXXXXXXXXXXXoooooXOOOOOOO.. ",
" OOOOOOOOOXooooXXXXXXXXXoooooXOOOOOOOOO ",
" OOOOOOOOOXooooXXXXXXXXXXXXXXXOOOOOOOOO ",
" .OOOOOOOOXXXXXXXXXXXXXXXXXXXXXOOOOOOOO ",
" O...OOOOXooooooXXXXXXXXXXXXXXooooOOOOO ",
" O...OOOOXooooooXXXXXXXXXXXXXXooooOOOOO ",
" OOOO.XXXooooooooXXXooooXXXXXXoooo...OO ",
" OOOO.XooooooooooXXoooooXXXXXXoooo.OO.. ",
" OOOO.XooooooooooXXoooooXooooXooooOOOOO ",
" OOO..XooooooooooXXoooXXooooooXoooOOOOO ",
" OOO..XooooooooooXXoooXXooooooXoooOOOOO ",
" O..OOOooooooooooXXXXXXXooooooXXXX.OO.. ",
" .OOOOOOOoooooooXXXOOOXXooooooXX....... ",
" OOOOOOOOooooooXXOOOOOOOXooooXOOOOOOO.. ",
" OOOOOOOO.XXXXXXXOOOOOOOXXXXXOOOOOOOOOO ",
" OOOOOOOO.XXXXXXXOOOOOOOXXXXXOOOOOOOOOO ",
" OOOOOOOO..OOO..OOOOOOOO.....OOOOOOOOOO ",
" OOOOOOOO.OOOOO.OOOOOO..OOO..OOOOOOOOOO ",
" .OOOOOOO.OOOOO.OOOOOO..OOOOO.OOOOOOOOO ",
"+ ..OOO....OOO.OOOOOO.OOOOOOOO.OOOOOO  +",
"+ ..OOO....OOO.OOOOOO.OOOOOOOO.OOOOOO  +",
"++                                   +++"
};
