/* XPM */
static char *Tile_5[] = {
/* columns rows colors chars-per-pixel */
"40 40 5 1 ",
"  c #1F3736",
". c #3D253B",
"X c #523B40",
"o c #5C6B53",
"O c #8A961F",
/* pixels */
"XXXX.................................XXX",
"XXXX.................................XXX",
"XX....................XXXX.............X",
"XX....................XXXX.............X",
".....................XXXXXX.............",
".....................XXXXXX.............",
".......XXXX..........XXXXXX.............",
"......XXXXXX.........XXXXXX.............",
"......XXXXXX.........XXXXXX.............",
".....XXXXXXX..........XXXX..............",
".....XXXXXXX............................",
".....XXXXXX.............................",
"......XXXX........................XX....",
"......XXXX........................XX....",
"................................XXXX....",
"................................XXX.....",
"........................................",
"........................................",
"........................................",
".....................XXX................",
".....................XXXX...............",
".....oo...............XXX...............",
"....ooo...oooooo........................",
"....ooo...oooooo........................",
"oo..oo...oooooooo......................X",
"oooo...oooooooooo......................X",
"oooo...oooooooooo.......................",
"oooo...oooooooooo..........XXXXX........",
"oooo...oooooooooo..........XXXXX........",
"oooo...oooooooooo.........XXXXXXXX......",
"oo.....ooooooooo..........XXXXXXXX......",
"OOOO.....oooooo...........XXXXXXXX......",
"OOOOO...........ooo........XXXXX........",
"OOOOO...........ooo........XXXXX........",
"OOOOO...........ooo.....................",
"OOOOO .................................X",
"OOOO OO...ooooo......................XXX",
"O OOOOO..ooooooo.....................XXX",
"O OOOOO..ooooooo.....................XXX",
" OOOOOO..ooooooo.....................XXX"
};
