/* XPM */
static char *Tile_19[] = {
/* columns rows colors chars-per-pixel */
"40 40 6 1 ",
"  c #25131A",
". c #1F3736",
"X c #3D253B",
"o c #523B40",
"O c #5C6B53",
"+ c #8A961F",
/* pixels */
"ooooXXXXXXXXXXXXXXXXXXXXXXXXXXXXXXXXXooo",
"ooooXXXXXXXXXXXXXXXXXXXXXXXXXXXXXXXXXooo",
"ooXXXXXXXXXXXXXXXXXXXXooooXXXXXXXXXXXXXo",
"ooXXXXXXXXXXXXXXXXXXXXooooXXXXXXXXXXXXXo",
"XXXXXXXXXXXXXXXXXXXXXooooooXXXXXXXXXXXXX",
"XXXXXXXXXXXXXXXXXXXXXooooooXXXXXXXXXXXXX",
"XXXXXXXooooXXXXXXXXXXooooooXXXXXXXXXXXXX",
"XXXXXXooooooXXXXXXXXXooooooXXXXXXXXXXXXX",
"XXXXXXooooooXXXXXXXXXooooooXXXXXXXXXXXXX",
"XXXXXoooooooXXXXXXXXXXooooXXXXXXXXXXXXXX",
"XXXXXoooooooXXXXXXXXXXXXXXXXXXXXXXXXXXXX",
"XXXXXooooooXXXXXXXXXXXXXXXXXXXXXXXXXXXXX",
"XXXXXXooooXXXXXXXXXXXXXXXXXXXXXXXXooXXXX",
"XXXXXXooooXXXXXXXXXXXXXXXXXXXXXXXXooXXXX",
"XXXXXXXXXXXXXXXXXXXXXXXXXXXXXXXXooooXXXX",
"XXXXXXXXXXXXXXXXXXXXXXXXXXXXXXXXoooXXXXX",
"XXXXXXXXXXXXXXXXXXXXXXXXXXXXXXXXXXXXXXXX",
"XXXXXXXXXXXXXXXXXXXXXXXXXXXXXXXXXXXXXXXX",
"XXXXXXXXXXXXXXXXXXXXXXXXXXXXXXXXXXXXXXXX",
"XXXXXXXXXXXXXXXXXXXXXoooXXXXXXXXXXXXXXXX",
"XXXXXXXXXXXXXXXXXXXXXooooXXXXXXXXXXXXXXX",
"XXXXXOOXXXXXXXXXXXXXXXoooXXXXXXXXXXXXXXX",
"XXXXOOOXXXOOOOOOXXXXXXXXXXXXXXOOOOXXXXXX",
"XXXXOOOXXXOOOOOOXXXXXXXXXXXXXXOOOOXXXXXX",
"OOXXOOXXXOOOOOOOOXXXOOOOXXXXXXOOOOOXXOOO",
"OOOOXXXOOOOOOOOOOXXOOOOOXXXXXXOOOOOXOOOO",
"OOOOXXXOOOOOOOOOOXXOOOOOXOOOOXOOOOOXOOOO",
"OOOOXXXOOOOOOOOOOXXOOOXXOOOOOOXOOOOXOOOO",
"OOOOXXXOOOOOOOOOOXXOOOXXOOOOOOXOOOOXOOOO",
"OOOOXXXOOOOOOOOOOXXXXXXXOOOOOOXXXXXXOOOO",
"OOXXXXXOOOOOOOOOXXX+++XXOOOOOOXXXXXXXOOO",
"XXXX++XXXOOOOOOXX+++++++XOOOOX+++++XXXXX",
"XX+++++XXXXXXXXXX+++++++XXXXX+++++++XXXX",
"XX+++++XXXXXXXXXX+++++++XXXXX+++++++XXXX",
"+.+++++++..+++..++++++++.....++++++++..+",
"+++++++++.+++++.++++++..+++..+++++++++++",
"++..+++++.+++++.++++++..+++++.+++++++..+",
"++++.++....+++.++++++.++++++++.+++++.+++",
"++++.++....+++.++++++.++++++++.+++++.+++",
"                                        "
};
