/* XPM */
static char *Tile_49[] = {
/* columns rows colors chars-per-pixel */
"40 40 6 1 ",
"  c #25131A",
". c #1F3736",
"X c #3D253B",
"o c #523B40",
"O c #5C6B53",
"+ c #8A961F",
/* pixels */
" +++++XXXOOOOOOOXXXXXXXXOOOOOOOXXX+++++ ",
" ++++.XXXOOOOOOOXXXXXXXXOOOOOOOXXX.+.++ ",
" +..+++XXXOOOOOXXXXXXXXXXOOOOOXXXX+++.. ",
" +..+++XXXOOOOOXXXXXXXXXXOOOOOXXXX+++.. ",
" .+++++++XXXXXXOOXXXXXXXXXXXXXXX+++++++ ",
" ++++++++XXXXXXOOOOXXXXXOOOOOXX++++++++ ",
" ++++++XXXXXXXXXOOOXXXOOOOOOOXX++++++++ ",
" .++++XXXOOOOOOXXXXXXXOOOOOOOXX++++++++ ",
" .++++XXXOOOOOOXXXXXXXOOOOOOOXX++++++++ ",
" .....XOOOOOOOOOXXXXXXOOOOOXXXX++++++.. ",
" .+++.XOOOOOOOOOOXXXXXXXXXXOOOOX++++.++ ",
" +++++XOOOOOOOOOOXXXXXXXXXOOOOOOXX..+++ ",
" +++++XOOOOOOOOOOXXXXXXXXXOOOOOOXX.++++ ",
" +++++XOOOOOOOOOOXXXXXXXXXOOOOOOXX.++++ ",
" .+++.XOOOOOOOOOOXXXXXXXXXOOOOOOXX.++++ ",
" +....XXXOOOOOOOOXXXXXXXXXXOOOOXXX.++++ ",
" +++++XXXXOOOOOOXXXXXXXXOOOXXXX++++..++ ",
" ++++++++XXXXXXXXXXXXXXXOOOOOX+++++++.. ",
" ++++++++XXXXXXXXXXXXXXXOOOOOX+++++++.. ",
" +++++++++XOOOOXXXXXXXXXOOOOOX+++++++++ ",
" +++++++++XOOOOOXXXXXXXXXOOOOX+++++++++ ",
" .++++++++XOOOOOXXXXooXXXXXXXXX++++++++ ",
" +...++++XXXOOOOXXXXooXXOOOOOOXXXX+++++ ",
" +...++++XXXOOOOXXXXooXXOOOOOOXXXX+++++ ",
" ++++.XXXOOOXXXXXXXXXXOOOOOOOOOXXX...++ ",
" ++++.XOOOOOOOXXXXXXXXOOOOOOOOOOXX.++.. ",
" ++++.XOOOOOOOXXXXXXXXOOOOOOOOOOXX+++++ ",
" +++..XOOOOOOOXXXXXXXXOOOOOOOOOOXX+++++ ",
" +++..XOOOOOOOXXXXXXXXOOOOOOOOOOXX+++++ ",
" +..+++XXOOOXXXXXXXXXXOOOOOOOOOOXX.++.. ",
" .+++++++XXXOOOOOXXXXXXXOOOOOOOOXX..... ",
" ++++++++XXOOOOOOXXXXXXXXOOOOOOXXX+++.. ",
" ++++++++XXOOOOOOXXXXOOOXXXXXXXX+++++++ ",
" ++++++++XXOOOOOOXXXXOOOXXXXXXXX+++++++ ",
" ++++++++XXOOOOOXXXXXOOOOXXXXXX++++++++ ",
" ++++++XXXXXXXXXXXXXXXOOOXXXXXX++++++.. ",
" .++++XXXXOOOOOXXXXXXXXXXOOOOOXX++++.++ ",
" +..+.XXXOOOOOOOXXXXXXXXOOOOOOOXXX.++++ ",
" +..+.XXXOOOOOOOXXXXXXXXOOOOOOOXXX.++++ ",
" +++++XXXOOOOOOOXXXXXXXXOOOOOOOXXX+++++ "
};
