/* XPM */
static char *Tile_0[] = {
/* columns rows colors chars-per-pixel */
"40 40 7 1 ",
"  c #26131A",
". c #1D3736",
"X c #3E253A",
"o c #533B40",
"O c #5B6B54",
"+ c #89972D",
"@ c None",
/* pixels */
"@@                                      ",
"@ +++++++.+++++++..++++++.+++...+++.++++",
"@ +++++++.+++++++..++++++.+++...+++.++++",
" +++++++++.+++++.+++++++.+++++.+++++.+++",
" ++++++++++.++++.+++++++.+++++.+++++++++",
" ++++++++++.....++++++++..+++..++++++..+",
" ++++++++++XXXXX++++++XXXXXXXXXX+++++XXX",
" ++++++++++XXXXX++++++XXXXXXXXXX+++++XXX",
" .++++++++XXXXXX++++++XXXOOOOOOXXX++XXXX",
" ......XXXXXXXXXX++++XXXOOOOOOOOXXXXXOOO",
" .+++.XXXOOOXXXXXXXXXXOOOOOOOOOOXXXXOOOO",
" +++++XOOOOOOOXXXOOOOXOOOOOOOOOOXXXXOOOO",
" +++++XOOOOOOOXXXOOOOXOOOOOOOOOOXXXXOOOO",
" +++++XOOOOOOOOXOOOOOXOOOOOOOOOOXXXXOOOO",
" .+++.XOOOOOOOOXOOOOOXOOOOOOOOOOXXXXOOOO",
" +....XXXOOOOOOXOOOOXXOOOOOOOOOXXXOOXOOO",
" +++++XXXXOOOOXXXXXXXXXXOOOOOOXXOOOOXXXX",
" +++++XXXXOOOOXXXXXXXXXXOOOOOOXXOOOOXXXX",
" ++++++++XXXXXXXXXXXXoooXXXXXXXXOOOXXXXX",
" +++++++++XOOOOXXXXXXoooXXXXXXXXXXXXXXXX",
" +++++++++XOOOOOXXXXXXXXXXXXXXXXXXXXXXXX",
" .++++++++XOOOOOXXXXXXXXXXXXXXXXXXooXXXX",
" .++++++++XOOOOOXXXXXXXXXXXXXXXXXXooXXXX",
" +...++++XXXOOOOXXXXXXXXXXXXXXXXXXooXXXX",
" ++++.XXXOOOXXXXXXXXXXXXXXXXXXXXXXXXXXXX",
" ++++.XOOOOOOOXXXXXXXXooooXXXXXXXXXXXXXX",
" ++++.XOOOOOOOXXXXXXXooooooXXXXXXXXXXXXX",
" ++++.XOOOOOOOXXXXXXXooooooXXXXXXXXXXXXX",
" +++..XOOOOOOOXXXXXXXooooooooXXXXXXXXXXX",
" +..+++XXOOOXXXXXXXXXooooooooXXXXXXXXXXX",
" .+++++++XXXOOOOOXXXXooooooooXXXXXXXXXXX",
" ++++++++XXOOOOOOXXXXooooooooXXXXXXXXXXX",
" ++++++++XXOOOOOOXXXXooooooooXXXXXXXXXXX",
" ++++++++XXOOOOOOXXXXXoooooXXXXXXXXXXXXX",
" ++++++++XXOOOOOXXXXXXXXXXXXXXXXXXXXXXXX",
" ++++++XXXXXXXXXXXXXXXXXXXXXXXXXXXXXXXXX",
" .++++XXXXOOOOOXXXXXXXXXXXXXXXXXXXXXXooo",
" .++++XXXXOOOOOXXXXXXXXXXXXXXXXXXXXXXooo",
" +..+.XXXOOOOOOOXXXXXXXXXXXXXXXXXXXXoooo",
" +++++XXXOOOOOOOXXXXXXXXooXXXXXXXXXooooo"
};
