/* XPM */
static char *Tile_52[] = {
/* columns rows colors chars-per-pixel */
"40 40 4 1 ",
"  c #8A961F",
". c #5C6B53",
"X c #523B40",
"o c #3D253B",
/* pixels */
"XXXXooooooooooooooooooooo.......oo      ",
"XXXXooooooooooooooooo...o.......oo      ",
"XXoooooooooooooooooo....o.......oo      ",
"XXoooooooooooooooooo....o.......oo      ",
"oooooooooooooooooooo..ooo.......oo      ",
"oooooooooooooooooooooooooo.....oooo     ",
"oooooooXXXXooooooooooooooooooooooooooooo",
"ooooooXXXXXXooooooooXXoooooooo....oooooo",
"ooooooXXXXXXooooooooXXoooooooo....oooooo",
"oooooXXXXXXXoooooooXXXXXoooooo.....oo...",
"oooooXXXXXXXoooooooXXXXXoooooo.....o....",
"oooooXXXXXXoooooooooXXooooooooo....o....",
"ooooooXXXXoooooooooooooooooooooooooo....",
"ooooooXXXXoooooooooooooooooooooooooo....",
"ooooooooooooooooooooooooooooooXXoooo....",
"ooooooooooooooooooooooooooooooXXooooo...",
"oooooooooooooooooooooooooooooooooooooooo",
"oooooooooooooooooooooooooooooooooooooooo",
"oooooooooooooooooooooooooooooooooooooooo",
"oooooooooooooooooooooXXXoooooooooooooooo",
"oooooooooooooooooooooXXXXooooooooooooooo",
"oooooooXXXXXXXooooooooXXXooooooooooooooo",
"ooooooXXXXXXXXXooooooooooooooooooooooooo",
"ooooooXXXXXXXXXooooooooooooooooooooooooo",
"XoooooXXXXXXXXXooooooooooooooooooooooooX",
"XoooooXXXXXXXXXooooooooooooooooooooooooX",
"ooooooXXXXXXXXoooooooooooooooooooooooooo",
"oooooooXXXXXoooooooooooooooXXXXXoooooooo",
"oooooooXXXXXoooooooooooooooXXXXXoooooooo",
"ooooooooooooooooooooooooooXXXXXXXXoooooo",
"ooooooooooooooooooooooooooXXXXXXXXoooooo",
"ooooooooooooooooooooooooooXXXXXXXXoooooo",
"oooooooooooooooooooooooooooXXXXXoooooooo",
"oooooooooooooooooooooooooooXXXXXoooooooo",
"ooooooooooooooooXXXooooooooooooooooooooo",
"XoooooooooooooooXXXooooooooooooooooooooX",
"XXoooooooooooooooooooooooooooooooooooXXX",
"XXXXoooooooooooooooooooooooooooooooooXXX",
"XXXXoooooooooooooooooooooooooooooooooXXX",
"XXXXoooooooooooooooooooooooooooooooooXXX"
};
