/* XPM */
static char *Wall_16[] = {
/* columns rows colors chars-per-pixel */
"64 64 53 1 ",
"  c #783A21",
". c #7A3C23",
"X c #783D24",
"o c #7A3E24",
"O c #7A3F24",
"+ c #7A3E25",
"@ c #7A3F25",
"# c #7A3F26",
"$ c #7D4027",
"% c #7D4127",
"& c #7D4329",
"* c #7F4228",
"= c #7F4229",
"- c #7F442B",
"; c #7F452B",
": c #965E3F",
"> c #9C6847",
", c #86831D",
"< c #999222",
"1 c #9C9723",
"2 c #959E22",
"3 c #A29C28",
"4 c #98A323",
"5 c #ABA52D",
"6 c #ACB028",
"7 c #B4B82F",
"8 c #BCC036",
"9 c #C1C52D",
"0 c #AC8B6A",
"q c #AE9073",
"w c #B39D7E",
"e c #DABD5B",
"r c #E6DE64",
"t c #AD9B80",
"y c #AFA28C",
"u c #BDB7A6",
"i c #BEB8A8",
"p c #BEB9A8",
"a c #BFBAAA",
"s c #C2BCAC",
"d c #DFCB82",
"f c #C6C1B2",
"g c #D6D5CA",
"h c #DEDDD6",
"j c #DEDDD7",
"k c #DFDDD7",
"l c #DFDDD8",
"z c #E0DED8",
"x c #E0DED9",
"c c #E1E0DB",
"v c #E3E2DE",
"b c #EAEFF1",
"n c #F3F2F0",
/* pixels */
"9999+gggggv-6666666666666666666666666666666666666666666666666666",
"9999+gggggv-6666666666666666666666666666666666666666666666666666",
"9999+gggggv-6666666666666666666666666666666666666666666666666666",
"9999+gggggv-6666666666666666666666666666666666666666666666666666",
"9999+gggggv-6666666666666666666666666666666666666666666666666666",
"9999+gggggv-6666666666666676666666666666666666666666666666666666",
"9999+gggggv-6666666666666677666666666666666666666666666666666666",
"9999+gggggv-6666666666666644666666666666666666666666666666666666",
"9999+vggggv-6666666666666666666666666666666666666666666666666666",
"9999+wvvggv-6666666666666666666666666666666666666666666666666666",
"9999+uq0vvv-6666666666666666666666666666666666666666666666666666",
"9999+uaa>>$-6666666666666666666666666666666666666666666666666666",
"9999+ya+ggv-6666666666666666666666666666666666666666666666666666",
"9999+y+gggv-6666666666666666666666666666666666666666666666666666",
"9999+y+gggv-6666666666666666666666666666666666666666666666666666",
"9999++ggggv-6666666666666666666666666666666677666666666666666666",
"9999+gggggv-6666666666666666666666666666666876666666666666666666",
"9999+gggggv-6666666666666666666666666666667746666666666666666666",
"9999+gggggv-6666666666666666666666666688767746666666666666666666",
"9999+gggggv-6666666666666666666666666668774746666666666666666666",
"9999+gggggv-6666666666666666666666666664774466666666666666666666",
"9999+gggggv-6666666666666666666666666666446666666666666666686666",
"9999+gggggv-6666666666666666666666666666666666666666788666866666",
"9999+gggggv&666666666666666666666666666666666666666668bb68866666",
"9999+gggggv:56666666666666666666666666666666666666666bddb7766666",
"9999+gggggj <<<<<<<<<<<<<16666666666666666666666666662bb2nn66666",
"9999Ohhhxxl&<<<<<<<<<<<<<16666666666666666666666666666226dn66666",
"9999O+>>>>#&<<<<<<<<<<<<<166666666666666666666666666666662266666",
"9999+gggggl#<<<<<<<<<<<<<166666666666666666666666666666666666666",
"9999-gggggj:<<<<<<<<<<<<<166666666666666666666666666666666666666",
"9999 gggggv#<<<<<<<<<<<<<166666666666666666666666666666666666666",
"9999Xgggggv#<<<<<<<<<<<<<166666666666666666666666666666666666666",
"9999#gggggx.<<<<<<<<<<<<<166666666666666666666666666666666666666",
"9999.gggggx <<<<<<<<<<<<<166666666666666666666666666666666666666",
"9999#gggggv:<<<<<<<<<<<<<166666666666666666666666666666666666666",
"9998#gggggxo<<<<<<<<<<<<<166666666666666666666666666666666666666",
"9999#gggggv&<<<<<<<<<<<<<166666666666666666666666666666666666666",
"9999#gggggj:<<<<<<<<<<<<<166666666666666666666666666666666666666",
"9999#gggggl#<<<<<<<<<<<<<166666666666666666666666666666666666666",
"9999#gggggv#<<<<<<<<<<<<<166686666666666666666666666666666666666",
"9999.gggggv:,<<<<<<<<<<<<167866666666666666666666666666666666666",
"9999.gggggv&<<<<<<<<<<<<<177466666666666666666666666666666666666",
"9999+jxxljv-<<<<<<<<<<<<<177466666666666666666666666666666666666",
"9999+.>>>>&-<<<<<<<<<<<<<174666666666666666666666666666666666666",
"9999+gggggv-<<<<<<<<<<<<<16rr66666666666666666666666666666666666",
"9999+gggggv-3<<<<<<<<<<<<16er66666666666876666666666666666666666",
"9999+gggggv-3<<5<<<<<<<<<162266666687667846666666666666666666666",
"9999+gggggv-<33,<<<<<<<<<166666666647767766666666666666666666666",
"9999ogggggv&<44,<<<<<<<<<166666666664777466666666666666666666666",
"9999#gggggl#<:,1<<<<<<<<<166666666664774666666666666666666666666",
"9999ogggggv <<1<<<<<<<<<<166666666666476666666666666666666666666",
"9999#gggggv:<<<<<<<<<<<<<166666666666666666666666666666666666666",
"9999+ggggcq:<<<<<<<<<<<<<166666666666666666666666666666666666666",
"9999+ggggju&<<<<<<<<<<<<<166666666666666666666666666666666666666",
"9999+sgggvp*<<<<<<<<<<<<<166666666666666666666666666666678866666",
"9999+xygcwf%<<<<<<<<<<<<<166666666666666666666666666666778666666",
"9999Xglytaa;<<<<<<<<<<<<<166666666666666666666666666666774666666",
"9999Xggcysa&<<<<<<<<<<<<<166666666666666666666666666666446666666",
"9999Xgglwwu&<<<<<<<<<<<<<166666666666666666666666666666666666666",
"9998X>>>wwt&<<<<<<<<<<<<<166666666666666666666666666666666666666",
"9999Xvvv&&&X<<<<<<<<<<<<<166666666666666666666666666666666666666",
"9999Xgggvvv&<<<<<<<<<<<<<166666666666666666666666666666666666666",
"9999Xgggggv&<<<<<<<<<<<<<166666666666666666666666666666666666666",
"9999Xgggggv&<<<<<<<<<<<<<166666666666666666666666666666666666666"
};
