/* XPM */
static char *Wall_14[] = {
/* columns rows colors chars-per-pixel */
"64 64 54 1 ",
"  c #482413",
". c #4F2913",
"X c #4C2E1E",
"o c #502C16",
"O c #502E19",
"+ c #4F311E",
"@ c #54311C",
"# c #4D2F20",
"$ c #4E3325",
"% c #4F372B",
"& c #4F382C",
"* c #543623",
"= c #563926",
"- c #5A3B27",
"; c #503729",
": c #553B2C",
"> c #5B3C29",
", c #523E33",
"< c #5B412F",
"1 c #534037",
"2 c #5A4434",
"3 c #54443B",
"4 c #5A4739",
"5 c #57483F",
"6 c #5B493C",
"7 c #604939",
"8 c #5C4E43",
"9 c #5A4E48",
"0 c #5C5247",
"q c #5D534B",
"w c #655444",
"e c #60564E",
"r c #61584F",
"t c #605650",
"y c #655E55",
"u c #695F57",
"i c #665F58",
"p c #666057",
"a c #676159",
"s c #6A655D",
"d c #6D685F",
"f c #6E6A60",
"g c #716A63",
"h c #767469",
"j c #827F74",
"k c #848276",
"l c #868579",
"z c #8A867F",
"x c #8B8780",
"c c #8E8B83",
"v c #908F86",
"b c #918F88",
"n c #94928B",
"m c None",
/* pixels */
"mmmmmm----------<@<<@<-----7------------<-----------------mmmmmm",
"mmmmm-lllllllllllllllllllllollllllllllllllllllllllllllllll<mmmmm",
"mmmm-llllllllllllllllllllllolllllllllllllllllllllllllllllll-mmmm",
"mmmm-llllllllllllllllllllzz7lllllllllllllllllllllllllllllll-mmmm",
"mmmm>llllllnnnnnnnnnnnnnnnzwnnnnnznznnnnnnnznnnzznznnlllllk-mmmm",
"mmmm>llllln7rgggffffddddfgd<ghgghghhfffffffffffdfhdd7nlllll<mmmm",
"mmmm>llllln7rfffffddddddfdd-ggffgffffffffdddffddfddd<nllkll<mmmm",
"mmmm>llllln2rffdddddddddfdd<ffffffffffffdfdddfdddddd<nlllll<mmmm",
"mmmm>llllln7wedgdddddddddss<gdddffffddddddddddddddfs<nlllll<mmmm",
"mmmm>nnnnnb7eeddddsddsdddss<ddgdffffdsddddddddsdsdsd<nznnzz-mmmm",
"mmmm>owwwwo<eeddsssssssssss>dddddsdddddsdssdssssssss<.7www.-mmmm",
"mmmm-llllln<qqdssssssssssss<ddsssdsdssssssssssssssss-nlllll<mmmm",
"mmmm-llllln-eeessssssssssss<ssssssssssssssspssssssss<nlllll-mmmm",
"mmmm>llllln@qqqasspssspsssp<asasssssspsppssspsspsssp@nlllll<mmmm",
"mmmm>llllln@qqqssppsppsssss<asaspssspspssssssspsspsp@nlllll<mmmm",
"mmmm-lllllb@qqqqpppppppppap-aaaappppsppspppppspspsps@nlllll<mmmm",
"mmmm>llllkv@qqq0iyyyppppaaa.aaaaaaaaaaaaaaaaaaaasspp.nlllll-mmmm",
"mmmm>lllllv*q000yyypyypppaa.aaaaaaaaaaaaaaaaaaaapppp.nlllll-mmmm",
"mmmm>llllkv@X+$$$$;*@++X+.............oo.............nlllll<mmmm",
"mmmm>lllllx*89880000000000000000000+000000000q000000.nlllll<mmmm",
"mmmm>lllkkz=80800000000000000000000+q000000000000000.nlllll-mmmm",
"mmmm-lllkkx=890000000000000000000q0;0000000000000000.nlllll<mmmm",
"mmmm-lllkkl=990900000000000q0000000;0000000000000000.nlllll-mmmm",
"mmmm>llkkkx;80900000000q00000000000;000q000000000000.nlllll<mmmm",
"mmmm>llkkjz=8909000090000000q0000q0;000000000000000qonlllll<mmmm",
"mmmm>zccccx=9q9000ytyypppaaaiaaaasp2aaaaaaaaaaaaaaaa.nzvzvz>mmmm",
"mmmm>owwwwo=999900yyyyppaaaaaaaaapp4psaaaaaaaaaaaaaa..wwwwo>mmmm",
"mmmm>lllkkv*,,,,1&:&44000000000w444420009w0900w9qwww.nlllll>mmmm",
"mmmm>lllllb*qqeqqq$sssddddddddddddddddddfddffsffdsfs.nlllll>mmmm",
"mmmm>llllkn@9q9qqqXaaaaaaaaaaaaasaaaaaaaaaiaaaaaaaaa.nlllll>mmmm",
"mmmm>llllln@0qq0qq&aaaaaaaaaaaaapaaaaaaaaaaaaaaaaaaa.nlllll>mmmm",
"mmmm>lllllb@9qqqqq3aaaaaaaaaaaaaaaaaaaaaaaaaaaaaaaaa.nlllll<mmmm",
"mmmm>lllllnO9qqqqq3taaaaissiiiiiaaaaaaaaaaaaaaaaasii.nlllll>mmmm",
"mmmm>llllzn*q9qqtq3qaaiaiiiiisisaaaaaaaaaaaaaaaaaaaa.nlllll>mmmm",
"mmmm-lllllnO9qt9qq3taaaasiisifiiaaaaaaaaaaiiaaaaaaaa.nlllll>mmmm",
"mmmm>llllln@q99tqq3tqaiuaiiiiiuuaaaaaaaaaaaiaaaaaaaa.nlllll-mmmm",
"mmmm>llllln@,,,,31,1,98898868888884:-::66666646:,ee0.nlllll>mmmm",
"mmmm>llllln@etttettttsddddddsfsfsfsf*ddfffisisssasdd.nlllll>mmmm",
"mmmm-llllln@999qqqtttiiiiiiiiiiiiiii;ippiiiiiiiiiiii.nlllll>mmmm",
"mmmm>llllln@q999qttqeeiiiiiiiiiiiiii6ippiiiiiiiiiiii.nlllll>mmmm",
"mmmm>llllln@999etqttttiiiiiiiiiiiiii9uyiiiiiiiiiiiii.nlllll>mmmm",
"mmmm>llllln@9q9eqtttttiiiiiiiiiiiiiieiiiiiiiiiiiiiii.nlllll-mmmm",
"mmmm-nnnnnn@99q9qqtttttiiiiiiiiiiiiiqiiiiiiiiiiiiiuy.nvvbbv-mmmm",
"mmmm>owwww.@999qqqqtqttiiiiiiiiiiiiiqiiiiiiiiiiiiiuu..wwwwo-mmmm",
"mmmm>lllllbO99qq9qqtqtwiiiiiiiiiiiyieyiiiiiiiiiyiyii.nlllll>mmmm",
"mmmm>llllln*&,,,$$$$&&,9888988qqeqqqwqq9weq9eqq662,2.nlllll>mmmm",
"mmmm>llllln#tqqqtq$tttttssgsfssfdfsfsfffsfsfsddddfddonlllll>mmmm",
"mmmm>llllzn#999999$99tq9iiiiiiiiyyiiiiyyiiiiyuiiiiiyonlllll>mmmm",
"mmmm>llllln@098999&9qqqqiiiiiiiiiiiiiiiiiiiiiiiiiiii.nlllll>mmmm",
"mmmm>llllln@99999939qqqqqiiiiiiiiiiiiiiiiiiiiiiiiiiionlllll>mmmm",
"mmmm>llllln@9999998qqqqqqiiiiiiiiiiiiiiiiiiiiiiiiiii.blllll>mmmm",
"mmmm>llllln@999999%9qqqqqiiiiiiiiiiiiiiiiiiiiiiiiiiionlllll>mmmm",
"mmmm>llllln@999999%qq9q0qiiiiiiiiiiiiiiiiiiiiiiiiiii.blllll>mmmm",
"mmmm>llllln@899999%09q9q9qiiiiiiiiiiiiiiiiiiuuiiiiii.nlllll>mmmm",
"mmmm>llllln@          .    Xq........................nlllll>mmmm",
"mmmm>lllllnOqeyyyuyyyypriihh.hhhhhhhhhhhhhhhhhhhhhhh.nlllll>mmmm",
"mmmm>llllln@eqyyrppurpuuyyhhwhhhhhhhhhhhhhhhhhhhhhhh.nlllll>mmmm",
"mmmm>nnnnnn@eeyypppuupruyyhhwhhhhhhhhhhhhhhhhhhhhhhh.nvvvvv>mmmm",
"mmmm>owwww.@ewyupppauuuuyyhhwhhhhhhhhhhhhhhhhhhhhhhh..wwwwo-mmmm",
"mmmm>klllln@uuggggfgfgfgggllellljxzjzjzxllllzlllllll.nlllll-mmmm",
"mmmm>llllln@559erqpryqrtttppwpppppppiiypppppppppuirr.nlllll>mmmm",
"mmmm>llllln@55qeqrqrqqyqteppwpppppppiippppppppppuyrronlllll>mmmm",
"mmmm>llllln@36qqqqqqqpereepp.pppppppppppppppppppuurroblllll>mmmm",
"mmmm>llllln@...oooo.......oo........................onlllll>mmmm"
};
