/* XPM */
static char *Wall_11[] = {
/* columns rows colors chars-per-pixel */
"64 64 131 2 ",
"   c #4F2913",
".  c #502C16",
"X  c #512D18",
"o  c #55321C",
"O  c #55341E",
"+  c #56341E",
"@  c #56341F",
"#  c #56351F",
"$  c #573521",
"%  c #573722",
"&  c #573723",
"*  c #583622",
"=  c #583724",
"-  c #573A27",
";  c #583824",
":  c #5A3B27",
">  c #573B28",
",  c #573B29",
"<  c #5B3C29",
"1  c #583F2D",
"2  c #654935",
"3  c #6C5847",
"4  c #61574A",
"5  c #61574B",
"6  c #62574B",
"7  c #61584B",
"8  c #62584B",
"9  c #62584C",
"0  c #63584C",
"q  c #63594C",
"w  c #63594D",
"e  c #645A4D",
"r  c #655C4F",
"t  c #6D5A4B",
"y  c #655C50",
"u  c #655C51",
"i  c #655D51",
"p  c #665D51",
"a  c #665E51",
"s  c #675E51",
"d  c #665D52",
"f  c #665E52",
"g  c #675E52",
"h  c #675F52",
"j  c #675E53",
"k  c #675F53",
"l  c #655E55",
"z  c #655F55",
"x  c #665F56",
"c  c #665F57",
"v  c #685F54",
"b  c #666057",
"n  c #676057",
"m  c #676157",
"M  c #6F6050",
"N  c #686054",
"B  c #686155",
"V  c #696155",
"C  c #696156",
"Z  c #696256",
"A  c #696257",
"S  c #696357",
"D  c #6B6256",
"F  c #6A6257",
"G  c #666058",
"H  c #676058",
"J  c #676158",
"K  c #676159",
"L  c #676258",
"P  c #676259",
"I  c #686158",
"U  c #686159",
"Y  c #696358",
"T  c #686259",
"R  c #686359",
"E  c #6A6358",
"W  c #6B6358",
"Q  c #6B6359",
"!  c #68625A",
"~  c #69625A",
"^  c #68635A",
"/  c #69635A",
"(  c #69635B",
")  c #6A635B",
"_  c #69645A",
"`  c #6A645B",
"'  c #6A655B",
"]  c #6D665A",
"[  c #6D665B",
"{  c #6E675B",
"}  c #6B645C",
"|  c #6A655C",
" . c #6B655D",
".. c #6A665C",
"X. c #6B665C",
"o. c #6B665D",
"O. c #6C665E",
"+. c #6C675E",
"@. c #6E685B",
"#. c #6F6A61",
"$. c #706B63",
"%. c #736E62",
"&. c #736E63",
"*. c #746F63",
"=. c #726F67",
"-. c #746F64",
";. c #747064",
":. c #76736B",
">. c #767469",
",. c #79766B",
"<. c #79766E",
"1. c #7A776F",
"2. c #7E7B73",
"3. c #828076",
"4. c #828077",
"5. c #848278",
"6. c #86837B",
"7. c #868579",
"8. c #86847B",
"9. c #8C8A81",
"0. c #8F8D84",
"q. c #8F8D85",
"w. c #8F8E85",
"e. c #908E85",
"r. c #908E86",
"t. c #908F86",
"y. c #918F86",
"u. c #918F87",
"i. c #94928B",
"p. c #99978F",
"a. c None",
/* pixels */
": :       7.7.7.7.7.i.< a.a.a.a.a.a.a.a.a.a.a.a.a.a.a.a.a.a.a.a.a.a.a.a.a.a.a.a.a.a.a.a.a.a.a.a.a.a.a.a.$ i.7.7.7.7.7.# a.a.a.a.",
"7.7.7.7.7.7.7.7.7.7.i.< a.a.a.a.a.a.a.a.a.a.a.a.a.a.a.a.a.a.a.a.a.a.a.a.a.a.a.a.a.a.a.a.a.a.a.a.a.a.a.a.$ i.7.7.7.7.7.o a.a.a.a.",
"7.7.7.7.7.7.7.7.7.7.p.: a.a.a.a.a.a.a.a.a.a.a.a.a.a.a.a.a.a.a.a.a.a.a.a.a.a.a.a.a.a.a.a.a.a.a.a.a.a.a.a.$ i.7.7.7.7.7.$ a.a.a.a.",
"7.7.7.7.7.7.7.7.7.7.p.: a.a.a.a.a.a.a.a.a.a.a.a.a.a.a.a.a.a.a.a.a.a.a.a.a.a.a.a.a.a.a.a.a.a.a.a.a.a.a.a.: i.7.7.7.7.7.# a.a.a.a.",
"i.i.i.i.i.i.p.p.p.p.6.  a.a.a.a.a.a.a.a.a.a.a.a.a.a.a.a.a.a.a.a.a.a.a.a.a.a.a.a.a.a.a.a.a.a.a.a.a.a.a.a.= $ 2 2 2 2 # # a.a.a.a.",
"O.O.O.O.o.o.o.X.o.o.6.  a.a.a.a.a.a.a.a.a.a.a.a.a.a.a.a.a.a.a.a.a.a.a.a.a.a.a.a.a.a.a.a.a.a.a.a.a.a.a.a.= i.e.q.0.q.e.o a.a.a.a.",
"o.o.o.o.o.o.o.X.o.( 6.  a.a.a.a.a.a.a.a.a.a.a.a.a.a.a.a.a.a.a.a.a.a.a.a.a.a.a.a.a.a.a.a.a.a.a.a.a.a.a.a.= i.7.7.7.7.7.# a.a.a.a.",
"o.o.o.o.o.X.X.X.X.( 2.  a.a.a.a.a.a.a.a.a.a.a.a.a.a.a.a.a.a.a.a.a.a.a.a.a.a.a.a.a.a.a.a.a.a.a.a.a.a.a.a.= i.7.7.7.7.7.# a.a.a.a.",
"X.X.} } ( X.( ( ( ( 2.  a.a.a.a.a.a.a.a.a.a.a.a.a.a.a.a.a.a.a.a.a.a.a.a.a.a.a.a.a.a.a.a.a.a.a.a.a.a.a.a.= i.7.7.7.7.7.$ a.a.a.a.",
"X.X.X.( ( ( ( ( ( ( 2.  a.a.a.a.a.a.a.a.a.a.a.a.a.a.a.a.a.a.a.a.a.a.a.a.a.a.a.a.a.a.a.a.a.a.a.a.a.a.a.a.= i.7.7.7.7.7.o a.a.a.a.",
"( X.X.( ( ( L ( L X.<.  a.a.a.a.a.a.a.a.a.a.a.a.a.a.a.a.a.a.a.a.a.a.a.a.a.a.a.a.a.a.a.a.a.a.a.a.a.a.a.a.= i.7.7.7.7.7.$ a.a.a.a.",
"X.( ( ( ( ( ( L ( m <.  a.a.a.a.a.a.a.a.a.a.a.a.a.a.a.a.a.a.a.a.a.a.a.a.a.a.a.a.a.a.a.a.a.a.a.a.a.a.a.a.= i.7.7.7.7.7.o a.a.a.a.",
"( ( ( L ( ( c ( m ( <.  a.a.a.a.a.a.a.a.a.a.a.a.a.a.a.a.a.a.a.a.a.a.a.a.a.a.a.a.a.a.a.a.a.a.a.a.a.a.a.a.= i.7.7.7.7.7.# a.a.a.a.",
"( m c ( c ( ( v m m :.  a.a.a.a.a.a.a.a.a.a.a.a.a.a.a.a.a.a.a.a.a.a.a.a.a.a.a.a.a.a.a.a.a.a.a.a.a.a.a.a.= i.7.7.7.7.7.$ a.a.a.a.",
"L ( ( C ( v m L x x :.  a.a.a.a.a.a.a.a.a.a.a.a.a.a.a.a.a.a.a.a.a.a.a.a.a.a.a.a.a.a.a.a.a.a.a.a.a.a.a.a.= i.7.7.7.7.7.o a.a.a.a.",
"L L L c x L x x x x =.  a.a.a.a.a.a.a.a.a.a.a.a.a.a.a.a.a.a.a.a.a.a.a.a.a.a.a.a.a.a.a.a.a.a.a.a.a.a.a.a.= i.7.7.7.7.7.$ a.a.a.a.",
"L c L c L c c c x x =.  a.a.a.a.a.a.a.a.a.a.a.a.a.a.a.a.a.a.a.a.a.a.a.a.a.a.a.a.a.a.a.a.a.a.a.a.a.a.a.a.= i.7.7.7.7.# o a.a.a.a.",
"! c c c c c x x x a   a.a.a.a.a.a.a.a.a.a.a.a.a.a.a.a.a.a.a.a.a.a.a.a.a.a.a.a.a.a.a.a.a.a.a.a.a.a.a.a.a.= i.7.7.7.# D $ a.a.a.a.",
"                .   a.a.a.a.a.a.a.a.a.a.a.a.a.a.a.a.a.a.a.a.a.a.a.a.a.a.a.a.a.a.a.a.a.a.a.a.a.a.a.a.a.a.= i.7.7.7.$ C o a.a.a.a.",
"  5 5 5 7 7 7 7 7   a.a.a.a.a.a.a.a.a.a.a.a.a.a.a.a.a.a.a.a.a.a.a.a.a.a.a.a.a.a.a.a.a.a.a.a.a.a.a.a.a.a.= i.7.7.o ;.D $ a.a.a.a.",
". 0 6 0 9 9 7 7 6   a.a.a.a.a.a.a.a.a.a.a.a.a.a.a.a.a.a.a.a.a.a.a.a.a.a.a.a.a.a.a.a.a.a.a.a.a.a.a.a.a.a.= $ 2 2 ;.-.%.$ a.a.a.a.",
"  7 0 w 9 w w 0 6   a.a.a.a.a.a.a.a.a.a.a.a.a.a.a.a.a.a.a.a.a.a.a.a.a.a.a.a.a.a.a.a.a.a.a.a.a.a.a.a.a.a.= i.i.i.3 t %.o a.a.a.a.",
"  0 7 w 0 7 7 0 6 . a.a.a.a.a.a.a.a.a.a.a.a.a.a.a.a.a.a.a.a.a.a.a.a.a.a.a.a.a.a.a.a.a.a.a.a.a.a.a.a.a.a.= i.7.7.i.i.M $ a.a.a.a.",
"  0 w w 7 0 0 7 6 . a.a.a.a.a.a.a.a.a.a.a.a.a.a.a.a.a.a.a.a.a.a.a.a.a.a.a.a.a.a.a.a.a.a.a.a.a.a.a.a.a.a.= i.7.7.7.7.i.$ a.a.a.a.",
"  4 6 6 7 7 7 0 r   a.a.a.a.a.a.a.a.a.a.a.a.a.a.a.a.a.a.a.a.a.a.a.a.a.a.a.a.a.a.a.a.a.a.a.a.a.a.a.a.a.a.= i.7.7.7.7.7.$ a.a.a.a.",
"  6 6 6 9 9 0 7 r . a.a.a.a.a.a.a.a.a.a.a.a.a.a.a.a.a.a.a.a.a.a.a.a.a.a.a.a.a.a.a.a.a.a.a.a.a.a.a.a.a.a.= i.7.7.7.7.7.$ a.a.a.a.",
". 7 7 0 w w 9 a w   a.a.a.a.a.a.a.a.a.a.a.a.a.a.a.a.a.a.a.a.a.a.a.a.a.a.a.a.a.a.a.a.a.a.a.a.a.a.a.a.a.a.= i.7.7.7.7.7.o a.a.a.a.",
"0 0 7 0 9 9 9 w a . a.a.a.a.a.a.a.a.a.a.a.a.a.a.a.a.a.a.a.a.a.a.a.a.a.a.a.a.a.a.a.a.a.a.a.a.a.a.a.a.a.a.= i.7.7.7.7.7.# a.a.a.a.",
". 0 7 0 0 e r a w . a.a.a.a.a.a.a.a.a.a.a.a.a.a.a.a.a.a.a.a.a.a.a.a.a.a.a.a.a.a.a.a.a.a.a.a.a.a.a.a.a.a.= i.7.7.7.7.7.$ a.a.a.a.",
". 0 0 0 e 0 a r w . a.a.a.a.a.a.a.a.a.a.a.a.a.a.a.a.a.a.a.a.a.a.a.a.a.a.a.a.a.a.a.a.a.a.a.a.a.a.a.a.a.a.$ i.7.7.7.7.7.$ a.a.a.a.",
"  0 0 0 7 r r a w   a.a.a.a.a.a.a.a.a.a.a.a.a.a.a.a.a.a.a.a.a.a.a.a.a.a.a.a.a.a.a.a.a.a.a.a.a.a.a.a.a.a.: i.7.7.7.7.7.o a.a.a.a.",
"  4 0 0 e r r r s . a.a.a.a.a.a.a.a.a.a.a.a.a.a.a.a.a.a.a.a.a.a.a.a.a.a.a.a.a.a.a.a.a.a.a.a.a.a.a.a.a.a.$ i.7.7.7.7.7.# a.a.a.a.",
". 0 w w y y y y a   a.a.a.a.a.a.a.a.a.a.a.a.a.a.a.a.a.a.a.a.a.a.a.a.a.a.a.a.a.a.a.a.a.a.a.a.a.a.a.a.a.a.$ i.7.7.7.7.7.# a.a.a.a.",
". 0 0 w y y y y y   a.a.a.a.a.a.a.a.a.a.a.a.a.a.a.a.a.a.a.a.a.a.a.a.a.a.a.a.a.a.a.a.a.a.a.a.a.a.a.a.a.a.$ i.7.7.7.7.7.o a.a.a.a.",
"  0 w w y y w a y   a.a.a.a.a.a.a.a.a.a.a.a.a.a.a.a.a.a.a.a.a.a.a.a.a.a.a.a.a.a.a.a.a.a.a.a.a.a.a.a.a.a.= i.7.7.7.7.7.$ a.a.a.a.",
"  0 w y y y a r y   a.a.a.a.a.a.a.a.a.a.a.a.a.a.a.a.a.a.a.a.a.a.a.a.a.a.a.a.a.a.a.a.a.a.a.a.a.a.a.a.a.a.: i.7.7.7.7.7.# a.a.a.a.",
"r 0 r r a w a r y . a.a.a.a.a.a.a.a.a.a.a.a.a.a.a.a.a.a.a.a.a.a.a.a.a.a.a.a.a.a.a.a.a.a.a.a.a.a.a.a.a.a.= $ 2 2 2 2 o # a.a.a.a.",
". 0 D D C } O.{ } . a.a.a.a.a.a.a.a.a.a.a.a.a.a.a.a.a.a.a.a.a.a.a.a.a.a.a.a.a.a.a.a.a.a.a.a.a.a.a.a.a.a.= i.e.e.u.u.e.$ a.a.a.a.",
". , > > - - - , 1 . a.a.a.a.a.a.a.a.a.a.a.a.a.a.a.a.a.a.a.a.a.a.a.a.a.a.a.a.a.a.a.a.a.a.a.a.a.a.a.a.a.a.= i.7.7.7.7.7.o a.a.a.a.",
". a a a a a a a a   a.a.a.a.a.a.a.a.a.a.a.a.a.a.a.a.a.a.a.a.a.a.a.a.a.a.a.a.a.a.a.a.a.a.a.a.a.a.a.a.a.a.= i.7.7.7.7.7.# a.a.a.a.",
"  w a y a y y s 5.  a.a.a.a.a.a.a.a.a.a.a.a.a.a.a.a.a.a.a.a.a.a.a.a.a.a.a.a.a.a.a.a.a.a.a.a.a.a.a.a.a.a.= i.7.7.7.7.7.$ a.a.a.a.",
". s a a x a x v 5.  a.a.a.a.a.a.a.a.a.a.a.a.a.a.a.a.a.a.a.a.a.a.a.a.a.a.a.a.a.a.a.a.a.a.a.a.a.a.a.a.a.a.= i.7.7.7.7.7.o a.a.a.a.",
". s s v a C s :.5.  a.a.a.a.a.a.a.a.a.a.a.a.a.a.a.a.a.a.a.a.a.a.a.a.a.a.a.a.a.a.a.a.a.a.a.a.a.a.a.a.a.a.= i.7.7.7.7.7.# a.a.a.a.",
"  s v a a s s :.4.  a.a.a.a.a.a.a.a.a.a.a.a.a.a.a.a.a.a.a.a.a.a.a.a.a.a.a.a.a.a.a.a.a.a.a.a.a.a.a.a.a.a.= i.7.7.7.7.7.# a.a.a.a.",
". a N N C C :.>.4.  a.a.a.a.a.a.a.a.a.a.a.a.a.a.a.a.a.a.a.a.a.a.a.a.a.a.a.a.a.a.a.a.a.a.a.a.a.a.a.a.a.a.= i.7.7.7.7.7.# a.a.a.a.",
"s N N N C a >.>.3.  a.a.a.a.a.a.a.a.a.a.a.a.a.a.a.a.a.a.a.a.a.a.a.a.a.a.a.a.a.a.a.a.a.a.a.a.a.a.a.a.a.a.= i.7.7.7.7.7.$ a.a.a.a.",
". s N N N >.>.>.3.  a.a.a.a.a.a.a.a.a.a.a.a.a.a.a.a.a.a.a.a.a.a.a.a.a.a.a.a.a.a.a.a.a.a.a.a.a.a.a.a.a.a.= i.7.7.7.7.7.o a.a.a.a.",
". C N C C >.>.>.3.  a.a.a.a.a.a.a.a.a.a.a.a.a.a.a.a.a.a.a.a.a.a.a.a.a.a.a.a.a.a.a.a.a.a.a.a.a.a.a.a.a.a.= i.7.7.7.7.7.$ a.a.a.a.",
"  C C C >.>.>.>.3.. a.a.a.a.a.a.a.a.a.a.a.a.a.a.a.a.a.a.a.a.a.a.a.a.a.a.a.a.a.a.a.a.a.a.a.a.a.a.a.a.a.a.= i.7.7.7.7.7.o a.a.a.a.",
"  C C C >.>.>.>.3.. a.a.a.a.a.a.a.a.a.a.a.a.a.a.a.a.a.a.a.a.a.a.a.a.a.a.a.a.a.a.a.a.a.a.a.a.a.a.a.a.a.a.= i.7.7.7.7.7.$ a.a.a.a.",
". C S >.>.>.>.>.3.  a.a.a.a.a.a.a.a.a.a.a.a.a.a.a.a.a.a.a.a.a.a.a.a.a.a.a.a.a.a.a.a.a.a.a.a.a.a.a.a.a.a.* i.7.7.7.7.7.o a.a.a.a.",
"  X.S >.>.>.>.>.3.  a.a.a.a.a.a.a.a.a.a.a.a.a.a.a.a.a.a.a.a.a.a.a.a.a.a.a.a.a.a.a.a.a.a.a.a.a.a.a.a.a.a.: o # 7.7.7.7.$ a.a.a.a.",
"  C >.>.>.>.>.>.3.  a.a.a.a.a.a.a.a.a.a.a.a.a.a.a.a.a.a.a.a.a.a.a.a.a.a.a.a.a.a.a.a.a.a.a.a.a.a.a.a.a.a.= C D # # 2 2 $ a.a.a.a.",
". D >.>.>.>.>.>.3.  a.a.a.a.a.a.a.a.a.a.a.a.a.a.a.a.a.a.a.a.a.a.a.a.a.a.a.a.a.a.a.a.a.a.a.a.a.a.a.a.a.a.: ,.D C C q.q.o a.a.a.a.",
";.>.>.>.>.>.>.>.9.  a.a.a.a.a.a.a.a.a.a.a.a.a.a.a.a.a.a.a.a.a.a.a.a.a.a.a.a.a.a.a.a.a.a.a.a.a.a.a.a.a.a.* ,.,.e.q.7.7.$ a.a.a.a.",
">.>.>.>.>.>.>.>.9.  a.a.a.a.a.a.a.a.a.a.a.a.a.a.a.a.a.a.a.a.a.a.a.a.a.a.a.a.a.a.a.a.a.a.a.a.a.a.a.a.a.a.* <.e.7.7.7.7.$ a.a.a.a.",
">.>.>.>.>.>.>.>.9.  a.a.a.a.a.a.a.a.a.a.a.a.a.a.a.a.a.a.a.a.a.a.a.a.a.a.a.a.a.a.a.a.a.a.a.a.a.a.a.a.a.a.= i.7.7.7.7.7.o a.a.a.a.",
">.>.>.>.>.>.>.>.e.  a.a.a.a.a.a.a.a.a.a.a.a.a.a.a.a.a.a.a.a.a.a.a.a.a.a.a.a.a.a.a.a.a.a.a.a.a.a.a.a.a.a.= i.7.7.7.7.7.# a.a.a.a.",
">.>.>.>.>.>.>.>.e.  a.a.a.a.a.a.a.a.a.a.a.a.a.a.a.a.a.a.a.a.a.a.a.a.a.a.a.a.a.a.a.a.a.a.a.a.a.a.a.a.a.a.= i.7.7.7.7.7.# a.a.a.a.",
"8.8.8.9.9.t.q.q.e.  a.a.a.a.a.a.a.a.a.a.a.a.a.a.a.a.a.a.a.a.a.a.a.a.a.a.a.a.a.a.a.a.a.a.a.a.a.a.a.a.a.a.= i.7.7.7.7.7.# a.a.a.a.",
"L c c L L x c c #.  a.a.a.a.a.a.a.a.a.a.a.a.a.a.a.a.a.a.a.a.a.a.a.a.a.a.a.a.a.a.a.a.a.a.a.a.a.a.a.a.a.a.= i.7.7.7.7.7.$ a.a.a.a.",
"c L c z c c L x #.  a.a.a.a.a.a.a.a.a.a.a.a.a.a.a.a.a.a.a.a.a.a.a.a.a.a.a.a.a.a.a.a.a.a.a.a.a.a.a.a.a.a.= i.7.7.7.7.7.o a.a.a.a.",
"G c L c c L c L $.  a.a.a.a.a.a.a.a.a.a.a.a.a.a.a.a.a.a.a.a.a.a.a.a.a.a.a.a.a.a.a.a.a.a.a.a.a.a.a.a.a.a.= i.7.7.7.7.7.$ a.a.a.a.",
"                  a.a.a.a.a.a.a.a.a.a.a.a.a.a.a.a.a.a.a.a.a.a.a.a.a.a.a.a.a.a.a.a.a.a.a.a.a.a.a.a.a.a.a.= i.7.7.7.7.7.$ a.a.a.a."
};
