/* XPM */
static char *Wall_03[] = {
/* columns rows colors chars-per-pixel */
"64 64 27 1 ",
"  c #692D18",
". c #793E26",
"X c #7F452B",
"o c #82492E",
"O c #854D31",
"+ c #854D33",
"@ c #874D33",
"# c #8A5539",
"$ c #8E593C",
"% c #8E5B3E",
"& c #947358",
"* c #947559",
"= c #94755B",
"- c #94775B",
"; c #959E22",
": c #98A323",
"> c #ACB028",
", c #B4B82F",
"< c #BCC036",
"1 c #9E856D",
"2 c #9E876F",
"3 c #DFCB82",
"4 c #D6D5CA",
"5 c #E3E1DD",
"6 c #E3E2DE",
"7 c #EAEFF1",
"8 c #F3F2F0",
/* pixels */
">>>>>>>>>>>>>>>>>>>>>>>>>>>>>>>>>>>>>>>>>>>>>>>>>>>>>>>>>>>>>>>>",
">>>>>>>>>>>>>>>>>>>>>>>>>>>>>>>>>>>>>>>>>>>>>>>>>>>>>>>>>>>>>>>>",
">>>>>>>>>>>>>>>>>>>>>>>>>>>>>>>>>>>>>>>>>>>>>>>>>>>>>>>>>>>>>>>>",
">>>>>>>>>>>>>>>>>>>>>>>>>>>>>>>>>>>>>>>>>>>>>>>>>>>>>>>>>>>>>>>>",
">>>>>>>>>>>>>>>>>>>>>>>>>>>>>>>>>>>>>>>>>>>>>>>>>>>>>>>>>>>>>>>>",
">>>>>>>>>>>>>>>>>>>>>>>>>>>>>>>>>>>>>>>>>>>>>>>>>>>>>>>>>>>>>>>>",
">>>>>>>>>>>>>>>>>>>>>>>>>>>>>>>>>>>>>>>>>>>>>>>>>>>>>>>>>>>>>>>>",
">>>>>>>>>>>>>>>>>>>>>>>>>>>>>>>>>>>>>>>><>>>>>>>>>>>>>>>>>>>>>>>",
">>>>>>>>>>>>>>>>>>>>>>>>>>>>>>>>>>>>>>>>,,>>>>>>>>>>>>>>>>>>>>>>",
">>>>>>>>>>>>>>>>>>>>>>>>>>>>>>>>>>>><<,>:,>>>>>>>>>>>>>>>>>>>>>>",
">>>>>>>>>>>>>>>>>>>>>>>>>>>>>>>>>>>>><,,::><<,>>>>>>>>>>>>>>>>>>",
">>>>>>>>>>>>>>>>>>>>>>>>>>>>>>>>>>,<>:,,>:,,<>>>>>>>>>>>>>>>>>>>",
">>>>>>>>>>>>>>>>>>>>>>>>>>>>>>>>>>><,,:,>,,,>>>>>>>>>>>>>>>>>>>>",
">>>>>>>>>>>>>>>>>>>>>>>>>>>>>>>>>>>:,,>::,,:>>>>>>>>>>>>>>>>>>>>",
">>>>>>>>>>>>>>>88>>>>>>>>>>>>>>>>>>>:,>>:::>>>>>>>>>>>>>>>>>>>>>",
">>>>>>>>>>>>>>8338>>>>>>>>>>>>>>>>>>>:>,,>>>>>>>>>>>>>>>>>>>>>>>",
">>>>>>>>>>>>>>;88;>>>>>>>>>>>>>>>>>>>>><:>>>>>>>>>>>>>>>>>>>>>>>",
">>>>>>>>>>>>>>>;;>>>>>>>>>>>>>>>>>>>>>>:>>>>>>>>>>>>>>>>>>>>>>>>",
">>>>>>>>>>>>>>>>>>>>>>>>>>>>>>>>>>>>>>>>>>>>>>>>>>>>>>>>,<<>>>>>",
">>>>>>>>>>>>>>>>>>>>>>>>>>>>>>>>>>>>>>>>>>>>>>>>>>>>>>>,,<>>>>>>",
">>>>>>>>>>>>>>>>>>>>>>>>>>>>>>>>>>>>>>>>>>>>>>>>>>>>>>>,,:>>>>>>",
">>>>>>>>>>>>>>>>>>>>>>>>>>>>>>>>>>>>>>>>>>>>>>>>>>,<>>77:>>>>>>>",
">>>>>>>>>>>>>>>>>>>>>>>>>>>>>>>>>>>>>>>>>>>>>>>>>>:<,7337<>>>>>>",
">>>>>>>>>>>>>>>>>>>>>>>>>>>>>>>>>>>>>>>>>>>>>>>>>>>,,;77;:>>>>>>",
">>>>>>>>>>>>>>>>>>>>>>>>>>>>>>>>>>>>>>>>>>>>>>>>>>>:,:;;:>>>>>>>",
">>>>>>>>>>>>>>>>>>>>>>>>>>>>>>>>>>>>>>>>>>>>>>>>>>>>::,,:>>>>>>>",
">>>>>>>>>>>>>>>>>>>>>>>>>>>>>>>>>>>>>>>>>>>>>>>>>>>>>>,:>>>>>>>>",
">>>>>>>>>>>>>>>>>>>>>>>>>>>>>>>>>>>>>>>>>>>>>>>>>>>>>>>>>>>>>>>>",
">>>>>>>>>>>>>>>>>>>>>>>>>>>>>>>>>>>>>>>>>>>>>>>>>>>>>>>>>>>>>>>>",
">>>>>>>>>>>>>>>>>>>>>>>>>>>>>>>>>>>>>>>>>>>>>>>>>>>>>>>>>>>>>>>>",
">>>>>>>>>>>>>>>>>>>>>>>>>>>>>>>>>>>>>>>>>>>>>>>>>>>>>>>>>>>>>>>>",
">>>>>>>>>>>>>>>>>>>>>>>>>>>>>>>>>>>>>>>>>>>>>>>>>>>>>>>>>>>>>>>>",
">>>>>>>>>>>>>>>>>>>>>>>>>>>>>>>>>>>>>>>>>>>>>>>>>>>>>>>>>>>>>>>>",
">>>>>>>>>>>>>>>>>>>>>>>>>>>>>>>>>>>>>>>>>>>>>>>>>>>>>>>>>>>>>>>>",
">>>>>>>>>>>>>>>>>>>>>>>>>>>>>>>>>>>>>>>>>>>>>>>>>>>>>>>>>>>>>>>>",
">>>>>>>>>>>>>>>>>>>>>>>>>>>>>>>>>>>>>>>>>>>>>>>>>>>>>>>>>>>>>>>>",
">>>>>>>>>>>>>>>>>>>>>>>>>>>>>>>>>>>>>>>>>>>>>>>>>>>>>>>>>>>>>>>>",
">>>>>>>>>>>>>>>>>>>>>>>>>>>>>>>>>>>>>>>>>>>>>>>>>>>>>>>>>>>>>>>>",
">>>>>>>>>>>>>>>>>>>>>>>>>>>>>>>>>>>>>>>>>>>>>>>>>>>>>>>>>>>>>>>>",
">>>>>>>>>>>>>>>>>>>>>>>>>>>>>>>>>>>>>>>>>>>>>>>>>>>>>>>>>>>>>>>>",
">>>>>>>>>>>>>>>>>>>>>>>>>>>>>>>>>>>>>>>>>>>>>>>>>>>>>>>>><>>>>>>",
">>>>>>>>>>>>>>>>>>>>>>>>>>>>>>>>>>>>>>>>>>>>>>>>>>>><<,>>,,>>>>>",
">>>>>>>>>>>>>>>>>>>>>>>>>>>>>>>>>>>>>>>>>>>>>>>>>>>>><,,>:,>><>>",
">>>>>>>>>>>>>>>>>>>>>>>>>>>>>>>>>>>>>>>>>>>>>>>>>>>>>:,,77>,,:>>",
">>>>>>>>>>><>>>>>>>>>>>>>>>>>>>>>>>>>>>>>>>>>>>>>>>><,:,37>,,:>>",
">>>>>><<,>>,,>>>>>>>>>>>>>>>>>>>>>>>>>>>>>>>>>>>>>>>:88:;;>::>>>",
">>>>>>><,,>:,>>77>>>>>>>>>>>>>>>>>>>>>>>>>>>>>>>>>>>8338:88>>>>>",
">>>>>>>:,,,:>,,737>>>>>>>>>>>>>>>>>>>>>>>>>>>>>>>>>>;88;838>>>>>",
">>>>>><,:,,>88,;77>>>>>>>>>>>>>>>>>>>>>>>>>>>>>>>>>>>;;>88;>>>>>",
">>>>>>:,,:,8338>;;>>>>>>>>>>>>>>>>>>>>>>>>>>>>>>>>>>>>>>;;>>>>>>",
">>>>>>>:,::;88;>88>>>>>>>>>>>>>>>>>>>>>>>>>>>>>>>>>>>>>>>>>>>>>>",
">>>>>>>>>>>>;;>8338>>>>>>>>>>>>>>>>>>>>>>>>>>>>>>>>>>>>>>>>>>>>>",
">>>>>>>>77>>>88;88;>>>>>>>>>>>>>>>>>>>>>>>>>>>>>>>>>>>>>>>>>>>>>",
">>>>>>>>37>>838>;:>>>>>>>>>>>>>>>>>>>>>>>>>>>>>>>>>>>>>>>>>>>>>>",
">>>>>>>>;;>>88;>>>>>>>>>>>>>>>>>>>>>>>>>>>>>>>>>>>>>>>>>>>>>>>>>",
">>>>>>>>>>>>;;>>>>>>>>>>>>>>>>>>>>>>>>>>>>>>>>>>>>>>>>>>>>>>>>>>",
">>>>>>>>>>>>>>>>>>>>>>>>>>>>>>>>>>>>>>>>>>>>>>>>>>>>>>Xo++##$$%%",
">>>>>>>>>>>>>>>>>>>>>>>>>>>>>>>>>>>>><<>>>>>>>>>>>>>>.4444444444",
">>>>>>>>>>>>>>>>>>>>>>>>>>>>>>>>>>>>>><,,>>>,<>>>>>>o64444444444",
">>>>>>>>>>>>>>>>>>>>>>>>>>>>>>>>>>>>>>:,,>>,<>>>>>>>+64444444444",
">>>>>>>>>>>>>>>>>>>>>>>>>>>>>>>>>>>>>>>::>,,,>>>>>>>@64444466666",
">>>>>>>>>>>>>>>>>>>>>>>>>>>>>>>>>>>>>>>>>>,,:>>>>>>>@544444 --22",
">>>>>>>>>>>>>>>>>>>>>>>>>>>>>>>>>>>>>>>>>>::>>>>>>>>@544444 &&22",
">>>>>>>>>>>>>>>>>>>>>>>>>>>>>>>>>>>>>>>>>>>>>>>>>>>>+644444     "
};
