/* XPM */
static char *Wall_08[] = {
/* columns rows colors chars-per-pixel */
"64 64 91 1 ",
"  c #5D2615",
". c #602715",
"X c #652A16",
"o c #692D18",
"O c #6D331D",
"+ c #71351F",
"@ c #6A3822",
"# c #713721",
"$ c #743A23",
"% c #7A3B22",
"& c #763F29",
"* c #6B402B",
"= c #7B4027",
"- c #77432C",
"; c #7A462E",
": c #7D4B34",
"> c #7F4E39",
", c #7F5039",
"< c #82492E",
"1 c #834B30",
"2 c #83543D",
"3 c #88563D",
"4 c #88583F",
"5 c #865D45",
"6 c #8C5C41",
"7 c #875E48",
"8 c #885F4A",
"9 c #88634D",
"0 c #936344",
"q c #8A6751",
"w c #8D6B55",
"e c #8E6E59",
"r c #8E705A",
"t c #9B7253",
"y c #90715C",
"u c #A37F5D",
"i c #8D7C65",
"p c #907D67",
"a c #937F6A",
"s c #999222",
"d c #98A323",
"f c #ACB028",
"g c #B4B82F",
"h c #BCC036",
"j c #94816D",
"k c #9A886E",
"l c #968471",
"z c #9B8572",
"x c #948870",
"c c #9D8C73",
"v c #9C8C7E",
"b c #A18363",
"n c #A19076",
"m c #A3947D",
"M c #A5987F",
"N c #A69782",
"B c #A69982",
"V c #A99C85",
"C c #A69789",
"Z c #A79C8E",
"A c #AA9E8E",
"S c #AAA18E",
"D c #AAA293",
"F c #AEA699",
"G c #AFA899",
"H c #B2A694",
"J c #B3AA96",
"K c #B0A699",
"L c #B2AC9B",
"P c #B4AEA1",
"I c #B8ACA0",
"U c #B6B1A1",
"Y c #B9B4A6",
"T c #BBB4A8",
"R c #BEBBAB",
"E c #C1BEAE",
"W c #C3BEB5",
"Q c #C3C0B3",
"! c #C7C4B8",
"~ c #CAC5BC",
"^ c #CECCC3",
"/ c #D3CDC5",
"( c #D2D0C6",
") c #D6D5CB",
"_ c #D8D6CF",
"` c #D9D7D0",
"' c #DDDBD4",
"] c #E0DEDA",
"[ c #E3E2DE",
"{ c #E6E5E1",
"} c #E8E7E3",
/* pixels */
"ffff%{)))))=++1<<<<<<1f111111111111111111<f1111111ooo)))))~;ssss",
"ffff%[)))))))))))))))_t))))))))))))))))))'0'))))))'~))))))~-ssss",
"ffff%{))))))))))))))))b))))))))))))))))~)'t`))))))))))))))~=ssss",
"ffff%){{))))))))))))))b))))))))))))))))')'b`)))))))))))))[J=ssss",
"ffffo~~~}}{{[[[[][[[{{u{}}[]'[]][[[[[[[}{{b{{{[[{[[[[[[}{~A ssss",
"ffffX!~~[UUUUYYYTTTTTY6YUUEYUIYULULLUUUUPU4PULLLUJLLGLGGK{A ssss",
"ffffXW~'PPPLUUUUYPPYYY6UYYUYUUILLUULLJJULL5ULLLGJLLLLLLGF{VXssss",
"ffffoW/LLLPPLULUUPPYPP6YUYUUUUUULLLLUJUJLG3LLLGLLJLLGGGHHD(Xssss",
"ffffXW(LLGLLPPPPPPPLYP6PUPUUPPPPKKLLLLGLGL5GGLGLLKLLKKDHDKI ssss",
"ffffX)GGFFGKLKLLLPLPPP3PUUUPPPPGLLGLGLLGLG5GLGGGGKDKDDFHDDI ssss",
"ffffX(GGDDKHGFLFGGGGLL2LPPPLLPPPGGGLLGGGGG4GGGGGGHKDDGDDHDJ ssss",
"ffffX(DDDDDKFFFFFGGFLK&KGPLLGGGGGDFDDGDGGG4GGGGGHGDFDDDDDDJ ssss",
"ffffX^DSDDDDDFDFDFFDGD@DGGGGFFFFFFDGDGGDGD@KLFFDDDDDDDDDDAH ssss",
"ffffX^ZZSSDDDDDDFDDFDF$FFDDFFFDFDFFDGDDGDF$FFDDFDDDDADDAAAD ssss",
"ffffXQZVZSDDADDFDDDDDD@DDDDDFDFDFFDFDGDDGD$DDFDDDDDDSASSAAD.ssss",
"ffff QCZZZZZADSDDDDDDDoDDDDDDDZDDDDDDDDGDF$FFDDSDDSDAAZZZCC ssss",
"ffffX!CZSSSSSSSSSSZDDD DDZDZDDDZDDDDDSSSDD$DDDDDDDDZAZZSCSZ ssss",
"fffffoCCSMSBZSSSDDDDZDXDDDDDDZDDDSDSDDSMDD$DADDZSZZZZCVCCC sssss",
"ffffff               XjXooooXoooXXXXoo XXoaXooXooooooooXXossssss",
"ffffffO!JUJLGLL@xxxxjjpj@aiaaiiajjijjjjjajpaaljajokkkcccxossssss",
"ffffffo!JLJJJJJoljlljjaa@aiipppiiaaijyjjpjjialaljockcccckossssss",
"ffffffo!LLUJLUJolllljjja*jaippppiapjjjjjjipjaajjjocccccckossssss",
"ffffffo!LJLJJLJoxlljjjja*aiaaippaiaajyjjpjjpalajjoccccczcossssss",
"ffffffo!LLLLJUUolllljjjj@apiaippaaapjjjyjjpjajjjjOcncccccossssss",
"ffffffo!KLLLJUJovllljjjj*iiippppppaaaaaaaappalaajokccckcmossssss",
"ffffffO!LLLLUJLoYZZZZZZZ7ZDDDZDDADDZZDDDZDDDDDDDDokcckckmossssss",
"ffffffO!JULUJUJOYZZZZZZZ9ZDDDDZDDDDZDDZDDDDAZDDDDokccncmmossssss",
"ffffff+!LJJUULUJX@@7277777iipppiaaa52-$&-&;;-;-XXccncccmmossssss",
"ffffff+!ULULLUUoTYYYPPPPPPPPPPPPPPPPPP&yyeyyyeionncccnmmmossssff",
"ffffff+!JULLULJoYDDDDZDDDDDDDZDZZDZDZD:yvvvvvvvoccccccmmmossssff",
"ffffffO!UUUUUUUOYDZZDZDZZZDDDDDDDZDZDZ>Nvvvvvvvonncncmmmmossssff",
"ffffff+!UUUUUUUOYDDDDDDDDDDZDZZDDDDDZZ2Nvvvvvvvocncckmmmmossssff",
"ffffff+!UUUUUUUoTZZFZDZDZDZDZFZFDZZDDZ9Cvvvvvvvovzvzmmmmmossffff",
"ffffff+!UUUUUUUoTFZZDZFDDDDDDZDZDDDDZDiCvvvvvvvovvvzmmnmmossffff",
"ffffff+M!UUUUUUoPFFZDZDZDZDZZDFZDDDDDDivvvvvvvv.NaaCmmmmmossffff",
"ffffff+M!UUYUUYoTZZDZFDFDDDZDDZZDZDZZZivvvvvvvv zNuNmmmmmossffff",
"ffffff+mM!UYYUU#@@*eyyy8>>>>e9e8aajjaalavaaav...nnmmmmmmmoffffff",
"fffffff+ck!!!~oWWWWWWWWWW*PFPPFFPPPPPPPPIIIIIIIToNHHHHHKHoffffff",
"fffffff63111<%+WPPPPPPPPP*ZZZZZZZZZZZZZZZZZZCCZT+++%11111+ffffff",
"ffffff=(RYRRIEoWPPPPPTPPP>ZZZZZDZZZZZZZZZZZZZZZTomNmmNNmmoffffff",
"ffffff=)TEUEUYoWTPPPPPPWP>ZZZZZZZZZZZZZZZZZZZZZToMMMMMBM)offffff",
"ffffff=)IEEUUEoWPPPPPPPPI7ZZZZZZZZZZZZZZZZZZZZZToBBMNNNB(ogfffff",
"ffffff=(ITTEEEXWPPTPPPPPPeZZZZZZZZZZZZZZZZZZZZZToNMVNVVQ)Ogffgff",
"ffffff=(ETEIEUoEPPPPPPPPIeZZZZZZZZZZZZZZZZZZZZZToNVVVVBQ/Xfggdff",
"ffffff=(WETEWTWXPPPPPPPP9eZZZDZZZZZZZZZZZZZZZZF.VVVVVVQQ(ofggdff",
"ffffff=(WIEWWWWW @>&qqqeeeaaaaaaeeel8>&>>vall XZVVSVVVQQ(Ofddfff",
"ffffff=(EEWWTWWovvvvlvvvvIPPIIPPPPPPPP&IPPPPIITXSVVVVQQW(offffff",
"ffffff=)EWEWWWW.ICZCCZCCZZZZZZZZZZZZZZ>ZZZCZCZT SVSSAQQQ(offffff",
"ffffff=)QQQRQQQXTZZZZZZZZZDZZZZZZDZZZZaZDZZZZZToSVSVQQQQ~Offffff",
"ffffff=)QQQQWQQXTZZZZZZZZZZZZZZZZZZZZDaZZZZZZZToSSSHQQEQ(offffff",
"ffffff=)Q!Q!QQQOTZZZZZZZZZZZZZZZZZZZZZaZZZZZZZYXSHHQQEEQ(offffff",
"ffffff=)QQQQQQQXTZZZZZZZZZZZZZZZZZZZZZaZZZZZZZToHSSQQQQQ(offffff",
"ffffff=_QQQQ!!QoTZZZZZZZZZZZZZZZZZZZZZ5ZZZZZZZYoSQQQQQQQ(offffff",
"ffffff=)!!!!!Q!oZZZZZZASZZZZZZZCZZZZZC;ZZZZZAAToHQQEQEQE(offffff",
"ffffff='!!!!!QQ!%%%%%%Z+&&$%%%%%%%&%%%%%%%Z&+%%EEEQQQEQQ'offffff",
"ffffff='!!!!!!Q!Q!QQQQoQWWWWWWWWWWWWWWWWWW%WQQQQQQQQQQQQ'offffff",
"ffffff=`!!!!!!!Q!QQQQQbEQQQQEQQEWWEWEQEQQEkEQQQQQQQQQQQQ'offffff",
"ffffff=]!!!!!!Q!!QQQQQbQQQQQQQQQWWWWQQQQQQbEEQQWQQQQQQQ'Hoffffff",
"ffffff=]!!!!!Q!QQ!QQQQjQEQWWQQEQWWWWQWQWQQkQQQWQQQQQQQ_SSoffffff",
"ffffff-]['']```)))))_)k))))))))))))))))))(b))))))))''`HDioffffff",
"ffffffoUZZSCSCSSZVSZVCkZZZZZCSSZSCZZAZZZZZkCZSZSZZZVZS!!ioffffff",
"ffffffoYZZZSSSZZZZZZZSbSZZZZZZZZSVSZZZZZSCbVZZZCZZCSZZZZ~offffff",
"ffffffoYZZSZSSZZSZSSZZoZZZZZSZSSZZZZZSZVSSXSZZZSZSSZZZAAYoffffff",
"fffffffoXXooXoXXooXoXXoooooXooXoXXooooooooooXXoooooXooooofffffff"
};
