/* XPM */
static char *Wall_10[] = {
/* columns rows colors chars-per-pixel */
"64 64 60 1 ",
"  c #692D18",
". c #783A21",
"X c #783D24",
"o c #7A3E24",
"O c #7A3F24",
"+ c #7A3E25",
"@ c #7A3F25",
"# c #793E26",
"$ c #7D4027",
"% c #7D4329",
"& c #7F4229",
"* c #7E442A",
"= c #7F442B",
"- c #7F452B",
"; c #82492E",
": c #854D31",
"> c #854D33",
", c #874D33",
"< c #8A5539",
"1 c #8E593C",
"2 c #8E5B3E",
"3 c #9C6847",
"4 c #947358",
"5 c #947559",
"6 c #94755B",
"7 c #94775B",
"8 c #86831D",
"9 c #999222",
"0 c #9C9723",
"q c #A29C28",
"w c #98A323",
"e c #9DA722",
"r c #ABA52D",
"t c #ACB028",
"y c #B4B82F",
"u c #BBBE33",
"i c #BCC036",
"p c #C1C52D",
"a c #9E856D",
"s c #9E876F",
"d c #AC8B6A",
"f c #AE9073",
"g c #B39D7E",
"h c #AFA28C",
"j c #BDB7A6",
"k c #BEB8A8",
"l c #BEB9A8",
"z c #BFBAAA",
"x c #C6C3B6",
"c c #D6D5CA",
"v c #DFDDD7",
"b c #DFDDD8",
"n c #DFDED8",
"m c #E0DED8",
"M c #E0DED9",
"N c #E0DFD9",
"B c #E1DFD9",
"V c #E1DFDA",
"C c #E3E1DD",
"Z c #E3E2DE",
/* pixels */
"pppp+cccccZ=tttttttttttttttttttttttttttttttttttttttttttttttttttt",
"pppp+cccccZ=tttttttttttttttttttttttttttttttttttttttttttttttttttt",
"pppp+cccccZ=tttttttttttttttttttttttttttttttttttttttttttttttttttt",
"pppp+cccccZ=tttttttttttttttttttttttttttttttttttttttttttttttttttt",
"pppp+cccccZ=tttttttttttttttttttttttttttttttttttttttttttttttttttt",
"pppp+cccccZ=tttttttttttttttttttttttttttttttttttttttttttttttttttt",
"pppp+cccccZ=ttttttttttttttttttttttttttttttttttttttttyittttiitttt",
"pppp+cccccZ=tttttttttttttttttttttttttttttttttttttttttuittyittttt",
"pppp+ccccVx=tttttttttttttttttttttttttttttttttttttttttyytyywttttt",
"pppp+ccnnxx=tttttttttttttttttttttttttttttttttttttttttwwtyywttttt",
"pppp+nvhhhx=ttttttttttttttttttttttttttttttttttttttttttttwwtttttt",
"pppp+33++hh=tttttttttttttttttttttttttttttttttttttttttttttttttttt",
"pppp+cccc++=tttttttttttttttttttttttttttttttttttttttttttttttttttt",
"pppp+cccccZ=tttttttttttttttttttttttttttttttttttttttttttttttttttt",
"pppp+cccccZ=tttttttttttttttttttttttttttttttttttttttttttttttttttt",
"pppp+cccccZ=tttttttttttttttttttttttttttttttttttttttttttttttttttt",
"pppp+cccccZ=tttttttttttttttttttttttttttttttttttttttttttttttttttt",
"pppp+cccccZ=tttttttttttttttttttttttttttttttttttttttttttttttttttt",
"pppp+cccccZ=tttttttttttttttttttttttttttttttttttttttttttttttttttt",
"pppp+cccccZ=tttttttttttttttttttttttttttttttttttttttttttttttttttt",
"pppp+cccccZ=tttttttttttttttttttttttttttttttttttttttttttttttttttt",
"pppp+cccccZ=tttttttttttttttttttttttttttttttttttttttttttttttttttt",
"pppp+cccccZ=tttttttttttttttttttttttttttttttttttttttttttttttttttt",
"pppp+cccccZ=tttttttttttttttttttttttttttttttttttttttttttttttttttt",
"pppp+cccccZ=tttttttttttttttttttttttttttttttttttttttttttttttttttt",
"pppp+cccccZ=99999999999990tttttttttttttttttttttttttttttttttttttt",
"ppppOnNnVVZ=99999999999990tttttttttttttttttttttttttttttttttttttt",
"ppppOO3333@=99999999999990tttttttttttttttttttttttttttttttttttttt",
"pppp$cccccZ=99999999999990tttttttttttttttttttttttttttttttttttttt",
"pppp%cccccZ=99999999999990tttttttttttttttttttttttttttttttttttttt",
"pppp.cccccZ=99999999999990tttttttttttttttttttttttttttttttttttttt",
"ppppXcccccZ+99999999999990tttttttttttttttttttttttttttttttttttttt",
"pppp+cccccV;99999999999990tttttttttttttttttttttttttttttttttttttt",
"pppp+cccccZ#99999999999990tttttttttttttttttttttttttttttttttttttt",
"pppp+cccccZ;99999999999990tttttttttttttttttttttttttttttttttttttt",
"pppp+cccccV=99999999999990tttttttttttttttttttttttttttttttttttttt",
"pppp+cccccZ;99999999999990tttttttttttttttttttttttttttttttttttttt",
"pppp#cccccZ#99999999999990tytttttttttttttttttttttttttttttttttttt",
"pppp#cccccZ;99999999999990uutttttttttttttttttttttttttttttttttttt",
"pppp#cccccZ&99999999999990uetttttttttttttttttttttttttttttttttttt",
"pppp+BccccZ=99999999999990yttttttttttttttttttttttttttttttttttttt",
"pppp+hVBccZ;99999999999990ettttttttttttttttttttttttttttttttttttt",
"pppp$zfdZZZ=99999999999990tttttttttttttttttttttttttttttttttttttt",
"ppppokzz33@=99999999999990ttttttttttttttttttttttttttttuttttttttt",
"ppppohz+ccZ=99999999999990tttttttttttttttttttttttttttyyttyuutttt",
"pppp+h+cccZ=q9999999999990ttttttttttttttttttttttttuttyetyyuttttt",
"pppp+h+cccZ=q99r9999999990tttttttttttttttttttttttteyyteyyyettttt",
"pppp++ccccZ=9qq89999999990tttttttttttttttttttttttteyyttyyeyutttt",
"pppp+cccccC;9ee89999999990ttttttttttttttttttttttttteettyeyyetttt",
"pppp+cccccV&92809999999990ttttttttttttttttttttttttttttteeyettttt",
"pppp+cccccV;99999999999990tttttttttttttttttttuuytttttttttttttttt",
"pppp+cccccV;99999999999990ttttttttttttttttttttuyyttttttttttttttt",
"pppp+cccccm;99999999999990tttttttttttttttttttteyyttttttttttttttt",
"pppp+cccccC$99999999999990ttttttttttttttttttttteettttttttttttttt",
"pppp+cccccC;99999999999990tttttttttttttttttttttttttttttttttttttt",
"pppp+cccccC;99999999999990tttttttttttttttttttttttttttttttttttttt",
"pppp.cccccZ;99999999999990tttttttttttttttttttttttttttt;;>><<1122",
"pppp+cccccBo99999999999990ttttttttttttttttttttttttttt.cccccccccc",
"pppp+mmmmmC;99999999999990tttttttttttttttttttttttttt;Zcccccccccc",
"pppp++3333o;99999999999990tttttttttttttttttttttttttt:Zcccccccccc",
"pppp.cccccB@99999999999990tttttttttttttttttttttttttt>ZcccccZZZZZ",
"pppp;cccccV;99999999999990tttttttttttttttttttttttttt,Zccccc 77ss",
"pppp.cccccZ;99999999999990tttttttttttttttttttttttttt,Zccccc 44ss",
"pppp@cccccZ.99999999999990tttttttttttttttttttttttttt,Zccccc     "
};
