/* XPM */
static char *Wall_08[] = {
/* columns rows colors chars-per-pixel */
"64 64 53 1 ",
"  c #4C2611",
". c #4F2913",
"X c #502B16",
"o c #522E1A",
"O c #4F311E",
"+ c #55321D",
"@ c #4F3626",
"# c #553522",
"$ c #553826",
"% c #5A3B27",
"& c #573C2C",
"* c #5A3C2A",
"= c #583F31",
"- c #5B402E",
"; c #5A4333",
": c #5A4639",
"> c #5B4A3D",
", c #604734",
"< c #644E3C",
"1 c #5D4D42",
"2 c #5C5247",
"3 c #5E5349",
"4 c #665444",
"5 c #695645",
"6 c #62564B",
"7 c #63594C",
"8 c #645C52",
"9 c #685F54",
"0 c #665F58",
"q c #666057",
"w c #696155",
"e c #676159",
"r c #6A655C",
"t c #6D695E",
"y c #6E6961",
"u c #716D63",
"i c #747266",
"p c #767469",
"a c #79766C",
"s c #7B786F",
"d c #7E7B73",
"f c #837F77",
"g c #828076",
"h c #868579",
"j c #89877E",
"k c #8B8A7F",
"l c #8D8B82",
"z c #908E86",
"x c #918F88",
"c c #94928B",
"v c #99978F",
"b c #9B9991",
"n c None",
/* pixels */
"nnnn+cjhhhh+o+%%%%%%%%n-%%%%%%%%%%-+--%%%%n%%%-%%%...hhhhhc%nnnn",
"nnnn+cjhhhhhhhhhhhhhhh<hhhhhhhhhhhhhhhhhhk,khhhhhhhhhhhhhhc-nnnn",
"nnnn+bjfhhhhhhhhhhhhhh<hhhhhhhhhhhhhhhhhhk>khhhhhhhhhhhhhhv%nnnn",
"nnnn+fbbhhhhhhhhhhhhhh5hhhhhhhhhhhhhhhhhhk5khhhhhhhhhhhhhvi-nnnn",
"nnnn.dssbbvxccccccxcvv4vvvczzzxxcccckccvvv4vvcccccccccvvbai.nnnn",
"nnnn aaacytuuuutuuuuuu-uuutuuututttrittttt;tyrtyttrrrttrrviXnnnn",
"nnnn paltttyttttyuuytu;uutuutttttrrtrttttt;rtrrrttttrrrrrviXnnnn",
"nnnnXpftttytttttttttuy;yuuttttttttttttttrt;yryyrwtrrtrtrrrvXnnnn",
"nnnn pfttrttryyttyrtyy;tyyyyttyrrtrtrtrrrr;trrtrtrrrrrrrrrs.nnnn",
"nnnn.hrrrrrrrty0rttyty;tyryytttytrterrrtyr;rtrrrrrrrwrerr0f.nnnn",
"nnnn grr0rrrryryrrrrry;rtyyrtyttrtrrrrrrrr;rrrrrrrrrrrerwes.nnnn",
"nnnn.frereerr0r0rrrrrr#rrryyrrrrrrerrrrrrr;rrrrrrrerreereesXnnnn",
"nnnn.deeeree00t0errrreOrrrrrrrrrerrrrrrrrr+rrrrrwreeeeeeeea nnnn",
"nnnn d0weeer0trrrrerrrOrrrrrrrreerrererrrrOrrrrer00reeeeeepXnnnn",
"nnnn pw0weeer00rreereeOqereererrrerrrereer+rereererweeew90pXnnnn",
"nnnn p00099000r0eeeeeeOeeeeeeeqeererererre+erereeee0w0w009uXnnnn",
"nnnn.p00wwwwqqqqeeeeee.eeeeeeeeeeeeeeeeeeeO0ere0eee0qqq08qi.nnnn",
"nnnnn.80ww8wqqqqeeeeeeXeeeeeeeeeeee0eeere0+00ee09ew0ww00q8.nnnnn",
"nnnnnn  ....         .2X  X X X.X. X..  X.3XXXO ..........nnnnnn",
"nnnnnn.awtwtttt 73333322@222222232333333333333333.6777373.nnnnnn",
"nnnnnn.attttwtt.83383333@222322223132232323233333.7777777.nnnnnn",
"nnnnnnXatwwtttt.33333333@222222232332233332333333.7777767.nnnnnn",
"nnnnnnXattwtttt.33333333@222222213333332323263333.7777767.nnnnnn",
"nnnnnnXattttttw.83833333@322222232323233232333333.8777777.nnnnnn",
"nnnnnnXattttttt.33382222@222222233333333333333663.6777777.nnnnnn",
"nnnnnnXsttttuut.ueqqqqqq1q0qeeee00ee00ee0r000re0w.7777778.nnnnnn",
"nnnnnnoatttrttt.y8qq88qq>000eeeeeee0qqee00000000e.7777778Xnnnnnn",
"nnnnnnoatttttttt O@::::::>222223333;;###@@@@&@& .77777797Xnnnnnn",
"nnnnnnoattttttt.yuuuyyyyrryryryryyyyyy@12111111.777777w77Xnnnnnn",
"nnnnnnoattutttt.ueeeeqeeeeeeeeee000e0q&18330878.7777777w8Xnnnnnn",
"nnnnnnostttttit+ueeeeeeeeeeeeeer0eee00&73838687.877777977Xnnnnnn",
"nnnnnnoattuttttXueeeeeeeeeeeeeeeee0ee0:88888838X7777797w7Xnnnnnn",
"nnnnnnoatuutttu.u00r00eee0ee0e00eeeeee:88303033 03867885wXnnnnnn",
"nnnnnnoautttuty.ur00r0reeeeer0rreeeeee283830300 386679887Xnnnnnn",
"nnnnnno8fwuutuy.u0r00000eeee0e00eeee00288888303 686097977.nnnnnn",
"nnnnnno9fttuuty.ur00r000eeeeee00eeeey0336866030 666079799Xnnnnnn",
"nnnnnn+95auuyyu+OO@1111:=&&&::1:3333223333333 ..668879897.nnnnnn",
"nnnnnnn+46aaif.ippppppppp$yyyr0yryryyyryyryryyyy.0t0rwwttXnnnnnn",
"nnnnnnn---%-%+Xiyyyyyyyyy@800000000000000000000u+oo#*%%%*+nnnnnn",
"nnnnnn+htuuuiy.yyyyyyryyy&000000000000000000000u.88899888.nnnnnn",
"nnnnnn#huufuuu.fyyyyyyryy=000000000000000000000u.99897w7gXnnnnnn",
"nnnnnn+huuryuu.iyyyyyyyyy=000000000000000000000u.9789999g.nnnnnn",
"nnnnnn#huuuufu.uryryyyyyy1000000000000000000000u.989999igXnnnnnn",
"nnnnnn+hpupuwu.fyyyyyyyyy1000000000000000000000u.998999pgXnnnnnn",
"nnnnnn#gpupuupp y0yy0yy0:1000000000000000000000.97ww8wppf.nnnnnn",
"nnnnnn#hpupppupp O==1::3112333631113==@==3333. 099wwwwppgXnnnnnn",
"nnnnnn+gpuusppp 663630336rytryttyryryy$ryryryru.wwwwwpppf.nnnnnn",
"nnnnnn#hpppusud y000000000000000000000=0000000u.wwwwwpppg.nnnnnn",
"nnnnnn#hpppiaia.u000000000000000000000600000qey.wwwwpppph.nnnnnn",
"nnnnnn#hppaiipp.u0000000000000000000003000000ry.wwwwpippg.nnnnnn",
"nnnnnn#happappiXye0000000000000000000030000000i.wwwappppg.nnnnnn",
"nnnnnn#hpaapaaiXu00000000000000000000030000000y.wtwpppppg.nnnnnn",
"nnnnnn#hppapaap.u000000000000000000000;0000000y.tpppppppgXnnnnnn",
"nnnnnn#haaaapap.0w0000000000000900000w$0000000y.wpppppipgonnnnnn",
"nnnnnn#laaaaaaaa++++++e+++++++++++++++++++0+++#papppppppkXnnnnnn",
"nnnnnn#laaaaaapapaappp.pppppaipppppppppppp+pppppppppppppkXnnnnnn",
"nnnnnn#kaaasaaaaaapppp4ppppppppppppapppppp4pppppppppppppkXnnnnnn",
"nnnnnn%zaaaaaaaapspapp4pppppppppppppippppp4ppppppppppppkw.nnnnnn",
"nnnnnn#zaaaaaaaaappppp6ppppppppppaippppppp4ppppppppppphtwXnnnnnn",
"nnnnnn#zzllljjhhhhhhhh4hhhhhhhghjghhhhhhhh4hhhhhhhhlkker2Xnnnnnn",
"nnnnnn.uqqqqqqqqqqqqqq4qeqqqqqqqqqqq0w0wqq4qqqqqwqqqqqaa2.nnnnnn",
"nnnnnn.yqqqqqqqqqqqqqq4qeeqqqqqqqqqqe0e0qq4qqqqqqqqqqqeqsXnnnnnn",
"nnnnnn.uqqqqeqqqqqqe0q.qqqqqqqqqqqqqqq0qqq.qqqqqqqqqeweeu.nnnnnn",
"nnnnnnn......X....... ...................................nnnnnnn"
};
