/* XPM */
static char *Wall_07[] = {
/* columns rows colors chars-per-pixel */
"64 64 67 1 ",
"  c #4F2913",
". c #53301A",
"X c #55321C",
"o c #56331D",
"O c #55331E",
"+ c #55341E",
"@ c #56341E",
"# c #56341F",
"$ c #56351F",
"% c #563520",
"& c #573521",
"* c #573621",
"= c #573722",
"- c #563724",
"; c #583621",
": c #583622",
"> c #583724",
", c #583824",
"< c #593C29",
"1 c #5B3C29",
"2 c #5E422F",
"3 c #624430",
"4 c #604937",
"5 c #614937",
"6 c #654935",
"7 c #63503F",
"8 c #645141",
"9 c #645242",
"0 c #655444",
"q c #6C5847",
"w c #695948",
"e c #685849",
"r c #6D5A4B",
"t c #6C5D4F",
"y c #6B5F51",
"u c #6D6051",
"i c #6F6050",
"p c #6B6256",
"a c #71685B",
"s c #71695C",
"d c #736A5C",
"f c #746C5E",
"g c #736E62",
"h c #736E63",
"j c #746F63",
"k c #746F64",
"l c #747064",
"z c #777165",
"x c #797265",
"c c #797468",
"v c #79766A",
"b c #868579",
"n c #8A897F",
"m c #8B897F",
"M c #8C8B80",
"N c #8E8C83",
"B c #8E8D83",
"V c #8E8D84",
"C c #8F8D84",
"Z c #8F8D85",
"A c #908E85",
"S c #908E86",
"D c #918F88",
"F c #919087",
"G c #919088",
"H c #94928B",
"J c None",
/* pixels */
"JJJJ#Hbbbbb#JJJJJJJJJJJJJJJJJJJJJJJJJJJJJJJJJJJJJJJJ bbbbbH1JJJJ",
"JJJJ>Hbbbbb#JJJJJJJJJJJJJJJJJJJJJJJJJJJJJJJJJJJJJJJJ bbbbbH1JJJJ",
"JJJJ>Hbbbbb#JJJJJJJJJJJJJJJJJJJJJJJJJJJJJJJJJJJJJJJJ bbbbbH1JJJJ",
"JJJJ>Hbbbbb#JJJJJJJJJJJJJJJJJJJJJJJJJJJJJJJJJJJJJJJJ bbbbbH1JJJJ",
"JJJJ>Hbbbbb#JJJJJJJJJJJJJJJJJJJJJJJJJJJJJJJJJJJJJJJJ bbbbbH1JJJJ",
"JJJJ>Hbbbbb#JJJJJJJJJJJJJJJJJJJJJJJJJJJJJJJJJJJJJJJJ bbbbbH1JJJJ",
"JJJJ>Hbbbbb#JJJJJJJJJJJJJJJJJJJJJJJJJJJJJJJJJJJJJJJJ bbbbbH1JJJJ",
"JJJJ>Hbbbbb#JJJJJJJJJJJJJJJJJJJJJJJJJJJJJJJJJJJJJJJJ HHbbbH1JJJJ",
"JJJJ>Hbbbbb#JJJJJJJJJJJJJJJJJJJJJJJJJJJJJJJJJJJJJJJJ tiHHbH1JJJJ",
"JJJJ>HbbbbH#JJJJJJJJJJJJJJJJJJJJJJJJJJJJJJJJJJJJJJJJ vvweHH1JJJJ",
"JJJJ>HbbHHi#JJJJJJJJJJJJJJJJJJJJJJJJJJJJJJJJJJJJJJJJ vppp2 1JJJJ",
"JJJJ>HHHqrh#JJJJJJJJJJJJJJJJJJJJJJJJJJJJJJJJJJJJJJJJ vpp4bH1JJJJ",
"JJJJ>&66ljh#JJJJJJJJJJJJJJJJJJJJJJJJJJJJJJJJJJJJJJJJ pp4bbH1JJJJ",
"JJJJ>Hbb#jp#JJJJJJJJJJJJJJJJJJJJJJJJJJJJJJJJJJJJJJJJ .#bbbH1JJJJ",
"JJJJ>Hbbb#p#JJJJJJJJJJJJJJJJJJJJJJJJJJJJJJJJJJJJJJJJ bbbbbH1JJJJ",
"JJJJ>Hbbb#p#JJJJJJJJJJJJJJJJJJJJJJJJJJJJJJJJJJJJJJJJ bbbbbH1JJJJ",
"JJJJ>Hbbbb##JJJJJJJJJJJJJJJJJJJJJJJJJJJJJJJJJJJJJJJJ bbbbbH1JJJJ",
"JJJJ>Hbbbbb#JJJJJJJJJJJJJJJJJJJJJJJJJJJJJJJJJJJJJJJJ bbbbbH1JJJJ",
"JJJJ>Hbbbbb#JJJJJJJJJJJJJJJJJJJJJJJJJJJJJJJJJJJJJJJJ bbbbbH1JJJJ",
"JJJJ>Hbbbbb#JJJJJJJJJJJJJJJJJJJJJJJJJJJJJJJJJJJJJJJJ bbbbbH1JJJJ",
"JJJJ>Hbbbbb#JJJJJJJJJJJJJJJJJJJJJJJJJJJJJJJJJJJJJJJJ bbbbbH1JJJJ",
"JJJJ>Hbbbbb#JJJJJJJJJJJJJJJJJJJJJJJJJJJJJJJJJJJJJJJJ bbbbbH1JJJJ",
"JJJJ>Hbbbbb#JJJJJJJJJJJJJJJJJJJJJJJJJJJJJJJJJJJJJJJJ bbbbbH1JJJJ",
"JJJJ>Hbbbbb#JJJJJJJJJJJJJJJJJJJJJJJJJJJJJJJJJJJJJJJJ bbbbbH1JJJJ",
"JJJJ>Hbbbbb#JJJJJJJJJJJJJJJJJJJJJJJJJJJJJJJJJJJJJJJJ bbbbbH1JJJJ",
"JJJJ>Hbbbbb#JJJJJJJJJJJJJJJJJJJJJJJJJJJJJJJJJJJJJJJJ HHHHHH1JJJJ",
"JJJJ>Hbbbbb#JJJJJJJJJJJJJJJJJJJJJJJJJJJJJJJJJJJJJJJJ  0000 1JJJJ",
"JJJJ>HAZABZ#JJJJJJJJJJJJJJJJJJJJJJJJJJJJJJJJJJJJJJJJ bbbbbH1JJJJ",
"JJJJ>&6666##JJJJJJJJJJJJJJJJJJJJJJJJJJJJJJJJJJJJJJJJ bbbbbH1JJJJ",
"JJJJ,Hbbbbb#JJJJJJJJJJJJJJJJJJJJJJJJJJJJJJJJJJJJJJJJ bbbbbH1JJJJ",
"JJJJ,Hbbbbb&JJJJJJJJJJJJJJJJJJJJJJJJJJJJJJJJJJJJJJJJ bbbbbH1JJJJ",
"JJJJ:HbbbbbXJJJJJJJJJJJJJJJJJJJJJJJJJJJJJJJJJJJJJJJJ bbbbbH1JJJJ",
"JJJJ&Hbbbbb#JJJJJJJJJJJJJJJJJJJJJJJJJJJJJJJJJJJJJJJJ bbbbbH1JJJJ",
"JJJJ-Hbbbbb#JJJJJJJJJJJJJJJJJJJJJJJJJJJJJJJJJJJJJJJJ bbbbbH1JJJJ",
"JJJJ>Hbbbbb#JJJJJJJJJJJJJJJJJJJJJJJJJJJJJJJJJJJJJJJJ bbbbbH1JJJJ",
"JJJJ>Hbbbbb#JJJJJJJJJJJJJJJJJJJJJJJJJJJJJJJJJJJJJJJJ bbbbbH1JJJJ",
"JJJJ>Hbbbbb#JJJJJJJJJJJJJJJJJJJJJJJJJJJJJJJJJJJJJJJJ bbbbbH1JJJJ",
"JJJJ,Hbbbbb#JJJJJJJJJJJJJJJJJJJJJJJJJJJJJJJJJJJJJJJJ bbbbbH1JJJJ",
"JJJJ,Hbbbbb#JJJJJJJJJJJJJJJJJJJJJJJJJJJJJJJJJJJJJJJJ bbbbbH1JJJJ",
"JJJJ&Hbbbbb#JJJJJJJJJJJJJJJJJJJJJJJJJJJJJJJJJJJJJJJJ bbbbbH1JJJJ",
"JJJJ>Hbbbbb#JJJJJJJJJJJJJJJJJJJJJJJJJJJJJJJJJJJJJJJJ bbbbbH1JJJJ",
"JJJJ>Hbbbbb#JJJJJJJJJJJJJJJJJJJJJJJJJJJJJJJJJJJJJJJJ HHHHHH1JJJJ",
"JJJJ:Hbbbbb#JJJJJJJJJJJJJJJJJJJJJJJJJJJJJJJJJJJJJJJJ  0000 1JJJJ",
"JJJJ>HBAZZB#JJJJJJJJJJJJJJJJJJJJJJJJJJJJJJJJJJJJJJJJ bbbbbH1JJJJ",
"JJJJ>&6666##JJJJJJJJJJJJJJJJJJJJJJJJJJJJJJJJJJJJJJJJ bbbbbH1JJJJ",
"JJJJ>Hbbbbb#JJJJJJJJJJJJJJJJJJJJJJJJJJJJJJJJJJJJJJJJ bbbbbH1JJJJ",
"JJJJ>Hbbbbb#JJJJJJJJJJJJJJJJJJJJJJJJJJJJJJJJJJJJJJJJ bbbbbH1JJJJ",
"JJJJ>Hbbbbb#JJJJJJJJJJJJJJJJJJJJJJJJJJJJJJJJJJJJJJJJ bbbbbH1JJJJ",
"JJJJ>Hbbbbb#JJJJJJJJJJJJJJJJJJJJJJJJJJJJJJJJJJJJJJJJ bbbbbH1JJJJ",
"JJJJ>Hbbbbb#JJJJJJJJJJJJJJJJJJJJJJJJJJJJJJJJJJJJJJJJ bbbbbH1JJJJ",
"JJJJ>Hbbbbb#JJJJJJJJJJJJJJJJJJJJJJJJJJJJJJJJJJJJJJJJ xbbbbH1JJJJ",
"JJJJ>Hbbbbb&JJJJJJJJJJJJJJJJJJJJJJJJJJJJJJJJJJJJJJJJ nfbbbH1JJJJ",
"JJJJ>Hbbbbb#JJJJJJJJJJJJJJJJJJJJJJJJJJJJJJJJJJJJJJJJ bMdbbl1JJJJ",
"JJJJ>yHbbbb#JJJJJJJJJJJJJJJJJJJJJJJJJJJJJJJJJJJJJJJJ bbBydd1JJJJ",
"JJJJ>xHbbbb#JJJJJJJJJJJJJJJJJJJJJJJJJJJJJJJJJJJJJJJJ bbbZaa1JJJJ",
"JJJJ>lHbbbv#JJJJJJJJJJJJJJJJJJJJJJJJJJJJJJJJJJJJJJJJ bbbDya1JJJJ",
"JJJJ,xyHbpZ#JJJJJJJJJJJJJJJJJJJJJJJJJJJJJJJJJJJJJJJJ bbbDyy1JJJJ",
"JJJJ-llypAb#JJJJJJJJJJJJJJJJJJJJJJJJJJJJJJJJJJJJJJJJ HHH79y1JJJJ",
"JJJJ>xluAbb#JJJJJJJJJJJJJJJJJJJJJJJJJJJJJJJJJJJJJJJJ  1-9991JJJJ",
"JJJJ>lyuAbb#JJJJJJJJJJJJJJJJJJJJJJJJJJJJJJJJJJJJJJJJ bbb  91JJJJ",
"JJJJ=iyu663#JJJJJJJJJJJJJJJJJJJJJJJJJJJJJJJJJJJJJJJJ bbbbn 1JJJJ",
"JJJJ#:&&HHH#JJJJJJJJJJJJJJJJJJJJJJJJJJJJJJJJJJJJJJJJ bbbbbH1JJJJ",
"JJJJ=HHHbbb#JJJJJJJJJJJJJJJJJJJJJJJJJJJJJJJJJJJJJJJJ bbbbbH1JJJJ",
"JJJJ:Hbbbbb#JJJJJJJJJJJJJJJJJJJJJJJJJJJJJJJJJJJJJJJJ bbbbbH1JJJJ"
};
