/* XPM */
static char *Wall_05[] = {
/* columns rows colors chars-per-pixel */
"64 64 54 1 ",
"  c #783A21",
". c #7A3C23",
"X c #783D24",
"o c #7A3E24",
"O c #7A3F24",
"+ c #7A3E25",
"@ c #7A3F25",
"# c #7A3F26",
"$ c #7D4027",
"% c #7D4127",
"& c #7D4329",
"* c #7F4228",
"= c #7F4229",
"- c #7F442B",
"; c #7F452B",
": c #965E3F",
"> c #9C6847",
", c #86831D",
"< c #999222",
"1 c #9B9623",
"2 c #9C9723",
"3 c #959E22",
"4 c #A29C28",
"5 c #98A323",
"6 c #ABA52D",
"7 c #ACB028",
"8 c #B4B82F",
"9 c #BCC036",
"0 c #C1C52D",
"q c #AC8B6A",
"w c #AE9073",
"e c #B39D7E",
"r c #DABD5B",
"t c #E6DE64",
"y c #AD9B80",
"u c #AFA28C",
"i c #BDB7A6",
"p c #BEB8A8",
"a c #BEB9A8",
"s c #BFBAAA",
"d c #C2BCAC",
"f c #DFCB82",
"g c #C6C1B2",
"h c #D6D5CA",
"j c #DEDDD6",
"k c #DEDDD7",
"l c #DFDDD7",
"z c #DFDDD8",
"x c #E0DED8",
"c c #E0DED9",
"v c #E1E0DB",
"b c #E3E2DE",
"n c #EAEFF1",
"m c #F3F2F0",
/* pixels */
"0000+hhhhhb-<<<<<<1<<<<<<277777777777777777777777777777777777777",
"0000+hhhhhb-<<<<<<<<<<<<<277777777777777777777777777777777777777",
"0000+hhhhhb-<<<<<<<<<<<<<277777777777777777777777777777777777777",
"0000+hhhhhb-<<<<<<<<<<<<<277777777777777777777777777777777777777",
"0000+hhhhhb-<<<<<<<<<<<<<277777777777777777777777777777777777777",
"0000+hhhhhb-<<<<<<<<<<<<<287777777777777777777777777777777777777",
"0000+hhhhhb-<<<<<<<<<<<<<288777777777777777777777777777777777777",
"0000+hhhhhb-<<<<<<<<<<<<<255777777777777777777777777777777777777",
"0000+bhhhhb-<<<<<<<<<<<<<277777777777777777777777777777777777777",
"0000+ebbhhb-<<<<<<<<<<<<<277777777777777777777777777777777777777",
"0000+iwqbbb-<<<<<<<<<<<<<277777777777777777777777777777777777777",
"0000+iss>>$-<<<<<<<<<<<<<277777777777777777777777777777777777777",
"0000+us+hhb-<<<<<<<<<<<<<277777777777777777777777777777777777777",
"0000+u+hhhb-<<<<<<<<<<<<<277777777777777777777777777777777777777",
"0000+u+hhhb-<<<<<<<<<<<<<277777777777777777777777777777777777777",
"0000++hhhhb-<<<<<<<<<<<<<277777777777777777788777777777777777777",
"0000+hhhhhb#<<<<<<<<<<<<<277777777777777777987777777777777777777",
"0000+hhhhhb#<<<<<<<<<<<<<277777777777777778857777777777777777777",
"0000+hhhhhzX<<<<<<<<<<<<<277777777777799878857777777777777777777",
"0000+hhhhhv:<<<<<<<<<<<<<277777777777779885857777777777777777777",
"0000+hhhhhz#<<<<<<<<<<<<<277777777777775885577777777777777777777",
"0000+hhhhhv#<<<<<<<<<<<<<277777777777777557777777777777777797777",
"0000+hhhhhk:<<<<<<<<<<<<<277777777777777777777777777899777977777",
"0000+hhhhhz#<<<<<<<<<<<<<27777777777777777777777777779nn79977777",
"0000+hhhhhb:<<<<<<<<<<<<<<687777777777777777777777777nffn8877777",
"0000+hhhhhk <<<<<<<<<<<<<47777777777777777777777777773nn3mm77777",
"0000Ojjjccz&<<<<<<<<<<<<<17777777777777777777777777777337fm77777",
"0000O+>>>>#&<<<<<<<<<<<<<177777777777777777777777777777773377777",
"0000+hhhhhz#<<<<<<<<<<<<<177777777777777777777777777777777777777",
"0000-hhhhhk:<<<<<<<<<<<<<177777777777777777777777777777777777777",
"0000 hhhhhb#<<<<<<<<<<<<<177777777777777777777777777777777777777",
"0000Xhhhhhb#<<<<<<<<<<<<<177777777777777777777777777777777777777",
"0000#hhhhhb-<<<<<<<<<<<<<277777777777777777777777777777777777777",
"0000#hhhhhb-<<<<<<<<<<<<<277777777777777777777777777777777777777",
"0000#hhhhhb-<<<<<<<<<<<<<277777777777777777777777777777777777777",
"0000.hhhhhb-<<<<<<<<<<<<<277777777777777777777777777777777777777",
"0000#hhhhhb-<<<<<<<<<<<<<277777777777777777777777777777777777777",
"0000#hhhhhb-<<<<<<<<<<<<<277777777777777777777777777777777777777",
"0000#hhhhhb-<<<<<<<<<<<<<277777777777777777777777777777777777777",
"0000#hhhhhb-<<<<<<<<<<<<<277797777777777777777777777777777777777",
"0000#hhhhhb-<<<<<<<<<<<<<278977777777777777777777777777777777777",
"0000#hhhhhb-<<<<<<<<<<<<<288577777777777777777777777777777777777",
"0000.zzzczb-<<<<<<<<<<<<<288577777777777777777777777777777777777",
"0000#.>>>>#-<<<<<<<<<<<<<285777777777777777777777777777777777777",
"0000.hhhhhb-<<<<<<<<<<<<<27tt77777777777777777777777777777777777",
"0000#hhhhhb-4<<<<<<<<<<<<27rt77777777777987777777777777777777777",
"0000#hhhhhb;4<<6<<<<<<<<<273377777798778957777777777777777777777",
"0000.hhhhhb;<44,<<<<<<<<<277777777758878877777777777777777777777",
"0000#hhhhhb#<44,<<<<<<<<<277777777775888577777777777777777777777",
"0000#hhhhhz#<,,<<<<<<<<<<277777777775885777777777777777777777777",
"0000#hhhhhb <<<<<<<<<<<<<277777777777587777777777777777777777777",
"0000#hhhhhb:<<<<<<<<<<<<<277777777777777777777777777777777777777",
"0000#hhhhby#<<<<<<<<<<<<<277777777777777777777777777777777777777",
"0000#hhhhbd#<<<<<<<<<<<<<277777777777777777777777777777777777777",
"0000.dhhhbi#<<<<<<<<<<<<<277777777777777777777777777777789977777",
"0000#zuhbyi:<<<<<<<<<<<<<277777777777777777777777777777889777777",
"0000#hcuyds#<<<<<<<<<<<<<277777777777777777777777777777885777777",
"0000.hhvyds#<<<<<<<<<<<<<277777777777777777777777777777557777777",
"0000#hhcyydX<<<<<<<<<<<<<277777777777777777777777777777777777777",
"0009#:>>yyy:<<<<<<<<<<<<<277777777777777777777777777777777777777",
"0000.bbb-=##<<<<<<<<<<<<<277777777777777777777777777777777777777",
"0000#hhhbbb-<<<<<<<<<<<<<277777777777777777777777777777777777777",
"0000.hhhhhb-<<<<<<<<<<<<<277777777777777777777777777777777777777",
"0000.hhhhhb#<<<<<<<<<<<<<277777777777777777777777777777777777777"
};
