/* XPM */
static char *Wall_13[] = {
/* columns rows colors chars-per-pixel */
"64 64 55 1 ",
"  c #482413",
". c #4F2913",
"X c #4C2E1E",
"o c #502C16",
"O c #502E19",
"+ c #4F311E",
"@ c #54311C",
"# c #4D2F20",
"$ c #4E3325",
"% c #4F372B",
"& c #4F382C",
"* c #543623",
"= c #563926",
"- c #5A3B27",
"; c #503729",
": c #553B2C",
"> c #5B3C2A",
", c #533E33",
"< c #5C412F",
"1 c #534037",
"2 c #5B4434",
"3 c #54443B",
"4 c #5A4739",
"5 c #57483F",
"6 c #5C4A3D",
"7 c #604939",
"8 c #5D4E42",
"9 c #5A4E48",
"0 c #5C5247",
"q c #5D534B",
"w c #655444",
"e c #60564E",
"r c #60584F",
"t c #605650",
"y c #655E55",
"u c #695F57",
"i c #665F58",
"p c #666057",
"a c #676159",
"s c #6A655D",
"d c #6D685F",
"f c #6E6A60",
"g c #716A63",
"h c #767469",
"j c #827F74",
"k c #848276",
"l c #868579",
"z c #89877C",
"x c #8B8780",
"c c #8D8A83",
"v c #918E87",
"b c #918F88",
"n c #94928B",
"m c #99978F",
"M c None",
/* pixels */
"MMMMMM---------------------7--------------------------------w---",
"MMMMM-lllllllllllllllllllll@llllllllllllllllllllllllllllllzl=lll",
"MMMM-llllllllllllllllllllll.lllllllllllllllllllllllllllkllll=lll",
"MMMM-llllllllllllllllllllllwllllllllllllllllllllllllllllllllwlll",
"MMMM>lllllknnnnnnnnnnnnnmnn7mnmnnnnnnnnnnnnnnnnnzmnznnnnnmmmwnmm",
"MMMM>llllln7rgggffffddddddd<fffffhffffffffffdddddfdddddddddd<fff",
"MMMM>llllln7rgffffddddddddd-fffffffffffffddddddddddddddddddd<ddd",
"MMMM-llllln7rfdffdddddddddd<hfffffffffffddddddddddfddddddddd<ddd",
"MMMM<llllln7eeffffddddddsfs>dffffffffffddddddddddddddddddsdd<sdd",
"MMMM-nmmnnn<eedfdssddsddfss<ffffffffdfsddddssddsdsddsdsddsss<sss",
"MMMM-.7www.<eeddffsssssssss<ddddddddfsssdssddddspdddsssssdsd<dss",
"MMMM<klllln<0esdsssssssssss>sddssdsssdsssssspssssspddpssssss<sss",
"MMMM<klllln-eqessssssssssss<sssspddsssssssdspdssppddssssdpdp+dpd",
"MMMM-llllkn@qeqassaasasasaa<assadppsspssspsppsspdssssspspdpd+psp",
"MMMM-llllln@qqeaaaaaasassaa<saaappddsssssspssssspspsspssdpdp+pps",
"MMMM<llllln@qqq0ppappppaaaa<aaaapppppppppppspppspsppsppspsps@dpp",
"MMMM>lllllb@qqqqpyyyyppppaa.aaaaaaapaaaaaaaaaaaapppppppaaasp+ppp",
"MMMM>llllkv@qq00yyypypppppa.aaaaaaapaaapaaaaaaaaspaasppaaapsopap",
"MMMM>llllkv*+X$+$$**+++O.@......o...o.o..........oooo.o+oo.o5ooo",
"MMMM>llkkkc*89999000000000000000000+00000q0000005000000000500000",
"MMMM>lllkkc=809900000000000000q0000+q000000000000000000000000000",
"MMMM>lllkkz=99000000000000q000000q0;q000000000000000000000000000",
"MMMM-lllkkz*99000000000000000000000;00000000000q00000000000000r0",
"MMMM-llkkkz*0980000000q000000000000;q000000000000000000000000000",
"MMMM>zllljz-990800000000000000000q0;0000q00q00q00000000000000000",
"MMMM>zzvzcx-9q9000yyrppapaaaaaaaaap2aaaappapaappaaaaaaaaaappaaaa",
"MMMM>owwwwo*999990yrpppaaaaaaappapa4aaaappasaaapaaaaaaaaaspsaaaa",
"MMMM>lllkkv*,,,,1$1&44000000000w44444000w000000w0606000qr000r0r0",
"MMMM>lllkzv*qeeqqq$sssdddddddddfddddffsfddddddddff6fsddsddddsfdd",
"MMMM>lllzkv*999qqqXpaaaaaaaaaaaaaaaappaaaaaaaaaaaa6saaaapaaappaa",
"MMMM>llllkn@q9e0qq&aaaaaaaaaaaaaaaaaaaaaaaaaaaaaaa0aaaaaaaaaaaaa",
"MMMM>llllln@9q0qqq3aaaaaaaaaaaaaaaaaaaaaaaaaaaaaaa6aaaaaaaaaaaaa",
"MMMM>llllkn@9qqq9q9taaaaaaaaiifiaaaaaaaasiiaaaaaaa9uaaaaaaaaaips",
"MMMM>llllznOq9qqt9,qaaaaaaaasiiiaaaaaaaaiiaaaaaaaa8aaaaaaaaasipi",
"MMMM>llllln*9qq99t,taaiiaaiiiiiiaaaaaaaasiiiaiaaaa2iaaapaaaaaaps",
"MMMM>lllllb*q99t9t8tqaiyaasiisiyaaaaaaaaiisisiaaaa,paaauaaaaaapi",
"MMMM>llllln@,8,,3111,88898888888884:<<;66644665;>**=:qqqqw0eqqqq",
"MMMM>llllln@qq9ttttttfffdddsufgffsff@dddsfifsisfssasssasadaaffdd",
"MMMM-llllln@9qq9qqttqiiiiiyiiiiiiiii;pppiiiiiiiiiiiiiiiiiiiiiiii",
"MMMM>llllln@999q9tqtteiiiiiiiiiiiiip6pppiiiiiiiiiiiiiiiiiiiiiiii",
"MMMM>llllln@9q9qttttttiiiiiiiiiiiiiieyyiiiiiiiiiiiiiiiiiiiiiiiii",
"MMMM>llllln@999qqqttttiiiiiiiiiiiiiiqiiiiiiiiiiiiiiiiiiiiiiiiiii",
"MMMM-nnnnnn@99qqqttttttiiiiiiiiiiiiiqiiiiiiiiiiiiiiiiiiiiiiiiiii",
"MMMM>owwww.@909q9t9ttttiiiiiiiiiiiiiqiiiiiiiiiiiiiiiiiiiiiiiiiii",
"MMMM>llllln@999999t99twiyiiiiiiyiiiieiiiiiiiiiyyiiiiiiiuyyyyiiii",
"MMMM-llllln@&,33%$$$&&18899888q9qqqqw0q9wq99qq986666999988988888",
"MMMM>lllllnO9t9tqt$tttttfssfffffssfsffffffffffffsf6ffafffffffffs",
"MMMM-llllln$999999$9qqqqiiiiiyiiiiiiyiyyyyyyiiyyii6iiiyiiyiiyiii",
"MMMM>llllln@099999&qqqt9iiiiiiiiiiiiiiiiiiiiiiiiii6piiiiiiiiiiii",
"MMMM>llllln@999999,qqq9ttiiiiiiiiiiiiiiiiiiiiiiiiiqiiiiiiiiiiiii",
"MMMM>llllln@9899998qqqq99iiiiiiiiiiiiiiiiiiiiiiiiiqiiiiiiiiiiiii",
"MMMM-llllln@999999%qqq9ttiiiiiiiiiiiiiiiiiiiiiiiii2iiiiiiiiiiiii",
"MMMM>llllln@899999$99q9e9iiiiiiiiiiiiiiiiiiiiiiiii:iiiiiiiiiiiii",
"MMMM>llllln@999999;9q9q0t9iiiiiiiiiiiiiiiiiiiuiiii:iiiiiiiiiiiii",
"MMMM>llllln@                t...............oo  ....oo......w...",
"MMMM>lllllbOeeyyyuyyuuyyiihhohhhhhhhhhhhhhhhhhhhhhhhhhhhhhhh.hhh",
"MMMM-llllln@eqyyyyyyyyuyyyhhwhhhhhhhhhhhhhhhhhhhhhhhhhhhhhhhwhhh",
"MMMM>nnnnnn@weyuyyyyyyyyyyhhwhhhhhhhhhhhhhhhhhhhhhhhhhhhhhhhwhhh",
"MMMM>owwwwo@eeyyuyyiyuyuiyhhwhhhhhhhhhhhhhhhhhhhhhhhhhhhhhhhehhh",
"MMMM-llllln@uuggggggggggggzkelllzzjxlxjzllzlllllzzzlkzklklzzwjll",
"MMMM>llllln@459eqrrrrrrretppwpppppppiiiippppppppyiiippppppppwiii",
"MMMM>llllln@55qqerrrrrrreeppwpppppppiiiippppppppiipippppppppwipi",
"MMMM>llklln@55qqqrerrrrrrepp.pppppppppipppppppppppppppppppii.ipp",
"MMMM>llllln@...o...........o...................................o"
};
