/* XPM */
static char *Wall_07[] = {
/* columns rows colors chars-per-pixel */
"64 64 76 1 ",
"  c #692D18",
". c #73371F",
"X c #783A21",
"o c #7A3C23",
"O c #783C24",
"+ c #783D24",
"@ c #7A3E24",
"# c #7A3F24",
"$ c #7A3E25",
"% c #7A3F25",
"& c #7A3F26",
"* c #7D4027",
"= c #7D4127",
"- c #7B432B",
"; c #7D4329",
": c #7F4228",
"> c #7F4229",
", c #7F442B",
"< c #7F452B",
"1 c #834D33",
"2 c #874D33",
"3 c #8E593C",
"4 c #965E3F",
"5 c #9C6847",
"6 c #94684A",
"7 c #96684A",
"8 c #9B7758",
"9 c #9D7A5C",
"0 c #9D7D5E",
"q c #86831D",
"w c #999222",
"e c #9B9623",
"r c #9C9723",
"t c #A29C28",
"y c #98A323",
"u c #ABA52D",
"i c #ACB028",
"p c #B4B82F",
"a c #BCC036",
"s c #C1C52D",
"d c #A08263",
"f c #A78D6B",
"g c #A68B6E",
"h c #AC8B6A",
"j c #AE9073",
"k c #AE977C",
"l c #B39D7E",
"z c #AD9B80",
"x c #B09D81",
"c c #AFA28C",
"v c #B9AD98",
"b c #B9AE9A",
"n c #BCB09B",
"m c #BDB49E",
"M c #BDB7A6",
"N c #BEB8A8",
"B c #BEB9A8",
"V c #BFBAAA",
"C c #C2BCAC",
"Z c #C5BDAC",
"A c #C6C1B2",
"S c #C6C3B4",
"D c #D6D5CA",
"F c #DAD9D1",
"G c #DBD9D1",
"H c #DCDBD3",
"J c #DEDDD6",
"K c #DEDDD7",
"L c #DFDDD7",
"P c #DFDDD8",
"I c #E0DED8",
"U c #E0DED9",
"Y c #E1DFDB",
"T c #E1E0DA",
"R c #E1E0DB",
"E c #E3E2DE",
/* pixels */
"ssss$EDDDDD$wwwwwwewwwwwwriiiiiiiiiiiiiiiiiiiiiiiiii DDDDDE2wwss",
"ssss,EDDDDD$wwwwwwwwwwwwwriiiiiiiiiiiiiiiiiiiiiiiiii DDDDDE2wwss",
"ssss,EDDDDD$wwwwwwwwwwwwwriiiiiiiiiiiiiiiiiiiiiiiiii DDDDDE2wwss",
"ssss,EDDDDD$wwwwwwwwwwwwwriiiiiiiiiiiiiiiiiiiiiiiiii DDDDDE2wwss",
"ssss,EDDDDD$wwwwwwwwwwwwwriiiiiiiiiiiiiiiiiiiiiiiiii DDDDDE2wwss",
"ssss,EDDDDD$wwwwwwwwwwwwwriiiiiiiiiiiiiiiiiiiiiiiiii DDDDDE2wwss",
"ssss,EDDDDD$wwwwwwwwwwwwwriiiiiiiiiiiiiiiiiiiiiiiiii DDDDDE2wwss",
"ssss,EDDDDD$wwwwwwwwwwwwwriiiiiiiiiiiiiiaiiiiiiiiiii EEDDDE2wwss",
"ssss1EDDDDD$wwwwwwwwwwwwwriiiiiiiiiipuiippiiiiiiiiii kzEEDE2wwss",
"ssss&EDDDDE$wwwwwwwwwwwwwriiiiiiiiiiaspiypiiiiiiiiii SSggEE2wwss",
"ssss1IDDEEl$wwwwwwwwwwwwwriiiiiiiiiiipppyyiaapiiiiii Sccc3 2wwss",
"ssss1YEEhjM$wwwwwwwwwwwwwriiiiiiipppiyppiyppaiiiiiii Scc7DE2wwss",
"ssss,&55VVM$wwwwwwwwwwwwwriiiiiiiiipppypipppiiiiiiii cc6DDE2wwss",
"ssss,EDD$Vc$wwwwwwwwwwwwwriiiiiiiiiyppiyyppyiiiiiiii XODDDE2wwss",
"ssss,EDDD$c$wwwwwwwwwwwwwriiiiiiiiiiypiiyyyiiiiiiiii DDDDDE2wwss",
"ssss,EDDD$c$wwwwwwwwwwwwwriiiiiiiiiipyippiiiiiiiiiii DDDDDE2wwss",
"ssss&YDDDD&&wwwwwwwwwwwwwriiiiiiiiiiiiiayiiiiiiiiiii DDDDDE2wwss",
"ssss:YDDDDDowwwwwwwwwwwwwriiiiiiiiiiiiiyiiiiiiiiiiii DDDDDE2wwss",
"ssss1EDDDDD&wwwwwwwwwwwwwriiiiiiiiiiiiiiiiiiiiiiiiii DDDDDE2wwss",
"ssss:EDDDDDowwwwwwwwwwwwwriiiiiiiiiiiiiiiiiiiiiiiiii DDDDDE2wwss",
"ssss:YDDDDD&wwwwwwwwwwwwwriiiiiiiiiiiiiiiiiiiiiiiiii DDDDDE2wwss",
"ssss1IDDDDD&wwwwwwwwwwwwwriiiiiiiiiiiiiiiiiiiiiiiiii DDDDDE2wwss",
"ssss>EDDDDDowwwwwwwwwwwwwriiiiiiiiiiiiiiiiiiiiiiiiii DDDDDE2wwss",
"ssss1EDDDDD&wwwwwwwwwwwwwriiiiiiiiiiiiiiiiiiiiiiiiii DDDDDE2wwss",
"ssss>EDDDDD&wwwwwwwwwwwwwriiiiiiiiiiiiiiiiiiiiiiiiii DDDDDE2wwss",
"ssss>YDDDDD&wwwwwwwwwwwwwriiiiiiiiiiiiiiiiiiiiiiiiii EEEEEE2wwss",
"ssss1YDDDDD&wwwwwwwwwwwwwriiiiiiiiiiiiiiiiiiiiiiiiii  dddd 2wwss",
"ssss>EIIIIUowwwwwwwwwwwwwriiiiiiiiiiiiiiiiiiiiiiiiii DDDDDE2wwss",
"ssss:o5555o&wwwwwwwwwwwwwriiiiiiiiiiiiiiiiiiiiiiiiii DDDDDE2wwss",
"ssss1EDDDDD&wwwwwwwwwwwwwriiiiiiiiiiiiiiiiiiiiiiiiii DDDDDE2wwss",
"ssss&EDDDDD&wwwwwwwwwwwwwriiiiiiiiiiiiiiiiiiiiiiiiii DDDDDE2wwss",
"ssss:YDDDDDXwwwwwwwwwwwwwriiiiiiiiiiiiiiiiiiiiiiiiii DDDDDE2wwss",
"ssss$EDDDDD$wwwwwwwwwwwwwriiiiiiiiiiiiiiiiiiiiiiiiii DDDDDE2wwss",
"ssss,EDDDDD$wwwwwwwwwwwwwriiiiiiiiiiiiiiiiiiiiiiiiii DDDDDE2wwss",
"ssss,EDDDDD$wwwwwwwwwwwwwriiiiiiiiiiiiiiiiiiiiiiiiii DDDDDE2wwss",
"ssss,EDDDDD$wwwwwwwwwwwwwriiiiiiiiiiiiiiiiiiiiiiiiii DDDDDE2wwss",
"ssss,EDDDDD$wwwwwwwwwwwwwriiiiiiiiiiiiiiiiiiiiiiiiii DDDDDE2wwss",
"ssss,EDDDDD$wwwwwwwwwwwwwriiiiiiiiiiiiiiiiiiiiiiiiii DDDDDE2wwss",
"ssss,EDDDDD$wwwwwwwwwwwwwriiiiiiiiiiiiiiiiiiiiiiiiii DDDDDE2wwss",
"ssss,EDDDDD$wwwwwwwwwwwwwriiiiiiiiiiiiiiiiiiiiiiiiii DDDDDE2wwss",
"ssss,EDDDDD$wwwwwwwwwwwwwriiiiiiiiiiiiiiiiiiiiiiiiii DDDDDE2wwss",
"ssss,EDDDDD$wwwwwwwwwwwwwriiiiiiiiiiiiiiiiiiiiiiiiii EEEEEE2wwss",
"ssss1EDDDDD#wwwwwwwwwwwwwriiiiiiiiiiiiiiiiiiiiiiiiii  dddd 2wuss",
"ssss,EHPHPH#wwwwwwwwwwwwwriiiiiiiiiiiiiiiiiiiiiiiiii DDDDDE2tqss",
"ssss,&5555##wwwwwwwwwwwwwriiiiiiiiiiiiiiiiiiiiiiiiii DDDDDE2tqss",
"ssss,YDDDDD#twwwwwwwwwwwwriiiiiiiiiiiiiiiiiiiiiiiiii DDDDDE2qwss",
"ssss1EDDDDD#twwuwwwwwwwwwriiiiiiiiiiiiiiiiiiiiiiiiii DDDDDE2wwss",
"ssss&EDDDDD=wttqwwwwwwwwwriiiiiiiiiiiiiiiiiiiiiiiiii DDDDDE2wwss",
"ssss:YDDDDD&wyyqwwwwwwwwwriiiiiiiiiiiiiiiiiiiiiiiiii DDDDDE2wwss",
"ssss1YDDDDDow4qrwwwwwwwwwriiiiiiiiiiiiiiiiiiiiiiiiii DDDDDE2wwss",
"ssss*YDDDDD&wwrwwwwwwwwwwriiiiiiiiiiiiiiiiiiiiiiiiii ZDDDDR2wwss",
"ssss1EDDDDDowwwwwwwwwwwwwriiiiiiiiiiiiiiiiiiiiiiiiii FMDDDE2wwss",
"ssss1IDDDDD#wwwwwwwwwwwwwriiiiiiiiiiiiiiiiiiiiiiiiii DHnDDC2wwss",
"ssss:kEDDDD#wwwwwwwwwwwwwriiiiiiiiiiiiiiiiiiiiiiiiii DDPlvb2wwss",
"ssss1CYDDDD#wwwwwwwwwwwwwriiiiiiiiiiiiiiiiiiiiiiiiii DDDPvv2wwss",
"ssss&CEDDDAXwwwwwwwwwwwwwriiiiiiiiiiiiiiiiiiiiiiiiii DDDPzv2wwss",
"ssss,CzEDcT.rwwwwwwwwwwwwriiiiiiiiiiiiiiiiiiiiiiiiii DDDEzz2wwas",
"ssss,CCzcTD#rwwwwwwwwwwwwriiiiiiiiiiiaaiiiiiiiiiiiii EEE80z2wwss",
"ssss,CCzTDD=wwwwwwwwwwwwwriiiiiiiiiiiiappiiiaaiiiiii  1;9002wwss",
"ssss,CzkIDD.wwwwwwwwwwwwwriiiiiiiiiiiiyppiipaiiiiiii DDD  02wwss",
"ssss2klj554owwwwwwwwwwwwwriiiiiiiiiiiiiyyipppiiiiiii DDDDG 2wwss",
"ssss.o@1ETT.wwwwwwwwwwwwwriiiiiiiiiiiiiiiippyiiiiiii DDDDDE2wwss",
"ssss1IEEDDD1wwwwwwwwwwwwwriiiiiiiiiiiiiiiiyyiiiiiiii DDDDDE2wwss",
"ssss2EDDDDD.wwwwwwwwwwwwwriiiiiiiiiiiiiiiiiiiiiiiiii DDDDDE2wwss"
};
