/* XPM */
static char *Wall_15[] = {
/* columns rows colors chars-per-pixel */
"64 64 71 1 ",
"  c #692D18",
". c #6B301A",
"X c #753920",
"o c #783A21",
"O c #7A3C23",
"+ c #783D24",
"@ c #7A3F24",
"# c #7A3E25",
"$ c #7A3F26",
"% c #7D4027",
"& c #7D4127",
"* c #7B432B",
"= c #7F4228",
"- c #7F4229",
"; c #7F442B",
": c #834D33",
"> c #874D33",
", c #965E3F",
"< c #9C6847",
"1 c #9B7758",
"2 c #9D7A5C",
"3 c #9D7D5E",
"4 c #A17F5E",
"5 c #86831D",
"6 c #999122",
"7 c #999222",
"8 c #9C9723",
"9 c #A29C28",
"0 c #98A323",
"q c #ABA52D",
"w c #ACB028",
"e c #B4B82F",
"r c #BCC036",
"t c #C1C52D",
"y c #A08263",
"u c #AD9B80",
"i c #AFA28C",
"p c #A9A092",
"a c #AAA294",
"s c #ABA294",
"d c #ACA596",
"f c #ACA796",
"g c #AFA699",
"h c #B1A89B",
"j c #B1AA9B",
"k c #B3AA9D",
"l c #B3AC9D",
"z c #B9AD98",
"x c #BCB09B",
"c c #BDB49E",
"v c #B4AFA0",
"b c #B8AFA4",
"n c #B8B3A4",
"m c #B8B2A5",
"M c #B9B4A6",
"N c #BBB5A8",
"B c #C2BCAC",
"V c #C5BDAC",
"C c #C6C1B2",
"Z c #C7C3B9",
"A c #CCC8C0",
"S c #D0CCC4",
"D c #D6D5CA",
"F c #DAD9D1",
"G c #DCDBD3",
"H c #DEDDD6",
"J c #E0DED8",
"K c #E1DFDB",
"L c #E1E0DA",
"P c #E1E0DB",
"I c #E3E2DE",
/* pixels */
"tttt;IDDDDD%77777777777778wwwwwwwwwwwwwwwwwwwwwwwwww DDDDDI>77tt",
"tttt;IDDDDD;77777777777778wwwwwwwwwwwwwwwwwwwwwwwwww DDDDDI>77tt",
"tttt-IDDDDDX77777777777778wwwwwwwwwwwwwwwwwwwwwwwwww DDDDDI>77tt",
"tttt#IDDDDD#77777777777778wwwwwwwwwwwwwwwwwwwwwwwwww DDDDDI>77tt",
"tttt;IDDDDD#77777777777778wwwwwwwwwwwwwwwwwwwwwwwwww.DDDDDI>77tt",
"tttt;IDDDDD#77777777777778wwwwwwwwwwwwwwwwwwwwwwwwww DDDDDI>77tt",
"tttt;IDDDDD+77777777777778wwwwwwwwwwwwwwwwwwwwwwwwww DDDDDI>77tt",
"tttt;IDDDDD#77777777777778wwwwwwwwwwwwwwrwwwwwwwwwww DDDDDI>77tt",
"tttt;IDDDDD#77777777777778wwwwwwwwwwwwwweewwwwwwwwww DDDDDI>77tt",
"tttt;IDDDDD#77777777777778wwwwwwwwwwrrew0ewwwwwwwwww DDDDDI>77tt",
"tttt;IDDDDD#77777777777778wwwwwwwwwwwree00wrrewwwwww DDDDDI>77tt",
"tttt;IDDDDD#77777777777778wwwwwwwweew0eew0eerwwwwwww DDDDDI>77tt",
"tttt;IDDDDD#77777777777778wwwwwwwwwree0eweeewwwwwwww DDDDDI>77tt",
"tttt;IDDDDD#77777777777778wwwwwwwww0eew00ee0wwwwwwww DDDDDI>77tt",
"tttt;IDDDDD#77777777777778wwwwwwwwww0eww000wwwwwwwww IIIIII>77tt",
"tttt;IJJHJH+77777777777778wwwwwwwwwww0weewwwwwwwwwww  yyyy >77tt",
"tttt;-<<<<++77777777777778wwwwwwwwwwwwwr0wwwwwwwwwww DDDDDI>77tt",
"tttt;IDDDDD#77777777777778wwwwwwwwwwwww0wwwwwwwwwwww DDDDDI>77tt",
"tttt-IDDDDD-77777777777778wwwwwwwwwwwwwwwwwwwwwwwwww DDDDDI>77tt",
"tttt-IDDDDDO77777777777778wwwwwwwwwwwwwwwwwwwwwwwwww DDDDDI>77tt",
"tttt#IDDDDD#77777777777778wwwwwwwwwwwwwwwwwwwwwwwwww DDDDDI>77tt",
"tttt;IDDDDD#77777777777778wwwwwwwwwwwwwwwwwwwwwwwwww DDDDDI>77tt",
"tttt;IDDDDD#77777777777778wwwwwwwwwwwwwwwwwwwwwwwwww DDDDDI>77tt",
"tttt;IDDDDD%77777777777778wwwwwwwwwwwwwwwwwwwwwwwwww DDDDDI>77tt",
"tttt*JDDDDD#77777777777778wwwwwwwwwwwwwwwwwwwwwwwwww DDDDDI>77tt",
"tttt:IDDDDD#77777777777778wwwwwwwwwwwwwwwwwwwwwwwwww DDDDDI>77tt",
"tttt-HDDDDD#77777777777778wwwwwwwwwwwwwwwwwwwwwwwwww DDDDDI>77tt",
"tttt:IDDDDD#77777777777778wwwwwwwwwwwwwwwwwwwwwwwwww DDDDDI>77tt",
"tttt;IDDDDD#66777777777778wwwwwwwwwwwwwwwwwwwwwwwwww DDDDDI>77tt",
"tttt;IDDDDD#66777777777778wwwwwwwwwwwwwwwwwwwwwwwwww DDDDDI>77tt",
"tttt;IDDDDD#77777777777778wwwwwwwwwwwwwwwwwwwwwwwwww IIIIII>77tt",
"tttt;IHHHJH#77777777777778wwwwwwwwwwwwwwwwwwwwwwwwww  yyyy >77tt",
"tttt:=<<<<+#77777777777778wwwwwwwwwwwwwwwwwwwwwwwwww DDDDDI>77tt",
"tttt$IDDDDD#77777777777778wwwwwwwwwwwwwwwwwwwwwwwwww DDDDDI>77tt",
"tttt=KDDDDD+77777777777778wwwwwwwwwwwwwwwwwwwwwwwwww DDDDDI>77tt",
"tttt:KDDDDD%77777777777778wwwwwwwwwwwwwwwwwwwwwwwwww DDDDDI>77tt",
"tttt$KDDDDD%77777777777778wwwwwwwwwwwwwwwwwwwwwwwwww DDDDDI>77tt",
"tttt:IDDDDD+97777777777778wwwwwwwwwwwwwwwwwwwwwwwwww DDDDDI>77tt",
"tttt%LDDDDD+977q7777777778wwwwwwwwwwwwwwwwwwwwwwwwww DDDDDI>77tt",
"tttt:IDDDDD%79957777777778wwwwwwwwwwwwwwwwwwwwwwwwww VDDDDI>77tt",
"tttt=IKFDDDO79957777777778wwwwwwwwwwwwwwwwwwwwwwwwww FcDDDI>77tt",
"tttt=4IDDDD+75577777777778wwwwwwwwwwwwwwwwwwwwwwwwww DHxDDV>77tt",
"tttt>NIDDDD%77777777777778wwwwwwwwwwwwwwwwwwwwwwwwww DDHynx>77tt",
"tttt;VIDDDCO77777777777778wwwwwwwwwwwwwwwwwwwwwwwwww DDDINx>77tt",
"tttt;ByIDiJ#77777777777778wwwwwwwwwwwwwwwwwwwwwwwwww DDDIin>77tt",
"tttt;BCsiJD#77777777777778wwwwwwwwwwwwwwwwwwwwwwwwww DDDIiy>77tt",
"tttt>CCiJDD#77777777777778wwwwwwwwwwwwwwwwwwwwwwwwww III43y,77tt",
"tttt-CiyJDD$77777777777778wwwwwwwwwwwwwwwwwwwwwwwwww  :&333>77tt",
"tttt:4i44<,=67777777777778wwwwwwwwwwwwwwwwwwwwwwwwww DDD  3>77rt",
"tttt$O::IJIO77777777777778wwwwwwwwwwwwwwwwwwwwwwwwww DDDDF >77tt",
"tttt:JILDDD$77777777777778wwwwwwwwwwwwwwwwwwwwwwwwww DDDDDI>77tt",
"tttt:IDDDDDO77777777777778wwwwwwwwwwwwwwwwwwwwwwwwww DDDDDI>77tt",
"tttt+LDDDDDO77777777666678wwwwwwwwwwwwwwwwwwwwwwwwww DDDDDL>77tt",
"tttt:DDDDDIX77777777666878wwwwwwwwwwwwwwwwwwwwwwwwww IDDDDD>77tt",
"tttt>DDDDDIO77777786666678wwwwwwwwwwwwwwwwwwwwwwwwww IDDDDD>77tt",
"tttt>DDDDDJX77777776666678wwwwwwwwwwwwwwwwwwwwwwwwww IDDDDD>77tt",
"tttt>DDDDDI    %$$$=$=$==$:#*$**%-*%w%;%--*-*%-*%%X  IDDDDD>77tt",
"tttt>DDDDDDDDDDDDDDDDDDDDyADDDDDDDDDyDDDDDDDDDDDDDDDDDDDDDD>77tt",
"tttt>DDDDDDDDDDDDDDDDDDDD4DDDDDDDDDDyDDDDDDDDDDDDDDDDDDDDDD>77tt",
"tttt>DDDDDDDDDDDDDDDDDDDD4DDDDDDDDDD4DDDDDDDDDDDDDDDDDDDDDD>77tt",
"tttt IIIIIIIIIIIIIIIIIIIJ4IIIIIIIIIIyIIIIIIIIIIIIIIIIIIIIIL>77tt",
"tttt ANnnnvvljjdssspppppp pppppppppp uaappppssssddgjjkllllC 77tt",
"tttt SNnnblvlkjdssspppppp pppppppppp pppppppsssssddgjlllllC 77tt",
"ttttw                                                    . 777tt"
};
