/* XPM */
static char *Wall_12[] = {
/* columns rows colors chars-per-pixel */
"64 64 58 1 ",
"  c #4F2913",
". c #54311B",
"X c #55321C",
"o c #56331D",
"O c #55341E",
"+ c #56341E",
"@ c #56341F",
"# c #56351F",
"$ c #563520",
"% c #573521",
"& c #573621",
"* c #573622",
"= c #573722",
"- c #583621",
"; c #583622",
": c #583724",
"> c #583824",
", c #5B3C29",
"< c #624430",
"1 c #654935",
"2 c #665342",
"3 c #655444",
"4 c #6C5847",
"5 c #6D5A4B",
"6 c #6B5F51",
"7 c #6F6050",
"8 c #6B6256",
"9 c #676159",
"0 c #67625A",
"q c #68625A",
"w c #68635B",
"e c #69635B",
"r c #69645B",
"t c #6A645C",
"y c #6B655D",
"u c #6B665D",
"i c #6B665E",
"p c #6C665E",
"a c #6C675E",
"s c #736E62",
"d c #736E63",
"f c #746F63",
"g c #746F64",
"h c #747064",
"j c #777165",
"k c #77726B",
"l c #797468",
"z c #79756D",
"x c #868579",
"c c #8E8D83",
"v c #8E8D84",
"b c #8F8D84",
"n c #8F8D85",
"m c #908E85",
"M c #908E86",
"N c #919088",
"B c #94928B",
"V c None",
/* pixels */
"VVVVVVVVVVVVVVVVVVVVVVVVVVVVVVVVVVVVVVVVVVVVVVVVVVVV:BxxxxB%VVVV",
"VVVVVVVVVVVVVVVVVVVVVVVVVVVVVVVVVVVVVVVVVVVVVVVVVVVV:BxxBB5%VVVV",
"VVVVVVVVVVVVVVVVVVVVVVVVVVVVVVVVVVVVVVVVVVVVVVVVVVVV:BBB45d+VVVV",
"VVVVVVVVVVVVVVVVVVVVVVVVVVVVVVVVVVVVVVVVVVVVVVVVVVVV:%11hfd+VVVV",
"VVVVVVVVVVVVVVVVVVVVVVVVVVVVVVVVVVVVVVVVVVVVVVVVVVVV:Bxx+h8+VVVV",
"VVVVVVVVVVVVVVVVVVVVVVVVVVVVVVVVVVVVVVVVVVVVVVVVVVVV:Bxxx%8+VVVV",
"VVVVVVVVVVVVVVVVVVVVVVVVVVVVVVVVVVVVVVVVVVVVVVVVVVVV:Bxxx+8%VVVV",
"VVVVVVVVVVVVVVVVVVVVVVVVVVVVVVVVVVVVVVVVVVVVVVVVVVVV:Bxxxx+%VVVV",
"VVVVVVVVVVVVVVVVVVVVVVVVVVVVVVVVVVVVVVVVVVVVVVVVVVVV:Bxxxxx$VVVV",
"VVVVVVVVVVVVVVVVVVVVVVVVVVVVVVVVVVVVVVVVVVVVVVVVVVVV:BxxxxxOVVVV",
"VVVVVVVVVVVVVVVVVVVVVVVVVVVVVVVVVVVVVVVVVVVVVVVVVVVV:BxxxxxOVVVV",
"VVVVVVVVVVVVVVVVVVVVVVVVVVVVVVVVVVVVVVVVVVVVVVVVVVVV:Bxxxxx%VVVV",
"VVVVVVVVVVVVVVVVVVVVVVVVVVVVVVVVVVVVVVVVVVVVVVVVVVVV:BxxxxxOVVVV",
"VVVVVVVVVVVVVVVVVVVVVVVVVVVVVVVVVVVVVVVVVVVVVVVVVVVV:BxxxxxOVVVV",
"VVVVVVVVVVVVVVVVVVVVVVVVVVVVVVVVVVVVVVVVVVVVVVVVVVVV:Bxxxxx%VVVV",
"VVVVVVVVVVVVVVVVVVVVVVVVVVVVVVVVVVVVVVVVVVVVVVVVVVVV:Bxxxxx+VVVV",
"VVVVVVVVVVVVVVVVVVVVVVVVVVVVVVVVVVVVVVVVVVVVVVVVVVVV:BxxxxxOVVVV",
"VVVVVVVVVVVVVVVVVVVVVVVVVVVVVVVVVVVVVVVVVVVVVVVVVVVV:Bxxxxx%VVVV",
"VVVVVVVVVVVVVVVVVVVVVVVVVVVVVVVVVVVVVVVVVVVVVVVVVVVV:BmbbbbOVVVV",
"VVVVVVVVVVVVVVVVVVVVVVVVVVVVVVVVVVVVVVVVVVVVVVVVVVVV:%1111OOVVVV",
"VVVVVVVVVVVVVVVVVVVVVVVVVVVVVVVVVVVVVVVVVVVVVVVVVVVV>Bxxxxx+VVVV",
"VVVVVVVVVVVVVVVVVVVVVVVVVVVVVVVVVVVVVVVVVVVVVVVVVVVV>Bxxxxx;VVVV",
"VVVVVVVVVVVVVVVVVVVVVVVVVVVVVVVVVVVVVVVVVVVVVVVVVVVV;BxxxxxOVVVV",
"VVVVVVVVVVVVVVVVVVVVVVVVVVVVVVVVVVVVVVVVVVVVVVVVVVVV%Bxxxxx+VVVV",
"VVVVVVVVVVVVVVVVVVVVVVVVVVVVVVVVVVVVVVVVVVVVVVVVVVVV:BxxxxxOVVVV",
"VVVVVVVVVVVVVVVVVVVVVVVVVVVVVVVVVVVVVVVVVVVVVVVVVVVV:Bxxxxx%VVVV",
"VVVVVVVVVVVVVVVVVVVVVVVVVVVVVVVVVVVVVVVVVVVVVVVVVVVV:Bxxxxx+VVVV",
"VVVVVVVVVVVVVVVVVVVVVVVVVVVVVVVVVVVVVVVVVVVVVVVVVVVV:Bxxxxx+VVVV",
"VVVVVVVVVVVVVVVVVVVVVVVVVVVVVVVVVVVVVVVVVVVVVVVVVVVV:BxxxxxOVVVV",
"VVVVVVVVVVVVVVVVVVVVVVVVVVVVVVVVVVVVVVVVVVVVVVVVVVVV:BxxxxxOVVVV",
"VVVVVVVVVVVVVVVVVVVVVVVVVVVVVVVVVVVVVVVVVVVVVVVVVVVV:Bxxxxx%VVVV",
"VVVVVVVVVVVVVVVVVVVVVVVVVVVVVVVVVVVVVVVVVVVVVVVVVVVV:Bxxxxx+VVVV",
"VVVVVVVVVVVVVVVVVVVVVVVVVVVVVVVVVVVVVVVVVVVVVVVVVVVV:Bxxxxx$VVVV",
"VVVVVVVVVVVVVVVVVVVVVVVVVVVVVVVVVVVVVVVVVVVVVVVVVVVV:BxxxxxOVVVV",
"VVVVVVVVVVVVVVVVVVVVVVVVVVVVVVVVVVVVVVVVVVVVVVVVVVVV:Bcmbbb$VVVV",
"VVVVVVVVVVVVVVVVVVVVVVVVVVVVVVVVVVVVVVVVVVVVVVVVVVVV;;1111O$VVVV",
"VVVVVVVVVVVVVVVVVVVVVVVVVVVVVVVVVVVVVVVVVVVVVVVVVVVV:BxxxxxOVVVV",
"VVVVVVVVVVVVVVVVVVVVVVVVVVVVVVVVVVVVVVVVVVVVVVVVVVVV:BxxxxxOVVVV",
"VVVVVVVVVVVVVVVVVVVVVVVVVVVVVVVVVVVVVVVVVVVVVVVVVVVV:Bxxxxx%VVVV",
"VVVVVVVVVVVVVVVVVVVVVVVVVVVVVVVVVVVVVVVVVVVVVVVVVVVV:Bxxxxx+VVVV",
"VVVVVVVVVVVVVVVVVVVVVVVVVVVVVVVVVVVVVVVVVVVVVVVVVVVV:BxxxxxOVVVV",
"VVVVVVVVVVVVVVVVVVVVVVVVVVVVVVVVVVVVVVVVVVVVVVVVVVVV:Bxxxxx%VVVV",
"VVVVVVVVVVVVVVVVVVVVVVVVVVVVVVVVVVVVVVVVVVVVVVVVVVVV:BxxxxxOVVVV",
"VVVVVVVVVVVVVVVVVVVVVVVVVVVVVVVVVVVVVVVVVVVVVVVVVVVV:Bxxxxx$VVVV",
"VVVVVVVVVVVVVVVVVVVVVVVVVVVVVVVVVVVVVVVVVVVVVVVVVVVV:6BxxxxOVVVV",
"VVVVVVVVVVVVVVVVVVVVVVVVVVVVVVVVVVVVVVVVVVVVVVVVVVVV:jBxxxx%VVVV",
"VVVVVVVVVVVVVVVVVVVVVVVVVVVVVVVVVVVVVVVVVVVVVVVVVVVV:jBxxxlOVVVV",
"VVVVVVVVVVVVVVVVVVVVVVVVVVVVVVVVVVVVVVVVVVVVVVVVVVVV:j6Bx8m@VVVV",
"VVVVVVVVVVVVVVVVVVVVVVVVVVVVVVVVVVVVVVVVVVVVVVVVVVVV>jj68mx+VVVV",
"VVVVVVVVVVVVVVVVVVVVVVVVVVVVVVVVVVVVVVVVVVVVVVVVVVVV>jj6Nxx+VVVV",
"VVVVVVVVVVVVVVVVVVVVVVVVVVVVVVVVVVVVVVVVVVVVVVVVVVVV=h88mxxOVVVV",
"VVVVVVVVVVVVVVVVVVVVVVVVVVVVVVVVVVVVVVVVVVVVVVVVVVVV=85511<OVVVV",
"VVVVVVVVVVVVVVVVVVVVVVVVVVVVVVVVVVVVVVVVVVVVVVVVVVVV@;;;BBBOVVVV",
"VVVVVVVVVVVVVVVVVVVVVVVVVVVVVVVVVVVVVVVVVVVVVVVVVVVV>BBBxxx;VVVV",
"VVVVVVVVVVVVVVVVVVVVVVVVVVVVVVVVVVVVVVVVVVVVVVVVVVVV;BxxxxxOVVVV",
"VVVVVVVVVVVVVVVVVVVVVVVVVVVVVVVVVVVVVVVVVVVVVVVVVVVV+Bxxxxx+VVVV",
"%=%%V:=%%%:%%=:%%%:%%=:=:%%:%%:%::::V%:%:::::$:$%OO  Bxxxxx,VVVV",
"xxxx2xxxxxxxxxxxxxxxxxxxxxxxxxxxxxxx3xxxxxxxxxxxxxxxxxxxxxx,VVVV",
"xxxx2xxxxxxxxxxxxxxxxxxxxxxxxxxxxxxx2xxxxxxxxxxxxxxxxxxxxxx,VVVV",
"xxxx2xxxxxxxxxxxxxxxxxxxxxxxxxxxxxxx2xxxxxxxxxxxxxxxxxxxxxx,VVVV",
"BBBB3BBBBBBBBBBBBBBBBBBBBBBBBBBBBBBB3BBBBBBBBBBBBBBBBBBBBBB,VVVV",
"9999 9999999999999999999999999999999 9990006w6wwwwwaiaaappl VVVV",
"9999 9999999999999999999999999999999 999w066wwwwwwwtiipapaz VVVV",
"                                                           VVVVV"
};
