/* XPM */
static char *Wall_11[] = {
/* columns rows colors chars-per-pixel */
"64 64 148 2 ",
"   c #5D2615",
".  c #692D18",
"X  c #6B311B",
"o  c #6E331D",
"O  c #783A21",
"+  c #783D24",
"@  c #7A3E24",
"#  c #7A3F24",
"$  c #7A3E25",
"%  c #7A3F25",
"&  c #763F29",
"*  c #7D4027",
"=  c #7D4329",
"-  c #7F4229",
";  c #7E442A",
":  c #7F442B",
">  c #7F452B",
",  c #7E492F",
"<  c #7E4A30",
"1  c #7F4B32",
"2  c #844B30",
"3  c #815238",
"4  c #9C6847",
"5  c #999222",
"6  c #9C9723",
"7  c #9A9822",
"8  c #9D9823",
"9  c #9E9923",
"0  c #9E9924",
"q  c #9F9B24",
"w  c #9F9C24",
"e  c #A19F25",
"r  c #A19D26",
"t  c #9DA722",
"y  c #ACB028",
"u  c #B4B82F",
"i  c #BBBE33",
"p  c #C1C52D",
"a  c #9A886E",
"s  c #9B8971",
"d  c #9B8B71",
"f  c #9C8971",
"g  c #9C8A71",
"h  c #9D8B73",
"j  c #9E8B73",
"k  c #9E8D73",
"l  c #9F8E76",
"z  c #AC8B6A",
"x  c #A19076",
"c  c #AE9073",
"v  c #A3947B",
"b  c #A3947C",
"n  c #A3947F",
"m  c #A3967F",
"M  c #A5967F",
"N  c #A5987F",
"B  c #B39D7E",
"V  c #A69782",
"C  c #A79880",
"Z  c #A79882",
"A  c #A69982",
"S  c #A79B82",
"D  c #A89984",
"F  c #A89B84",
"G  c #AA9C87",
"H  c #AA9D87",
"J  c #A69789",
"K  c #A59989",
"L  c #A59C89",
"P  c #A79C8B",
"I  c #A79C8D",
"U  c #A79D8D",
"Y  c #A79E8F",
"T  c #AA9F8A",
"R  c #AB9F8A",
"E  c #AB9F8B",
"W  c #A99E8E",
"Q  c #A99E8F",
"!  c #A99F8F",
"~  c #ABA18B",
"^  c #A9A08E",
"/  c #A9A18F",
"(  c #ABA18E",
")  c #ABA38E",
"_  c #AFA28C",
"`  c #ADA18E",
"'  c #ABA090",
"]  c #A9A092",
"[  c #A9A192",
"{  c #ABA092",
"}  c #ABA292",
"|  c #ABA392",
" . c #ADA090",
".. c #ACA390",
"X. c #ADA390",
"o. c #AFA390",
"O. c #ABA294",
"+. c #ABA394",
"@. c #ACA294",
"#. c #ACA394",
"$. c #ACA594",
"%. c #ACA496",
"&. c #AEA496",
"*. c #AEA596",
"=. c #AEA796",
"-. c #AFA899",
";. c #AFA999",
":. c #B0A493",
">. c #B2A597",
",. c #B3A797",
"<. c #B2A995",
"1. c #B3AA97",
"2. c #B4AB97",
"3. c #B4AC97",
"4. c #B0A699",
"5. c #B0A999",
"6. c #B1A89B",
"7. c #B1AA9B",
"8. c #B3AA9D",
"9. c #B3AC9D",
"0. c #B8ACA0",
"q. c #B8B1A4",
"w. c #B9B3A7",
"e. c #BDB7A6",
"r. c #BEB8A8",
"t. c #BEB9A8",
"y. c #BFBAAA",
"u. c #C2B7AC",
"i. c #C2C0B2",
"p. c #C6C3B6",
"a. c #D1C9C1",
"s. c #D5CDC6",
"d. c #D2D0C6",
"f. c #D2D0C7",
"g. c #D4D2C9",
"h. c #D6D5CA",
"j. c #D6D4CD",
"k. c #DDDBD4",
"l. c #DFDDD7",
"z. c #DFDDD8",
"x. c #DFDED8",
"c. c #E0DED8",
"v. c #E0DED9",
"b. c #E0DFD9",
"n. c #E1DFD9",
"m. c #E1DFDA",
"M. c #E3E2DE",
"N. c #E6E5E1",
/* pixels */
"2 2 . . . h.h.h.h.h.a.& 5 5 5 5 5 5 5 5 5 5 5 5 5 q y y y y y y y y y y y y y y y y y y y y y y y y y y $ m.j.h.h.h.h.$ 5 5 p p ",
"h.h.h.h.h.h.h.h.h.h.a.& 5 5 5 5 5 5 5 5 5 5 5 5 5 q y y y y y y y y y y y y y y y y y y y y y y y y y y = M.h.h.h.h.h.O 5 5 p p ",
"h.h.h.h.h.h.h.h.h.h.s.* 5 5 5 5 5 5 5 5 5 5 5 5 5 q y y y y y y y y y y y y y y y y y y y y y y y y y y 2 m.h.h.h.h.h.= 5 5 p p ",
"h.h.h.h.h.h.h.h.h.h.s.* 5 5 5 5 5 5 5 5 5 5 5 5 5 q y y y y y y y y y y y y y y y y y y y y y y y y y y = M.h.h.h.h.h.$ 5 5 p p ",
"M.M.M.M.M.M.N.N.N.N.y.  5 5 5 5 5 5 5 5 5 5 5 5 5 q y y y y y y y y y y y y y y y y y y y y y y y y y y ; * 4 4 4 4 @ $ 5 5 p p ",
"9.8.8.8.7.7.7.-.4.4.y.  5 5 5 5 5 5 5 5 5 5 5 5 5 q y y y y y y y y y y y y y y y y y y y y y y y y y y ; M.v.z.l.l.c.$ 5 5 p p ",
"7.7.7.7.7.7.7.4.-.-.y.  5 5 5 5 5 5 5 5 5 5 5 5 5 q y y y y y y y y y y y y y y y y y y y y y y y y y y 2 M.h.h.h.h.h.$ 5 5 p p ",
"7.7.7.7.7.-.7.$.%.%.0.  5 5 5 5 5 5 5 5 5 5 5 5 5 q y y y y y y y y y y y y y y y y y y y y y y y y y y = m.h.h.h.h.h.$ 5 5 p p ",
"8.;.;.4.4.4.$.4.%.4.0.  5 5 5 5 5 5 5 5 5 5 5 5 5 q y y y y y y y y y y y y y y y y y y y y y y y y y y - N.h.h.h.h.h.$ 5 5 p p ",
"-.=.4.4.$.%.%.%.%.O.0.  5 5 5 5 5 5 5 5 5 5 5 5 5 q y y y y y y y y y y y y y y y y y y y y y y y y y y - m.h.h.h.h.h.$ 5 5 p p ",
"-.$.4.O.$.O.$. .O.[ ,.  5 5 5 5 5 5 5 5 5 5 5 5 5 q y y y y y y y y y y y y y y y y y y y y y y y y y y - N.h.h.h.h.h.$ 5 5 p p ",
"$.4.%.%.%.$.[ O.O.[ ,.  5 5 5 5 5 5 5 5 5 5 5 5 5 q y y y y y y y y y y y y y y y y y y y y y y y y y y = N.h.h.h.h.h.$ 5 5 p p ",
"$.O.O.O.[  .O.' [  .4.  5 5 5 5 5 5 5 5 5 5 5 5 5 q y y y y y y y y y y y y y y y y y y y y y y y y y y 2 m.h.h.h.h.h.$ 5 5 p p ",
"O.O.#.[ ' ' ' ' Q  .E   5 5 5 5 5 5 5 5 5 5 5 5 5 q y y y y y y y y y y y y y y y y y y y y y y y y y y = M.h.h.h.h.h.$ 5 5 p p ",
"O.O. .$.[ ` ^ ^ Q I  .  5 5 5 5 5 5 5 5 5 5 5 5 5 q y y y y y y y y y y y y y y y y y y y y y y y y y y 2 m.h.h.h.h.h.$ 5 5 p p ",
"] / / ' Q Q I P P P K   5 5 5 5 5 5 5 5 5 5 5 5 5 q y y y y y y y y y y y y y y y y y y y y y y y y y y = M.h.h.h.h.h.$ 5 5 p p ",
"] ] / Y ' I I I Q P J   5 5 5 5 5 5 5 5 5 5 5 5 5 q y y y y y y y y y y y y y y y y y y y y y y y y y y : M.h.h.h.h.$ $ 5 5 p p ",
"Y Y I I I K L P K K   5 5 5 5 5 5 5 5 5 5 5 5 5 5 q y y y y y y y y y y y y y y y y y y y y y y y y y y : M.h.h.h.$ _ $ 5 5 p p ",
". . . . . . . . . . 5 5 5 5 5 5 5 5 5 5 5 5 5 5 5 q y y y y y y y y y y y y y y y y y y y y y y y y y y : M.h.h.h.$ ` $ 5 5 p p ",
". a s s d s d d g . 5 5 5 5 5 5 5 5 5 5 5 5 5 5 5 q y y y y y y y y y y y y y y y y y y y y y y y y y y ; M.h.h.$ y._ $ 5 5 p p ",
". g d s d j g g g . 5 5 5 5 5 5 5 5 5 5 5 5 5 5 5 q y y y y y y y y y y y y y y y y y y y y y y y y y y = & 4 4 y.y.e.$ 5 5 p p ",
". s j j d x j g g . 5 5 5 5 5 5 5 5 5 5 5 5 5 5 5 q y y y y y y y y y y y y y y y y y y y y y y y y y y - N.M.M.z c e.$ 5 5 p p ",
". j h l j j j d g . 5 5 5 5 5 5 5 5 5 5 5 5 5 5 5 q y y y y y y y y y y y y y y y y y y y y y y y y y y - N.g.h.M.M.B $ 5 5 p p ",
". l h l j l g g g . 5 5 5 5 5 5 5 5 5 5 5 5 5 5 5 q y y y y y y y y y y y y y y y y y y y y y y y y y y - N.g.j.h.h.M.$ 5 5 p p ",
". s s s d s d g b . 5 5 5 5 5 5 5 5 5 5 5 5 5 5 5 q y y y y y y y y y y y y y y y y y y y y y y y y y y - N.h.h.h.h.h.$ 5 5 p p ",
". g d s h s s d b . 5 5 5 5 5 5 5 5 5 5 5 5 5 5 5 q y y y y y y y y y y y y y y y y y y y y y y y y y y - m.h.h.h.h.h.$ 5 5 p p ",
". j d k j x j m b . 5 5 5 5 5 5 5 5 5 5 5 5 5 5 5 q y y y y y y y y y y y y y y y y y y y y y y y y y y - N.h.h.h.h.h.$ 5 5 p p ",
"j j k k j j d v b . 5 5 5 5 5 5 5 5 5 5 5 5 5 5 5 q y y y y y y y y y y y y y y y y y y y y y y y y y y = N.h.h.h.h.h.$ 5 5 p p ",
". l j j j x v v b . 5 5 5 5 5 5 5 5 5 5 5 5 5 5 5 q y y y y y y y y y y y y y y y y y y y y y y y y y y 2 m.h.h.h.h.h.$ 5 5 p p ",
". l d x x j m v b . 5 5 5 5 5 5 5 5 5 5 5 5 5 5 5 q y y y y y y y y y y y y y y y y y y y y y y y y y y = M.h.h.h.h.h.$ 5 5 p p ",
". x j d h v v v b . 5 5 5 5 5 5 5 5 5 5 5 5 5 5 5 q y y y y y y y y y y y y y y y y y y y y y y y y y y 2 v.h.h.h.h.h.$ 5 5 p p ",
". j j x j m m v b . 5 5 5 5 5 5 5 5 5 5 5 5 5 5 5 q y y y y y y y y y y y y y y y y y y y y y y y y y y ; M.h.h.h.h.h.$ 5 5 p p ",
". x x d b b b b b . 5 5 5 5 5 5 5 5 5 5 5 5 5 5 5 q y y y y y y y y y y y y y y y y y y y y y y y y y y $ M.h.h.h.h.h.+ 5 5 p p ",
". j d x b b b b b . 5 5 5 5 5 5 5 5 5 5 5 5 5 5 5 q y y y y y y y y y y y y y y y y y y y y y y y y y y ; M.h.h.h.h.h.O 5 5 p p ",
". d j b b b b b b . 5 5 5 5 5 5 5 5 5 5 5 5 5 5 5 q y y y y y y y y y y y y y y y y y y y y y y y y y y : M.h.h.h.h.h.= 5 5 p p ",
"X k j b b b b x b . q 5 5 5 5 5 5 5 5 5 5 5 5 5 5 q y y y y y y y y y y y y y y y y y y y y y y y y y y : M.h.h.h.h.h.* 5 5 p p ",
"m j b b b b b m b . 6 5 5 5 5 5 5 5 5 5 5 5 5 5 5 q y y y y y y y y y y y y y y y y y y y y y y y y y y = & 4 4 4 4 + * 5 5 p p ",
". x ` ` ` 1.2.2.1.. 6 5 5 5 5 5 5 5 5 5 5 5 5 5 5 q y u y y y y y y y y y y y y y y y y y y y y y y y y - N.x.x.b.b.l.@ 5 5 p p ",
"o 1 1 , 1 , , 1 3 X 6 5 5 5 5 5 5 5 5 5 5 5 5 5 5 q i i y y y y y y y y y y y y y y y y y y y y y y y y - N.g.h.h.h.h.$ 5 5 p p ",
". A b N b N N m m . 6 5 5 5 5 5 5 5 5 5 5 5 5 5 5 r i t y y y y y y y y y y y y y y y y y y y y y y y y - N.g.j.h.h.h.$ 5 5 p p ",
". b V m m b A A g.. 6 5 5 5 5 5 5 5 5 5 5 5 5 5 5 r u y y y y y y y y y y y y y y y y y y y y y y y y y = M.h.h.h.h.h.$ 5 5 p p ",
". D A A A A D D g.. 6 5 5 5 5 5 5 5 5 5 5 5 5 5 5 7 t y y y y y y y y y y y y y y y y y y y y y y y y y - M.h.h.h.h.h.$ 5 5 p p ",
". D S F F F D i.g.. 6 5 5 5 5 5 5 5 5 5 5 5 5 5 5 q y y y y y y y y y y y y y y y y y y y y y y y y y y : N.h.h.h.h.h.$ 5 5 p p ",
". F F F F S S i.d.. 6 5 5 5 5 5 5 5 5 5 5 5 5 5 5 q y y y y y y y y y y y y y y y y y y y y y y y y y y - M.h.h.h.h.h.@ 5 5 p p ",
". G G E F F i.i.d.. 6 5 5 5 5 5 5 5 5 5 5 5 5 5 5 q y y y y y y y y y y y y y y y y y y y y y y y y y y 2 m.h.h.h.h.h.$ 5 5 p p ",
"F H F F R H i.i.d.. 6 5 5 5 5 5 5 5 5 5 5 5 5 5 5 q y y y y y y y y y y y y y y y y y y y y y y y y i y ; M.h.h.h.h.h.$ 5 5 p p ",
". _ F E H i.i.i.d.. 6 5 5 5 5 5 5 5 5 5 5 5 5 5 5 q y y y y y y y y y y y y y y y y y y y y y y y y t u ; M.h.h.h.h.h.$ 5 5 p p ",
". E E E _ i.i.i.d.. 6 5 5 5 5 5 5 5 5 5 5 5 5 5 5 q y y y y y y y y y y y y y y y y y y y y y y y y t u ; M.h.h.h.h.h.$ 5 5 p p ",
". ~ ~ E i.i.i.i.d.. 6 5 5 5 5 5 5 5 5 5 5 5 5 5 5 w y y y y y y y y y y y y y y y y y y y y y y y y y t : M.h.h.h.h.h.$ 5 5 p p ",
". ^ ^ ~ i.i.i.i.d.. 0 5 5 5 5 5 5 5 5 5 5 5 5 5 5 0 y y y y y y y y y y y y y y y y y y y y y y y y y y ; M.h.h.h.h.h.$ 5 5 p p ",
". X.` i.i.i.i.i.d.. 0 5 5 5 5 5 5 5 5 5 5 5 5 5 5 0 y y y y y y y y y y y y y y y y y y y i i u y y y y ; M.h.h.h.h.h.$ 5 5 p p ",
". X.` i.i.i.i.i.d.. 7 5 5 5 5 5 5 5 5 5 5 5 5 5 5 w y y y y y y y y y y y y y y y y y y y y i u u y y y = $ $ h.h.h.h.$ 5 5 p p ",
". X.i.i.i.i.i.i.s.. 0 5 5 5 5 5 5 5 5 5 5 5 5 5 5 r y y y y y y y y y y y y y y y y y y y y t u u y y y : ` _ $ $ 4 4 $ 5 5 p p ",
". :.i.i.i.i.i.i.d.. 0 5 5 5 5 5 5 5 5 5 5 5 5 5 5 q y y y y y y y y y y y y y y y y y y y y y t t y y y : p._ _ ` x.x.$ 5 5 p p ",
"i.i.i.i.i.i.i.i.k.. 0 5 5 5 5 5 5 5 5 5 5 5 5 5 5 q y y y y y y y y y y y y y y y y y y y y y y y y y y : p.p.l.c.h.h.$ 5 5 p p ",
"i.i.i.i.i.i.i.i.k.. 6 5 5 5 5 5 5 5 5 5 5 5 5 5 5 q y y y y y y y y y y y y y y y y y y y y y y y y y y : p.M.h.h.h.h.$ 5 5 p p ",
"i.i.i.i.i.i.i.i.k.. 6 5 5 5 5 5 5 5 5 5 5 5 5 5 5 0 y y y y y y y y y y y y y y y y y y y y y y y y y y - N.h.h.h.h.h.$ 5 5 p p ",
"i.i.i.i.i.i.i.i.x.. 6 5 5 5 5 5 5 5 5 5 5 5 5 5 5 0 y y y y y y y y y y y y y y y y y y y y y y y y y y - m.h.h.h.h.h.$ 5 5 p p ",
"i.i.i.i.i.i.i.i.x.. 6 5 5 5 5 5 5 5 5 5 5 5 5 5 5 0 y y y y y y y y y y y y y y y y y y y y y y y y y y - N.h.h.h.h.h.$ 5 5 p p ",
"j.j.j.k.l.x.x.x.x.. 6 5 5 5 5 5 5 5 5 5 5 5 5 5 5 w y y y y y y y y y y y y y y y y y y y y y y y y y y = N.h.h.h.h.h.$ 5 5 p p ",
"I ^ I I I I I I q.. 6 5 5 5 5 5 5 5 5 5 5 5 5 5 5 0 y y y y y y y y y y y y y y y y y y y y y y y y y y 2 m.h.h.h.h.h.$ 5 5 p p ",
"I I ^ I ^ I ^ I q.. 6 5 5 5 5 5 5 5 5 5 5 5 5 5 5 w y y y y y y y y y y y y y y y y y y y y y y y y y y = M.h.h.h.h.h.$ 5 5 p p ",
"^ I L I I I I I w.. w 7 0 6 0 0 7 0 0 6 6 0 6 0 0 e y y y y y y y y y y y y y y y y y y y y y y y y y y = m.h.h.h.h.h.$ 5 5 p p ",
". . . . . . . . . y y y y y y y y y y y y y y y y y y y y y y y y y y y y y y y y y y y y y y y y y y y 2 M.h.h.h.h.h.$ 5 5 p p "
};
