/* XPM */
static char *Wall_0[] = {
/* columns rows colors chars-per-pixel */
"64 64 38 1 ",
"  c #55321C",
". c #56331D",
"X c #55341E",
"o c #56341E",
"O c #56341F",
"+ c #56351F",
"@ c #563520",
"# c #573521",
"$ c #573621",
"% c #573722",
"& c #583621",
"* c #583622",
"= c #583724",
"- c #583824",
"; c #624430",
": c #654935",
"> c #6C5847",
", c #6D5A4B",
"< c #6B5F51",
"1 c #6F6050",
"2 c #6B6256",
"3 c #736E62",
"4 c #736E63",
"5 c #746F63",
"6 c #746F64",
"7 c #747064",
"8 c #777165",
"9 c #797468",
"0 c #868579",
"q c #8E8D83",
"w c #8E8D84",
"e c #8F8D84",
"r c #8F8D85",
"t c #908E85",
"y c #908E86",
"u c #919088",
"i c #94928B",
"p c None",
/* pixels */
"pppppppppppppppppppppppppppppppppppppppppppppppppppp=i00000Opppp",
"pppppppppppppppppppppppppppppppppppppppppppppppppppp=i00000Opppp",
"pppppppppppppppppppppppppppppppppppppppppppppppppppp=i00000Opppp",
"pppppppppppppppppppppppppppppppppppppppppppppppppppp=i00000Opppp",
"pppppppppppppppppppppppppppppppppppppppppppppppppppp=i00000Opppp",
"pppppppppppppppppppppppppppppppppppppppppppppppppppp=i00000Opppp",
"pppppppppppppppppppppppppppppppppppppppppppppppppppp=i00000Opppp",
"pppppppppppppppppppppppppppppppppppppppppppppppppppp=i00000Opppp",
"pppppppppppppppppppppppppppppppppppppppppppppppppppp=i0000iOpppp",
"pppppppppppppppppppppppppppppppppppppppppppppppppppp=i00ii1Opppp",
"pppppppppppppppppppppppppppppppppppppppppppppppppppp=iii>,4Opppp",
"pppppppppppppppppppppppppppppppppppppppppppppppppppp=#::754Opppp",
"pppppppppppppppppppppppppppppppppppppppppppppppppppp=i00O62Opppp",
"pppppppppppppppppppppppppppppppppppppppppppppppppppp=i000O2Opppp",
"pppppppppppppppppppppppppppppppppppppppppppppppppppp=i000O2Opppp",
"pppppppppppppppppppppppppppppppppppppppppppppppppppp=i0000OOpppp",
"pppppppppppppppppppppppppppppppppppppppppppppppppppp=i00000Opppp",
"pppppppppppppppppppppppppppppppppppppppppppppppppppp=i00000Opppp",
"pppppppppppppppppppppppppppppppppppppppppppppppppppp=i00000Opppp",
"pppppppppppppppppppppppppppppppppppppppppppppppppppp=i00000Opppp",
"pppppppppppppppppppppppppppppppppppppppppppppppppppp=i00000Opppp",
"pppppppppppppppppppppppppppppppppppppppppppppppppppp=i00000Opppp",
"pppppppppppppppppppppppppppppppppppppppppppppppppppp=i00000Opppp",
"pppppppppppppppppppppppppppppppppppppppppppppppppppp=i00000Opppp",
"pppppppppppppppppppppppppppppppppppppppppppppppppppp-i00000Opppp",
"pppppppppppppppppppppppppppppppppppppppppppppppppppp-i00000Opppp",
"pppppppppppppppppppppppppppppppppppppppppppppppppppp=iteeeeOpppp",
"pppppppppppppppppppppppppppppppppppppppppppppppppppp=#::::OOpppp",
"pppppppppppppppppppppppppppppppppppppppppppppppppppp-i00000Opppp",
"pppppppppppppppppppppppppppppppppppppppppppppppppppp-i00000#pppp",
"pppppppppppppppppppppppppppppppppppppppppppppppppppp%i00000 pppp",
"ppppppppppppppppppppppppppppppppppppppppppppppppppppOi00000Opppp",
"pppppppppppppppppppppppppppppppppppppppppppppppppppp=i00000@pppp",
"pppppppppppppppppppppppppppppppppppppppppppppppppppp=i00000Xpppp",
"pppppppppppppppppppppppppppppppppppppppppppppppppppp=i00000Xpppp",
"pppppppppppppppppppppppppppppppppppppppppppppppppppp=i00000#pppp",
"pppppppppppppppppppppppppppppppppppppppppppppppppppp=i00000Opppp",
"pppppppppppppppppppppppppppppppppppppppppppppppppppp=i00000Opppp",
"pppppppppppppppppppppppppppppppppppppppppppppppppppp=i00000Opppp",
"pppppppppppppppppppppppppppppppppppppppppppppppppppp=i00000Opppp",
"pppppppppppppppppppppppppppppppppppppppppppppppppppp*i00000@pppp",
"pppppppppppppppppppppppppppppppppppppppppppppppppppp=i00000Xpppp",
"pppppppppppppppppppppppppppppppppppppppppppppppppppp=iqttee@pppp",
"pppppppppppppppppppppppppppppppppppppppppppppppppppp=*::::XXpppp",
"pppppppppppppppppppppppppppppppppppppppppppppppppppp=i00000Opppp",
"pppppppppppppppppppppppppppppppppppppppppppppppppppp=i00000Opppp",
"pppppppppppppppppppppppppppppppppppppppppppppppppppp=i00000Opppp",
"pppppppppppppppppppppppppppppppppppppppppppppppppppp=i00000Opppp",
"pppppppppppppppppppppppppppppppppppppppppppppppppppp=i00000Opppp",
"pppppppppppppppppppppppppppppppppppppppppppppppppppp=i00000Xpppp",
"pppppppppppppppppppppppppppppppppppppppppppppppppppp=i00000Xpppp",
"pppppppppppppppppppppppppppppppppppppppppppppppppppp=i00000*pppp",
"pppppppppppppppppppppppppppppppppppppppppppppppppppp=<i0000Xpppp",
"pppppppppppppppppppppppppppppppppppppppppppppppppppp-7i0000#pppp",
"pppppppppppppppppppppppppppppppppppppppppppppppppppp=8i0009Xpppp",
"pppppppppppppppppppppppppppppppppppppppppppppppppppp=8<i02tOpppp",
"pppppppppppppppppppppppppppppppppppppppppppppppppppp-87<2t0Opppp",
"pppppppppppppppppppppppppppppppppppppppppppppppppppp-87<u00Opppp",
"pppppppppppppppppppppppppppppppppppppppppppppppppppp=8<<t00Opppp",
"pppppppppppppppppppppppppppppppppppppppppppppppppppp=<11::;Xpppp",
"ppppppppppppppppppppppppppppppppppppppppppppppppppppOO**iiiOpppp",
"pppppppppppppppppppppppppppppppppppppppppppppppppppp-iii000Opppp",
"pppppppppppppppppppppppppppppppppppppppppppppppppppp*i00000Xpppp",
"ppppppppppppppppppppppppppppppppppppppppppppppppppppOi00000Opppp"
};
