/* XPM */
static char *Wall_02[] = {
/* columns rows colors chars-per-pixel */
"64 64 99 2 ",
"   c #692D18",
".  c #6A3822",
"X  c #733A23",
"o  c #7A3B22",
"O  c #763F29",
"+  c #6B402A",
"@  c #77412A",
"#  c #7A442D",
"$  c #7A452F",
"%  c #7C4B33",
"&  c #7C4E35",
"*  c #7F4D37",
"=  c #7F4E37",
"-  c #7F5039",
";  c #8C4B2E",
":  c #844B30",
">  c #834E33",
",  c #80523C",
"<  c #82523C",
"1  c #82563F",
"2  c #88583F",
"3  c #855741",
"4  c #875B44",
"5  c #875B46",
"6  c #875C46",
"7  c #8E5E41",
"8  c #875D48",
"9  c #88634C",
"0  c #8A624C",
"q  c #8A644E",
"w  c #8A654F",
"e  c #97684A",
"r  c #8A6751",
"t  c #8D6853",
"y  c #8D6C55",
"u  c #8E6D57",
"i  c #8E6D59",
"p  c #8E705A",
"a  c #90715B",
"s  c #90715C",
"d  c #90725C",
"f  c #90735F",
"g  c #90755F",
"h  c #8B7764",
"j  c #917761",
"k  c #927661",
"l  c #937663",
"z  c #937A65",
"x  c #907A67",
"c  c #907D67",
"v  c #927D67",
"b  c #927D69",
"n  c #977F6C",
"m  c #ACB028",
"M  c #9C8C7E",
"N  c #A08263",
"B  c #A28263",
"V  c #A38463",
"C  c #A59689",
"Z  c #A5988B",
"A  c #A79D8D",
"S  c #A79C8F",
"D  c #A9A092",
"F  c #A9A192",
"G  c #ABA294",
"H  c #ABA394",
"J  c #ACA496",
"K  c #ACA596",
"L  c #ADA699",
"P  c #AFA699",
"I  c #AFA899",
"U  c #AFA999",
"Y  c #B1A89B",
"T  c #B1AA9B",
"R  c #B1AB9B",
"E  c #B1AA9D",
"W  c #B3AA9D",
"Q  c #B3AC9D",
"!  c #B3AD9D",
"~  c #B3ACA0",
"^  c #B3AEA0",
"/  c #B4AEA0",
"(  c #B4AFA0",
")  c #B4AEA1",
"_  c #B6B0A3",
"`  c #B8B1A5",
"'  c #B8B2A5",
"]  c #B9B3A6",
"[  c #B9B3A7",
"{  c #B9B4A7",
"}  c #BFBAAF",
"|  c #C2C0B2",
" . c #D6D5CA",
".. c #D6D4CD",
"X. c #D8D7CD",
"o. c #E1DFDB",
"O. c #E1E0DB",
"+. c #E3E2DE",
"@. c #E6E5E1",
/* pixels */
": : : : : : : : : : : : : : : : m : : : : : : : : : : : : : : : : : : : : : : : : : : : : : : : m : : : ; : : : : : : : : : : : ",
" . . . . . . . . . . . . . .X. .7  . . . . . . . . . . . . . . . . . . . . . . . . . . . . .X. .7  . . . . . . . . . . . . . . .",
" . . . . . . . . . . . . . . . .e  . . . . . . . . . . . . . . . . . . . . . . . . . . . . . . .e  . . . . . . . . . . . . . . .",
" . . . . . . . . . . . . . . . .B  . . . . . . . . . . . . . . . . . . . . . . . . . . . . . . .V  . . . . . . . . . . . . . . .",
"o.o.o.o.o.o.o.o.o.o.o.o.+.@.@.@.B +.@.@.@.+.+.+.+.+.+.+.+.+.+.+.o.o.o.o.o.o.o.o.o.o.o.o.+.@.@.@.V o.@.@.@.+.+.+.+.+.+.+.+.+.+.+.",
"( ( ( ~ ( ( ~ ( ( ( ( ( ( ( ( ( 2 ( ( ( ! ! _ ! ( ( W ! ! ! ! ! / / / / ( ( ~ ( ( ( ( ( ( ( ( ( 3 ( / / ! / / / ( ( W ! ! ! ! ! ",
"( ( ( ( ~ ~ ( ( ( ( ( ( ! _ ( ~ 2 ( ~ ! ! ! ( ( ( ! ! ! ! ! ! ! / / / / / ~ ( ( ( ( ( ( ( ( ! ( 3 / / ! ! ! / / ( W ! ! W ! W ! ",
"( ( ~ ( ( ( ( ~ ! W ! ! ! ! W W 3 ( ! ! ! ! ! ! W ! W ! ! W W ! / / / / / ( ( ~ ! ! W ! ! W ! ! 2 / ! ! ! Q ! ! ! ! W ! ! ! W ! ",
"! ! ! ! ! ! ! ! ! ! ! ! ! ! ! ! 2 ! ! ! ! ! R R ! ! ! ! ! ! U U / ! ! ! ! ! ! ! ! ! ! W R ! ! ! 3 ! ! ! ! ! U ! ! W ! ! ! ! Y Y ",
"! ! ! R ! ! ! R ! W ! R Y R R Y 2 Y Y Y R Y Y Y Y Y Y Y U ~ U U ! ! ! W ! ! ! ! ! ! ! Y R R R R 2 Y U ! U ! Y Y Y Y Y Y Y Y R R ",
"! Y R Y Y R Y Y W Y Y R R R R Y 3 ! Y Y Y Y Y Y U U Y U U U U U R Y W W R Y Y Y Y R Y R Y R Y Y 2 Y Y Y Y Y P Y Y U U U U U U U ",
"U U I I I Y I I Y I I I Y Y Y Y > Y Y U U P U P P P L L U U U U I I I I I I I I I I I I Y Y Y Y > Y Y U P U P P U P P P U U U U ",
"U U U P Y Y I I K Y Y Y I I I I X J J J J J J J P K K K J J L K I I I I I I Y I I I I I I I Y Y X K K K J P H K K K K K K K K K ",
"K K P K K K K K K K K K K K K K X H J J J J J H K K K K J J H L K K I K K K K K K K K K K K K H X K K K J H J P K K K K K K K K ",
"K K K K K K K H K K H H K H H H X H H H K H H H H H H H J H J J K K K K K K K H K K K K H K H H X H H H H H H H H H H H H H H K ",
"D D D D D D D H D H H H H H H H X H H H H H H H H H H H F J F F D D D D D D D H D H H H H H H H X H H H G G G G H H H H H H H H ",
"D D D D D D D D D D D D D D D D X D D D D D D D D D D D D D D D D D D D D D D D D D D D D D D D X D D D F F F F D D D D D D D D ",
"D D D D D D D D D D D D D D D D   D D D D D D D S Z D D D D D D D D D D D D D D D D D D D D D D   D D D F F F F D D D D D D D D ",
"                                c                                                               h                               ",
"c c c c c c c c c c c c c c c c c c c c c c c . h h h h h h h h h h h h h h h h h h h h h h h h h h h h h h h . x x c c b b b c ",
"c c c c c c c c c c c c c c c c c c c c c c c . h h h h h h h h h h h h h h h h h h h h h h h h h h h h h h h . c c v v b c c b ",
"c c c c c c c c c c c c c c c c c c c c c c c + h h h h h h h h h h h h h h h h h h h h h h h h h h h h h h h + c c v v b b c b ",
"c c c c c c c c c c c c c c c c c c c c c c c + h h h h h h h h h h h h h h h h h h h h h h h h h h h h h h h . c c c v v v c b ",
"c c c c c c c c c c c c c c c c c c c c c c c + h h h h h h h h h h h h h h h h h h h h h h h h h h h h h h h O c c c v v v v b ",
"c c c c z c c c c c c c c c c c c c c c c c c . h h h h h h h h h h h h h h h h h h h h h h h h h h h h h h h . z x b c c v v v ",
"D D D D D D D D D D D D D D D D D D D D F F F 3 C M M M M M M M M M M M M M M M M M M M M M M M M M M M M M C 3 D D D D D D D D ",
"D D D D D D D D D D D D D D D D D D D D H F D @ M M M M C M M C M M M M M M M M M M M C M C M M M M C C M M M @ D D D D D D D D ",
"z z z z z a a a z z z n n n n n n n n 3 - & % # $ $ $ 1 3 3 1 8 5 8 8 8 8 M M M C - h n x b x x x h N 1 - % % # $ < n n n n n n ",
"( ( ( ( ( ~ a ~ ~ ~ ~ ~ ~ ~ ~ ~ ~ ~ ~ ~ ~ ~ ~ ~ E E ~ ~ ~ ~ ) ` { ` { ` [ 3 M M 1 ` [ ` ~ ~ ~ ~ E ~ ~ ~ ~ ~ ~ ~ ~ ~ ~ ~ W ( ~ ~ ",
"D D D D D D a D D D D D D D D D D D D D D D D D F F D D D D D D F F F D H ( - 3 ) D D D D D D D D D D D D D D D D D D D D D D D ",
"D D D D D D a D D D D D D D D D D D D D D D D D D D D D D D D D F F D D D D 3 ` D D D D D D D D D D D D D D D D D D D D D D D D ",
"D D D D D D a D D D D D D D D D D D D D D D D D D D D D D D D D D D D D D D 1 F D D D D D D D D D D D D D D D D D D D D D D D D ",
"D D D D D D p D D D D D D D D D D D D D D D D D D D D D D D D D D D D D D D 3 D D D D D D D D D D D D D D D D D D D D D D D D D ",
"D D D D D H p D D D D D D D D D D D D D D D D D D D D D D D D D D D D D D D 1 D D D D D D D D D D D D D D D D D D D D D D D D D ",
"D D D D D D 3 D D D D D D D D D D D D D D D D D D D D D D D D D D D D D D D 1 D D D D F D D D D D D D D D D D D D D D D D D D D ",
"D D D D D D - D D D D D D D D F D D D D D D D S D D D D D D D D D D D D D F - D D D D F D D D D D D D D D D D D D D D D D D D D ",
"r r r * * @ O $ * n n n N M x b n N n n 9 w r h r r 9 N n n n n w w w * * @ O $ * n n n n n n n n n N b r r r h r r 0 n n n n n ",
"J L L J L L L L L L L L J P J J ~ ~ ~ ~ ~ ~ E i ~ ~ ~ ~ ~ ~ ~ ~ L L L L L L L L J P L L P P P H ~ ~ _ ~ ~ ~ E i ~ ~ ~ ~ ~ ~ ~ ~ ",
"S S S S S S S S S S S S S S S S S S D S S S D i S S S S S S S S S S S S S S S S S S S S S S S S S S S S S S S i S S S S S S S S ",
"S S S S S S S S S S S S S S S S S S S S S S S r S S S S S S S S S S S S S S S S S S S S S S S S S S S S S S S r S S S S S S S S ",
"S S S S S S S S S S S S S S S S S S S S S S S h C S S S S S S S S S S S S S S S S S S S S S S S S S S S S S S l C S S S S S S S ",
"S S S S S S S S S S S S S S S S S S S S S S S l Z S S S S S S S S S S S S S S S S S S S S S S S S S S S S S S l Z S S S S S S S ",
"S S S S S S S S S S S S S S S S S S S S S S S l S S S S S S S S S S S S S S S S S S S S S S S S S S S S S S S l S S S S S S S S ",
"S S S S S S S S S S S S S S S S S S S S S S S O S S S S S S S S S S S S S S S S S S S S S S S S S S S S S S S O S S S S S S S S ",
"S S S Z S S S S S S S S S S S S S S S S S S S O S S S S S S S S S S S Z S S S S S S A S S S S S S S S S S S S O S S S S S S S S ",
"n n n y i r y y l l p z f f a f s s h p O O O O @ @ p p p p p p n n n y y r y y l h h l g f f f p p f f O O O O O O p p i p p p ",
"~ ~ ~ ~ ~ ~ y } } } } } } } } } } } } } } } } } } } } } } } } } } } } } } } y ~ ~ ~ ~ ~ W Y ( ~ ~ ~ ! ~ ~ ~ ~ ~ ~ ~ ~ ~ ~ ~ ~ ~ ",
"S S S S S S y ~ ~ ~ ~ ~ ( W ~ ~ ~ ~ ~ ~ ~ ~ ~ ~ ~ ~ ~ ~ ~ ~ ~ ~ ~ ~ ~ ~ ~ ~ y S S S S S D S S S S S S S S S S S S S S S S S S S ",
"S S S S S S y ~ ~ ~ ~ ~ ~ ~ ~ ~ ~ ~ ~ ~ ~ ~ ~ ~ ~ ~ ~ ~ ~ ~ ~ ~ ~ ~ ~ ~ ~ ~ y S S S S S S S S S S S S S S S S S S S S S S S S S ",
"S S S S S S z ~ ~ ~ ~ ~ ~ ~ ~ ~ ~ ~ ~ ~ ~ ~ ~ ~ ~ ~ ~ ~ ~ ~ ~ ~ ~ ~ ~ ~ ~ ~ x S S S S S S S S S S S S S S S S S S S S S S S S S ",
"S S S S S S n ~ ~ ~ ~ ~ ~ ~ ~ ~ ~ ~ ~ ~ ~ ~ ~ ~ ~ ~ ~ ~ ~ ~ ~ ~ ~ ~ ~ ~ ~ ~ N S S S S S S S S S S S S S S S S S S S S S S S S S ",
"S S S S S S 3 ~ ~ ~ ~ ~ ~ ~ ~ ~ ~ ~ ~ ~ ~ ~ ~ ~ ~ ~ ~ ~ ~ ~ ~ ~ ~ ~ ~ ~ ~ ~ 1 S S S S S S S S S S S S S S S S S S S S S S S S S ",
"S S S S S S * ~ ~ ~ ~ ~ ~ ~ ~ ~ ~ ~ ~ ~ ~ ~ ~ ~ ~ ~ ~ ~ ~ ~ ~ ~ ~ ~ ~ ~ ~ ~ = S S S S S S S S S S S S S S S S S S S S S S S S S ",
"S S S S S S * ~ ~ ~ ~ ~ ~ ~ ~ ~ ~ ~ ~ ~ ~ ~ ~ ~ ~ ~ ~ ~ ~ ~ ~ ~ ~ ~ ~ ~ ~ ~ - S S S S S S S S S S S S S S S S S S S S S S S S S ",
"o o o o o o o o o o o o o o X o Y o o o o o o o o o o o o o o o o O o o o o o o o o o o o o o o S o o o o o o o o o o o o o o o ",
"| | | | | | | | | | | | | | | | ; | | | | | | | | | | | | | | | | | | } | | | | | | | | | | | | ; | | | | | | | | | | | | | | | ",
"| | | | | | | | | | | | | | | | N | | | | | | | | | | | | | | | | | | | | | | | | | | | | | | | N | | | | | | | | | | | | | | | ",
"| | | | | | | | | | | | | | | | N | | | | | | | | | | | | | | | | | | | | | | | | | | | | | | | N | | | | | | | | | | | | | | | ",
"| | | | | | | | | | | | | | | | N | | | | | | | | | | | | | | | | | | | | | | | | | | | | | | | N | | | | | | | | | | | | | | | ",
"................................N .... ............................................... .........N ............ .................",
"A A A A A A A A A A A A A A A A B S S A A A A A A A A A A A A A A A A A A A A A A A A A A A A A N S A A A A A A A A A A S A A A ",
"A A A A A A A A A A A A A A A A B A S A A A A A A A A A A A A A A A A A A A A A A A A A A A A A N S A A A A A A A A A A S A A A ",
"A A A A A A A A A A A A A A A A   A A A A A A A A A A A A A A A A A A A A A A A A A A A A A A A   A A A A A A A A A A A A A A A ",
"                                                                                                                                "
};
