/* XPM */
static char *Wall_01[] = {
/* columns rows colors chars-per-pixel */
"64 64 147 2 ",
"   c #602715",
".  c #622815",
"X  c #642916",
"o  c #662A16",
"O  c #692D18",
"+  c #6B2E1A",
"@  c #6B311B",
"#  c #6B321C",
"$  c #6E331D",
"%  c #6E341E",
"&  c #71341E",
"*  c #71341F",
"=  c #71351F",
"-  c #73371F",
";  c #763B22",
":  c #763B24",
">  c #763C25",
",  c #783B22",
"<  c #7A3C24",
"1  c #793E25",
"2  c #7B4027",
"3  c #7E472D",
"4  c #82492E",
"5  c #834B30",
"6  c #8A5A3D",
"7  c #8D5D41",
"8  c #926346",
"9  c #9D7A5C",
"0  c #959E22",
"q  c #9DA722",
"w  c #ACB028",
"e  c #B4B82F",
"r  c #BBBE33",
"t  c #A59989",
"y  c #A59C89",
"u  c #A59C8B",
"i  c #A79C8B",
"p  c #A79C8D",
"a  c #A79D8D",
"s  c #A79E8F",
"d  c #A79F8F",
"f  c #A99E8F",
"g  c #A99F8F",
"h  c #A9A18F",
"j  c #A9A092",
"k  c #A9A192",
"l  c #ABA092",
"z  c #ABA292",
"x  c #ABA392",
"c  c #ABA294",
"v  c #ABA394",
"b  c #ACA294",
"n  c #ACA394",
"m  c #ABA594",
"M  c #ACA496",
"N  c #ACA596",
"B  c #AEA496",
"V  c #AEA596",
"C  c #ADA699",
"Z  c #AFA699",
"A  c #AFA899",
"S  c #AFA89B",
"D  c #AFAA9B",
"F  c #B0A699",
"G  c #B0A899",
"H  c #B1A89B",
"J  c #B1AA9B",
"K  c #B2AA9B",
"L  c #B2AC99",
"P  c #B3AD99",
"I  c #B2AD9B",
"U  c #B3AD9B",
"Y  c #B3AA9D",
"T  c #B3AC9D",
"R  c #B3AD9D",
"E  c #B3AE9D",
"W  c #B5AE9D",
"Q  c #B5AF9D",
"!  c #B4ACA0",
"~  c #B4AEA0",
"^  c #B4AFA0",
"/  c #B6AFA2",
"(  c #B4B0A1",
")  c #B6B0A0",
"_  c #B7B0A0",
"`  c #B6B2A0",
"'  c #B7B2A0",
"]  c #B6B1A2",
"[  c #B6B0A3",
"{  c #B8B2A2",
"}  c #B8B3A2",
"|  c #B8B4A2",
" . c #B8B1A4",
".. c #B8B1A5",
"X. c #B8B3A4",
"o. c #B9B1A6",
"O. c #B9B3A6",
"+. c #B9B3A7",
"@. c #B8B4A4",
"#. c #B9B4A4",
"$. c #B9B5A4",
"%. c #BBB7A6",
"&. c #BCB7A6",
"*. c #BCB9A8",
"=. c #BEB9A8",
"-. c #BEBAAA",
";. c #BEBAAB",
":. c #BEBCAD",
">. c #BFBCAD",
",. c #BFBDAD",
"<. c #C1BDAE",
"1. c #C1BFAF",
"2. c #C1BFB1",
"3. c #C2BFB1",
"4. c #DFCB82",
"5. c #C2C0B2",
"6. c #C3C1B4",
"7. c #C3C0B6",
"8. c #C5C2B4",
"9. c #C5C3B4",
"0. c #C6C3B4",
"q. c #C5C3B6",
"w. c #C6C3B6",
"e. c #C7C4B8",
"r. c #C7C5B8",
"t. c #CECCC3",
"y. c #D0CDC5",
"u. c #D0CEC6",
"i. c #D3D1C7",
"p. c #D3D1C9",
"a. c #D4D2C9",
"s. c #D4D2CA",
"d. c #D6D5CA",
"f. c #D6D4CD",
"g. c #D7D5CE",
"h. c #D9D7D0",
"j. c #DDDBD4",
"k. c #DDDCD6",
"l. c #DEDDD7",
"z. c #E0DED9",
"x. c #E1DFDA",
"c. c #E2E1DD",
"v. c #E3E2DE",
"b. c #E7E6E2",
"n. c #E8E7E3",
"m. c #EAEFF1",
"M. c #F3F2F0",
/* pixels */
"w w w w w w w w w w w w w w w w w w w w w w w w w w w w w w w w w w w w w w w w w w w w w w w w w w w w < v.d.d.d.d.d.< ; ; 4 4 ",
"w w w w w w w w w w w w w w w w w w w w w w w w w w w w w w w w w w w w w w w w w w w w w w w w w w w w < b.d.d.d.d.d.d.d.d.d.d.",
"w w w w w w w w w w w w w w w w w w w w w w w w w w w w w w w w w w w w w w w w w w w w w w w w w w w w , b.d.d.d.d.d.d.d.d.d.d.",
"w w w w w w w w w w w w w w w w w w w w w w w w w w w w w w w w w w w w w w w w w w w w w w w w w w w w , b.d.d.d.d.d.d.d.d.d.d.",
"w w w w w w w w w w w w w w w w w w w w w w w w w w w w w w w w w w w w w w w w w w w w w w w w w w w w O f.b.n.n.n.b.v.v.v.v.v.",
"w w w w w w w w w w w w w w w w w w w w w w w w w w w w w w w w w w w w w w w w w w w w w w w w w w w w o f.X.[ [ [ [ / ........",
"w w w w w w w w w w w w w w w w w w w w w w w w w w w w w w w w w w w w w w w w w w w w w w w w w w w w o f./ / ^ ^ ^ ^ ( [ [ [ ",
"w w w w w w w w w w w w w w w w w w w w w w w w w w w w w w w w w w w w w w w w w w w w w w w w w w w w o s.K R R R ! ^ ^ ^ ^ R ",
"w w w w w w w w w w w w w w w w w w w w w w w w w w w w w w w w w w w w w w w w w w w w w w w w w w w w o u.A K L A Y Y T / Y ! ",
"w w w w w w w w w w w w w w w w w w w w w w w w w w w w w w w w w w w w w w w w w w w w w w w w w w w w o t.Z Z Z F F K K K Y Y ",
"w w w w w w w w w w w w w w w w w w w w w w w w w w w w w w w w w w w w w w w w w w w w w w w w w w w w o t.m m m M M V Z S D D ",
"w w w w w w w w w w w w w w w w w w w w w w w w w w w w w w w w w w w w w w w w w w w w w w w w w w w w o t.z z z v n M m Z Z Z ",
"w w w w w w w w w w w w w w w w w r w w w w w w w w w w w w w w w w w w w w w w w w w w w w w w w w w w o 7.s f x x n n v Z v m ",
"w w w w w w w w w w w w w w w w e e w w r e e w w w w w w w w w w w w w w w w w w w w w w w w w w w w w X 7.f p s s v n v n v M ",
"w w w w w w w w w w w w w r w w e q w e r r w w w w w w w w w w w w w w w w w w w w w w w w w w w w w w . 7.i i f f f s n s v v ",
"w w w w w w w w w w w w w w r e q w e e r q w w w w w w w w w w w w w w w w w w w w w w w w w w w w w w . 3.i i i f f s s s z j ",
"w w w w w w w w w w w w w q e e w w e e q e r w w w w w w w w w w w w w w w w w w w w w w w w w w w w w o e.t u i i p p h h h j ",
"w w w w w w w w w w w w w w q e w w M.M.e e q w w w w w w w w w w w w w w w w w w w w w w w w w w w w w w O t i i i p i p p j j ",
"w w w w w w w w w w w w w w w q w M.4.4.M.q w w w w w w w w w w w w w w w w w w w w w w w w w w w w w w w w                     ",
"w w w w w w w w w w w w w w w w w 0 M.M.0 w w w w w w w w w w w w w w w w w w w w w w w w w w w w w w w w w O e.K K L L L L L O ",
"w w w w w w w w w w w w w w w M.4.w 0 0 w w w w w w w w w w w w w w w w w w w w w w w w w w w w w w w w w w O e.L L L L L L L O ",
"w w w w w w w w w w w w w w w M.M.w w w w w w w w w w w w w w w w w w w w w w w w w w w w w w w w w w w w w O r.L L L L L L L O ",
"w w w w w w w w w w w w w w w 0 0 w w w w w w w w w w w w w w w w w w w w w w w w w w w w w w w w w w w w w O r.L L L L L L L O ",
"w w w w w w w w w w w w w w w w w w w w w w w w w w w w w w w w w w w w w w w w w w w w w w w w w w w w w w O r.L L L ^ L R L O ",
"w w w w w w w w w w w w w w w w w w w w w w w w w w w w w w w w w w w w w w w w w w w w w w w w w w w w w w O e.I I L Q L Q L O ",
"w w w w w e r r w w w w w w w w w w w w w w w w w w w w w w w w w w w w w w w w w w w w w w w w w w w w w w $ e.Q I L Q R L R O ",
"w w w w w w r e e w w w w w w w w w w w w w w w w w w w w w w w w w w w w w w w w w w w w w w w w w w w w w $ e.L L R T T Q Q O ",
"w w w w w w q e e w w w w w w w w w w w w w w w w w w w w w w w w w w w w w w w w w w w w w w w w w w w w w $ e.L Q L Q Q Q Q Q ",
"w w w w w w w q q w w w w w w w w w w w w w w w w w w w w w w w w w w w w w w w w w w w w w w w w w w w w w & e.L ^ Q Q Q T Q O ",
"w w w w w w w w w w w w w w w w w w w w w w w w w w w w w w w w w w w w w w w w w w w w w w w w w w w w w w ; q.Q Q Q Q Q Q Q O ",
"w w w w w w w w w w w w w w w w w w w w w w w w w w w w w w w w w w w w w w w w w w w w w w w w w w w w w w & r.Q [ [ Q Q Q { & ",
"w w w w w w w w w w w w w w w w w w w w w w w w w w w w w w w w w w w w w w w w w w w w w w w w w w w w w w & r.' ' Q { | | Q # ",
"w w w w w w w w w w w w w w w w w w w w w w w w w w w w w w w w w w w w w w w w w w w w w w w w w w w w w w ; e./ / ' ' ' ' ' O ",
"w w w w w w w w w w w w w w w w w w w w w w w w w w w w w w w w w w w w w w w w w w w w w w w w w w w w w w $ e.{ Q ' | ' ' ' O ",
"w w w w w w w w w w w w w w w w w w w w w w w w w w w w e w w w w w w w w w w w w w w w w w w w w w w w w w ; e.Q { { Q ' ' ' O ",
"w w w w w w w w w w w w w w w w w w w w w w w w w w w r r w w w w w w w w w w w w w w w w w w w w w w w w w + e.| { { | | | | O ",
"w w w w w w w w w w w w w w w w w w w w w w w w w w e r q w w w w w w w w w w w w w w w w w w w w w w w w w $ e.| { $.X.| $.$.{ ",
"w w w w w w w w w w w w w w w w w w w w w w w w w w e e w w w w w w w w w w w w w w w w w w w w w w w w w w ; e.r.e.e.r.r.r.r.O ",
"w w w w w w w w w w w w w w w w w w w w w w w w w w q q w w w w w w w w w w w w w w w w w w w w w w w w w w : 9 8 7 7 6 3 > > $ ",
"w w w w w w w w w w w w w w w w w w w w w w w w w w w w w w w w w w w w w w w w w w w w w w w w w w w w w w 1 s.&.&.&.&.&.&.&.O ",
"w w w w w w w w w w w w w w w w w w w w w w w w w w w w w w w w w w w w w w w w w w w w w w w w w w w w w w 2 s.&.&.&.&.&.%.%.O ",
"w w w w w w w w w w w w w w w w w w w w w w w w w w w w w w w w w w w w w w w w w w w w w w w w w w w w w w 2 s.&.&.%.%.&.&.&.O ",
"w w w w w w w w w w w w w w w w w w w w w w w w w w w w w w w w w w w w w w w w w w w w w w w w w w w w w w 2 s.=.=.=.*.*.=.=.O ",
"w w w w w w w w w w w w w w w w w w w w w w w w w w w w w w w w w w w w w w w w w w w w w w w w w w w w w w 1 i.;.;.;.=.;.=.;.O ",
"w w w w w w w w w w w w w w w w w w w w w w w w w w w w w w w w w w w w w w w w w w w w w w w w w w w w w e 2 s.2.;.=.<.:.:.=.O ",
"w w w w w w w w w w w w w w w w w w w w w w w w w w w w w w w w w w w w w w w w w w w w w w w w w w r w w e 2 s.1.;.1.<.2.:.:.:.",
"w w w w w w w w w w w w w w w w w w w w w w w w w w w w w w w w w w w w w w w w w w w w w w w w w w q e e w 1 u.1.<.1.<.1.1.5.O ",
"w w w w w w w r r w w w w e e w w w w w w w w w w w w w w w w w w w w w w w w w w w w w w w w w w w q e e m.2 s.2.2.2.2.1.1.2.O ",
"w w w w w w w w r e e w r r w w w w w w w w w w w w w w w w w w w w w w w w w w w w w w w w w w w w w q m.4.2 s.3.3.2.3.3.3.3.O ",
"w w w w w e r r q e q e e q w w w w w w w w w w w w w w w w w w w w w w w w w w w w w w w w w w w w w w 0 m.2 g.6.q.6.6.6.2.6.O ",
"w w w w w w r e e q q e m.m.w w w w w w w w w w w w w w w w w w w w w w w w w w w w w w w r r e w w w w w 0 1 d.6.6.6.6.6.6.2.O ",
"w w w w w w q e M.M.w e 4.m.w w w w w w w w w w w w w w w w w w w w w w w w w w w w w w w w r e e M.M.w w w 2 g.6.6.6.6.6.6.6.O ",
"w w w w w w w m.4.4.M.w 0 0 w w w w w w w w w w w w w w w w w w w w w w w w w w w w w w w w q e M.4.4.M.w w 2 g.q.0.0.6.6.6.0.O ",
"w w w w w w w q M.M.0 w w w w w w w w w w w w w w w w w w w w w w w w w w w w w w w w w w w w q 0 M.M.0 w w 1 s.q.0.0.0.q.q.0.O ",
"w w w w w w w w 0 0 w w w w w w w w w w w w w w w w w w w w w w w w w w w w w w w w w w w w w w w 0 0 w w w 2 j.r.r.r.r.r.q.q.q.",
"w w w w w w w w w w w w w w w w w w w w w w w w w w w w w w w w w w w w w w w w w w w w w w w w w w w w w w 2 z.r.r.r.r.r.q.q.q.",
"w w w w w w w w w w w w w w w w w w w w w w w w w w w w w w w w w w w w w w w w w w w w w w w w w w w w w w 2 k.r.r.r.r.r.r.q.q.",
"w w w w w w w w w w w w w w w w w w w w w w w w w w w w w w w w w w w w w w w w w w w w w w w w w w w w w w 2 z.r.r.r.r.r.r.q.q.",
"w w w w w w w w w w w w w w w w w w w w w w w w w w w w w w w w w w w w w w w w w w w w w w w w w w w w w w 2 z.r.r.r.r.r.q.q.q.",
"w w w w w w w w w w w w w w w w w w w w w w w w w w w w w w w w w w w w w w w w w w w w w w w w w w w w w w 2 z.z.j.z.j.g.g.f.f.",
"w w w w w w w w w w w w w w w w w w w w w w w w w w w w w w w w w w w w w w w w w w w w w w w w w w w w w w O [ p p p p f p p p ",
"w w w w w w w w w w w w w w w w w w w w w w w w w w w w w w w w w w w w w w w w w w w w w w w w w w w w w w O ..p i h p f i p p ",
"w w w w w w w w w w w w w w w w w w w w w w w w w w w w w w w w w w w w w w w w w w w w w w w w w w w w w w O O.h u p p h p h i ",
"w w w w w w w w w w w w w w w w w w w w w w w w w w w w w w w w w w w w w w w w w w w w w w w w w w w w w w w O O O O O O O O O "
};
