/* XPM */
static char *Wall_14[] = {
/* columns rows colors chars-per-pixel */
"64 64 81 1 ",
"  c #592516",
". c #692D18",
"X c #6B311C",
"o c #633321",
"O c #6E3620",
"+ c #693823",
"@ c #673A2A",
"# c #6B3B28",
"$ c #753720",
"% c #753921",
"& c #793E25",
"* c #6B402B",
"= c #794127",
"- c #75412B",
"; c #7A442B",
": c #7E492F",
"> c #6D4332",
", c #7D4B35",
"< c #734C3C",
"1 c #7F4E39",
"2 c #77503F",
"3 c #775345",
"4 c #785648",
"5 c #7B5E4F",
"6 c #864C32",
"7 c #855236",
"8 c #84563C",
"9 c #8A563B",
"0 c #86583D",
"q c #885A3D",
"w c #875E46",
"e c #8F5F44",
"r c #865E48",
"t c #866148",
"y c #8A654E",
"u c #926349",
"i c #94684D",
"p c #836455",
"a c #8A6751",
"s c #8D6B55",
"d c #8E6E59",
"f c #90725D",
"g c #A27D5B",
"h c #8C7764",
"j c #8D7966",
"k c #8C7569",
"l c #8E786C",
"z c #907D67",
"x c #937D6C",
"c c #927D71",
"v c #999222",
"b c #ACB028",
"n c #C1C52D",
"m c #9E8162",
"M c #92816D",
"N c #958273",
"B c #998675",
"V c #9D8B77",
"C c #99867A",
"Z c #9A8A7A",
"A c #A08263",
"S c #A29585",
"D c #A79C8E",
"F c #AA9E8E",
"G c #A9A193",
"H c #AEA699",
"J c #AFA899",
"K c #B2AC9C",
"L c #B4AEA0",
"P c #B6B1A2",
"I c #B8B2A5",
"U c #BCB2A8",
"Y c #C2C0B2",
"T c #D2CFC4",
"R c #D3D1C6",
"E c #D6D5CA",
"W c #DAD7D1",
"Q c #DDDBD5",
"! c #DFDDD8",
"~ c #E0DFD9",
"^ c #E3E2DE",
/* pixels */
"nnnnbb6666666666::7:6666:66m666666766666:666:666:766666766bbbbnn",
"nnnnb6EERREERREREEEEEEEEEEY.EEEEQYEEEEQYEEEEEEEEYQEEEEYQQY6bbbnn",
"nnnn6EEEEEEEEEEEEEEEEEEEEEQXEEEEEEEEEEEEEEEEEEEEEEEEEEEEEEE6bbnn",
"nnnn6EEEEEEEEEEEEEEEEEEEEEEAEEEEEEEEEEEEEEEEEEEEEEEEEEEEEEE7vbnn",
"nnnn6EEEEEE^^^^^^^^^^~^~^^^A^^^^^^^^^^^^^^^^^^^^^^^^^EEEEEY6vvnn",
"nnnn6EEEEE^uZIIIPPPPPPPPPPK7IIIIUIIIIIIIPPLPPKPLPKKPq^EEEEQ6vvnn",
"nnnn6EEEEE^iZIIIPPKPKPKPPPK7IIIPIIPPPPPPPPLPLLLLKPKPq^EEEEE6vvnn",
"nnnn6EEEEE^uZPPPPPPKPKKPKKP7IIIPPPPPPPPPKPLKLLLLPKKKq^EEEEE6vvnn",
"nnnn7EEEEE^qZVLIPKPKKKKKKKK7PPPPPPPPPPPPLPKLKKKKKKKKq^EEEEE6vvnn",
"nnnn6^^^^^^uVVLLPKKKPKKKKKK7PPPPPPPPLPKKKKKKKKKLKKKKq^Q~~^~6vvnn",
"nnnn6.AAmA.9BCKKKKKKKJKKKKK1PKPKKKKKKKKKKKKJJKKKKKJK6.AAAAX6vvnn",
"nnnn6EEEEE^7BBKKJKJJJJJJJJJ7KJKKKKJKKJKJKJJJJJJJJKJJ:^EEEEE6vvnn",
"nnnn6EEEEE^6NBBJJJJJJJJJJJJ7JJJJJJJJJJJJJJJJJJJJJJJJ=^EEEEE6vvnn",
"nnnn6EEEEE^$NNBGGGGJJGJGJGJ7JJGGGJGJGJJGGJJGJGJGGJJG=^EEEEE6vvnn",
"nnnn6EEEEE^%xNMGGGGGGJGJJJG7GGGGGGJJJHHHJGGJGJGJGJGJ=^EEEEE6vvnn",
"nnnn6EEEEE^%xxNcFFFFFFFFGGG7GGGGFGFGGGFFGGGGGGGGGGGG&^EEEEE6vvnn",
"nnnn6EEEEE~%xxxlDDDDDFDDGGG.FGGGGGGJGGGJGGFFGGGJGGGF.~EEEEE6vvnn",
"nnnn6WEEEE~&xlxxDSSSSDDGJVGXFGFFGGGVGGGVFGFDFGFVGFGGX^EEEEE6vvnn",
"nnnn6EEEER!=oo+++---*XXX .. X.. X...o...X. .X. .. ...~EEEEE7vvnn",
"nnnn6EEEERQ-hhhhjjMjmMMMMMmMMMmjMMMoMMjjMMmMMMMMmMmMX^EEEEE7vvnn",
"nnnn6EEERRQ;hhjhhMMjMMMfMdMjMjMhMjMoMhMhMMMdMhMMMMhM QEEEEE6vvnn",
"nnnn6WEERRQ;hhhjhMhMMhMMMhhMhmjMmjM*MMmhMhMMjmMfhMMhX~EEEEE6vvnn",
"nnnn6EEEETW;hjhhhmMdMsMdMMMfMMzzMMM+MjMhhMM5MjhzMMMM.^EEEEE6vvnn",
"nnnn6EERRTQ;hhjhhhMhMMMMdMMMMfzzMMM*MsMMMmMMhMMzMdMd.~EEEEE6vvnn",
"nnnn6EERRY^6hhhhhjjMMMMMMMMMMzzMjMV*mMMMMhMMMhjMMMMM.^EEEEE6vvnn",
"nnnn6~~Q~Q~;llkljjZZSSVGFFFSGGFFJVV5JGJVGDDFFFGGFFFG.^QQ~~~6vvnn",
"nnnn6.AAAA.=lklkMMDSDDDDGDFGGGGDGGGiDDGGGGGDGFFGFFGG..AAAA.6vvnn",
"nnnn6EEEER~=<2332*,<q5MMMhmMMfjM5q5q5mMMMjjMMjmjmMmA.^EEEEE6vvnn",
"nnnn6EEEER~%NMNNMM@KJKJKJKKKLLKLKKKKKPKPKLLKLKKKKKKK.^EEEEE6vvnn",
"nnnn6EEEEE^&lxxMMMoGGGGGGGGGGGGGGGGGFGFGGGGGGGGGDGGG.^EEEEE7vvnn",
"nnnn6EEEEE^$xlxlMM>GGGGGGFGGGGGGGGGGGGGGGDGGGGGGGGGG.^EEEEE6vvnn",
"nnnn6WEEEE^$lxxxMM5GGGGGGGGGGGGDGGGGFGGGGGGGGGGGGGGG.^EEEEE6vvnn",
"nnnn6EEEEE^%lxxccc5CGGGGGGDGGGDGGGGGDGGGGGGGGGGGGGDG.^WEEEE6vvnn",
"nnnn6EEEEE^%lxcccc5CGGDGGGGGGGGGGGGGGGGDGGDGGGGDGGGG.^EEEEE6vvnn",
"nnnn6EEEEE^%lxcccc4CGGGGGDGGGGGGGGGDGDGGGGGGGGGGGGGG.^EWEEE6vvnn",
"nnnn6EEEEE~$xlxcccpcCDGGGGGGGDGDGGGGGGGGDGGGDGGGGDGG.~EREEE6vvnn",
"nnnn6WEEEE^%4443r444rkdfkddfkdddff51<:,dpyyyyprw1ccc.^WREEW6vvnn",
"nnnn6EEEEE^%ccBCSccSCLHHHLLLLLLLKKKP-KPKLUHHHGHHHLLL.^RWEEE6vvnn",
"nnnn6EEEEE^%kllccccSCDDDDDDDDGDDFFDD*DDDDDDDDDDGDDDD.^WREEE6vvnn",
"nnnn6EEEEE^%llllCcCcCCDDDDDDDDDDDGFFdDDDDDDDDDDDDDDD.^TWEEE6vvnn",
"nnnn6EEEEE^%llxccSCCScDDDDDDDDDDDDDDxFFFFDDDDGDDDDDD.^EEEEE6vvnn",
"nnnn6WEEEE^%kllcccCCcSDDGDDDDDDDDDDDxFFFFDDFDDDDDDDD.^EEEEW6vvnn",
"nnnn6^^^^^^$kxlccCCcCCCGDDDDDDDGDDDDxFDDDDDDDDDDFDFD.^~~~~~6vvnn",
"nnnn6.AAAx.$kklccccSCCCDDDDDDGDDGDDGcDDDGDDDDDDFFDFF..AAgA.6vvnn",
"nnnn6EEEEE^$kkcccccCcCgGDDDDDDDDDDDDxDFDDDFFDDDSFDDD.^EEEEW6vvnn",
"nnnn6EEEEE^$@344@@@@<@4kkfffdkccMMxxxNxxccccxccsdw1w.^EEEEE6vvnn",
"nnnn6EEEEE^$cCccCc@ccSCCLLLLLLULKLLLLLLLLLLLLLLLLLLH.^EEEEE6vvnn",
"nnnn6EEEEW^$klkkll@cccccDDDDDDDDDDDDFFDDDDDDFFDDDDDD.^EEEEE6vvnn",
"nnnn6EEEEE^%zkkkkk<cccccHDDDDDDDDDDDDGDDDDDDDDDGDDDD.^EEEER6vvnn",
"nnnn6EEEEE^$khkkkk5lcccccFDDDDDDGDDDDDDDDDDDDDDDDDDD.^EEEEW6vvnn",
"nnnn6WEEEE^%kkkflk5lcccccDGDDDDDDDDDDDDDGDDDGDDDGDDD.^EEEEE6vvnn",
"nnnn6EEEEE^%kkkkll@ccccccDDDGDDDDDDDDGGDDDDDDDDDDDDD.^EEEEE6vvnn",
"nnnn6QEEEE^$kkkkkk>cccNMcGDDDGDDGDDDDDDDDGDDDDDDDDDD.^EEEEW6vvnn",
"nnnn6EEEEE^$kkkkkk-llcxMccDDDDDDDDDDDDDDDDDDDGDDDDDD.^EEEEE6vvnn",
"nnnn6EEEEE^$              ..cX....o.....Xoo.....o....^WEEER6vvnn",
"nnnn6EEEEE^$NxDSSDSDSDFVDDUYXYYYYYYYYYYYYYYUYYYYYYYY.^EEEEW6vvnn",
"nnnn6EEEEE^%NNDSFSSFSFSFSDYYmYYYYYYYYYYYYYYYYYYYYYYY.^EEEEE6vvnn",
"nnnn6^^^^^^%BmSDSDFSFSFSFDYYmYYYYYYYYYYYYYYYYYYYYYYY.^~~~~~6vvnn",
"nnnn6XAAAA.&NVFSFDSDSFSFSFYYmYYYYUYUYUYYYYYYYYYYYYYY..AAgx.6vvnn",
"nnnn6EEEEE^$FFUUIIIPIUUUIIEWmEEEWWWWWWWWEEEEEEEWEEWE.^EEWEE6vvnn",
"nnnn6EEEEE^%ypxNBBZZZZZZVZGDmDDDDDDDDDDDDSFDDDFFFDVV.^EEEEW6vvnn",
"nnnn6EEEEE^%apNNVZZZZZZZVVDDmDDDDDDDDDDDDFFDFDFFDDVV.^EEEEE6vvnn",
"nnnn6EEEEE^%ppMNMZZVZZZZZVDD.DDDDDDDGDDDFFFFDSFFFFVV.^EEEEE6vvnn",
"nnnn6EEEEE^$...X....XX...............................^EEEEE6vvnn"
};
