/* XPM */
static char *Wall_05[] = {
/* columns rows colors chars-per-pixel */
"64 64 38 1 ",
"  c #55321C",
". c #56331D",
"X c #55341E",
"o c #56341E",
"O c #56341F",
"+ c #56351F",
"@ c #563520",
"# c #573521",
"$ c #573621",
"% c #573722",
"& c #583621",
"* c #583622",
"= c #583724",
"- c #583824",
"; c #624430",
": c #654935",
"> c #6C5847",
", c #6D5A4B",
"< c #6B5F51",
"1 c #6F6050",
"2 c #6B6256",
"3 c #736E62",
"4 c #736E63",
"5 c #746F63",
"6 c #746F64",
"7 c #747064",
"8 c #777165",
"9 c #797468",
"0 c #868579",
"q c #8E8D83",
"w c #8E8D84",
"e c #8F8D84",
"r c #8F8D85",
"t c #908E85",
"y c #908E86",
"u c #919088",
"i c #94928B",
"p c None",
/* pixels */
"ppppO00000i=pppppppppppppppppppppppppppppppppppppppppppppppppppp",
"ppppO00000i=pppppppppppppppppppppppppppppppppppppppppppppppppppp",
"ppppO00000i=pppppppppppppppppppppppppppppppppppppppppppppppppppp",
"ppppO00000i=pppppppppppppppppppppppppppppppppppppppppppppppppppp",
"ppppO00000i=pppppppppppppppppppppppppppppppppppppppppppppppppppp",
"ppppO00000i=pppppppppppppppppppppppppppppppppppppppppppppppppppp",
"ppppO00000i=pppppppppppppppppppppppppppppppppppppppppppppppppppp",
"ppppO00000i=pppppppppppppppppppppppppppppppppppppppppppppppppppp",
"ppppOi0000i=pppppppppppppppppppppppppppppppppppppppppppppppppppp",
"ppppO1ii00i=pppppppppppppppppppppppppppppppppppppppppppppppppppp",
"ppppO4,>iii=pppppppppppppppppppppppppppppppppppppppppppppppppppp",
"ppppO457::#=pppppppppppppppppppppppppppppppppppppppppppppppppppp",
"ppppO26O00i=pppppppppppppppppppppppppppppppppppppppppppppppppppp",
"ppppO2O000i=pppppppppppppppppppppppppppppppppppppppppppppppppppp",
"ppppO2O000i=pppppppppppppppppppppppppppppppppppppppppppppppppppp",
"ppppOO0000i=pppppppppppppppppppppppppppppppppppppppppppppppppppp",
"ppppO00000i=pppppppppppppppppppppppppppppppppppppppppppppppppppp",
"ppppO00000i=pppppppppppppppppppppppppppppppppppppppppppppppppppp",
"ppppO00000i=pppppppppppppppppppppppppppppppppppppppppppppppppppp",
"ppppO00000i=pppppppppppppppppppppppppppppppppppppppppppppppppppp",
"ppppO00000i=pppppppppppppppppppppppppppppppppppppppppppppppppppp",
"ppppO00000i=pppppppppppppppppppppppppppppppppppppppppppppppppppp",
"ppppO00000i=pppppppppppppppppppppppppppppppppppppppppppppppppppp",
"ppppO00000i=pppppppppppppppppppppppppppppppppppppppppppppppppppp",
"ppppO00000i-pppppppppppppppppppppppppppppppppppppppppppppppppppp",
"ppppO00000i*pppppppppppppppppppppppppppppppppppppppppppppppppppp",
"ppppOqeqeti-pppppppppppppppppppppppppppppppppppppppppppppppppppp",
"ppppOO::::*=pppppppppppppppppppppppppppppppppppppppppppppppppppp",
"ppppO00000i=pppppppppppppppppppppppppppppppppppppppppppppppppppp",
"pppp%00000i=pppppppppppppppppppppppppppppppppppppppppppppppppppp",
"pppp 00000i*pppppppppppppppppppppppppppppppppppppppppppppppppppp",
"ppppO00000i@pppppppppppppppppppppppppppppppppppppppppppppppppppp",
"ppppO00000i=pppppppppppppppppppppppppppppppppppppppppppppppppppp",
"ppppO00000i=pppppppppppppppppppppppppppppppppppppppppppppppppppp",
"ppppO00000i=pppppppppppppppppppppppppppppppppppppppppppppppppppp",
"ppppO00000i=pppppppppppppppppppppppppppppppppppppppppppppppppppp",
"ppppO00000i=pppppppppppppppppppppppppppppppppppppppppppppppppppp",
"ppppO00000i=pppppppppppppppppppppppppppppppppppppppppppppppppppp",
"ppppO00000i=pppppppppppppppppppppppppppppppppppppppppppppppppppp",
"ppppO00000i=pppppppppppppppppppppppppppppppppppppppppppppppppppp",
"ppppO00000i=pppppppppppppppppppppppppppppppppppppppppppppppppppp",
"ppppO00000i=pppppppppppppppppppppppppppppppppppppppppppppppppppp",
"ppppOeeeeqi=pppppppppppppppppppppppppppppppppppppppppppppppppppp",
"ppppOO::::#=pppppppppppppppppppppppppppppppppppppppppppppppppppp",
"ppppO00000i=pppppppppppppppppppppppppppppppppppppppppppppppppppp",
"ppppO00000i=pppppppppppppppppppppppppppppppppppppppppppppppppppp",
"ppppO00000i=pppppppppppppppppppppppppppppppppppppppppppppppppppp",
"ppppO00000i=pppppppppppppppppppppppppppppppppppppppppppppppppppp",
"ppppO00000i=pppppppppppppppppppppppppppppppppppppppppppppppppppp",
"pppp#00000i=pppppppppppppppppppppppppppppppppppppppppppppppppppp",
"pppp 00000i=pppppppppppppppppppppppppppppppppppppppppppppppppppp",
"pppp#00000i=pppppppppppppppppppppppppppppppppppppppppppppppppppp",
"ppppO0000i<=pppppppppppppppppppppppppppppppppppppppppppppppppppp",
"ppppO0000i8=pppppppppppppppppppppppppppppppppppppppppppppppppppp",
"ppppO9000i8-pppppppppppppppppppppppppppppppppppppppppppppppppppp",
"ppppOe20i<7=pppppppppppppppppppppppppppppppppppppppppppppppppppp",
"ppppO0u2<88=pppppppppppppppppppppppppppppppppppppppppppppppppppp",
"ppppO00u<88=pppppppppppppppppppppppppppppppppppppppppppppppppppp",
"ppppO00q<<8=pppppppppppppppppppppppppppppppppppppppppppppppppppp",
"pppp ;::<<<=pppppppppppppppppppppppppppppppppppppppppppppppppppp",
"ppppOiii*#*Opppppppppppppppppppppppppppppppppppppppppppppppppppp",
"ppppO000iii*pppppppppppppppppppppppppppppppppppppppppppppppppppp",
"pppp 00000i*pppppppppppppppppppppppppppppppppppppppppppppppppppp",
"ppppO00000i*pppppppppppppppppppppppppppppppppppppppppppppppppppp"
};
