/* XPM */
static char *Wall_09[] = {
/* columns rows colors chars-per-pixel */
"64 64 34 1 ",
"  c #692D18",
". c #844B30",
"X c #854D31",
"o c #854F33",
"O c #874F33",
"+ c #8B5437",
"@ c #8A5537",
"# c #8C573B",
"$ c #A07A59",
"% c #A27D5B",
"& c #98A323",
"* c #9DA722",
"= c #ACB028",
"- c #B4B82F",
"; c #BBBE33",
": c #BCC036",
"> c #ABA18E",
", c #ABA090",
"< c #ABA290",
"1 c #A9A092",
"2 c #ABA092",
"3 c #ABA292",
"4 c #ACA090",
"5 c #ACA290",
"6 c #ACA292",
"7 c #ACA392",
"8 c #AEA293",
"9 c #AEA493",
"0 c #ABA294",
"q c #ACA294",
"w c #ACA394",
"e c #AEA494",
"r c #D6D5CA",
"t c #E3E2DE",
/* pixels */
"================================================================",
"================================================================",
"================================================================",
"================================================================",
"================================================================",
"================================================================",
"====================================================-:====::====",
"=====================================================::==-:=====",
"=====================================================--=--&=====",
"=====================================================&&=--&=====",
"========================================================&&======",
"================================================================",
"=================;==============================================",
"================--==;--=========================================",
"=============;==-*=-;;==========================================",
"==============;-*=--;*==========================================",
"=============*--==--*-;=========================================",
"==============*-==-*--*=========================================",
"===============*==**-*==========================================",
"================================================================",
"================================================================",
"================================================================",
"================================================================",
"================================================================",
"================================================================",
"=====-;;========================================================",
"======;--=======================================================",
"======*--=======================================================",
"=======**=======================================================",
"================================================================",
"================================================================",
"================================================================",
"================================================================",
"================================================================",
"================================================================",
"================================================================",
"================================================================",
"===========================-====================================",
"==========================;;====================================",
"=========================-;*====================================",
"=========================--=====================================",
"=========================**=====================================",
"================================================================",
"======================================================;=========",
"=====================================================--==-;;====",
"==================================================;==-*=--;=====",
"==================================================*--=*---*=====",
"==================================================*--==--*-;====",
"===================================================**==-*--*====",
"=======================================================**-*=====",
"======;;====--===============================;;-================",
"=======;--=;;=================================;--===============",
"====-;;*-*--*=================================*--===============",
"=====;--**--*==================================**===============",
"=====*--==-*====================================================",
"======*-========================================================",
"#+O.o%.o........................$.......o..............o..%.....",
"rrrrr$rrrrrrrrrrrrrrrrrrrrrrrrrr%rrrrrrrrrrrrrrrrrrrrrrrrr%rrrrr",
"rrrrr$rrrrrrrrrrrrrrrrrrrrrrrrrr$rrrrrrrrrrrrrrrrrrrrrrrrr$rrrrr",
"rrrrr@rrrrrrrrrrrrrrrrrrrrrrrrrr+rrrrrrrrrrrrrrrrrrrrrrrrr@rrrrr",
"tttttottttttttttttttttttttttttttotttttttttttttttttttttttttottttt",
"42<<6 66<0<0qq00<211>6<<<>>>>>>> <<>>69>66666eee66eewqqq0q 666>6",
"2<<06 6q0<0<00000222<46><<<<><<< <9>>6>6666689eeeeeeqqqq00 6666>",
"     =                          =                         =     "
};
