/* XPM */
static char *Wall_0[] = {
/* columns rows colors chars-per-pixel */
"64 64 32 1 ",
"  c #783A21",
". c #7A3C23",
"X c #7A3F24",
"o c #7A3E25",
"O c #7A3F26",
"+ c #7D4027",
"@ c #7D4329",
"# c #7F4229",
"$ c #7F442B",
"% c #965E3F",
"& c #9C6847",
"* c #999222",
"= c #98A323",
"- c #ACB028",
"; c #B4B82F",
": c #BCC036",
"> c #C1C52D",
", c #AC8B6A",
"< c #AE9073",
"1 c #B39D7E",
"2 c #AD9B80",
"3 c #AFA28C",
"4 c #BDB7A6",
"5 c #BFBAAA",
"6 c #C2BCAC",
"7 c #D6D5CA",
"8 c #DEDDD7",
"9 c #DFDDD7",
"0 c #DFDDD8",
"q c #E0DED9",
"w c #E1E0DB",
"e c #E3E2DE",
/* pixels */
"----------------------------------------------------$e77777o**>>",
"----------------------------------------------------$e77777o**>>",
"----------------------------------------------------$e77777o**>>",
"----------------------------------------------------$e77777o**>>",
"----------------------------------------------------$e77777o**>>",
"------------------------:;;-------------------------$e77777o**>>",
"-------------------------;;;------------------------$e77777o**>>",
"--------------------------==------------------------$e77777o**>>",
"----------------------------------------------------$e7777eo**>>",
"----------------------------------------------------$e77ee1o**>>",
"----------------------------------------------------$eee,<4o**>>",
"----------------------------------------------------$+&&554o**>>",
"----------------------------------------------------$e77o53o**>>",
"-----------:----------------------------------------$e777o3o**>>",
"----;::---:-----------------------------------------$e777o3o**>>",
"-----:;;-::---------------------------------;;------$e7777oo**>>",
"-----=;;-;;--------------------------------;;-------$e77777o**>>",
"------=;=;=-------------------------------;;*-------$e77777o**>>",
"-------=-=----------------------------::;-;;=-------$e77777o**>>",
"---------------------------------------:;;=;=-------$e77777o**>>",
"---------------------------------------=;;==--------$e77777o**>>",
"----------------------------------------==----------$e77777o**>>",
"----------------------------------------------------$e77777o**>>",
"----------------------------------------------------$e77777o**>>",
"----------------------------------------------------$w77777X**:>",
"----------------------------------------------------$w77777X**>>",
"----------------------------------------------------$w99990+**>>",
"---------------------------------------------------=%+&&&&oo**>>",
"----------------------------------------------------%777777+**>>",
"----------------------------------------------------@w77777+**>>",
"----------------------------------------------------@w77777 **>>",
"----------------------------------------------------+w77777X**>>",
"----------------------------------------------------$w77777+**::",
"----------------------------------------------------@977777+**>:",
"---------------------------------------------------- 877777+**>>",
"----------------------------------------------------%e77777+**>>",
"----------------------------------------------------%977777X**>>",
"----------------------------------------------------Xw77777X**>>",
"----------------------::----------------------------Xe77777X**>>",
"-----------------------:;----:----------------------@e77777X**>>",
"-----------------------;;;-;:-----------------------+w77777X**:>",
"--------------------:;;=;;;;=-----------------------@977777X**>>",
"---------------------;;;==;;=-----------------------@e99999X**>>",
"---------------------=;;--;=-----------------------=%+&%&&XX**>>",
"----------------------=;----------------------------%977777X**>>",
"----------------------------------------:;----------X977777X**>>",
"-----------------------------------:;--;:=---------- w77777X**>>",
"-----------------------------------=;;-;;-----------%w77777X**>>",
"------------------------------------=;;;*----------- e77777@**::",
"------------------------------------=;;=------------ 877777 **>>",
"-------------------------------------=-------------- 877777@**>>",
"----------------------------------------------------&e77777@**>>",
"----------------------------------------------------+1e7777+**>>",
"----------------------------------------------------@5e7777X**>>",
"----------------------------------------------------@6e7776+**>>",
"----------------------------------------------------@61w739X**>>",
"----------------------------------------------------&5523w7+**::",
"---------------------------------------------------- 55<977X**>:",
"----------------------------------------------------O511977+**>>",
"----------------------------------------------------+211&&%+**>>",
"----------------------------------------------------X% +ewwX**>>",
"----------------------------------------------------Xw89777X**>>",
"----------------------------------------------------%777777 **>>",
"----------------------------------------------------Xe77777 **>>"
};
