/* XPM */
static char *Wall_2[] = {
/* columns rows colors chars-per-pixel */
"64 64 100 2 ",
"   c #4F2913",
".  c #4F311E",
"X  c #53321E",
"o  c #56321C",
"O  c #4F3625",
"+  c #543523",
"@  c #543624",
"#  c #553726",
"$  c #553827",
"%  c #5A3B27",
"&  c #5E3B25",
"*  c #563B2A",
"=  c #563D2C",
"-  c #573C2D",
";  c #573D2D",
":  c #573E2E",
">  c #593D2A",
",  c #573F30",
"<  c #583F30",
"1  c #5B4231",
"2  c #584132",
"3  c #594133",
"4  c #5E4532",
"5  c #5A4335",
"6  c #5A4336",
"7  c #5A4436",
"8  c #5A4437",
"9  c #5B4639",
"0  c #5A4739",
"q  c #5B473A",
"w  c #5B483B",
"e  c #5B493C",
"r  c #5C493D",
"t  c #5C4B3E",
"y  c #5C4B3F",
"u  c #624937",
"i  c #5C4B40",
"p  c #5C4D41",
"a  c #5D4D41",
"s  c #5D4D42",
"d  c #5D4E42",
"f  c #5D4E43",
"g  c #5D4F43",
"h  c #5E4F44",
"j  c #5E4F45",
"k  c #5A5046",
"l  c #5D5044",
"z  c #5C5147",
"x  c #5E5146",
"c  c #5C5247",
"v  c #5D5247",
"b  c #5D5248",
"n  c #5F5349",
"m  c #655444",
"M  c #665444",
"N  c #675544",
"B  c #615851",
"V  c #655C55",
"C  c #655D56",
"Z  c #665F58",
"A  c #666057",
"S  c #676159",
"D  c #676259",
"F  c #68625A",
"G  c #68635A",
"H  c #69635B",
"J  c #69645B",
"K  c #69645C",
"L  c #6A645C",
"P  c #6A655C",
"I  c #6B655D",
"U  c #6A665C",
"Y  c #6B665D",
"T  c #6B675D",
"R  c #6B665E",
"E  c #6C665E",
"W  c #6C675E",
"Q  c #6C675F",
"!  c #6C685E",
"~  c #6C685F",
"^  c #6D685F",
"/  c #6D695F",
"(  c #6D6860",
")  c #6D6960",
"_  c #6E6A61",
"`  c #6F6A62",
"'  c #6F6B62",
"]  c #706B62",
"[  c #706B63",
"{  c #706C63",
"}  c #746F67",
"|  c #767469",
" . c #868579",
".. c #86847B",
"X. c #88877B",
"o. c #918F88",
"O. c #929088",
"+. c #94928B",
"@. c #99978F",
"#. c white",
/* pixels */
"% % % % % % % % % % % % % % % % #.% % % % % % % % % % % % % % % % % % % % % % % % % % % % % % % #.% % % % % % % % % % % % % % % ",
" . . . . . . . . . . . . . .X. .u  . . . . . . . . . . . . . . . . . . . . . . . . . . . . .X. .4  . . . . . . . . . . . . . . .",
" . . . . . . .X. . . . . . . . .u  . . . . . . . . . . . . . .X. . . . . . . . . . . . . . . . .u  . . . . . . . . . . . . . . .",
" . . . . . . .X. . . . . . . . .N  . .X. . . . . . . . . . . .X. . . . . . . . . . . . . . . . .N  . . . . . .X. . . . . . . . .",
"o.o.o.o.o.o.o.o.O.O.O.O.O.@.@.@.N O.@.@.@.+.O.O.O.O.O.O.@.O.O.O.O.O.O.O.O.O.O.O.O.O.O.O.O.@.@.@.M O.@.@.@.O.O.+.+.+.O.O.O.O.+.+.",
"/ / / / ^ Q ^ ^ Q / / ^ / / / Q 1 ^ ^ ^ ^ ^ ^ / ^ Q W ! / / ! W Q / Q ^ Q / Q Q ^ ^ Q / ^ / / W 1 / Q / / ^ ^ Q ^ ^ ^ ! ^ / / ^ ",
"/ Q / Q ^ ^ ^ ^ Q Q / Q Q / Q ^ 1 Q / ! / / W W ^ W W W Q W W W / Q ^ ^ ^ ^ Q Q / Q / / ^ ^ W W 1 Q / Q / ! / / ^ ^ W W W W / Q ",
"Q / Q / ^ ^ ^ ^ ! ! ! W / / Q Q 1 / ! ! Q Q W W / Q W W Q Q W W Q / ^ ^ ^ ^ Q / ! ! ! ! / / W W 1 / Q / Q W W ! / / W W W W W Q ",
"! ! ! ! W W W W ! ! W W W W W W 1 Q Q W W W W W W Q W W Q Q / K ^ ! ! ! W W ! ! ! ! ! W W W W W : W W W W W W W Q Q W W W W W H ",
"W W W W W W W W W W W W J W J W : Q W W W W W W W W J W J / K T Q Q W W W W W W W W W W W W W W 1 W W W W W H W W W W W H W W W ",
"W W W W W J W W W W W W W J ! W 1 Q Q Q H W H W J J W J W J K T W W W W W W W W J W J W W W W W 1 W W H W H H W G H W W J W J J ",
"J J J J W J G W W G G W W W W J > I G K H W H H G W J J W J K K J G W H G W H H W J W J H W H H % W W G W H W H W G H H J J J W ",
"J W J J W W G W H W W H G W G W X K K G W H H H G J J J K J J J W G H W H W H W J J W H W G H W o G J J H H W G J J J J J J J J ",
"J J W J H H G G G H G H G G G G X K G K G H H G J J J J K K J J J J H G G G H H J J H H W G H G X G K G H H G G J J J J J J J J ",
"G G G G G H H G H H H H H G G G o D G G G G G G G G G G F F K K G G G G H G G G J G G G G G G G X G G G G G G G G G G G G G J J ",
"G G G G Z G G G G G G G G G G G o G G Z G G G G G G G G F F D F G G G G G G G G G G G G G G G G X G G G G Z G G G G G G G G G G ",
"Z Z D D D D D Z D D D F D Z D D + Z D D D D D Z D D Z Z F D F D Z D D F F Z Z D D D D F F Z Z D X Z G Z D D Z Z F D D Z F F D Z ",
"Z G D D D Z D D D D D Z D F D D   Z D D D Z D D Z D F D F Z Z D F F Z Z D D F F Z F Z Z D D D D   Z Z G Z D D D F Z D D D Z D F ",
"                                z                                                               k                               ",
"l x x c z z z x c c c c z z z z z z z z z z z . k k k k k k k k k k k k k k k k k k k k k k k k k z j x k k k . z z z z b b b b ",
"c c c c z c c c c c c c c c c c c c c c z c c O k k k k k k k k k k k k k k k k k k k k k k k k k k k k k k k . c z c c b b x z ",
"c c c c z c c c c c c c c c c c c c c c z z c O k k k k k k k k k k k k k k k k k k k k k k k k k k k k k k k O c z m c x z b b ",
"c c c c c c c c c c c c c c c c c c c c c c c O k k k k k k k k k k k k k k k k k k k k k k k k k k k k k k k O c c c c c c b b ",
"c c c c c c c c c c c c c c z z c c c c c c c O k k k k k k k k k k k k k k k k k k k k k k k z k k k k k k k O c c c c c z x b ",
"c z z c x b c c c b c c z z z z c c c c z z z O z k k k k k k k k k k k k k k k z z k k k k z z k k k k k k k O z z b b b b x b ",
"D D D D Z G D D D Z D D Z F F F A D Z D F Z D 2 B B B B B B B B B B B B B B B B B B B B B B B B B B B B B B B 2 D D Z G D Z D D ",
"D D D D G Z Z G Z G Z D Z F Z G F F D D D D D + B B B B B B B B B B B B B B B B B B B B B B B B B B B B B B B + D Z D G Z F D Z ",
"j x x x x a a a x x x b n n m b n m b , , = * O $ $ $ 2 2 8 6 8 8 8 8 8 9 B B B B 2 b c b b c n n n z 2 2 = = + * , b b n n n m ",
"( ( ( ( Q Q a Q ( ( Q Q Q Q Q Q ( ( ( ( ( ( ( ( ( ( ( ( ( ( ( ` { ` ` ` ` 2 B B 2 ( ' ' ( ( ( ( ( ( ( ( ( K ( ( ( ( ( ( ( ( ( ( ",
"D D G Z Z G i G G Z G Z G Z G Z Z Z S S Z Z S S D Z D F Z Z Z D F D F F D ( 2 2 ( S F D Z S Z S D D Z Z S S S S Z S Z S F Z S Z ",
"Z Z D G G Z a Z Z G Z G Z G Z G F S S S S S S S D D Z Z Z Z D F D D D Z D Z 2 ` S S S S S S S S S S S S S S S S S S S S S S S S ",
"D D D Z Z G a G G Z G Z G Z G Z S S S S S S S S Z D F D D D D Z Z D F Z D D 2 D S S S S S S S S S S S S S S S S S S S S S S S S ",
"D F F Z D Z i F S S S S S S S S Z G Z G Z G Z G G Z G Z G Z G Z F D Z F D D , F F D Z Z F D Z F D D Z F Z F D D Z F D Z F F D Z ",
"Z Z D D D D j Z S S S S S S S S G Z G Z G Z G Z Z G Z G Z G Z G F Z D F Z F , F Z D F D F Z D F Z F Z D D F Z F Z D F Z D Z D F ",
"F D Z F Z D 2 D S S S S S S S S Z G Z G Z G D D G Z G Z G Z G Z D D Z Z D F 2 F Z F F F D D Z Z F Z F D D Z D D F F D D Z D Z F ",
"F Z D D Z D , F S S S S S S S F G Z G Z G Z D D Z G Z G Z G Z G Z F F D Z Z , F D F Z Z Z F F D D D F Z D D D D D Z Z F F F Z D ",
"w w w - , + + $ , n n n b c m n b b m n 9 w r a r w 9 b b b b b w w w - , + + # , n n z n m b b b n z b 9 r r i w w w b b b b n ",
"K K K K K K F K F F K K K K ( F ( ( ( ( Q Q K a ( Q ( ( ( ( ( ( K K K K K K K K F F F ( ( K K K ( ( ( ( ( ( T i ( ( ( ( ( ( ( ( ",
"Z Z Z Z Z Z Z Z Z Z Z Z Z Z Z Z Z Z Z Z Z Z Z i Z Z Z Z Z Z Z Z Z Z Z Z Z Z Z Z Z Z Z Z Z Z Z Z Z Z Z Z Z Z Z r Z Z Z Z Z Z Z Z ",
"Z Z Z Z Z Z Z Z Z Z Z Z Z Z Z Z Z Z Z Z Z Z Z r Z Z Z Z Z Z Z Z Z Z Z Z Z Z Z Z Z Z Z Z Z Z Z Z Z Z Z Z Z Z Z r Z Z Z Z Z Z Z Z ",
"Z Z Z Z Z Z Z Z Z Z Z Z Z Z Z Z Z Z Z Z Z Z Z j V Z Z Z Z Z Z Z Z Z Z Z Z Z Z Z Z Z Z Z Z Z Z Z Z Z Z Z Z Z Z j B Z Z Z Z Z Z Z ",
"Z Z Z Z Z Z Z Z Z Z Z Z Z Z Z Z Z Z Z Z Z Z Z j V Z Z Z Z Z Z Z Z Z Z Z Z Z Z Z Z Z Z Z Z Z Z Z Z Z Z Z Z Z Z j Z Z Z Z Z Z Z Z ",
"Z Z Z Z Z Z Z Z Z Z Z Z Z Z Z Z Z Z Z Z Z Z Z j Z Z Z Z Z Z Z Z Z Z Z Z Z Z Z Z Z Z Z Z Z Z Z Z Z Z Z Z Z Z Z j Z Z Z Z Z Z Z Z ",
"Z Z Z Z Z Z Z Z Z Z Z Z Z Z Z Z Z Z Z Z Z Z Z + Z Z Z Z Z Z Z Z Z Z Z Z Z Z Z Z Z Z Z Z Z Z Z Z Z Z Z Z Z Z Z + Z Z Z Z Z Z Z Z ",
"Z Z Z C Z Z Z Z Z Z Z C Z Z Z Z Z Z Z Z Z Z Z + Z Z Z Z Z Z Z Z Z Z Z Z Z Z D Z Z Z Z Z Z Z D Z Z Z Z Z Z Z Z + Z Z Z Z Z Z Z Z ",
"b b b r p w p r j j c j j j i p j p p p + + + + + + p p i i a a b b b r r w i r c j x x j a a a i j j i + + + + + + p p p p p p ",
") ( ( ( K ( r } { } } } { | } } } } } } } { } } } } } { | { } } } } } } } } r ( K K ) K K ( Q Q ( ( K ) ( K ( ( ( K ( ( K ( ( ( ",
"Z Z Z Z D Z r ( ( ( ( K ( ( ( ( K ( ( ( ( ( ( ( ( ( ( ( ( ( Q Q ( ( ( ( ( ( r Z Z Z D Z D Z Z Z Z Z Z Z Z Z Z Z Z Z Z Z Z Z Z Z ",
"Z Z Z Z Z Z i ( K ( ( ( K ( K ( Q Q Q Q Q Q Q Q Q Q Q Q Q Q Q Q Q Q Q Q Q Q i Z Z Z Z Z Z Z Z Z Z Z Z Z Z Z Z Z Z Z Z Z Z Z Z Z ",
"Z Z Z Z Z Z x ( ( ( ( K ( ( ( ( Q Q Q Q Q Q Q Q Q Q Q Q Q Q Q Q Q Q Q Q Q ( b Z Z Z Z Z Z Z Z Z Z Z Z Z Z Z Z Z Z Z Z Z Z Z Z Z ",
"Z Z Z Z Z Z b ( K ( K ( ( ( K ( Q Q Q Q Q Q Q Q Q Q Q Q Q Q Q Q Q Q Q Q Q Q b Z Z Z Z Z Z Z Z Z Z Z Z Z Z Z Z Z Z Z Z Z Z Z Z Z ",
"Z Z Z Z Z Z < ( ( ( ( ( ( K ( ( Q Q Q Q Q Q Q Q Q Q Q Q Q Q Q Q Q Q Q Q Q Q 2 Z Z Z Z Z Z Z Z Z Z Z Z Z Z Z Z Z Z Z Z Z Z Z Z Z ",
"Z Z Z Z Z Z = ( ( ( ( ( K ( K ( Q Q Q Q K ( K ( Q Q Q Q Q Q Q Q Q Q Q Q ( ( = Z Z Z Z Z Z Z Z Z Z Z Z Z Z Z Z Z Z Z Z Z Z Z Z Z ",
"Z Z Z Z Z Z = ( ( K ( K ( ( ( ( Q Q Q Q ( ( ( ( Q Q Q Q Q Q Q Q Q Q Q Q K ( = Z Z Z Z Z Z Z Z Z Z Z Z C Z Z Z Z Z Z Z Z Z Z Z Z ",
"o o o o o o o o o o o o o o o o Q o o o o o o o o o o o o o o o o o o o o o o o o o o o o o o o Z o o o o o o o o o o o o o o o ",
"| | | | | | | | | | | | | | | | % | | | | | | | | | | | | | | | | | | | | | | | | | | | | | | | % | | | | | | | | | | | | | | | ",
"| | | | | | | | | | | | | | | | m | | | | | | | | | | | | | | | | | | | | | | | | | | | | | | | M | | | | | | | | | | | | | | | ",
"| | | | | | | | | | | | | | | | m | | | | | | | | | | | | | | | | | | | | | | | | | | | | | | | M | | | | | | | | | | | | | | | ",
"| | | | | | | | | | | | | | | | m | | | | | | | | | | | | | | | | | | | | | | | | | | | | | | | M | | | | | | | | | | | | | | | ",
".............. .................m .... ....................... ....................... .........M ............ . ...............",
"D C A A A A A A A A A A C A A A M A A A A A A A Z A A A A A A A A A A A C A A A A A A A A A A A M C D A A A A A A A A A D C A A ",
"C D A A A A A A A A A A D C A A M A A A A A A A A A A A A A A A A A A A D A A A A A A A A A A A m D A A A A A A A A A A C D A A ",
"A A A A A A A A A A A A A A A A   A A A A A A A A A A A A A A A A A A A A A A A A A A A A A A A   A A A A A A A A A A A A A A A ",
"                                                                                                                                "
};
