/* XPM */
static char *Wall_06[] = {
/* columns rows colors chars-per-pixel */
"64 64 118 2 ",
"   c #5D2615",
".  c #692D18",
"X  c #6B311B",
"o  c #6E331D",
"O  c #763F29",
"+  c #7E492F",
"@  c #7E4A30",
"#  c #7F4B32",
"$  c #844B30",
"%  c #815238",
"&  c #999222",
"*  c #9C9723",
"=  c #9A9822",
"-  c #9D9823",
";  c #9E9923",
":  c #9E9924",
">  c #9F9B24",
",  c #9F9C24",
"<  c #A19F25",
"1  c #A19D26",
"2  c #98A323",
"3  c #ACB028",
"4  c #B4B82F",
"5  c #BCC036",
"6  c #9A886E",
"7  c #9B8971",
"8  c #9B8B71",
"9  c #9C8971",
"0  c #9C8A71",
"q  c #9D8B73",
"w  c #9E8B73",
"e  c #9E8D73",
"r  c #9F8E76",
"t  c #A19076",
"y  c #A3947B",
"u  c #A3947C",
"i  c #A3947F",
"p  c #A3967F",
"a  c #A5967F",
"s  c #A5987F",
"d  c #A69782",
"f  c #A79880",
"g  c #A79882",
"h  c #A69982",
"j  c #A79B82",
"k  c #A89984",
"l  c #A89B84",
"z  c #AA9C87",
"x  c #AA9D87",
"c  c #A69789",
"v  c #A59989",
"b  c #A59C89",
"n  c #A79C8B",
"m  c #A79C8D",
"M  c #A79D8D",
"N  c #A79E8F",
"B  c #AA9F8A",
"V  c #AB9F8A",
"C  c #AB9F8B",
"Z  c #A99E8E",
"A  c #A99E8F",
"S  c #A99F8F",
"D  c #ABA18B",
"F  c #A9A08E",
"G  c #A9A18F",
"H  c #ABA18E",
"J  c #ABA38E",
"K  c #ADA18E",
"L  c #ABA090",
"P  c #A9A092",
"I  c #A9A192",
"U  c #ABA092",
"Y  c #ABA292",
"T  c #ABA392",
"R  c #ADA090",
"E  c #ACA390",
"W  c #ADA390",
"Q  c #AFA390",
"!  c #ABA294",
"~  c #ABA394",
"^  c #ACA294",
"/  c #ACA394",
"(  c #ACA594",
")  c #ACA496",
"_  c #AEA496",
"`  c #AEA596",
"'  c #AEA796",
"]  c #AFA899",
"[  c #AFA999",
"{  c #B0A493",
"}  c #B2A597",
"|  c #B3A797",
" . c #B2A995",
".. c #B3AA97",
"X. c #B4AB97",
"o. c #B4AC97",
"O. c #B0A699",
"+. c #B0A999",
"@. c #B1A89B",
"#. c #B1AA9B",
"$. c #B3AA9D",
"%. c #B3AC9D",
"&. c #B8ACA0",
"*. c #B8B1A4",
"=. c #B9B3A7",
"-. c #C2B7AC",
";. c #C2C0B2",
":. c #D1C9C1",
">. c #D5CDC6",
",. c #D2D0C6",
"<. c #D2D0C7",
"1. c #D4D2C9",
"2. c #D6D5CA",
"3. c #D6D4CD",
"4. c #DDDBD4",
"5. c #E0DED9",
"6. c #E3E2DE",
"7. c #E6E5E1",
/* pixels */
"$ $ . . . 2.2.2.2.2.>.O & & & & & & & & & & & & & > 3 3 3 3 3 3 3 3 3 3 3 3 3 3 3 3 3 3 3 3 3 3 3 3 3 3 3 3 3 3 3 3 3 3 3 3 3 3 ",
"2.2.2.2.2.2.2.2.2.2.;.O & & & & & & & & & & & & & > 3 3 3 3 3 3 3 3 3 3 3 3 3 3 3 3 3 3 3 3 3 3 3 3 3 3 3 3 3 3 3 3 3 3 3 3 3 3 ",
"2.2.2.2.2.2.2.2.2.2.>.O & & & & & & & & & & & & & > 3 3 3 3 3 3 3 3 3 3 3 3 3 3 3 3 3 3 3 3 3 3 3 3 3 3 3 3 3 3 3 3 3 3 3 3 3 3 ",
"2.2.2.2.2.2.2.2.2.2.>.+ & & & & & & & & & & & & & > 3 3 3 3 3 3 3 3 3 3 3 3 3 3 3 3 3 3 3 3 3 3 3 3 3 3 3 3 3 3 3 3 3 3 3 3 3 3 ",
"6.6.6.6.6.6.7.7.7.7.-.  & & & & & & & & & & & & & > 3 3 3 3 3 3 3 3 3 3 3 3 3 3 3 3 3 3 3 3 3 3 3 3 3 3 3 3 3 3 3 3 3 3 3 3 3 3 ",
"%.$.$.$.#.#.#.] O.O.-.  & & & & & & & & & & & & & > 4 3 3 3 3 3 3 3 3 3 3 3 3 3 3 3 3 3 3 3 3 3 3 3 3 3 3 3 3 3 3 3 3 3 3 3 3 3 ",
"#.#.#.#.#.#.#.O.#.] -.  & & & & & & & & & & & & & > 4 4 3 3 3 3 3 3 3 3 3 3 3 3 3 3 3 3 3 3 3 3 3 3 3 3 3 3 3 3 3 3 3 3 3 3 3 3 ",
"#.#.#.#.#.] #.( ( ( &.  & & & & & & & & & & & & & > 2 2 3 3 3 3 3 3 3 3 3 3 3 3 3 3 3 3 3 3 3 3 3 3 3 3 3 3 3 3 3 3 3 3 3 3 3 3 ",
"$.$.@.@.] ] ^ ] O.( &.. & & & & & & & & & & & & & > 3 3 3 3 3 3 3 3 3 3 3 3 3 3 3 3 3 3 3 3 3 3 3 3 3 3 3 3 3 3 3 3 3 3 3 3 3 3 ",
"] ( ] ( ! _ ( ( _ ^ $.  & & & & & & & & & & & & & > 3 3 3 3 3 3 3 3 3 3 3 3 3 3 3 3 3 3 3 3 3 3 3 3 3 3 3 3 3 3 3 3 3 3 3 3 3 3 ",
"] ( ] ! ^ _ ( Y ! Y #.  & & & & & & & & & & & & & > 3 3 3 3 3 3 3 3 3 3 3 3 3 3 3 3 3 3 3 3 3 3 3 3 3 3 3 3 3 3 3 3 3 3 3 3 3 3 ",
"] ( ) ) ) ! T T Y Y |   & & & & & & & & & & & & & > 3 3 3 3 3 3 3 3 3 3 3 3 3 3 3 3 3 3 3 3 3 3 3 3 3 3 3 3 3 3 3 3 3 3 3 3 3 3 ",
"^ ^ ! ! U U U U R R }   & & & & & & & & & & & & & > 3 3 3 3 3 3 3 3 3 3 3 3 3 3 3 3 3 3 3 3 3 3 3 3 3 3 3 3 3 3 3 3 3 3 3 3 3 3 ",
"^ ^ ! Y U U U H Z Z A   & & & & & & & & & & & & & > 3 3 3 3 3 3 3 3 3 3 3 3 3 3 3 3 3 3 3 3 3 3 3 3 3 3 3 3 3 3 3 3 3 3 3 3 3 3 ",
"! Y Y Y Y Z F Z M M Z   & & & & & & & & & & & & & > 3 3 3 3 3 3 3 3 3 3 3 3 3 3 3 3 3 3 3 3 3 3 3 3 3 3 3 3 3 3 3 3 3 3 3 3 3 3 ",
"P Y Y Z Z Z M n n M c   & & & & & & & & & & & & & > 3 3 3 3 3 3 3 3 3 3 3 3 3 3 3 3 3 3 4 4 3 3 3 3 3 3 3 3 3 3 3 3 3 3 3 3 3 3 ",
"P P M P M M M n n n c   & & & & & & & & & & & & & > 3 3 3 3 3 3 3 3 3 3 3 3 3 3 3 3 3 5 4 3 3 3 3 3 3 3 3 3 3 3 3 3 3 3 3 3 3 3 ",
"P M M M n n b n c n   & & & & & & & & & & & & & & > 3 3 3 3 3 3 3 3 3 3 3 3 3 3 3 3 4 4 2 3 3 3 3 3 3 3 3 3 3 3 3 3 3 3 3 3 3 3 ",
". . . . . . . . . . & & & & & & & & & & & & & & & > 3 3 3 3 3 3 3 3 3 3 3 3 5 5 4 3 4 4 2 3 3 3 3 3 3 3 3 3 3 3 3 3 3 3 3 3 3 3 ",
". 6 7 7 8 7 8 6 6 . & & & & & & & & & & & & & & & > 3 3 3 3 3 3 3 3 3 3 3 3 3 5 4 4 2 4 2 3 3 3 3 3 3 3 3 3 3 3 3 3 3 3 3 3 3 3 ",
". 6 q 6 e q 7 7 q . & & & & & & & & & & & & & & & > 3 3 3 3 3 3 3 3 3 3 3 3 3 2 4 4 2 2 3 3 3 3 3 3 3 3 3 3 3 3 3 3 3 3 3 3 3 3 ",
". q q q e r r q 6 . & & & & & & & & & & & & & & & > 3 3 3 3 3 3 3 3 3 3 3 3 3 3 2 2 3 3 3 3 3 3 3 3 3 3 3 3 3 3 3 3 3 3 3 3 3 3 ",
". w q r q e 7 q q . & & & & & & & & & & & & & & & > 3 3 3 3 3 3 3 3 3 3 3 3 3 3 3 3 3 3 3 3 3 3 3 3 3 3 3 3 3 3 3 3 3 3 3 3 3 3 ",
". r q r q r q 6 q . & & & & & & & & & & & & & & & > 3 3 3 3 3 3 3 3 3 3 3 3 3 3 3 3 3 3 3 3 3 3 3 3 3 3 3 3 3 3 3 3 3 3 3 3 3 3 ",
". 6 6 q q 6 q q y . & & & & & & & & & & & & & & & > 3 3 3 3 3 3 3 3 3 3 3 3 3 3 3 3 3 3 3 3 3 3 3 3 3 3 3 3 3 3 3 3 3 5 3 3 3 3 ",
". q 6 q q q 6 q y . & & & & & & & & & & & & & & & > 3 3 3 3 3 3 3 3 3 3 3 3 3 3 3 3 3 3 3 3 3 3 3 3 3 3 4 5 5 3 3 3 5 3 3 3 3 3 ",
". q q w w r r u y . & & & & & & & & & & & & & & & > 3 3 3 3 3 3 3 3 3 3 3 3 3 3 3 3 3 3 3 3 3 3 3 3 3 3 3 5 4 4 3 4 5 3 3 3 3 3 ",
"e w q r q q e u y . & & & & & & & & & & & & & & & > 3 3 3 3 3 3 3 3 3 3 3 3 3 3 3 3 3 3 3 3 3 3 3 3 3 3 3 2 4 4 3 4 4 3 3 3 3 3 ",
". r q r q r u u u . & & & & & & & & & & & & & & & > 3 3 3 3 3 3 3 3 3 3 3 3 3 3 3 3 3 3 3 3 3 3 3 3 3 3 3 3 2 4 3 4 2 3 3 3 3 3 ",
". r e e e e u u u . & & & & & & & & & & & & & & & > 3 3 3 3 3 3 3 3 3 3 3 3 3 3 3 3 3 3 3 3 3 3 3 3 3 3 3 3 3 2 3 2 3 3 3 3 3 3 ",
". r e e e y y u u . & & & & & & & & & & & & & & & > 3 3 3 3 3 3 3 3 3 3 3 3 3 3 3 3 3 3 3 3 3 3 3 3 3 3 3 3 3 3 3 3 3 3 3 3 3 3 ",
". e e e e y u u u . & & & & & & & & & & & & & & & > 3 3 3 3 3 3 3 3 3 3 3 3 3 3 3 3 3 3 3 3 3 3 3 3 3 3 3 3 3 3 3 3 3 3 3 3 3 3 ",
". e e e u u u y y . & & & & & & & & & & & & & & & < 3 3 3 3 3 3 3 3 3 3 3 3 3 3 3 3 3 3 3 3 3 3 3 3 3 3 3 3 3 3 3 3 3 3 3 3 3 3 ",
". e e e u u u y u . & & & & & & & & & & & & & & & < 3 3 3 3 3 3 3 3 3 3 3 3 3 3 3 3 3 3 3 3 3 3 3 3 3 3 3 3 3 3 3 3 3 3 3 3 3 3 ",
". e e u u u p y u . & & & & & & & & & & & & & & & 1 3 3 3 3 3 3 3 3 3 3 3 3 3 3 3 3 3 3 3 3 3 3 3 3 3 3 3 3 3 3 3 3 3 3 3 3 3 3 ",
". e e u u u y y u . * & & & & & & & & & & & & & & 1 3 3 3 3 3 3 3 3 3 3 3 3 3 3 3 3 3 3 3 3 3 3 3 3 3 3 3 3 3 3 3 3 3 3 3 3 3 3 ",
"u r y u y y a y u . * & & & & & & & & & & & & & & 1 3 3 3 3 3 3 3 3 3 3 3 3 3 3 3 3 3 3 3 3 3 3 3 3 3 3 3 3 3 3 3 3 3 3 3 3 3 3 ",
". u H A U  .X.X.X.. * & & & & & & & & & & & & & & 1 3 3 3 3 3 3 3 3 3 3 3 3 3 3 3 3 3 3 3 3 3 3 3 3 3 3 3 3 3 3 3 3 3 3 3 3 3 3 ",
"o # $ + + + + # % X * & & & & & & & & & & & & & & * 3 3 3 3 3 3 3 3 3 3 3 3 3 3 3 3 3 3 3 3 3 3 3 3 3 3 3 3 3 3 3 3 3 3 3 3 3 3 ",
". p p a a s s p a . * & & & & & & & & & & & & & & 1 3 3 3 5 3 3 3 3 3 3 3 3 3 3 3 3 3 3 3 3 3 3 3 3 3 3 3 3 3 3 3 3 3 3 3 3 3 3 ",
". a p p a a d a 1.. > & & & & & & & & & & & & & & 1 3 4 4 3 3 3 3 3 3 3 3 3 3 3 3 3 3 3 3 3 3 3 3 3 3 3 3 3 3 3 3 3 3 3 3 3 3 3 ",
". d d j j d j k 1.. = & & & & & & & & & & & & & & = 4 4 2 3 3 3 3 3 3 3 3 3 3 3 3 3 3 3 3 3 3 3 3 3 3 3 3 3 3 3 3 3 3 3 3 3 3 3 ",
". l j l j x k -.<.. * & & & & & & & & & & & & & & 1 4 3 2 3 3 3 3 3 3 3 3 3 3 3 3 3 3 3 3 3 3 3 3 3 3 3 3 3 3 3 3 3 3 3 3 3 3 3 ",
". l l l j x x ;.>.. * & & & & & & & & & & & & & & 1 4 2 3 3 3 3 3 3 3 3 3 3 3 3 3 3 3 3 3 3 3 3 3 3 3 3 3 3 3 3 3 3 3 3 3 3 3 3 ",
". l x x x x ;.;.,.. > & & & & & & & & & & & & & & > 3 3 3 3 3 3 3 3 3 3 3 3 3 3 3 3 3 3 3 3 3 3 3 3 3 3 3 3 3 3 3 3 3 3 3 3 3 3 ",
"x x x x x x ;.;.,.. * & & & & & & & & & & & & & & > 3 3 3 3 3 3 3 3 3 3 3 3 3 3 5 4 3 3 3 3 3 3 3 3 3 3 3 3 3 3 3 3 3 3 3 3 3 3 ",
". B x x x ;.;.;.,.. = & & & & & & & & & & & & & & > 3 3 3 3 3 3 3 3 3 5 4 3 3 4 5 2 3 3 3 3 3 3 3 3 3 3 3 3 3 3 3 3 3 3 3 3 3 3 ",
". B B B B ;.;.;.>.. & & & & & & & & & & & & & & & > 3 3 3 3 3 3 3 3 3 2 4 4 3 4 4 3 3 3 3 3 3 3 3 3 3 3 3 3 3 3 3 3 3 3 3 3 3 3 ",
". D D B ;.;.;.;.,.. * & & & & & & & & & & & & & & 1 3 3 3 3 3 3 3 3 3 3 2 4 4 4 2 3 3 3 3 3 3 3 3 3 3 3 3 3 3 3 3 3 3 3 3 3 3 3 ",
". F H D ;.;.;.;.,.. * & & & & & & & & & & & & & & 1 3 3 3 3 3 3 3 3 3 3 2 4 4 2 3 3 3 3 3 3 3 3 3 3 3 3 3 3 3 3 3 3 3 3 3 3 3 3 ",
". Q U ;.;.;.;.;.,.. > & & & & & & & & & & & & & & > 3 3 3 3 3 3 3 3 3 3 3 2 4 3 3 3 3 3 3 3 3 3 3 3 3 3 3 3 3 3 3 3 3 3 3 3 3 3 ",
". T J ;.;.;.;.;.,.. * & & & & & & & & & & & & & & 1 3 3 3 3 3 3 3 3 3 3 3 3 3 3 3 3 3 3 3 3 3 3 3 3 3 3 3 3 3 3 3 3 3 3 3 3 3 3 ",
". J ;.;.;.;.;.;.>.. * & & & & & & & & & & & & & & > 3 3 3 3 3 3 3 3 3 3 3 3 3 3 3 3 3 3 3 3 3 3 3 3 3 3 3 3 3 3 3 3 3 3 3 3 3 3 ",
". { ;.;.;.;.;.;.<.. * & & & & & & & & & & & & & & > 3 3 3 3 3 3 3 3 3 3 3 3 3 3 3 3 3 3 3 3 3 3 3 3 3 3 3 3 3 3 3 3 3 3 3 3 3 3 ",
";.;.;.;.;.;.;.;.4.. 1 & & & & & & & & & & & & & & > 3 3 3 3 3 3 3 3 3 3 3 3 3 3 3 3 3 3 3 3 3 3 3 3 3 3 3 3 3 3 4 5 5 3 3 3 3 3 ",
";.;.;.;.;.;.;.;.4.. * & & & & & & & & & & & & & & > 3 3 3 3 3 3 3 3 3 3 3 3 3 3 3 3 3 3 3 3 3 3 3 3 3 3 3 3 3 4 4 5 3 3 3 3 3 3 ",
";.;.;.;.;.;.;.;.4.. * & & & & & & & & & & & & & & < 3 3 3 3 3 3 3 3 3 3 3 3 3 3 3 3 3 3 3 3 3 3 3 3 3 3 3 3 3 4 4 2 3 3 3 3 3 3 ",
";.;.;.;.;.;.;.;.5.. * & & & & & & & & & & & & & & < 3 3 3 3 3 3 3 3 3 3 3 3 3 3 3 3 3 3 3 3 3 3 3 3 3 3 3 3 3 2 2 3 3 3 3 3 3 3 ",
";.;.;.;.;.;.;.;.5.. > & & & & & & & & & & & & & & 1 3 3 3 3 3 3 3 3 3 3 3 3 3 3 3 3 3 3 3 3 3 3 3 3 3 3 3 3 3 3 3 3 3 3 3 3 3 3 ",
"3.3.3.4.4.5.5.5.5.. = & & & & & & & & & & & & & & 1 3 3 3 3 3 3 3 3 3 3 3 3 3 3 3 3 3 3 3 3 3 3 3 3 3 3 3 3 3 3 3 3 3 3 3 3 3 3 ",
"M M M M M M M M &.. * & & & & & & & & & & & & & & > 3 3 3 3 3 3 3 3 3 3 3 3 3 3 3 3 3 3 3 3 3 3 3 3 3 3 3 3 3 3 3 3 3 3 3 3 3 3 ",
"M M M M M M M M *.. * & & & & & & & & & & & & & & > 3 3 3 3 3 3 3 3 3 3 3 3 3 3 3 3 3 3 3 3 3 3 3 3 3 3 3 3 3 3 3 3 3 3 3 3 3 3 ",
"M M M M M M M M =.. 1 * > * * * * * * > * * * * * < 3 3 3 3 3 3 3 3 3 3 3 3 3 3 3 3 3 3 3 3 3 3 3 3 3 3 3 3 3 3 3 3 3 3 3 3 3 3 ",
". . . . . . . . . 3 3 3 3 3 3 3 3 3 3 3 3 3 3 3 3 3 3 3 3 3 3 3 3 3 3 3 3 3 3 3 3 3 3 3 3 3 3 3 3 3 3 3 3 3 3 3 3 3 3 3 3 3 3 3 "
};
