/* XPM */
static char *Wall_12[] = {
/* columns rows colors chars-per-pixel */
"64 64 66 1 ",
"  c #692D18",
". c #753920",
"X c #783A21",
"o c #7A3C23",
"O c #783D24",
"+ c #7A3E24",
"@ c #7A3F24",
"# c #7A3E25",
"$ c #7A3F25",
"% c #7A3F26",
"& c #7D4027",
"* c #7D4127",
"= c #7D4229",
"- c #7D4329",
"; c #7F4228",
": c #7F4229",
"> c #7F442B",
", c #7F452B",
"< c #874D33",
"1 c #965E3F",
"2 c #9C6847",
"3 c #A17F5E",
"4 c #86831D",
"5 c #999122",
"6 c #999222",
"7 c #A29C28",
"8 c #98A323",
"9 c #ABA52D",
"0 c #ACB028",
"q c #B4B82F",
"w c #BCC036",
"e c #C1C52D",
"r c #A08263",
"t c #AC8B6A",
"y c #AE9073",
"u c #B39D7E",
"i c #AD9B80",
"p c #AFA28C",
"a c #A9A092",
"s c #AAA294",
"d c #ABA294",
"f c #ACA496",
"g c #ACA596",
"h c #AFA699",
"j c #B1A89B",
"k c #B1AA9B",
"l c #B1AA9D",
"z c #B3AA9D",
"x c #B3AC9D",
"c c #BDB7A6",
"v c #BEB8A8",
"b c #BEB9A8",
"n c #BFBAAA",
"m c #C2BCAC",
"M c #C4BFB6",
"N c #C6C1B2",
"B c #C7C3B9",
"V c #D6D5CA",
"C c #DEDDD6",
"Z c #DEDDD7",
"A c #DFDDD7",
"S c #DFDDD8",
"D c #E0DED8",
"F c #E0DED9",
"G c #E1E0DB",
"H c #E3E2DE",
/* pixels */
"0000000000000000000000000000000000000000000000000000>HVVVVH#66ee",
"0000000000000000000000000000000000000000000000000000>HVVHHu#66ee",
"0000000000000000000000000000000000000000000000000000>HHHtyc#66ee",
"0000000000000000000000000000000000000000000000000000>&22nnc#66ee",
"0000000000000000000000000000000000000000000000000000>HVV#np#66ee",
"0000000000000000000000000000000000000000000000000000>HVVV#p#66ee",
"0000000000000000000000000000000000000000000000000000>HVVV#p#66ee",
"0000000000000000000000000000000000000000w00000000000>HVVVV##66ee",
"0000000000000000000000000000000000000000qq0000000000>HVVVVV#66ee",
"000000000000000000000000000000000000wwq08q0000000000>HVVVVV#66ee",
"0000000000000000000000000000000000000wqq880wwq000000>HVVVVV#66ee",
"0000000000000000000000000000000000qw08qq08qqw0000000>HVVVVV#66ee",
"00000000000000000000000000000000000wqq8q0qqq00000000>HVVVVV#66ee",
"000000000000000000000000000000000008qq088qq800000000>HVVVVV#66ee",
"0000000000000000000000000000000000008q00888000000000>HVVVVV#66ee",
"000000000000000000000000000000000000080qq00000000000>HVVVVV#66ee",
"000000000000000000000000000000000000000w800000000000>HVVVVV&66ee",
"0000000000000000000000000000000000000008000000000000>HVVVVVO66ee",
"0000000000000000000000000000000000000000000000000000>HDSAASO66ee",
"0000000000000000000000000000000000000000000000000000>&2222#&66ee",
"0000000000000000000000000000000000000000000000000000>HVVVVV&66ee",
"0000000000000000000000000000000000000000000000000000>HVVVVV*66ee",
"0000000000000000000000000000000000000000000000000000:HVVVVVX66ee",
"0000000000000000000000000000000000000000000000000000#HVVVVVO66ee",
"0000000000000000000000000000000000000000000000000000>HVVVVVO66ee",
"0000000000000000000000000000000000000000000000000000>HVVVVVO66ee",
"0000000000000000000000000000000000000000000000000000>HVVVVV&66ee",
"0000000000000000000000000000000000000000000000000000>HVVVVVO66ee",
"0000000000000000000000000000000000000000000000000000>HVVVVV&66ee",
"0000000000000000000000000000000000000000000000000000>HVVVVVO66ee",
"0000000000000000000000000000000000000000000000000000>HVVVVVO66ee",
"0000000000000000000000000000000000000000000000000000>GVVVVV&66ee",
"0000000000000000000000000000000000000000000000000000>HVVVVV&66we",
"0000000000000000000000000000000000000000000000000000>HVVVVVO66ee",
"0000000000000000000000000000000000000000000000000000>HAAAAAO66ee",
"0000000000000000000000000000000000000000000000000000>*2222O&66ee",
"0000000000000000000000000000000000000000000000000000>HVVVVV@66ee",
"0000000000000000000000000000000000000000000000000000>HVVVVV@66ee",
"0000000000000000000000000000000000000000000000000000>HVVVVV@66ee",
"0000000000000000000000000000000000000000000000000000>HVVVVV@66ee",
"0000000000000000000000000000000000000000000000000000-HVVVVV&66we",
"0000000000000000000000000000000000000000000000000000,HVVVVVo66ee",
"0000000000000000000000000000000000000000000000000000,HVVVVV&50ee",
"0000000000000000000000000000000000000000000000000000,HVVVVVO74ee",
"00000000000w0000000000000000000000000000000000000000>uHVVVV&74ee",
"000000wwq00qq000000000000000000000000000000000000000>mHVVVV@45ee",
"0000000wqq08q00w000000000000000000000000000000000000>mGVVVNo55ee",
"00000008qqq80qq8000000000000000000000000000000000000>nuGVpDo55ee",
"000000wq8qq00qq8000000000000000000000000000000000000>nmipSV&66ww",
"0000008qq8q00880000000000000000000000000000000000000>MmuGVVO66ee",
"00000008q8800000000000000000000000000000000000000000-niiZVVO66ee",
"0000000000000000000000000000000000000000000000000000-iiu221&66ee",
"0000000000000000000000000000000000000000000000000000O=*:GGG@66ee",
"0000000000000000000000000000000000000000000000000000>HHHVVV@66ee",
"0000000000000000000000000000000000000000000000000000:HVVVVV@66ee",
"0000000000000000000000000000000000000000000000000000#HVVVVV@66ee",
"**==0===============================0===::======&&X  HVVVVV<66ee",
"VVVV3VVVVVVVVVVVVVVVVVVVVVVVVVVVVVVV3VVVVVVVVVVVVVVVVVVVVVV<66ee",
"VVVV3VVVVVVVVVVVVVVVVVVVVVVVVVVVVVVV3VVVVVVVVVVVVVVVVVVVVVV<66ee",
"VVVV3VVVVVVVVVVVVVVVVVVVVVVVVVVVVVVV3VVVVVVVVVVVVVVVVVVVVVV<66ee",
"HHHHrHHHHHHHHHHHHHHHHHHHHHHHHHHHHHHHrHHHHHHHHHHHGHHHHHHHHHH<66ee",
"aaaa aaaaaaaaaaaaaaaaaaaaaaaaaaaaaaa aaaaaaaddddgggkkxxxxxN 66ee",
"aaaa aaaaaaaaaaaaaaaaaaaaaaaaaaaaaaa aaaaaaaddddggghkkxxxxB 60ee",
"                                                           600ee"
};
