/* XPM */
static char *Wall_13[] = {
/* columns rows colors chars-per-pixel */
"64 64 83 1 ",
"  c #592516",
". c #692D18",
"X c #6B311C",
"o c #633321",
"O c #6E3620",
"+ c #693823",
"@ c #673A2A",
"# c #6B3B28",
"$ c #753720",
"% c #753922",
"& c #793E25",
"* c #763F29",
"= c #6B402B",
"- c #7A4127",
"; c #76412B",
": c #7B452C",
"> c #6D4332",
", c #7D4B35",
"< c #734C3C",
"1 c #7F4E39",
"2 c #77503F",
"3 c #7F5039",
"4 c #775345",
"5 c #785648",
"6 c #7B5E4F",
"7 c #854C32",
"8 c #855236",
"9 c #83543D",
"0 c #8A563B",
"q c #88583F",
"w c #875E46",
"e c #8F5F44",
"r c #865E48",
"t c #866148",
"y c #8A654E",
"u c #926349",
"i c #94684D",
"p c #836455",
"a c #8A6751",
"s c #8D6C55",
"d c #8E6E59",
"f c #90725C",
"g c #A27D5B",
"h c #8C7764",
"j c #8D7966",
"k c #8C7569",
"l c #8E786C",
"z c #917761",
"x c #907D67",
"c c #947D6C",
"v c #927D71",
"b c #ACB028",
"n c #C1C52D",
"m c #9E8162",
"M c #92816D",
"N c #958273",
"B c #998675",
"V c #9A8A77",
"C c #99867A",
"Z c #9A8A7A",
"A c #A08263",
"S c #A29585",
"D c #A79C8E",
"F c #AA9E8E",
"G c #AAA193",
"H c #AEA699",
"J c #AFA899",
"K c #B2AB9C",
"L c #B4AEA0",
"P c #B6B1A2",
"I c #B8B2A5",
"U c #BCB2A8",
"Y c #C2C0B2",
"T c #D2CFC4",
"R c #D3D1C6",
"E c #D6D5CA",
"W c #D8D7CD",
"Q c #DAD7D1",
"! c #DDDAD5",
"~ c #DFDDD9",
"^ c #E1DFDB",
"/ c #E3E2DE",
"( c #E6E5E1",
/* pixels */
"nnnnbb7777777777,77,7777777m777777777777,7,87777788777777777A877",
"nnnnb7EEEREERREREEEE!YEEEER.EEEEEREEREEEEEY!EEEEY!~YWWWW!YWW7YEE",
"nnnn7EEEEEEEEEEEEEEEWEEEEEE.EEEEEREEEEEEEEEEEEEE!YWWY~W!WEEW7EEE",
"nnnn7EEEEEEEEEEEEEEEWWEEEEEAEEEEEEEEEEEEEEEEEEEEWWWWWWWYWWEEAEEE",
"nnnn7EEEEEE////////////////A//(//////(/////^/^//(/^^^^~///(/A/((",
"nnnn7EEEEE/uVIIIPPPPKPPKPPP8IPIIIIIIPPPPPPPPPPPLPPPKKPPKPPPP0KKP",
"nnnn7WEEEE/iVIIIPPKPPPKPPPK8IIIIIIPPPPPPPPPPKPPKKPKPPPPPKPPK0PPK",
"nnnn7WEEEE/uVPPPPKPKPKKPKKK8PPIPPPPPPPPPKPKKPKLLPKPKKKKKKKKP0PKK",
"nnnn7EEEEE/uBVPPPKPKKPPKKPK8PPPPPPPPPPPPPLLKLKLKPKKKKPKKKPKK0KKK",
"nnnn7//////uBVLLPKKKKKKKKKK8PPPPPPPPLPKKKKKKKKKLKKKKKKKKKJKK0KKK",
"nnnn7XAAAA.0VVKKKKKKKJKJKKJ8PKKKKKKKKKKKKKKKKJJJKJKKKJJKJKKK0KKK",
"nnnn7WEEEE/8BBKKKKJJJJJJJJJ8KKKKKKJKKJKJKJJJJJJJJJJJJJJJJJJJ7JKJ",
"nnnn7WEEEE/7vVNJJJJKJJJJJJJ8JJJJJJJJJJJJJJJJJJJJJJJJJJJJJJJJ%GJG",
"nnnn7WEEEE/$NNBGJGGGJJGJGJG8JGGJGJJJJGGJGJHHHGJJGJJGGJJGJGJJ%JGJ",
"nnnn7WEEEE/%cNNGGGGGGGGJJGJ8GJGGGJJJGGJGJGHHHGJGGJGJJGJJGJGG%GGG",
"nnnn7EEEEE/%cvMcDFFFFFFFGGG8GGGGFGFFGGGGGGFFFGGGGGGGGGGGGGGJ%GGJ",
"nnnn7EEEEE^%lMclDDDDDDFFGGG.GZGGGGJJGGJJGGFJGGGGGGGGJGGGGGDG=JJG",
"nnnn7WEEEE^&clclSSSSSDDFJZGXJKJZGGGZGGGZGGFZFGFFGGGGJZGGGGGG.ZGG",
"nnnn7EEEER~-oX@+=;;;+XXX .  X.. ........X. ... .. ..........m ..",
"nnnn7EEEER!-hhhhjMjMMMMMMMmmmMMMMMj+MjMjMmMMMMfMmMMMxxjjxxxxMMMM",
"nnnn7EEERR!:hhhhjjmMmMhMMMhMhMMzMjmoMjmjMMsMhMMMMMMMhMjjxxxxjmjj",
"nnnn7WEERR!:hhhljhhhMMMfjmMhMMzMMMj=MMjjMMhMMhfMMfhMmhmjxxxxMjxj",
"nnnn7EEERRQ:hhhhjMMMmMMMMMMMMfzMxMx=jjhmMjMMMMmhMM6MhjMMxxxxxxxx",
"nnnn7EERERQ:hjhhhjhMjMM6M6MfMMMzxMx=MjhMhMMshMjMhMMmjjMjxxxxxxxx",
"nnnn7EERRY/7hhhhhMMhMMmMMMMhjMjMxMm=MMMMjMzMzMMMMMMMMMMMxxMMMMMM",
"nnnn7^^!^!W7lllljjZVSSSDDDDFGGGGZGJtGGGZGGGGFDFGSDFGDGSGJZGGZJJZ",
"nnnn7.AAAmX-lllkMMZGSFGDDDGGGGGGJJZtJZGGGGGFFFGGGGGGDDGGJGGGGGGG",
"nnnn7WEERR^-<<44<=33t6jMmMhmxjjj66m36MmMxxjjMzMfMdddzMMMMMMMMMMm",
"nnnn7WEEEE^%NMNMMM@JJKJKJKLLJPLLPKKKPKPKKJPPPKPKKKdKJKKKKKPKKKPK",
"nnnn7EEEEE/%xcvcMMoGGGGGGGGDGGGGGGGGFGGGGGGGGGGGFGzGGGGGGGGFGGGG",
"nnnn7EEEEE/%clccMM>GGGGGGGGGGGGDGGGGGGGGGGGGGGFGGGfFGGGGGGGGGFGG",
"nnnn7WEEEE/$lclvMN6GGGGGGGGGGGGGGGGGGGGGGDGGGGGGGGdGGGGGGGGFGGGG",
"nnnn7EEEEE(%lccvvv5CGDGGGGGGGGGGFGGGGGGGGGGDGGGGGDfGGGDGGGGDGGGG",
"nnnn7EEEWE^%lcvvvv6CGGGDGGDGGGDGGGGFGGGGDGGGGGGDGGfGGGGGDGGGGGGD",
"nnnn7WEEEE^$lcvvvCpCGGGGDGGGDGDGFGFGGGGGGGGGGGGGDDwDDGGGGGGGDGGG",
"nnnn7EEEEE(%llcvvv5CCDGGGGDGGGGGGGGGGGDGGGGGGDGGDDwDGGGFGGDGGGGG",
"nnnn7WREEE/$555455545fffffffkdkdzdt2>,,sppaauprw1**:wlvccccvvccc",
"nnnn7WWEEE/%vvNCSvvSCLLHLHHLHUHUKPKK;KKPLLHHHHHHHHHHHHHHHHHHUKLL",
"nnnn7WWREE/%kllvvvvSCGDDDDDDDDDDDDDD;DDDDDDDDDDDDDDDDDDDFFDDDDDD",
"nnnn7EEEEW/%kllvCvCvCCDDDGDDDDGDDDGDsDDDDDDDDDDDDDDDDDDDDDDDGDDD",
"nnnn7EEEEE/$llcvvSCCSvDDDDDDDDDDDDDDcGFDDDDDDDDDGDDGDDGDDDDDDDDD",
"nnnn7WEEEE/$lllvvvCCvSDDDDDDDDDDDDGDcDFDGDDDDDDDDDDDDDDDGDDDDGGD",
"nnnn7///((/%kllvvCCvCCCDDDDDGDDDDDDDcFGDDDDDDDDDDDDDDDDDDDDDDDDD",
"nnnn7.AAgc.%kkvlvvvSCCSDDDDDDDDDDGDDcDDDDDDDDDDDDDDDDDDGDDDDDDDD",
"nnnn7WEEEE^%kklvvvvCvvcDDDDDDDDDDDDDcFDDDDFDDFDDDDDDDDDDDDDDDDDD",
"nnnn7WEEEE/$@455@@##*<5ffkffffvvMMccccccvvcccvcsdyddfkkfkfffffdk",
"nnnn7EEEEE/%CvvvCC@vvSCCLLLLLLLLLLLLLLLLLLLLLLLLHUaULLHUUHUHHUUH",
"nnnn7EEEEQ/%klkkkk@vvvvvDDDDDDDDDDDDFDDDFFDDFDDDDDpDDDDDDDDDDDDD",
"nnnn7WEEEE/$zkkkkk<lvvvvHDDDDDDDDDDDDGDDDDDDDDDDDDaDDDDDDDDGDDDD",
"nnnn7EEEEE/$xzkkkk6vvvvvvDDDDGGDDGDDDDDGDDGDDGDDDDkGDDDDDDDDDDDD",
"nnnn7WEEEE/$kkkkkk6vvvvvvDDGDDGDDDDDDDDDGDDDDDGDDDcFDDDGDDDDGDDD",
"nnnn7EEWEE/$kkkkll@vvvvvvDDDDDDDDGDDDDDDDDDDDDDDDDwDDDDDDDGDDDDD",
"nnnn7WEEEE/&kkkkkk#vvvcMvDDDDDDDDDDDDDDDDDDDDDDDDD1DDDDDDDDDDDGD",
"nnnn7EEEEW/$kkkkkk>llvcxvvDDDDDDDDDDDGDDDDDDDDDDDD1DDDDDDDDDDDDD",
"nnnn7WEEEE/$              ..v.....o....+.oo....X............C...",
"nnnn7WEEEE/$cBSSFSFSDSFSDDYY.YYYYYYYYYYYUYYUYYYYYYYYYYYYYYYY.YYY",
"nnnn7EEEEE/%NNSFDSFFSFSFSDYYmYYYYYYYYYYYYYYYYYYYYYYYYYYYYYYYvYYY",
"nnnn7//////%BmFSSDSSFSFSDDYYmYYYYYYYYYYYYYYYYYYYYYYYYYYYYYYYgYYY",
"nnnn7XAAAA.%BBFSDDDDSFSFSDYYmYYYYUYUYUYYYYYYYYYYYYYYYYYYYUYYcUYY",
"nnnn7EEEEE/%FFUUIIPIIUUUIIWEmEEEQEQQQQQQEEEEEEEEQEEEEEEEQQQQgQQQ",
"nnnn7WEEEE/%tpcNBVVVZZZVVZFFmFDFDDDDDDDDFFDDSDFDDDDDFFFDDDFFcFDD",
"nnnn7EEEEE/%ppNNBVVZZZZZVZDFmDDDDDDDDDDDSFDDFFDDDDDDSFFDDDFDgHFF",
"nnnn7EEEEE/%ppMBBBVVZZVZVVDD.FFDDDDDGDDDDFFDFFDDDDDDDDDDDDDD.FFD",
"nnnn7EEEEE/%......X.XX..X......................................."
};
