/* XPM */
static char *Smoke_10[] = {
/* columns rows colors chars-per-pixel */
"110 73 180 2 ",
"   c #4F2913",
".  c #512B14",
"X  c #5A361D",
"o  c #7D3515",
"O  c #5C3A23",
"+  c #5F3F28",
"@  c #56493F",
"#  c #55473E",
"$  c #5E4029",
"%  c #61412A",
"&  c #654934",
"*  c #5A4E43",
"=  c #574A40",
"-  c #5C5146",
";  c #5D5349",
":  c #62594B",
">  c #676159",
",  c #6A635B",
"<  c #6F695A",
"1  c #736C5E",
"2  c #70675B",
"3  c #6E6960",
"4  c #726C63",
"5  c #736F68",
"6  c #777166",
"7  c #797266",
"8  c #7A746A",
"9  c #7E796D",
"0  c #767168",
"q  c #797770",
"w  c #7A7870",
"e  c #823716",
"r  c #843917",
"t  c #893C1A",
"y  c #873B19",
"u  c #8C421E",
"i  c #894523",
"p  c #8C4926",
"a  c #8D4C2B",
"s  c #924521",
"d  c #914924",
"f  c #9F4E29",
"g  c #984D27",
"h  c #94512C",
"j  c #99532D",
"k  c #8E5231",
"l  c #9D5A35",
"z  c #935B3B",
"x  c #945735",
"c  c #A1522A",
"v  c #A15D36",
"b  c #A15E39",
"n  c #817F20",
"m  c #9C613B",
"M  c #A2633B",
"N  c #9D6541",
"B  c #9B6B44",
"V  c #9F7149",
"C  c #A56A43",
"Z  c #A96E44",
"A  c #A66B47",
"S  c #AA7046",
"D  c #A4714A",
"F  c #AB744B",
"G  c #AF794E",
"H  c #A77047",
"J  c #AE7C54",
"K  c #A2765B",
"L  c #A57A5D",
"P  c #AA7E5C",
"I  c #A77852",
"U  c #B27F56",
"Y  c #807B6F",
"T  c #9C7F64",
"R  c #837E72",
"E  c #AA7F62",
"W  c #8F8824",
"Q  c #948D29",
"!  c #99912E",
"~  c #ACB828",
"^  c #C1C52D",
"/  c #C9CD35",
"(  c #D1D43D",
")  c #AE8259",
"_  c #AF8A5E",
"`  c #B38256",
"'  c #B28359",
"]  c #B4885C",
"[  c #9D8265",
"{  c #9E8469",
"}  c #9F886C",
"|  c #868175",
" . c #888477",
".. c #8A867A",
"X. c #88857D",
"o. c #9F8D75",
"O. c #A18564",
"+. c #A38A66",
"@. c #A58B6B",
"#. c #AB8C6C",
"$. c #A88567",
"%. c #B38B69",
"&. c #B48D65",
"*. c #A79068",
"=. c #AB926C",
"-. c #A28C73",
";. c #A78D73",
":. c #A69176",
">. c #AB9475",
",. c #AD9977",
"<. c #A3907A",
"1. c #AA957B",
"2. c #AD9A7C",
"3. c #A79A7F",
"4. c #B29375",
"5. c #B49D75",
"6. c #B39E7C",
"7. c #BA9B7B",
"8. c #B69777",
"9. c #B59068",
"0. c #B0A079",
"q. c #C29F75",
"w. c #918D82",
"e. c #949187",
"r. c #99968D",
"t. c #9C998E",
"y. c #959289",
"u. c #9B9890",
"i. c #A69983",
"p. c #AB9B84",
"a. c #AB9E89",
"s. c #B49D84",
"d. c #AB9F90",
"f. c #AEA28D",
"g. c #B5A284",
"h. c #B5A58A",
"j. c #B9A589",
"k. c #B9A98D",
"l. c #BAA484",
"z. c #AFA391",
"x. c #B1A694",
"c. c #BAA690",
"v. c #B3A996",
"b. c #BBAC94",
"n. c #B2A798",
"m. c #B5AC9B",
"M. c #B9AF9B",
"N. c #BDB19A",
"B. c #BEB196",
"V. c #B8AFA2",
"C. c #BDB5A3",
"Z. c #BEB8A5",
"A. c #BFB6A9",
"S. c #BFB8AA",
"D. c #C2B49C",
"F. c #C3B89F",
"G. c #C3BAA6",
"H. c #C3BDAC",
"J. c #C0B6A1",
"K. c #C5BFB1",
"L. c #C4C0AF",
"P. c #CAC1AD",
"I. c #DBC7A2",
"U. c #C6C3B3",
"Y. c #CAC5B4",
"T. c #CCC7B9",
"R. c #CECABC",
"E. c #D1CDBE",
"W. c #D2D0BF",
"Q. c #CFCDC1",
"!. c #D1CFC1",
"~. c #D4D1C5",
"^. c #D8D5C7",
"/. c #D6D3C8",
"(. c #D9D6C9",
"). c #DAD8CE",
"_. c #DDDBD2",
"`. c #E0DED6",
"'. c #E1DFD8",
"]. c #E2E1DA",
/* pixels */
"^ ^ ^ ^ ^ ^ ^ ^ ^ ^ ^ ^ ^ ^ ^ ^ ^ ^ ^ ^ ^ ^ ^ ^ ^ ^ ^ ^ ^ ^ ^ ^ ^ ^ ^ ^ ^ ^ ^ ^ ^ ^ ^ ^ ' U U U U ' U ' ` ` ` ` ` U G G F F F ^ ^ ^ ^ ^ ^ ^ ^ ^ ^ ^ ^ ^ ^ ^ ^ ^ ^ ^ ^ ^ ^ ^ ^ ^ ^ ^ ^ ^ ^ ^ ^ ^ ^ ^ ^ ^ ^ ^ ^ ^ ^ ^ ^ ^ ^ ^ ",
"^ ^ ^ ^ ^ ^ ^ ^ ^ ^ ^ ^ ^ ^ ^ ^ ^ ^ ^ ^ ^ ^ ^ ^ ^ ^ ^ ^ ^ ^ ^ ^ ^ ^ ^ ^ ^ ^ ^ ^ ^ ^ ^ A !.E.T.E.T.T.!.^.^.~.~.^.~.!.~.^.^.T.T.F W W ^ ^ ^ ^ ^ ^ ^ ^ ^ ^ ^ ^ ^ ^ ^ ^ ^ ^ ^ ^ ^ ^ ^ ^ ^ ^ ^ ^ ^ ^ ^ ^ ^ ^ ^ ^ ^ ^ ^ ^ ^ ^ ^ ^ ",
"^ ^ ^ ^ ^ ^ ^ ^ ^ ^ ^ ^ ^ ^ ^ ^ ^ ^ ^ ^ ^ ^ ^ ^ ^ ^ ^ ^ ^ ^ ^ ^ ^ ^ ^ ^ ^ ^ ^ ^ ^ ^ ^ S ).E.!.!.!././.^.^.~.~./.^.~.~.~.~.~.T.T.F W W ^ ^ ^ ^ ^ ^ ^ ^ ^ ^ ^ ^ ^ ^ ^ ^ ^ ^ ^ ^ ^ ^ ^ ^ ^ ^ ^ ^ ^ ^ ^ ^ ^ ^ ^ ^ ^ ^ ^ ^ ^ ^ ^ ",
"^ ^ ^ ^ ^ ^ ^ ^ ^ ^ ^ ^ ^ ^ ^ ^ ^ ^ ^ ^ ^ ^ ^ ^ ^ ^ ^ ^ ^ ^ ^ ^ ^ ^ ^ ^ ^ ^ ^ ^ ^ ^ ^ S ).~././././.!.^.s.g.s.s.s.^.^.~.~.~.~.T.F W W ^ ^ ^ ^ ^ ^ ^ ^ ^ ^ ^ ^ ^ ^ ^ ^ ^ ^ ^ ^ ^ ^ ^ ^ ^ ^ ^ ^ ^ ^ ^ ^ ^ ^ ^ ^ ^ ^ ^ ^ ^ ^ ^ ",
"^ ^ ^ ^ ^ ^ ^ ^ ^ ^ ^ ^ ^ ^ ^ ^ ^ ^ ^ ^ ^ ^ ^ ^ ^ ^ ^ ^ ^ ^ ^ ^ ^ ^ ^ ^ ^ ^ ^ ^ ^ ^ ^ Z ).~.~.^.^.^.^.^.`.`.'.`.g.^.^.^.^.~.~._.F W W ^ ^ ^ ^ ^ ^ ^ ^ ^ ^ ^ ^ ^ ^ ^ ^ ^ ^ ^ ^ ^ ^ ^ ^ ^ ^ ^ ^ ^ ^ ^ ^ ^ ^ ^ ^ ^ ^ ^ ^ ^ ^ ^ ",
"^ ^ ^ ^ ^ ^ ^ ^ ^ ^ ^ ^ ^ ^ ^ ^ ^ ^ ^ ^ ^ ^ ^ ^ ^ ^ ^ ^ ^ ^ ^ ^ ^ ^ ^ ^ ^ ^ l l v l C Z ).~.~.~.~.~.^./.s.s.s.s.s.^.^.W.~.^.W._.F r e l l l ^ ^ ^ ^ ^ ^ ^ ^ ^ ^ ^ ^ ^ ^ ^ ^ ^ ^ ^ ^ ^ ^ ^ ^ ^ ^ ^ ^ ^ ^ ^ ^ ^ ^ ^ ^ ^ ^ ^ ^ ",
"^ ^ ^ ^ ^ ^ ^ ^ ^ ^ ^ ^ ^ ^ ^ ^ ^ ^ ^ ^ ^ ^ ^ ^ ^ ^ ^ ^ ^ ^ ^ ^ ^ ^ ^ A A A T.Q.E.E.E.S _.~.~.~./.~./.+ % + % + + % ^.^.^.^.^._.F k.k.T.T.T.l l l ^ ^ ^ ^ ^ ^ ^ ^ ^ ^ ^ ^ ^ ^ ^ ^ ^ ^ ^ ^ ^ ^ ^ ^ ^ ^ ^ ^ ^ ^ ^ ^ ^ ^ ^ ^ ^ ",
"^ ^ ^ ^ ^ ^ ^ ^ ^ ^ ^ ^ ^ ^ ^ ^ ^ ^ ^ ^ ^ ^ ^ ^ ^ ^ ^ ^ ^ ^ ^ ^ F H H !./.Q.T.T.T.E.E.F ).~.~.^.^.^.X 7 7 7 7 7 7 7 X X X ^.^._.F k.k.R.R.R.!.Q.!.l M M ^ ^ ^ ^ ( ^ ^ ^ ^ ^ ^ ^ ^ ^ ^ ^ ^ ^ ^ ^ ^ ^ ^ ^ ^ ^ ^ ^ ^ ^ ^ ^ ^ ^ ",
"^ ^ ^ ^ ^ ^ ^ ^ ^ ^ ^ ^ ^ ^ ^ ^ ^ ^ ^ ^ ^ ^ ^ ^ ^ ^ ^ ^ ^ ^ ^ J !./.!.~.E.T.v v v v v Z ).~.^.^.^.X 7 7 Y 7 7 7 7 | R R ..X X X G m m M M v !.~.~.W.W.~.M ^ ^ ^ / / ^ ^ ^ ^ ^ ^ ^ ^ ^ ^ ^ ^ ^ ^ ^ ^ ^ ^ ^ ^ ^ ^ ^ ^ ^ ^ ^ ^ ",
"^ ^ ^ ^ ^ ^ ^ ^ ^ ^ ^ ^ ^ ^ ^ ^ ^ ^ ^ ^ ^ ^ ^ ^ ^ ^ ^ ^ J J U !.!.!.~.!.v v ~.^.^.^.(.A ^.$ + O O 7 Y 8 7 7 7 R | |  .R  .R r.i.X ~.~.~.~.~.j M W.~.~.~.M ^ ^ ^ ^ ^ ^ ^ ^ ^ ^ ^ ^ ^ ^ ^ ^ ^ ^ ^ ^ ^ ^ ^ ^ ^ ^ ^ ^ ^ ^ ^ ^ ^ ",
"^ ^ ^ ^ ^ ^ ^ ^ ^ ^ ^ ^ ^ ^ ^ ^ ^ ^ ^ ^ ^ ^ ^ ^ ^ ^ A A !.!._.,./.!.l l E.W.W.W.W.^.^.Z X 2 1 1 1 1 7 8 7 7  . .|  .|  .R r.7 7 6 X ~.~.~.~.~./.M H ^.^.J M M M M ^ ^ ^ ^ ^ ^ ^ ^ ^ ^ ^ ^ ^ ^ ^ ^ ^ ^ ^ ^ ^ ^ ^ ^ ^ ^ ^ ^ ^ ",
"^ ^ ^ ^ ^ ^ ^ ^ ^ ^ ^ ^ ^ ^ ^ ^ ^ ^ ^ ^ ^ ^ ^ ^ A A /.).!./.~._.l l K.K.E.W.W.W.W.E.^.O < 1 1 1 1 1 7 7  .X. .R  .|  .R R r.7 7 6 6 X ~.~.~.~./.~.~.M F ].Y.Y.P.Y.M M M ^ ^ ^ ^ ^ ^ ^ ^ ^ ^ ^ ^ ^ ^ ^ ^ ^ ^ ^ ^ ^ ^ ^ ^ ^ ^ ",
"^ ^ ^ ^ ^ ^ ^ ^ ^ ^ ^ ^ ^ ^ ^ ^ ^ ^ ^ ^ ^ ^ ^ z ).).!.~.!.~.l l !.K.P.K.~.E.W.W.E.W.& ..| 1 1 1 1 5 ..X...X. . .R X.R w.u.R R 6 6 6 6 X /.~.~./.~.~.(.(.z j P.P.P.P.E.E.M ^ ^ ^ ^ ^ ^ ^ ^ ^ ^ ^ ^ ^ ^ ^ ^ ^ ^ ^ ^ ^ ^ ^ ^ ^ ",
"^ ^ ^ ^ ^ ^ ^ ^ ^ ^ ^ ^ ^ ^ ^ ^ ^ ^ ^ ^ ^ C b )./.!.~.~.!.l W.Q.E.!.E.K.W.~.~.~.W.E.& ..R | | Y | i... .R  . .X.X.X.R R u.R R 6 6 6 6 O Q.~.~.~.(.(./.~./.~.u R.R.E.T.T.T.g h ^ ^ ^ ^ ^ ^ ^ ^ ^ ^ ^ ^ ^ ^ ^ ^ ^ ^ ^ ^ ^ ^ ^ ",
"^ ^ ^ ^ ^ ^ ^ ^ ^ ^ ^ ^ ^ ^ ^ ^ ^ ^ ^ ^ l ).)./././.~.l l W.~.!.E.E.!.~.~.W.W.W.W.~.& ..| | | | | u....... .........X.i.R R R R 6 6 0 O Q.~.~.~./.~.~././././.y t T.E.T.~.Q.!.i ^ ^ ^ ^ ^ ^ ^ ^ ^ ^ ^ ^ ^ ^ ^ ^ ^ ^ ^ ^ ^ ^ ",
"^ ^ ^ ^ ^ ^ ^ ^ ^ ^ ^ ^ ^ ^ ^ ^ ^ ^ ^ ^ h )././././.l !.~.~.R.W.!.!.~.!.~.~.^.^.^.).& ..R | | | | i........... .X...R r.R R R R 0 0 0 O Q.Q.~.~.~.~.Y.Y.~./.!.~.~.r ~.~.~.!.~.t ^ ^ ^ ^ ^ ^ ^ ^ ^ ^ ^ ^ ^ ^ ^ ^ ^ ^ ^ ^ ^ ^ ",
"^ ^ ^ ^ ^ ^ ^ ^ ^ ^ ^ ^ ^ ^ ^ ^ ^ ^ C C ).K K /.(.l ~.!.!.!.R.~.E.E.~.~.~.~.~.).(.f.& ..| | | | r.X...................u.R R R R R 6 6 O _.R.Q.Q.Q.T.T.T.!.Q.!./.!.~.r ~.~.K L ).d d ^ ^ ^ ^ ^ ^ ^ ^ ^ ^ ^ ^ ^ ^ ^ ^ ^ ^ ^ ^ ",
"^ ^ ^ ^ ^ ^ ^ ^ ^ ^ ^ ^ ^ ^ ^ ^ ~ C ).).Q.)._.K x R.Q.~.Q.~.~.~.E.~.~.~.!.).).a.a.f.$ ..9 | | e.7 7 7 8 r.r.t.r.r.r.r.R R R R R R 6 6 O U._._.Q.W.R.R.Q.!.R.~.!.~.R.W.r K _._.Q.).).d ^ ^ ^ ^ ^ ^ ^ ^ ^ ^ ^ ^ ^ ^ ^ ^ ^ ^ ^ ",
"^ ^ ^ ^ ^ ^ ^ ^ ^ ^ ^ ^ ^ ^ ^ ^ Z ).!.!.!.!.!.l !.!.!.!.~.W.!.~.~.~.~.)._.;.<.i.a.a.% ..| | | e.Y Y Y w.w.w.w.w.w.w.w.R R R R Y 9 R 6 O U.Z.A._.`.Q.Q.Q.R.!.W.R.R.Q.R.~.r ~.Q.~.~.~.).d ^ ^ ^ ^ ^ ^ ^ ^ ^ ^ ^ ^ ^ ^ ^ ^ ^ ^ ",
"^ ^ ^ ^ ^ ^ ^ ^ ^ ^ ^ ^ ^ ^ ^ C ).!.!.!.6.I.I.I.I.0.0./.~.~.~.~.0.0.).-.<.-.<.i.p.o $ ..Y | t.9 Y R w.w.w.w.w.w.w.w.w.R R R R 9 9 R 6 O U.S.A.C.Z.`.R.0.0.0.0.R.!.R.R.0.0.I.I.I.I.0.I.(.s ^ ^ ^ ^ ^ ^ ^ ^ ^ ^ ^ ^ ^ ^ ^ ^ ^ ",
"^ ^ ^ ^ ^ ^ ^ ^ ^ ^ ^ ^ ^ ^ ^ C (.T.2.I.I.I.I.I.I.I.I.I.0.~.~.0.0.0.0.-.o.o.-.o o =.+ ..| r...w.w.w.w.w.w.e.w.w.w.w.w.R R R 9 9 9 9 R O M H.S.C.Z.n.0.0.0.0.0.0.R.0.I.I.I.I.I.I.I.I.I.0.I.^ ^ ^ ^ ^ ^ ^ ^ ^ ^ ^ ^ ^ ^ ^ ^ ^ ",
"^ ^ ^ ^ ^ ^ ^ ^ ^ ^ ^ ^ ^ ^ g /.T.6.I.I.I.I.I.I.I.I.I.I.I.0.I.I.0.0.0.0.@.o o =.#.D.% ..r.w.e.w.w.w.e...w.2 2 2 r.r.r.r.R R 9 9 9 9 9 O T.z z Z.Z.0.0.0.0.I.I.0.R.0.I.I.I.I.I.I.I.I.I.I.I.0.^ ^ ^ ^ ^ ^ ^ ^ ^ ^ ^ ^ ^ ^ ^ ^ ",
"^ ^ ^ ^ ^ ^ ^ ^ ^ ^ ^ ^ ^ ^ j !.T.I.I.I.I.I.I.I.I.I.I.I.I.I.I.I.0.0.0.0.o p.p.N.B.B.+ y.w.w.w.w.w.w.w.e.2 < < : < < 6 1 e.r.r.9 9 9 9 O H.T.R.h S.2.0.0.0.I.I.I.0.I.I.I.I.I.I.I.I.I.I.I.I.I.^ ^ ^ ^ ^ ^ ^ ^ ^ ^ ^ ^ ^ ^ ^ ^ ",
"^ ^ ^ ^ ^ ^ ^ ^ ^ ^ ^ ^ ^ e !.T.I.I.I.I.I.I.I.I.I.I.I.I.I.I.I.I.I.0.0.o p.B.B.B.N.D.+ ..w.w.w.w.w.r.r.r.2 < : : , < 4 4 4 4 4 r.t.9 9 X L.G.G.T.z z 0.0.I.I.I.I.I.I.I.I.I.I.I.I.I.I.I.I.I.I.0.^ ^ ^ ^ ^ ^ ^ ^ ^ ^ ^ ^ ^ ^ ^ ",
"^ ^ ^ ^ ^ ^ ^ ^ ^ C C C C C C C I.I.I.I.I.I.I.I.I.I.I.I.I.0.0.0.0.0.0.0.0.0.N.B.N.N.O w.w.w.u.u.u., 2 , 8 8 : : , 2 4 4 4 4 4 4 4 u.u.X S.G.L.G.0.0.0.0.0.0.0.0.I.I.I.I.I.I.I.I.I.I.I.I.I.I.0.S Z Z Z Z ^ ^ ^ ^ ^ ^ ^ ^ ^ ^ ",
"^ ^ ^ ^ ^ ^ ^ ^ C )./././.!.R.Q.I.I.I.I.I.I.I.I.I.I.I.I.0.0.0.0.0.0.0.0.0.0.0.0.N.N.O u.u.u.4 4 4 4 , 2 2 , 8 : : , 4 4 4 4 4 4 3 4 X.  L.0.0.0.0.0.0.0.0.0.0.0.I.0.I.I.I.I.I.I.I.I.I.I.I.I.0.~.~.E.E.`.Z ^ ^ ^ ^ ^ ^ ^ ^ ^ ",
"^ ^ ^ ^ ^ ^ ^ C _.)././.R.!.!.R.I.I.I.I.I.I.I.I.I.I.I.0.0.0.0.0.0.0.C.C.Z.N.N.D.N.T.. ..4 4 4 4 4 < 2 , , * 2 8 : , , 4 4 4 4 4 0 3 w.. G.H.Z.L.U.U.U.0.0.0.0.0.0.0.I.I.I.I.I.I.I.I.I.I.I.I.0.W.!.E.~._.Z ^ ^ ^ ^ ^ ^ ^ ^ ^ ",
"^ ^ ^ ^ ^ ^ ^ F _.Q.!.Q.!.Q.!.!.0.I.I.I.I.I.I.I.I.I.I.0.0.0.0.0.@.J.N.C.C.C.N.B.D.@.. w.4 4 4 < , , , 2 , 4 , * : = < , 4 1 , 2 3 3 w . H.H.L.Z.U.U.U.U.Y.0.0.0.0.0.0.I.I.I.I.I.I.I.I.I.I.I.0.~.~.~.!.].Z W W ^ ^ ^ ^ ^ ^ ^ ",
"^ ^ ^ ^ ^ ^ ^ F ).Q.Q.!.!.Q.Q.!.0.0.I.I.I.I.I.I.I.0.0.0.0.0.0.0.0.0.N.C.Z.Z.C.Z.J.[ . ..4 4 5 , , , , , , ; , ; 0 = , 2 4 4 , , , 3 w . Q.H.H.S.S.L.U.U.0.0.0.0.0.0.0.I.0.I.I.I.I.I.I.I.I.,.5.~.W.~.W.`.Z W W W ^ ^ ^ ^ ^ ^ ",
"^ ^ ^ ^ ^ ^ ^ H _.Q.!.!.!.!.!.Q.!.0.0.0.I.I.I.2.0.0.0.0.0.0.0.0.0.0.0.0.0.Z.Z.G.J.O.. X.4 4 4 , 2 , , 2 , * : * , 7 , , > , , , , , w . :.G.H.L.L.U.0.0.0.0.0.0.0.0.0.I.0.0.0.I.I.I.0.0.0.7.~.W.~.!.~.`.Z W W W ^ ^ ^ ^ ^ ^ ",
"^ ^ ^ ^ ^ ^ ^ F _.!.~.!.!.!.c.c.j.0.I.I.I.I.I.I.0.0.0.0.0.0.*.=.Z.Z.Z.U.Y.,.Z.H.H.1.. w , 4 5 , , 2 , , , 4 4 ; , * , , , , , , > , w . =.L.G.L.L.L.L.U.U.Y.o 0.0.0.0.0.0.0.I.I.I.I.I.I.0.0.~.~.W.^.W.`.Z W W W ^ ^ ^ ^ ^ ^ ",
"^ ^ ^ ^ ^ ^ ^ F _.!.!.~.!.4._.)._.4.I.I.I.I.I.I.I.I.I.0.0.0.0.S.Z.Z.Z.C.Z.T.[ S.G.2.. 8 , , , , , , , , , , , 4 , 4 , , , , , , , , w   g.G.H.H.H.L.H.S.H.H.U.0.0.0.0.I.I.I.I.I.I.I.I.I.0.).~.l.~.~.^.`.S W W W ^ ^ ^ ^ ^ ^ ",
"^ ^ ^ ^ ^ ^ ^ F _.~.~.~.!.4.!.#.~.4.0.I.I.I.I.I.I.I.I.I.0.0.0.0.L.Z.Z.0.0.H.T.O.O.6.. w , , , , , , , , , , , , , , , , , > , , , , q . h.H.G.L.H.0.0.H.H.H.0.0.0.0.I.I.I.I.I.I.I.I.I.0.0.7.7.7.^.^.^.`.H W W W ^ ^ ^ ^ ^ ^ ",
"^ ^ ^ ^ ^ ^ ^ Z _.!.~././.$./.).~.$.~.0.I.I.I.I.I.I.0.0.0.0.0.0.0.0.0.0.0.L.R.0.p.2.. 8 , , , , , , , , , > , = = * , > 3 > 3 > , , q   g.L.H.L.H.0.0.0.0.0.0.0.0.0.0.0.0.I.I.I.I.I.0.0.~.).).$.(.^.^.`.M W W W ^ ^ ^ ^ ^ ^ ",
"^ ^ ^ ^ ^ ^ ^ A `.~.~./.~.).L L L _.~.(.~.0.0.I.I.0.0.0.0.0.0.0.L.H.H.H.L.S.U.Q.s.2.  q , , , , , , , , > 3 > 5 5 * , > , , > > > 3 q . H.L.L.L.K.H.H.H.K.0.0.0.0.0.0.0.0.I.I.0.6.0.(.I D D ^.).^.(.^.].` W W W ^ ^ ^ ^ ^ ^ ",
"^ ^ ^ ^ ^ ^ ^ A `./.~././.~._._._.~.(.~.~.~.0.I.I.0.0.0.0.0.@.U.L.H.H.L.L.L.U.Q.f.g.  q , , , , , > , , > = , = 3 * , 3 , , > > > 3 q . L.L.L.S.H.H.H.L.H.H.H.r 0.0.0.0.0.I.I.0.^.~.(._._.).(.(.(.(.^.`.M W W W ^ ^ ^ ^ ^ ^ ",
"^ ^ ^ ^ ^ ^ ^ A `.)././.~./.(.^.~.~./.~.~.I.I.I.I.I.0.0.r @.*.H.L.S.L.L.L.L.L.L.Q.h.  q > 3 > > , > > , , = > 3 > 3 3 > > , > , 3 3 w . U.L.L.L.K.H.H.H.H.H.H.r _.~.0.0.0.I.I.I.I.0.).(.(.(.).^.(.(.(.`.M Q W W ^ ^ ^ ^ ^ ^ ",
"^ ^ ^ ^ ^ ^ ^ A _.)._.~.^././.(./.(.~.(.I.I.I.I.I.I.I.0.0.0.@.L.L.L.L.L.L.L.L.U.U.x.  q > > , > , > > > > = = = > > > > > > > 3 3 3 w   U.L.L.L.H.S.H.H.C.C.C.r 0.0.0.I.I.I.I.I.I.I.I.(.(.(.).^.(.(.(.`.H W W W ^ ^ ^ ^ ^ ^ ",
"^ ^ ^ ^ ^ ^ ^ C '.).)./.(./.~.(./.(.(.(.I.I.I.I.I.I.I.I.0.0.0.0.U.U.U.T.T.T.U.L.U.h.  q 3 > > > > > , 3 > 5 5 3 > 3 > > > > 3 3 3 5 @ . U.U.L.L.H.L.S.H.C.0.0.0.0.0.I.I.I.I.I.I.I.I.I.(.(.).).P.(.(.(.`.M Q W W ^ ^ ^ ^ ^ ^ ",
"^ ^ ^ ^ ^ ^ ^ b '.).).).~.(.(.(././././.I.I.I.I.I.I.I.I.0.0.0.0.0.S.T.T.T.T.Y.U.U.b.  q 3 > > > > , > > > > > > > > 3 > > > > 3 0 @ ; . U.U.L.L.H.S.C.C.0.0.0.0.0.0.I.I.I.I.I.I.I.I.I.(.(.P.P.P.P.(._.`.M W W W ^ ^ ^ ^ ^ ^ ",
"^ ^ ^ ^ ^ ^ ^ l '.'.].'.'._._._._._._.`.L I.I.I.I.I.I.I.0.0.*.R.R.T.R.U.T.T.T.U.U.v.  q 3 3 > > , , > > , > > , > > 3 3 3 > > 3 5 @ ;   U.U.U.U.H.S.N.C.C.H.r 0.0.0.0.I.I.I.I.I.I.2._.`.`.`.`._.`.`.`.`.C W W W ^ ^ ^ ^ ^ ^ ",
"^ ^ ^ ^ ^ ^ ^ r S.S.K.S.n.m.m.m.m.m.m.) _._.I.I.I.0.0.0.0.0.x U.R.R.R.R.R.T.U.U.U.B.  q , 3 3 3 3 , , , > > , , > 3 3 3 3 > > 5 @ ; ;   U.U.U.U.U.U.U.C.C.m T.T.0.0.0.0.I.I.I.I.0.K.f.f.z.z.v.n.v.v.z.L.r W W W ^ ^ ^ ^ ^ ^ ",
"^ ^ ^ ^ ^ ^ ^ r S.H.x.x.n.x.x.v.n.v.v.D N _.0.0.0.!.3.g.0.W.W.B U.T.R.T.T.R.U.U.U.b.  q 3 3 3 3 3 3 > > > > , , > 3 3 3 3 3 3 = ; ;   B.U.U.U.U.U.U.U.U.M T.T.T.0.0.0.0.0.0.2.N U.a.f.h.f.z.z.x.v.z.v.S.u W W W ^ ^ ^ ^ ^ ^ ",
"^ ^ ^ ^ ^ ^ ^ y H.f.f.h.>.&.&._ &.I H Z C _.~.~.!.!.!.Q.0.0.0.0.K U.T.T.R.R.U.U.U.v.B.                      . .                     B.M.U.Y.U.U.U.U.U.C J.0.0.0.0.0.0.T.T.T._.D &._ _ _ _ _ _ +.z.v.z.Z.o W W W ^ ^ ^ ^ ^ ^ ",
"^ ^ ^ ^ ^ ^ ^ r H.d.d.y ).!.E.E.Y.G.G.G.p i._.~.~.Q.Q.~.!.!.I.I.0.0.0.R.R.R.T.U.U.b.M.M.h.k.g.g.g.g.g.g.h.g.g.g.s.6.6.5.,.4.,.,.2.N.N.M.Y.U.U.U.U.U.0.0.0.0.0.0.0.T.R.T.R.).n.r H.T.R././././.'.r n.v.S.r W W W ^ ^ ^ ^ ^ ^ ",
"^ ^ ^ ^ ^ ^ ^ r V.d.d.y ).!.R.R.Y.Y.G.G.a +._.~.Q.~./.Q.~.Q.~.~.I.I.I.0.0.0.R.Y.U.Q.Q.M.B.B.N.M.M.N.N.N.N.N.D.N.N.N.N.D.M.N.D.M.N.M.M.Q.Y.U.U.U.U.0.0.0.p.).~.Q.Q.Q.Q.!.R.).d.r H.R.R.!.~./.Q.).r z.z.V.o W W ^ ^ ^ ^ ^ ^ ^ ",
"^ ^ ^ ^ ^ ^ ^ W r e r r <.`.E.E.E.Y.Y.Y.T.p @._.~.~.~.~.~.~.~.~.~._._.I D R.R.R.R.U.U.!.0.0.0.0.0.!.Q.Q.!.!.!.!.!.~.N.N.B.0.6.0.0.0.~.U.Y.U.L.m m b.k.(.!.!.Q.~.!.!.!.!.).T r H.E.R.~.!.~./._.f.r r r r W W ^ ^ ^ ^ ^ ^ ^ ^ ",
"^ ^ ^ ^ ^ ^ ^ ^ W W W e -.).E.E.E.E.Y.Y.T.a ;.:._.~.Q.~.~.~.~.~././.).Q.~.I R.T.R.Y.U.0.0.0.0.0.0.0.0.T.0.0.T.Y.0.6.Q.0.0.0.0.0.0.0.0.T.U.U.l ~.~.~.!.~.!.~.~.~.!.~.!.).{ T r H.R.R.~.!.~.~.).f.r W W W W ^ ^ ^ ^ ^ ^ ^ ^ ^ ",
"^ ^ ^ ^ ^ ^ ^ ^ ^ ^ ^ W r ;.).!.Q.R.!.R.Y.Y.k ;.n._.~.~.~.~.(.~.~.~.~.~.~.~.M A R.R.R.R.Y.U.7.s.0.0.T.T.Y.Y.T.Y.Y.T.Y.Y.0.0.0.0.Y.Y.Y.K.C l /.~.!.Q.~./.~.~.~.~./.~.).$.$.t H.H.R.R.~.~.~.(.O.e W W W ^ ^ ^ ^ ^ ^ ^ ^ ^ ^ ^ ",
"^ ^ ^ ^ ^ ^ ^ ^ ^ ^ ^ ^ r -.d.).R.Q.R.Q.T.Y.T.f m.m._._.`.~.~./.(./.(.~.!.!.~.~.v l v T.Y.T.T.K.Y.T.Y.Y.T.Y.Y.T.Y.Y.Y.Y.Y.Y.Y.Y.Y.b b C /././././.~.Q././.~./.~.~.).{ T i G.G.G.R.R././.(.[ [ e W ! ^ ^ ^ ^ ^ ^ ^ ^ ^ ^ ^ ^ ",
"^ ^ ^ ^ ^ ^ ^ ^ ^ ^ ^ ^ W t d.).Q.!.Q.Q.R.R.E j m.V.A.>.>.`./.~./.~.(.~.~.W.W.W.E.E.T.v v Y.K.T.Y.Y.T.Y.Y.Y.Y.Y.T.Y.Y.Y.Y.U.U.Y.f E.!./././././././././././.~.~.).{ T O.u r G.G.R.~./.~.).{ e W W Q / ^ ^ ^ ^ ^ ^ ^ ^ ^ ^ ^ ",
"^ ^ ^ ^ ^ ^ ^ ^ ^ ^ ^ ^ ^ y d.n.).Q.Q.!.%.%.%.K i V.C.C.>.4._./././.~.~.~.!.~.E.E.E.T.T.T.F S G I G ` ` U U U U U U G U D Y.T.m T.E.!././././././././././.(._._.-.-.O.i D.D.P P ~.~.~.).[ [ e Q W ~ / ^ ^ ( ^ ^ ^ ^ ^ ^ ^ ^ ",
"^ ^ ^ ^ ^ ^ ^ ^ ^ ^ ^ ^ ^ W r n.n.).%.%._._./.T K s V.J.J.F.`./././././.^.~.E.~.E.E.W.W.K.G (.^.^.(.^.).^.^.~.~.~.~.W.~.~.M M R.E.!.!././././././././././._.<.>.-.-.k D.D.K.K.P.K K ).,.[ r Q Q Q ~ ^ / / ~ ^ ^ ^ ^ ^ ^ ^ ^ ",
"^ ^ ^ ^ ^ ^ ^ ^ ^ ^ ^ ^ ^ ^ W r V.K _._.Q.!.!._.)._.s C.F.F.F.`._./.(.~.^.~.~.~.~.E.W.E.q.^.(.^.(.^.^.^.W.^.~.W.~.Q.~.Q.!.!.).L !.~./././././.(./././.'.`.<.<.-.-.p D.H.Y.Y.P.Y.U.`.a g.o Q & ~ / ^ ^ / / ~ ^ ^ ^ ^ ^ ^ ^ ^ ",
"^ ^ ^ ^ ^ ^ ^ ^ ^ ^ ^ ^ ^ ( ( e n.K S.).!.~.Q.~.E.R.Q.f c F.F.J.M.`._./.~.~.W.~.~.W.~.E.q.^.W.~.(.^.~.~.~.~.~.~.R.~.E.~.Q.~.).L !.~.~.!././.~.(./.`.`.1.1.<.;.p l T.K.R.T.T.U.Y.~.[ a i.o Q Q ~ / ^ ^ ~ ~ ^ ^ ^ ^ ^ ^ ^ ^ ^ ",
"^ ^ ^ ^ ^ ^ ^ ^ ^ ^ ^ ^ ^ ^ ( Q o T S.V._.~.~.~.R.E.R.Q./.s D.J.M.M.M.`.`.`.~.~.~.~.~.] ).~.^.W.~.~.~.~.~.W.W.~.~.~.~.W.~.E.~._.P ~.!.~././.`.`._.i.1.:.:.>.x U.Y.R.R.T.E.T.T.!.[ [ a o W n / ~ ~ ^ ^ ^ ^ ^ ^ ^ ^ ^ ^ ^ ^ ^ ",
"^ ^ ^ ^ ^ ^ ^ ^ ^ ^ ^ ^ ^ ^ ~ / Q r S.V.M.).~.~.Q.Q./.~././.g g V.M.M.M.k.k._.`.'.^.^.] `.~.^.^.^.~.^.^.~.~.^.!.~.~.~.~.!.W.~._.) E.~.`.`.`.,.,.1.1.:.;.a j Y.P.R.T.T.T.R.T.!.L T T o W W ^ ^ ^ ^ ^ ^ ^ ^ ^ ^ ^ ^ ^ ^ ^ ^ ^ ",
"^ ^ ^ ^ ^ ^ ^ ^ ^ ^ ^ ^ ^ ( / ~ / Q a V.M.V.).).~.~.~././.~.).).f j M.M.b.k.k.0.0.'.`.] _.~.W.^.^.^.^.^.D.^.~.W.D.E.!.!.~.~.W._.` _._.0.0.,.,.:.>.:.z x P.Y.K.K.T.R.T.T.^.^.T T T a W W ^ ^ ^ ^ ^ ^ ^ ^ ^ ^ ^ ^ ^ ^ ^ ^ ^ ^ ",
"^ ^ ^ ^ ^ ^ ^ ^ ^ ^ ^ ^ ^ ~ / / ~ / W r M.V.C.C.).~.~./././.).).7.(.g r k.k.l.g.0.0.9.U ).^.^.^.^.^.^.^._.D.D.D._.~.^.~.^.!.!.`.) ) 5.5.5.,.,.>.m z E.I /.K.K.R.R.T.T.E.{ { T T o W W ^ ^ ^ ^ ^ ^ ^ ^ ^ ^ ^ ^ ^ ^ ^ ^ ^ ^ ^ ",
"^ ^ ^ ^ ^ ^ ^ ^ ^ ^ ^ ^ ^ ^ ~ / ~ ~ ^ W o V.M.V.V.).).~.).).).8.~.~.~.W.r r u 0.0.6.9.U ).).(.^.^.^.^.^.q._.`.`.l.^.^.^.^.~.~.`.) I 5.5.5.r r e ~./.~.~.D.~.T.T.T.~.~.#.{ T T e W W ^ ^ ^ ^ ^ ^ ^ ^ ^ ^ ^ ^ ^ ^ ^ ^ ^ ^ ^ ^ ",
"^ ^ ^ ^ ^ ^ ^ ^ ^ ^ ^ ^ ^ ^ ^ ^ ^ ^ ^ ^ W o r V.V.V.m._._._.%.(.!.!.!.!.Q.~.Y.r t t t U `.^.).).^.^.^.(.`.9.%.%.`.^.^.^.^.^.~.`.J r r r r T.R.T./././.~./.b.T.^./.<.-.-.} o o W W ^ ^ ^ ^ ^ ^ ^ ^ ^ ^ ^ ^ ^ ^ ^ ^ ^ ^ ^ ^ ^ ",
"^ ^ ^ ^ ^ ^ ^ ^ ^ ^ ^ ^ ^ ^ ^ ^ ^ ^ ^ ^ ^ W W r V.m.V.m.m.K _.~.!.!.!.!.R.R.U.P.Y.P.P.U `.).^.^.^.(.^.^.G `.`.`.&.^.^.^.^.^.^.`.) k.k.!.W.W.T.T./.~./.~./.).).d.o.-.-.-.o W W ^ ^ ^ ^ ^ ^ ^ ^ ^ ^ ^ ^ ^ ^ ^ ^ ^ ^ ^ ^ ^ ^ ^ ",
"^ ^ ^ ^ ^ ^ ^ ^ ^ ^ ^ ^ ^ ^ ^ ^ ^ ^ ^ ^ ^ ^ ^ W o r M.m.m.K U._._._.~.R.W.R.R.Y.Y.Y.I.G `.^.).).).).).).`.^.^.^.`.^.^.^.^.^.!.'.I k.k.!.W.R.~.~.~.~._._._.{ z a.-.o.o o W ^ ^ ^ ^ ^ ^ ^ ^ ^ ^ ^ ^ ^ ^ ^ ^ ^ ^ ^ ^ ^ ^ ^ ^ ^ ",
"^ ^ ^ ^ ^ ^ ^ ^ ^ ^ ^ ^ ^ ^ ^ ^ ^ ^ ^ ^ ^ ^ ^ ^ W W r o n.K U.n.v.n._._._.`.R.Y.Y.P.K.G ].).).).(.).(.^.^.^._.^.^.^.^.^.^.^.^.'.G h.g.R.Q.W.)._.)._.+.[ T T z a.o o W W ^ ^ ^ ^ ^ ^ ^ ^ ^ ^ ^ ^ ^ ^ ^ ^ ^ ^ ^ ^ ^ ^ ^ ^ ^ ^ ",
"^ ^ ^ ^ ^ ^ ^ ^ ^ ^ ^ ^ ^ ^ ^ ^ ^ ^ ^ ^ ^ ^ ^ ^ ^ ^ W W e e K.n.n.n.z.f.z.a.).).).)._.F '.].].'.'.'.`.`.).).`.)._.)._._._.].'.'.D D.k._.)._.=.=.*.} +.O.[ [ o o W W ^ ^ ^ ^ ^ ^ ^ ^ ^ ^ ^ ^ ^ ^ ^ ^ ^ ^ ^ ^ ^ ^ ^ ^ ^ ^ ^ ^ ",
"^ ^ ^ ^ ^ ^ ^ ^ ^ ^ ^ ^ ^ ^ ^ ^ ^ ^ ^ ^ ^ ^ ^ ^ ^ ^ ^ ^ W W e e n.n.z.z.z.a.a.a.p.:.#.r H.H.K.V.M.M.M.M.M.m.m.M.m.x.x.H.H.J.S.G.p D D 5.=.=.=.*.*.} +.O.o o W W ^ ^ ^ ^ ^ ^ ^ ^ ^ ^ ^ ^ ^ ^ ^ ^ ^ ^ ^ ^ ^ ^ ^ ^ ^ ^ ^ ^ ^ ^ ",
"^ ^ ^ ^ ^ ^ ^ ^ ^ ^ ^ ^ ^ ^ ^ ^ ^ ^ ^ ^ ^ ^ ^ ^ ^ ^ ^ ^ ^ ^ W W e e z.d.a.a.a.a.3.:.@.y H.H.m.m.m.m.m.b.M.n.m.c.x.h.z.z.f.f.H.Z.o B D =.=.=.=.=.+._ o o W Q ( ^ ^ ^ ^ ^ ^ ^ ^ ^ ^ ^ ^ ^ ^ ^ ^ ^ ^ ^ ^ ^ ^ ^ ^ ^ ^ ^ ^ ^ ^ ^ ",
"^ ^ ^ ^ ^ ^ ^ ^ ^ ^ ^ ^ ^ ^ ^ ^ ^ ^ ^ ^ ^ ^ ^ ^ ^ ^ ^ ^ ^ ^ ^ ^ W W e e e e a.i.3.:.@.r H.m.v.m.m.m.n.n.x.x.x.z.f.z.f.f.z.f.a.A.o B V *.=.=.o o o o W W ^ ^ ( / / ^ ^ ^ ( ( ^ ^ ^ ^ ^ ^ ^ ^ ^ ^ ^ ^ ^ ^ ^ ^ ^ ^ ^ ^ ^ ^ ^ ^ ",
"^ ^ ^ ^ ^ ^ ^ ^ ^ ^ ^ ^ ^ ^ ^ ^ ^ ^ ^ ^ ^ ^ ^ ^ ^ ^ ^ ^ ^ ^ ^ ^ ^ ^ W W W W e e r e e e J.m.m.m.z.f.a.a.a.a.z.d.f.z.z.f.a.f.a.A.o o o o o o W W W W ^ ^ ^ ^ ~ / / ^ ^ / ( ^ ^ ^ ^ ^ ^ ^ ^ ^ ^ ^ ^ ^ ^ ^ ^ ^ ^ ^ ^ ^ ^ ^ ^ ^ ",
"^ ^ ^ ^ ^ ^ ^ ^ ^ ^ ^ ^ ^ ^ ^ ^ ^ ^ ^ ^ ^ ^ ^ ^ ^ ^ ^ ^ ^ ^ ^ ^ ^ ^ ^ ^ ^ ^ W W W W W e A.m.m.-.*.:.a.a.a.a.a.a.f.f.a.f.f.f.i.C.o W W W W W ^ ^ ^ ^ ^ ^ ^ ^ ^ ~ ~ ^ / / / ^ ^ ^ ^ ^ ^ ^ ^ ^ ^ ^ ^ ^ ^ ^ ^ ^ ^ ^ ^ ^ ^ ^ ^ ^ ",
"^ ^ ^ ^ ^ ^ ^ ^ ^ ^ ^ ^ ^ ^ ^ ^ ^ ^ ^ ^ ^ ^ ^ ^ ^ ^ ^ ^ ^ ^ ^ ^ ^ ^ ^ ^ ^ ^ ^ ^ ^ ^ ^ e A.>.@.=.=.@.f.a.i.a.p.a.a.a.p.3.i.t.i.C.o W W ^ ^ ^ ^ ^ ^ ^ ^ ^ ^ ^ ^ ^ ^ ^ / / ~ ^ ^ ^ ^ ^ ^ ^ ^ ^ ^ ^ ^ ^ ^ ^ ^ ^ ^ ^ ^ ^ ^ ^ ^ ^ ",
"^ ^ ^ ^ ^ ^ ^ ^ ^ ^ ^ ^ ^ ^ ^ ^ ^ ^ ^ ^ ^ ^ ^ ^ ^ ^ ^ ^ ^ ^ ^ ^ ^ ^ ^ ^ ^ ^ ^ ^ ^ ^ ^ W o o o r r o o o o o o o o o o o o o o o W W ^ ^ ^ ^ ^ ^ ^ ^ ^ ^ ^ ^ ^ ^ ^ ^ ~ ~ ^ ^ ^ ^ ^ ^ ^ ^ ^ ^ ^ ^ ^ ^ ^ ^ ^ ^ ^ ^ ^ ^ ^ ^ ^ ^ ",
"^ ^ ^ ^ ^ ^ ^ ^ ^ ^ ^ ^ ^ ^ ^ ^ ^ ^ ^ ^ ^ ^ ^ ^ ^ ^ ^ ^ ^ ^ ^ ^ ^ ^ ^ ^ ^ ^ ^ ^ ^ ^ ^ ^ W W W W W W W W W W W W W W W W W W W W W ^ ^ ^ ^ ^ ^ ^ ^ ^ ^ ^ ^ ^ ^ ^ ^ ^ ^ ^ ^ ^ ^ ^ ^ ^ ^ ^ ^ ^ ^ ^ ^ ^ ^ ^ ^ ^ ^ ^ ^ ^ ^ ^ ^ ^ "
};
