/* XPM */
static char *Smoke_13[] = {
/* columns rows colors chars-per-pixel */
"110 73 189 2 ",
"   c #7D3515",
".  c #823716",
"X  c #843917",
"o  c #883B17",
"O  c #893C19",
"+  c #863C1C",
"@  c #8C421E",
"#  c #A94218",
"$  c #AC491E",
"%  c #B24919",
"&  c #B04719",
"*  c #894523",
"=  c #8D4927",
"-  c #8D4C2B",
";  c #924521",
":  c #914924",
">  c #9F4E29",
",  c #974D28",
"<  c #94512C",
"1  c #99532D",
"2  c #8E5231",
"3  c #925532",
"4  c #945937",
"5  c #9D5A35",
"6  c #935B3B",
"7  c #9B5936",
"8  c #A1522A",
"9  c #BD5D29",
"0  c #A15D36",
"q  c #A15E39",
"w  c #817F20",
"e  c #9C613B",
"r  c #BE6229",
"t  c #A2633B",
"y  c #C1642A",
"u  c #C2692F",
"i  c #C36C34",
"p  c #C47137",
"a  c #C87A3E",
"s  c #9D6642",
"d  c #9C6A46",
"f  c #9F7149",
"g  c #9A7A5D",
"h  c #A56A43",
"j  c #A96E43",
"k  c #A66B47",
"l  c #AA7046",
"z  c #A4714A",
"x  c #AB744B",
"c  c #AF794E",
"v  c #A77047",
"b  c #A97750",
"n  c #AE7C53",
"m  c #A2765B",
"M  c #A57A5D",
"N  c #AA7E5C",
"B  c #A67953",
"V  c #B27F56",
"C  c #9C7E63",
"Z  c #A97F62",
"A  c #C47A47",
"S  c #8F8824",
"D  c #948D29",
"F  c #99912E",
"G  c #ACB828",
"H  c #C1C52D",
"J  c #C9CD35",
"K  c #D1D43D",
"L  c #AE8259",
"P  c #AF8A5E",
"I  c #B38256",
"U  c #B28359",
"Y  c #B4885C",
"T  c #9D8265",
"R  c #9E8469",
"E  c #9F886C",
"W  c #9F8C73",
"Q  c #A18564",
"!  c #AA8265",
"~  c #A38A66",
"^  c #A2856B",
"/  c #A68C6A",
"(  c #AA8C6A",
")  c #AC8865",
"_  c #B28D62",
"`  c #B38B69",
"'  c #B88E6C",
"]  c #A79068",
"[  c #AB926C",
"{  c #A28C73",
"}  c #AA8D70",
"|  c #A28E79",
" . c #B18E71",
".. c #A69176",
"X. c #AB9475",
"o. c #AD9977",
"O. c #A3907A",
"+. c #AA957B",
"@. c #AE9A7C",
"#. c #A79A7F",
"$. c #B29276",
"%. c #B39C75",
"&. c #B59C7B",
"*. c #B99B7C",
"=. c #B69778",
"-. c #B59068",
";. c #B1A079",
":. c #BAA07D",
">. c #CA8245",
",. c #CA8447",
"<. c #D1965A",
"1. c #D19D60",
"2. c #C29F75",
"3. c #C89167",
"4. c #CFA47D",
"5. c #A69983",
"6. c #AB9C84",
"7. c #AB9E89",
"8. c #B49E84",
"9. c #B99E84",
"0. c #AB9F90",
"q. c #AEA28D",
"w. c #B4A284",
"e. c #BAA383",
"r. c #B5A68B",
"t. c #BBA68A",
"y. c #B9AA8D",
"u. c #AFA391",
"i. c #B1A694",
"p. c #BAA690",
"a. c #B3A996",
"s. c #BCAD94",
"d. c #B2A798",
"f. c #B5AB9B",
"g. c #B9AF9B",
"h. c #BDB19A",
"j. c #BEB196",
"k. c #B8AFA2",
"l. c #BDB5A3",
"z. c #BEB8A5",
"x. c #BFB6A9",
"c. c #BFB8AA",
"v. c #C2AA8C",
"b. c #C0A789",
"n. c #C4AE93",
"m. c #C3B39B",
"M. c #C3B89F",
"N. c #C3B095",
"B. c #C3B6A2",
"V. c #C3BAA6",
"C. c #CCBDA0",
"Z. c #C3BDAC",
"A. c #C5BFB1",
"S. c #DAC39E",
"D. c #C4C0AF",
"F. c #CAC1AD",
"G. c #DBC7A2",
"H. c #DBC9A6",
"J. c #C6C3B3",
"K. c #CAC5B5",
"L. c #CCC7B9",
"P. c #CECABC",
"I. c #DACDB4",
"U. c #D1CDBE",
"Y. c #D2D0BF",
"T. c #DBD2BE",
"R. c #CFCDC0",
"E. c #D2CEC1",
"W. c #D4D1C5",
"Q. c #D9D2C4",
"!. c #D6D3C9",
"~. c #D9D6CA",
"^. c #DCD8CE",
"/. c #DFD8C5",
"(. c #DDDCD3",
"). c #E1D9C6",
"_. c #E1DACB",
"`. c #E2DED4",
"'. c #E1DFD8",
"]. c #E6E0D4",
"[. c #E4E2DB",
"{. c #E9E6DB",
"}. c #ECE9DF",
"|. c #EEEBE3",
" X c #EEECE8",
".X c #F0EEE7",
"XX c #F1EEE9",
"oX c #F2F1EC",
"OX c #F5F4F1",
/* pixels */
"H H H H H H H H H H H H H H H H H H H H H H H H H H H H H H H H H H H H H H H H H H H H I I I V V I I U I I I I I V c c x x x H H H H H H H H H H H H H H H H H H H H H H H H H H H H H H H H H H H H H H H H H H H H H H H ",
"H H H H H H H H H H H H H H H H H H H H H H H H H H H H H H H H H H H H H H H H H H H l !.L.L.L.L.L.W.!.!.W.!.W.W.W.W.W.Q.P.K.x S S H H H H H H H H H H H H H H H H H H H H H H H H H H H H H H H H H H H H H H H H H H H H ",
"H H H H H H H H H H H H H H H H H H H H H H H H H H H H H H H H H H H H H H H H H H H x ~.U.W.!.W.!.!.W.!.!.!.W.W.W.Q.W.W.W.K.K.k S S H H H H H H H H H H H H H H H H H H H H H H H H H H H H H H H H H H H H H H H H H H H ",
"H H H H H H H H H H H H H H H H H H H H H H H H H H H H H H H H H H H H H H H H H H H l ^.W.W.W.W.W.W.!.&.w.8.w.8.!.Q.!.W.Q.!.L.x S S H H H H H H H H H H H H H H H H H H H H H H H H H H H H H H H H H H H H H H H H H H H ",
"H H H H H H H H H H H H H H H H H H H H H H H H H H H H H H H H H H H H H H H H H H H l ^.W.W.!.Q.!.!.!.'.'.(.`.w.!.Y.!.Q.W.W.(.x S S H H H H H H H H H H H H H H H H H H H H H H H H H H H H H H H H H H H H H H H H H H H ",
"H H H H H H H H H H H H H H H H H H H H H H H H H H H H H H H H H H H H H H 7 7 5 e t x ^.W.W.W.!.Q.Q.Q.w.w.8.8.w./.~.~.!.!.Q.(.x X X 5 7 7 H H H H H H H H H H H H H H H H H H H H H H H H H H H H H H H H H H H H H H H H ",
"H H H H H H H H H H H H H H H H H H H H H H H H H H H H H H H H H H H k x k L.P.P.P.P.x ^.!.!.W.W.Q.!.a ,.>.>.>.a ,.Q.Q.!.!.W.(.x y.y.P.L.L.7 5 t H H H H H H H H H H H H H H H H H H H H H H H H H H H H H H H H H H H H H ",
"H H H H H H H H H H H H H H H H H H H H H H H H H H H H H H H H k x x E.E.P.L.P.P.P.P.x ^.W.!.!.!.!.r ].].`._.].].(.y y r Q.Q.(.c y.y.P.L.P.R.R.U.5 t t H H H H K H H H H H H H H H H H H H H H H H H H H H H H H H H H H H ",
"H H H H H H H H H H H H H H H H H H H H H H H H H H H H H H H n E.W.W.R.W.P.5 5 e 0 t l ^.!.Q.Q.~.u ].].].].].].].}.|.}.|.r y y c e t 0 t 0 W.W.E.E.P.W.t H H H J J H H H H H H H H H H H H H H H H H H H H H H H H H H H H ",
"H H H H H H H H H H H H H H H H H H H H H H H H H H H H n n n W.W.E.W.W.7 5 Q.!.Q.Q.Q.v Q.,.a p i ].].].].].].|.|.|.|.|.|.|.OXoXy Y.Y.W.E.!.1 t E.W.W.W.t H H H H H H H H H H H H H H H H H H H H H H H H H H H H H H H H H ",
"H H H H H H H H H H H H H H H H H H H H H H H H H H k k W.W.(.o.W.E.7 7 P.Y.Y.Y.Y.!.!.l u T./.).).).].].].].|.|.|.|.|.|.|.oX].].`.r !.W.!.W.W.!.t x W.W.V t t t t H H H H H H H H H H H H H H H H H H H H H H H H H H H H H ",
"H H H H H H H H H H H H H H H H H H H H H H H H k z !.~.R.W.W.(.7 5 J.A.Y.Y.Y.Y.Y.Y.Q.u T./.).)._.).].].|.|.|.|.|.|.|.}.|.oX].].`.`.r Q.W.W.W.W.W.!.l c ].F.K.F.F.t t t H H H H H H H H H H H H H H H H H H H H H H H H H H ",
"H H H H H H H H H H H H H H H H H H H H H H H 7 ~.~.R.!.E.E.5 5 U.J.D.D.W.U.Y.Y.Y.Y.<..X}./.)._.)._..X.X|.|.|.|.|.|.|.|.OX}.}.].`.]._.u W.!.W.W.!.!.!.!.e < J.K.F.F.L.U.t H H H H H H H H H H H H H H H H H H H H H H H H H ",
"H H H H H H H H H H H H H H H H H H H H H h 7 (.!.!.!.R.W.7 Y.E.E.U.Y.D.W.Y.Q.Y.Y.Y.1..X}.|.}.|.|.OX.X.X|..X|..X.X.X|..XOX}.{.].]._.].i R.W.W.W.!.W.W.!.!.W.O P.P.U.P.P.L.< < H H H H H H H H H H H H H H H H H H H H H H H ",
"H H H H H H H H H H H H H H H H H H H H 7 (.^.!.!.!.!.7 e Y.E.E.Y.P.W.W.W.Y.W.W.Y.Y.<..X|.}.|.}.}.OX.X}.|.|..X|.|..X.XoX}.}.}.}.`.`.'.a R.W.W.W.!.!.!.W.!.!.W.+ O L.L.L.W.P.E.@ H H H H H H H H H H H H H H H H H H H H H H ",
"H H H H H H H H H H H H H H H H H H H H < ~.!.!.~.!.7 R.W.R.R.E.E.Y.W.W.Y.W.Q.Q.W.^.1..X}.|.}.|.|.OX.X.X.X|..X.X.X|..XOX}.}.}.}.].`.`.r R.R.W.W.E.!.J.K.W.W.W.W.!.o W.W.W.W.W.@ H H H H H H H H H H H H H H H H H H H H H H ",
"H H H H H H H H H H H H H H H H H H h h ^.g m !.!.5 W.R.W.E.E.E.W.P.W.W.W.W.!.^._.0.,..X|.|.|.|.OX.X.X.X.X.X.X.X.X.X.XOX|.}.}.}.}.]._.i `.U.E.R.R.L.L.J.R.R.R.W.W.W.X W.E.M g ^.: : H H H H H H H H H H H H H H H H H H H H ",
"H H H H H H H H H H H H H H H H H h ^.^.R.(.(.m 4 R.R.W.P.W.E.Y.P.W.W.W.E.(.~.7.7.t.>..X{.}.|.oX].].].].OXOXOXOXOXoXOX}.}.|.}.}.}.`.].i J.(.(.P.P.E.R.R.R.R.W.R.W.R.P.o M (.(.R.^.^.: H H H H H H H H H H H H H H H H H H H ",
"H H H H H H H H H H H H H H H H h ~.R.R.R.R.R.7 R.E.W.R.E.Y.Y.W.!.W.W.^.^.O.| 5.7.7.A oX|.|.|.oX{.{.{.oXoXoXoXoXoXoXoX}.}.}.}.{.{.}.`.i J.z.x.(.'.R.R.U.P.R.R.R.P.R.U.E.+ R.R.W.W.W.^.: H H H H H H H H H H H H H H H H H H ",
"H H H H H H H H H H H H H H H h !.E.E.R.U.E.7 !.R.R.W.W.!.!.W.W.Q.W.(.W { { ..6.6.. A |.|.}.OX{.}.{.oXoXoXoXoXoXoXoXoX}.}.}.}.{.{.}.`.i A.c.z.x.z.(.U.R.R.R.P.R.R.P.P.U.P.X W.W.W.R.L.^.; H H H H H H H H H H H H H H H H H ",
"H H H H H H H H H H H H H H H h ^.L.R.E.R.7 !.!.R.R.!.!.!.!.!.E.W.^.W W / W W   . } A .X XOXXXXXoXoXoXoXoXoXoXoXXXXXXX|.}.}.{.{.{.{.}.i s Z.x.x.l.f.(.R.R.R.P.L.P.R.P.P.P.P.+ E.R.W.P.~.1 H H H H H H H H H H H H H H H H H ",
"H H H H H H H H H H H H H H , !.L.L.L.L.7 E.!.!.!.!.!.!.!.E.!.!.^.T { E E     ..( N.>..XOXXXXXOXoXoXoXoXoXT.T.T.OXOXOXOX}.}.{.{.{.{.[.i L.6 7 Z.c.d.f.'.!.W.R.R.P.P.R.P.R.R.W.X R.P.P.R.E.O H H H H H H H H H H H H H H H H ",
"H H H H H H H H H H H H H H 3 E.L.L.L.L.7 !.!.!.W.!.!.(.~.!.(.^.C C T R   6.6.h.j.j.p oXOXXXOXXXoXoXoXoX)./.T.F.Q.Q._._.oXOXoX{.{.{.{.i Z.L.L.- c.f.f.d.(.!.!.!.R.L.L.R.W.R.W.O P.P.U.U.U.O H H H H H H H H H H H H H H H H ",
"H H H H H H H H H H H H H . W.L.L.L.L.7 W.!.W.W.!.!.~.~.(.(.^.g C T     6.h.j.h.j.m.p oXXXXXXXOXoXOXoXOXT.T.M.S.Q.Q._.`._.^._.OXOX{.{.i V.V.V.L.6 4 d.f.d.(.!.!.W.R.W.R.R.!.E.E.j U.U.P.U.U.O H H H H H H H H H H H H H H H ",
"H H H H H H H H H h h h h h h h h h h h d m m g (.(.(.(.(.^.C C C   ] X.j.h.j.h.n.m.i OXOX XOXOXOXQ.Q.Q.{.].C.C.Q.Q._.^._._.^._.^.OXOX9 Z.V.Z.Z.L.L.3 f.r.@.(.~.!.!.E.E.Z Z Z m j j j j l l l l j j j j H H H H H H H H H H ",
"H H H H H H H H h ^.!.!.~.P.P.R.E.R.L.A.L.K.L.L.m m 6.} } ^.C g   ~ [ j.h.j.h.j.k.n.i OXOXOX_.^._.Q.Q.I.Q.Q.].C.M.Q._.^._.^._.^._.^. X& V.Z.V.J.J.J.K.- 8.o.(.m m C m Z W.W.!.E.U.U.W.E.W.U.E.E.U.W.Y.(.j H H H H H H H H H ",
"H H H H H H H h (.^.!.!.E.R.R.E.L.R.L.L.K.K.R.P.E.L.`.} } } C   / / l.l.l.l.j.h.k.L.& XX^.^._.(._.Q.Q.Q.Q.9.Q.[.C.Q.Q._.^.^.^.^.^._. X& Z.V.Z.J.J.J.J.K.X o.8.(.!.~.^.!.R.R.R.E.U.W.W.E.Y.U.W.E.E.W.W.(.j H H H H H H H H H ",
"H H H H H H H x (.E.R.R.R.E.P.R.R.R.R.R.R.R.P.R.R.R.L.^.^.^   [ ] z.l.l.h.l.h.h.B.Z & XX^._._.Q.Q.Q.Q.Q.Q._.Q.v.C.2.Q.Q.^.^.Q.Q.^.~.|.& V.Z.V.c.J.J.J.J.L.X @.(.~.~.R.R.R.E.R.E.U.W.U.W.W.W.Y.Q.W.R.W.`.j S S H H H H H H H ",
"H H H H H H H x (.R.R.R.W.R.R.R.R.E.R.R.R.R.R.R.L.E.P.P.(.^   [ l.l.l.l.z.z.z.z.x.H.A  X^.^._.Q.Q.E.Q.Q.Q.v.Q.n._.9.Q.Q.^._.Q.E.T.^.[.A G.c.V.Z.V.J.J.J.K.X 6.`.!.P.E.R.R.E.E.U.E.E.W.U.Q.U.U.W.W.U.W.(.v S S S H H H H H H ",
"H H H H H H H v (.R.E.R.E.R.R.R.E.R.R.R.R.R.R.R.R.R.P.(.7.. ] ( h.z.l.;.;.z.c.z.S.H.I.]._.^.Q.Q.E.Q.Q.Q.E.b.n.n.Q.`.E.Q.Q.Q.E.Q.Q.Q.[.4.G.G.Z.D.Z.J.J.J.J.L.X 7.(.E.P.E.R.E.E.E.!.E.E.W.W.W.Q.Y.Y.W.W.(.v S S S H H H H H H ",
"H H H H H H H x (.R.W.R.W.E.p.p.9.E.R.R.R.R.E.R.R.P.R.(.7.  ( ( V.z.z.J.K.o.z.Z.H.S.S.I.Q._._.E.Q.Q.I.Q.Q._.^.n.Q.b.Q.E.Q.Q.Q.E.E.E.).S.G.G.Z.D.A.A.A.J.A.K.X 0.(.E.E.P.E.E.E.E.E.E.!.b.t.*.W.W.W.W.E.].v S S S H H H H H H ",
"H H H H H H H x (.R.R.!.E.X.(.^.^.@.E.E.E.R.W.R.P.E.R.(.. / / c.z.z.l.z.l.L.T c.S.H.H.S.I.E.Q.E.Q.E.E.Q.Q.E.E.^.Q._.Q.E.I.E.Q.E.W.I.H.G.G.G.Z.c.Z.Z.Z.V.Z.Z.A.X (.E.U.U.E.!.E.!.Q.E.E.:.^.^.W.e.W.E.Q.].l S S S H H H H H H ",
"H H H H H H H x (.R.R.W.E.$.W.( E.@.W.E.W.R.E.E.W.~.^.(.X ( ] c.Z.V.z.z.z.Z.P.T Q G.G.G.G.V.U.T.Q.Q.Q.U.Q.E.Q.Q.E.Q.Q.E.Q.T.E.L.m.H.G.G.G.Z.Z.D.Z.Z.Z.Z.A.c.Z.X (.R.E.R.E.!.E.!.W.!.W.*.Q.*.&.*.~.!.~.`.t S S S H H H H H H ",
"H H H H H H H z (.W.W.W.W.( W.^.E.Q W.E.W.E.W.E.W.~.^.(.. ~ ( Z.Z.Z.z.z.D.Z.P.;.@.;.;.G.;.;.y.Q.Q.E.E.Q.Q.Q.Q.=.2.9.E.E.E.E.Q.9.;.;.G.;.;.D.Z.Z.Z.Z.Z.Z.Z.Z.A.X (.R.R.E.W.W.E.!.Q.!.Q.( !.^.^.! W.~.!.`.x S S S H H H H H H ",
"H H H H H H H k (.^.E.W.W.(.M M Z ^.!.!.!.W.E.!.W.W.^.(.. / ( Z.D.D.Z.Z.D.D.J.R.8.o.G.G.G.G.;.Y.E.E.E.Q.E.E.Q.^._.b.E.Q.Q.E.E.=.G.G.G.G.;.Z.D.Z.A.Z.D.Z.Z.A.Z.X (.W.W.W.E.!.!.E.W.W.!.B z k !.^.~.~.~.`.t D S S H H H H H H ",
"H H H H H H H k (.!.!.!.!.!.(.(.^.!.!.W.!.W.!.W.W.W.~.(.. / ( Z.Z.Z.D.Z.D.D.D.R.q.w.&.G.G.G.G.;.I.E.Q.E.E.9.E.=.(.p.Q.E.E.Q.=.G.G.G.G.;.Z.D.Z.Z.Z.Z.A.Z.Z.A.Z.X (.!.W.W.!.E.!.!.!.!.!.(.^.(.~.~.~.~.~.{.t D S S H H H H H H ",
"H H H H H H H k (.(.W.!.!.!.~.~.!.!.!.!.W.!.W.W.W.W.!.(.X ( / D.D.D.D.D.D.D.D.D.E.0.& [.G.G.G.S.G.Q.U.W.Q.=.E.`.Q.^.E.E.E.G.G.G.G.G.{.# J.J.D.D.Z.A.Z.Z.Z.Z.Z.X (.E.E.!.E.!.!.E.!.!.~.~.~.~.~.~.~.~.~.(.x D S S H H H H H H ",
"H H H H H H H k (.(.^.!.Q.!.!.Q.!.!.!.!.!.!.W.!.W.W.!.(.X ~ / Z.D.D.D.D.D.D.D.D.A.i.& [.Q.*.G.S.C.=.%.&.E.=.=.=.E.E.&.&.=.S.G.G.;.~.{.# J.D.Z.D.Z.Z.Z.Z.l.l.l.X '.E.!.E.E.!.!.Q.^.~.^.~.~.^.~.~.~.~.~.(.t S S S H H H H H H ",
"H H H H H H H h (.^.^.!.~.!.~.!.!.Q.!.!.!.!.!.!.E.!.W.(.X / ~ D.D.c.D.P.L.L.D.D.A.p.& [.~.E.E.E.Q.=.&.&.&.;.;.;.%.&.=.&.=.Q.Q.~.~.`.:.# J.J.J.Z.V.Z.Z.Z.l.l.l.X (.!.E.!.!.!.~.~.~.^.~.~.^.~.).F.~.~.~.'.t D S S H H H H H H ",
"H H H H H H H e [.^.^.^.Q.!.!.!.!.!.!.!.!.!.W.!.!.d 4 6 = + / J.J.J.L.L.L.L.L.J.A.p.# '.).U.T.E.Q.E.Q.P.U.;.;.;.@.E.E.I.E.E.E.~.(.:.m.$ J.J.J.Z.Z.c.l.l.l.l.. m m m M !.~.~.!.~.~.~.~.~.~.F.F.A.F.~.(.(.t S S S H H H H H H ",
"H H H H H H H 5 [.[.'.[.[.(.(.(.`.`.(.(.M ! ! / q.~.~.~.(.  ] P.L.L.L.J.P.P.P.J.J.a.# [.~.^.P.E.E.E.E.E.U.Q.E.T.U.T.~.^.~.E.U.).`.*.m.# J.J.J.F.Z.V.l.l.l.c.  ^.^.!.!.Z Z s }  . .$.(.'.(.(.'.(.(.`.(.(.f S S S H H H H H H ",
"H H H H H H H X Z.c.c.c.d.f.f.f.d.f.f.L `.(.^.^.(.!.R.R.Y.R.4 D.L.R.P.P.K.P.D.J.J.s.# [.~.~.~.~.Q.^.I.E.U.U.E.E.E.~._.~.~.P.E.^.&.m.m.# J.J.J.J.J.J.J.l.l.s P.L.L.L.L.^.^.^.}  . .A.7.0.r.i.i.d.a.a.u.D.X S S S H H H H H H ",
"H H H H H H H X c.c.r.i.u.i.i.a.a.u.a.z d (.R.W.R.R.R.R.Y.P.Y.f J.R.L.L.K.P.J.J.J.j.# [.~.~.~.!.^.Q.E.P.I.E.U.U.U.!.!.~.~.!.^.=.m.M.# h.J.J.J.K.J.J.J.J.t L.L.L.L.L.L.L.L.L.(.s K.7.0.0.q.i.u.u.a.a.u.D.@ S S S H H H H H H ",
"H H H H H H H X c.u.u.i.+._ _ _ _ L z j d (.W.R.!.R.R.R.Y.Y.P.^.g J.L.P.P.P.J.J.J.s.h.# # # # # # # # # # # # # & # # # & # # & # # h.g.J.J.J.J.J.J.A.t V.L.L.L.L.L.L.L.L.L.^.z _ _ Y Y P P ] ~ a.u.u.z.  S S S H H H H H H ",
"H H H H H H H X Z.0.u.X ^.U.U.U.K.V.V.B.= +.(.!.R.W.R.W.R.R.W.W.~.B K.P.P.K.P.D.J.s.f.h.r.r.r.w.9.8.8.9.r.w.w.w.8.&.&.%.$.$.} $.@.h.g.h.J.J.J.J.J.J.e j.c.x.R.W.E.L.P.L.L.(.d.+ Z.U.P.W.W.!.!.(.+ u.u.c.X S S S H H H H H H ",
"H H H H H H H X k.7.q.X ^.E.P.U.K.K.V.V.- / (.E.R.!.!.R.W.W.R.W.!.^.B K.P.P.P.K.J.R.R.g.g.h.g.h.m.m.m.k.h.h.m.h.h.h.h.h.m.g.h.h.g.l.s.R.J.J.K.J.J.c y.j.!.^.W.R.E.R.R.R.L.^.7.X V.L.P.W.W.!.W.^.X u.a.g.  S S H H H H H H H ",
"H H H H H H H S + . . . O.^.U.U.U.K.K.K.L.= { (.!.R.W.!.!.W.W.W.E.(.~.B z L.P.P.P.J.J.R.R.R.R.W.E.E.R.E.W.R.R.W.W.R.h.h.j.h.E.W.R.R.R.K.K.J.J.t e s.t.!.R.R.R.W.E.R.R.R.^.C . Z.U.L.W.W.R.!.(.0.X X @   S S H H H H H H H H ",
"H H H H H H H H S S S . | (.E.U.U.U.K.K.L.- } ..(.R.!.R.!.R.!.W.!.!.(.E.W.b P.L.P.J.J.L.K.K.K.K.L.L.L.A.K.L.L.K.L.L.!.R.h.g.J.L.L.J.K.J.J.L.4 W.W.W.E.W.W.W.W.W.R.!.W.^.R C + Z.U.P.W.E.W.W.(.q.X S S S S H H H H H H H H H ",
"H H H H H H H H H H H S X ..^.E.P.R.P.R.K.K.2 } d.(.W.!.W.W.W.W.W.W.!.R.W.W.t v L.L.P.P.J.J.J.K.L.L.K.L.K.L.K.L.K.K.K.K.R.R.L.J.K.J.K.L.s t !.!.E.W.R.!.!.W.W.W.E.W.^.Q Z o Z.Z.P.P.W.!.W.(.T X S S S H H H H H H H H H H H ",
"H H H H H H H H H H H H X { 0.^.R.R.E.L.K.K.L.> f.f.(.(.`.Q.!.!.~.!.!.W.W.R.W.R.0 t 5 P.P.L.K.K.L.J.L.K.L.K.L.K.L.K.K.K.K.K.L.J.K.t t q !.!.E.!.!.E.W.!.!.E.!.W.!.^.R R * Z.C.C.P.L.!.W.~.T T X S F H H H H H H H H H H H H ",
"H H H H H H H H H H H H S + u.^.R.R.L.R.E.L.Z 1 f.k.x.X.X.(.!.!.!.W.Q.~.R.W.R.W.P.Y.P.5 e J.K.K.L.K.K.K.K.K.K.K.K.K.K.K.L.J.J.L., U.E.!.!.!.!.!.W.!.!.!.!.!.!.!.^.R ^ ^ * . V.V.P.W.W.W.(.T   S S D J H H H H H H H H H H H ",
"H H H H H H H H H H H H H . u.u.^.R.E.E.` ` ` m * k.k.l.X.o.(.!.!.!.!.~.W.R.E.E.Y.U.K.K.P.x z c c b V V I I n n I n c I z J.L.e P.U.E.!.!.!.!.!.!.!.!.!.!.!.(.(.{ { ^ = s.s.N M W.W.!.~.T T X D S G J H H K H H H H H H H H ",
"H H H H H H H H H H H H H S . d.d.(. .' (.(.!.C m ; k.l.m.B.`.~.W.W.W.~.Q.W.Y.E.U.U.Y.Y.J.x Q.~.~.!.~.~.Q.Q.W.W.W.W.R.Y.R.t t Y.P.E.W.!.!.!.!.!.!.!.!.!.!.(.....{ { 2 n.v.K.K.K.g g `.} T X D D D G H J J G H H H H H H H H ",
"H H H H H H H H H H H H H H S + d.m (.^.R.R.W.^.^.(.; l.M.B.l.`.'.!.W.~.!.!.W.W.W.Y.Y.U.4.~.Q.Q.~.Q.~.~.W.W.Y.W.W.R.W.W.R.R.^.M E.W.E.!.!.!.!.!.!.!.!.(.(.....| { = n.A.K.A.A.K.K.(.- 6.  D w D J H H J J G H H H H H H H H ",
"H H H H H H H H H H H H H K K . f.C c.^.W.R.W.W.U.P.P.8 8 M.M.h.l.(.(.!.W.W.W.Y.W.W.Y.Y.:.Q.W.W.~.Q.W.W.W.W.W.W.W.Y.Y.R.!.R.(.M W.E.W.R.!.!.!.!.^.(.(.+.+.....= 4 P.L.L.P.L.A.K.!.C - 8.  D S G J H H G G H H H H H H H H H ",
"H H H H H H H H H H H H H H K D   C c.k.(.R.W.W.P.U.E.P.!.; m.V.g.h.g.(.`.(.W.W.W.Y.W.Y (.Y.W.W.Q.!.W.W.Q.Y.W.Y.W.R.W.W.R.R.E.^.N W.W.!.!.!.`.(.(.5.+.+.+...3 J.K.P.P.L.P.P.L.!.C C -   S w J G G H H H H H H H H H H H H H ",
"H H H H H H H H H H H H H H G J D X c.g.k.^.W.W.R.R.!.W.!.!.> , g.g.s.g.a.y.'.`.].Q.W.Y (.Q.W.Q.Q.Q.Q.Q.W.W.W.Q.W.W.W.Y.W.Y.Y.(.L P.Y.'.(.'.o.o.+.+.+...: 3 A.K.P.P.L.L.L.L.!.C C C   S S H H H H H H H H H H H H H H H H H ",
"H H H H H H H H H H H H H K J G J D - k.k.g.~.(.W.W.W.!.!.!.~.^.1 1 g.g.y.y.y.;.;.].(.Y ^.Q.!.!.W.Q.!.Q.N.Q.W.Q.m.W.!.R.W.W.W.(.I ~.(.;.;.;.o.X.X...6 3 J.K.F.A.L.P.L.L.Q.~.C C T - S S H H H H H H H H H H H H H H H H H H ",
"H H H H H H H H H H H H H G J J G J S X f.k.k.z.!.!.W.!.!.!.(.~.%.!., X a.y.y.:.:.;.] x (.Q.!.Q.Q.Q.~.~.(.m.M.m.(.W.Q.!.W.W.R.(.L L %.%.%.o.X.X.6 e E.m Q.F.F.P.L.L.L.E.R R T g   S S H H H H H H H H H H H H H H H H H H H ",
"H H H H H H H H H H H H H H G J G G H S + f.g.k.k.^.^.!.^.~.~.=.~.W.W.E.o o o ;.;.;.] I ^.^.~.Q.~.~.~.~.%.].(.(.t.Q.Q.Q.!.!.!.(.L I %.%.%.. X X W.!.!.~.t.!.K.P.L.T.Q.^ R T C   S S H H H H H H H H H H H H H H H H H H H H ",
"H H H H H H H H H H H H H H H H H H H H S X   l.k.k.k.(.(.(.' !.W.R.R.U.P.P.K.o @ @ @ I (.~.~.~.~.~.~.~.^.[ -.-.(.~.~.Q.Q.!.!.(.L . . X . P.P.P.!.W.!.!.W.s.L.!.!.O.| ^ ^     S S H H H H H H H H H H H H H H H H H H H H H ",
"H H H H H H H H H H H H H H H H H H H H H S S   k.f.f.f.f.m (.R.R.W.R.E.Y.P.K.J.K.K.D.I `.^./.(.~.^.~.Q.I (.(.(.-.W.~.!.Q.Q.Q.(.L y.y.U.Y.Y.K.P.W.!.W.W.E.(.(.7.W | | {   S S H H H H H H H H H H H H H H H H H H H H H H H ",
"H H H H H H H H H H H H H H H H H H H H H H H S X   f.f.f.m D.(.(.(.E.E.P.Y.P.K.K.F.F.z `.~.(.~.~.^.~./.(.~.~.~.(.~.~.~.Q.!.Q.[.L w.r.U.U.U.R.!.Q.W.(.~.(.T 6 q.{ W     S H H H H H H H H H H H H H H H H H H H H H H H H H ",
"H H H H H H H H H H H H H H H H H H H H H H H H S S +   f.g J.d.a.d.(.`.(.(.P.J.K.F.J.L [.~.~.^.~.~.~.~.~.~./.~.~.Q.Q.!.Q.Q.!.[.b r.r.U.Y.P.^.(.^.^.E E T T 6 7.    S S H H H H H H H H H H H H H H H H H H H H H H H H H H ",
"H H H H H H H H H H H H H H H H H H H H H H H H H H S S . . A.d.i.d.u.0.u.7.^.^.(.^.(.x '.'.'.'.'.'.`.`.(.^.`.^.^.(.^.(.(.[.'.'.z m.j._.(.(.[ [ ] ] ~ Q T T     S S H H H H H H H H H H H H H H H H H H H H H H H H H H H H ",
"H H H H H H H H H H H H H H H H H H H H H H H H H H H H S S . . d.i.u.u.u.7.7.7.5.../ X Z.Z.A.k.g.g.g.f.f.f.f.f.g.i.a.Z.c.z.V.x.= f z [ [ [ [ ] ] ~ ~ Q     S S H H H H H H H H H H H H H H H H H H H H H H H H H H H H H H ",
"H H H H H H H H H H H H H H H H H H H H H H H H H H H H H H S S . . u.u.q.7.7.6.6.../ o Z.Z.g.f.f.f.g.f.f.a.f.f.u.q.u.u.q.i.x.z.  d z [ [ ] [ [ ~ ~     S D K H H H H H H H H H H H H H H H H H H H H H H H H H H H H H H H ",
"H H H H H H H H H H H H H H H H H H H H H H H H H H H H H H H H S S . . . . 7.5.#.../ X Z.f.f.f.f.f.d.p.i.i.i.i.u.u.q.q.q.q.q.x.  d f [ [ ]         S S H H K J J H H H K K H H H H H H H H H H H H H H H H H H H H H H H H ",
"H H H H H H H H H H H H H H H H H H H H H H H H H H H H H H H H H H S S S S . . . . . . c.f.f.f.u.q.7.q.7.7.r.u.u.u.u.q.q.7.7.x.            S S S S H H H H G J J H H J K H H H H H H H H H H H H H H H H H H H H H H H H H ",
"H H H H H H H H H H H H H H H H H H H H H H H H H H H H H H H H H H H H H H S S S S S . x.a.a...] ..7.7.6.7.7.7.q.q.7.q.q.q.5.l.  S S S S S H H H H H H H H H G G H J J J H H H H H H H H H H H H H H H H H H H H H H H H H ",
"H H H H H H H H H H H H H H H H H H H H H H H H H H H H H H H H H H H H H H H H H H H . x.X./ [ [ / 7.7.5.7.5.7.7.7.5.5.5.5.5.l.  S S H H H H H H H H H H H H H H H J J G H H H H H H H H H H H H H H H H H H H H H H H H H ",
"H H H H H H H H H H H H H H H H H H H H H H H H H H H H H H H H H H H H H H H H H H H S         X                               S S H H H H H H H H H H H H H H H H G G H H H H H H H H H H H H H H H H H H H H H H H H H H ",
"H H H H H H H H H H H H H H H H H H H H H H H H H H H H H H H H H H H H H H H H H H H H S S S S S S S S S S S S S S S S S S S S S H H H H H H H H H H H H H H H H H H H H H H H H H H H H H H H H H H H H H H H H H H H H H "
};
