/* XPM */
static char *Smoke_0[] = {
/* columns rows colors chars-per-pixel */
"14 5 3 1 ",
"  c #B0A079",
". c #DBC7A2",
"X c None",
/* pixels */
".. XXXXXXXX ..",
"... XXXXXX ...",
"... XXXXXX ...",
"XX   XXXX   XX",
"XXX   XX   XXX"
};
