/* XPM */
static char *Smoke_11[] = {
/* columns rows colors chars-per-pixel */
"110 73 182 2 ",
"   c #552D14",
".  c #572F16",
"X  c #5F381F",
"o  c #613A1F",
"O  c #7D3515",
"+  c #623D24",
"@  c #66442C",
"#  c #68452A",
"$  c #6B4C35",
"%  c #5B4E43",
"&  c #5E5145",
"*  c #62554A",
"=  c #63584E",
"-  c #615447",
";  c #665D50",
":  c #685F50",
">  c #6E675F",
",  c #6F685F",
"<  c #756D5F",
"1  c #6F6860",
"2  c #726B61",
"3  c #757067",
"4  c #7B7364",
"5  c #777269",
"6  c #797369",
"7  c #7F786D",
"8  c #823716",
"9  c #853A17",
"0  c #883B17",
"q  c #893C19",
"w  c #863C1C",
"e  c #8C421E",
"r  c #894523",
"t  c #8C4926",
"y  c #8D4C2B",
"u  c #924521",
"i  c #914924",
"p  c #9B4D27",
"a  c #94512C",
"s  c #99532D",
"d  c #9D5A35",
"f  c #935B3B",
"g  c #935634",
"h  c #8E5231",
"j  c #A1522A",
"k  c #A15D36",
"l  c #A15E39",
"z  c #817F20",
"x  c #9B603B",
"c  c #A2643B",
"v  c #9D6642",
"b  c #9C6A46",
"n  c #9F7149",
"m  c #A56A43",
"M  c #A96E43",
"N  c #A66B47",
"B  c #AA7046",
"V  c #A4714A",
"C  c #AB744B",
"Z  c #AF794E",
"A  c #A77047",
"S  c #A97750",
"D  c #AE7C53",
"F  c #A2765B",
"G  c #A57A5D",
"H  c #AA7E5C",
"J  c #A67953",
"K  c #B27F56",
"L  c #817A6E",
"P  c #9C7F64",
"I  c #817E75",
"U  c #A97F62",
"Y  c #8F8824",
"T  c #948D29",
"R  c #99912E",
"E  c #ACB828",
"W  c #C1C52D",
"Q  c #C9CD35",
"!  c #D1D43D",
"~  c #AE8259",
"^  c #AF8A5E",
"/  c #B38256",
"(  c #B28359",
")  c #B4885C",
"_  c #9D8265",
"`  c #9E8469",
"'  c #9F886C",
"]  c #858175",
"[  c #888376",
"{  c #8C8679",
"}  c #8E887C",
"|  c #838078",
" . c #9F8C73",
".. c #908B7E",
"X. c #A18665",
"o. c #A38A66",
"O. c #A58B6B",
"+. c #AC8B6D",
"@. c #A88567",
"#. c #B38B69",
"$. c #B48D65",
"%. c #A79068",
"&. c #AB936B",
"*. c #A28C73",
"=. c #A78D73",
"-. c #B18E71",
";. c #A69176",
":. c #AB9475",
">. c #AC9977",
",. c #A3907A",
"<. c #AA957B",
"1. c #AD997A",
"2. c #A79A7F",
"3. c #B29276",
"4. c #B49D75",
"5. c #B49E7C",
"6. c #B99B7C",
"7. c #B69777",
"8. c #B59068",
"9. c #B0A079",
"0. c #C29F75",
"q. c #928E82",
"w. c #949084",
"e. c #9B968B",
"r. c #9D9A8F",
"t. c #9E9B91",
"y. c #8E8C82",
"u. c #A69983",
"i. c #AA9B85",
"p. c #AB9E89",
"a. c #B49D84",
"s. c #B89F88",
"d. c #A39F96",
"f. c #AB9F90",
"g. c #AEA28D",
"h. c #B5A384",
"j. c #B5A58A",
"k. c #BBA68A",
"l. c #B9A98D",
"z. c #BAA484",
"x. c #A4A096",
"c. c #AFA391",
"v. c #A6A299",
"b. c #B1A694",
"n. c #BAA690",
"m. c #B3A996",
"M. c #BCAD94",
"N. c #B2A798",
"B. c #B5AB9B",
"V. c #B9AF9B",
"C. c #BBB19B",
"Z. c #B8AFA2",
"A. c #BDB4A5",
"S. c #BEB8A5",
"D. c #BFB6A9",
"F. c #BFB8AA",
"G. c #C3B49C",
"H. c #C3B89F",
"J. c #C3BAA6",
"K. c #C3BCAC",
"L. c #C1B6A3",
"P. c #C6BFB1",
"I. c #C4C0AF",
"U. c #CAC1AD",
"Y. c #DBC7A2",
"T. c #C6C3B3",
"R. c #CAC5B5",
"E. c #CCC7B9",
"W. c #CECABC",
"Q. c #D0CDBE",
"!. c #D2D0BF",
"~. c #CFCDC1",
"^. c #D1CEC1",
"/. c #D4D1C5",
"(. c #D8D5C7",
"). c #D6D3C8",
"_. c #D9D6CA",
"`. c #DAD8CE",
"'. c #DDDBD2",
"]. c #E0DED6",
"[. c #E1DFD8",
"{. c #E2E1DA",
/* pixels */
"W W W W W W W W W W W W W W W W W W W W W W W W W W W W W W W W W W W W W W W W W W W W / K K K K / ( K / / / K / K Z C C Z A W W W W W W W W W W W W W W W W W W W W W W W W W W W W W W W W W W W W W W W W W W W W W W W ",
"W W W W W W W W W W W W W W W W W W W W W W W W W W W W W W W W W W W W W W W W W W W M ).W.E.Q.E.E.(.).(.(./.(.(.^./.(.).E.R.C Y Y W W W W W W W W W W W W W W W W W W W W W W W W W W W W W W W W W W W W W W W W W W W W ",
"W W W W W W W W W W W W W W W W W W W W W W W W W W W W W W W W W W W W W W W W W W W C _.W.^.).(.).^.)././.(.(./.(././././.E.R.A Y Y W W W W W W W W W W W W W W W W W W W W W W W W W W W W W W W W W W W W W W W W W W W ",
"W W W W W W W W W W W W W W W W W W W W W W W W W W W W W W W W W W W W W W W W W W W N `.(.).^.^.^.(.(.a.a.a.a.a.(./.(.(././.Q.C Y Y W W W W W W W W W W W W W W W W W W W W W W W W W W W W W W W W W W W W W W W W W W W ",
"W W W W W W W W W W W W W W W W W W W W W W W W W W W W W W W W W W W W W W W W W W W M `././.(.).(.(.(.'.'.'.].h.(.(.!./././.'.C Y Y W W W W W W W W W W W W W W W W W W W W W W W W W W W W W W W W W W W W W W W W W W W ",
"W W W W W W W W W W W W W W W W W W W W W W W W W W W W W W W W W W W W W W s d k d m C `././././.(.(.(.a.a.a.a.a.(.(.(.(./.(.`.C 9 9 d d d W W W W W W W W W W W W W W W W W W W W W W W W W W W W W W W W W W W W W W W W ",
"W W W W W W W W W W W W W W W W W W W W W W W W W W W W W W W W W W W N C N W.~.W.W.Q.M `.(./.(.(.).).@ @ @ @ @ @ @ (.(.(.(.(.'.C l.l.E.E.E.d d d W W W W W W W W W W W W W W W W W W W W W W W W W W W W W W W W W W W W W ",
"W W W W W W W W W W W W W W W W W W W W W W W W W W W W W W W W B C N ).^.E.W.E.W.W.W.C `././.(.^.).+ L I L L L L L o o o (.(.`.C l.l.W.W.W.^.~./.x c c W W W W ! W W W W W W W W W W W W W W W W W W W W W W W W W W W W W ",
"W W W W W W W W W W W W W W W W W W W W W W W W W W W W W W W D ^.).^././.E.d k k k k B `./.(.(.(.o L L L L L L L ..} } ..o o o Z x x c k k /.~./.W.!./.c W W W Q Q W W W W W W W W W W W W W W W W W W W W W W W W W W W W ",
"W W W W W W W W W W W W W W W W W W W W W W W W W W W W K D D ^.^.^./.^.d k /.(.(.(.(.A (.@ @ + # L I L I L L ........} } } d.f.o /.)./././.s c ^./././.c W W W W W W W W W W W W W W W W W W W W W W W W W W W W W W W W W ",
"W W W W W W W W W W W W W W W W W W W W W W W W W W m N ^.^.'.>.).^.d d Q.!.!.!.Q.(.(.M + < 4 4 4 4 L L L L ........} } } d.L L 7 X /.)./.)./.).c A !././ c c c c W W W W W W W W W W W W W W W W W W W W W W W W W W W W W ",
"W W W W W W W W W W W W W W W W W W W W W W W W N N `._././.^.].d d P.P.Q.!.!.!.!.!.(.+ < 4 4 4 4 4 L I ........} ......} d.L L 7 7 X /./././.).).).B Z {.U.R.U.U.c c c W W W W W W W W W W W W W W W W W W W W W W W W W W ",
"W W W W W W W W W W W W W W W W W W W W W W W d _.`././.^./.d d ^.P.U.P./.Q.Q.!.!.Q.$ w.} 4 4 4 L 4 q...............} y.d.{ { L 7 7 7 + /./././.)./.).).x s R.I.U.U.Q.E.c W W W W W W W W W W W W W W W W W W W W W W W W W ",
"W W W W W W W W W W W W W W W W W W W W W m d `././././.^.d !.^.^.^.!.K././././.!.!.$ w.} } } } { c.w...q...q.q.q...q.q.d.{ I L 7 7 7 + ~./.).).(./.).)./.).e E.Q.W.E.W.Q.a a W W W W W W W W W W W W W W W W W W W W W W W ",
"W W W W W W W W W W W W W W W W W W W W f `.`.`.).)./.f d !./.^.Q.Q.^./.!.!.!.!.!.!.$ w.{ } ..} } N.w...q.q...q.q.q.q.d.{ { } { 7 7 7 + ^././././.).(././.).`.O 0 E.W.E.^.^.^.e W W W W W W W W W W W W W W W W W W W W W W ",
"W W W W W W W W W W W W W W W W W W W W a `.).).).).d ^./.^.^.^.Q.^././././.(.(.(.`.$ w.} } } } } v...w.q.q.q.q.q.q.q.f.} { { { 7 7 7 + ~.~././././.T.R./././././.0 /./.^././.q W W W W W W W W W W W W W W W W W W W W W W ",
"W W W W W W W W W W W W W W W W W W m m _.F U /.).d /.^.^./.^.!.^.Q.(.^.^.(.(.`.`.c.# w.} } } } x.w.w.w.w.w.w.q.q.w.q.x.{ } { { { 7 7 o '.~.^.~.^.E.E.T.~.~.^././.^.0 ^.~.U U `.u u W W W W W W W W W W W W W W W W W W W W ",
"W W W W W W W W W W W W W W W W W m `.`.~.'.`.F f Q.!.^.^.!./.^.Q.^.(.^.^.`.`.p.g.g.# w.} } } r.L L L 7 x.x.x.x.x.x.x.{ } } { { { 7 7 # T.'.'.~.W.~.~.~.~.~.^./.^.~.~.0 F '.`.^.`.`.u W W W W W W W W W W W W W W W W W W W ",
"W W W W W W W W W W W W W W W W m `.~.^.~.^.~.d ~.^.^./.!.^.^./.(.^.(.`.`.,.*.u.u.g.# w.} } } r.[ [ [ e.e.e.e.e.e.e.e.{ { { { ] ] { 7 o T.S.A.'.].~.~.~.W.W.~.W.~.~.W.^.9 ^.^.^././.].p W W W W W W W W W W W W W W W W W W ",
"W W W W W W W W W W W W W W W m ).~.^.~.~.~.g ).^.~././././././.(.(.`.*.,.*.;.u.u.O # ..{ } x.[ [ [ e.e.e.e.e.e.e.e.e.{ { { { ] ] { 7 o P.F.F.A.F.'.Q.Q.~.~.W.W.W.~.W.~.~.9 ).^./.^.P._.u W W W W W W W W W W W W W W W W W ",
"W W W W W W W W W W W W W W W m ].E.^.~.~.d /.).^.^.).).(./.(./.^.`.*.*. .9.9.9.9.:.@ q.{ x.e.e.e.e.e.e.e.e.e.e.e.e.e.} { { ] ] ] ] { # x F.F.S.A.N.].~.~.~.W.~.W.~.E.~.~.W.9 ^.^.^.~._.j W W W W W W W W W W W W W W W W W ",
"W W W W W W W W W W W W W W a ).P.E.E.~.k /.)./.)././.)./././.(.'.P *.' 9.9.9.9.9.9.@ q.x.e.e.e.e.e.e.e.e.< < 4 x.x.d.x.{ { ] ] [ ] ] + W.x 9.9.9.N.B.].)./.W.~.E.~.E.W.W.~.^.0 ~.~.E.~.!.0 W W W W W W W W W W W W W W W W ",
"W W W W W W W W W W W W W W s ^.E.E.~.P.g ).).)./.).).1.Y.Y.Y.Y.9.9.P ` 9.9.9.9.9.9.+ x.e.e.e.e.e.e.e.r.4 2 < : < 2 6 6 t.x.x.] [ ] ] o 9.9.9.9.9.9.N.B.9.9.Y.Y.Y.Y.5.W./././.0 W.E.~.~.(.0 W W W W W W W W W W W W W W W W ",
"W W W W W W W W W W W W W 8 ^.E.E.E.P.d ).)./.).).9.Y.Y.Y.Y.Y.Y.Y.Y.9.1.Y.Y.9.9.9.M.# e.e.e.e.e.e.x.x.x.< < : : 2 2 6 6 4 4 4 d.x.] ] o I.9.9.9.Y.Y.9.9.Y.Y.Y.Y.Y.Y.Y.Y.7.^././.M Q.Q.Q.Q.Q.q W W W W W W W W W W W W W W W ",
"W W W W W W W W W m m m m m m m N m m c m F U P '.1.Y.Y.Y.Y.Y.Y.Y.Y.Y.Y.Y.Y.Y.9.9.9.@ e.e.e.v.v.x.3 < 3 I L : = < 2 4 6 6 6 6 6 6 x.v.X >.9.9.Y.Y.Y.Y.Y.Y.Y.Y.Y.Y.Y.Y.Y.Y.G G U M M M M M M M M M M M M W W W W W W W W W W ",
"W W W W W W W W m `.).)._.W.W.~.~.Q.E.P.R.T.P.R.1.5.Y.Y.Y.Y.Y.Y.Y.Y.Y.Y.Y.Y.Y.9.9.9.# v.v.v.6 6 5 2 < 2 < < L > : 2 6 6 6 6 6 6 5 6 y.# 9.9.9.Y.Y.Y.Y.Y.Y.Y.Y.Y.Y.Y.Y.Y.Y.5.).^.^.Q.^.^.^.^.Q.Q.^./.Q.'.M W W W W W W W W W ",
"W W W W W W W m '.`.).).~.^.^.W.~.~.~.P.E.E.W.1.Y.Y.Y.Y.Y.Y.Y.Y.Y.Y.Y.Y.9.9.9.9.9.E.. w.6 6 6 6 6 < < 1 2 & < 7 : < 2 6 4 6 6 4 5 5 y.. I.9.9.9.9.9.Y.Y.Y.Y.Y.Y.Y.Y.Y.Y.Y.Y.5.^.Q././.Q.(./././.^.^./.].M W W W W W W W W W ",
"W W W W W W W C '.^.^.~.Q.^.~.^.~.~.^.^.~.W.^.Y.Y.Y.Y.Y.Y.Y.Y.Y.Y.Y.Y.9.9.9.C.C.C.o.. w.6 6 6 2 2 2 < 3 < 5 3 - : & 2 2 5 5 1 < 5 5 | . J.J.K.F.1.9.9.Y.Y.Y.Y.Y.Y.Y.Y.Y.Y.Y.Y.Q.Q.Q././.^.(.Q././.^./.].M Y Y W W W W W W W ",
"W W W W W W W C `.~.~.~.^.~.~.^.Q.~.^.W.~.W.~.Y.Y.Y.Y.Y.Y.Y.Y.Y.Y.Y.9.9.9.9.9.9.S.X.  w.4 5 5 2 3 < 1 1 < & 1 = 6 & < < 5 5 2 2 2 5 | . ~.J.9.9.9.9.9.9.Y.Y.Y.Y.Y.Y.Y.Y.Y.Y.Y.^.^.^./.Q./.!./.!.Q././.].M Y Y Y W W W W W W ",
"W W W W W W W A '.~.^.^.^.^.^.~.Q.~.Q.^.W.^.~.Y.Y.Y.Y.Y.Y.Y.Y.Y.Y.9.9.9.9.9.9.9.9.9.  w.5 5 5 2 < < 2 2 3 & = = 1 7 1 3 2 2 2 1 2 2 | . 9.9.9.9.9.9.9.9.9.Y.Y.Y.Y.Y.Y.Y.Y.Y.Y.^./.^././.!./.!./.Q.(.!.].M Y Y Y W W W W W W ",
"W W W W W W W C '.^.^.^.^.^.n.n.s.^.^.^.^.^.^.^.9.Y.Y.Y.Y.Y.Y.Y.Y.9.9.9.9.9.J.F.S.1.  I 2 5 5 2 2 2 2 2 < 3 5 = 2 & 2 1 2 2 2 2 1 1 ]   ;.I.I.I.9.9.9.9.9.Y.Y.Y.Y.Y.Y.Y.Y.4.^.(./.^./.s.G.0./.!././.!.[.M Y Y Y W W W W W W ",
"W W W W W W W C '.^./././.3.`.`.].3.^.^.^.^.^.~.9.Y.Y.Y.Y.Y.Y.Y.Y.9.9.S.S.E._ F.K.2.  I < < 2 2 2 2 2 2 3 1 1 5 3 6 2 2 1 1 2 1 1 1 I . h.J.J.K.K.K.I.9.9.Y.Y.Y.Y.Y.Y.Y.Y.5./././././.0.`.(./.s.!./.(.[.B Y Y Y W W W W W W ",
"W W W W W W W C '././././.3.^.+.^.>./././.^.^.^.^.9.Y.Y.Y.Y.Y.Y.9.9.9.9.C.I.W.9.9.1.. | 1 1 2 2 1 2 2 2 2 2 2 2 2 1 3 1 1 1 1 2 1 1 |   g.9.9.K.I.I.9.9.9.9.Y.Y.Y.Y.Y.Y.9././.).(./.(.7.(.6.6.6.(.(.(.].c Y Y Y W W W W W W ",
"W W W W W W W N '.~./././.@./.`./.X./././.^.).^./._.9.Y.Y.Y.9.9.9.9.9.9.9.9.9.9.9.9.  ] 1 1 1 2 2 1 2 1 2 2 2 % % & 1 2 1 2 1 1 1 1 |   9.9.9.9.9.9.9.9.9.9.9.9.Y.Y.Y.9.^././././.(.(.#.(.`.`.U (._.(.].Z Y Y Y W W W W W W ",
"W W W W W W W M '.)./././.`.G U U `./.).).)./././.^.`.9.Y.Y.9.9.9.9.9.9.9.9.I./.1.a.  I 1 1 2 2 1 1 1 2 2 1 1 6 7 & 1 1 1 1 2 1 1 3 |   I.F.I.K.9.9.9.9.9.9.9.9.Y.Y.9././.(.).(.(./._.J V V _.`.(._.(.{.c T Y Y W W W W W W ",
"W W W W W W W N '.).).).).).'.'.`.).)./.).^.)./././.`.Y.Y.Y.Y.9.9.9.9.9.9.9.9.^.g.j.  I 1 2 , 1 2 2 1 1 1 % 2 % 5 * 1 2 2 1 1 1 1 3 |   I.I.I.9.9.9.9.9.9.9.9.Y.Y.Y.Y././././././.)._.`.`.`._._._.(._.{.c T Y Y W W W W W W ",
"W W W W W W W N '.`.).).(.).(._.).).).).)./././././.Y.Y.Y.Y.Y.Y.9.9.9.9.I.I.I.I.!.g.  I 1 1 1 1 1 2 1 1 2 % 1 5 1 5 1 1 1 1 1 1 3 3 |   T.T.I.I.F.I.9.9.9.9.Y.Y.Y.Y.Y.Y./.).(.^.)._._.`._._._.`._._._.{.Z Y Y Y W W W W W W ",
"W W W W W W W N [.`.`.).(.(.(.(.).).).).)./.(././.).Y.Y.Y.Y.Y.Y.Y.Y.9.9.I.I.I.I.I.b.  ] 1 1 1 1 1 1 1 1 1 % % % 1 1 1 1 1 1 1 5 5 5 |   T.I.I.I.K.F.9.9.Y.Y.Y.Y.Y.Y.Y.Y.^./.^.(.`._._._._._.`.(._._.(.{.c Y Y Y W W W W W W ",
"W W W W W W W m {.`.`.).(.).(.).).).).(.).)./.)./.).Y.Y.Y.Y.Y.Y.Y.Y.Y.9.9.9.T.I.I.b.  I 3 1 1 1 1 1 1 1 1 5 6 5 1 1 1 1 1 1 1 5 3 5 &   T.T.T.K.9.9.9.Y.Y.Y.Y.Y.Y.Y.Y.Y.)._.`.)._._._.`._._._.U._._._.].B Y Y Y W W W W W W ",
"W W W W W W W l {.`.`.`.).(.).).).).(.(.).).)./.).b 9.Y.Y.Y.Y.Y.Y.Y.Y.9.9.9.9.T.T.m.  I 3 1 1 1 1 1 1 1 1 1 1 1 1 1 1 1 1 1 1 3 7 & & . T.T.T.9.9.9.9.Y.Y.Y.Y.Y.Y.Y.Y.1._.(.).`.`._._._.`.U.U.U.U._.`.].c Y Y Y W W W W W W ",
"W W W W W W W d [.{.{.'.{.'.].].'.].'.[.G X.@.+.g.`.`.9.Y.Y.Y.Y.Y.9.9.9.9.E.E.T.T.M.  I 3 3 1 1 1 1 1 1 1 1 , 2 1 1 3 3 3 1 1 3 6 & =   T.T.T.T.J.9.9.9.9.Y.Y.Y.Y.Y.9.G U v -.-.-.3.'.[.].].].].].].'.[.A Y Y Y W W W W W W ",
"W W W W W W W 9 K.F.F.P.N.Z.N.m.N.B.B.~ '.'._.`.'.^.~.Q.9.9.9.9.9.9.E.E.E.W.T.T.T.V.  I 2 3 2 3 3 2 1 , 1 1 , , 1 5 3 3 3 1 1 3 % & =   T.T.T.T.T.T.I.S.9.9.9.1.9.9.E.`.`.`.-.-.-.K.f.f.c.c.c.N.m.m.m.F.9 Y Y Y W W W W W W ",
"W W W W W W W 9 K.F.b.b.c.c.m.m.m.m.b.A b '.^.^./.~.~.~.Q.!.Q.b T.9.9.9.E.E.T.T.T.M.  I 3 3 3 3 3 3 > > , , , , 1 3 3 2 3 3 5 % & >   M.T.T.T.T.T.T.9.9.9.9.E.E.E.Q.E.E.E.E.`.v T.g.f.j.g.c.c.m.m.c.m.K.9 Y Y Y W W W W W W ",
"W W W W W W W 9 F.g.c.j.<.$.$.^ $.D A M m './.^.^.^.^.~.Q.~.Q.`.J T.9.9.9.9.9.9.9.M.m.                      . .                     V.C.T.9.9.9.9.9.9.1.K.E.W.W.E.E.E.E.E.E.`.J $.) @.) ^ ^ ^ ^ c.m.c.S.O Y Y Y W W W W W W ",
"W W W W W W W 9 K.f.f.0 `.~.W.Q.R.J.J.J.t u.'.^.~./.~./.~./.).^.'.J T.W.9.9.9.T.T.m.V.V.j.j.Y.Y.Y.1.9.9.j.j.h.9.5.5.9.9.u.Y.Y.Y.1.C.C.C.T.T.T.9.9.9.x M.F.D.~.~.^.E.E.E.E.'.N.9 J.E.W./.).).).'.q v.m.F.e Y Y Y W W W W W W ",
"W W W W W W W 9 Z.f.f.0 ].~.Q.Q.R.R.J.J.y O.[.^./.~./.~./.^.^.)./.`.Z R.E.E.W.E.T.^.~.C.V.C.Y.Y.Y.Y.Y.Y.9.9.C.C.1.9.Y.Y.Y.Y.Y.Y.C.V.M./.T.T.T.R.T.D k.C.).).^./.^.Q.~.~.R.'.p.9 K.W.W.^.).).).`.8 c.c.V.O Y Y W W W W W W W ",
"W W W W W W W Y 0 8 8 8 =.`.Q.Q.Q.R.R.E.R.t +.'./././././././.^./.'.'.J J E.E.E.W.T.T.^.!.^.^.^.Y.Y.Y.9.^.^.^.^./.^.5.Y.Y.Y.~.~.~./.^.T.T.E.T.x c M.k._.~./.~././.~.~.~.'.P 9 K.Q.W./.^./.).`.g.q 8 9 9 Y Y W W W W W W W W ",
"W W W W W W W W Y Y Y 8 ,.`.Q.Q.Q.Q.R.R.R.y =.;.'././.^././././././.`././.S W.W.W.R.T.T.T.T.T.E.R.R.R.R.E.E.E.R.R.E.^.^.V.A.T.T.T.T.E.E.T.T.d ^.^./././././././.^././.`._ P 9 K.W.W./.!.~.).`.x.8 Y Y Y Y W W W W W W W W W ",
"W W W W W W W W W W W Y 9 *.`.^.^.W.W.W.R.R.y :.N.].).)./././.)././././.^./.m m W.W.E.W.R.R.E.E.T.E.R.E.E.R.E.E.R.R.R.R.^./.T.E.R.R.R.R.m v ).).^.^./././././.)././.`.` @.q J.P.W.W._./.!.(._ e Y Y Y W W W W W W W W W W W ",
"W W W W W W W W W W W W 9 ,.f.`.W.W.~.Q.R.R.E.s N.B.'.'.'.).).).)./.(././.^.^./.k k k E.E.P.E.P.E.R.R.R.R.E.R.R.E.R.R.R.R.T.T.T.E.l l l ).).).).).^.~.)./.).)././.`.` U r J.J.J.W.W.)./._._ _ O Y R W W W W W W W W W W W W ",
"W W W W W W W W W W W W Y w f.`.~.Q.~.~.~.W.U p B.Z.Z.:.3.].).).).).(././.Q.^.!.W.Q.E.k k R.P.E.R.T.W.R.R.R.R.R.E.R.R.R.E.R.E.T.j Q./.).^.).).).).).).).(./.(.).`.` X.` r 9 J.J.W.^././._._ e Y Y T Q W W W W W W W W W W W ",
"W W W W W W W W W W W W W 9 b.b.`.^.~.^.#.#.#.F u V.A.D.:.>.'.).).).(.(./././.^.Q.Q.E.E.E.C B Z D Z / / K K K K Z K Z / A T.T.v E.E./.).).).).).).).).).).).'.].*.*.O.t k.G.H G /././._.o._ O T Y E Q W W ! W W W W W W W W ",
"W W W W W W W W W W W W W Y 9 b.N.`.-.#.`.'.).P F u L.A.L.H.'.(./.)./.).^.^.^./.Q.Q.Q.Q.P.C _._.(.(.`.(.(.(.(.^./.W.^././.c x Q.Q.^./.).).).(.).).).).).).'.;.*.*.O.h M.G.P.P.U.P F '.:.^ O Y T T E W Q Q E W W W W W W W W ",
"W W W W W W W W W W W W W W Y 9 N.F '.'.~./.~.`.`.'.q A.H.H.L.'.'._.).).(.(.(.^.^.^.!.!.0.(._._.(._.(.(./.(.^.Q./././.^.^.^.`.H /.^././.).).(.).).).).[.].,.=.,.*.y G.P.R.T.U.R.U.'.h 9.O T z T Q W W Q Q E W W W W W W W W ",
"W W W W W W W W W W W W W ! ! 9 Z.F F.`./.~././.W.~.W.j j H.H.L.C.'.'.).^.(.Q.(.Q.(.(.Q.0.(.!.(._.(./.!.!./.!.(./.!./.Q.^.^.`.G ^.^.^.^.).).).)._.].].<.<.<.*.t f W.E.E.Q.E.T.R.(._ y u.e T T E Q W W E E W W W W W W W W W ",
"W W W W W W W W W W W W W W ! T O P F.Z.'./././.W.W.^.W.(.u G.L.Z.Z.C.'.].].(.^.(.^./.) `./.(.!.(./.(././././.^.^./.!./.^././.`.H (.^.).).).{.'.'.i.<.;.;.=.g T.R.W.E.E.E.E.E.^._ _ y O T $ Q E E W W W W W W W W W W W W W ",
"W W W W W W W W W W W W W W E Q T 9 F.Z.B.'././.~.~.)./.^.).p p C.C.V.V.M.l.{.'.[.(.(.) ].^./.(.(./.(.(./.(././././././.^.!.^.].~ !.^.].].].>.>.<.<.<.;.t a T.R.W.E.E.E.E.E./.U _ P O Y Y W W W W W W W W W W W W W W W W W ",
"W W W W W W W W W W W W W ! Q E Q T y Z.Z.C.`.`./././.).).).`.`.p s M.V.m.l.l.9.9.[.].) '.(.(.(.(.(.(.(.G./././.G.^.^.^././.^.'.~ '.'.9.9.>.1.;.<.;.g g T.R.U.P.E.E.E.E.(.(.P P _ y Y Y W W W W W W W W W W W W W W W W W W ",
"W W W W W W W W W W W W W E Q Q E Q Y 9 B.V.Z.S.`././.).).).`.`.6.`.p 8 M.l.z.z.9.9.$.K '././.(./.(.(.(.'.G.G.G.'.^.(.(./.^.^.]./ ~ 4.4.4.>.>.:.x f ^.F (.U.P.E.E.E.E.W.` _ P P O Y Y W W W W W W W W W W W W W W W W W W W ",
"W W W W W W W W W W W W W W E Q E E W Y 9 Z.V.Z.Z.`.`.).`.`.`.7.(.^.^.^.8 0 0 9.9.5.8.K '.(._.(.(.(.(.(.0.'.].].z.(.(.(.(././.]./ J 4.4.4.8 0 8 /.).).).n.(.E.E.E.(.(.+.` P P O Y Y W W W W W W W W W W W W W W W W W W W W ",
"W W W W W W W W W W W W W W W W W W W W Y 8 8 Z.Z.Z.B.'.'.'.8._./.~.^.Q.Q.Q.R.9 q q q K ].(.`.`.(.(.(.(.].8.$.$.].(.(.(.(././.].~ 8 8 8 9 E.W.E./.).).).^.M.E.`.).,.*.*.' O O Y Y W W W W W W W W W W W W W W W W W W W W W ",
"W W W W W W W W W W W W W W W W W W W W W Y Y 9 Z.B.Z.B.B.F '.^.~./.~.~.Q.W.T.R.R.U.U.K ].`.(.`.(.`.(.(.Z ].].'.$.(.(.(.(.(.(.].~ l.l.!.!.!.E.R.)./././.).`.'.a.,.*.*.*.O Y Y W W W W W W W W W W W W W W W W W W W W W W W ",
"W W W W W W W W W W W W W W W W W W W W W W W Y O 8 B.B.B.F T.'.'.'./.^.Q.W.Q.U.R.R.P.Z ].(.'.(.`.'.'.(.]._._.(.].(.(.(.(.(.(.].J l.j.!.!.!./.(./.(.`.'.`.` f g.'  .O O Y W W W W W W W W W W W W W W W W W W W W W W W W W ",
"W W W W W W W W W W W W W W W W W W W W W W W W Y Y 8 9 N.F P.N.m.N.'.'.'.'.W.R.R.U.Y.Z {.`.(.'.(.(.`.(._._._.(.(.(.(.(.(.(.(.[.Z h.j.^.W.W.'.`.`.`.' o.` P f p.O O Y Y W W W W W W W W W W W W W W W W W W W W W W W W W W ",
"W W W W W W W W W W W W W W W W W W W W W W W W W W Y Y 8 8 P.N.N.b.c.c.c.p.`.`.`.`.`.C [.[.{.[.[.[.].].].].`.].`.`.'.'.].{.].{.A G.M.'.'.'.&.&.%.o.o.X._ _ O O Y Y W W W W W W W W W W W W W W W W W W W W W W W W W W W W ",
"W W W W W W W W W W W W W W W W W W W W W W W W W W W W Y Y 8 8 b.N.N.f.c.p.g.p.p.;.+.0 K.K.P.Z.V.V.B.V.V.m.M.N.B.m.l.K.K.F.D.D.t n V &.&.&.&.&.%.o.o.o.O O Y Y W W W W W W W W W W W W W W W W W W W W W W W W W W W W W W ",
"W W W W W W W W W W W W W W W W W W W W W W W W W W W W W W Y Y 8 8 f.f.p.p.p.i.u.;.O.9 K.K.V.B.B.B.B.M.V.N.B.b.b.g.c.c.g.g.J.D.O b n &.&.&.&.%.o.o.O O Y T ! W W W W W W W W W W W W W W W W W W W W W W W W W W W W W W W ",
"W W W W W W W W W W W W W W W W W W W W W W W W W W W W W W W W Y Y 9 8 8 8 p.u.2.;.%.8 K.B.B.B.B.B.N.N.b.b.b.b.c.c.g.g.g.g.g.D.O b V &.&.%.O O O O Y Y W W ! Q W W W W ! ! W W W W W W W W W W W W W W W W W W W W W W W W ",
"W W W W W W W W W W W W W W W W W W W W W W W W W W W W W W W W W W Y Y Y Y 8 8 9 8 8 8 J.N.B.B.g.g.p.g.p.p.j.c.c.c.c.g.p.g.p.D.O O O O O O Y Y Y Y W W W W E Q Q W W Q ! W W W W W W W W W W W W W W W W W W W W W W W W W ",
"W W W W W W W W W W W W W W W W W W W W W W W W W W W W W W W W W W W W W W Y Y Y Y Y 8 D.N.m.;.%.;.g.u.i.p.p.p.g.g.g.p.g.g.u.A.O Y Y Y Y Y W W W W W W W W W E E W Q Q Q W W W W W W W W W W W W W W W W W W W W W W W W W ",
"W W W W W W W W W W W W W W W W W W W W W W W W W W W W W W W W W W W W W W W W W W W 8 D.:.O.&.;.%.p.p.p.p.u.p.p.p.u.u.2.u.u.A.O Y Y W W W W W W W W W W W W W W W Q Q E W W W W W W W W W W W W W W W W W W W W W W W W W ",
"W W W W W W W W W W W W W W W W W W W W W W W W W W W W W W W W W W W W W W W W W W W Y O 8 O O 8 O O O O O O O O O O O O O O O Y Y W W W W W W W W W W W W W W W W E E W W W W W W W W W W W W W W W W W W W W W W W W W W ",
"W W W W W W W W W W W W W W W W W W W W W W W W W W W W W W W W W W W W W W W W W W W W Y Y Y Y Y Y Y Y Y Y Y Y Y Y Y Y Y Y Y Y Y W W W W W W W W W W W W W W W W W W W W W W W W W W W W W W W W W W W W W W W W W W W W W "
};
