/* XPM */
static char *Smoke_16[] = {
/* columns rows colors chars-per-pixel */
"110 73 163 2 ",
"   c #7D3515",
".  c #823716",
"X  c #843917",
"o  c #883B17",
"O  c #863C1C",
"+  c #893C19",
"@  c #8C421E",
"#  c #8A4423",
"$  c #8D4927",
"%  c #8D4C2B",
"&  c #924521",
"*  c #914924",
"=  c #9B4C26",
"-  c #924D2A",
";  c #9F4E29",
":  c #94512C",
">  c #99532D",
",  c #8E5231",
"<  c #945433",
"1  c #9B5632",
"2  c #945836",
"3  c #9D5A35",
"4  c #935B3B",
"5  c #985A39",
"6  c #A1522A",
"7  c #A15D36",
"8  c #A15E39",
"9  c #817F20",
"0  c #9F6037",
"q  c #96603E",
"w  c #9E623D",
"e  c #A2633B",
"r  c #9D6542",
"t  c #9B6B44",
"y  c #9D6849",
"u  c #9F7149",
"i  c #9D7D5D",
"p  c #A36540",
"a  c #A56A43",
"s  c #A96E43",
"d  c #A46D4B",
"f  c #A96E49",
"g  c #A77047",
"h  c #AA7046",
"j  c #A4714C",
"k  c #AB744B",
"l  c #AF794E",
"z  c #A67453",
"x  c #A97750",
"c  c #A77E53",
"v  c #AD7C54",
"b  c #A2765B",
"n  c #A57A5D",
"m  c #AA7E5C",
"M  c #B27F56",
"N  c #9C7E63",
"B  c #A77F62",
"V  c #AA7F62",
"C  c #8F8824",
"Z  c #948D29",
"A  c #99912E",
"S  c #ACB828",
"D  c #C1C52D",
"F  c #C9CD35",
"G  c #D1D43D",
"H  c #AE8259",
"J  c #AF8A5E",
"K  c #B38256",
"L  c #B28359",
"P  c #B4885C",
"I  c #9D8265",
"U  c #9E8469",
"Y  c #9F886C",
"T  c #9F8C73",
"R  c #A28565",
"E  c #AA8265",
"W  c #A38A66",
"Q  c #AE8A62",
"!  c #A2856B",
"~  c #AA8668",
"^  c #A68B6A",
"/  c #AA8C6A",
"(  c #B28D62",
")  c #B38B69",
"_  c #B88E6C",
"`  c #A79068",
"'  c #AB926C",
"]  c #B29064",
"[  c #B4946C",
"{  c #B99B6E",
"}  c #A28C73",
"|  c #A98D70",
" . c #A28E79",
".. c #B18E71",
"X. c #A69176",
"o. c #AB9374",
"O. c #AD9977",
"+. c #A3907A",
"@. c #AB947A",
"#. c #A79A7F",
"$. c #AE9A7D",
"%. c #B29375",
"&. c #BA9670",
"*. c #B49B75",
"=. c #BA9D72",
"-. c #B2967B",
";. c #B39D7C",
":. c #B99B7C",
">. c #B5A27C",
",. c #C29F75",
"<. c #A69983",
"1. c #AB9C84",
"2. c #AB9E8A",
"3. c #B39E84",
"4. c #B89F88",
"5. c #AB9F90",
"6. c #AEA28D",
"7. c #B3A285",
"8. c #BAA484",
"9. c #B4A58B",
"0. c #BAA68A",
"q. c #B9A98D",
"w. c #AFA391",
"e. c #B2A694",
"r. c #BAA790",
"t. c #B3A996",
"y. c #BBAD94",
"u. c #B2A798",
"i. c #B5AB9B",
"p. c #B9AF9B",
"a. c #BEB196",
"s. c #BDB29B",
"d. c #B8AFA2",
"f. c #BDB5A3",
"g. c #BEB8A4",
"h. c #BFB6A9",
"j. c #BFB8AA",
"k. c #C2B49C",
"l. c #C3B89F",
"z. c #C0B6A2",
"x. c #C2BBA6",
"c. c #C3BDAC",
"v. c #C5BFB1",
"b. c #C5C0AE",
"n. c #CAC1AD",
"m. c #C6C2B2",
"M. c #CAC5B5",
"N. c #CCC8B6",
"B. c #CCC7B9",
"V. c #CECABC",
"C. c #D0CDBE",
"Z. c #D2D0BF",
"A. c #CECCC1",
"S. c #D1CEC2",
"D. c #D4D1C5",
"F. c #D8D5C7",
"G. c #D6D3C9",
"H. c #D8D6CA",
"J. c #DAD8CE",
"K. c #DDDCD3",
"L. c #E0DED6",
"P. c #E1DFD8",
"I. c #E2E1DA",
/* pixels */
"D D D D D D D D D D D D D D D D D D D D D D D D D D D D D D D D D D D D D D D D D D D D M M M M M K K K M K K M K M l l h k h D D D D D D D D D D D D D D D D D D D D D D D D D D D D D D D D D D D D D D D D D D D D D D D ",
"D D D D D D D D D D D D D D D D D D D D D D D D D D D D D D D D D D D D D D D D D D D h G.C.B.B.B.B.G.G.D.D.F.D.S.F.F.F.G.B.B.h C C D D D D D D D D D D D D D D D D D D D D D D D D D D D D D D D D D D D D D D D D D D D D ",
"D D D D D D D D D D D D D D D D D D D D D D D D D D D D D D D D D D D D D D D D D D D h G.C.S.G.G.S.G.S.D.F.D.D.F.S.F.D.D.S.C.N.f C C D D D D D D D D D D D D D D D D D D D D D D D D D D D D D D D D D D D D D D D D D D D ",
"D D D D D D D D D D D D D D D D D D D D D D D D D D D D D D D D D D D D D D D D D D D h K.S.G.G.D.G.G.F.3.3.4.3.4.F.G.S.D.G.D.B.k C C D D D D D D D D D D D D D D D D D D D D D D D D D D D D D D D D D D D D D D D D D D D ",
"D D D D D D D D D D D D D D D D D D D D D D D D D D D D D D D D D D D D D D D D D D D g H.D.D.D.G.D.D.F.L.L.L.L.3.F.F.D.F.D.D.J.k C C D D D D D D D D D D D D D D D D D D D D D D D D D D D D D D D D D D D D D D D D D D D ",
"D D D D D D D D D D D D D D D D D D D D D D D D D D D D D D D D D D D D D D 7 1 7 3 a h J.D.G.F.F.D.G.F.3.3.3.3.3.F.F.F.F.F.D.K.k X X 3 3 2 D D D D D D D D D D D D D D D D D D D D D D D D D D D D D D D D D D D D D D D D ",
"D D D D D D D D D D D D D D D D D D D D D D D D D D D D D D D D D D D f f f B.V.C.V.C.h J.G.F.D.D.G.D.F.3.L.L.L.L.F.F.F.F.D.F.K.k q.q.V.B.B.3 3 3 D D D D D D D D D D D D D D D D D D D D D D D D D D D D D D D D D D D D D ",
"D D D D D D D D D D D D D D D D D D D D D D D D D D D D D D D D k f k S.S.B.V.V.V.B.C.h J.G.D.D.F.F.F.F.@.F.| @.| F.D.F.D.F.F.K.l q.q.V.V.B.S.S.D.3 e e D D D D G D D D D D D D D D D D D D D D D D D D D D D D D D D D D D ",
"D D D D D D D D D D D D D D D D D D D D D D D D D D D D D D D v V.D.S.D.C.B.7 7 3 7 7 s J.G.F.F.F.F.F.F.K.H.K.K.L.F.F.F.F.F.F.K.l w 0 w e 7 D.S.C.D.Z.D.e D D D F F D D D D D D D D D D D D D D D D D D D D D D D D D D D D ",
"D D D D D D D D D D D D D D D D D D D D D D D D D D D D v M v S.S.S.G.S.7 7 G.F.F.F.H.s F.B.F.F.F.F.F.F.F.F.J.F.F.G.F.F.F.F.F.K.k G.D.D.D.D.> e S.S.D.D.e D D D D D D D D D D D D D D D D D D D D D D D D D D D D D D D D D ",
"D D D D D D D D D D D D D D D D D D D D D D D D D D a f S.D.L.O.D.S.3 3 C.Z.Z.Z.C.F.F.s F.F.F.F.F.F.F.F.F.F.F.F.F.F.F.F.F.G.F.K.k D.D.G.D.D.D.G.e h F.F.M e e e e D D D D D D D D D D D D D D D D D D D D D D D D D D D D D ",
"D D D D D D D D D D D D D D D D D D D D D D D D d f H.H.D.S.S.K.3 3 v.v.Z.Z.C.Z.Z.D.F.s J.Z.F.F.D.F.F.F.F.F.F.F.H.F.H.F.F.F.H.K.t G.D.S.D.D.G.D.D.G.e l I.n.M.n.n.e e e D D D D D D D D D D D D D D D D D D D D D D D D D D ",
"D D D D D D D D D D D D D D D D D D D D D D D 5 G.J.S.S.S.S.3 3 S.v.b.v.D.C.Z.Z.C.Z.G.H.k K.F.F.F.F.F.F.H.F.H.F.H.H.H.H.F.G.K.d A.Z.C.C.G.D.D.D.D.D.H.G.w > m.b.n.n.V.C.e D D D D D D D D D D D D D D D D D D D D D D D D D ",
"D D D D D D D D D D D D D D D D D D D D D a 5 J.G.S.S.G.D.3 C.D.C.S.Z.c.Z.D.D.D.Z.C.C.K.j J.G.G.D.K.K.K.K.K.K.L.K.L.L.G.F.F.K.r C.C.Z.C.A.D.D.D.G.G.D.G.D.G.@ V.Z.V.B.V.N.: : D D D D D D D D D D D D D D D D D D D D D D D ",
"D D D D D D D D D D D D D D D D D D D D 3 K.K.G.G.G.G.3 3 D.D.C.C.Z.Z.D.D.D.Z.Z.Z.D.H.v - I.I.K.L.9.q.s.d.p.p.d.s.f.f.K.I.I.I.e C.C.C.C.A.D.G.D.D.G.G.D.G.D.S.@ o B.V.B.D.C.A.@ D D D D D D D D D D D D D D D D D D D D D D ",
"D D D D D D D D D D D D D D D D D D D D - J.G.G.G.G.3 S.V.D.S.D.D.C.D.D.Z.D.D.F.D.J.> H $ ;.7.9.w.9.9.p.p.d.p.d.d.f.h.j.c.j.j.w L.L.L.Z.A.A.D.D.D.G.m.N.A.D.D.D.D.o D.D.S.D.D.+ D D D D D D D D D D D D D D D D D D D D D D ",
"D D D D D D D D D D D D D D D D D D a p K.b b G.G.3 S.S.D.S.V.Z.C.C.D.D.D.D.D.K.K.5.5.2 $ $.3.9.9.9.9.{ { =.{ =.=.=.=.x.x.x.h.r m.c.m.K.K.A.A.A.S.M.B.m.C.A.D.D.G.S.o S.D.b B J.& & D D D D D D D D D D D D D D D D D D D D ",
"D D D D D D D D D D D D D D D D D a J.J.A.K.K.b 3 V.S.S.A.D.D.Z.C.D.D.S.S.J.J.2.2.2.3.5.# ;.2.9.t.  . X X # - < 2 2 < ;.-.x.h.r v.v.v.v.m.K.K.V.C.C.A.A.A.C.A.D.S.V.A.o b L.J.A.L.J.& D D D D D D D D D D D D D D D D D D D ",
"D D D D D D D D D D D D D D D D p J.S.C.V.A.A.3 A.D.A.A.C.Z.V.G.G.D.G.J.J.+.+.<.1.2.2.2.. . X .   { ] [ *.[ [ *.%.*.*.p 5 5 4 5 m.m.m.b.m.g.h.K.L.A.A.C.C.C.V.A.S.V.A.S.. S.S.D.S.S.L.= D D D D D D D D D D D D D D D D D D ",
"D D D D D D D D D D D D D D D p J.C.S.C.S.A.3 G.S.A.D.G.G.G.G.D.D.D.K.} } } X.<.<..   . *.*.*.*.*.l.s.s.s.k.l.z.z.x.c.b.X.| ~ ! j j j m.m.j.h.h.g.L.C.A.A.A.V.V.V.C.V.A.A.o S.D.D.S.v.H.& D D D D D D D D D D D D D D D D D ",
"D D D D D D D D D D D D D D D a J.B.S.A.V.3 G.G.S.S.G.G.G.G.G.S.D.J.^ } ^ T T     | o.-.a.a.a.s.s.k.s.z.z.z.g.z.c.v.v.v.v.c.~ ^ Y X.S.w w j.j.g.f.i.K.A.A.A.B.A.V.A.V.A.S.B.o S.S.S.B.J.; D D D D D D D D D D D D D D D D D ",
"D D D D D D D D D D D D D D - S.B.B.B.B.3 G.G.G.G.S.G.G.S.S.G.G.K.I ! T Y     o...y.s.a.a.a.s.k.k.s.s.l.s.b.x.b.c.c.c.v.v.v.| ^ ` A.g.V.V.3 q j.j.u.i.K.G.G.A.V.A.B.V.V.B.A.D.o S.S.V.S.D.+ D D D D D D D D D D D D D D D D ",
"D D D D D D D D D D D D D D > G.B.B.B.B.2 G.D.G.G.G.S.L.J.G.K.J.N N I U   1.1.a.a.a.k.s.g.g.s.g.s.s.s.s.b.x.b.c.c.n.c.v.c.| A.A.C.x.x.x.c.V.N.% j.i.i.i.K.G.G.G.A.B.V.B.D.D.D.o B.V.V.S.D.+ D D D D D D D D D D D D D D D D ",
"D D D D D D D D D D D D D X G.B.B.B.B.3 G.D.D.G.G.G.J.G.L.K.J.i N I     1.s.a.s.a.s.f.s.s.g.g.g.g.x.c.c.x.b.x.b.c.v.c.v.@.A.c.c.c.x.x.g.b.g.c.N.4 2 u.i.u.K.G.G.D.A.S.D.S.D.S.G.s C.V.V.C.C.+ D D D D D D D D D D D D D D D ",
"D D D D D D D D D a a p a p a p a p a a t i b i K.K.K.K.K.K.N N N   ` o.a.p.a.a.s.s.s.f.f.f.g.g.g.g.c.c.b.b.j.b.n.v.b.R A.c.c.c.j.g.c.x.c.x.c.c.B.B.2 i.3.$.L.G.G.G.S.G.B V V b s s s e s s s s h s s s D D D D D D D D D D ",
"D D D D D D D D p K.H.H.H.V.A.A.C.C.M.B.B.m.M.B.b b 1.| | K.i i   ^ ' s.s.a.a.s.a.s.B.B.B.B.B.B.B.B.B.A.V.V.A.A.C.C.X.W A.A.A.A.A.A.A.c.c.x.x.m.m.v.M.* 3.-.K.b b V b n S.D.D.D.C.C.D.D.D.F.C.D.D.C.C.L.s D D D D D D D D D ",
"D D D D D D D p K.H.H.H.S.S.S.V.V.A.B.B.B.B.V.C.V.V.L.~ / ^ N   ^ ^ g.f.f.f.s.a.s.B.I I I I I i I R W W ` o.' ' o.' o.o.o.o.o.o.o.' X.V.c.g.c.m.m.v.m.N.. $.1.K.G.J.G.H.S.V.S.S.C.D.C.D.D.Z.D.Z.S.C.D.L.s D D D D D D D D D ",
"D D D D D D D k K.A.A.A.V.S.S.C.S.V.A.A.V.C.A.A.A.A.B.L.K.!   / ` f.f.f.f.f.s.a.a.R o.o.O.o.o.O.$.$.$.$.$.$.$.;.3.3.7.7.7.7.7.7.7.9.7.7.c.c.x.x.m.m.m.m.N.X 3.K.G.J.A.A.S.S.S.S.Z.Z.D.S.Z.D.C.D.D.D.S.L.s C C D D D D D D D ",
"D D D D D D D k K.A.A.Z.A.C.V.S.V.S.S.A.V.A.V.C.V.V.V.A.K.!   ' g.s.f.f.f.f.g.g.g.I O.@.g.x.s.b.x.c.x.c.x.x.b.b.b.x.b.x.g.c.c.m.M.9.7.$.V.c.b.j.c.v.m.m.N.o 3.L.J.B.B.S.S.S.V.D.S.D.S.D.Z.D.Z.D.D.C.Z.L.s C C C D D D D D D ",
"D D D D D D D g K.A.Z.A.V.D.S.S.S.S.V.A.V.S.A.S.A.S.V.K.2.. ^ / g.g.g.$.$.g.g.g.g.I O.g.g.l.b.s.x.x.c.x.b.x.b.x.b.b.x.c.c.b.M.M.m.x.9.9.o.c.j.c.v.m.m.m.v.B.. 3.P.S.S.C.V.S.S.C.S.D.S.D.D.Z.D.Z.Z.D.D.L.s C C C D D D D D D ",
"D D D D D D D k K.A.D.S.D.S.r.r.0.A.S.V.D.S.S.V.C.V.V.K.2.. / ' g.g.g.m.M.O.b.g.g.O.#.x.c.x.s.b.l.b.x.b.b.x.x.c.c.b.b.b.b.x.b.c.x.b.9.7.o.c.c.b.c.m.v.m.v.v.o 5.L.C.C.S.S.C.D.D.S.S.D.0.k.&.D.D.D.D.D.L.s C C C D D D D D D ",
"D D D D D D D k K.D.D.S.D.o.K.J.J.-.S.D.S.S.S.S.C.S.S.K.. ! ^ g.g.g.g.g.f.V.I j.b.#.O.c.c.c.b.x.b.x.b.x.b.b.b.b.b.b.b.b.b.b.b.b.b.b.9.9.7.b.c.j.c.c.c.j.c.c.c.o P.B.C.S.C.D.D.D.D.S.D.,.J.H.D.8.D.Z.F.L.h C C C D D D D D D ",
"D D D D D D D h K.S.D.D.G.%.G.~ S.-.D.Z.G.S.S.S.S.J.J.K.X / / g.c.g.g.g.g.c.V.I I $.$.c.c.b.v.b.c.x.b.b.b.b.b.b.b.b.b.b.b.b.b.b.b.b.9.9.9.b.c.c.c.c.c.c.j.c.v.. K.A.V.S.S.S.G.D.D.D.D.:.D.:.:.:.F.F.F.L.k C C C D D D D D D ",
"D D D D D D D a L.D.S.G.S.~ S.J.D.E D.D.D.S.S.G.D.J.J.K.. W ^ c.c.c.j.g.c.c.Z.#.7.$.7.b.b.c.c.b.m.c.x.b.b.b.m.b.m.b.m.n.b.b.b.b.b.b.9.9.7.x.c.c.c.v.v.c.v.c.v.. K.S.S.S.D.G.D.D.G.D.F.) F.J.J.E F.F.F.L.e C C C D D D D D D ",
"D D D D D D D a L.D.D.D.G.J.n n n K.D.G.G.G.D.S.D.S.J.K.. W / c.c.c.c.c.c.b.m.A.$.$.6.b.b.c.m.m.B.B.N.b.b.b.m.m.n.m.m.m.b.b.b.b.b.b.t.9.b.c.c.c.c.v.c.v.c.v.v.X K.D.D.D.D.D.D.D.D.G.H.x k f G.J.F.F.F.I.k C C C D D D D D D ",
"D D D D D D D f L.G.G.D.G.D.K.K.K.D.G.D.G.S.D.G.D.D.J.K.. / ^ v.c.c.m.c.b.b.b.A.6.7.7.m.m.m.m.m.N.B.B.m.n.n.m.m.m.m.N.m.b.b.b.b.b.b.q.9.b.b.b.c.v.c.v.j.c.v.c.X K.G.D.D.D.D.D.D.D.G.H.J.J.J.H.H.F.F.J.I.e C C C D D D D D D ",
"D D D D D D D d K.J.G.G.F.F.G.G.G.G.G.D.G.D.D.D.D.G.D.K.X / ^ c.m.j.m.j.c.m.c.m.D.6.9.m.m.m.m.V.B.N.M.m.m.M.m.m.m.M.M.m.n.M.b.b.b.b.y.y.m.m.b.b.j.v.c.v.j.c.c.X L.S.D.D.D.D.G.F.G.H.J.H.H.H.H.H.J.J.F.L.e Z C C D D D D D D ",
"D D D D D D D f L.J.J.G.G.F.F.G.G.G.G.G.G.D.F.D.D.D.G.K.X W W m.c.m.c.m.m.c.v.m.m.9.9.m.m.m.m.m.M.M.m.m.M.m.m.M.N.M.N.M.m.n.b.N.M.N.y.y.m.m.j.b.c.j.c.c.f.f.f.. L.D.S.D.D.D.D.D.H.H.H.J.J.J.H.F.J.F.F.L.g C C C D D D D D D ",
"D D D D D D D a P.J.J.G.G.H.F.H.G.G.G.G.D.G.G.G.G.G.D.K.X / ^ m.c.m.m.B.M.V.m.c.m.9.9.b.m.m.m.M.m.m.N.N.M.m.N.N.m.N.M.M.m.N.N.N.N.M.y.p.m.M.b.b.c.c.j.c.f.f.f.X L.S.D.G.G.G.J.G.H.H.H.H.H.H.H.n.H.H.J.L.g C C C D D D D D D ",
"D D D D D D D 8 P.J.J.J.F.G.G.G.F.G.F.G.G.G.D.G.G.r 2 4 $ X ^ m.m.m.B.V.V.M.M.m.m.q.p.m.m.M.m.M.M.M.M.m.M.M.m.N.N.N.N.N.N.N.N.N.m.N.p.p.m.m.b.b.c.j.f.f.f.f.. b b b n G.H.G.G.J.J.H.J.J.H.n.n.n.n.H.J.L.e C C C D D D D D D ",
"D D D D D D D 3 P.I.I.K.I.K.K.L.K.L.L.L.n R E / 9.J.J.J.J.  ` B.B.B.B.B.V.B.B.m.m.y.y.m.m.M.M.m.m.M.M.M.M.N.M.N.M.M.M.V.M.B.B.m.M.M.s.p.m.m.m.m.c.c.f.f.f.j.. H.J.J.G.b B y ........P.P.L.L.L.L.L.L.L.L.a C C C D D D D D D ",
"D D D D D D D o x.j.j.v.u.d.u.t.i.t.u.H K.K.H.J.J.S.C.C.C.Z.3 m.B.B.m.A.B.V.m.m.m.p.p.m.m.m.m.M.M.m.M.M.M.M.N.N.M.N.V.M.V.V.N.N.B.M.s.p.m.m.m.m.m.m.m.f.f.w V.V.v.V.v.L.J.J.......c.5.5.6.u.w.u.t.t.t.j.X C C C D D D D D D ",
"D D D D D D D X c.j.e.e.w.u.t.u.u.e.t.k r K.S.D.D.S.A.A.C.Z.C.t m.V.A.m.B.B.m.m.b.y.p.C.m.M.m.m.m.B.B.m.M.M.N.N.N.N.N.B.B.V.V.m.M.S.a.a.m.m.m.m.m.m.m.m.e B.B.B.B.B.B.B.B.B.J.r M.2.3.5.6.w.w.u.t.w.w.j.@ C C C D D D D D D ",
"D D D D D D D o h.e.6.9.@.( ( ( P H g a a K.D.A.A.D.A.A.C.A.C.J.I m.V.V.V.V.m.m.m.y.p.7.D.S.S.S.A.D.D.S.S.S.S.D.D.D.A.D.A.D.S.S.S.9.a.p.m.m.m.m.b.m.v.e x.B.B.B.B.B.B.B.B.B.J.d Q P P Q J J J Q w.t.t.j.  C C C D D D D D D ",
"D D D D D D D X c.5.5.o L.V.Z.V.N.x.x.z.$ <.K.S.A.D.D.D.D.S.D.D.H.c B.B.B.V.B.m.m.p.p.p.9.q.9.7.7.7.7.9.9.8.8.7.>.;.;.*.#.O.O.O.1.s.s.p.M.m.m.m.m.m.e y.h.f.A.D.D.B.v.V.B.L.u.o c.V.V.G.G.G.G.K.X w.w.j.X C C C D D D D D D ",
"D D D D D D D X d.5.5.o H.D.V.V.B.B.x.x., W K.S.D.A.D.A.S.D.A.D.S.J.x m.B.V.V.B.m.C.A.p.p.p.s.p.s.s.s.a.s.s.s.s.k.s.s.s.s.s.a.a.s.d.p.A.M.m.m.m.m.c 0.a.G.J.D.A.S.S.S.S.v.L.5.o c.B.B.D.G.G.A.J.X u.w.d.X C C D D D D D D D ",
"D D D D D D D C o . . .  .L.D.V.V.M.M.M.B.$ | K.A.G.D.D.D.D.A.G.D.K.J.x x B.B.B.N.m.B.A.C.S.S.S.A.D.S.D.S.S.S.S.S.S.s.s.s.s.A.D.A.A.A.M.m.m.m.e w y.0.H.A.D.A.D.D.S.C.S.L.N . c.C.B.S.D.S.D.J.5.X X X . C C D D D D D D D D ",
"D D D D D D D D C C C . } J.V.Z.V.C.M.N.M.% | X.J.D.D.A.D.D.D.D.D.D.K.D.S.c V.V.V.M.m.m.m.M.M.M.B.m.N.m.M.B.B.M.B.B.A.D.a.s.m.m.M.M.M.M.m.M.1 A.D.D.D.D.D.D.D.D.D.S.D.J.B N . c.C.C.D.S.D.D.K.w.X C C C C D D D D D D D D D ",
"D D D D D D D D D D D C X  .J.C.V.A.C.V.M.M.,  .u.K.G.D.G.D.D.G.G.D.G.S.S.D.p s V.V.B.V.M.M.v.B.M.B.M.N.B.M.M.M.M.N.M.M.S.S.M.M.M.M.M.B.r e G.G.S.S.D.D.D.G.S.D.G.S.J.! V + c.c.V.V.G.G.D.J.U . C C C D D D D D D D D D D D ",
"D D D D D D D D D D D D X  .2.K.C.V.V.C.M.M.B.; u.i.K.K.K.G.G.G.G.G.D.D.D.S.D.Z.7 7 7 B.B.M.B.B.M.M.B.M.M.M.N.B.B.M.M.M.M.M.m.B.N.e 8 e G.G.D.G.G.D.A.G.D.G.G.D.S.J.U N & x.x.x.V.B.S.G.J.U I . C A D D D D D D D D D D D D ",
"D D D D D D D D D D D D C O 5.K.S.A.V.A.S.V.V ; i.p.f.O.*.K.G.G.G.D.F.G.D.C.D.C.V.C.B.7 7 M.B.v.m.M.N.M.M.B.B.B.M.B.M.M.m.B.B.v.; B.S.F.G.G.S.G.G.G.G.G.G.D.G.G.J.! B U @ X c.x.B.G.G.S.J.U . C C Z F D D D D D D D D D D D ",
"D D D D D D D D D D D D D X 5.e.J.S.S.A.) ) ) b # d.f.f.o.o.K.G.G.G.G.F.D.D.S.D.C.C.B.B.B.k f l v l K H M M M l l M l M k m.m.r V.V.D.G.G.G.G.G.G.G.G.G.G.G.K.K.} } ! # k.k.m m D.G.D.J.I I . Z C S F D D G D D D D D D D D ",
"D D D D D D D D D D D D D C X u.u.J._ _ J.K.J.N b & d.f.z.l.K.J.G.G.G.F.D.D.C.C.C.C.C.C.N.f F.F.F.H.H.F.H.H.D.Z.D.D.D.S.S.e 8 C.C.S.S.G.G.G.G.G.G.G.G.G.G.L.X.o.} ^ , y.k.v.v.n.i z K.X.I . Z Z Z S D F F S D D D D D D D D ",
"D D D D D D D D D D D D D D C X u.b K.K.A.D.A.J.J.K.& z.l.l.k.L.K.G.G.D.F.F.D.D.S.S.C.Z.,.F.F.F.H.F.F.F.Z.D.D.Z.S.C.D.C.S.S.J.n S.S.G.S.G.G.G.G.G.G.G.L.L. .+. .} * k.M.M.M.M.v.m.L.% 3.  Z 9 Z F D D F F S D D D D D D D D ",
"D D D D D D D D D D D D D G G X i.i j.J.D.A.S.D.V.C.V.; 6 l.l.z.s.K.K.G.D.D.Z.D.D.Z.D.Z.,.F.D.Z.F.F.D.D.F.D.D.D.D.C.S.D.S.S.K.n S.D.D.A.G.G.G.G.J.L.L.@.o.X.X.# 4 C.B.B.B.B.M.M.G.N % 1.  Z Z S F D D S S D D D D D D D D D ",
"D D D D D D D D D D D D D D G Z   N j.d.K.D.D.D.S.V.A.V.F.& k.z.p.s.p.K.L.L.D.D.D.D.D.P K.D.D.D.D.D.D.D.Z.D.Z.D.D.D.D.D.S.S.S.J.m D.D.G.G.G.L.L.K.<.X.@.X.X.< M.M.B.B.B.B.V.B.S.N N % . C 9 F S S D D D D D D D D D D D D D ",
"D D D D D D D D D D D D D D S F Z X j.d.d.J.D.D.A.A.D.D.D.G.= = d.s.p.a.y.q.K.L.L.D.D.P J.D.Z.F.F.D.D.D.D.D.D.D.D.S.D.Z.D.D.Z.L.H C.C.K.L.L.o.O.@.@.X.o.* 1 M.v.V.B.B.V.N.v.F.B N N   C C D D D D D D D D D D D D D D D D D ",
"D D D D D D D D D D D D D G F S F Z % d.d.p.J.J.D.D.D.G.G.G.J.J.; ; p.p.q.q.9.7.;.L.L.P K.F.D.F.F.D.F.F.k.D.D.D.k.D.Z.D.D.Z.D.J.H J.K.>.>.O.O.O.X.o.4 2 m.n.v.v.B.B.B.B.F.F.N B I % C C D D D D D D D D D D D D D D D D D D ",
"D D D D D D D D D D D D D S F F S F C X p.p.d.j.J.D.D.G.G.G.J.J.;.G.= . y.q.8.>.:.;.,.M K.F.F.F.F.F.F.F.L.k.k.k.L.D.D.D.D.S.S.L.H H *.*.*.O.O.O.q q S.b S.M.v.V.B.N.N.C.Y N N N   C C D D D D D D D D D D D D D D D D D D D ",
"D D D D D D D D D D D D D D S F S S D C   d.d.p.d.J.J.G.J.J.J.&.G.D.A.D.. o o >.:.&.) M J.H.H.F.F.F.F.F.,.K.L.L.8.D.F.F.F.D.D.L.H H { *.*.X   X G.G.G.G.0.F.B.V.B.F.D./ Y N N   C C D D D D D D D D D D D D D D D D D D D D ",
"D D D D D D D D D D D D D D D D D D D D C . . d.d.d.d.K.K.K._ G.S.S.S.S.S.C.m.@ + + + M L.H.F.H.F.F.F.F.L.,.M ) K.F.F.F.F.D.D.L.H X X X X B.B.B.S.G.G.G.G.y.B.D.G. . .} Y     C C D D D D D D D D D D D D D D D D D D D D D ",
"D D D D D D D D D D D D D D D D D D D D D C C . d.i.i.i.i.b K.S.D.S.S.S.V.V.m.b.n.B.n.M L.F.L.H.F.J.F.F.l L.K.K.,.F.F.F.F.F.D.L.v q.q.S.Z.D.B.N.G.G.F.S.S.K.K.3.}  .} }   C Z S D D D D D D D D D D D D D D D D D D D D D D ",
"D D D D D D D D D D D D D D D D D D D D D D D C . . i.i.i.b b.K.K.K.D.V.Z.V.V.M.B.v.n.l L.H.F.L.F.L.K.F.L.F.H.F.G.F.F.F.F.F.F.P.c 0.9.D.C.V.D.D.G.G.J.J.K.U 4 2.} T .   Z D D D D D D D D D D D D D D D D D D D D D D D D D ",
"D D D D D D D D D D D D D D D D D D D D D D D D C C X   u.i m.u.u.u.K.K.K.K.V.M.n.B.n.h I.H.H.H.K.F.F.H.H.H.H.G.F.F.F.F.F.F.D.P.l 9.7.C.A.Z.J.J.J.K.W R N N 4 2.    C C D D D D D D D D D D D D D D D D D D D D D D D D D D ",
"D D D D D D D D D D D D D D D D D D D D D D D D D D C C X . v.u.u.u.w.w.2.5.J.J.J.J.K.k K.I.I.P.P.L.L.K.K.K.J.L.J.K.K.K.L.I.K.P.j l.y.K.J.K.' ' ` ` W W I I     C C D D D D D D D D D D D D D D D D D D D D D D D D D D D D ",
"D D D D D D D D D D D D D D D D D D D D D D D D D D D D C C . . u.u.w.5.9.2.2.2.1.X.^ o v.x.v.d.p.d.p.p.p.i.p.u.p.w.9.j.j.j.c.h.$ d u [ ' ' ' ' ` W W I     C C D D D D D D D D D D D D D D D D D D D D D D D D D D D D D D ",
"D D D D D D D D D D D D D D D D D D D D D D D D D D D D D D C C . . w.2.2.2.2.2.<.o.^ X c.v.i.p.i.p.p.i.i.i.u.r.w.w.w.w.w.6.x.g.  t u ' ] ' ' ` W W     C Z G D D D D D D D D D D D D D D D D D D D D D D D D D D D D D D D ",
"D D D D D D D D D D D D D D D D D D D D D D D D D D D D D D D D C C X . . . 2.<.#.X.^ X v.u.i.p.i.u.u.e.e.e.e.e.w.w.6.6.6.w.6.g.  t j ' ' `         C C D D G F D D D D G G D D D D D D D D D D D D D D D D D D D D D D D D ",
"D D D D D D D D D D D D D D D D D D D D D D D D D D D D D D D D D D C C C C . . . . . . j.i.i.u.6.6.<.6.2.2.6.6.w.w.w.6.6.6.6.f.            C C C C D D D D S F F D D F G D D D D D D D D D D D D D D D D D D D D D D D D D ",
"D D D D D D D D D D D D D D D D D D D D D D D D D D D D D D D D D D D D D D C C C C C . h.t.u.| ' o.6.6.2.2.2.6.6.w.6.2.6.2.<.h.  C C C C C D D D D D D D D D S S D F F F D D D D D D D D D D D D D D D D D D D D D D D D D ",
"D D D D D D D D D D D D D D D D D D D D D D D D D D D D D D D D D D D D D D D D D D D . h.o.' ' ' ^ 6.<.<.6.<.<.<.2.<.<.<.<.<.f.  C C D D D D D D D D D D D D D D D F F S D D D D D D D D D D D D D D D D D D D D D D D D D ",
"D D D D D D D D D D D D D D D D D D D D D D D D D D D D D D D D D D D D D D D D D D D C                                         C C D D D D D D D D D D D D D D D D S S D D D D D D D D D D D D D D D D D D D D D D D D D D ",
"D D D D D D D D D D D D D D D D D D D D D D D D D D D D D D D D D D D D D D D D D D D D C C C C C C C C C C C C C C C C C C C C C D D D D D D D D D D D D D D D D D D D D D D D D D D D D D D D D D D D D D D D D D D D D D "
};
