/* XPM */
static char *Smoke_15[] = {
/* columns rows colors chars-per-pixel */
"110 73 184 2 ",
"   c #7D3515",
".  c #823716",
"X  c #843917",
"o  c #883B17",
"O  c #893C19",
"+  c #863C1C",
"@  c #8C421E",
"#  c #8A4423",
"$  c #8D4927",
"%  c #8D4C2B",
"&  c #924521",
"*  c #914924",
"=  c #924D2A",
"-  c #9F4E29",
";  c #9B4C26",
":  c #94512C",
">  c #99532D",
",  c #8E5231",
"<  c #945433",
"1  c #945836",
"2  c #9D5A35",
"3  c #935B3B",
"4  c #985A39",
"5  c #9B5632",
"6  c #A1522A",
"7  c #A15D36",
"8  c #A15E39",
"9  c #817F20",
"0  c #9E623D",
"q  c #9B603B",
"w  c #A2633B",
"e  c #D75E1D",
"r  c #D85C1B",
"t  c #D66122",
"y  c #D46A2C",
"u  c #CD763E",
"i  c #D17034",
"p  c #D26E36",
"a  c #9D6542",
"s  c #9C6A46",
"d  c #9F7149",
"f  c #9C7D5D",
"g  c #A56A43",
"h  c #A96E43",
"j  c #A46D4B",
"k  c #A56843",
"l  c #AA7046",
"z  c #A4714C",
"x  c #AB744B",
"c  c #AF794E",
"v  c #A77047",
"b  c #A67453",
"n  c #A97750",
"m  c #A77E53",
"M  c #AD7C54",
"N  c #A2765B",
"B  c #A57A5D",
"V  c #AA7E5C",
"C  c #B27F56",
"Z  c #9C7E63",
"A  c #A97F62",
"S  c #CB7B47",
"D  c #8F8824",
"F  c #948D29",
"G  c #99912E",
"H  c #ACB828",
"J  c #C1C52D",
"K  c #C9CD35",
"L  c #D1D43D",
"P  c #AE8259",
"I  c #AF8A5E",
"U  c #B38256",
"Y  c #B28359",
"T  c #B8885C",
"R  c #9D8264",
"E  c #9E8469",
"W  c #9F886C",
"Q  c #9F8C73",
"!  c #A28565",
"~  c #AA8265",
"^  c #A38A66",
"/  c #A2856B",
"(  c #A68B6A",
")  c #AA8C6A",
"_  c #AC8865",
"`  c #B28D62",
"'  c #B38B69",
"]  c #B98D6A",
"[  c #A79068",
"{  c #AB926C",
"}  c #B4936C",
"|  c #B9976C",
" . c #A28C73",
".. c #A98D70",
"X. c #A28E79",
"o. c #B18E71",
"O. c #A69176",
"+. c #AB9374",
"@. c #AD9977",
"#. c #A3907A",
"$. c #AB957A",
"%. c #AE9A7D",
"&. c #A79A7F",
"*. c #B29375",
"=. c #B49B75",
"-. c #BA9D73",
";. c #B39D7C",
":. c #B99C7C",
">. c #B59677",
",. c #B5A27C",
"<. c #BDA07C",
"1. c #C58457",
"2. c #C18E65",
"3. c #C29F75",
"4. c #A69983",
"5. c #AB9C84",
"6. c #AB9E8A",
"7. c #B39D84",
"8. c #B89F88",
"9. c #AB9F90",
"0. c #AEA28D",
"q. c #B4A285",
"w. c #B4A48B",
"e. c #BBA68A",
"r. c #B9A98D",
"t. c #B8A587",
"y. c #AFA391",
"u. c #B1A694",
"i. c #BAA690",
"p. c #B3A996",
"a. c #BCAC94",
"s. c #B2A798",
"d. c #B5AB9B",
"f. c #B9AF9C",
"g. c #BEB196",
"h. c #BDB29B",
"j. c #B8AFA2",
"k. c #BDB5A3",
"l. c #BEB8A4",
"z. c #BFB6A9",
"x. c #BFB8AA",
"c. c #C2B49C",
"v. c #C3B89F",
"b. c #C0B6A2",
"n. c #C2BBA6",
"m. c #C3BDAC",
"M. c #C5BFB1",
"N. c #C5C0AD",
"B. c #C9C2AD",
"V. c #DDCBAE",
"C. c #C6C2B2",
"Z. c #CAC5B4",
"A. c #CCC7B9",
"S. c #CECABC",
"D. c #CEC9B7",
"F. c #DACCB3",
"G. c #D0CDBE",
"H. c #D4C9B5",
"J. c #D2D0BF",
"K. c #D8D1BF",
"L. c #E0CEAF",
"P. c #E2CFB2",
"I. c #E2D5BC",
"U. c #CECCC1",
"Y. c #D1CEC1",
"T. c #D4D1C5",
"R. c #D8D5C6",
"E. c #D6D3C9",
"W. c #D9D6CA",
"Q. c #DBD8CE",
"!. c #DDDCD3",
"~. c #E7DDC9",
"^. c #E7DCCA",
"/. c #E1DED5",
"(. c #E1DFD8",
"). c #E4E0D6",
"_. c #E4E2DA",
"`. c #EAE6DE",
"'. c #EAE0D0",
"]. c #EEEAE3",
"[. c #F0ECE5",
"{. c #F1EFE9",
"}. c #F3F1EB",
"|. c #F6F6F3",
/* pixels */
"J J J J J J J J J J J J J J J J J J J J J J J J J J J J J J J J J J J J J J J J J J J J C C C C C C U U U U U U U C c c c x l J J J J J J J J J J J J J J J J J J J J J J J J J J J J J J J J J J J J J J J J J J J J J J J ",
"J J J J J J J J J J J J J J J J J J J J J J J J J J J J J J J J J J J J J J J J J J J x E.S.S.G.A.A.Y.E.E.T.T.T.T.T.T.R.T.H.D.l D D J J J J J J J J J J J J J J J J J J J J J J J J J J J J J J J J J J J J J J J J J J J J ",
"J J J J J J J J J J J J J J J J J J J J J J J J J J J J J J J J J J J J J J J J J J J l E.G.Y.T.T.E.E.T.T.R.E.T.E.R.T.T.T.T.A.A.x D D J J J J J J J J J J J J J J J J J J J J J J J J J J J J J J J J J J J J J J J J J J J ",
"J J J J J J J J J J J J J J J J J J J J J J J J J J J J J J J J J J J J J J J J J J J l Q.T.E.T.T.T.T.E.7.7.7.7.7.R.T.T.R.T.T.A.x D D J J J J J J J J J J J J J J J J J J J J J J J J J J J J J J J J J J J J J J J J J J J ",
"J J J J J J J J J J J J J J J J J J J J J J J J J J J J J J J J J J J J J J J J J J J l Q.R.T.T.E.E.R.R././.(./.7.R.R.R.T.R.T.Q.x D D J J J J J J J J J J J J J J J J J J J J J J J J J J J J J J J J J J J J J J J J J J J ",
"J J J J J J J J J J J J J J J J J J J J J J J J J J J J J J J J J J J J J J 5 5 2 7 g l Q.T.T.T.T.E.R.R.7.7.7.7.7.R.T.T.R.T.R.!.x X . 2 2 2 J J J J J J J J J J J J J J J J J J J J J J J J J J J J J J J J J J J J J J J J ",
"J J J J J J J J J J J J J J J J J J J J J J J J J J J J J J J J J J J h v v D.S.S.S.G.l Q.T.T.R.E.E.T.F.<.I.I.I.I.F.W.W.R.T.R.Q.x r.r.S.A.D.5 2 2 J J J J J J J J J J J J J J J J J J J J J J J J J J J J J J J J J J J J J ",
"J J J J J J J J J J J J J J J J J J J J J J J J J J J J J J J J j x x Y.Y.S.A.U.S.S.S.x Q.T.T.T.T.R.F.Q.w.Q.7.7.7.Q.F.F.F.R.R./.c w.r.S.S.S.U.Y.Y.2 w w J J J J L J J J J J J J J J J J J J J J J J J J J J J J J J J J J J ",
"J J J J J J J J J J J J J J J J J J J J J J J J J J J J J J J M Y.T.Y.T.T.D.2 2 2 7 7 l Q.T.R.R.R.J.R.W.!.Q./././.W.W.W.Q.K.K.Q.c q 0 q w 7 Y.T.S.T.T.J.w J J J K K J J J J J J J J J J J J J J J J J J J J J J J J J J J J ",
"J J J J J J J J J J J J J J J J J J J J J J J J J J J J M M M Y.Y.Y.E.T.2 2 R.W.R.R.R.x R.D.R.R.R.W.W.R.R.R.Q.W.W.W.R.W.R.R.R./.c T.R.T.T.T.> w T.G.T.T.w J J J J J J J J J J J J J J J J J J J J J J J J J J J J J J J J J ",
"J J J J J J J J J J J J J J J J J J J J J J J J J J k x T.T./.@.Y.Y.5 2 S.J.J.J.J.T.R.h R.R.R.T.R.R.R.R.R.R.R.R.R.R.R.R.R.R.R./.c Y.T.T.T.T.T.E.w v T.T.C w w w w J J J J J J J J J J J J J J J J J J J J J J J J J J J J J ",
"J J J J J J J J J J J J J J J J J J J J J J J J k j Q.E.U.T.Y./.8 2 M.M.J.J.G.J.J.T.R.h Q.T.R.R.R.R.R.R.R.R.R.R.W.R.W.R.R.R.R.!.s E.T.T.T.T.R.T.T.R.l x !.H.Z.N.B.w w w J J J J J J J J J J J J J J J J J J J J J J J J J J ",
"J J J J J J J J J J J J J J J J J J J J J J J 4 W.Q.T.Y.Y.Y.2 2 Y.M.M.M.T.G.J.J.G.J.R.W.x !.R.R.R.R.R.R.R.R.W.W.R.W.R.W.R.R.!.d G.U.J.G.T.E.T.E.R.E.W.W.q > C.B.B.B.S.A.w J J J J J J J J J J J J J J J J J J J J J J J J J ",
"J J J J J J J J J J J J J J J J J J J J J k 2 Q.T.T.Y.E.T.2 J.Y.Y.Y.J.N.J.T.J.T.G.J.K.Q.z Q.R.W.R.!.!.!.!.!.!././././.W.R.R.!.a G.J.J.G.U.T.T.T.E.T.E.T.T.E.@ S.G.G.S.S.H.= : J J J J J J J J J J J J J J J J J J J J J J J ",
"J J J J J J J J J J J J J J J J J J J J 2 !.!.E.E.E.E.2 2 Y.Y.T.G.T.G.T.T.J.T.K.K.T.W.m $ _._.!.!.p.r.h.f.k.f.j.f.j.j._._._._.0 Y.Y.G.U.U.T.E.T.T.E.T.E.T.T.T.@ o D.S.D.E.U.Y.# J J J J J J J J J J J J J J J J J J J J J J ",
"J J J J J J J J J J J J J J J J J J J J < E.E.E.E.E.2 U.T.Y.Y.G.Y.G.T.K.K.T.T.R.T.Q.< V $ ;.q.w.w.w.w.f.j.f.f.j.j.k.x.x.x.x.x.0 !./.!.G.U.U.T.Y.T.E.Z.C.T.T.Y.T.T.o T.T.U.T.T.+ J J J J J J J J J J J J J J J J J J J J J J ",
"J J J J J J J J J J J J J J J J J J k k Q.f N T.E.2 T.U.T.Y.Y.Y.J.S.T.T.T.T.T.Q.^.9.9.5 $ %.q.w.w.q.w.-.-.-.-.,.-.-.-.x.m.z.z.a C.m.C.!.!.U.U.U.Y.A.Z.Z.G.U.T.T.E.Y.o Y.Y.N N !.& * J J J J J J J J J J J J J J J J J J J J ",
"J J J J J J J J J J J J J J J J J k !.Q.U.!.!.N 2 U.U.T.S.T.T.G.G.T.T.T.T.Q.Q.6.6.6.6.9.# %.6.w.p.    X X # % : 1 5 = ;.;.n.z.a M.M.M.C.C.!.!.U.S.G.U.Y.U.U.T.Y.Y.G.U.o A !.!.Y.Q.Q.* J J J J J J J J J J J J J J J J J J J ",
"J J J J J J J J J J J J J J J J k Q.U.G.G.U.Y.5 Y.U.U.U.T.Y.G.R.R.T.T.Q.Q.#.X.4.6.6.6.6.. . . .   | ` | } } } =.=.=.=.k 4 4 4 4 C.C.C.C.C.l.z.!.(.Y.U.Y.G.S.U.S.U.S.S.Y.X Y.Y.T.T.Y.Q.* J J J J J J J J J J J J J J J J J J ",
"J J J J J J J J J J J J J J J k W.S.T.S.S.U.2 E.Y.Y.T.E.T.T.T.T.T.T.!. . . .O.4.4.    . =.=.-.;.,.h.v.h.v.b.h.n.v.b.m.N.O...~ / z z z N.M.x.x.k.k.!.S.G.U.U.S.S.S.U.U.S.G.X T.Y.E.T.A.Q.& J J J J J J J J J J J J J J J J J ",
"J J J J J J J J J J J J J J J k E.S.Y.U.T.5 E.E.U.U.E.Y.E.T.T.T.T.!.W  .W Q Q     ) +.*.g.g.h.h.g.h.l.h.n.n.h.n.m.M.m.M.m.M.( ( ( O.U.q 0 m.x.l.x.d.!.U.U.U.S.U.S.U.S.U.U.S.X Y.Y.Y.S.W.- J J J J J J J J J J J J J J J J J ",
"J J J J J J J J J J J J J J = T.S.A.D.D.5 E.E.E.E.E.E.E.T.T.T.T.Q.R / Q Q     +...c.h.h.g.g.g.h.h.h.h.h.h.N.l.N.m.M.m.m.C.m...) [ U.x.S.A.1 q x.x.s.d.!.E.E.U.A.S.S.S.S.S.U.Y.o U.U.S.U.Y.O J J J J J J J J J J J J J J J J ",
"J J J J J J J J J J J J J J 5 T.A.A.A.A.1 E.T.E.E.E.T.!.Q.T.Q.!.Z Z E E   q.q.h.g.h.g.h.h.l.l.l.h.h.h.h.N.n.N.N.M.B.N.C.m...U.U.U.n.n.l.N.A.S.% k.s.d.d.!.E.E.E.U.S.S.S.T.T.Y.o S.S.G.G.T.o J J J J J J J J J J J J J J J J ",
"J J J J J J J J J J J J J . T.D.A.D.A.2 E.E.Y.E.E.E.Q.Q.!.!.Q.Z Z R     4.g.a.g.h.h.h.b.k.l.h.l.N.h.N.N.n.N.n.N.M.m.m.M.$.U.n.m.n.n.N.l.N.n.l.S.3 3 d.d.s.!.E.E.T.U.Y.Y.T.Y.T.T.k G.S.G.G.G.O J J J J J J J J J J J J J J J ",
"J J J J J J J J J k k w k k k k k k k k s f N A !.Q.!.!.!.!.Z Z Z   [ +.g.g.g.f.h.h.h.k.k.k.k.l.l.l.x.m.m.m.m.N.m.B.N.R U.m.m.n.n.m.n.N.l.n.m.n.S.Z.< d.7.5.!.E.E.E.Y.Y.A A N A h h h h h h h h h h h h J J J J J J J J J J ",
"J J J J J J J J k !.E.E.E.G.S.U.U.S.Z.Z.A.Z.Z.Z.f N 5.....!.f f   ^ { g.g.f.g.g.h.h.Z.S.A.A.A.A.S.S.S.U.S.S.U.S.G.Y.+.W U.U.U.Y.U.U.U.n.n.N.x.C.M.Z.B.= 7.;.!.N A N N A T.E.T.Y.Y.Y.Y.Y.T.T.T.Y.T.G.G./.h J J J J J J J J J ",
"J J J J J J J k !.Q.E.Q.S.Y.Y.G.U.S.A.A.Z.Z.U.S.S.U./...) ) f   ( ( l.k.k.l.g.g.h.Z.B R R f f A R R ^ ^ { +.{ +.+.+.+.+.+.+.+.O.O.+.O.U.m.m.n.C.C.C.C.Z.X %.7.!.E.E.E.E.U.U.U.Y.G.Y.Y.T.K.T.T.Y.T.Y.T./.h J J J J J J J J J ",
"J J J J J J J x !.Y.U.U.Y.G.U.G.S.U.U.U.Y.S.Y.G.S.U.M./.!./   ) { k.k.k.l.l.h.g.h.^ +.@.@.@.%.@.%.%.%.%.%.%.%.;.7.;.q.q.q.q.q.q.q.q.7.;.n.m.m.n.C.C.C.C.Z.X %.!.E.Q.Y.Y.Y.U.Y.Y.K.Y.Y.Y.T.F.T.Y.Y.G.T./.h D D J J J J J J J ",
"J J J J J J J x Q.U.U.G.Y.Y.Y.U.Y.Y.U.Y.S.U.U.S.U.S.S.S./.A   { l.l.h.l.k.l.k.l.l.R { %.l.l.l.v.n.n.m.m.n.n.N.N.N.N.N.N.m.N.N.C.Z.w.w.7.Y.l.m.x.m.M.C.C.Z.o 7./.W.G.G.U.G.Y.G.Y.Y.T.Y.Y.Y.K.G.T.T.K.Y./.h D D D J J J J J J ",
"J J J J J J J v !.Y.Y.Y.Y.G.U.U.T.S.S.U.S.Y.Y.S.G.U.A./.9.. ( ) l.l.l.%.%.l.l.x.n.R +.N.N.N.N.N.n.n.N.B.N.N.N.N.N.N.N.N.N.N.D.Z.D.N.r.q.+.m.m.N.M.C.C.C.M.H.X 6./.G.G.G.U.G.K.Y.T.Y.T.K.T.T.T.Y.T.Y.T./.l D D D J J J J J J ",
"J J J J J J J x !.Y.T.T.Y.Y.i.i.t.Y.Y.Y.Y.U.Y.U.U.G.S./.9.  ) { l.l.l.C.Z.@.x.x.x.$.} B.N.N.B.N.N.B.B.B.N.B.B.N.B.N.C.C.N.B.N.C.N.B.a.;.+.x.m.N.m.C.M.C.M.M.. 9./.U.G.Y.G.Y.T.T.Y.Y.H.c.c.| T.K.Y.K.Y./.l D D D J J J J J J ",
"J J J J J J J x !.Y.Y.Y.Y.@.!.Q.Q.%.Y.Y.T.U.Y.Y.G.G.U./.  / ( l.l.l.l.l.l.D.R x.n.$.} Z.Z.B.B.B.Z.Z.Z.B.Z.D.Z.D.Z.D.A.D.D.D.Z.Z.Z.Z.c.-.q.N.x.m.m.m.m.x.m.M.m.. /.S.G.U.Y.T.T.T.T.Y.Y.:.Q.Q.E.8.T.T.E./.l D D D J J J J J J ",
"J J J J J J J v !.T.T.T.E.>.Y.) E.*.Y.T.Y.Y.Y.Y.U.Q.Q.!.. ) ) m.l.l.l.x.l.m.S.R ! ;.] H.A.G.H.S.A.A.H.A.H.G.S.F.U.G.G.H.S.H.S.A.H.D.n.2.w.N.n.m.M.m.m.m.M.x.M.X !.U.Y.U.Y.T.T.E.T.T.R.-.T.:.:.:.R.R.R.).x D D D J J J J J J ",
"J J J J J J J h !.U.T.T.E.~ T.Q.U.~ T.T.E.Y.E.Y.T.Q.Q.!.. ) ^ m.m.m.l.x.m.m.J.&.5.%.T E.Y.G.Y.G.T.G.K.T.Y.Y.Y.M.M.H.Y.Y.T.Y.Y.Y.Y.G.Z.2.r.n.m.M.m.M.M.m.m.M.m.X !.U.Y.Y.Y.T.T.T.E.E.R.' E.Q.Q.~ R.R.R.).w D D D J J J J J J ",
"J J J J J J J j !.E.T.E.Y.!.B B A Q.T.E.E.T.E.Y.T.T.Q.!.. ( ( n.m.m.m.m.N.m.C.J.7.%.1.Q.R.Y.E.T.^.R.Q.R.T.E.R.R.^.H.Q.T.E.E.~.T.W.R.H.1.m.m.m.m.M.m.m.M.M.x.M.X !.T.T.T.T.R.T.T.T.E.W.b j h E.Q.R.R.R.).c D D D J J J J J J ",
"J J J J J J J h !.E.T.E.T.T.!.!.!.E.E.T.E.T.T.T.T.T.W.!.. ( ) M.M.m.M.m.N.N.N.U.q.6.S !./.^././.Q./././.^.H./.H./.F./././.Q.W.^.Q.^.R.1.m.C.m.M.x.M.m.m.m.m.M.. !.E.T.T.E.T.T.T.T.T.W.Q.Q./.W.E.W.W.Q.).w D D D J J J J J J ",
"J J J J J J J j !.Q.E.E.T.T.W.E.E.E.E.T.T.E.E.T.T.T.T.!.X ( ( m.m.C.C.M.M.m.C.m.T.0.u ].).).).).(./.(.(.(.L./.(.(.`.(.^./.^.(.(._.(.).S C.C.m.N.M.m.M.m.m.m.m.o /.Y.T.T.T.T.E.T.T.W.Q.Q.W.W.W.W.W.W.W.(.w F D D J J J J J J ",
"J J J J J J J h !.!.Q.E.W.R.W.E.E.E.E.E.E.T.E.T.T.T.W.!.X ( ( m.C.m.m.m.m.M.C.C.C.w.i ]._._._._.(.`.'.`.(.V.F.V.`.(.`.`.(.(.'.].`.`.`.i C.C.N.N.x.m.m.m.k.k.k.. /.T.T.T.T.T.T.T.Q.W.W.W.Q.Q.Q.W.W.W.R.(.v D D D J J J J J J ",
"J J J J J J J k (.Q.Q.E.W.W.W.T.W.E.W.T.E.E.E.T.E.T.T.!.X ) ^ C.C.C.C.S.A.Z.C.M.C.w.y }.[.`.`.`.`.`.`.`.].[.[.].`.`.`.`.`.`.].].].{.V.y C.C.N.m.m.m.m.x.k.k.k.. /.U.T.E.W.E.W.W.W.W.W.Q.W.W.W.B.W.W.W.(.v D D D J J J J J J ",
"J J J J J J J 0 (.Q.Q.Q.T.R.W.W.T.E.R.R.T.E.E.E.T.s 1 4 $ X [ C.C.x.C.S.A.S.Z.C.C.r.t }.[.].].`.].].].`.].`.].].].].].].].].].[.}.V.~.i C.C.C.N.m.x.k.k.k.k.. N N N N E.W.W.W.W.Q.Q.W.W.W.B.B.B.N.Q.Q.!.w D D D J J J J J J ",
"J J J J J J J 2 (._.(.].!.!././.!.!.!.(.B ! ~ ) 0.!.W.Q.Q.  [ S.A.A.A.A.S.A.A.C.C.a.t |.].}.].].[.[.].[.].[.].[.].].[.}.{.[.].[.}.P.~.t C.C.C.C.m.m.k.k.k.m.X E.E.Q.E.N A a o.o.o.5././.!.!._.!././.(.!.d D D D J J J J J J ",
"J J J J J J J o m.x.x.x.d.s.s.d.s.f.s.P !.!.Q.Q.Q.Y.J.G.J.U.1 C.S.A.S.A.S.Z.C.C.C.f.e |.}.}.}.}.{.{.[.[.[.[.[.[.[.{.}.}.}.[.[.}.V.~.~.e Z.C.C.Z.C.C.C.k.k.4 S.S.M.U.M./.Q.Q.o.o.o.z.6.9.w.u.y.s.p.p.s.x.X D D D J J J J J J ",
"J J J J J J J o m.x.u.u.y.y.s.s.s.u.u.x s !.U.U.Y.Y.U.U.G.G.G.s C.U.A.S.A.S.C.C.N.g.e |.}.}.}.}.{.}.[.[.[.[.[.[.[.}.}.}.}.}.}.P.~.'.r g.C.C.C.C.C.C.C.C.w S.A.A.Y.M.S.M.A.A.Q.a Z.6.8.9.0.y.s.y.p.y.p.x.X D D D J J J J J J ",
"J J J J J J J X x.y.0.y.$.` ` ` ` P v h k !.T.T.T.Y.Y.U.J.G.J.Q.R C.S.C.A.S.C.C.C.p.a.e r r r e r r r r r r r r r r r r r r r r r e h.f.C.C.C.C.C.C.C.w b.A.A.S.M.Y.M.Y.A.A.Q.b _ I ` Y I I I ^ y.p.y.x.X D D D J J J J J J ",
"J J J J J J J X m.9.9.o Q.Y.H.Y.H.n.n.b.# $.!.U.T.T.U.U.Y.Y.T.T.R.m C.S.S.A.S.C.C.a.f.f.w.w.w.q.q.q.q.q.q.t.q.,.;.;.;.=.>.} +.*.;.h.f.h.C.C.C.C.N.C.w a.m.b.U.U.R.H.M.S.S./.s.X n.G.S.W.E.E.E.!.X y.y.x.X D D D J J J J J J ",
"J J J J J J J X j.u.6.o Q.Y.U.S.Z.Z.n.n., ( !.E.U.T.T.T.T.Y.Y.T.T.W.m C.A.S.S.Z.C.U.Y.f.g.h.h.f.h.h.c.c.k.h.c.c.h.h.h.c.c.c.h.h.f.k.a.U.Z.C.C.C.C.m e.g.E.E.Y.T.Y.T.U.Y.M.Q.9.. n.G.S.U.E.E.T.Q.X y.s.j.X D D J J J J J J J ",
"J J J J J J J D . . . . #.!.G.S.Y.Z.Z.A.Z.$ ..Q.U.E.T.T.T.T.Y.T.T.!.Q.m x S.S.A.S.C.C.T.U.Y.Y.T.Y.Y.G.Y.T.U.U.E.T.Y.h.h.h.h.Y.U.U.U.T.C.Z.Z.C.0 k a.e.Q.Y.E.Y.U.T.U.U.Y./.A . m.G.S.Y.T.Y.E.Q.9.X X X X D D J J J J J J J J ",
"J J J J J J J J D D D . X.Q.Y.G.U.S.Z.Z.Z., ..O.!.E.U.E.U.T.E.Y.T.T.Q.T.T.n A.S.S.Z.C.C.C.Z.Z.C.Z.Z.Z.Z.A.Z.Z.Z.Z.Z.U.T.g.h.C.Z.C.A.C.A.C.C.2 Y.U.Y.Y.T.U.Y.E.E.T.Y.T.Q.A Z . M.S.S.T.Y.Y.E.Q.y.X D D D D J J J J J J J J J ",
"J J J J J J J J J J J D X X.Q.G.S.U.G.S.Z.Z., O.s.!.E.E.T.E.T.E.T.T.T.T.T.Y.w v A.S.S.S.Z.C.Z.Z.Z.Z.A.Z.Z.Z.Z.Z.Z.A.A.Z.Y.Y.C.Z.Z.Z.Z.C.k w T.E.E.U.E.E.E.Y.E.Y.Y.E.Q.E A O m.m.S.S.T.E.E.Q.E X D D D J J J J J J J J J J J ",
"J J J J J J J J J J J J X X.9.Q.G.S.S.G.A.Z.Z.- d.d.!.!.!.R.E.E.E.E.E.T.T.Y.T.G.7 7 2 A.A.Z.Z.Z.Z.A.A.A.Z.H.D.A.Z.Z.C.Z.C.A.C.Z.Z.8 a 0 E.E.T.T.T.T.U.E.E.T.E.E.T.Q.E Z & n.n.n.S.S.T.T.Q.R R . D G J J J J J J J J J J J J ",
"J J J J J J J J J J J J D + 9.Q.U.G.U.U.S.S.A - d.f.j.$.@.!.E.E.E.E.W.T.T.Y.T.G.G.G.S.8 4 Z.Z.Z.Z.C.Z.D.Z.Z.Z.Z.D.Z.Z.Z.Z.Z.C.A.- G.Y.E.E.E.E.E.E.E.E.E.E.E.T.E.Q./ A E # X n.n.A.T.T.T.Q.Z X D D F K J J J J J J J J J J J ",
"J J J J J J J J J J J J J X y.u.Q.Y.Y.Y.' ' ' N # j.k.k.*.+.!.E.E.R.T.R.T.Y.Y.T.G.G.Z.S.Z.n l c M c C P C C C C M M M C x C.C.s S.S.T.E.E.T.E.E.T.E.E.E.E.E.!.!. . .! # c.c.A V T.T.E.Q.Z E   F D H K J J L J J J J J J J J ",
"J J J J J J J J J J J J J D X s.s.!.' ' !.!.Q.Z N & j.k.b.c.!.W.E.T.E.E.T.T.T.G.G.G.G.K.Z.l W.W.R.W.W.R.W.R.Y.T.T.G.G.T.Y.w w S.S.Y.T.W.E.W.E.E.E.E.E.T.E.!.O.O. . .= c.c.M.M.Z.Z N !.O.R X F F F H J K K H J J J J J J J J ",
"J J J J J J J J J J J J J J D X s.N !.!.U.Y.U.!.Q.!.& k.c.n.v./.!.E.E.E.R.T.T.T.Y.Y.J.G.3.W.W.W.W.R.W.R.T.T.T.Y.T.T.T.Y.Y.Y.!.B U.T.T.Y.E.E.E.W.E.E.E.!.(.#.O.X. .$ c.M.Z.Z.B.B.Z.Q.% 7.  F 9 F K J J K K H J J J J J J J J ",
"J J J J J J J J J J J J J L L X d.f x.Q.U.T.U.T.S.S.Y.6 6 v.v.c.f./.!.E.R.T.T.T.J.T.T.G.:.R.K.T.R.R.T.K.T.T.Y.T.Y.T.T.Y.Y.T.!.B Y.T.Y.Y.E.E.E.E.E./.!.$.O.O.O.$ 4 S.Z.Z.A.A.Z.Z.E.Z % 5.  F F H K J J H H J J J J J J J J J ",
"J J J J J J J J J J J J J J L F X Z x.j.!.U.T.T.Y.S.S.S.E.& c.n.f.f.f.!./.!.J.T.T.T.R.Y ^.T.T.T.T.E.T.T.T.K.T.Y.T.G.Y.T.Y.Y.T.E.P T.T.E.E.E.!.!.!.5.$.$.$.O.< C.Z.A.S.H.A.S.A.Y.Z Z % . D 9 K H H J J J J J J J J J J J J J ",
"J J J J J J J J J J J J J J H K F X x.j.d.Q.T.T.U.U.T.T.Y.E.; ; k.f.h.d.g.r.!././.T.K.T !.T.T.T.R.T.R.R.R.T.T.E.T.T.K.G.Y.Y.Y./.P D.Y.!./.!.@.@.$.$.$.O.= < Z.Z.A.A.A.A.H.A.T.A Z Z   D D J J J J J J J J J J J J J J J J J ",
"J J J J J J J J J J J J J L K H K F % j.j.j.Q.Q.U.E.T.E.E.E.Q.Q.- > d.h.r.r.r.,.,././.Y Q.T.T.R.T.T.R.R.c.T.T.Y.c.T.T.T.T.T.Y.^.P Q.!.,.=.,.@.+.O.O.1 1 B.B.M.M.H.S.A.A.E.T.Z Z R % D D J J J J J J J J J J J J J J J J J J ",
"J J J J J J J J J J J J J H K K H K D X f.d.j.l.Q.E.E.E.E.E.Q.Q.-.E.> . a.r.t.,.,.;.} c /.R.R.R.T.~.R.R.^.c.c.c.Q.T.T.T.T.Y.Y./.P P =.=.@.@.@.@.a 3 Y.b Y.Z.M.H.S.A.A.G.E E R Z   D D J J J J J J J J J J J J J J J J J J J ",
"J J J J J J J J J J J J J J H K H H J D X j.f.j.j.Q.Q.E.Q.Q.Q.>.W.Y.U.Y.. X X ,.,.;.{ C Q.W.W.R.R.T.R.R.-./././.t.E.R.R.E.E.Y./.P P | ,.=.@     T.E.E.W.i.T.A.A.A.Y.T. .E Z Z   D D J J J J J J J J J J J J J J J J J J J J ",
"J J J J J J J J J J J J J J J J J J J J D X X j.j.f.j.!.!.!.] E.Y.Y.Y.G.Y.Y.Z.X o o O C /.Q.R./.E.E.R.R./.} ' ' /.E.E.R.R.E.E./.P . . X   A.S.D.T.E.T.T.E.a.A.E.T.X.X.Q W     D D J J J J J J J J J J J J J J J J J J J J J ",
"J J J J J J J J J J J J J J J J J J J J J D D   d.j.d.d.d.N !.Y.Y.Y.Y.Y.S.S.Z.Z.Z.Z.Z.C /.Q.R.R.^.W.R.R.x /./.Q.] R.R.R.R.R.T./.P r.r.G.Y.G.D.S.T.E.W.T.Y.Q.!.6.X.X. . .  D D J J J J J J J J J J J J J J J J J J J J J J J ",
"J J J J J J J J J J J J J J J J J J J J J J J D X X d.d.d.N C.!.!.!.Y.Y.S.S.S.Z.Z.B.Z.n /.R.Q.Q.Q.R.Q.Q.!.W.W.R./.E.R.E.R.R.E./.P w.r.Y.Y.G.Y.T.T.T.!.Q.!.E 4 6. .Q     D J J J J J J J J J J J J J J J J J J J J J J J J J ",
"J J J J J J J J J J J J J J J J J J J J J J J J D D   X s.f C.s.s.s.!.!././.S.B.Z.Z.B.l (.Q.Q.R.Q./.R.R.E.^.W.R.R.R.R.R.R.R.R./.c q.q.G.G.G.!.Q.!.Q.( R R Z 3 6.    D D J J J J J J J J J J J J J J J J J J J J J J J J J J ",
"J J J J J J J J J J J J J J J J J J J J J J J J J J D D . . M.s.s.u.u.9.y.6.Q.Q.Q.Q.Q.x !.(._.(.(.(.!./.!.Q.!.!.!.Q././././.(.(.j c.a.!.Q.!.{ [ [ [ ^ ^ R R     D D J J J J J J J J J J J J J J J J J J J J J J J J J J J J ",
"J J J J J J J J J J J J J J J J J J J J J J J J J J J J D D . . u.s.u.9.y.6.6.6.6.+...X m.m.M.j.f.j.f.f.f.d.a.d.d.u.y.n.x.x.m.z.$ z d =.| [ { [ [ ^ ^ R     D D J J J J J J J J J J J J J J J J J J J J J J J J J J J J J J ",
"J J J J J J J J J J J J J J J J J J J J J J J J J J J J J J D D . . 9.9.6.6.6.5.5.+.( X M.m.f.d.d.f.d.a.a.s.d.s.y.0.y.y.y.0.x.l.  0 d { { [ { { ^ ^     D F L J J J J J J J J J J J J J J J J J J J J J J J J J J J J J J J ",
"J J J J J J J J J J J J J J J J J J J J J J J J J J J J J J J J D D X . X . 6.4.&.O.( . m.d.s.d.d.s.s.s.u.u.u.u.y.y.0.0.0.0.0.l.  s d { { [         D D J J L K J J J J L L J J J J J J J J J J J J J J J J J J J J J J J J ",
"J J J J J J J J J J J J J J J J J J J J J J J J J J J J J J J J J J D D D D . . .   . . m.s.s.f.u.0.6.0.6.6.0.y.y.y.y.0.0.6.6.z.            D D D D J J J J H J K J J K L J J J J J J J J J J J J J J J J J J J J J J J J J ",
"J J J J J J J J J J J J J J J J J J J J J J J J J J J J J J J J J J J J J J D D D D D . z.p.s.{ [ O.4.0.6.6.6.6.0.0.6.0.0.0.4.k.  D D D F F J J J J J J J J J H H J K K K J J J J J J J J J J J J J J J J J J J J J J J J J ",
"J J J J J J J J J J J J J J J J J J J J J J J J J J J J J J J J J J J J J J J J J J J . z.$.( { { { 0.4.6.4.4.6.6.6.4.4.4.4.4.k.  D D J J J J J J J J J J J J J J J K K H J J J J J J J J J J J J J J J J J J J J J J J J J ",
"J J J J J J J J J J J J J J J J J J J J J J J J J J J J J J J J J J J J J J J J J J J D       .                                 D D J J J J J J J J J J J J J J J J H H J J J J J J J J J J J J J J J J J J J J J J J J J J ",
"J J J J J J J J J J J J J J J J J J J J J J J J J J J J J J J J J J J J J J J J J J J J D D D D D D D D D D D D D D D D D D D D D J J J J J J J J J J J J J J J J J J J J J J J J J J J J J J J J J J J J J J J J J J J J J "
};
