/* XPM */
static char *Smoke_1[] = {
/* columns rows colors chars-per-pixel */
"18 10 3 1 ",
"  c #B0A079",
". c #DBC7A2",
"X c None",
/* pixels */
"XXXXXXXX..XXXXXXXX",
"X..XXXX....XXX ..X",
"....XXXXXXXXXX....",
"....XXXXXXXXXX....",
"...XXXXXXXXXXXX...",
"...XXXXXXXXXXXX...",
"X  XXXXXXXXXXXX  X",
"XX  XXXXXXXXXX  XX",
"XX    XXXXXX    XX",
"XXX    XXXX    XXX"
};
