/* XPM */
static char *Smoke_0[] = {
/* columns rows colors chars-per-pixel */
"110 73 183 2 ",
"   c #4F2913",
".  c #512B14",
"X  c #5A361D",
"o  c #7D3515",
"O  c #5C3A23",
"+  c #5F3F28",
"@  c #56493F",
"#  c #55473E",
"$  c #5E4029",
"%  c #61412A",
"&  c #654934",
"*  c #5A4E43",
"=  c #574A40",
"-  c #5C5146",
";  c #5D5349",
":  c #62594B",
">  c #676159",
",  c #6A635B",
"<  c #6F695A",
"1  c #736C5E",
"2  c #70675B",
"3  c #6E6960",
"4  c #726C63",
"5  c #736F68",
"6  c #777166",
"7  c #797266",
"8  c #7A746A",
"9  c #7E796D",
"0  c #767168",
"q  c #797770",
"w  c #7A7870",
"e  c #823716",
"r  c #843917",
"t  c #883B17",
"y  c #893C19",
"u  c #863C1C",
"i  c #8C421E",
"p  c #8D4927",
"a  c #8D4C2B",
"s  c #894523",
"d  c #924521",
"f  c #974C27",
"g  c #94512C",
"h  c #99532D",
"j  c #945937",
"k  c #9D5A35",
"l  c #935B3B",
"z  c #955633",
"x  c #8E5231",
"c  c #A1522A",
"v  c #A15D36",
"b  c #A15E39",
"n  c #817F20",
"m  c #9C613B",
"M  c #A2633B",
"N  c #9D6642",
"B  c #9C6A46",
"V  c #9F7149",
"C  c #9A7A5D",
"Z  c #A56A43",
"A  c #A96E43",
"S  c #A66B47",
"D  c #AA7046",
"F  c #A4714A",
"G  c #AB744B",
"H  c #AF794E",
"J  c #A77047",
"K  c #A97750",
"L  c #AE7C53",
"P  c #A2765B",
"I  c #A57A5D",
"U  c #A87B57",
"Y  c #B27F56",
"T  c #807B6F",
"R  c #9C7E63",
"E  c #837E72",
"W  c #A97F62",
"Q  c #8F8824",
"!  c #948D29",
"~  c #99912E",
"^  c #ACB828",
"/  c #C1C52D",
"(  c #C9CD35",
")  c #D1D43D",
"_  c #AE8259",
"`  c #AF8A5E",
"'  c #B38256",
"]  c #B28359",
"[  c #B4885C",
"{  c #9D8265",
"}  c #9E8469",
"|  c #9F886C",
" . c #868175",
".. c #888477",
"X. c #8A867A",
"o. c #88857D",
"O. c #9F8C73",
"+. c #A18564",
"@. c #A68C6A",
"#. c #AA8C6A",
"$. c #A68667",
"%. c #B38B69",
"&. c #B48D65",
"*. c #A79068",
"=. c #AB926C",
"-. c #A28C73",
";. c #AA8D70",
":. c #A28E79",
">. c #B18E71",
",. c #A69176",
"<. c #AB9474",
"1. c #AD9977",
"2. c #A3907A",
"3. c #AA957B",
"4. c #AE9A7C",
"5. c #A79A7F",
"6. c #B29276",
"7. c #B39C75",
"8. c #B39E7C",
"9. c #B99B7C",
"0. c #B69777",
"q. c #B59068",
"w. c #B2A17A",
"e. c #C29F75",
"r. c #918D82",
"t. c #949187",
"y. c #99968D",
"u. c #9C998E",
"i. c #959289",
"p. c #9B9890",
"a. c #A69983",
"s. c #AB9C84",
"d. c #AB9E89",
"f. c #B49E84",
"g. c #B89F88",
"h. c #AB9F90",
"j. c #AEA28D",
"k. c #B4A284",
"l. c #B5A58A",
"z. c #BBA68A",
"x. c #B9A98D",
"c. c #BAA484",
"v. c #AFA391",
"b. c #B1A694",
"n. c #BAA690",
"m. c #B3A996",
"M. c #BCAD94",
"N. c #B2A798",
"B. c #B5AB9B",
"V. c #B9AF9B",
"C. c #BDB19A",
"Z. c #BEB196",
"A. c #B8AFA2",
"S. c #BDB5A3",
"D. c #BEB8A5",
"F. c #BFB6A9",
"G. c #BFB8AA",
"H. c #C2B49C",
"J. c #C3B89F",
"K. c #C3BAA6",
"L. c #C3BDAC",
"P. c #C1B6A3",
"I. c #C5BFB1",
"U. c #C4C0AF",
"Y. c #CAC1AD",
"T. c #DBC7A2",
"R. c #C6C3B3",
"E. c #CAC5B5",
"W. c #CCC7B9",
"Q. c #CECABC",
"!. c #D0CDBE",
"~. c #D2D0BF",
"^. c #CFCDC1",
"/. c #D1CEC1",
"(. c #D4D1C5",
"). c #D8D5C7",
"_. c #D6D3C9",
"`. c #D8D6CA",
"'. c #DAD8CE",
"]. c #DDDCD3",
"[. c #E0DED6",
"{. c #E1DFD8",
"}. c #E2E1DA",
/* pixels */
"/ / / / / / / / / / / / / / / / / / / / / / / / / / / / / / / / / / / / / / / / / / / / Y Y Y Y Y ' ] ] ' ' ' ' ' Y H H G G G / / / / / / / / / / / / / / / / / / / / / / / / / / / / / / / / / / / / / / / / / / / / / / / ",
"/ / / / / / / / / / / / / / / / / / / / / / / / / / / / / / / / / / / / / / / / / / / D _.Q.W.Q.W.W.(.(.(.).(.).(./.(.).).W.W.D Q Q / / / / / / / / / / / / / / / / / / / / / / / / / / / / / / / / / / / / / / / / / / / / ",
"/ / / / / / / / / / / / / / / / / / / / / / / / / / / / / / / / / / / / / / / / / / / D `.Q./.(.(._.(._.).(.(.(._.).(.(.(.(.W.W.D Q Q / / / / / / / / / / / / / / / / / / / / / / / / / / / / / / / / / / / / / / / / / / / ",
"/ / / / / / / / / / / / / / / / / / / / / / / / / / / / / / / / / / / / / / / / / / / D '._._._.(.(.(.(.f.k.f.k.f.).(.).).(.(.W.G Q Q / / / / / / / / / / / / / / / / / / / / / / / / / / / / / / / / / / / / / / / / / / / ",
"/ / / / / / / / / / / / / / / / / / / / / / / / / / / / / / / / / / / / / / / / / / / D '.(.(.(.).(.(.).{.{.].{.k.).).~.).(.(.'.G Q Q / / / / / / / / / / / / / / / / / / / / / / / / / / / / / / / / / / / / / / / / / / / ",
"/ / / / / / / / / / / / / / / / / / / / / / / / / / / / / / / / / / / / / / k k k v A D '.(.(.)._.).).).f.f.f.f.f.).).).(.).).].G r e k k k / / / / / / / / / / / / / / / / / / / / / / / / / / / / / / / / / / / / / / / / ",
"/ / / T.w./ / / / / / / / / / / / / / / / / / / / / / / / / / / / / / S S S Q.Q.Q.Q.!.D '._.(.).(.(.).+ % % + % + % ).).).).).'.G x.x.Q.W.W.k k k / / / / / / / / / / / / / / / / / / / / / / / / / / / / / / / / w.T./ / / ",
"/ / / T./ / / / / / / / w./ / / / / / / / / / / / / / / / / / / S G G (./.Q.Q.W.Q.W.!.D '.).(.).).).X 8 7 7 7 7 6 6 X X X ).).].H l.x.Q.Q.Q.Q.^.(.k M M / / / / ) / / / / / / / / / / / / / / / / w./ / / / / / / / T./ / / ",
"/ / / / / / / / / / / / / / / / / / / / / / / / / / / / / / / L /.(./._./.W.v v v v v A '.(.).).).X T 7 7 7 7 0 6 ..E ....X X X K m m k M M (.(.(.~.(.~.M / / / ( ( / / / / / / / / / / / / / / / / / / / / / / / / / / / / ",
"/ / / / / / / / / / / / / / / / / / / / / / / / / / / / L L Y /././.(./.v v (.).).).`.S ).$ $ O X 7 7 7 8 8 8 ........E E ..y.a.X (.).(.(.(.h M /.(.~.).M / / / / / / / / / / / / / / / / / / / / / / / / / / / / / / / / / ",
"/ / / / / / / / / / / / / / / / / / / / / / / / / / S S /./.].1././.k k !.~.~.~.~.).).A X 2 1 1 1 1 7 8 8 8 E ......E E E y.0 6 6 X (.(.(.(.(._.M D ).).L M M M M / / / / / / / / / / / / / / / / / / / / / / / / / / / / / ",
"/ / / / / / / / / / / / / / / / / / / / / / / / S S `.'./.(.(.].k v I.I.!.~.~.~.~.~.).O < 1 1 1 4 1 7 T ..E ....E ......E y.6 6 6 6 X (.(.(.(.(._.(.M G }.E.E.Y.Y.M M M / / / / / / / / / / / / / / / / / / / / / / / / / / ",
"/ / / / / / / / / / / / / / / / / / / / / / / k '.'././.(./.k k /.I.I.I.(.!.~.~.!.~.& X. .1 1 1 1 6 ....X.......E E E r.p.E E 7 6 6 6 O (._./._.(.(._._.k h R.E.E.Y.W.!.M / / / / / / / / / / / / / / / / / / / / / / / / / ",
"4./ / / / / / / / / / / / / / / / / / / / Z l '.(.(./._.(.k Q.(././.~.Y.~.(.~.).!.~.& X.E  . .T ..a.o...E X.....r.r.E E p.E E 6 6 6 6 O ^.(._._._._._._.(._.i W.!.Q.Q.Q.W.f g / / / / / / / / / / / / / / / / / / / / / / w.",
"/ / / / / / / / / / / / / / / / / / / / k '.]._._._._.k k !.(.!./.(.!.~.(.(.~.~.~.(.& X. .E  . .E y.X.X.X.X.o.E E E X.a.E E E E 6 6 6 O !.(.(.(.(._._.(._._._.u t W.Q.W.(.~./.i / / / / / / / / / / / / / / / / / / / / / / ",
"/ / / / / / / / / / / / / / / / / / / / g '._._._._.k /.(././.(./.!.(.(.~.(.).(.).'.& X. . . . . .h.X.X.X.o.o.r.E r.E y.E E E E 6 6 6 O !.^.(.(.(.(.R.W./._./.(.(.t (.(.(.(./.i / / / / / / / / / / / / / / / / / / / / / / ",
"/ / / / / / / / / / / / / / / / / / Z Z '.P W (._.k /././././.!.!.!.(.(.(./.(.'.'.j.% X. . . . .y.o.X.X.X.X.X.X.X.X.X.y.E E E E E 6 6 X ]./.^.^.^.W.W.E.^.^./.(.(./.r (./.P P '.d d / / / / / / / / / / / / / / / / / / / / ",
"/ / / / / / / / / / / / / / / / / Z '.'.^.].'.P j ^.(././.(.(.~.!.(.(.(.(.'.'.d.j.j.% X. .E  .t.7 7 7 8 y.y.u.y.y.u.y.E E E E E  .6 6 O R.].].Q.Q./.^.^.^.^./.(.(.^.^.t P [.[.^.[.'.f / / / / / / / / / / / / / / / / / / / ",
"/ / / / / / / / / / / / / / / / Z '.^./././.^.z /./.^.(./.~.!.(.).(.(.'.'.2.O.d.d.d.% X.w  . .t.T T T r.r.r.r.r.r.r.r.E E E E E 9  .6 O R.G.S.].]./.Q.^.^.Q.^.W.^.^.W./.t /.^.(.(./.[.d / / / / / / / / / / / / / / / / / / ",
"/ / / / / / / / / / / / / / / Z _././.^././.z _./././.(._.(.(._.(.(.].-.-.-.,.a.s.o $ X. . .y.9 T E r.r.r.r.r.r.r.r.r.E E E E 9 9 w 6 O R.D.G.F.G.].^.!.Q.^.^.^.^.W.^.^.^.t (.(./.(.I.).d / / / / / / / / / / / / / / / / / ",
"/ / / / / / / / / / / / / / / Z '.Q././.^.k (._././._._.(._.(.(.).].@.O.O.O.O.o o =.+ X.E u.r.r.r.r.r.r.r.r.r.r.r.r.r.E E E 9 9 9 9  .O N L.G.D.S.B.].^.^.^.^.^.W.^.^.^.W.^.t /./.^.Q.`.c / / / / / / / / / / / / / / / / / ",
"/ / / / / / / / / / / / / / f _.W.W.W.W.k (.(._._._._.(._._./._.'.R -.O.@.o o <.#.H.% X.y.r.r.r.r.r.r.r.r.2 2 2 y.y.y.u.E E 9 9 9 9 9 O W.k l D.G.B.B.]._._.^.^.^.W.^.W.^.W.(.t /.^.!.^.(.y / / / / / / / / / / / / / / / / ",
"/ / / / / / / / / / / / / / h /.W.W.W.W.z _._._._.(./.].'.(.].'.R R R } o s.s.C.Z.Z.O y.r.r.r.r.r.r.r.t.2 < < : , 2 4 6 r.y.y.9 9 9 9 O L.W.Q.a S.B.B.B.'._._._.^.W.I./.(.^.(.t /.I.!.!.).t / / / / / / / / / / / / / / / / ",
"/ / / / / / / / / / / / / e /.W.W.W.W.z _._.(._._._.'.'.].].'.R R R o o s.Z.Z.Z.C.C.O r.r.r.r.r.r.y.y.y.2 < : : , < 4 4 4 4 4 y.y.9 9 X U.K.K.W.l j B.B.N.'._._._.^.(.(.(.(.(._.A !.Q.!.!.!.y / / / / / / / / / / / / / / / ",
"/ / / / / / / / / Z Z Z Z Z Z Z Z Z Z M N P W R ].].].[.].].R R R o @.<.Z.Z.C.Z.C.H.O r.r.r.p.p.p.2 < 2 8 8 : : , 2 4 4 4 4 4 4 4 p.u.X G.K.D.U.W.W.z m.l.3.[._._._././.W W P W A A A A A A A A Z A A Z / / / / / / / / / / ",
"/ / / / / / / / Z '._._._.!.Q.^.^.^.W.I.W.E.I.E.P P s.;.;.].C C o @.=.Z.Z.C.C.C.C.C.O y.p.y.4 4 4 , 3 , , 2 8 : : , 4 4 4 4 4 4 4 4 o.  D.U.L.R.R.R.E.f f.6.].P P P I P (.(.(.(.(.!.!.(.!.).!.(.~./.~.[.D / / / / / / / / / ",
"/ / / / / / / Z ].'._.`./.^.^.!.^.^.^.I.W.E.^.Q.^.W.[.$.;.$.R o @.@.D.D.D.S.Z.C.V.W.. X.4 4 4 4 4 , , 2 2 = 3 8 : , 2 4 4 4 4 1 4 3 r.. U.L.K.R.R.I.R.W.r 4.f.].'._.'.'.^.^.^./././.!.(.).!.).!./.~.(.].D / / / / / / / / / ",
"/ / / / / / / G ]./.^.^.!.^./.!.^.^././.Q.^.^.^.^.Q.W.[.].$.o =.@.D.C.D.D.S.C.Z.H.@.. o.4 4 4 < 2 , , 2 , 4 , * : @ , < 4 4 , , 3 3 q . K.K.L.K.R.R.R.R.W.e s.]._.'.^.^.^.^./.^.!.!.).!.!.(.!.(.(.(.(.[.M Q Q / / / / / / / ",
"/ / / / / / / F ].Q.Q./././.^.!.^.Q.!.^.Q.^.^.Q.Q.^.W.Q.[.W o #.D.C.S.S.C.D.S.D.K.R . r.4 4 4 3 , , , 3 < - , - 0 = , , 4 4 , , , 3 w . Q.L.L.L.G.R.R.R.Q.y f.[.)./.Q./././.Q./.(.!.(.(.).!.~.).~.(.(.[.A Q Q Q / / / / / / ",
"/ / / / / / / G ].^./.^.~.~././././.!./.Q./.^.^.Q.^.W.[.h.e *.@.D.D.S.w.4.D.G.D.K.+.. ..3 4 4 , , < , , , * ; - , 7 , , , , , , , , w . <.L.K.U.L.R.R.R.I.I.t f.[./.Q./.!./.~././.~.(.!.!.(.~.~.(.!.~.[.A Q Q Q / / / / / / ",
"/ / / / / / / G ].^.(./././.n.n.g./././././.^./.^.^.Q.[.d.o #.=.D.D.D.U.E.1.K.G.K.3.. w , 4 4 , , , , , , 4 4 ; , * , < , , , , , , w . <.D.G.U.U.R.I.R.I.I.e g.[./.Q././.Q.).)./.(./.z.z.e.~.(.(.(.(.[.D Q Q Q / / / / / / ",
"/ / / / / / w.D ].(./.(./.3.].'.[.6./././././.^./.Q./.[.o $.#.G.D.D.D.D.D.Q.{ G.K.4.. w , , , , , , < , , , , 4 , 4 , , , , , , , , w   k.U.K.L.L.L.L.G.L.I.I.y }.I./.Q./.(.(.(.)./.(.f.'.[.).g.!.(.).[.D Q Q w./ / / / / / ",
"/ / / / / / / G ].(.(.(./.6.(.#.(.0.(./././.(./.(.'.`.[.e *.#.K.K.D.D.D.D.D.Q.{ +.4.. w , , , , , , , , > , , , , 3 > > , > 3 > , , q   j.U.D.U.L.L.U.L.L.L.L.r ].^.^././.(.(.).).(.(.9.).9.9.9.).).).[.G Q Q Q / / / / / / ",
"/ / / / / / / S ].(.(.(._.$.(.].(.$.(./.(.(.(./.(.`.'.].e @.@.U.L.U.D.D.U.U.^.w.s.8.. 8 , , , , , , , , > 3 , = = = 3 , , , , > , , q   k.U.U.L.L.L.L.L.I.L.I.r ].^./././.(./.).(.(.).%.(.'.'.$.`.).).[.M Q Q Q / / / / / / ",
"/ / / / / / / A ].(./.(._.'.I I W _.(._._.(._./.(.(.'.].e @.$.U.L.L.U.L.U.G.R.^.8.s.  q , , , , , , , , 3 > 3 3 3 * , , > > , > , 3 w   U.U.U.L.I.L.I.L.I.L.U.r ].(.(.(.(._.)./.(.)._.U G F _.].).).).[.' Q Q Q / / / / / / ",
"/ / / / / / / S ]._.)._.)._.].'.]._._._._.(._./.(.(.`.].e $.@.L.U.L.U.L.U.U.R.^.j.l.  q > , , > , , , , > = > = 5 * , , , 3 > > , 3 q   U.U.U.K.L.L.I.L.L.L.L.r ]._.(.(.(./.)._.(._._.'.'.'.).).`.`.).[.M Q Q Q / / / / / / ",
"/ / / / / / / S {.'.(.(._._._.)._.(._._._.).(.(.(.(.(.].r #.@.U.R.G.U.U.U.U.U.U./.j.  q > , > , , , , , 3 = > 3 > 3 3 > > , > , 3 3 q   E.U.U.U.I.L.L.L.L.L.U.e [.(./.(._.(._.(.(.'.`.`.`._.`._.`.`.`.}.M ! Q Q / / / / / / ",
"/ / / / / / / S ].].]._._._.).)._._._._._.(.).(.(.(._.].r $.@.U.U.U.U.U.U.U.U.R.R.l.  w > > , > , > > , > # = = , > > > > > > 3 3 3 q   R.U.U.U.L.G.G.L.S.F.D.e [.(.(.(./.(.(.(.`.`.`.'.'.'.'.'.`.`.).[.J Q Q Q / / / / / / ",
"/ / / / / / / Z {.'.'.(.`._.`._._._._._.).)._.(._._.(.].r *.@.U.U.U.R.W.W.W.R.U.U.l.  q 3 3 > , > , > > > 3 5 3 > , > > > > 3 3 < 5 *   R.R.R.L.L.L.L.L.S.S.S.e [.^.(._._._.'.'.'.`.`.`.`.`.`.T.`.`.`.[.M ! Q Q / / / / / / ",
"/ / / / / / / b }.'.'.'._._._.`.)._._._._._.(._.(.B j j p r @.R.R.I.W.W.W.W.E.R.R.m.  q 3 > > > , > > , > > , > > > > 3 > > > 3 5 @ ; . R.R.U.L.L.G.S.S.C.S.e I P P I _._._.'._.`.'.`.'.`.Y.K.Y.Y.`.'.[.M Q Q Q / / / / / / ",
"/ / / / / / / k {.{.}.{.{.].[.].{.].].[.I +.$.#.j.].'.'.'.o @.W.W.W.Q.W.W.W.W.R.R.M.  q 3 3 > > , > > , , > > > , > 3 3 3 > > 3 5 = ;   R.R.R.R.L.L.S.S.A.L.u _.'.`._.P W N >.>.>.6.].{.].}.].{.[.[.].[.F Q Q Q / / / / / / ",
"/ / / / / / / t L.G.I.G.N.B.N.b.N.B.m._ [.].'._.'./.!.!.~.^.k R.W.W.Q.W.Q.W.R.R.R.B.  q 3 3 3 , 3 3 , > , > , , , 3 3 3 3 > > 3 = ; ;   R.R.R.R.U.R.L.F.F.m W.W.I.Q.I.[.'.].>.>.>.L.h.h.b.v.N.N.m.m.b.G.r Q Q Q / / / / / / ",
"/ / / / / / / t L.G.b.N.N.l.b.b.N.b.m.G N ]././.^.(.^.^.!.!.!.V R.Q.W.Q.Q.W.R.R.R.Z.  q 3 3 3 3 3 3 > > > > > > > 3 3 3 3 3 5 = ; ;   C.R.R.R.R.R.R.R.R.b Q.W.W.I.Q.Q.I.^.I.'.S E.d.g.h.j.v.v.v.m.v.m.L.r Q Q Q / / / / / / ",
"/ / / / / / / r G.j.j.l.3.&.&.&.&.L D Z Z {.(./.(.(.^.^.!.!.^.'.C R.W.W.W.Q.E.R.R.x.B.                        .                     C.V.E.R.R.R.R.R.R.M P.W.W.^.!./.I.!.^.I.'.F &.` _ &.` ` ` @.m.v.m.D.r Q Q Q / / / / / / ",
"/ / / / / / / r L.h.h.t [.!.!.!.E.K.K.P.p a.]./.(.(.^./././._./.'.K E.W.Q.Q.E.R.R.m.B.C.l.l.l.k.k.k.f.k.l.k.c.k.8.8.8.8.3.6.1.1.4.C.C.C.E.R.R.E.R.R.m Z.G.K././.(.I.I.!.I.[.N.e L.W.Q._._._._.].u v.m.G.r Q Q Q / / / / / / ",
"/ / / / / / / r A.d.h.t `./.Q.Q.E.W.K.P.a @.{./.^.(././.(././.(.(.'.K E.W.Q.Q.E.R.~.^.V.V.C.C.C.V.C.C.C.C.C.H.C.H.C.V.H.C.C.H.V.C.A.M.^.R.R.R.R.R.H x.Z._.'./././.).^./.I.[.h.t L.W.Q./._._.(.'.r v.v.A.r Q Q / / / / / / / ",
"/ / / / / / / Q r r r r :.[.!.!.!.E.E.E.E.p ;.'.(.(./._./._.(.(.(.].].K K Q.Q.Q.Q.E.R.^./.^.^.^.^./.(./.^./././././.C.C.C.C././.^.^.^.R.E.R.R.m M M.z.`././.^.(.(././.(.[.R e K.!.Q.(././._.].j.r r o r Q Q / / / / / / / / ",
"/ / / / / / / / Q Q Q e :.`.!.!.!.!.W.E.W.a ;.3.'.(._./._./._.(.(.(.]././.K W.Q.Q.E.R.E.E.E.E.E.E.E.W.E.W.W.W.E.W.W././.Z.C.E.R.W.R.W.W.R.R.k /.(./.(.(./.(.(.(./.(./.'.W W e I.W.!.(././._.'.j.r Q Q Q Q / / / / / / / / / ",
"/ / / / / / / / / / / Q r :.'.!.^.Q.Q.^.I.W.z ;.N.[.(.(._.(.(.(.(.(.(.(.(./.M A W.W.W.!.W.W.W.I.W.W.E.E.E.E.W.W.W.E.E.E.(./.E.E.W.E.E.E.Z b _.(.(././._.(.(.(.(.(./.'.{ $.y K.I.Q.Q.(.(.~.~.{ i Q Q Q / / / / / / / / / / / ",
"/ / / / / / / / / / / / r :.d.].Q.Q.^.Q.W.W.I.h A.N.].].]._._.(._._.).(.(.(.(.(.v v v W.W.I.W.W.E.E.E.W.W.E.E.E.W.W.E.E.R.E.E.R.W.b b M _._.(.(._.(./._._.(._._._.'.$.R d K.K.K.Q.Q._.(.'.{ { o Q ~ / / / / / / / / / / / / ",
"/ / / / / / / / / / / / Q u v.'././.Q.^.Q.Q.Y h B.A.A.6.<.[._._._.(._._./.(.!.~./.!.W.v v I.I.W.E.E.W.E.E.E.E.W.E.E.E.E.E.E.R.W.f Q.)._._._._._._._._._._._.(.(.'.} $.} i r L.K.Q.(.(.(.'.{ i Q Q ! ( / / / / / / / / / / / ",
"/ / / / / / / / / / / / / r h.N.'./././.%.%.%.P d A.S.F.6.<.]._._._._._.(.!.(.(.!.!.W.W.W.G D H H H ' _ Y Y Y Y H Y H ' F R.W.m Q.Q./._._._.(._._._._._._.(.{.].-.-.+.s H.H.U I (.(.(.'.+.+.o ! Q ^ ( / / ) / / / / / / / / ",
"/ / / / / / / / / / / / / Q r N.N.'.>.%.'.]._.R C d P.A.H.P.[.(._._._._.)././.!.!.!.~.!.I.G `.)._.`.`.).).'.(.!.(./.~.(./.M M Q.!././._._._._._._._._._._.[.,.,.-.-.x H.H.L.E.E.{ C '.1.` o Q ! ! ^ / ( ( ^ / / / / / / / / ",
"/ / / / / / / / / / / / / / Q r N.P [.'.^.(.^.'.'.'.d A.J.J.J.[.]._.(.).).).(.(.(.!.~.~.e.).`.`.`.`.).).~.).(.~.(./././././.'.I /.(.)./._._._._._._.(.[.{.,.,.2.-.p H.I.E.Y.Y.I.Y.].x 4.o ! n ! ( / / ( ( ^ / / / / / / / / ",
"/ / / / / / / / / / / / / ) ) r A.C G.'._.^.(.(.!.Q.^.c c J.J.P.V.].]._.(.(.~.(.~.(.~.~.e.).~.).`.`.~.(.(.(.~.(.(./.~././.~.].I (.(././._._._._._.].].3.,.,.,.p k Q.I.W.!.W.E.E.(.{ a s.i ! ! ^ ( / / ^ ^ / / / / / / / / / ",
"/ / / / / / / / / / / / / / ) ! o R G.A.'._.(.(.Q.!.Q.^.).d J.P.C.V.C.[.[.[.(.(.(.(.(.[ '.).).~.).~.(.(.~.(.(.(.(.(.(.(./.(.(.'.U (.(._._._.[.].].s.a.3.,.,.z I.E.W.Q.W.W.W.W./.{ R a e ~ & ( ^ ^ / / / / / / / / / / / / / ",
"/ / / / / / / / / / / / / / ^ ( ! r G.A.A.'.(.(.^.^._.(./.).f f A.V.V.M.M.x.].[.{.(.(.[ ].).~.).~.).).).).~.~.(.(.(.(./.(.(.!.[._ ~.~.].[.[.1.1.3.3.<.,.a g E.Y.Q.W.Q.W.W.W.).W R R o Q Q / / / / / / / / / / / / / / / / / ",
"/ / / / / / / / / / / / / ) ( ^ ( ! a A.A.V.'.'.(.(.(._._.).'.'.h h V.M.M.x.l.k.w.{.[.[ ].~.).).).).).).H.).).(.H.!./.(.(.~.!.[.' '.].w.w.w.1.<.,.3.j z Y.E.I.I.W.Q.W.W.).).R C { a Q Q / / / / / / / / / / / / / / / / / / ",
"/ / / / / / / / / / / / / ^ ( ( ^ ( Q r V.V.A.S.'.(.(._._._.'.'.0.).f r M.x.c.k.w.k.q.H ].).).).).).).).].H.H.H.].(.(.(.(.~.(.[._ _ 7.w.7.1.1.<.m l /.P (.E.I.!.W.Q.W.Q.} } R R o Q Q / / / / / / / / / / / / / / / / / / / ",
"/ / / / / / / / / / / / / / ^ ( ^ ^ / Q r A.A.V.A.'.'._.'.'.'.0.).(./.(.e t t w.w.w.q.Y '.`.`.).).).).).e.].[.[.c.).).).).(.(.[._ H 7.7.1.r r e (._.).`.n./.W.W.W.~.).#.} R R o Q Q / / / / / / / / / / / / / / / / / / / / ",
"/ / / / / / / / / / / / / / / / / / / / Q e e A.A.A.B.[.].].q._././.^.~.Q.Q.W.t t t y Y [.].).'.).).).`.[.q.%.%.[.).).).).(.(.[.' e e e r W.Q.W._.(._._._.M.W._._.:.-.-.| o o Q Q / / / / / / / / / / / / / / / / / / / / / ",
"/ / / / / / / / / / / / / / / / / / / / / Q Q e A.B.V.B.B.P [./././.^./.~.Q.E.R.W.Y.E.Y [.).).'.`.'.).).H [.[.].&.).).).).).).[._ x.x.~.~.~.W.W.(._._.(./.].].f.-.-.-.-.o Q Q / / / / / / / / / / / / / / / / / / / / / / / ",
"/ / / / / / / / / / / / / / / / / / / / / / / Q e e B.B.B.P R.].].]././.~.Q.Q.E.Y.W.T.H [.).'.'.'.'.'.'.[.).`.).[.).).).).).).[.U l.l.^.~.!.(.(.(.(.'.'.'.} l h.-.O.o o Q / / / / / / / / / / / / / / / / / / / / / / / / / ",
"/ / / / / / / / / / / / / / / / / / / / / / / / Q Q e r N.C R.N.N.N.].].].[.Q.Y.I.W.I.H }.).'.'.).'.).).`.`.`.).).).).).).).).[.H l.l.!.!.!.'.].'.].@.+.} R l d.o o Q Q / / / / / / / / / / / / / / / / / / / / / / / / / / ",
"/ / / / / / / / / / / / / / / / / / / / / / / / / / Q Q e e I.N.N.b.v.v.h.d.`.'.].'.'.G {.{.{.{.{.{.[.[.'.].].].'.'.[.].].}.{.{.J H.Z.'.].].=.=.*.+.+.+.+.{ o o Q Q / / / / / / / / / / / / / / / / / / / / / / / / / / / / ",
"/ / / / / / / / / / / / / / / / / / / / / / / / / / / / Q Q e e N.b.v.v.v.d.d.d.s.,.;.t L.L.I.A.V.V.B.V.V.B.B.B.B.m.l.L.L.L.K.F.p V F =.=.=.=.=.*.*.+.+.o o Q Q / / / / / / / / / / / / / / / / / / / / / / / / / / / / / / ",
"/ / / / / / / / / / / / / / / / / / / / / / / / / / / / / / Q Q e e b.d.j.d.d.d.5.,.#.r L.L.B.B.V.B.B.V.B.B.B.N.b.j.j.v.j.j.F.F.o B V =.=.*.=.=.+.*.o o Q ! ) / / / / / / / / / / / / / / / / / / / / / / / / / / / / / / / ",
"/ / / / / / / / / / / / / / / / / / / / / / / / / / / / / / / / Q Q e e e e d.a.5.,.#.e L.B.B.B.B.B.N.n.n.b.b.l.v.v.j.v.j.j.j.F.o B F =.=.*.o o o o Q Q / / ) ( ( / / / ) ) / / / / / / / / / / / / / / / / / / / / / / / / ",
"/ / / / / / / / / / / / / / / / / / / / / / / / / / / / / / / / / / Q Q Q Q e e e e e e G.B.B.B.v.j.j.d.d.d.j.v.v.v.j.j.j.j.j.F.o o o o o o Q Q Q Q / / / / ^ ( ( / / ( ) / / / / / / / / / / / / / / / / / / / / / / / / / ",
"/ / / / / / / / / / / / / / / / / / / / / / / / / / / / / / / / / / / / / / Q Q Q Q Q e G.m.m.,.=.<.a.j.d.d.d.d.j.j.d.j.j.d.a.S.o Q Q Q Q Q / / / / / / / / / ^ ^ / ( ( ( / / / / / / / / / / / / / / / / / / / / / / / / / ",
"/ / / / / / / / / / / / / / / / / / / / / / / / / / / / / / / / / / / / / / / / / / / e F.<.#.=.=.@.j.a.d.a.a.d.d.d.a.5.u.5.a.S.o Q Q / / / / / / / / / / / / / / / ( ( ^ / / / / / / / / / / / / / / / / / / / / / / / / / ",
"/ / / / / / / / / / / / / / / / / / / / / / / / / / / / / / / / / / / / / / / / / / / Q o o o o o o o o o o o o o o o o o o o o Q Q / / / / / / / / / / / / / / / / ^ ^ / / / / / / / / / / / / / / / / / / / / / / / / / / ",
"/ / / / / / / / / / / / / / / / / / / / / / / / / / / / / / / / / / / / / / / / / / / / Q Q Q Q Q Q Q Q Q Q Q Q Q Q Q Q Q Q Q Q Q / / / / / / / / / / / / / / / / / / / / / / / / / / / / / / / / / / / / / / / / / / / / / "
};
