/* XPM */
static char *Smoke_3[] = {
/* columns rows colors chars-per-pixel */
"110 73 183 2 ",
"   c #4F2913",
".  c #512B14",
"X  c #5A361D",
"o  c #7D3515",
"O  c #5C3A23",
"+  c #5F3F28",
"@  c #56493F",
"#  c #55473E",
"$  c #5E4029",
"%  c #61412A",
"&  c #654934",
"*  c #5A4E43",
"=  c #574A40",
"-  c #5C5146",
";  c #5D5349",
":  c #62594B",
">  c #676159",
",  c #6A635B",
"<  c #6F695A",
"1  c #736C5E",
"2  c #70675B",
"3  c #6E6960",
"4  c #726C63",
"5  c #736F68",
"6  c #777166",
"7  c #797266",
"8  c #7A746A",
"9  c #7E796D",
"0  c #767168",
"q  c #797770",
"w  c #7A7870",
"e  c #823716",
"r  c #843917",
"t  c #883B17",
"y  c #893C19",
"u  c #863C1C",
"i  c #8C421E",
"p  c #8D4927",
"a  c #8D4C2B",
"s  c #894523",
"d  c #924521",
"f  c #974C27",
"g  c #94512C",
"h  c #99532D",
"j  c #945937",
"k  c #9D5A35",
"l  c #935B3B",
"z  c #955633",
"x  c #8E5231",
"c  c #A1522A",
"v  c #A15D36",
"b  c #A15E39",
"n  c #817F20",
"m  c #9C613B",
"M  c #A2633B",
"N  c #9D6642",
"B  c #9C6A46",
"V  c #9F7149",
"C  c #9A7A5D",
"Z  c #A56A43",
"A  c #A96E43",
"S  c #A66B47",
"D  c #AA7046",
"F  c #A4714A",
"G  c #AB744B",
"H  c #AF794E",
"J  c #A77047",
"K  c #A97750",
"L  c #AE7C53",
"P  c #A2765B",
"I  c #A57A5D",
"U  c #A87B57",
"Y  c #B27F56",
"T  c #807B6F",
"R  c #9C7E63",
"E  c #837E72",
"W  c #A97F62",
"Q  c #8F8824",
"!  c #948D29",
"~  c #99912E",
"^  c #ACB828",
"/  c #C1C52D",
"(  c #C9CD35",
")  c #D1D43D",
"_  c #AE8259",
"`  c #AF8A5E",
"'  c #B38256",
"]  c #B28359",
"[  c #B4885C",
"{  c #9D8265",
"}  c #9E8469",
"|  c #9F886C",
" . c #868175",
".. c #888477",
"X. c #8A867A",
"o. c #88857D",
"O. c #9F8C73",
"+. c #A18564",
"@. c #A68C6A",
"#. c #AA8C6A",
"$. c #A68667",
"%. c #B38B69",
"&. c #B48D66",
"*. c #A79068",
"=. c #AB926C",
"-. c #A28C73",
";. c #AA8D70",
":. c #A28E79",
">. c #B18E71",
",. c #A69176",
"<. c #AB9474",
"1. c #AD9977",
"2. c #A3907A",
"3. c #AA957B",
"4. c #AE9A7C",
"5. c #A79A7F",
"6. c #B29276",
"7. c #B39C75",
"8. c #B39E7C",
"9. c #B99B7C",
"0. c #B69777",
"q. c #B59068",
"w. c #B0A079",
"e. c #C29F75",
"r. c #918D82",
"t. c #949187",
"y. c #99968D",
"u. c #9C998E",
"i. c #959289",
"p. c #9B9890",
"a. c #A69983",
"s. c #AB9C84",
"d. c #AB9E89",
"f. c #B49E84",
"g. c #B89F88",
"h. c #AB9F90",
"j. c #AEA28D",
"k. c #B4A284",
"l. c #B5A58A",
"z. c #BBA68A",
"x. c #B9A98D",
"c. c #BAA484",
"v. c #AFA391",
"b. c #B1A694",
"n. c #BAA690",
"m. c #B3A996",
"M. c #BCAD94",
"N. c #B2A798",
"B. c #B5AB9B",
"V. c #B9AF9B",
"C. c #BDB19A",
"Z. c #BEB196",
"A. c #B8AFA2",
"S. c #BDB5A3",
"D. c #BEB8A5",
"F. c #BFB6A9",
"G. c #BFB8AA",
"H. c #C2B49C",
"J. c #C3B89F",
"K. c #C3BAA6",
"L. c #C3BDAC",
"P. c #C1B6A3",
"I. c #C5BFB1",
"U. c #C4C0AF",
"Y. c #CAC1AD",
"T. c #DBC7A2",
"R. c #C6C3B3",
"E. c #CAC5B5",
"W. c #CCC7B9",
"Q. c #CECABC",
"!. c #D0CDBE",
"~. c #D2D0BF",
"^. c #CFCDC1",
"/. c #D1CEC1",
"(. c #D4D1C5",
"). c #D8D5C7",
"_. c #D6D3C9",
"`. c #D8D6CA",
"'. c #DAD8CE",
"]. c #DDDCD3",
"[. c #E0DED6",
"{. c #E1DFD8",
"}. c #E2E1DA",
/* pixels */
"/ / / / / / / / / / / / / / / / / / / / / / / / / / / / / / / / / / / / / / / / / / / / Y Y Y Y Y ' ] ] ' ' ] ' ' ' H H H G D / / / / / / / / / / / / / / / / / / / / / / / / / / / / / / / / / / / / / / / / / / / / / / / ",
"/ / / / / / / / / / / / / / / / / / / / / / / / / / / / / / / / / / / / / / / / / / / A (.!.W.!.W.W.(.(.).(.(.(.(.(.(.).(.!.W.G Q Q / / / / / / / / / / / / / / / / / / / / / / / / / / / / / / / / / / / / / / / / / / / / ",
"/ / / / / / / / / / / / / / / / / / / / / / / / / / / / / / / / / / / / / / / / / / / G `.!./.(.(._.(.(.(.(.(.).(.(.(.(.).!.W.E.F Q Q / / / / / / / / / / / / / / / / / / / / / / / / / / / / / / / / / / / / / / / / / / / ",
"/ / / / / / / / / / / / / / / / / / / / / / / / / / / / / / / / / / / / / / / / / / / D '.(._.(.(.(.(._.k.9.f.f.f.).).(.(.).).W.G Q Q / / / / / / / / / / / / / / / / / / / / / / / / / / / / / / / / / / / / / / / / / / / ",
"/ / / / / / / / / / / / / / / / / / / / / / / / / / / / / / / / / / / / / / / / / / / D '.(.(.(.(.`.(.).{.{.{.[.f.).).).).).(.'.G Q Q / / / / / / / / / / / / / / / / / / / / / / / / / / / / / / / / / / / / / / / / / / / ",
"/ / / / / / / / / / / / / / / / / / / / / / / / / / / / / / / / / / / / / / k k k v M G '.(.).(.).(.).).f.f.f.f.f.).).).(.(.).].G r r k k k / / / / / / / / / / / / / / / / / / / / / / / / / / / / / / / / / / / / / / / / ",
"/ / / / / / / / / / / / / / / / / / / / / / / / / / / / / / / / / / / S J J W.Q.Q.Q.!.D '._.(._.(.).(.+ % % % + + % ).).~.).).].G x.M.W.W.Q.k k k / / / / / / / / / / / / / / / / / / / / / / / / / / / / / / / / / / / / / ",
"/ / / / / / / / / / / / / / / / / / / / / / / / / / / / / / / / J G G /./.W.Q.Q.!.!.!.D '.(.(.).(.`.O 7 7 7 7 7 6 6 X X X ).).].H x.x.W.Q.W.Q.^.(.k M M / / / / ) / / / / / / / / / / / / / / / / / / / / / / / / / / / / / ",
"/ / / / / / / / / / / / / / / / / / / / / / / / / / / / / / / L /.(.(.(.(.Q.v k v v v A '.(.).).).O 7 7 7 7 7 T 6  ...E ..X X X H m m v M k (.(.(.!./.(.M / / / ( ( / / / / / / / / / / / / / / / / / / / / / / / / / / / / ",
"/ / / / / T.T.T.w./ / / / w.w./ / / / / / / / / / / / / L L L (././.(.^.k k (.).).).).D ).$ $ O O 8 7 7 7 7 7 E  . .E ..E ..y.a.X (._.(.(._.h M /.(.(.(.M / / / / / / / / / / / / / / / / / / w.w./ / / / w.T.T.T./ / / / / ",
"/ / / / T.T.T.T.T.w./ / w.w.w.w./ / / / / / / / / / S S (.(.[.<./.(.k k !.~.~.~.~.(.).A X 2 1 1 1 1 7 9 7 7 X.......E E E y.0 0 6 X (.(.(.(.(._.M D ~.(.Y M M M M / / / / / / / / / / / / / w.w.w.w./ / w.T.T.T.T.T./ / / / ",
"/ / / / T.T.T.T.T.w.w.w.w.w.w.w./ / / / / w.w./ J J `.`.^.(./.].k k I.I.~.~.!.~.~.(.).O < 1 1 1 4 1 7 7 ..X.E X. .......E y.7 7 6 6 X (.(.(._.(.(._.D H }.Y.E.U.Y.M M M / / / w.w./ / / / / w.w.w.w.w.w.w.T.T.T.T.T./ / / / ",
"/ / / / w.T.T.T.w.w./ / / w.w./ / / / / w.w.8.s._.'./.(.(./.k k /.I.Y.I.(.!.~.~.~.!.& X. .1 1 1 1 7 X.X.X.....E X.E o.E a.E E 5 6 6 6 X (._._.(._._._.).m h E.Y.Y.Y.Q.Q.M / w.w.w.w./ / / / / w.w./ / / w.w.T.T.T.w./ / / / ",
"/ / / / / w.w.w.4./ / / / / / / / / / / w.w.k '._./.(.(./.k !.(././.!.Y.~.(.~.(.~.~.& X. . .T  ...a.X.E E X.X.X.X.X.X.E p.E E 0 6 6 6 O ^.(.(.(.(._._._._.(.t Q.~.Q.Q.W.Q.f g / w.w./ / / / / / / / / / / w.w.w.w./ / / / / ",
"/ / / / / w.w.w./ / / / / / / / / / / / k '.]._._._.(.k k (./.(./.!./.(.(.(.~.~.~.(.& X.T  . . . .p.X.X.X...X.X.X.E r.y.E E E E 0 6 6 O /.(.(.(.(.(.(._._._._.u t Q.Q.W.(.!./.i / / / / / / / / / / / / / / w.w.w./ / / / / ",
"/ / w.T.w./ / / / / / / / / / / / / / / g '._._._._.k /.!.(./.~././.(.(.~.(.).).).`.& X. . . . . .a.X.X.X.X.X.X.X.o.E y.E E E E 0 6 6 O ^.^.(.(.(.(.E.E.(.(./.(.(.t (.(.(././.i / / / / / / / / / / / / / / / / / w.T.w./ / ",
"/ T.T.T.w./ / / / / / / / / / / / / Z Z '.P P _._.k /.^./.(./.!.~.!.~.(.(.(.(.'.`.j.& X. . . . .y.o.o.X.X.X.X.X.X.X.X.p.E E E E  .6 6 O ].Q.^.^.^.W.E.W.^.^./.(.(.^.t (.^.W P '.d d / / / / / / / / / / / / / / / w.T.T.T./ ",
"/ T.T.T.w./ / / / / / / / / / / / Z '.'.^.].].P k ^./.(.^.(.(.~.!.(.(.(.(.].'.d.j.j.% X. .T  .t.8 0 8 7 y.y.p.u.y.y.y.E E E E E E 6 6 O R.].].^.Q./.Q.^.^.^./.(.(.^.^.t P '.[./.[.'.f / / / / / / / / / / / / / / w.T.T.T./ ",
"/ w.w.w./ / / / / / / / / / / / Z '.^.^./.^.^.z ^./.^./.!.(.Q.(._.(.(.'.'.:.2.a.a.d.$ X.T  . .t.T T T r.r.r.r.r.r.r.r.E E E E T 9 E 6 O R.D.S.].].^.^.!.^.Q.^.^.^.^.W./.t /./.(././.[.d / / / / / / / / / / / / / / w.w.w./ ",
"/ / w.w./ / / / / / / / / / / Z _.^.^./././.k _./.^.(._._.(._.(.(.(.].-.-.-.2.w.a.e $ X.E  .y. .T T r.r.r.r.r.r.r.r.r.E E E E 9 9  .6 O R.F.w.F.G.].!.^.^.^.W.^.^.W.^.^.^.t (.(./.(.I.'.d / / / / / / / / / / / / / w.w./ / ",
"/ / / / / / / / / / / / / / / Z '.Q././.Q.k _._././._._._._._./.(.'.@.-.O.O.-.o o #.% o. .y.r.X.r.r.r.r.r.r.r.r.r.r.r.E E E 9 9 9 9 w O N L.G.S.D.B.].^.^.^.^.W.W.W.^.^.(.^.t /././.Q.`.c / / / / / / / / / / / / / / / / / ",
"/ / / / / / / / / / / / / / f _.W.W.W.W.z _._._._._._.(.(._./.(.[.R | O.| o o *.=.H.% X.y.r.r.r.r.r.r.r.r.2 2 2 y.y.y.u.E E 9 9 9 9 9 O W.l k D.D.N.A.]._.(.W.^.^.^.^.W.I.^./.t /.^.Q.^./.t / / / / / / / / / / / / / / / / ",
"/ / / / / / / / / / / / / / h (.W.W.W.W.z _._._._._./.[.'.(.'.].R { { } o k.5.C.Z.Z.O y.r.r.r.r.r.r.r.r.2 2 < : < < 4 1 i.y.y.9 9 9 9 O L.Q.W.g G.B.B.B.'._._._.^.W.I./.(./.(.t Q.Q./.Q.).t / / / / / / / / / / / / / / / / ",
"/ / / / / / / / / / / / / e /.W.W.W.W.k _._./.(._./.'._.[.[.'.R R R o o s.C.Z.C.Z.H.% X.r.r.r.r.r.u.u.y.2 2 : : < , 4 4 4 4 4 y.y.9 9 O K.K.L.W.l j B.N.N.].'._._.^./._./.(.(.(.A Q.!.!.!.!.y / / / / / / / / / / / / / / / ",
"/ / / / / / / / / Z Z Z Z Z Z Z Z Z Z Z B P P W ].'.].].].].R R R o *.<.C.C.C.C.C.H.O r.r.r.p.p.p.2 , 2 7 9 : : , , 6 4 4 4 4 1 4 p.p.O G.D.L.L.W.W.x B.l.4.].'._._._./.W W P W A A A A A A A A M A A A / / / / / / / / / / ",
"/ / / / / T.T./ M ]._._._./.Q.^.!.!.W.I.E.E.W.E.C P s.;.;.].C C o @.=.Z.Z.C.Z.C.C.C.O p.p.y.4 4 4 , 4 , , , q : : 2 4 4 4 4 4 4 4 4  .. U.L.D.R.R.U.E.f s.6.].P P P P P (.(._.(.(.!.!.(.!.(./.!.(.(.~.].D / / T.T./ / / / / ",
"/ / / / / T.T.w.].'.`.`./.Q.Q././.W.W.W.W.E./.Q.^.W.[.#.;.$.R o @.*.S.S.D.C.C.C.C.W.. r.4 4 4 4 4 , , 2 2 = 2 8 : , , 4 4 4 4 4 4 3 r.. K.U.K.E.R.R.R.W.r 8.d.[.'.'._.`.Q./.^.^.!.(.!.(.(.(.~.(.(.~.(.].D / w.T.T./ / / / / ",
"/ / / / / w.w.G ].^.^.^.^././.!.^.^.^.^.^.Q.^.^.^.^.W.[.].$.o =.@.S.S.S.S.S.Z.Z.C.@.. X.4 4 4 < , 2 , 2 , 4 , - : = , , 4 4 , , 3 3 q . U.D.D.K.R.R.R.I.W.e 6.{._.'.^.^./.!./.^.!.!.(.(.(.~.(.~.~.(.(.[.M Q Q w.w./ / / / / ",
"/ / / / / / / F ].^./.!./.!./.^./.Q.^.^.^.^.Q.Q.Q.Q.!.W.].$.o =.S.D.C.S.S.D.S.D.D.{ . X.4 4 4 , , 2 , , , - , - 0 = , 2 1 4 , , , 3 w . ^.L.L.G.K.R.R.R.Q.y f.{.).!./.Q./.!./.!././.(.!.(.~.~.(.(.~./.{.A Q Q Q / / / / / / ",
"/ / / / / / / G ].^.^./././.^.^././.^.^.Q.^.^.^.^.^.W.[.h.e @.#.D.D.D.4.w.D.G.D.K.{ . X.4 4 4 , , , , 2 , * : * , 8 , , , , , , , , w . <.K.L.U.I.R.R.R.I.I.e d.[./.Q./.^./.!./././.(.(.~.(.(.~.!.(.~.[.D Q Q Q / / / / / / ",
"/ / / / / / / G '.(./././.(.n.n.g./.(.^./.^.^.^.Q.Q.!.[.d.o ;.*.D.D.D.U.E.1.K.G.K.3.. w , 3 3 3 , , , , , 4 4 - , * , , , , , , , , w . =.G.L.U.U.R.L.R.I.I.t g.[./.!././.Q.(.)./.(._.g.z.e.).~.(.).!.{.D Q Q Q / / / / / / ",
"/ / / / / / / D ].(./.(.(.<.'.'.'.6././.(.^.(.^./././.'.e $.@.F.K.C.D.D.D.Q.{ G.L.4.. w , , , 2 , , , 2 , , , 4 , 4 , , , , , , , , w   k.U.L.K.L.L.L.G.L.L.I.y {.I./.Q./.(.(.).(.(.(.e.'.[.~.g.(./.(.}.D Q Q Q / / / / / / ",
"/ / / / / / / D ].(./._./.6.(.#./.0./.(.(././././.'.'.].r @.*.L.L.D.D.D.D.D.Q.{ +.4.. w , , , , , , , , , , , , , , , , , , 3 > , , q   l.U.D.U.U.L.L.L.I.L.L.e ].^.!././._.(.(.).(.).9.(.9.9.9.).).).[.J Q Q Q / / / / / / ",
"/ / / / / / / A ].(.(./.(.#./.].(.$.(.(.(./._./.(.'.'.].r $.$.L.L.U.D.D.U.L.^.w.4.4.. w , , , > , , , , > > , = = * 3 > > , , > > , q   l.K.U.U.L.L.U.L.L.L.I.e ]././.(././.(.(.(.(.).%.(.'.'.$.).).).[.D Q Q Q / / / / / / ",
"/ / / / / / / J ].8.8./._.'.I I W '.(._._.(._.(.(.(.`.].r @.#.L.L.U.L.U.U.U.R.^.4.f.  q , , , , , , , , > 3 3 4 5 * 3 , , , , > , 3 w   U.U.L.L.I.L.L.L.L.I.I.r ]./.(./._.(.(.).).(.).U G S _.].`.).).w.w.Q Q Q / / / / / / ",
"/ / / / / / / Z w.w.8._._._.'.].].(._.(.(._.(.(.(.(.`.].e @.@.L.U.L.U.L.U.U.U./.j.k.  q > , , , , , , , > = > = 3 * > > > , , > , 3 w . L.U.U.L.L.L.I.L.I.L.L.r ]._.(._.(.(._.(.(.(.`.'.'.].`.`.`.`.).w.w.w.Q Q / / / / / / ",
"/ / / / / / / J w.4._._._.)._.).(._._._.`.(.(.(.(.(.(.].r @.@.U.U.U.U.U.G.U.U.U./.l.  q , > > , , , > , , = > 3 > 3 3 > > , > > 3 3 w   R.R.U.U.I.G.L.L.I.L.L.r [.(.(.(.(._.(.(._.`.`.`.`.`.`.'.`.`.`.[.w.w.Q Q / / / / / / ",
"/ / / / / / / J ].].'._.)._.).)._._._._.(._.(._.(.(._.].r $.#.L.G.U.U.U.R.U.U.R.R.v.  q > > , > , > > > > = = = > > > > , > 3 3 3 3 w . R.U.U.U.L.L.L.K.S.S.S.r [.(.(.(.(.(.(.(.`.'.`.'.`.`.'.).'.`.`.[.J Q Q Q / / / / / / ",
"/ / / / / / / M }.'.'._._._._.`.`._._._.`.(.(._.(._._.].r #.$.R.U.I.R.W.W.W.R.U.R.l.  q 3 , > > > > , 3 > 5 5 3 , > > > , > > 3 3 5 @ . R.R.U.L.L.U.L.L.S.S.C.r '.(.(._._.`.`.`.`.`.`.'.`.`.'.Y.`.`.`.[.M Q Q Q / / / / / / ",
"/ / / / / / / M }.'.'.'.`._._.(.(._.(._.(._._.(._.B j j p r *.R.R.I.W.W.W.W.E.R.E.m.  q 3 > > > > , > > > > > > > , 3 > > > > 3 5 @ ; . R.R.R.L.G.G.S.S.S.S.r C P P P _.`.`.`.`.`.`.`.`.'.Y.Y.Y.Y.`.'.[.J Q Q Q / / / / / / ",
"/ / / / / / / k {.}.}.{.4.w.].[.{.[.].].I +.$.%.j.'.'.'.'.o *.Q.Q.W.W.W.Q.W.Q.R.R.m.  q 3 3 > > , > > , , > > > > 3 3 3 3 > > 3 5 = ;   R.R.R.R.K.L.S.S.F.G.r `._.'._.P P N >.>.>.6.].{.[.[.[.].w.w.[.[.V Q Q Q / / / / / / ",
"/ / / / / / / t G.L.G.I.w.w.B.m.m.B.B._ [.]._.'.].^.^.^.!./.z R.W.Q.W.W.W.W.R.R.R.Z.  8 3 3 3 3 3 3 , > > , > > > 3 3 3 3 > > 3 @ ; ;   E.R.R.R.E.R.U.S.S.m Q.Q.I.^.I.'.'.'.>.>.>.I.h.h.v.b.v.m.w.w.m.G.r Q Q Q / / / / / / ",
"/ / / / / / / t L.G.b.b.b.b.w.b.b.b.b.G B ]./.(././.^.^.!.~.!.V R.W.W.W.W.Q.R.R.R.Z.  q 3 3 < 3 3 3 > > > > > > > 3 3 3 3 3 4 = - ;   C.R.R.R.R.R.R.R.R.M E.W.W./.I./.I.I.^.'.S E.d.g.h.j.j.v.4.b.b.b.G.r Q Q Q / / / / / / ",
"/ / / / / / / r G.j.v.v.<.&.&.w.&.Y J Z Z ].(./.(././.^.!.!.!.'.{ W.W.W.W.Q.R.R.R.m.Z.                    .                         C.V.R.R.R.R.E.U.R.M K.W.W.W.Q./.I./.^.W.'.F &.` _ &.` ` w.*.b.b.b.D.r Q Q Q / / / / / / ",
"/ / / / / / / r L.d.v.y '.!.!.!.W.7.8.K.s a.]./.(.^.(.^././.(.(.`.K E.Q.W.Q.W.R.R.M.V.V.l.l.l.k.k.k.k.k.l.k.k.k.8.8.8.8.3.1.<.<.s.C.C.C.E.R.R.R.R.R.m Z.G.F.^./.(.I.I.I./.[.N.e K.Q.!.w.w._._.].r N.v.G.r Q Q Q / / / / / / ",
"/ / / / / / / r A.v.d.r './.Q.!.E.W.K.K.x $.].(.^.(.^._.(././.(.(.'.K E.W.Q.Q.W.R.!.^.V.V.Z.C.C.C.C.C.C.C.C.H.H.H.H.V.C.C.C.C.C.C.B.M.^.R.R.R.E.R.K x.Z._.'.(.^./.)././.I.'.h.e K.Q.Q./.(._.(.'.r v.v.A.r Q Q / / / / / / / ",
"/ / / / / / / Q r r e e 2.'.!.Q.!.E.E.E.W.p ;.].(.(.(.(.(.(.(.(.(.].'.U K W.W.W.Q.R.R.^.^.^.^./.^.^././.^.(././.^./.H.C.C.C././.^.(.^.R.R.R.R.m M M.z.`.^.(.^.(.(.Q././.[.W e L.Q.Q.(.(.(._.'.v.r r r r Q Q / / / / / / / / ",
"/ / / / / / / / Q Q Q e :.].!.Q.!.!.E.E.E.a ;.,.'.(.(.(.(.(.(.(.(.(.'.(./.U Q.W.Q.R.R.W.R.W.W.R.W.E.W.W.E.W.W.E.W.W././.C.C.R.W.W.R.W.W.R.E.k (./././.(.(.(.(.(.(.(.(.'.W W e I.Q.Q././.^._.'.v.r Q Q Q Q / / / / / / / / / ",
"/ / / / / / / / / / / Q r -.].Q.^.Q.^.^.I.W.z >.N.].(.(._.(._.(.(._.(.(.(.(.M Z W.W.W.!.E.W.E.E.E.E.W.E.E.E.W.W.E.E.W.E././.R.E.E.E.E.E.Z b (._.(././._.(.(.(.(.(.(.'.R $.t K.I.Q.Q.(.(.~.~.+.i Q Q Q / / / / / / / / / / / ",
"/ / / / / / / / / / / / r 2.v.'.Q.Q.Q.Q.W.W.I.h A.N.].].]._.(._._.(._.(.~.(.(.(.b v v W.W.I.E.W.E.W.E.W.W.E.E.E.W.E.E.E.E.E.W.R.E.b b M _._._.(._./.(.(._._._.(.(.'.$.} d K.Y.K.Q.Q._.(.'.{ { o Q ~ / / / / / / / / / / / / ",
"/ / / / / / / / / / / / Q u v.'././.^.^.Q.Q.Y h B.V.A.3.1.]._._._.(._.w.w.(.(.!./.!.W.v b R.I.W.E.E.W.E.E.E.E.E.W.E.E.E.W.R.R.W.h Q.(._._._.(._._.w.w._._.(.(.(.'.| $.} i e K.K.Q.(.(.(.'.+.i Q Q ! ( / / / / / / / / / / / ",
"/ / / / / / / / / / / / / e v.v.'.^.^./.%.%.%.P d A.S.F.<.6.]._._._._._.(.!.w.w.!.!.W.W.W.G G H H H ' ' Y Y Y Y Y H H ' F R.W.m Q.Q.(._._._.8.4._._._._._._.].].-.O.$.p x.H.I U (.(.(.`.{ +.o ! Q ^ ( / / ) / / / / / / / / ",
"/ / / / / / / / / / / / / Q r N.N.'.%.%.].'.'.R P d A.P.P.J.[.(._.(._._.(.(./.~.!.!.~.!.W.D `.)._._.'.).`.`./.).(./.(././.m M !.!././._._._._._._._._._._.[.,.,.-.;.x M.H.I.Y.E.{ C '.1.+.o ! Q ! ^ / ( ( ^ / / / / / / / / ",
"/ / / / / / / / / / / / / / Q e N.C {.'.^.(.^.'.'.'.d S.J.J.J.[.]._._._.(.).(.(./.!.~.~.e.).).).`.`.).).).~.(./.(.(.!.(././.'.I /./.(.(._._._._.(._._.].].,.,.2.-.p H.I.E.Y.E.I.Y.].x 4.o ! Q Q ( / / ( ( ^ / / / / / / / / ",
"/ / / / / / / / / / / / / ) ) r B.W G.'.(.(./.(.^.W./.c c P.P.J.V.].]._.).(.(.(.~.(.(.!.e.).).~.`.).(.~.~.(.(././.(.(.Q.(.^.'._ /.(.(.(._._._._.'.[.].3.3.,.,.p k Q.W.W.W.W.R.E.(.R a s.i ! ! ^ ( / / ^ ^ / / / / / / / / / ",
"/ / / / / / / / / / / / / / ) ! e R G.A.'.^.(.(.^.^./.W./.d J.P.A.C.C.].[.[.~./.).(.(.[ '.(.(.~.(.(.(.(.).~.~.).!.(.(.(.^.(./.'._ !.(._._._.[.].].a.3.3.3.,.x E.E.Q.W.W.W.!.W.(.{ R a e ~ & ( ^ ^ / / / / / / / / / / / / / ",
"/ / / / / / / / / / / / / / ^ ( ! r I.A.B.].(.(.^.^.(.(.(.(.f f C.V.V.M.M.x.].[.{.).(.[ '.).(.).).(.).).(.).(.(.(.(.(.!.).!./.[._ ~.~.}.].}.1.3.3.3.<.2.p h I.E.Q.W.W.W.W.W.(.W { R o Q Q / / / / / / / / / / / / / / / / / ",
"/ / / / / / / / / / / / / ) ( ^ ( ! p A.A.B.'.'./.(.(.(._.(.].'.h h V.M.M.x.l.k.w.}.[.[ '.).(.).~.).).).H.~.).(.H.(.~.(./.(.(.]._ '.].w.w.1.<.<.<.,.j j R.E.Y.I.W.W.W.W.).(.R R R a Q Q / / / / / / / / / / / / / / / / / / ",
"/ / / / / / / / / / / / / ^ ( ( ^ ( Q r B.C.A.G.'._._._._._.'.'.0.`.f r M.x.c.k.w.9.q.Y ].).).).).).).).].H.H.H.].(.(.(.(.(.!.[._ _ 7.w.7.7.<.<.l l !.K (.R.I.W.Q.W.W./.} } { R o Q Q / / / / / / / / / / / / / / / / / / / ",
"/ / / / / / / / / / / / / / ^ ( ^ ^ / Q r A.A.B.A.'.'._.'.'.'.0.`.(.!.(.r t t w.w.8.=.Y ].).`.).).).).).e.].[.[.c._.).).).(.(.[._ H 7.7.7.r r r _.`.(.(.H.(.W.W.W.(.).$.} { R o Q Q / / / / / / / / / / / / / / / / / / / / ",
"/ / / / / / / / / / / / / / / / / / / / Q e e A.A.A.B.[.].].q._././././.Q.!.E.t y y y Y [.).).].).).).).[.q.&.&.[.).).).).(.).[._ r r r r Q.W.W._._.(._._.H.E.'.(.:.O.-.| o o Q Q / / / / / / / / / / / / / / / / / / / / / ",
"/ / / / / / / / / / / / / / / / / / / / / Q Q e V.A.V.B.B.P [././././.!.!.Q.E.E.W.Y.Y.Y [.].).).'.'.).).H ].[.].&.).).).).).).]._ x.l.!.!.!.W.W.(._.(.(./.'.'.f.:.:.-.-.o Q Q / / / / / / / / / / / / / / / / / / / / / / / ",
"/ / / / / / / / / / / / / / / / / / / / / / / Q e e B.B.B.P R.].].].(.!.!.!.Q.U.Y.W.I.H [.).).].].).'.'.[.`.`.).].).).).).).).[._ k.l./.!.!.(.(.(.(.].].].} j h.-.O.o o Q / / / / / / / / / / / / / / / / / / / / / / / / / ",
"/ / / / / / / / / / / / / / / / / / / / / / / / Q Q e e N.C R.N.m.N.].].].].Q.E.Y.I.T.H }.].].).).'.'.).`.`.`.`.).).).).).).).{.H l.l.!.!.!.].'.].].+.+.{ R l d.o o Q Q / / / / / / / / / / / / / / / / / / / / / / / / / / ",
"/ / / / / / / / / / / / / / / / / / / / / / / / / / Q Q e e I.N.N.b.v.v.h.d.'.'.'.'.'.G {.{.}.{.{.{.[.].].].'.[.'.].].].].}.].}.F J.M.].'.].=.=.*.` { *.{ { o o Q Q / / / / / / / / / / / / / / / / / / / / / / / / / / / / ",
"/ / / / / / / / / / / / / / / / / / / / / / / / / / / / Q Q e e N.v.N.v.v.d.d.j.d.,.#.t L.L.I.A.V.V.V.V.V.B.V.N.B.m.x.K.K.G.K.F.p F F =.=.=.=.=.*.*.+.{ o o Q Q / / / / / / / / / / / / / / / / / / / / / / / / / / / / / / ",
"/ / / / / / / / / / / / / / / / / / / / / / / / / / / / / / Q Q e e v.v.j.d.a.a.s.,.@.r L.L.V.B.B.V.B.B.V.m.N.V.v.j.v.v.v.j.F.D.o B V =.=.*.=.=.*.+.o o Q ! ) / / / / / / / / / / / / / / / / / / / / / / / / / / / / / / / ",
"/ / / / / / / / / / / / / / / / / / / / / / / / / / / / / / / / Q Q e e e e j.a.5.,.@.r L.B.B.B.B.N.N.n.b.b.b.h.v.v.j.j.j.v.j.F.o B F =.=.*.o o o o Q Q / / ) ( ( / / / ) ) / / / / / / / / / / / / / / / / / / / / / / / / ",
"/ / / / / / / / / / / / / / / / / / / / / / / / / / / / / / / / / / Q Q Q Q e e r e e e D.B.B.B.b.j.j.d.d.d.l.v.v.v.v.j.j.d.d.S.o o o o o o Q Q Q Q / / / / ^ ( ( / / ( ( / / / / / / / / / / / / / / / / / / / / / / / / / ",
"/ / / / / / / / / / / / / / / / / / / / / / / / / / / / / / / / / / / / / / Q Q Q Q Q e F.m.B.-.*.<.a.d.d.d.d.d.j.j.d.j.j.j.a.S.o Q Q Q Q Q / / / / / / / / / ^ ^ / ( ( ( / / / / / / / / / / / / / / / / / / / / / / / / / ",
"/ / / / / / / / / / / / / / / / / / / / / / / / / / / / / / / / / / / / / / / / / / / e F.<.@.*.,.@.d.d.d.a.a.d.d.d.a.a.a.a.a.S.o Q Q / / / / / / / / / / / / / / / ( ( ^ / / / / / / / / / / / / / / / / / / / / / / / / / ",
"/ / / / / / / / / / / / / / / / / / / / / / / / / / / / / / / / / / / / / / / / / / / Q o o o r r o o o o o o o o o o o o o o o Q Q / / / / / / / / / / / / / / / / ^ ^ / / / / / / / / / / / / / / / / / / / / / / / / / / ",
"/ / / / / / / / / / / / / / / / / / / / / / / / / / / / / / / / / / / / / / / / / / / / Q Q Q Q Q Q Q Q Q Q Q Q Q Q Q Q Q Q Q Q Q / / / / / / / / / / / / / / / / / / / / / / / / / / / / / / / / / / / / / / / / / / / / / "
};
