/* XPM */
static char *Smoke_14[] = {
/* columns rows colors chars-per-pixel */
"110 73 191 2 ",
"   c #7D3515",
".  c #823716",
"X  c #843917",
"o  c #883B17",
"O  c #863C1B",
"+  c #893C19",
"@  c #8C441E",
"#  c #894322",
"$  c #8D4927",
"%  c #8D4B2B",
"&  c #864122",
"*  c #924521",
"=  c #914924",
"-  c #924D2A",
";  c #9D4D27",
":  c #94512C",
">  c #99532D",
",  c #8E5231",
"<  c #935433",
"1  c #955937",
"2  c #9D5A35",
"3  c #935B3B",
"4  c #995B3A",
"5  c #9A5733",
"6  c #A1522A",
"7  c #A15D36",
"8  c #A15E39",
"9  c #817F20",
"0  c #9E623E",
"q  c #9B603B",
"w  c #A2633B",
"e  c #AA6D3E",
"r  c #D85C1A",
"t  c #DA611C",
"y  c #D96923",
"u  c #D76C27",
"i  c #CF6D2B",
"p  c #9D6443",
"a  c #9C6A46",
"s  c #9F7149",
"d  c #9A7A5D",
"f  c #A56A43",
"g  c #A96E43",
"h  c #A56B47",
"j  c #AA7046",
"k  c #A4714B",
"l  c #AB744B",
"z  c #AF794E",
"x  c #A77047",
"c  c #A97750",
"v  c #AE7C53",
"b  c #A2765B",
"n  c #A57A5D",
"m  c #AB7E5C",
"M  c #A67953",
"N  c #B27F56",
"B  c #AE754E",
"V  c #9C7E63",
"C  c #A97F62",
"Z  c #D97F42",
"A  c #8F8824",
"S  c #948D29",
"D  c #99912E",
"F  c #ACB828",
"G  c #C1C52D",
"H  c #C9CD35",
"J  c #D1D43D",
"K  c #AE8259",
"L  c #AF8A5E",
"P  c #B38256",
"I  c #B3835A",
"U  c #B4885C",
"Y  c #9D8265",
"T  c #9E8469",
"R  c #9F886C",
"E  c #9F8C73",
"W  c #A18564",
"Q  c #A38A66",
"!  c #A68C6A",
"~  c #AA8C6A",
"^  c #A78467",
"/  c #B38B69",
"(  c #B48D65",
")  c #A79068",
"_  c #AB926C",
"`  c #B8986D",
"'  c #A28C73",
"]  c #AA8D70",
"[  c #A28E79",
"{  c #B18E71",
"}  c #A69176",
"|  c #AB9474",
" . c #AD9977",
".. c #A3907A",
"X. c #AA957B",
"o. c #AE9A7C",
"O. c #A79A7F",
"+. c #B29276",
"@. c #B49C75",
"#. c #BA9C73",
"$. c #B49C7C",
"%. c #B99C7C",
"&. c #B59677",
"*. c #B5A27C",
"=. c #BBA073",
"-. c #D5844A",
";. c #CC9F6E",
":. c #DAAD6E",
">. c #CCAA79",
",. c #D2AF79",
"<. c #A69983",
"1. c #AB9C84",
"2. c #AB9E89",
"3. c #B39D83",
"4. c #B49F89",
"5. c #AB9F90",
"6. c #AEA28D",
"7. c #B4A285",
"8. c #BCA482",
"9. c #B4A48B",
"0. c #BBA68A",
"q. c #B9A98D",
"w. c #AFA391",
"e. c #B1A694",
"r. c #BAA690",
"t. c #B3A995",
"y. c #BCAD94",
"u. c #B2A798",
"i. c #B5AB9B",
"p. c #B9AF9C",
"a. c #BDB19A",
"s. c #BEB196",
"d. c #B8AFA2",
"f. c #BDB5A3",
"g. c #BEB8A5",
"h. c #BFB6A9",
"j. c #BFB8AA",
"k. c #C2B49C",
"l. c #C3B89F",
"z. c #DCBE96",
"x. c #D4BD9C",
"c. c #CCB187",
"v. c #C4B4A2",
"b. c #C3BAA6",
"n. c #C3BCAC",
"m. c #C9BEAB",
"M. c #C9BDA6",
"N. c #C5BFB1",
"B. c #E4CA9D",
"V. c #E0C596",
"C. c #C4C0AF",
"Z. c #CAC2AD",
"A. c #D9C5A7",
"S. c #C6C2B3",
"D. c #CAC5B4",
"F. c #CCC7B9",
"G. c #CECABC",
"H. c #CFC9B7",
"J. c #D1CDBE",
"K. c #D8CCB4",
"L. c #D2D0BF",
"P. c #DCD2BB",
"I. c #E0CBAE",
"U. c #E5CCA1",
"Y. c #E1CBB2",
"T. c #E6D6BE",
"R. c #E3D0B2",
"E. c #CFCDC1",
"W. c #D1CEC1",
"Q. c #D4D1C5",
"!. c #D8D5C6",
"~. c #D6D3C9",
"^. c #D9D6CA",
"/. c #DBD9CD",
"(. c #DDDCD3",
"). c #E0D7C9",
"_. c #E1D9CB",
"`. c #E9DECB",
"'. c #E5D8C4",
"]. c #E1DED4",
"[. c #E1DFD8",
"{. c #E3E1D6",
"}. c #E8E2D6",
"|. c #E4E2DA",
" X c #E9E5DD",
".X c #EEEAE3",
"XX c #F1EDE6",
"oX c #F2EFE9",
"OX c #F4F1EC",
"+X c #F6F5F2",
"@X c #F8F7F5",
/* pixels */
"G G G G G G G G G G G G G G G G G G G G G G G G G G G G G G G G G G G G G G G G G G G G N N N N N N I I P P I P P P z z z l l G G G G G G G G G G G G G G G G G G G G G G G G G G G G G G G G G G G G G G G G G G G G G G G ",
"G G G G G G G G G G G G G G G G G G G G G G G G G G G G G G G G G G G G G G G G G G G x Q.J.H.J.F.H.~.W.!.Q.Q.Q.Q.Q.Q.!.Q.H.F.l A A G G G G G G G G G G G G G G G G G G G G G G G G G G G G G G G G G G G G G G G G G G G G ",
"G G G G G G G G G G G G G G G G G G G G G G G G G G G G G G G G G G G G G G G G G G G l ~.J.W.Q.Q.Q.~.Q.Q.Q.Q.Q.Q.Q.Q.Q.Q.Q.F.F.l A A G G G G G G G G G G G G G G G G G G G G G G G G G G G G G G G G G G G G G G G G G G G ",
"G G G G G G G G G G G G G G G G G G G G G G G G G G G G G G G G G G G G G G G G G G G j /.Q.~.Q.~.Q.~.Q.3.8.3.3.3.!.!.Q.Q.Q.W.H.l A A G G G G G G G G G G G G G G G G G G G G G G G G G G G G G G G G G G G G G G G G G G G ",
"G G G G G G G G G G G G G G G G G G G G G G G G G G G G G G G G G G G G G G G G G G G j /.Q.Q.Q.Q.Q.~.~.].].].].7.!.^.Q.Q.!.Q._.l A A G G G G G G G G G G G G G G G G G G G G G G G G G G G G G G G G G G G G G G G G G G G ",
"G G G G G G G G G G G G G G G G G G G G G G G G G G G G G G G G G G G G G G 2 2 7 q f x /.Q.!.!.Q.!.!.!.3.4.4.4.4.Q.!.!.!.Q.!.].l X . 2 2 2 G G G G G G G G G G G G G G G G G G G G G G G G G G G G G G G G G G G G G G G G ",
"G G G G G G G G G G G G G G G G G G G G G G G G G G G G G G G G G G G h h h G.G.G.G.G.x /.Q.Q.Q.!.Q.!.V.>.B.U.B.B.V.!.Q.Q.Q.Q.(.l q.q.G.F.G.2 2 2 G G G G G G G G G G G G G G G G G G G G G G G G G G G G G G G G G G G G G ",
"G G G G G G G G G G G G G G G G G G G G G G G G G G G G G G G G h l l W.Q.F.G.G.G.G.G.l /.!.!.!.~.~.z.{.v.].v.v.k.{.z.z.z.!.!.].z q.9.G.G.F.G.W.W.2 w w G G G G J G G G G G G G G G G G G G G G G G G G G G G G G G G G G G ",
"G G G G G G G G G G G G G G G G G G G G G G G G G G G G G G G v W.W.Q.Q.Q.F.2 2 7 w 7 j /.Q.!.!.!.U./.{.{.{.|.}. X(.].].].B.A.I.z w w 7 7 7 Q.Q.E.L.J.Q.w G G G H H G G G G G G G G G G G G G G G G G G G G G G G G G G G G ",
"G G G G G G G G G G G G G G G G G G G G G G G G G G G G v v N W.Q.Q.Q.W.2 2 Q.^.^.Q.!.j Q.A.K.K.K._./._././.{./././._.(./././.{.z Q.Q.Q.Q.Q.> w Q.Q.Q.Q.w G G G G G G G G G G G G G G G G G G G G G G G G G G G G G G G G G ",
"G G G G G G G G G G G G G G G G G G G G G G G G G G f h W.W.(. .Q.W.2 2 L.L.L.L.L.!.!.g P.^.!.^.^.^.^.^.^./././././.!._./././.{.I H.!.Q.Q.Q.Q.~.w x Q.Q.v w w w w G G G G G G G G G G G G G G G G G G G G G G G G G G G G G ",
"G G G G G G G G G G G G G G G G G G G G G G G G h h ^./.W.Q.Q.].2 2 N.N.G.L.L.L.L.L.!.j {.!.!.^.^.^.^.^.^.^.^././././.!.^.^./.(.k !.L.Q.Q.~.~.Q.Q.Q.g l {.H.D.Z.Z.w w w G G G G G G G G G G G G G G G G G G G G G G G G G G ",
"G G G G G G G G G G G G G G G G G G G G G G G 4 /./.W.Q.Q.W.5 5 W.N.S.m.Q.G.J.L.J.L.!.^.v (.^.!.^.!.!.!.^.^.^.^.!.^.^.^.!.^.(.k J.Q.L.G.~.Q.Q.Q.Q.~.~.!.q > S.D.Z.Z.G.G.w G G G G G G G G G G G G G G G G G G G G G G G G G ",
"G G G G G G G G G G G G G G G G G G G G G f 2 /.Q.Q.W.~.Q.5 L.Q.J.W.J.Z.Q.Q.!.L.J.L.L./.k /.Q.Q.!.{./.{.(.]./.{.{.{.{.~.!.!.].a W.E.L.G.E.Q.~.Q.!.~.~.~.Q.~.+ H.H.J.F.G.J.- : G G G G G G G G G G G G G G G G G G G G G G G ",
"G G G G G G G G G G G G G G G G G G G G 2 /.(.~.~.~.~.2 2 Q.Q.W.L.L.J.Q.Q.Q.L.L.L.L./.v - |.[.|.(.q.q.a.f.d.d.p.i.d.f.[.|.|.|.0 E.W.W.J.E.Q.Q.Q.Q.~.Q.~.Q.~.Q.O @ G.G.G.W.W.W.@ G G G G G G G G G G G G G G G G G G G G G G ",
"G G G G G G G G G G G G G G G G G G G G - /.~.~.~.~.2 W.W.Q.E.L.Q.J.Q.Q.L.Q.!.!.!./.5 m - $.7.6.6.6.q.a.p.i.p.d.d.g.g.j.j.j.j.0 {.(.(.G.E.E.Q.Q.Q.~.D.D.Q.Q.Q.Q.Q.X W.Q.W.W.Q.+ G G G G G G G G G G G G G G G G G G G G G G ",
"G G G G G G G G G G G G G G G G G G f f /.C b Q.~.2 W.Q.W.W.J.L.J.J.Q.Q.Q.Q.Q././.5.4.1 $ 1.4.9.q.q.6.=.#.#.#.#.#.=.#.n.h.n.h.p S.D.N.].(.J.E.E.G.D.D.F.E.E.Q.Q.Q.W.o W.W.b b (.* * G G G G G G G G G G G G G G G G G G G G ",
"G G G G G G G G G G G G G G G G G f /./.E.(./.b 1 E.W.W.W.Q.Q.Q.J.Q.Q.Q.W.(./.1.2.2.4.w.$ 3.9.9.t.X   @ + $ < 1 4 4 1 %.$.n.N.p N.N.D.n.N.(.{.G.W.L.E.E.E.E.E.Q.W.E.E.o C (.(.E./.(.= G G G G G G G G G G G G G G G G G G G ",
"G G G G G G G G G G G G G G G G f /.W.W.E.W.E.5 E.E.E.E.W.Q.J.Q.Q.Q.Q././.....<.2.2.4.w.& & O O @ =.` ` #.&.#.%.#.%.*.h p p p p D.D.D.m.N.h.g.(.[.E.E.E.E.G.E.G.E.E.G.W.. W.W.Q.Q.Q.(.* G G G G G G G G G G G G G G G G G G ",
"G G G G G G G G G G G G G G G f ~.E.W.G.W.E.5 ~.Q.E.Q.~.Q.Q.Q.Q.Q.Q.(.' ' ' } <.1.  # & c.8.c.4.*.l.C.b.b.m.b.m.m.C.F.D.3.3.] ] m m m M.N.h.h.h.f.(.E.G.G.E.G.E.E.G.E.G.E.X Q.Q.Q.E.F./.* G G G G G G G G G G G G G G G G G ",
"G G G G G G G G G G G G G G G f ^.G.W.W.E.5 ~.~.E.W.~.~.~.W.~.~.!./.' ' E ' '     ~ #.0.M.m.M.m.C.Z.m.m.m.D.N.Z.F.H.F.F.F.F.3.&.$.9.~.g p h.j.g.j.u.(.E.E.E.F.E.G.E.G.E.G.G.X W.E.E.E./.; G G G G G G G G G G G G G G G G G ",
"G G G G G G G G G G G G G G - ~.F.F.F.F.5 ~.~.~.~.Q.~.~.~.~.W.W.(.V ' R !     } ] k.c.Z.Z.Z.Z.K.D.D.D.D.F.H.J.H.W.J.W.W.G.W.r.0.0./.H.x.G.q 1 h.j.i.d.(.~.~.E.E.G.G.G.G.E.E.W.o W.E.E.E.W.+ G G G G G G G G G G G G G G G G ",
"G G G G G G G G G G G G G G 5 W.F.F.F.F.1 ~.Q.~.Q.~.~.(.^.~.(.(.V V Y T   1.1.a.a.a.>.W.J.J.J.P.K.J.K.W.J.K.W.K.Q.Q.Q.Q.~.v.].(./.L.Q.c.b.H.F.: f.t.i.u./.~.~.~.N.E.G.N.W.Q.W.o E.G.E.G.~.+ G G G G G G G G G G G G G G G G ",
"G G G G G G G G G G G G G . W.F.F.G.F.5 ~.~.Q.~.~.~.^.^.(.]./.d V V     1.s.s.s.a.a.,.!.^.^.~.^.!./././.!.!.P.J.Q.).).^.m.].~././.^.^.,.b.n.b.F.3 3 i.i.u.(.~.~.^.E.Q.~.Q.W.Q.Q.f G.G.E.W.K.+ G G G G G G G G G G G G G G G ",
"G G G G G G G G G f f f f f f f f f f f f V b b (.(.(.(.(.(.V V V   ) | a.s.a.a.a.a.:.].].].].].]./._.`.]._.!.!.)._._.m..X/.(././.].|.;.M.b.n.n.F.F.1 t.4.o.].~.^.^.E.W.C b n C e g g g g g g g g g g g G G G G G G G G G G ",
"G G G G G G G G f /.~.~.^.G.E.G.E.G.N.N.D.D.N.F.b b 1.] ] (.d d   ! _ a.s.a.a.a.a.a.:..X.X.X X X X X[.[.[.[..X`.`.[.).!. X.X.X[. X.X.X-.n.M.b.S.S.S.D.= 4.o.(.b b b C b Q.~.~.Q.!.W.W.W.Q.W.W.W.W.Q.J.].g G G G G G G G G G ",
"G G G G G G G f (./.~.~.E.J.W.E.E.E.E.N.F.D.E.G.E.F.].] ] ! d   ! ! g.a.g.g.a.s.a.F.i ]./._._._._.)._.).`.x.`.`.T._._.`.`.`._.].]._.}.-.n.b.b.S.S.S.S.F.. +.1.]././.^.^.E.E.E.E.W.W.W.W.!.!.K.W.Q.W.W.].g G G G G G G G G G ",
"G G G G G G G l (.E.W.E.W.W.G.W.E.W.W.W.E.G.E.E.E.E.F.].(.^   _ ) f.f.g.g.a.s.a.k.Q u XX X X X[.`.[.}.}.[..X}.Y.).A.[.}. X.X[.[. X X.Xu n.n.n.j.S.S.S.S.G.. o.].^.^.E.E.W.E.W.W.W.W.W.W.W.W.Q.W.W.W.W.{.g A A G G G G G G G ",
"G G G G G G G l (.E.E.W.E.W.W.E.E.E.E.E.E.G.E.G.G.G.G.G.].C   _ a.g.g.a.a.f.f.g.g.Y y OXXXXXXX.XXX.X.X.X.XT..X`.oXY..X.XoXXX.X.X.X.XOXu E.C.C.j.n.S.S.C.K.O 3.].).J.W.W.E.W.W.W.W.!.W.P.Q.J.!.J.Q.Q.Q.].g A A A G G G G G G ",
"G G G G G G G x (.E.W.W.W.W.E.E.W.E.W.W.E.W.E.E.E.E.G.(.5.  ! ~ g.g.g.O.7.f.g.g.b.W y @XXXXXXXXXXX.XXXXXXX'.'.'.XXOX.X.XXX.X.X.XXX.XOXy | g.b.C.n.S.S.S.N.N.. 5._.W.W.W.W.W.W.J.W.W.W.!.P.!.J.Q.Q.W.W.[.g A A A G G G G G G ",
"G G G G G G G l (.W.W.E.W.W.r.r.4.W.W.W.W.E.W.E.E.G.G.(.5.  ~ _ g.g.g.S.D. .j.n.b.X.t @XXXOXOXXXXXXXXXXXXXoXoX`.XXT.XXXXXXXXXXXX.XXX+Xy _ j.n.C.S.S.n.S.N.N.. 5.].E.W.W.W.W.W.).W.W.Q.0.c.3.Q.W.Q.!.W.].j A A A G G G G G G ",
"G G G G G G G l (.E.Q.Q.W.+.(./._.&.W.W.W.W.E.W.G.W.W.].  ! ! h.g.g.g.g.g.H.Y g.b.$.t @XXXXXXXXXXXXXXXXXXXXXXXOXXXOXoXoXoXXXoXXXXXXX@Xt 7.C.n.h.n.n.n.j.n.N.n.. ].E.N.W.W.W.Q.Q.Q.Q.Q.3./.~.!.3.P.W.~.].j A A A G G G G G G ",
"G G G G G G G l (.Q.Q.Q.~.+.Q.~ Q.+.Q.W.W.Q.Q.W.E.^./.(.. ~ ! n.C.g.g.g.g.n.G.Y W o.t @XXXXXoXoXXXXXXXXXXXXXXXoXXXXXOXXXXXXXOXXXXXoX@Xt 7.M.n.n.n.N.n.n.j.n.S.. [.E.E.E.W.Q.Q.Q.Q.Q.!.%.Q.%.%.%.!.!.~.{.x A A A G G G G G G ",
"G G G G G G G h (.Q.Q.W.W.^ Q.(.W.^ Q.Q.~.W.Q.W.Q././.(.. ~ Q n.g.C.g.g.C.n.J.o.1.$.r @XXXXXXXoXXXoXXXoXXXOXoXY.R.T.XXXXXXXXXXXXXXXX@Xt 9.M.n.N.n.n.n.n.N.n.n.. {.G.E.E.Q.Q.Q.Q.Q.~.!./ Q.(./.^ ^.~.^.{.e A A A G G G G G G ",
"G G G G G G G g (.Q.W.~.~./.n n C /.Q.~.~.W.~.W.Q.W./.(.. Q ~ n.C.C.C.n.C.j.S.W.$.1.t @XXXXXXXXXXXoXXXXXXXXXoXOX+XT.XXXXXXXXXXXXXXOXOXt C.n.n.n.n.N.N.n.N.n.n.X (.Q.Q.Q.!.!.Q.Q.!.Q.~.b l h ~./.~.!.Q.{.e A A A G G G G G G ",
"G G G G G G G g (.~.~.~.~.~./.(.(.~.~.Q.~.~.Q.Q.~.Q.^.(.X ! ! N.C.j.n.C.C.C.C.W.6.7.t @XXXXXXXXXXXXXXXoXXXY.XXY.OXT.XXXXXXXXXXXXoXOX@Xt n.S.C.n.n.n.n.N.n.N.n.X (.~.Q.Q.W.Q.~.Q.Q.Q.~./.(./.!./.^.^.!.].x A A A G G G G G G ",
"G G G G G G G h (.(.~.~.Q.^.~.^.~.~.~.Q.~.Q.Q.~.Q.Q.Q.(.X ~ Q n.N.n.n.N.C.C.C.C.E.6.t @XXX.XXXXXXXXXXXXXXXI.XXOXXXOXXXXXXXXXXXXXOXOX@Xt S.C.C.C.N.n.n.n.n.n.n.X ].Q.Q.Q.~.~.!.W.~.^./.~.^.!./.!.^.~./.(.x A A A G G G G G G ",
"G G G G G G G h (.(./.~.!.~.^.Q.~.~.~.~.~.!.!.Q.~.Q.~.(.X Q ~ N.C.N.N.N.C.C.S.S.S.9.t +XXXOX.XoXXXXXXXXXXXI.I.I.XXXXXXXXXXXXXXOXOXOX@Xr S.C.C.C.j.n.n.n.f.f.f.X ].W.Q.Q.W.~.Q.Q.~./.^././././.!.~./.~.{.e A A A G G G G G G ",
"G G G G G G G f (././.~.^.!.^.^.!.~.~.Q.~.Q.Q.~.~.~.~.(.X ~ Q S.C.C.S.G.G.D.S.n.S.q.r @XOXXXXX.XXXXXXXXXXXOXOXOXXXXXXXXXXXXXXXOXOX+XR.t S.S.C.C.n.n.n.n.f.f.f.X (.W.W.Q.~.~.^.^.^.^.^.^.^.^./.Z./.~.~.[.s A A A G G G G G G ",
"G G G G G G G 0 |./././.~.~.~.~.~.!.Q.~.Q.~.~.Q.~.p 1 1 $ X ) S.S.N.D.G.D.F.D.S.S.q.r @XOXXXXXXXXXXXXXXXXXXXoXoXXXXXXXXXXXXXXXOXOXK.`.u S.S.C.C.n.j.f.f.f.f.X b b b C ~.^./.~.^./.^.^.^./.Z.Z.Z.Z.^./.{.e A A A G G G G G G ",
"G G G G G G G 2 |.|.|..X(.(.(.(.[.(.{.(.n W ^ ] 6.(.~././.  ) G.F.F.F.F.G.G.D.S.S.y.t +XOXOX.XXXXXXXXXXXXXXXXXXXXXXXOXOXOXXXXXoXOXR.`.r D.S.S.D.b.n.f.f.f.h.. ^.^./.~.b C p { { { +.[.].(.[.[.(.(.{.[.(.h A A A G G G G G G ",
"G G G G G G G X j.j.j.j.u.i.u.t.t.i.t.K (.(./.^./.Q.E.E.L.E.1 S.F.F.G.F.D.G.S.S.S.p.t +XOXoXOXOXXXOXXXXXXXXXXXXXXXOXOXOXOXXXXXOXI.`.`.r S.S.S.S.S.S.S.f.f.0 G.F.F.F.F./.(._.{ { { n.5.5.9.e.w.t.u.e.u.j.@ A A A G G G G G G ",
"G G G G G G G o j.n.e.e.w.e.e.t.t.t.u.l p (.W.W.Q.E.E.E.L.J.J.a S.G.F.G.G.D.S.S.S.y.r +XoXOXOXOXOXOX.XXXXXXXXX.XXXOXOXXXOXOXOXI.`.{.r a.S.S.S.S.S.S.S.S.w F.F.F.F.F.F.F.N.E.^.p S.1.4.2.6.6.e.e.e.e.e.j.  A A A G G G G G G ",
"G G G G G G G X h.6.w.9.X.( ( ( ( v k f h (.Q.W.E.Q.E.E.L.J.E./.d S.G.G.F.G.S.S.S.t.p.r r r r r r r r r r r r r r r r r r r r r r r a.a.D.S.S.S.S.S.S.w b.F.G.F.G.F.F.F.E.N./.b / ( K ( L L Q Q e.e.e.j.X A A A G G G G G G ",
"G G G G G G G X n.5.w.X /.E.J.J.D.b.b.b.$ <.(.W.Q.Q.E.E.Q.E.Q.Q.^.M D.G.F.G.G.S.S.y.i.a.9.9.9.7.7.7.7.7.9.7.7.7.*.$.$.$.&. .+.| 1.a.a.y.D.S.S.S.C.S.w s.h.g.E.Q.W.F.F.F.F.(.u.. b.G.G.~.Q.~.Q.[.O w.t.j.X A A A G G G G G G ",
"G G G G G G G X d.6.2.O /.W.G.G.D.D.b.v., ^ (.W.E.Q.Q.Q.Q.Q.E.Q.Q./.M D.D.G.G.D.S.E.Q.i.a.a.a.a.s.a.k.a.a.a.k.k.k.a.a.a.k.s.a.s.a.i.a.E.D.S.S.S.S.M q.s.^.^.Q.E.W.W.E.E.F.(.5.. M.G.G.E.~.~.Q./.. w.w.d.X A A G G G G G G G ",
"G G G G G G G A . . O . ..(.J.G.J.F.D.F.D.$ ] (.E.Q.Q.Q.Q.E.Q.Q.Q.(./.M M G.F.F.G.S.S.E.G.W.E.E.E.Q.E.W.Q.E.Q.E.W.Q.a.a.a.a.Q.E.Q.E.Q.D.S.S.S.0 w y.0.^.E.Q.E.~.W.E.W.W./.V O n.G.G.Q.Q.Q.~./.5.X X   X A A G G G G G G G G ",
"G G G G G G G G A A A . [ /.J.J.J.J.F.D.D.% ] X.(.Q.Q.Q.Q.Q.Q.Q.Q.Q./.Q.Q.c H.G.G.D.F.S.D.D.D.D.D.D.F.D.D.D.F.F.D.D.W.E.a.a.D.D.S.F.S.S.D.S.5 Q.Q.W.W.Q.E.~.Q.W.Q.W.Q./.C V . N.G.G.Q.E.E.~.(.6.X A A A A G G G G G G G G G ",
"G G G G G G G G G G G A X ..(.G.G.E.G.G.m.G.< +.u.(.~.Q.Q.Q.~.Q.~.Q.Q.Q.J.Q.w h G.G.G.G.D.S.D.S.D.F.D.F.F.D.H.F.D.H.F.D.W.W.S.D.D.S.F.S.f w ~.Q.E.Q.W.~.Q.Q.~.Q.Q.Q./.T ^ . b.m.G.G.~.~.W.(.Y . A A A G G G G G G G G G G G ",
"G G G G G G G G G G G G X ' 5./.E.G.E.G.m.F.N.> d.u.(.(.].Q.~.~.~.Q.!.Q.Q.Q.Q.Q.2 2 2 G.F.D.D.F.D.D.F.D.D.F.D.D.D.D.S.F.D.D.D.S.D.8 0 w ~.~.~.~.~.W.W.~.~.~.~.Q.Q./.T V # b.M.b.F.G.W.~./.Y T . A D G G G G G G G G G G G G ",
"G G G G G G G G G G G G A O w./.E.W.G.E.W.E.C ; i.p.d.|  .(.~.~.~.~.Q.~.Q.L.W.J.J.J.F.7 4 D.D.S.D.D.D.F.D.D.D.D.F.D.D.D.D.D.S.F.> G.W.~.~.W.~.~.~.~.~.~.~.Q.~.Q./.' ^ T # O m.M.G.~.~.W./.T . A A S H G G G G G G G G G G G ",
"G G G G G G G G G G G G G O 5.e./.E.E.E./ / / b * d.f.h.| | {.~.~.Q.!.Q.Q.Q.Q.J.J.J.F.F.F.l l c z z P K N N N N N v z v k D.S.a H.J.Q.~.~.~.~.^.~.~.~.~.Q.~.].(.' ' Q # k.y.n n Q.Q.~./.Y V . S A F H G G J G G G G G G G G ",
"G G G G G G G G G G G G G A . u.u./.{ / (.(./.V b * d.f.v.k.(.Q.~.~.~.~.Q.!.Q.Q.J.J.L.L.F.k ^.^.~.!.^.^.!.^.Q.Q.Q.W.J.Q.W.w w H.G.Q.Q.~.~.~.~.~.~.~.~.~.~.(.} } ^ ' % y.k.N.D.D.d b /.| Y . S S S F G H H F G G G G G G G G ",
"G G G G G G G G G G G G G G A X u.b ].(.E.E.E././.(.* f.l.v.b.{.(.~.~.Q.Q.Q.Q.L.Q.L.L.J.;.~.^.~.!.^.^.^.Q.L.J.Q.Q.Q.W.W.W.W./.n E.Q.W.Q.~.~.~.~.~.~.~.(.[.......' % k.D.N.D.m.D.D.(.% 3.  S 9 S H G G H H F G G G G G G G G ",
"G G G G G G G G G G G G G J J X d.d j./.Q.E.Q.Q.E.G.E.6 6 v.l.a.p.(.(.~.!.Q.L.Q.L.Q.Q.L.;.~.Q.W.^.^.Q.Q.L.Q.Q.Q.W.Q.Q.J.Q.W.(.n Q.Q.W.W.~.~.!.~.~.].].X.X...X.# 1 G.F.F.F.H.D.D.~.V % 1.  S S F H G G F F G G G G G G G G G ",
"G G G G G G G G G G G G G G J S   V j.d.(.Q.E.Q.G.E.G.G.Q.* l.b.p.p.p.[.].].Q.Q.Q.Q.Q.I ].Q.Q.P.!.Q.Q.L.!.L.J.Q.J.Q.Q.W.W.Q.W./.K W.Q.~.~.~.[.(.(.<.X.X.} ] < S.D.H.H.F.F.G.F.W.Y V % . A 9 H F F G G G G G G G G G G G G G ",
"G G G G G G G G G G G G G G F H S . j.d.i.(.Q.Q.E.E.Q.Q.Q.~.= ; f.p.i.a.y.q.{.{.].Q.Q.U /.Q.Q.!.!.Q.!.Q.Q.!.Q.Q.Q.Q.Q.Q.L.W.W.].K G.L.[.(.[. . .X.X.} } $ < D.N.G.H.H.F.H.F.Q.C V Y   A A G G G G G G G G G G G G G G G G G ",
"G G G G G G G G G G G G G J H F H S , d.f.i././.Q.Q.Q.Q.~.~./.(.> > y.p.t.q.9.*.*.].].U /.!.Q.!.!.!.!.Q.k.Q.Q.Q.k.Q.Q.Q.Q.W.W.].P /.(.@.@. . .} X.X.1 1 D.D.m.N.G.G.F.F.~.!.V V Y % A A G G G G G G G G G G G G G G G G G G ",
"G G G G G G G G G G G G G F H H F H A . i.f.i.h./.Q.~.~.~.~././.#.~.; X q.q.7.7.*.$._ z ].!.Q.Q.Q.!.!./.`.k.k.k.(.Q.Q.Q.Q.W.W.].K K  .=.@.O. . .q 3 W.b W.Z.m.G.F.H.F.G.R V V V   A A G G G G G G G G G G G G G G G G G G G ",
"G G G G G G G G G G G G G G F H F F G A X i.f.p.d././.~./././.` Q.Q.W.W.X X @ *.*.*._ N /././.!.!.!.!.!.#.].(.].8.Q.!.!.!.Q.Q.].P K @.@.@.X X X Q.Q.Q./.r.Q.F.F.F.W.Q.' R V V   A A G G G G G G G G G G G G G G G G G G G G ",
"G G G G G G G G G G G G G G G G G G G G A . . d.d.d.i.(.(.(./ ~.Q.W.E.W.G.J.D.o o + + P ]./././.!.!.!.!.].+./ / ].^.!.!.!.Q.Q.].K X X X X G.G.F.Q.~.Q.Q.~.y.F.~.~.[ [ ' R     A A G G G G G G G G G G G G G G G G G G G G G ",
"G G G G G G G G G G G G G G G G G G G G G A A . d.d.d.i.t.b ].Q.E.W.W.E.J.G.S.S.Z.D.D.v (./.!./._./.!.!.z ].]./.( Q./.!.!.!.Q.].K q.q.G.J.J.F.F.Q.~.~.Q.W.(.(.4.' [ ' '   A A G G G G G G G G G G G G G G G G G G G G G G G ",
"G G G G G G G G G G G G G G G G G G G G G G G A . . i.i.i.b N.(.(.(.E.W.J.G.J.D.D.D.D.z ]./.!._././././.].!.!./.].!.!.!.!.!.!.|.K 7.9.E.J.J.Q.Q.Q.Q.(./.(.T 3 2.' E     A G G G G G G G G G G G G G G G G G G G G G G G G G ",
"G G G G G G G G G G G G G G G G G G G G G G G G A A .   i.d S.u.u.u.{.(.(.(.J.Z.Z.D.S.l |.!././.!././.!.!./.!.!.!.!.!.!.Q.!.Q.|.z 9.9.G.L.J./.(.(./.! Q V V 3 2.    A A G G G G G G G G G G G G G G G G G G G G G G G G G G ",
"G G G G G G G G G G G G G G G G G G G G G G G G G G A A X . N.u.e.u.w.5.w.2./.(./.(./.l [.[.|.[.|.[.].].(.].(./.(./.(.(.].{.{.|.k k.q.(./.(._ ) ) Q Q Q Y Y     A A G G G G G G G G G G G G G G G G G G G G G G G G G G G G ",
"G G G G G G G G G G G G G G G G G G G G G G G G G G G G A A . . e.e.w.w.w.2.2.6.<.} ] o n.n.n.d.i.d.p.i.i.i.p.p.y.e.e.n.j.h.j.h.$ s s ` ` _ _ _ ) Q Q Y     A A G G G G G G G G G G G G G G G G G G G G G G G G G G G G G G ",
"G G G G G G G G G G G G G G G G G G G G G G G G G G G G G G A A . . e.5.2.2.2.2.<.} ! . n.n.i.p.i.i.i.i.p.t.u.t.w.w.w.w.6.6.h.j.  a s _ _ _ ) _ Q Q     A S J G G G G G G G G G G G G G G G G G G G G G G G G G G G G G G G ",
"G G G G G G G G G G G G G G G G G G G G G G G G G G G G G G G G A A . . . . 1.<.O.} ! X N.i.t.i.i.i.u.r.e.e.e.e.w.w.6.6.6.6.6.h.  a k _ ) )         A A G G J H H G G G J J G G G G G G G G G G G G G G G G G G G G G G G G ",
"G G G G G G G G G G G G G G G G G G G G G G G G G G G G G G G G G G A A A A . . . X . . b.t.i.i.6.6.2.6.2.2.6.w.w.w.w.6.6.6.6.h.            A A A A G G G G F H H G G H J G G G G G G G G G G G G G G G G G G G G G G G G G ",
"G G G G G G G G G G G G G G G G G G G G G G G G G G G G G G G G G G G G G G A A A A A . h.t.t.] _ } 6.2.1.2.2.2.6.w.6.2.6.2.<.f.  A A A A A G G G G G G G G G F F G H H H G G G G G G G G G G G G G G G G G G G G G G G G G ",
"G G G G G G G G G G G G G G G G G G G G G G G G G G G G G G G G G G G G G G G G G G G . h.X.! _ _ ! 6.<.2.1.<.2.<.2.<.<.<.<.<.f.  A A G G G G G G G G G G G G G G G H H F G G G G G G G G G G G G G G G G G G G G G G G G G ",
"G G G G G G G G G G G G G G G G G G G G G G G G G G G G G G G G G G G G G G G G G G G A       .                                 A A G G G G G G G G G G G G G G G G F F G G G G G G G G G G G G G G G G G G G G G G G G G G ",
"G G G G G G G G G G G G G G G G G G G G G G G G G G G G G G G G G G G G G G G G G G G G A A A A A A A A A A A A A A A A A A A A A G G G G G G G G G G G G G G G G G G G G G G G G G G G G G G G G G G G G G G G G G G G G G "
};
