/* XPM */
static char *Smoke_2[] = {
/* columns rows colors chars-per-pixel */
"110 73 183 2 ",
"   c #4F2913",
".  c #512B14",
"X  c #5A361D",
"o  c #7D3515",
"O  c #5C3A23",
"+  c #5F3F28",
"@  c #56493F",
"#  c #55473E",
"$  c #5E4029",
"%  c #61412A",
"&  c #654934",
"*  c #5A4E43",
"=  c #574A40",
"-  c #5C5146",
";  c #5D5349",
":  c #62594B",
">  c #676159",
",  c #6A635B",
"<  c #6F695A",
"1  c #736C5E",
"2  c #70675B",
"3  c #6E6960",
"4  c #726C63",
"5  c #736F68",
"6  c #777166",
"7  c #797266",
"8  c #7A746A",
"9  c #7E796D",
"0  c #767168",
"q  c #797770",
"w  c #7A7870",
"e  c #823716",
"r  c #843917",
"t  c #883B17",
"y  c #893C19",
"u  c #863C1C",
"i  c #8C421E",
"p  c #8D4927",
"a  c #8D4C2B",
"s  c #894523",
"d  c #924521",
"f  c #974C27",
"g  c #94512C",
"h  c #99532D",
"j  c #945937",
"k  c #9D5A35",
"l  c #935B3B",
"z  c #955633",
"x  c #8E5231",
"c  c #A1522A",
"v  c #A15D36",
"b  c #A15E39",
"n  c #817F20",
"m  c #9C613B",
"M  c #A2633B",
"N  c #9D6642",
"B  c #9C6A46",
"V  c #9F7149",
"C  c #9A7A5D",
"Z  c #A56A43",
"A  c #A96E43",
"S  c #A66B47",
"D  c #AA7046",
"F  c #A4714A",
"G  c #AB744B",
"H  c #AF794E",
"J  c #A77047",
"K  c #A97750",
"L  c #AE7C53",
"P  c #A2765B",
"I  c #A57A5D",
"U  c #A87B57",
"Y  c #B27F56",
"T  c #807B6F",
"R  c #9C7E63",
"E  c #837E72",
"W  c #A97F62",
"Q  c #8F8824",
"!  c #948D29",
"~  c #99912E",
"^  c #ACB828",
"/  c #C1C52D",
"(  c #C9CD35",
")  c #D1D43D",
"_  c #AE8259",
"`  c #AF8A5E",
"'  c #B38256",
"]  c #B28359",
"[  c #B4885C",
"{  c #9D8265",
"}  c #9E8469",
"|  c #9F886C",
" . c #868175",
".. c #888477",
"X. c #8A867A",
"o. c #88857D",
"O. c #9F8C73",
"+. c #A18564",
"@. c #A68C6A",
"#. c #AA8C6A",
"$. c #A68667",
"%. c #B38B69",
"&. c #B48D65",
"*. c #A79068",
"=. c #AB926C",
"-. c #A28C73",
";. c #AA8D70",
":. c #A28E79",
">. c #B18E71",
",. c #A69176",
"<. c #AB9474",
"1. c #AD9977",
"2. c #A3907A",
"3. c #AA957B",
"4. c #AE9A7C",
"5. c #A79A7F",
"6. c #B29276",
"7. c #B39C75",
"8. c #B39E7C",
"9. c #B99B7C",
"0. c #B69777",
"q. c #B59068",
"w. c #B0A079",
"e. c #C29F75",
"r. c #918D82",
"t. c #949187",
"y. c #99968D",
"u. c #9C998E",
"i. c #959289",
"p. c #9B9890",
"a. c #A69983",
"s. c #AB9C84",
"d. c #AB9E89",
"f. c #B49E84",
"g. c #B89F88",
"h. c #AB9F90",
"j. c #AEA28D",
"k. c #B4A284",
"l. c #B5A58A",
"z. c #BBA68A",
"x. c #B9A98D",
"c. c #BAA484",
"v. c #AFA391",
"b. c #B1A694",
"n. c #BAA690",
"m. c #B3A996",
"M. c #BCAD94",
"N. c #B2A798",
"B. c #B5AB9B",
"V. c #B9AF9B",
"C. c #BDB19A",
"Z. c #BEB196",
"A. c #B8AFA2",
"S. c #BDB5A3",
"D. c #BEB8A5",
"F. c #BFB6A9",
"G. c #BFB8AA",
"H. c #C2B49C",
"J. c #C3B89F",
"K. c #C3BAA6",
"L. c #C3BDAC",
"P. c #C1B6A3",
"I. c #C5BFB1",
"U. c #C4C0AF",
"Y. c #CAC1AD",
"T. c #DBC7A2",
"R. c #C6C3B3",
"E. c #CAC5B5",
"W. c #CCC7B9",
"Q. c #CECABC",
"!. c #D0CDBE",
"~. c #D2D0BF",
"^. c #CFCDC1",
"/. c #D1CEC1",
"(. c #D4D1C5",
"). c #D8D5C7",
"_. c #D6D3C9",
"`. c #D8D6CA",
"'. c #DAD8CE",
"]. c #DDDCD3",
"[. c #E0DED6",
"{. c #E1DFD8",
"}. c #E2E1DA",
/* pixels */
"/ / / / / / / / / / / / / / / / / / / / / / / / / / / / / / / / / / / / / / / / / / / / Y Y Y Y Y Y ] ] ' ' ' ' ' Y H H H D G / / / / / / / / / / / / / / / / / / / / / / / / / / / / / / / / / / / / / / / / / / / / / / / ",
"/ / / / / / / / / / / / / / / / / / / / / / / / / / / / / / / / / / / / / / / / / / / G (.Q.Q.!.W.W.(.(.(.(.).(.)././.).).W.W.G Q Q / / / / / / / / / / / / / / / / / / / / / / / / / / / / / / / / / / / / / / / / / / / / ",
"/ / / / / / / / / / / / / / / / / / / / / / / / / / / / / / / / / / / / / / / / / / / D '.!./.(./.`.)./.).).(.(.(.).(.).).(.W.E.G Q Q / / / / / / / / / / / / / / / / / / / / / / / / / / / / / / / / / / / / / / / / / / / ",
"/ / / / / / / / / / / / / / / / / / / / / / / / / / / / / / / / / / / / / / / / / / / D '.(.(.(.`.(.(.`.f.f.k.f.f.).(.(.(.(.(.W.G Q Q / / / / / / / / / / / / / / / / / / / / / / / / / / / / / / / / / / / / / / / / / / / ",
"/ / / / / / / / / / / / / / / / / / / / / / / / / / / / / / / / / / / / / / / / / / / D '.(.(.(.(.).(.`.[.[.[.[.f.).~.).).(.(.'.G Q Q / / / / / / / / / / / / / / / / / / / / / / / / / / / / / / / / / / / / / / / / / / / ",
"/ / / / / / / / / / / / / / / / / / / / / / / / / / / / / / / / / / / / / / k k k v Z D '.(.(.).(.(.).).f.f.f.g.f.).).).(.).).[.G e e k k k / / / / / / / / / / / / / / / / / / / / / / / / / / / / / / / / / / / / / / / / ",
"/ / / / / / / / / / / / / / / / / / / / / / / / / / / / / / / / / / / S J J W.Q.Q.Q.!.D '.).(.).).(.`.+ + + % + + % ).).).).).'.G x.x.W.Q.W.k k k / / / / / / / / / / / / / / / / / / / / / / / / / / / / / / / / / / / / / ",
"/ / / / / / / / / / / / / / / / / / / / / / / / / / / / / / / / J G G (./.Q.W.Q.Q.Q.!.D '.(.(.).(.`.X 7 7 7 7 7 6 6 X X X ).).].H x.x.W.Q.Q.^.^./.v M M / / / / ) / / / / / / / / / / / / / / / / / / / / / / / / / / / / / ",
"/ / / / T.w.w./ / / / / w.w./ / / / / / / / / / / / / / / / / L !./.(.(./.W.v v v v v A '.(.).).`.O 7 7 7 7 7 7 7  ...E ..X X X H m m m M v /.(.(.~.(.~.M / / / ( ( / / / / / / / / / / / / / / w.w./ / / / / w.w.T./ / / / ",
"/ / / T.T.T.w.w./ / / w.w.w.w./ / / / / / / / / / / / / L L L /././.(.(.v v (.).).).`.D ).% + O O 7 7 7 8 8 7 X. . .E ....E y.a.X (.).(.(.(.h M (.(.~.).M / / / / / / / / / / / / / / / / / / w.w.w.w./ / / w.w.T.T.T./ / / ",
"/ / / T.T.T.w.w./ / / w.w.w.w./ / / / / / / / / / / S Z (.(.].6././.k k !.~.~.~.~.).).A X 2 1 1 1 1 T 7 7 8 ..E .... . .E y.0 0 6 X (.(.(.(.(._.M A ).).L M M M M / / / / / / / / / / / / / / w.w.w.w./ / / w.w.T.T.T./ / / ",
"/ / / T.T.T.w.w./ / / / w.w./ / / / / / 4.w./ / S J `.`.^.(.(.].k k I.I.!.~.~.~.~./.(.O < 1 1 1 1 1 7 7  .X.X.E  . . ...E y.7 0 6 6 X (.(.(.(.).(.(.M G }.E.E.Y.Y.M M M / / / / w.w./ / / / / / w.w./ / / / w.w.T.T.T./ / / ",
"/ / / / w.4.w./ / / / / / / / / / / / / 8./ / k '.`./._.(./.k k /.I.I.I.(.!.~.~.!.~.& X. .1 1 1 6 5 X...E X.X... .X.X.X.a.E E 5 6 6 6 O _././._.)._._._.m h U.Y.Y.Y.W.Q.M / / / / w./ / / / / / / / / / / / / w.w.w./ / / / ",
"/ / / / / / / / / / / / / / / / / / / / / Z l '._.(._.^./.k !.(././.~.Y.~.(.~.(.~.!.& X.E  . .T E a.X...X.X.....X.X.E E p.E E 0 6 6 6 X ^._._._._.(.(._._._.y !.Q.Q.W.Q.W.g h / / / / / / / / / / / / / / / / / / / / / / / ",
"w.T.w./ / / / / / / / / / / / / / / / / k '.'._._._.(.k k (./.(./.~./.~.(.(.~.~.~.(.& X. . . . . .p.X.X.X.E X...X.X.o.p.E E E E 6 0 0 O ^.(._.(._.(._.(._._.(.u i W.W.Q.(.Q.(.i / / / / / / / / / / / / / / / / / / / w.T.w.",
"T.T.T.w./ / / / / / / / / / / / / / / / g '._.'._._.k ^./.(./.!././.(.(.(.~.).).).'.& X.E  . . . .a.X.X.X.X.X.X...X.E p.E E E E 6 6 6 O ^.!./.(.(.(.R.Q./.(.(._.(.t (.(.(.(.(.u / / / / / / / / / / / / / / / / / / w.T.T.T.",
"w.T.T.w./ / / / / / / / / / / / / / Z Z '.W P (.`.k /./././././.~.!.~.(.(.(.(.'.'.j.& X. . . . .y.X.X.X.X.X.X.X.X.X.X.p.E E E E E 6 6 O ].Q.^.^.^.W.E.E.^.^././.(.^.t (./.P W '.d f / / / / / / / / / / / / / / / / w.T.T.w.",
"/ w.w./ / / / / / / / / / / / / / Z '.'./.'.'.P k ^././././.(.(.!.(.(.(./.].'.d.s.j.% X.9  . .t.8 8 7 8 y.y.p.y.y.y.y.E E E E E  .6 6 O R.].].^.Q./.^.^.^.^./._.(.^.^.t P [.'./.'.'.d / / / / / / / / / / / / / / / / w.w./ ",
"/ / / / / / / / / / / / / / / / Z './.^.^./.^.z /.^./._./././.(.).(.).'.'.:.2.a.s.d.$ X. .E  .t.T T T r.r.r.r.r.r.r.r.E E E E T 9  .6 O R.D.F.].[.^.^.^.^.Q.Q.^.^.^.W./.t /./.(.(./.[.f / / / / / / / / / / / / / / / / / / ",
"/ / / / / / / / / / / / / / / Z _./.^./././.k _.^././.(.`.(.(.(.).(.'.-.-.:.2.a.s.o $ X.E  .y. .T E r.r.r.r.r.r.r.r.r.E E E E T 9 w 6 O R.D.D.F.S.[.Q.^.Q.^.^.^.^.W.^.^.^.t (./.(.(.I.'.d / / / / / / / / / / / / / / / / / ",
"/ / / / / / / / / / / / / / / Z '.W././.^.k _._././._.(._././._.(.].@.-.O.-.O.o o =.+ X. .y.X.X.r.r.r.r.r.r.r.r.r.r.X.E E E 9 9 9 9  .O m L.G.D.G.N.].^.^.^.^.W.W.^.^.^.^.^.t /./.(.W.[.c / / / / / / / / / / / / / / / / / ",
"/ / / / / / / / / / / / / / g (.W.W.W.W.z _._._._._._./._._._._.'.R O.O.@.o o =.=.C.% o.u.r.t.t.r.r.r.r.r.2 2 2 y.u.u.u.E E 9 9 9 9 9 O W.l k D.G.B.B.]._._.W.^.^.W.^.W.W.^./.t /.W.W.W.!.t / / / / / / / / / / / / / / / / ",
"/ / / / / / / / / / / / / / h (.W.W.W.W.z _._._.`._./.[.'._.'.'.R R R } o s.s.Z.Z.C.O y.r.r.r.r.r.r.r.r.2 2 < : 2 < 4 4 t.y.y.9 9 9 9 O U.W.Q.a S.N.B.B.]._._._.^.W.W.^././.(.t /.Q././.).t / / / / / / / / / / / / / / / / ",
"/ / / / / / / / / / / / / e /.W.W.W.W.k _._./.(./._.'.`.'.[.'.R R R o o s.C.Z.C.Z.C.O r.r.r.r.r.r.y.y.y.2 < : : , < 4 4 4 4 4 y.y.9 9 X U.K.K.Q.l l B.B.N.]._._._.^././.(./.(.(.A Q.Q.Q.!.!.y / / / / / / / / / / / / / / / ",
"/ / / / / / / / / Z Z Z Z Z Z Z Z Z Z Z Z R P P ].].].].].].R R R o @.<.Z.Z.C.C.C.C.O r.r.r.p.u.p.2 2 , 8 8 : : < , 4 4 4 4 4 4 4 u.y.X G.K.K.K.W.W.z B.f.4.[._._._.(./.W W P W A A A A A A A A M M D D / / / / / / / / / / ",
"/ / / / / T./ / Z ]._._.`.Q.Q.^.^.^.I.I.E.E.I.W.P P s.;.;.].C C o @.=.Z.C.Z.C.Z.C.C.O p.p.p.4 4 4 3 , 2 2 , 8 : : , 4 4 4 4 4 4 4 4 o.  G.U.U.R.R.R.E.f f.6.[.P P P P P (.(.(.(.!.!./.(.~.(.(.!.(.(.~.[.A / / / w./ / / / / ",
"/ / / / / / / Z ].'.`.`././.^.!.^./.^.I.W.E.^.Q.^.W.[.;.;.@.C o @.@.D.D.D.D.Z.C.C.Q.. r.4 4 4 4 4 , 2 , , * 3 8 : , 2 4 4 4 4 4 6 3 o.. U.K.L.U.R.R.R.E.e 4.s.[.'._.'.`.^./././.!.(.!.(.(.!.(.!.(.~.(.[.D / / / / / / / / / ",
"/ / / / / / / G ].^.^.^.Q././.^././././.^.^.Q.^.^.Q.W.[.].$.o =.@.D.C.D.C.S.C.Z.C.$.. X.4 4 4 , , 2 , , 2 4 , * : = , < 4 4 , , 3 4 w . K.L.L.D.I.R.R.R.E.r s.]._.'.^.^.^.^././.!.(.(.~.~.(.(.(.~.(.~.[.M Q Q / / / / / / / ",
"/ / / / / / / G ].Q./.^./.!.^./.Q./.Q.^.Q.^.^.^.Q.Q.Q.Q.[.W o =.D.C.C.S.S.D.C.G.G.{ . X.4 4 4 , , 2 , < < - , - 0 = , , 4 4 , , , 3 w . ^.K.K.L.K.R.R.R.W.t f.{.'.Q.Q././././.Q.(.(.!.(./.~.(.~.(.~.!.}.A Q Q Q / / / / / / ",
"/ / / / / / / J ].^././.!./.^.^.Q./././.Q./.^.^.^.^.Q.[.h.e @.#.D.D.G.w.s.D.G.K.D.W . X.4 4 4 , , , , , , * : * , 8 , 2 , , , , , , w   <.U.G.U.I.R.R.R.I.W.t s.[.Q.(.Q./.Q.Q.(.!.(.(.!.(.(.~.(.!.(.(.[.D Q Q Q / / / / / / ",
"/ / / / / / / J ].(./././.(.n.n.g././././.^./.^.^.^.Q.'.h.o @.=.D.D.D.R.R.1.G.K.K.3.. w , 3 4 , , 3 , , , 4 4 - , * , , , , , , , , 9 . <.G.U.U.L.R.G.R.I.I.e g.[.Q.!././.!.).).Q.(.Q.H.H.0.(.(.(.!.(.[.D Q Q Q / / / / / / ",
"/ / / / / / / J ]././.(.(.<.].`.[.6././././.^./.!.!./.[.o $.@.D.D.D.D.D.D.W.+.G.L.4.. w , , , , , , , < , , , 4 , 4 , , , , , , , , q   k.U.G.L.L.L.L.L.L.L.L.e [././.Q./.(.(.(.).(.!.e.'.)./.c.(.(.).[.D Q Q Q / / / / / / ",
"/ / / / / / / G 8.8.(.(.(.6./.#.(.0./.(././././.^.'.'.].e #.#.K.L.D.D.D.D.L.Q.+.+.4.. w , , , , , , , , , , , , , , , , 3 , , , , > q . l.L.K.U.L.L.L.L.L.L.I.e {.^.^.^./.(.(.(.)._.(.0.).9.9.9.).).).}.w.w.Q Q / / / / / / ",
"/ / / / / / / w.4.4.(.(._.#./.].(.$.(.(._._./._.(.'.'.].e #.#.K.L.L.D.D.U.L.!.w.4.8.. q , , , , , , , , , > , = = * , > > > 3 > , , q   l.U.U.L.L.L.I.L.L.I.L.e [.Q.Q.(.(.(.(.(.)./._.%.).'.'.W `.).).[.w.w.w.Q / / / / / / ",
"/ / / / / / / w.].(./.(.(.'.I I W '.(.(._./._./.(./.`.].e @.@.K.L.L.U.L.U.U.R.^.s.s.  q > , , > > 3 , , > 3 > 5 5 * , > , , > > > 3 q . U.U.K.L.G.I.L.L.L.L.U.u ].(.(.(./._.)./.).).).U S S `.].).`.).[.M ! w.Q / / / / / / ",
"/ / / / / / / J [.)._._._._.].].'._.`.(./._./._._.(.'.].e *.#.I.L.L.U.L.U.U.U.^.k.l.  q > , , , > , , , > = , = 3 * , 3 > , , > , 3 q   U.U.U.L.R.L.L.I.I.L.L.e {.(.(.(._.`./.).(.(.`.'.].'.`.`.`.).'.}.M ! Q Q / / / / / / ",
"/ / / / / / / Z ].'.(.`.).(.`.(._._._._.(.`.(.(.(.(.(.].r @.@.L.U.L.U.U.U.G.U.U./.l.  q , > > , , > > , , = > 3 3 3 > 3 > , > > 3 3 q . R.U.U.U.L.L.I.L.I.L.L.e [./.(./._._._./.(.`.'._.`.`.'.(.`.`.`.[.M ! Q Q / / / / / / ",
"/ / / / / / / Z [.'.'.).`.).).`._._._._.`.(.).(._.(._.].r @.@.L.U.U.U.U.U.U.R.R.R.j.  q > > , > , > > > > = = = > > > > , > , 3 3 3 q   R.U.U.U.G.L.L.G.S.S.D.e [.(.(.(./._.(.(.'._.'.`.`.`.'.'.`.`.`.[.J Q Q Q / / / / / / ",
"/ / / / / / / Z }.'.'.(._._._._.`.(._._.'.(.(.(.(.(.(.].r @.@.U.U.U.R.W.W.W.U.R.R.x.  q 3 , > , > > , 3 > 5 5 3 > > > , > > > 3 3 0 @ . R.R.U.U.L.L.L.K.S.C.S.e [./.(.`._.`.`.`.`.'.`.`.`.].`.T.`.`.`.[.M ! Q Q / / / / / / ",
"/ / / / / / / b }.'.].w.w.)._.).`.`.(._.(.`.(.'.(.N j l p r @.R.R.I.W.W.W.W.E.R.R.m.  q 3 > > > > , > > > > > > > > , > > > 3 3 0 @ ; . R.R.U.U.L.G.D.S.S.S.e I P P P _.`._.`.`.`.`.'.'.`.L.Y.L.Y.w.w.[.M Q Q Q / / / / / / ",
"/ / / / / / / k {.}.}.w.}.].[.[.].[.].[.I +.$.#.j.'.'.'.'.o *.Q.W.W.Q.R.W.W.W.R.R.Z.  q 3 3 > > > > > , , > > , > , 3 3 3 3 > 3 5 = ;   R.R.R.R.L.K.S.S.S.I.e _.`.`.`.P W N >.>.>.6.].{.].[.[.{.[.[.w.[.V Q Q Q / / / / / / ",
"/ / / / / / / t L.G.G.G.N.B.N.m.N.N.N._ ].].'.'.'.^.^.^.!./.z R.W.W.Q.Q.W.Q.R.R.R.V.  q , 3 3 3 3 3 , > > > , > > 3 3 3 3 > > 3 @ ; ;   R.R.R.R.R.R.R.S.S.k Q.Q.I.^.I.[.'.'.>.>.>.L.h.h.b.v.b.b.m.m.m.G.o Q Q Q / / / / / / ",
"/ / / / / / / t L.F.b.b.b.b.m.m.N.b.b.G N ]././.(.(.^.^.!.~.!.V R.Q.W.Q.Q.E.R.R.R.M.  q 3 3 3 3 3 3 > > > > > > > 3 3 3 3 3 4 = ; ;   C.R.R.R.R.R.R.R.R.m W.Q.W.I.Q.W.W.W.W.'.N E.s.h.g.j.j.v.v.m.v.m.L.i Q Q Q / / / / / / ",
"/ / / / / / / r F.v.j.b.3.&.&.` &.Y J A Z ]._././././.^./.!.!.'.C R.Q.W.W.Q.R.R.R.M.m.                                              Z.V.E.R.R.R.R.R.I.M K.Q.W.W./.W.W.W.W.W.'.K @.&._ &.` ` &.*.v.m.v.D.o Q Q Q / / / / / / ",
"/ / / / / / / e L.h.h.t './.!.Q.W.K.K.K.p a.]./.(.^./.(.(./.(.(.'.K E.W.Q.Q.W.R.R.M.B.V.x.l.l.k.k.k.k.k.l.k.k.c.8.8.8.8.3.6.<.7.8.C.V.Z.R.R.R.E.U.R.M Z.F.D.^.(.(.I.W.W.W.[.N.e K.!.Q.)._._._.].u v.v.G.r Q Q Q / / / / / / ",
"/ / / / / / / r A.d.d.t [./.Q./.E.E.K.K.a $.].(.^.(._.^./././.(./.'.K E.Q.W.Q.E.R.^./.V.V.V.C.C.C.C.C.C.C.C.H.C.H.C.V.H.V.C.C.C.V.A.B./.E.R.R.E.R.K x.Z.'.'./.^.(.(./.W.I.'.h.r L.W.Q.^._.(.(.'.o v.N.C.r Q Q / / / / / / / ",
"/ / / / / / / Q e t e t :.'.!.Q.!.E.E.E.E.p ;.].^.(./._.(.(./.(.(.].'.U F Q.Q.W.Q.R.R././././././.^./././.(././././.C.C.C.C./.^.^.(.^.W.R.R.R.m M n.x.`.(.^./.(././.Q./.[.R e K.!.W./.(./._.'.h.u r r r Q Q / / / / / / / / ",
"/ / / / / / / / Q Q Q t :.'.!.!.!.Q.E.E.E.a ;.3.].(._./.(.(._./._.(.'.(.(.K Q.Q.W.E.R.E.R.E.E.E.W.E.W.W.E.W.W.E.W.W./.^.C.C.E.E.R.W.R.R.E.R.k /.(.(.(./.^.(.(.(.(.(.(.[.W R u L.!.!.(././._.].j.e Q Q Q Q / / / / / / / / / ",
"/ / / / / / / / / / / Q e -.].Q.Q.!.Q.Q.E.E.g ,.N.[._.(.).(.(._.(.(.(./.(./.Z A W.W.Q.Q.E.E.W.W.E.E.E.E.W.E.W.W.E.W.E.E././.E.E.E.E.E.I.Z b _.(./.(.^._.(.(.(.(._.(.'.} $.y K.I.Q.Q./._.(.].} r Q Q Q / / / / / / / / / / / ",
"/ / / / / / / / / / / / t 2.d.].^.Q./.Q.W.E.W.f B.B.].].[._._._.`.(.`.(.(./././.v v v Q.W.I.E.I.E.Q.E.W.E.E.E.E.W.E.E.E.E.E.E.R.E.b b Z _.(._._._./.^._._.(._._.(.'.} R d K.K.K.Q.W._._.'.{ { e Q ~ / / / / / / / / / / / / ",
"/ / / / / / / / / / / / Q u v.'./.^.^.^.Q.Q.W h B.V.A.<.<.].'.(.(.(.).)./.(./.~.!.!.W.v b E.I.W.E.E.W.E.E.W.E.E.W.E.E.E.E.R.R.R.c Q./._._._._._._._._._.(.(.(.(.'.$.W } i r K.K.Q.(./._.'.{ o Q Q ! ( / / / / / / / / / / / ",
"/ / / / / / / / / / / / / e v.b.'./.^./.%.%.%.P d S.A.F.6.<.].(.(.`.).).(././.(.!.!.W.W.W.G D H H H ' _ Y Y Y Y H Y H ' J E.W.N Q.W.(._._.(.'._._._._._.`.(.[.].-.O.+.s H.H.I Y _.(._.'.{ { o ! Q ^ ( / / ) / / / / / / / / ",
"/ / / / / / / / / / / / / Q r N.N.'.%.%.].].'.R P d A.P.P.J.].`._.(._.(._.(.!.!.!.~.!.!.I.G `.`._._.'.).).).!.(.(.(.(.Q./.M m !.!._./.).(._._._._._._._._.].<.:.-.-.a H.H.L.I.E.C P '.<.{ e ! ! ! ^ / ( ( ^ / / / / / / / / ",
"/ / / / / / / / / / / / / / Q e N.W ].].^.^.^.].'.'.d A.J.J.J.].].'.(.'.).).(.(.(.!.~.~.e.).`.`.).'.).).(.).(.(././.(.(././.].I /./.(.(.`._._._._._._.[.{.2.2.:.-.p H.I.E.E.E.I.R.[.a f.o ! Q Q ( / / ( ( ^ / / / / / / / / ",
"/ / / / / / / / / / / / / ) ) r N.P G.].^.(./.(.^./.Q.c c J.J.P.A.].]._.(.(.(.(.(.~.(.~.e.).).~.).).).~.(.(.~.~.(.~.(.!./.(.'.I (.(./._.(.`._._._.[.[.3.3.,.2.p k Q.E.W.W.Q.E.E./.R a s.o ! ! ^ ( / / ^ ^ / / / / / / / / / ",
"/ / / / / / / / / / / / / / ) ! o R G.A.]././.(.^.Q.Q.^.).d H.P.C.S.V.].[.[.~.~.).(.(.] ].~.).~.(.(.(.(.~.(.(.(.(.(.~.(./.!.(.].W /./.(._._.[.].].s.3.,.,.;.z R.I.Q.Q.W.W.W.W./.} R a e Q n ( ^ ^ / / / / / / / / / / / / / ",
"/ / / / / / / / / / / / / / ^ ( ! e I.B.A.]._.(.Q.Q._._./._.f f C.V.V.M.M.x.[.[.{.).(.[ [.(.).).).).).).~.).(.(.(./.(./.(.~./.[._ ~.(.[.].[.1.1.3.3.<.,.p h I.E.W.Q.W.W.W.E.).W { C o Q Q / / / / / / / / / / / / / / / / / ",
"/ / / / / / / / / / / / / ) ( ^ ( ! a A.A.V.'.'._._./._.`.).].'.c h V.V.n.n.c.k.w.{.[.[ '.(.~.).~.~.).).H.(.(./.H.(././.(.(.~.]._ '.].w.w.w.<.<.3.,.j z R.E.Y.I.Q.Q.W.W.).).R R { a Q Q / / / / / / / / / / / / / / / / / / ",
"/ / / / / / / / / / / / / ^ ( ( ^ ( Q e V.V.A.D.'.(./._._.`.'.'.0.'.f e M.x.c.k.w.w.q.H '.).).).).).).).[.H.H.H.]./.).(.(.(./.[._ _ 7.w.7.1.1.<.m l /.P (.Y.I.W.W.W.W.!.} } R R o Q Q / / / / / / / / / / / / / / / / / / / ",
"/ / / / / / / / / / / / / / ^ ( ^ ^ / Q o A.A.V.A.'.'._.'.'.'.0._./././.e t t w.w.c.q.Y '.].`.).).).).).e.[.[.[.c.).).).).(.(.[.' H 7.w.7.e r r (._.(.'.n.).W.W.W.~.).#.} R R o Q Q / / / / / / / / / / / / / / / / / / / / ",
"/ / / / / / / / / / / / / / / / / / / / Q e e V.A.V.A.].].].%.(./././.!./.Q.E.t y y y Y [.'.].).).).).).[.e.[ %.[.).).).).(.(.[._ e e r r W.Q.W._._._.(.`.M.E.`.(.:.O.O.O.o o Q Q / / / / / / / / / / / / / / / / / / / / / ",
"/ / / / / / / / / / / / / / / / / / / / / Q Q e B.A.B.B.B.P [./././././.Q.!.E.R.Y.W.W.H [.).).].'.'.).).H [.'.].&.).).).).).(.[._ x.c./.~.~.W.W.(.(.(.(./.].[.f.:.:.:.$.o Q Q / / / / / / / / / / / / / / / / / / / / / / / ",
"/ / / / / / / / / / / / / / / / / / / / / / / Q e e A.B.B.P U.].[.].!.!.!.Q.Q.E.E.I.I.H [.).].).).].].).[.`.`.`.[.).).).).).(.{._ k.l./.!.!.~.(.(.).].].'.} j h.-.O.o o Q / / / / / / / / / / / / / / / / / / / / / / / / / ",
"/ / / / / / / / / / / / / / / / / / / / / / / / Q Q e e B.C R.N.m.N.].].[.[.Q.R.W.I.T.H }.).).).].).].).`.`.`.).).).).).).).).{.H l.l.!.!.!.].].'.'.| { } R l d.o o Q Q / / / / / / / / / / / / / / / / / / / / / / / / / / ",
"/ / / / / / / / / / / / / / / / / / / / / / / / / / Q Q e e I.N.v.N.v.h.v.d.'.'.'.'.'.G }.}.}.{.{.{.[.[.'.[.'.[.'.].].].].}.{.{.J H.x.'.'.[.=.=.*.| +.{ { { o o Q Q / / / / / / / / / / / / / / / / / / / / / / / / / / / / ",
"/ / / / / / / / / / / / / / / / / / / / / / / / / / / / Q Q e e b.N.N.v.v.d.d.j.d.,.@.t L.L.I.A.V.B.V.V.V.B.B.N.B.b.l.L.K.K.F.F.p V F 7.=.=.=.=.*.` *.{ o o Q Q / / / / / / / / / / / / / / / / / / / / / / / / / / / / / / ",
"/ / / / / / / / / / / / / / / / / / / / / / / / / / / / / / Q Q e e v.v.j.s.d.s.s.,.@.u L.L.B.B.B.B.B.B.B.m.B.n.m.j.v.v.v.j.F.D.o V V =.=.=.=.*.+.*.o o Q ! ) / / / / / / / / / / / / / / / / / / / / / / / / / / / / / / / ",
"/ / / / / / / / / / / / / / / / / / / / / / / / / / / / / / / / Q Q e e e e d.a.5.,.@.e L.M.B.B.B.B.n.N.m.b.b.b.v.v.j.j.j.v.j.F.o B F *.=.*.o o o o Q Q / / ) ( ( / / / ) ) / / / / / / / / / / / / / / / / / / / / / / / / ",
"/ / / / / / / / / / / / / / / / / / / / / / / / / / / / / / / / / / Q Q Q Q e e e e e e D.N.B.B.v.j.d.j.d.d.l.v.v.v.v.j.j.d.d.S.o o o o o o Q Q Q Q / / / / ^ ( ( / / ( ) / / / / / / / / / / / / / / / / / / / / / / / / / ",
"/ / / / / / / / / / / / / / / / / / / / / / / / / / / / / / / / / / / / / / Q Q Q Q Q e K.N.B.-.*.,.d.d.s.d.d.d.j.j.d.j.j.j.a.S.o Q Q Q Q Q / / / / / / / / / ^ ^ / ( ( ( / / / / / / / / / / / / / / / / / / / / / / / / / ",
"/ / / / / / / / / / / / / / / / / / / / / / / / / / / / / / / / / / / / / / / / / / / e F.3.*.=.*.,.d.d.a.d.a.d.d.d.a.a.a.a.a.S.o Q Q / / / / / / / / / / / / / / / ( ( ^ / / / / / / / / / / / / / / / / / / / / / / / / / ",
"/ / / / / / / / / / / / / / / / / / / / / / / / / / / / / / / / / / / / / / / / / / / Q o o o e e o o o o o o o o o o o o o o o Q Q / / / / / / / / / / / / / / / / ^ ^ / / / / / / / / / / / / / / / / / / / / / / / / / / ",
"/ / / / / / / / / / / / / / / / / / / / / / / / / / / / / / / / / / / / / / / / / / / / Q Q Q Q Q Q Q Q Q Q Q Q Q Q Q Q Q Q Q Q Q / / / / / / / / / / / / / / / / / / / / / / / / / / / / / / / / / / / / / / / / / / / / / "
};
