/* XPM */
static char *Smoke_1[] = {
/* columns rows colors chars-per-pixel */
"110 73 179 2 ",
"   c #4F2913",
".  c #512B14",
"X  c #5A361D",
"o  c #7D3515",
"O  c #5C3A23",
"+  c #5E4029",
"@  c #564A3E",
"#  c #61412A",
"$  c #654934",
"%  c #5D5349",
"&  c #62594B",
"*  c #676159",
"=  c #6A635B",
"-  c #6F695A",
";  c #70675B",
":  c #736C5E",
">  c #6E6960",
",  c #726C63",
"<  c #736F68",
"1  c #777166",
"2  c #797266",
"3  c #767168",
"4  c #7A746A",
"5  c #7E796D",
"6  c #797770",
"7  c #7A7870",
"8  c #823716",
"9  c #843917",
"0  c #883B17",
"q  c #863C1C",
"w  c #893C19",
"e  c #8C421E",
"r  c #8D4927",
"t  c #8D4C2B",
"y  c #924521",
"u  c #974C27",
"i  c #94512C",
"p  c #99532D",
"a  c #8E5231",
"s  c #955633",
"d  c #945937",
"f  c #9D5A35",
"g  c #935B3B",
"h  c #A1522A",
"j  c #A15D36",
"k  c #A15E39",
"l  c #817F20",
"z  c #9C613B",
"x  c #A2633B",
"c  c #9D6642",
"v  c #9C6A46",
"b  c #9F7149",
"n  c #9A7A5D",
"m  c #A56A43",
"M  c #A66B47",
"N  c #A96E43",
"B  c #A77047",
"V  c #AA7046",
"C  c #A4714A",
"Z  c #AB744B",
"A  c #AF794E",
"S  c #A97750",
"D  c #AE7C53",
"F  c #A87B57",
"G  c #A2765B",
"H  c #A57A5D",
"J  c #B27F56",
"K  c #807B6F",
"L  c #9C7E63",
"P  c #837E72",
"I  c #A97F62",
"U  c #8F8824",
"Y  c #948D29",
"T  c #99912E",
"R  c #ACB828",
"E  c #C1C52D",
"W  c #C9CD35",
"Q  c #D1D43D",
"!  c #AE8259",
"~  c #AF8A5E",
"^  c #B38256",
"/  c #B28359",
"(  c #B4885C",
")  c #9D8265",
"_  c #9E8469",
"`  c #9F886C",
"'  c #868175",
"]  c #888477",
"[  c #8A867A",
"{  c #88857D",
"}  c #9F8C73",
"|  c #A18564",
" . c #A88765",
".. c #A2856B",
"X. c #A68C6A",
"o. c #AA8C6A",
"O. c #B28D62",
"+. c #B38B69",
"@. c #B88E6C",
"#. c #A79068",
"$. c #AB926C",
"%. c #B59068",
"&. c #A28C73",
"*. c #AA8D70",
"=. c #A28E79",
"-. c #B18E71",
";. c #A69176",
":. c #AB9474",
">. c #AD9977",
",. c #A4937B",
"<. c #AA957B",
"1. c #AE9A7C",
"2. c #B29276",
"3. c #B69777",
"4. c #B39C75",
"5. c #B39E7C",
"6. c #B99B7C",
"7. c #B2A17A",
"8. c #C29F75",
"9. c #53A6B5",
"0. c #56A9B8",
"q. c #918D82",
"w. c #949187",
"e. c #99968D",
"r. c #9C998E",
"t. c #9B9890",
"y. c #A69983",
"u. c #AB9C84",
"i. c #AB9E89",
"p. c #B49E84",
"a. c #B89F88",
"s. c #AB9F90",
"d. c #AEA28D",
"f. c #B4A284",
"g. c #BAA484",
"h. c #B5A58A",
"j. c #BBA68A",
"k. c #B9A98D",
"l. c #AFA391",
"z. c #B1A694",
"x. c #BAA690",
"c. c #B3A996",
"v. c #BCAD94",
"b. c #B2A798",
"n. c #B5AB9B",
"m. c #B9AF9B",
"M. c #BEB196",
"N. c #BDB19A",
"B. c #B8AFA2",
"V. c #BDB5A3",
"C. c #BEB8A5",
"Z. c #BFB6A9",
"A. c #BFB8AA",
"S. c #C2B49C",
"D. c #C3B89F",
"F. c #C1B6A3",
"G. c #C3BAA6",
"H. c #C3BDAC",
"J. c #C5BFB1",
"K. c #C4C0AF",
"L. c #CAC1AD",
"P. c #DBC7A2",
"I. c #C6C3B3",
"U. c #CAC5B5",
"Y. c #CCC7B9",
"T. c #CECABC",
"R. c #D0CDBE",
"E. c #D2D0BF",
"W. c #CFCDC1",
"Q. c #D1CEC1",
"!. c #D4D1C5",
"~. c #D8D5C7",
"^. c #D6D3C9",
"/. c #D8D6CA",
"(. c #DAD8CE",
"). c #DDDCD3",
"_. c #E0DED6",
"`. c #E1DFD8",
"'. c #E2E1DA",
/* pixels */
"E E E E E E E E E E E E E E E E E E E E E E E E E E E E E E E E E E E E E E E E E E E E J J J J J ^ / / ^ ^ ^ ^ ^ J A A A A N E E E E E E E E E E E E E E E E E E E E E E E E E E E E E E E E E E E E E E E E E E E E E E E ",
"E E E E E E E E E E E E E E E E E E E E E E E E E E E E E E E E E E E E E E E E E E E V ^.T.T.T.Y.Y.!.Q.!.!.~.!.!.!.!.~.!.Y.Y.V U U E E E E E E E E E E E E E E E E E E E E E E E E E E E E E E E E E E E E E E E E E E E E ",
"E E E E E E E E E E E E E E E E E E E E E E E E E E E E E E E E E E E E E E E E E E E Z /.T.!.!.!.~.^.!.!.~.~.!.!.~.!.~.!.!.Y.Y.V U U E E E E E E E E E E E E E E E E E E E E E E E E E E E E E E E E E E E E E E E E E E E ",
"E E E E E E E E E E E E E E E E E E E E E E E E E E E E E E E E E E E E E E E E E E E V (.!.!.^.!.!.^.!.p.f.p.p.p.~.!.!.!.!.!.Y.Z U U E E E E E E E E E E E E E E E E E E E E E E E E E E E E E E E E E E E E E E E E E E E ",
"E E E E E E E E E E E E E E E E E E E E E E E E E E E E E E E E E E E E E E E E E E E V (.!.!.!.!.~.~.^._._._._.g.~.~.E.~.!.!.(.Z U U E E E E E E E E E E E E E E E E E E E E E E E E E E E E E E E E E E E E E E E E E E E ",
"E E E E E E E E E E E E E E E E E E E E E E E E E E E E E E E E E E E E E E f f j f m V (.!.~.!.!.^.!.~.p.p.p.p.p.~.~.~.~.!.~.).Z 9 9 f f f E E E E E E E E E E E E E E E E E E E E E E E E E E E E E E E E E E E E E E E E ",
"E E E P.7.E E E E E E E E E E E E E E E E E E E E E E E E E E E E E E M M M T.T.T.T.T.V (.~.!.~.~.^.~.# # # # # + # ~.~.!.~.~.).Z k.k.T.Y.Y.f f f E E E E E E E E E E E E E E E E E E E E E E E E E E E E E E E E 7.P.E E E ",
"E E E P.E E E E E E E E 7.E E E E E E E E E E E E E E E E E E E M Z Z Q.!.T.T.Y.T.T.T.V ).!.!.~.!.~.X 2 2 2 2 2 1 1 X X X ~.~.).Z k.k.T.T.Y.W.W.!.z x x E E E E Q E E E E E E E E E E E E E E E E 7.E E E E E E E E P.E E E ",
"E E E E E E E E E E E E E E E E E E E E E E E E E E E E E E E ! Q.^.Q.Q.!.Y.j f j j j V (.~.~.~.~.X 2 2 K 2 2 2 2 ' ' P ' X X X Z z z z x j !.!.E.E.E.!.x E E E W W E E E E E E E E E E E E E E E E E E E E E E E E E E E E ",
"E E E E E E E E E E E E E E E E E E E E E E E E E E E E D D D Q.Q.Q.Q.^.f j !.~.~.~.~.V ~.+ + O O 2 K 4 2 2 2 P [ ' ' ' ' ' e.y.X !.~.!.!.!.p x !.!.!.!.x E E E E E E E E E E E E E E E E E E E E E E E E E E E E E E E E E ",
"E E E E E E E E E E E E E E E E E E E E E E E E E E m M Q.!.).2.Q.Q.f f R.E.E.E.R.~.~.N X - : : : : 4 2 2 2 ] ] ' ] ' ' P e.2 2 1 X !.!.!.!.!.^.x V ~.~.D x x x x E E E E E E E E E E E E E E E E E E E E E E E E E E E E E ",
"E E E E E E E E E E E E E E E E E E E E E E E E M M ^.(.!.Q.!.).f j J.J.R.E.E.E.E.E.~.O - ; : : : : 2 2 ] { ] P ' ' ' ] P e.2 2 1 1 X !.~.!.!.!.~.!.x Z '.Y.U.L.L.x x x E E E E E E E E E E E E E E E E E E E E E E E E E E ",
"E E E E E E E E E E E E E E E E E E E E E E E f (.(.!.Q.!.W.f f Q.J.J.J.E.R.R.R.E.R.# [ [ : : : : < [ { ] { ] ] ] ] ] P t.P P 2 1 1 1 O !.!.Q.^.!.^.^.^.f s I.L.L.L.T.Y.x E E E E E E E E E E E E E E E E E E E E E E E E E ",
"1.E E E E E E E E E E E E E E E E E E E E m g (.!.!.!.!.Q.f E.Q.Q.Q.E.L.E.~.~.E.E.E.$ [ ' ' ' K ' y.[ ] { ] ] { { ] ] { e.P P 2 1 1 1 O W.!.^.^.^.!.!.^.!.!.w T.T.T.T.T.T.u i E E E E E E E E E E E E E E E E E E E E E E 7.",
"E E E E E E E E E E E E E E E E E E E E f (.).^.^.^.!.f f !.Q.E.Q.R.R.!.!.E.!.E.E.!.$ [ ' ' ' ' ' t.[ [ [ ] [ ] ] ] P t.P P P P 1 1 1 O Q.!.^.!.^.^.^.!.!.(.!.q w T.T.Y.!.E.W.e E E E E E E E E E E E E E E E E E E E E E E ",
"E E E E E E E E E E E E E E E E E E E E i (.^.^.^.^.f Q.Q.!.Q.!.Q.!.!.!.E.~.~.!.~.(.$ [ P ' ' ' ' y.[ [ [ [ [ { ] ] { e.P P P P 1 1 1 O W.W.Q.!.!.!.I.Y.!.!.!.!.!.0 !.!.!.Q.Q.e E E E E E E E E E E E E E E E E E E E E E E ",
"E E E E E E E E E E E E E E E E E E m m (.G I !./.f Q.Q.Q.Q.T.E.E.R.!.!.!.!.!.).(.d.# [ ' ' ' ' e.{ [ [ [ [ [ [ [ [ { e.' P P P P 1 1 O ).T.W.W.T.Y.Y.U.W.W.Q.!.!.Q.0 !.Q.G I (.y y E E E E E E E E E E E E E E E E E E E E ",
"E E E E E E E E E E E E E E E E E m (.(.W.).(.G f W.Q.Q.Q.!.!.!.R.!.!.!.!.(.(.u.d.d.# [ ' ' K w.2 2 2 4 e.r.r.e.e.e.t.P P P P P ' 1 1 O I.).).W.T.Q.W.W.W.W.Q.!.!.T.T.0 G (._.Q._.(.u E E E E E E E E E E E E E E E E E E E ",
"E E E E E E E E E E E E E E E E m (.W.Q.Q.Q.W.s Q.W.W.Q.Q.!.W.!.!.!.!.(.(.=.=.y.u.i.# [ ' K ' w.K K K q.q.q.q.q.q.q.q.P P P P 5 5 ' 1 O I.C.V.)._.W.W.T.W.T.T.W.W.W.T.!.8 !.Q.!.Q.Q._.y E E E E E E E E E E E E E E E E E E ",
"E E E E E E E E E E E E E E E m ^.Q.Q.W.Q.Q.s ^.W.W.!.!.^.!.!.!.!.!.(.&.&.=.;.y.u.o + ] ' ' r.K K P q.q.q.q.q.q.q.q.q.P ' P P 5 5 7 1 O I.A.A.Z.V._.R.W.T.W.W.T.W.T.T.W.W.8 Q.!.Q.Q.J./.y E E E E E E E E E E E E E E E E E ",
"E E E E E E E E E E E E E E E m (.T.Q.Q.W.f !.^.Q.Q.^.^.!.^.Q.!.~.(.X.&.X.} } o o $.# { ' e.[ q.q.q.q.q.q.q.q.q.q.q.q.' K P 5 5 7 5 ' O c A.A.V.A.b.).W.W.W.Y.W.Y.W.W.T.W.W.0 !.Q.Q.W./.h E E E E E E E E E E E E E E E E E ",
"E E E E E E E E E E E E E E u ^.Y.Y.Y.Y.f !.!.^.^.^.^.^.!.!.^.!.(.) &.} } o o :.o.S.# [ r.q.w.q.q.q.w.[ q.; ; ; e.e.e.r.P P 5 5 5 5 5 O T.f g A.A.n.n.).^.^.W.Y.W.Y.Y.T.Y.W.Q.8 Q.W.T.W.!.0 E E E E E E E E E E E E E E E E ",
"E E E E E E E E E E E E E E p Q.Y.Y.Y.Y.s ^.^.^.!.^.Q._.(.^.(._.L L L _ o u.u.N.M.M.O e.q.q.q.q.q.q.q.w.; - - & - - , : w.e.e.5 5 5 5 O G.T.T.i V.b.n.n.).!.^.(.W.Y.W.Y.!.!.Q.w T.T.T.Q.~.0 E E E E E E E E E E E E E E E E ",
"E E E E E E E E E E E E E 8 Q.Y.Y.Y.Y.s ^.^.!.^.!.^./.^._._.(.L L ) o o u.M.M.M.N.N.O q.q.q.q.q.q.e.e.e.; ; & & = - , , , , , e.e.5 5 O G.G.G.Y.g g n.n.b.).(.!.!.W.!.!.Q.!.!.Q.N R.T.R.R.R.w E E E E E E E E E E E E E E E ",
"E E E E E E E E E m m m m m m m m m m x c G I L ).).)._.).).L L L o #.:.M.N.M.N.N.N.O q.q.q.t.t.t.= > - 4 4 & & = - , , , , , , , r.t.X A.G.G.K.T.Y.s b.p.u.).^.^.^.Q.Q.I I G I N N N x V V N N m m V x E E E E E E E E E E ",
"E E E E E E E E m (.^.^.^.R.T.W.W.W.Y.J.Y.U.J.U.G G u.*.*.).n n o X.$.M.M.N.N.M.N.N.O t.t.t., , , ; = ; ; = 4 & & = , , , , , , , > {   K.G.C.I.I.K.U.u i.2.).I G G G I !.!.!.!.R.R.!.!.R.~.R.~.E.!.E.'.N E E E E E E E E E ",
"E E E E E E E m ).(.^./.Q.W.W.R.W.W.W.J.Y.U.W.T.W.Y._. .o.X.n o X.#.V.V.V.V.M.N.N.Y.. q., , , , , ; = = = 9.= 6 & = = , : , , , < , q.. C.C.G.K.I.I.I.Y.9 5.p.).(.(.^./.W.W.W.Q.R.!.!.R.!.R.!.R.Q.E.!.).N E E E E E E E E E ",
"E E E E E E E Z ).Q.W.W.R.W.Q.R.W.W.Q.Q.T.W.W.W.Y.W.Y._.)...o $.X.V.V.V.V.V.N.M.N.X.. [ , , , = = = - = ; , - 9.& 9.- = , , ; = > > 6 . K.K.G.K.K.I.J.I.U.8 <.`.(.^.Q.W.W.Q.W.W.R.!.R.!.R.~.R.~.!.!.E.'.N U U E E E E E E E ",
"E E E E E E E C ).T.T.Q.Q.Q.W.R.W.T.R.W.T.W.W.T.W.W.T.T._.I o $.V.C.N.V.V.C.V.C.C.) . { , , , = - > = = = 9.> 0.3 9.= = , , = = = > 7 . W.K.A.G.H.I.I.I.T.w p.`./.!.R.R.W.R.Q.R.Q.!.R.R.!.E.Q.E.E.!.!._.N U U U E E E E E E ",
"E E E E E E E Z ).W.Q.W.E.E.Q.Q.Q.Q.R.Q.T.Q.W.W.W.W.T.(.s.8 X.o.C.C.C.1.7.C.C.C.C.I . [ , , , = = = - = - 9.9.0.= 4 = = * = = = = = 7 . :.G.K.K.H.I.K.I.J.J.8 p.`.J.Q.W.Q.Q.T.!.!.Q.!.!.E.!.!.E.!.R.E._.N U U U E E E E E E ",
"E E E E E E E Z ).W.!.Q.Q.Q.x.x.a.Q.Q.Q.Q.Q.W.Q.T.W.T._.i.8 X.$.C.C.C.I.I.>.A.A.H.<.. 6 = , > = ; = = = = , , 0.= 9.= - = = = = = = 5 . ;.G.H.K.J.I.J.I.J.J.8 p.`.W.R.Q.R.R.~.!.Q.Q.~.a.j.8.Q.~.~.!.!._.N U U U E E E E E E ",
"E E E E E E 7.V ).!.Q.!.Q.<.).(._.2.Q.Q.Q.Q.Q.W.Q.T.Q._.o ..o.A.H.N.C.C.C.T.) G.G.1.. 6 = = > = = = = = = = = , = , = = = = = = * * 6   f.K.H.G.A.H.H.G.H.H.J.0 _.R.Q.T.Q.!.!.~.~.Q.~.6.(._.~.a.R.!.~._.V U U 7.E E E E E E ",
"E E E E E E E V ).Q.!.!.!.2.Q.+.!.2.!.Q.Q.Q.!.Q.W.(.).).8 o.$.A.H.C.C.C.C.H.T.| | <.. 6 = = = = = = = = > * = = = = * = = = > * = = 6 . h.K.G.K.H.H.H.H.A.H.I.9 ).W.W.Q.Q.!.!.!.~.Q.~.6.~.6.6.6.~.~.~._.x U U U E E E E E E ",
"E E E E E E E M ).!.Q.!.!.o.!.(.!. .!.Q.!.!.!.Q.!.(./.).8 X.X.G.H.H.C.C.K.H.T.7.u.5.. 6 = = = = = = = = = = = 9.9.9.> = = * * * * = 6 . h.H.H.H.J.H.H.J.J.H.H.9 ).W.W.!.Q.^.Q.~.!.~.^.+.!.(./.I /.~.~._.x U U U E E E E E E ",
"E E E E E E E N `.^.!.!.!.(.H H I (.!.^.^.!.Q.!.!.!.~.).8 X.o.G.H.H.K.H.K.K.I.W.5.u.  6 = = = = = = = = * = = > < 0.= = = = = * * > 6 . K.G.K.H.H.J.H.J.J.H.K.9 ).!.!.!.!.^.!.!.!.~.!.F C C /._.~.~.~._.^ U U U E E E E E E ",
"E E E E E E E M ).^.^.^.^.^.).).).^.^.^.^.!.^.!.!.!.(.).8 X.X.I.H.H.H.K.K.K.K.W.d.h.  6 = * = = = = = = * 9.> 9., 9.= = = = * = = > 6   K.K.K.H.H.H.J.A.H.H.H.9 ).!.!.!.!.!.^.!.!.!.^.).(.(././././.~._.x U U U E E E E E E ",
"E E E E E E E M ).(.^.!.^.!.^.^.!.^.^.!.!.~.!.~.!.!.!.).8 o.o.H.K.K.K.K.K.K.K.K.W.h.  6 = * * = * * = = * 9.* < > > * > * * * > > > 6   I.I.K.K.J.H.J.H.H.H.H.9 _.!.!.!.^.!.^.!.W./.(.^././././.(.(.~._.^ U U U E E E E E E ",
"E E E E E E E M `.(.(.^.(.~.^.^.^.^.^.^.^.~.^.!.!.!.^.).8 o.#.H.K.K.K.K.K.K.K.K.I.h.  6 * * = * * = = * * 9.9.9.* * * * * = * > > - 6   I.K.K.K.H.A.H.A.V.V.V.9 _.Q.!.!.!.!.!.!.(.(./.(.(.(././.(.~.~._.x Y U U E E E E E E ",
"E E E E E E E m `.(.(.^.~.^.~.~.^.^.^.^.^.!.!.^.^.^.^.).8 o.X.I.K.A.K.T.Y.Y.K.I.K.k.  6 > > * * = * * = = < < > * * * * > * * > > < %   I.I.I.H.H.K.A.G.V.V.V.9 _.Q.!.^.^././././.(.(././././.P./.~.(._.x Y U U E E E E E E ",
"E E E E E E E k '.(.(.(.^.~.^.^.^.^.^.^.^.!.^.^.!.c d g r 8 #.I.I.I.Y.Y.Y.Y.Y.K.I.c.  6 > * * * * = = * * = * * * * * * * * * > > @ % . I.I.I.G.G.A.C.Z.V.V.9 G G G G ^./.^./././.(./././.L.L.H.L./.(._.x U U U E E E E E E ",
"E E E E E E E f `.`.`.`.'.).)._._._.)._.H |  .*.d.(.(.(.(.o X.Y.Y.Y.Y.Y.Y.T.Y.I.I.v.  6 > > * * = * * * * = * * * * > > > * * > < @ %   I.I.I.I.G.H.V.V.V.H.q ^./././.G I c -.-.-.2.).`.).`._.`._._.).).C U U U E E E E E E ",
"E E E E E E E w H.A.J.A.b.n.n.b.n.b.n.! _.(./.(.).W.W.W.E.Q.f I.Y.T.Y.T.Y.T.K.I.I.M.  6 = > > > > > = = * * = = > > > > > * * > @ % %   I.I.I.I.I.I.I.V.V.z Y.Y.J.W.J.(.(.(.-.-.-.J.s.s.l.l.z.z.c.c.c.H.9 U U U E E E E E E ",
"E E E E E E E q A.H.k.z.l.z.c.c.z.c.z.Z c ).Q.Q.!.W.W.W.T.E.T.v I.W.T.Y.Y.Y.I.I.I.M.  6 > > > > > > * * * * * * * > > > > * < % % %   N.I.I.U.I.I.I.J.J.k T.Y.Y.R.J.W.J.Y.Y.(.m U.i.s.a.d.l.l.l.c.l.c.H.9 U U U E E E E E E ",
"E E E E E E E 8 A.d.l.z.<.O.O.O.O.D V m M ).!.Q.W.!.Q.W.Q.Q.E.(.n I.Y.Y.T.T.I.I.I.v.c.                                              N.N.I.I.I.I.I.I.J.m F.Y.Y.W.J.!.J.Q.W.J.(.C O.(  .( ~ O.O.#.c.l.l.C.9 U U U E E E E E E ",
"E E E E E E E 8 H.s.s.0 (.Q.R.R.Y.G.G.F.r y.).Q.!.Q.Q.W.Q.Q.!.!.(.S I.T.T.T.T.I.I.c.m.m.h.h.h.f.f.f.f.f.h.f.g.g.5.5.5.5.:.2.:.2.u.N.N.N.I.I.U.I.I.I.z M.H.F.Q.Q.~.R.J.T.J.`.b.8 G.T.T.^.^.^.^.).q l.l.A.9 U U U E E E E E E ",
"E E E E E E E q B.s.i.0 (.Q.T.T.L.Y.G.G.t X.).!.Q.!.!.!.Q.!.Q.!.!.(.S I.Y.T.T.I.I.Q.Q.m.m.M.N.N.N.N.N.N.N.N.N.N.S.N.N.N.S.m.N.M.N.B.v.W.I.I.I.U.I.S j.M.^.^.Q.Q.R.!.Q.W.J._.s.0 H.T.Y.!.!.^.Q.(.q l.z.B.9 U U E E E E E E E ",
"E E E E E E E U 9 8 9 8 ,._.R.R.Q.Y.U.U.Y.r *.(.W.!.!.!.!.!.!.Q.!.).(.F S T.T.Y.T.I.I.Q.Q.Q.Q.Q.W.W.Q.!.W.!.!.W.Q.Q.N.N.N.N.!.W.Q.Q.Q.I.U.I.I.z z v.j./.W.!.Q.!.!.W.Q.Q._.L 8 H.R.T.!.W.Q.^.(.l.o 9 9 9 U U E E E E E E E E ",
"E E E E E E E E U U U 8 =./.R.R.T.R.U.U.U.t *.<.).!.!.!.!.!.!.!.!.!.(.!.Q.S Y.T.T.I.I.Y.I.I.I.Y.U.U.Y.Y.U.U.Y.Y.Y.Y.Q.W.N.N.U.U.I.I.Y.Y.I.I.f !.!.!.Q.!.!.!.!.!.!.W.!.(.I I 8 J.T.T.Q.!.!.^.(.d.9 U U U U E E E E E E E E E ",
"E E E E E E E E E E E U 8 =.(.R.T.T.W.T.U.U.i <.b._.!.!.!.!.!.^.!.!.!.!.!.Q.m N T.Y.Y.T.Y.J.J.Y.U.Y.I.Y.U.U.Y.U.Y.U.I.Y.Q.Q.I.I.U.U.U.U.x m !.!.!.!.Q.^.!.^.Q.!.^.Q.(.L  .w G.J.T.T.^.^.!.(._ 9 U U U E E E E E E E E E E E ",
"E E E E E E E E E E E E 8 ;.s.).W.T.T.W.J.Y.J.h b.n.)._.).!.^.^.^.^.^.!.!.Q.Q.Q.j j j T.Y.Y.Y.T.Y.U.Y.Y.Y.U.U.Y.U.U.U.Y.I.Y.Y.I.Y.k x k !.^.^.^.!.!.Q.^.^.^.^.!.!.(.....y G.G.G.T.T.!.!.(.) ) 9 U T E E E E E E E E E E E E ",
"E E E E E E E E E E E E U q h.(.Q.Q.W.W.Q.T.I p n.B.B.2.>._.^.~.~.^.~.!.Q.Q.!.R.W.R.Y.j j U.J.J.U.U.I.Y.U.U.U.U.Y.U.U.U.I.Y.I.I.u T.!.^.^.^.^.^.^.^.^.^.Q.^.^.Q.(....._ y 9 G.G.T.W.!.!.(._ o U U Y W E E E E E E E E E E E ",
"E E E E E E E E E E E E E 8 s.z./.W.Q.Q.+.+.+.G y n.V.Z.>.:.).^.^.^.~.~.Q.~.R.!.R.R.Y.Y.Y.Z V A A A ^ ^ J J J J J A A ^ Z I.I.m T.T.!.!.^.^.!.^.^.^.^.^.^.~._.).&.&...r j.S.H I !.!.!.(.) ) o Y U R W E E Q E E E E E E E E ",
"E E E E E E E E E E E E E U 8 b.b.(.@.+.).).(.L G y B.V.S.F._.^.^.^.^.!.!.!.Q.Q.R.E.R.R.J.A ~./.^./.~./././.!.!.!.Q.Q.!.!.z x R.R.Q.!.~.^.^.^.^.^.^.^.^.^._.<.=.&.X.t S.S.J.J.U.n G (.<.) 9 Y Y Y R E W W R E E E E E E E E ",
"E E E E E E E E E E E E E E U q b.G ).).W.Q.W.).).).y V.D.D.D.).).^.^.^.~.~.!.!.!.R.E.E.8.~.~.~.~./.~.~.E.!.R.!.!.Q.!.T.Q.Q.(.F Q.!.!.!.^.^.^.^.^.^.^._.).*.;.;.&.r S.I.U.U.L.L.U._.t p.o Y U U W E E W W R E E E E E E E E ",
"E E E E E E E E E E E E E Q Q 9 n.L A.(.!.W.Q.Q.T.T.W.h h D.D.F.V.).).^.!.E.!.E.!.E.!.E.8.~.!.E.~.~.!.!.!.!.E.!.!.E.E.!.W.E.).H !.!.!.Q.^.^.^.^.^._._.<.<.;.;.r g Y.U.Y.Y.Y.U.U.!.L t u.o Y Y R W E E R R E E E E E E E E E ",
"E E E E E E E E E E E E E E Q Y 8 L A.B.).Q.!.!.T.T.T.W.!.y S.G.N.N.m.)._._.!.!.~.!.!./ (.!.~.E.~.!.!.!.~.E.~.Q.Q.!.!.Q.!.!.!.(.H !.Q.^.^.^._.).).y.,.<.<.=.a I.U.R.Y.Y.Y.T.Y.Q.L L t 8 U l W R R E E E E E E E E E E E E E ",
"E E E E E E E E E E E E E E R W Y 9 A.m.B.(.!.!.W.W.!.!.^.!.u u B.m.m.v.v.k.).).`.~.~.( _.!.~.~.~.!.!.~.~.~.!.~.!.!.~.R.Q.Q.Q._.! E.Q.)._._.>.>.<.<.<.*.t d U.L.T.Y.T.Y.Y.Y.!.I L n o U U E E E E E E E E E E E E E E E E E ",
"E E E E E E E E E E E E E Q W R W Y t B.B.m.(.(.!.!.!.!.^.^.(.(.h u m.m.v.k.j.f.7.`._.( (.~.~.E.~.~.~.~.S.~.E.E.S.!.Q.Q.~.Q.!.).^ (.).7.7.7.>.:.;.<.d s J.L.J.J.Y.T.Y.Y.~.~.I L ) t U U E E E E E E E E E E E E E E E E E E ",
"E E E E E E E E E E E E E R W W R W U 9 n.B.B.C.(.!.^.^.^.^.(.(.3.(.u 8 v.k.g.f.7.7.%.A (.~.~.~.E.~.~.~.(.S.S.S.).!.~.!.Q.!.E._.! ! 4.7.4.>.>.:.g g R.G !.L.J.Y.Y.T.T.R._ L L L o U U E E E E E E E E E E E E E E E E E E E ",
"E E E E E E E E E E E E E E R W R R E U q n.m.B.B.(.(.^.(.(.).@.~.!.Q.Q.9 0 0 7.7.7.$.J (.(.(.~.~.~.~.~.8._.).).g.!.~.~.~.!.!._.! A 4.4.4.8 8 8 ^.~.!.!.S.~.Y.Y.Y.E.E.o.` L L o U U E E E E E E E E E E E E E E E E E E E E ",
"E E E E E E E E E E E E E E E E E E E E U 8 8 B.B.B.n.)._.).@.^.Q.W.Q.E.T.T.U.9 0 w w J _.~.(.(.~.~.~.~._.@.%.@._.~.~.~.~.~.!._.! 8 8 9 9 Y.T.Y.!.^.^.!.^.S.U./.!.=.} } ` o o U U E E E E E E E E E E E E E E E E E E E E E ",
"E E E E E E E E E E E E E E E E E E E E E U U 9 B.n.m.m.n.G ).Q.Q.Q.W.!.E.T.U.U.U.U.L.J _.(.~.(.(.(.~.~.A _.).).@.~.~.~.~.~.~._.! v.h.E.E.E.Y.Y.~.!.~.!.Q.).(.p.&.=.=.} o U U E E E E E E E E E E E E E E E E E E E E E E E ",
"E E E E E E E E E E E E E E E E E E E E E E E U o 9 B.n.n.G I.).).).!.T.E.T.T.U.Y.U.P.A _.~.~.).).~.(.(._././.~.(.~.~.~.~.~.!._.S k.h.W.T.E.!.!.!.!.).(.(._ g i.&.} o o U E E E E E E E E E E E E E E E E E E E E E E E E E ",
"E E E E E E E E E E E E E E E E E E E E E E E E U U 9 o b.n I.b.c.b.).).).).T.I.L.L.J.A '.(.~.).~.).~.~././././.~.~.~.~.~.~.~.`.A h.f.E.Q.T.(.).(.).X.| _ L g i.o o U U E E E E E E E E E E E E E E E E E E E E E E E E E E ",
"E E E E E E E E E E E E E E E E E E E E E E E E E E U U 9 8 J.b.z.b.l.l.l.i.(.).(.(.).Z `.`.`.`.`.`._._._.).).(.).(.(._.).'.'._.B S.M.(.(.).$.$.#.#.| | ) ) o o U U E E E E E E E E E E E E E E E E E E E E E E E E E E E E ",
"E E E E E E E E E E E E E E E E E E E E E E E E E E E E U U 8 8 b.z.l.s.l.i.i.d.y.;.o.0 H.J.J.n.m.B.n.m.n.v.n.n.m.l.c.G.A.H.Z.Z.r b C $.$.$.$.$.#.#.| | o o U U E E E E E E E E E E E E E E E E E E E E E E E E E E E E E E ",
"E E E E E E E E E E E E E E E E E E E E E E E E E E E E E E U U 8 8 z.i.i.i.i.i.y.:.X.9 J.H.n.n.m.n.n.n.n.b.n.v.l.l.l.l.d.d.H.Z.o v b $.$.$.$.$.#.| o o U Y W E E E E E E E E E E E E E E E E E E E E E E E E E E E E E E E ",
"E E E E E E E E E E E E E E E E E E E E E E E E E E E E E E E E U U 8 8 8 8 u.y.<.;.X.9 H.n.n.n.n.n.x.b.z.z.z.z.d.l.d.d.d.d.d.Z.o v C $.$.#.o o o o U U E E Q W W E E E Q Q E E E E E E E E E E E E E E E E E E E E E E E E ",
"E E E E E E E E E E E E E E E E E E E E E E E E E E E E E E E E E E U U U U 8 8 o 9 9 8 A.b.n.n.l.d.d.d.i.i.h.l.l.d.l.d.d.d.d.V.o o o o o o U U U U E E E E R W W E E W Q E E E E E E E E E E E E E E E E E E E E E E E E E ",
"E E E E E E E E E E E E E E E E E E E E E E E E E E E E E E E E E E E E E E U U U U U o H.b.b.X.$.:.y.y.u.i.i.i.l.d.d.d.i.i.y.V.o U U U U U E E E E E E E E E R R E W W W E E E E E E E E E E E E E E E E E E E E E E E E E ",
"E E E E E E E E E E E E E E E E E E E E E E E E E E E E E E E E E E E E E E E E E E E 9 A.;.o.$.:.X.d.i.i.y.y.i.y.i.i.y.y.y.y.V.o U U E E E E E E E E E E E E E E E W W R E E E E E E E E E E E E E E E E E E E E E E E E E ",
"E E E E E E E E E E E E E E E E E E E E E E E E E E E E E E E E E E E E E E E E E E E U o o 9 o o o o o o o o o o o o o o o o o U U E E E E E E E E E E E E E E E E R R E E E E E E E E E E E E E E E E E E E E E E E E E E ",
"E E E E E E E E E E E E E E E E E E E E E E E E E E E E E E E E E E E E E E E E E E E E U U U U U U U U U U U U U U U U U U U U U E E E E E E E E E E E E E E E E E E E E E E E E E E E E E E E E E E E E E E E E E E E E E "
};
