/* XPM */
static char *Smoke_4[] = {
/* columns rows colors chars-per-pixel */
"64 27 3 1 ",
"  c #B0A079",
". c #DBC7A2",
"X c None",
/* pixels */
"XXXXXXXXXXXXXX    XXXXXXXXXXXXXXXXXXXXXXXXXXXXXXXXXXXXXXXXXXXXXX",
"XXXXXXXXXXXXX      XXXXXXXXXXXXXXXXXXXXXXXXXXXX   XXXXXXXXXXXXXX",
"XXXX ....  XX      XXXXXXXXXXXXXXXXXXXXXXXXXX      XX  .... XXXX",
"XX ........  ..   XXXXXXXXXXXXXXXXXXXXXXXXXXXX   ..  ........ XX",
"XX .............   XXXXXXXX   XXXX   XXXXXXXX   ..............XX",
"X  .............     XXXXX            XXXXX     .............. X",
" ............     XXXXXXXXX    XX    XXXXXXXXX     ............ ",
"............   XXXXXXXXXXXXXXXXXXXXXXXXXXXXXXXXXX   ............",
"...........      XXXXXXXXXXXXXXXXXXXXXXXXXXXXXX      ...........",
"..........         XXXXXXXXXXXXXXXXXXXXXXXXXX         ..........",
"X ........     XXXXXXXXXXXXXXXXXXXXXXXXXXXXXXXXXX     ........ X",
"X ........  XXXXXXXXXXXXXXXXXXXXXXXXXXXXXXXXXXXXXXXX  ........ X",
"XX ......    XXX  XXXXXXXXXXXXXXXXXXXXXXXXXXXX  XXX    ...... XX",
"XXX ...            XXXXXXXXXXXXXXXXXXXXXXXXXX            ... XXX",
"XXXX ..        XXXXXXXXXXXXXXXXXXXXXXXXXXXXXXXXXX        .. XXXX",
"XXXX....        XXXXXXXXXXXXXXXXXXXXXXXXXXXXXXXX        ....XXXX",
"XXX......    XXXXXXXXXXXXXXXXXXXXXXXXXXXXXXXXXXXXXX    ......XXX",
"XXX........  XXXXXXXXXXXXXXXXXXXXXXXXXXXXXXXXXXXXXX  ........XXX",
"XXX.........   XXXXXXXXXXXXXXXXXXXXXXXXXXXXXXXXXX   .........XXX",
"XXX ........    XXXXXXXXXXXXXXXXXXXXXXXXXXXXXXXX    ........ XXX",
"XXXX .....    XXXXXXXXXXXXXXXXXXXXXXXXXXXXXXXXXXXX    ..... XXXX",
"XXXXX      XXXXXXXXXXXXXXXXXXXXXXXXXXXXXXXXXXXXXXXXXX      XXXXX",
"XXXXXXXXXX   XXXXXXXXXXXXXXXXXXXXXXXXXXXXXXXXXXXXXX    XXXXXXXXX",
"XXXXXXXXXXX       XXXXXXXXXXXXXXXXXXXXXXXXXXXX       XXXXXXXXXXX",
"XXXXXXXXXXXXX   XXXXXXX...   XXXXXX   ...XXXXXXX   XXXXXXXXXXXXX",
"XXXXXXXXXXXXXXXXXXXXXXX......  XX  ......XXXXXXXXXXXXXXXXXXXXXXX",
"XXXXXXXXXXXXXXXXXXXXXXXXX... XXXXXX ...XXXXXXXXXXXXXXXXXXXXXXXXX"
};
