/* XPM */
static char *Smoke_7[] = {
/* columns rows colors chars-per-pixel */
"110 73 185 2 ",
"   c #4F2913",
".  c #512B14",
"X  c #5A361D",
"o  c #7D3515",
"O  c #5C3A23",
"+  c #5F3F28",
"@  c #56493F",
"#  c #55473E",
"$  c #5E4029",
"%  c #61412A",
"&  c #654934",
"*  c #5A4E43",
"=  c #574A40",
"-  c #5C5146",
";  c #5D5349",
":  c #62594B",
">  c #676159",
",  c #6A635B",
"<  c #6F695A",
"1  c #736C5E",
"2  c #70675B",
"3  c #6E6960",
"4  c #726C63",
"5  c #736F68",
"6  c #777166",
"7  c #797266",
"8  c #7A746A",
"9  c #7E796D",
"0  c #767168",
"q  c #797770",
"w  c #7A7870",
"e  c #823716",
"r  c #843917",
"t  c #883B17",
"y  c #893C19",
"u  c #863C1C",
"i  c #8C421E",
"p  c #8D4927",
"a  c #8D4C2B",
"s  c #894422",
"d  c #934521",
"f  c #9A4D28",
"g  c #94512C",
"h  c #99532D",
"j  c #925532",
"k  c #945937",
"l  c #9D5A35",
"z  c #935B3B",
"x  c #9B5936",
"c  c #8E5231",
"v  c #A1522A",
"b  c #A15E36",
"n  c #A15E39",
"m  c #817F20",
"M  c #9C613B",
"N  c #A2643B",
"B  c #9D6642",
"V  c #9C6A46",
"C  c #9F7149",
"Z  c #9A7A5D",
"A  c #A66B44",
"S  c #A96E44",
"D  c #A76A45",
"F  c #AA7046",
"G  c #A3714A",
"H  c #AB744B",
"J  c #AF794E",
"K  c #A77047",
"L  c #A97750",
"P  c #AE7C53",
"I  c #A2765B",
"U  c #A57A5D",
"Y  c #A87D57",
"T  c #B27F56",
"R  c #807B6F",
"E  c #9C7E63",
"W  c #837E72",
"Q  c #A97F62",
"!  c #8F8824",
"~  c #948D29",
"^  c #99912E",
"/  c #ACB828",
"(  c #C1C52D",
")  c #C9CD35",
"_  c #D1D43D",
"`  c #AE8259",
"'  c #AF8A5E",
"]  c #B38256",
"[  c #B28359",
"{  c #B4885C",
"}  c #9D8265",
"|  c #9E8469",
" . c #9F886C",
".. c #868175",
"X. c #888477",
"o. c #8A867A",
"O. c #88857D",
"+. c #9F8C73",
"@. c #A18564",
"#. c #A38A66",
"$. c #A68C6A",
"%. c #A98C6A",
"&. c #A58469",
"*. c #B38B69",
"=. c #B48D65",
"-. c #A79068",
";. c #AB926C",
":. c #A28C73",
">. c #AA8D70",
",. c #A28E79",
"<. c #B18E71",
"1. c #A69176",
"2. c #AB9474",
"3. c #AD9977",
"4. c #A3907A",
"5. c #AA957A",
"6. c #AE9A7C",
"7. c #A79A7F",
"8. c #B39375",
"9. c #B39C75",
"0. c #B39E7C",
"q. c #BA9A79",
"w. c #B79876",
"e. c #B59068",
"r. c #B0A079",
"t. c #C29F75",
"y. c #918D82",
"u. c #949187",
"i. c #99968D",
"p. c #9C998E",
"a. c #959289",
"s. c #9B9890",
"d. c #A69983",
"f. c #AB9C84",
"g. c #AB9E89",
"h. c #B49E84",
"j. c #B89F88",
"k. c #AC9F90",
"l. c #AEA28D",
"z. c #B4A284",
"x. c #B5A58A",
"c. c #BAA68A",
"v. c #B9A98D",
"b. c #B8A684",
"n. c #AFA391",
"m. c #B1A694",
"M. c #B3A996",
"N. c #BCAD94",
"B. c #B2A798",
"V. c #B5AB9B",
"C. c #B9AF9B",
"Z. c #BBA790",
"A. c #BDB19A",
"S. c #BEB196",
"D. c #B8AFA2",
"F. c #BDB5A3",
"G. c #BEB8A5",
"H. c #BFB6A9",
"J. c #BFB8AA",
"K. c #C2B49C",
"L. c #C3B89F",
"P. c #C3BAA6",
"I. c #C3BDAC",
"U. c #C1B6A3",
"Y. c #C5BFB1",
"T. c #C4C0AF",
"R. c #C8C2AF",
"E. c #DBC7A2",
"W. c #C6C3B3",
"Q. c #CAC5B5",
"!. c #CCC7B9",
"~. c #CECABC",
"^. c #D0CDBE",
"/. c #D2D0BF",
"(. c #CFCDC1",
"). c #D1CEC2",
"_. c #D4D1C5",
"`. c #D8D5C7",
"'. c #D6D3C9",
"]. c #D9D6CA",
"[. c #DAD8CE",
"{. c #DDDCD3",
"}. c #E0DED6",
"|. c #E1DFD8",
" X c #E2E1DA",
/* pixels */
"( ( ( ( ( ( ( ( ( ( ( ( ( ( ( ( ( ( ( ( ( ( ( ( ( ( ( ( ( ( ( ( ( ( ( ( ( ( ( ( ( ( ( ( T T T T T T ] ] ] ] ] ] ] T J J J J F ( ( ( ( ( ( ( ( ( ( ( ( ( ( ( ( ( ( ( ( ( ( ( ( ( ( ( ( ( ( ( ( ( ( ( ( ( ( ( ( ( ( ( ( ( ( ( ",
"( ( ( ( ( ( ( ( ( ( ( ( ( ( ( ( ( ( ( ( ( ( ( ( ( ( ( ( ( ( ( ( ( ( ( ( ( ( ( ( ( ( ( F '.~.~.~.~.Q.).'.'._.'._._._._.`._.!.!.F ! ! ( ( ( ( ( ( ( ( ( ( ( ( ( ( ( ( ( ( ( ( ( ( ( ( ( ( ( ( ( ( ( ( ( ( ( ( ( ( ( ( ( ( ( ( ",
"( ( ( ( ( ( ( ( ( ( ( ( ( ( ( ( ( ( ( ( ( ( ( ( ( ( ( ( ( ( ( ( ( ( ( ( ( ( ( ( ( ( ( F '.~._._.'._.'._.'._.`._.'._._._._._.!.Q.F ! ! ( ( ( ( ( ( ( ( ( ( ( ( ( ( ( ( ( ( ( ( ( ( ( ( ( ( ( ( ( ( ( ( ( ( ( ( ( ( ( ( ( ( ( ",
"( ( ( ( ( ( ( ( ( ( ( ( ( ( ( ( ( ( ( ( ( ( ( ( ( ( ( ( ( ( ( ( ( ( ( ( ( ( ( ( ( ( ( F {._.'._._._.'._.0.z.h.h.h._.`._.`.`._.!.H ! ! ( ( ( ( ( ( ( ( ( ( ( ( ( ( ( ( ( ( ( ( ( ( ( ( ( ( ( ( ( ( ( ( ( ( ( ( ( ( ( ( ( ( ( ",
"( ( ( ( ( ( ( ( ( ( ( ( ( ( ( ( ( ( ( ( ( ( ( ( ( ( ( ( ( ( ( ( ( ( ( ( ( ( ( ( ( ( ( F [._._._._.`._.`.}.}.}.}.h.`.`.`._.`./.{.H ! ! ( ( ( ( ( ( ( ( ( ( ( ( ( ( ( ( ( ( ( ( ( ( ( ( ( ( ( ( ( ( ( ( ( ( ( ( ( ( ( ( ( ( ( ",
"( ( ( ( ( ( ( ( ( ( ( ( ( ( ( ( ( ( ( ( ( ( ( ( ( ( ( ( ( ( ( ( ( ( ( ( ( ( h l l b D S [._.`._._.'.'.`.h.h.h.h.h.`.`./.`._.`.{.H t e l x x ( ( ( ( ( ( ( ( ( ( ( ( ( ( ( ( ( ( ( ( ( ( ( ( ( ( ( ( ( ( ( ( ( ( ( ( ( ( ( ( ",
"( ( ( ( ( ( ( ( ( ( ( ( ( ( ( ( ( ( ( ( ( ( ( ( ( ( ( ( ( ( ( ( ( ( ( D D F ~.~.~.~.^.F [.`._.`.`.'.`.% % % % % + % `.`.`.`.`.[.J v.v.!.!.!.x l l ( ( ( ( ( ( ( ( ( ( ( ( ( ( ( ( ( ( ( ( ( ( ( ( ( ( ( ( ( ( ( ( ( ( ( ( ( ",
"( ( ( ( ( ( ( ( ( ( ( ( ( ( ( ( ( ( ( ( ( ( ( ( ( ( ( ( ( ( ( ( H H G _.'.!.~.~.~.^.^.F [._._.`._.`.X 7 7 7 7 7 7 7 X X X `.`.{.J v.v.~.~.~.(.).).l N N ( ( ( ( _ ( ( ( ( ( ( ( ( ( ( ( ( ( ( ( ( ( ( ( ( ( ( ( ( ( ( ( ( ( ",
"( ( ( ( ( ( ( ( ( ( ( ( ( ( ( ( ( ( ( ( ( ( ( ( ( ( ( ( ( ( ( P ~._.(._.^.!.b b b b b S ]._.`.`.`.X 7 7 R 7 7 7 7 X.W X.X.X X X H M M n N b _.(.^._._./.N ( ( ( ) ) ( ( ( ( ( ( ( ( ( ( ( ( ( ( ( ( ( ( ( ( ( ( ( ( ( ( ( ( ",
"( ( ( ( ( ( ( ( ( ( ( ( ( ( ( ( ( ( ( ( ( ( ( ( ( ( ( ( P T P )._.).(._.b b _.`.'.'.`.F '.% + O O 7 R 8 7 7 7 o.X...X.W W X.i.i.X _._._._._.h N )./._._.N ( ( ( ( ( ( ( ( ( ( ( ( ( ( ( ( ( ( ( ( ( ( ( ( ( ( ( ( ( ( ( ( ( ",
"( ( ( ( ( ( ( ( ( ( ( ( ( ( ( ( ( ( ( ( ( ( ( ( ( ( D F ).).{.3.)._.x l ^./././.^.`.`.S X < 1 1 1 1 7 8 7 7 X.W ..X.W W W a.7 7 6 X _._._._.'.'.N K `.`.T N N N N ( ( ( ( ( ( ( ( ( ( ( ( ( ( ( ( ( ( ( ( ( ( ( ( ( ( ( ( ( ",
"( ( ( ( ( ( ( ( ( ( ( ( ( ( ( ( ( ( ( ( ( ( ( ( D D '.[._.)._.{.l l Y.W.^./././././.`.O < 1 1 1 1 4 7 7 X.X.o.W X...X.X.W i.7 7 6 6 X _._._._._._.`.N J  XR.Q.R.R.N N N ( ( ( ( ( ( ( ( ( ( ( ( ( ( ( ( ( ( ( ( ( ( ( ( ( ( ",
"( ( ( ( ( ( ( ( ( ( ( ( ( ( ( ( ( ( ( ( ( ( ( x [.]._.).)._.l l ).Y.W.Y.).^.^././.^.& o.X.1 1 1 1 4 o.X.X.W o.X.o.X.o.o.d.W W 0 6 6 6 O _._._.'.`.'.'.`.l j Q.R.R.R.^.!.N ( ( ( ( ( ( ( ( ( ( ( ( ( ( ( ( ( ( ( ( ( ( ( ( ( ",
"( ( ( ( ( ( ( ( ( ( ( ( ( ( ( r.E.E.E.E.r.D x {.'._.)._._.l ~._.).).^.R./._.`._././.& o.W X.W ..W g.o.o.o.W o.o.o.o.W W s.W W 0 6 6 6 O (._._.'.'._.'.'._.'.y ^.^.^.^.!.!.f g ( ( r.E.E.E.E.r.( ( ( ( ( ( ( ( ( ( ( ( ( ( ( ",
"( ( ( ( ( ( ( ( ( ( ( ( ( ( r.E.E.E.E.E.r.r.{.'.'.'.'.x l )._.^./.^././._._././././.& o.W W X.W W i.o.o.o.o.o.o.o.W W s.W W W W 6 6 6 O (._._._.'.'._.'._._.'.u t !.^.!._.~.).i r.r.E.E.E.E.E.r.( ( ( ( ( ( ( ( ( ( ( ( ( ( ",
"( ( ( ( ( ( ( ( ( ( ( ( ( r.E.E.E.E.E.E.E.r.6.'.'.[.x (._.).^._.^._._._./._.`._._.[.& o...........g.o.o.o.o.o.o.o.o.o.i.W W W W 6 6 6 O (.(._.'.(._.Q.Q._._._._._.t _.)._._._.r.r.E.E.E.E.E.E.E.r.( ( ( ( ( ( ( ( ( ( ( ( ( ",
"( ( ( ( ( ( ( ( ( ( E.E.E.r.E.E.E.E.E.E.E.r.r.'.].l ).r.r.r.).^././._./._._._.[.[.l.% o.......W i.O.O.O.o.o.o.o.o.o.o.i...W W W ..6 6 O {.~.(.(.).!.!.!.(.~._.(.).r.r.r._.U I r.r.E.E.E.E.E.E.E.r.E.E.E.( ( ( ( ( ( ( ( ( ( ",
"( ( ( ( ( ( ( ( ( E.E.E.E.E.E.E.E.E.E.E.E.r.r.r.x ~.r.r.r.r.r._.^._._._._.[.[.g.l.l.% o.R ....u.8 8 7 7 i.i.s.i.i.i.s.W W W W W W 6 6 O W.{.{.!.(.~.~.(.(.(._._.r.r.r.r.r.{.r.r.r.E.E.E.E.E.E.E.E.E.E.E.E.( ( ( ( ( ( ( ( ( ",
"( ( ( ( ( ( ( ( E.E.E.E.E.E.E.E.E.E.E.E.r.r.r.r.r.r.r.r.r.r.r._._._._.[.[.,.4.d.g.g.% o.......u.R R R y.y.y.y.y.y.y.y.W W W W R 9 W 6 O W.G.G.{.}.(.(.(.(.(.(.(.r.r.r.r.r.r.r.r.r.r.E.E.E.E.E.E.E.E.E.E.E.E.( ( ( ( ( ( ( ( ",
"( ( ( ( ( ( ( ( E.E.E.E.E.E.E.E.E.E.E.r.r.r.r.r.(.r.r.0.'._._._._._.[.,.:.:.1.d.f.o $ o.R ..i.R R R y.y.y.y.y.y.y.y.y.W W W W 9 9 W 6 O Y.J.J.J.G.}.~.^.(.!.(.!.^.~.r.r.r.t r.r.r.r.r.E.E.E.E.E.E.E.E.E.E.E.( ( ( ( ( ( ( ( ",
"( ( ( ( ( ( ( ( E.E.E.E.E.E.E.E.E.r.r.r.r.r.r.'.).).'._._.'.'.)._.[.$.:.$.+.+.o o ;.+ O.W p.y.y.y.y.y.y.y.y.y.y.y.y.o.W W W 9 9 9 9 W O B J.J.G.F.V.{.(.(.(.(.(.~.(.~.(.~.~.u 6.r.r.r.r.r.E.E.E.E.E.E.E.E.E.( ( ( ( ( ( ( ( ",
"( ( ( ( ( ( ( ( E.E.E.E.E.E.E.E.E.E.r.r.r.'._.'.'.'.'.'._.'.)._.{.@.:. .+.o o 1.%.K.% o.p.y.y.y.y.y.y.y.y.2 2 2 p.i.p.p.W W 9 9 9 9 9 O !.x x J.J.B.V.{.'.'.(.(.~.!.!.~.~.(._.t ).r.r.r.E.E.E.E.E.E.E.E.E.E.( ( ( ( ( ( ( ( ",
"( ( ( ( ( ( ( ( r.E.E.E.E.E.E.E.E.E.r.!.z '.'._.'.'._.}.[.'.{.{.E E E | o f.f.A.S.S.O i.y.y.y.y.y.o.u.y.2 < < : < < 4 4 u.i.p.9 9 9 9 O T.~.!.g F.V.V.V.[.'.'.'.(.(.(.!.)._.).t ^.~.^.r.E.E.E.E.E.E.E.E.E.r.( ( ( ( ( ( ( ( ",
"( ( ( ( ( ( ( ( ( r.E.E.E.E.E.E.E.r.!.x '._._.'.).'.].].[.}.[.E E E o o f.S.S.S.S.K.% o.y.y.y.y.y.p.p.p.2 2 : : < , 4 4 4 4 4 i.i.9 9 X T.G.P.!.z z V.V.B.[.'.'.'.!._._._.)._.).A ^.^.~.r.E.E.E.E.E.E.E.r.( ( ( ( ( ( ( ( ( ",
"( ( ( ( ( ( ( ( ( A 6.E.E.E.E.r.r.r.D D V Z U I {.{.{.{.{.{.E E E o $.2.S.A.S.A.N.A.O y.y.y.s.s.s., 2 , 8 8 : : , 2 4 4 4 4 4 4 4 s.i.X J.P.T.I.~.!.j V.h.6.{.'.'.'._._.I U Q U S S S S w.0.r.E.E.E.E.r.( ( ( ( ( ( ( ( ( ( ",
"( ( ( ( ( ( ( ( A [.r.3.r.r.r.r.r.~.!.W.!.W.Q.!.I I f.>.>.{.Z Z o $.;.S.S.S.A.S.K.C.O s.s.i.4 4 4 3 < 2 , 2 8 : : , 4 4 4 4 4 4 4 4 O.  P.T.G.W.W.R.Q.p h.6.{.Q I Z I I '._.'._.^.^._.).).9.r.r.r.r.r.r.N ( ( ( ( ( ( ( ( ( ",
"( ( ( ( ( ( ( D {.[.].E.E.E.r.~.~.(.!.!.W.!.(.~.(.~.}.%.$.$.E o $.$.G.F.G.A.A.S.A.~.. o.5 4 4 4 4 , 2 , , * 2 8 : , , 4 4 4 4 4 4 4 O.. I.T.G.W.T.W.W.!.r 6.f.{.[.].].[.^.).).^.^._./._.).^._.r.E.E.E.{.F ( ( ( ( ( ( ( ( ( ",
"( ( ( ( ( ( ( H {.E.E.E.E.E.E.r.(.(.~.(.(.(.~.(.~.~.~.{.{.&.o ;.$.G.F.G.G.G.A.A.A.$.. y.4 4 4 , , 2 , , 2 4 , * : = < , 4 4 , 2 3 4 w . G.T.P.P.W.W.W.W.!.r 0.{.'.[.(.(.).).^.)././._./._._.9.E.E.E.E.E.E.! ! ( ( ( ( ( ( ( ",
"( ( ( ( ( ( ( H [.E.E.E.E.E.E.E.(.~.~.).~.(.~.^.(.~.~.~.{.&.o %.F.G.A.G.F.G.F.G.P.} . o.4 4 4 , , , < , < ; , ; 0 = 2 , 4 4 , , , 3 w . (.P.P.I.I.W.W.T.Q.t h.{.'.).).~.^.).^.).^._./._.r.r.E.E.E.E.E.E.E.! ! ! ( ( ( ( ( ( ",
"( ( ( ( ( ( ( K {.r.E.E.E.E.E.E.r.r.).^.~.(.(.(.(.(.~.{.k.r -.%.A.G.G.6.6.G.P.G.P.E . X.4 4 4 , , 2 < , , * ; * , 0 , , , , , , , , w   2.T.J.T.I.W.W.W.W.!.e f.{.~.^.).).^.).^._.)._./.r.r.E.E.E.E.E.E.r.! ! ! ( ( ( ( ( ( ",
"( ( ( ( ( ( ( H {.).r.E.E.E.r.r.r.r.r.).)._.r.r.~.(.~.{.g.o $.;.G.G.G.W.Q.3.G.J.I.5.. w , 4 4 , , , 3 , , 4 4 ; , * , , , , , , , , 9 . 2.G.I.I.I.W.I.W.W.W.u g.{.).^.).).~.0.9.^._._.r.r.r.r.r.E.E.E.r.K ! ! ! ( ( ( ( ( ( ",
"( ( ( ( ( ( ( H {.)._.r.r.r.r.r.r.r.r.r.).).r.r.0.~.).{.o $.%.J.G.G.G.G.F.!.} I.P.6.. q , , , , , , , , , , , 4 , 4 , , , , , , , , q   x.T.I.I.I.I.I.I.I.I.I.u {.).~.).).r.r.r._._.r.r.r.r.r.r.r.r.r. XF ! ! ! ( ( ( ( ( ( ",
"( ( ( ( ( ( ( K {._.'.).3.0.r.r.0.w.)._._.).).)._.[.].{.e %.%.J.T.G.G.G.G.G.~.} @.6.. q , , , , , , , , , , , , , , 3 > > , , 3 , , q   x.I.P.T.I.I.I.I.Y.J.I.r {.(.~.).)._.).'.'.'.'.q.'.r.r.r.r.r.`.}.H ! ! ! ( ( ( ( ( ( ",
"( ( ( ( ( ( ( K {._.)._.`.%.r.r.6.&._._._.).'.)._.[.].{.e $.$.I.I.I.G.G.T.I.(.r.6.0.. q , , , , , , , , , , , = = * , , , , > > , , q   z.T.I.I.I.I.Y.I.I.I.W.e {.(.).)._._._.'._.`._.*._.r.r.r.`.`.`. XN ! ! ! ( ( ( ( ( ( ",
"( ( ( ( ( ( ( A {.'._._._.[.U r.r.r._.'.'._._.)._.).]. Xe $.%.I.T.I.I.I.J.T.W.).f.f.  q , , > , , , , , 3 > > 5 5 * 3 , 3 , > > > 3 w . T.T.T.I.I.Y.I.I.I.Y.T.r {._._._._._._._._._.'.L r.r.r.[.`.`.]. XN ^ ! ! ( ( ( ( ( ( ",
"( ( ( ( ( ( ( K {.'.'.'.`._.{.r.r.`.'._._.'._._._._.[.[.e $.$.I.I.T.T.T.T.T.T.).z.x.  q > , , , , , , , > = > = 3 * > > > > , > > 3 w   T.T.T.I.Y.I.I.Y.I.I.T.r |._._._._._._._._._.'.{.[.r.r.`.`.`.]. XN ~ ! ! ( ( ( ( ( ( ",
"( ( ( ( ( ( ( D {.[._.'.`._.r.E.r.`.'.'.'._.'.'._.`._.{.e %.%.I.W.J.T.T.T.T.T.T._.z.  q , > > , , , , , , = > 3 3 3 > > > > , > 3 3 w   W.T.T.T.J.Y.I.Y.I.I.I.e }._.)._._.'.`._._.].[.].r.r.E.r.[.[.`. XH ! ! ! ( ( ( ( ( ( ",
"( ( ( ( ( ( ( A |.{.[.'.`.r.E.E.E.r.'.'.`._.'._._._._.{.t #.#.W.T.T.T.T.T.T.W.W.W.n.  q > , > > > , > , > = = = > , > > > > , 3 3 3 w   W.T.T.T.J.I.I.I.F.F.F.t }.)._._._._._._.].].r.r.r.E.E.E.r.`.`.}.N ! ! ! ( ( ( ( ( ( ",
"( ( ( ( ( ( ( A  X[.[.'.'.E.E.E.E.E.`.`.`.'.'.'._.'.'.{.e %.$.W.T.T.W.!.!.!.T.W.W.x.  q 3 > > > , , > > > 5 5 3 > > 3 > > > > 3 3 0 @ . W.W.T.T.I.T.I.J.F.F.F.e }.)._.'.].'.].].[.r.r.r.E.E.E.E.E.`.[.}.G ! ! ! ( ( ( ( ( ( ",
"( ( ( ( ( ( ( n  X[.[.[.'.E.E.E.E.E._.'._.'._._.'.V k k p t $.W.W.T.!.!.!.!.Q.W.W.M.  q 3 , > > > > , > > > > > , > > > > > 3 3 0 @ ; . W.W.W.T.I.J.A.G.F.F.e I I I U '.'.].].].].r.r.r.E.E.E.E.E.].[.}.N ! ! ! ( ( ( ( ( ( ",
"( ( ( ( ( ( ( l |. X X|.|.{.r.E.E.r.r.}.U @.&.%.x.[.[.[.[.o -.!.!.!.~.!.!.!.~.W.W.M.  q 3 3 > > > , , > > , , > > > 3 3 3 > > 3 5 @ ;   W.W.W.W.T.J.A.F.F.J.r ].].[.'.I U V <.<.<.<.|.0.r.E.E.r.}.}.}.}.C ! ! ! ( ( ( ( ( ( ",
"( ( ( ( ( ( ( t H.I.J.Y.B.V.M.r.r.r.r.r.{.[.[.[.[.(.(.^.^.).x Q.!.!.~.!.!.!.W.W.W.S.  q 3 3 3 3 3 3 > > , > > , 3 3 3 3 3 > > 3 @ ; ;   W.W.W.W.W.W.W.F.F.M !.!.Y.(.Y.[.[.[.<.<.<.Y.r.r.r.r.r.M.M.M.M.J.r ! ! ! ( ( ( ( ( ( ",
"( ( ( ( ( ( ( t I.J.m.m.n.m.M.M.M.M.M.H B {._._._.(.^.^.^.^.^.V W.~.!.!.~.!.W.W.W.N.  q 3 3 3 < 3 3 > > > > > > > 3 3 3 3 3 5 = ; ;   A.W.W.W.W.W.T.W.W.N !.!.!.).Y.).Y.!.!.[.B Q.f.l.l.l.n.n.B.M.M.n.J.r ! ! ! ( ( ( ( ( ( ",
"( ( ( ( ( ( ( t J.n.l.l.5.=.' =.=.L K A r.r.r.9.(._.(.(.^.^.^.[.Y W.!.~.!.~.W.W.W.M.S.                      . .                     A.C.W.W.W.W.W.W.W.N I.!.!.!.Y.).Y.).!.!.r.r.r.r.' ' ' ' ' #.M.n.M.G.r ! ! ! ( ( ( ( ( ( ",
"( ( ( ( ( ( ( e I.k.x.u [.^.!.^.!.P.P.U.r.r.r.r.r.r.(._.(._.)._.[.I W.~.~.~.!.W.W.N.C.C.x.x.x.z.z.z.z.z.z.x.z.z.h.0.0.9.2.3.8.3.0.A.C.A.W.W.W.W.W.W.N S.G.G.)._.`.~.!.!.r.r.r.r.r.r.~.'.'.'.'.{.u n.n.J.r ! ! ! ( ( ( ( ( ( ",
"( ( ( ( ( ( ( e D.g.g.u [.^.^.^.Q.!.P.U.a $.{.r.r.r.r.r._.)._.'.).[.L Q.~.!.~.Q.W.(.(.C.C.S.A.C.C.A.A.A.A.A.K.A.K.K.C.A.C.A.A.C.C.C.N.(.!.W.W.W.W.L v.S.'.[._.(.^._.r.6.r.r.9.t I.~.~._.'.)._.[.e n.B.D.r ! ! ( ( ( ( ( ( ( ",
"( ( ( ( ( ( ( ! r r r e 4.}.^.^.^.Q.Q.!.Q.p $.{._.r.r.r.r._._.).).{.[.L L ~.~.~.~.W.W._.).(.)._.).).).).)._.).).).).K.A.A.A.).).(._.(.W.W.W.W.N N N.v.`.)._.(.'._.w.0.0.r.} t I.~.~._.)._.'.[.n.r r r r ! ! ( ( ( ( ( ( ( ( ",
"( ( ( ( ( ( ( ( ! ! ! e ,.[.^.^.^.^.!.Q.Q.a >.5.[._._._._.6.r.r.'.'.[.'.^.L ~.!.~.Q.W.W.W.Q.!.W.Q.Q.!.!.Q.!.!.!.Q.Q.).).A.A.W.Q.W.W.!.!.!.W.j _._.)._._._._.6.r.q._.).[.} } e I.^.~._.).(.'.[.l.r ! ! ! ! ( ( ( ( ( ( ( ( ( ",
"( ( ( ( ( ( ( ( ( ( ( ! t 4.[.^.~.(.~.~.Y.!.j 8.B.{._._._._._._._._._._._.).N A ~.~.!.~.W.W.W.Q.Q.!.!.Q.!.Q.!.!.Q.Q.Q.Q.).(.Q.W.W.Q.W.W.A N '._._._.(.'.'._._.)._.).[.&.&.y P.Y.~.(._.'.'.[.| r ! ! ! ( ( ( ( ( ( ( ( ( ( ( ",
"( ( ( ( ( ( ( ( ( ( ( ( e 4.n.[.~.(.).~.Q.Q.Y.f D.B.{.{.{._.'.'.'.'.'._._.)._._.r.r.r.!.~.W.~.W.W.!.Q.!.Q.Q.Q.Q.!.Q.!.Q.Q.Q.Q.W.Q.N N r.r.6._.'.'.).(.'.'._.'._._.[.| } d P.P.P.!.!._._.[.} } r ! ^ ( ( ( ( ( ( ( ( ( ( ( ( ",
"( ( ( ( ( ( ( ( ( ( ( ( ! u g.{.(.).(.(.).~.Q v V.D.D.5.3.}.'.'.'.'.'.'._.^.(.r.r.r.r.r.0.W.~.W.W.Q.Q.!.Q.!.Q.Q.Q.Q.Q.Q.Q.Q.!.W.g r.0.0.r.r.r.'.'.'.].'.`.'._._.[.&.| } i t P.P.!.'._._.[.| u ! ! ~ ) ( ( ( ( ( ( ( ( ( ( ( ",
"( ( ( ( ( ( ( ( ( ( ( ( ( u k.m.[.(.(.).*.*.*.I d D.D.P.3.3.{.'.'._.`.'._.)._././.r.r.r.r.0.H q.r.J ] ] T T T T T T J T K r.r.B r.r.r.9.r.'.'.'.'.'.'.'.'.'.{.{.:.+.&.p K.N.Q T _._.'.].} E o ~ ! / ) ( ( _ ( ( ( ( ( ( ( ( ",
"( ( ( ( ( ( ( ( ( ( ( ( ( ! e m.B.[.*.*.{.{.'.E I d F.F.U.K.{.'.'.'.'.'._._._._.^.~././.!.F `.`.`.].].].].]._./.^._._.)._.N N !.^.)._.'.'.'.'.'.'.'.'.'.'.{.1.1.:.&.c K.K.I.Y.R.Z I {.5.} e ~ ! ~ / ( ) ) / ( ( ( ( ( ( ( ( ",
"( ( ( ( ( ( ( ( ( ( ( ( ( ( ! t B.Z {.{.).).).[.{.{.d F.L.U.L.{.{.'.`._.`._._./._./././.t.`.`.`.].].].`._./._./._.)._.^.).).[.U )._._._.'.'.'.'.'.'.'.}.}.1.1.4.:.a K.Y.Q.Q.Q.Y.Q.{.a f.o ~ ! ! ) ( ( ) ) / ( ( ( ( ( ( ( ( ",
"( ( ( ( ( ( ( ( ( ( ( ( ( _ _ e B.Q J.[.).)._._.~.~.(.v v L.L.U.A.}.{.'.`._._._._._._.^.t.`./._.].]./._./._._._._.^.^._.).).{.U _.)._.).'.'.`.'.'.{.{.5.5.2.,.p x !.Q.!.!.!.Q.W._.E a h.o ~ ! / ) ( ( / / ( ( ( ( ( ( ( ( ( ",
"( ( ( ( ( ( ( ( ( ( ( ( ( ( _ ~ e E J.D.{._.(._.~.~.~.~._.d L.U.C.A.C.{.{.}./._./._./.{ {._._./._._.`./.`././._._._._./._.)._.[.Y _.).'.'.'.}.}.{.6.d.5.5.,.j R.Q.^.!.!.^.!.!._.} E a o ! m ) / / ( ( ( ( ( ( ( ( ( ( ( ( ( ",
"( ( ( ( ( ( ( ( ( ( ( ( ( ( / ) ~ r J.D.V.{.'._.~.^._.'.).'.f f D.A.C.C.N.v.}.}.|._.'.{ {._.`.`.`._.`.`._._._._._.)._./._._./.}.` /./.}.{. X3.3.5.5.5.4.p j Q.R.^.!.!.!.!.!._.Q } E o ! ! ( ( ( ( ( ( ( ( ( ( ( ( ( ( ( ( ( ",
"( ( ( ( ( ( ( ( ( ( ( ( ( _ ) / ) ~ a D.D.V.].{._.'.).'.'.'.[.[.h h C.A.v.v.v.r.t. X}.{ {._.`././._.`.`.K._._.).K._./._./._._.[.` [.}.r.r.3.3.1.5.2.k j R.R.Y.Y.!.!.!.!.`.`.E E } p ! ! ( ( ( ( ( ( ( ( ( ( ( ( ( ( ( ( ( ( ",
"( ( ( ( ( ( ( ( ( ( ( ( ( / ) ) / ) ! r V.F.V.G.[.'.'._.'.'.[.[.w.'.f r N.v.b.z.r.r.e.T [.`.`.`.`.`.`.`.{.K.K.K.{._._._._._.^.}.` ` 9.r.9.9.2.2.z z /.L '.R.Y.!.^.!.!.^.| } } E o ! ! ( ( ( ( ( ( ( ( ( ( ( ( ( ( ( ( ( ( ( ",
"( ( ( ( ( ( ( ( ( ( ( ( ( ( / ) / / ( ! u V.F.V.D.[.[.'.[.[.].w.'._._.~.e t t r.r.0.e.T {.].].`.`.`.`.`.t.}.}.}.b.'.`.`.`._._.}.` J 9.9.9.r r e '.'._._.K._.~.~.Q._._.$.| E E o ! ! ( ( ( ( ( ( ( ( ( ( ( ( ( ( ( ( ( ( ( ( ",
"( ( ( ( ( ( ( ( ( ( ( ( ( ( ( ( ( ( ( ( ! e e D.D.D.D.{.{.}.*.'._.).).^.(.).Q.t y y y T }.`.`.{.`.`.`.`.}.t.T *.}.`.`.`.`._._.}.` e r r t !.!.!._._.'._.'.N.!.'.'.,.:.:.:.o o ! ! ( ( ( ( ( ( ( ( ( ( ( ( ( ( ( ( ( ( ( ( ( ",
"( ( ( ( ( ( ( ( ( ( ( ( ( ( ( ( ( ( ( ( ( ! ! r C.C.V.V.M.I }.).).).).).~.~.Q.W.R.!.!.J }.{.`.`.[.[.`.`.J }.}.}.=.`.`.`.`.`._.}.` v.v.).^./.!.!._.'.`._.).[.{.h.:.,.:.:.o ! ! ( ( ( ( ( ( ( ( ( ( ( ( ( ( ( ( ( ( ( ( ( ( ( ",
"( ( ( ( ( ( ( ( ( ( ( ( ( ( ( ( ( ( ( ( ( ( ( ! o r V.C.V.I W.{.{.{._.~.^.~.~.Q.Q.Y.Y.J }.`.`.{.{.`.[.[.}.`.].`.}.`.`.`.`.`.`.}.L v.x.).).^._._._._.{.{.{.| z g.:.+.o o ! ( ( ( ( ( ( ( ( ( ( ( ( ( ( ( ( ( ( ( ( ( ( ( ( ( ",
"( ( ( ( ( ( ( ( ( ( ( ( ( ( ( ( ( ( ( ( ( ( ( ( ! ! r o B.Z W.B.B.B.{.{.{.}.~.R.Q.E.Y.J  X[.[.[.`.{.`.`.].].].`.`.`.`.`.`.`.`.|.J x.z.).~.^.[.{.[.{.#.@.} E z g.o o ! ! ( ( ( ( ( ( ( ( ( ( ( ( ( ( ( ( ( ( ( ( ( ( ( ( ( ( ",
"( ( ( ( ( ( ( ( ( ( ( ( ( ( ( ( ( ( ( ( ( ( ( ( ( ( ! ! e e Y.B.m.B.n.n.n.g.[.[.[.[.{.H |.|. X|.|.|.}.}.{.{.{.{.[.[.{.{.{. X|.|.G K.N.[.}.{.;.;.-.-.} #.} } o o ! ! ( ( ( ( ( ( ( ( ( ( ( ( ( ( ( ( ( ( ( ( ( ( ( ( ( ( ( ( ",
"( ( ( ( ( ( ( ( ( ( ( ( ( ( ( ( ( ( ( ( ( ( ( ( ( ( ( ( ! ! e e B.n.n.n.n.g.g.g.f.1.$.t I.I.Y.D.C.C.C.C.C.B.V.V.C.B.M.P.J.I.U.J.p G G ;.;.;.;.;.-.} #.} o o ! ! ( ( ( ( ( ( ( ( ( ( ( ( ( ( ( ( ( ( ( ( ( ( ( ( ( ( ( ( ( ( ",
"( ( ( ( ( ( ( ( ( ( ( ( ( ( ( ( ( ( ( ( ( ( ( ( ( ( ( ( ( ( ! ! e e n.n.g.g.g.g.6.1.$.u I.I.V.V.V.V.C.B.V.B.V.Z.x.n.n.n.l.x.J.J.o V C ;.;.-.;.-.' #.o o ! ~ _ ( ( ( ( ( ( ( ( ( ( ( ( ( ( ( ( ( ( ( ( ( ( ( ( ( ( ( ( ( ( ( ",
"( ( ( ( ( ( ( ( ( ( ( ( ( ( ( ( ( ( ( ( ( ( ( ( ( ( ( ( ( ( ( ( ! ! e e e e g.d.7.1.$.e I.V.V.V.V.V.B.Z.m.m.m.n.l.m.l.l.l.l.g.J.o V G ;.;.;.o o o o ! ! ( ( _ ) ) ( ( ( _ _ ( ( ( ( ( ( ( ( ( ( ( ( ( ( ( ( ( ( ( ( ( ( ( ( ",
"( ( ( ( ( ( ( ( ( ( ( ( ( ( ( ( ( ( ( ( ( ( ( ( ( ( ( ( ( ( ( ( ( ( ! ! ! ! e e e e e e J.V.V.V.n.l.l.g.g.g.x.n.n.n.n.l.g.l.g.F.o o o o o o ! ! ! ! ( ( ( ( / ) ) ( ( ) _ ( ( ( ( ( ( ( ( ( ( ( ( ( ( ( ( ( ( ( ( ( ( ( ( ( ",
"( ( ( ( ( ( ( ( ( ( ( ( ( ( ( ( ( ( ( ( ( ( ( ( ( ( ( ( ( ( ( ( ( ( ( ( ( ( ! ! ! ! ! e J.M.M.:.;.1.d.g.f.g.g.g.l.l.g.l.l.l.d.F.o ! ! ! ! ! ( ( ( ( ( ( ( ( ( / / ( ) ) ) ( ( ( ( ( ( ( ( ( ( ( ( ( ( ( ( ( ( ( ( ( ( ( ( ( ",
"( ( ( ( ( ( ( ( ( ( ( ( ( ( ( ( ( ( ( ( ( ( ( ( ( ( ( ( ( ( ( ( ( ( ( ( ( ( ( ( ( ( ( e J.2.$.;.;.;.g.g.g.g.d.g.g.g.d.d.7.d.p.F.o ! ! ( ( ( ( ( ( ( ( ( ( ( ( ( ( ( ) ) / ( ( ( ( ( ( ( ( ( ( ( ( ( ( ( ( ( ( ( ( ( ( ( ( ( ",
"( ( ( ( ( ( ( ( ( ( ( ( ( ( ( ( ( ( ( ( ( ( ( ( ( ( ( ( ( ( ( ( ( ( ( ( ( ( ( ( ( ( ( ! o o o r o o o o o o o o o o o o o o o o ! ! ( ( ( ( ( ( ( ( ( ( ( ( ( ( ( ( / / ( ( ( ( ( ( ( ( ( ( ( ( ( ( ( ( ( ( ( ( ( ( ( ( ( ( ",
"( ( ( ( ( ( ( ( ( ( ( ( ( ( ( ( ( ( ( ( ( ( ( ( ( ( ( ( ( ( ( ( ( ( ( ( ( ( ( ( ( ( ( ( ! ! ! ! ! ! ! ! ! ! ! ! ! ! ! ! ! ! ! ! ! ( ( ( ( ( ( ( ( ( ( ( ( ( ( ( ( ( ( ( ( ( ( ( ( ( ( ( ( ( ( ( ( ( ( ( ( ( ( ( ( ( ( ( ( ( "
};
