/* XPM */
static char *Smoke_2[] = {
/* columns rows colors chars-per-pixel */
"110 73 180 2 ",
"   c #4F2913",
".  c #512B14",
"X  c #5A361D",
"o  c #7D3515",
"O  c #5C3A23",
"+  c #5F3F28",
"@  c #5E4029",
"#  c #564A3E",
"$  c #61412A",
"%  c #654934",
"&  c #5D5349",
"*  c #62594B",
"=  c #676159",
"-  c #6A635B",
";  c #6F695A",
":  c #70675B",
">  c #736C5E",
",  c #6E6960",
"<  c #726C63",
"1  c #736F68",
"2  c #777166",
"3  c #797266",
"4  c #767168",
"5  c #7A746A",
"6  c #7E796D",
"7  c #797770",
"8  c #7A7870",
"9  c #823716",
"0  c #843917",
"q  c #883B17",
"w  c #863C1C",
"e  c #893C19",
"r  c #8C421E",
"t  c #894523",
"y  c #8D4927",
"u  c #8D4C2B",
"i  c #924521",
"p  c #974C27",
"a  c #94512C",
"s  c #99532D",
"d  c #8E5231",
"f  c #955633",
"g  c #945937",
"h  c #9D5A35",
"j  c #935B3B",
"k  c #A1522A",
"l  c #A15D36",
"z  c #A15E39",
"x  c #817F20",
"c  c #9C613B",
"v  c #A2633B",
"b  c #9D6642",
"n  c #9C6A46",
"m  c #9F7149",
"M  c #9A7A5D",
"N  c #A56A43",
"B  c #A66B47",
"V  c #A96E43",
"C  c #A77047",
"Z  c #AA7046",
"A  c #A4714A",
"S  c #AB744B",
"D  c #AF794E",
"F  c #A97750",
"G  c #AE7C53",
"H  c #A87B57",
"J  c #A2765B",
"K  c #A57A5D",
"L  c #B27F56",
"P  c #807B6F",
"I  c #9C7E63",
"U  c #837E72",
"Y  c #A97F62",
"T  c #8F8824",
"R  c #948D29",
"E  c #99912E",
"W  c #ACB828",
"Q  c #C1C52D",
"!  c #C9CD35",
"~  c #D1D43D",
"^  c #AE8259",
"/  c #AF8A5E",
"(  c #B38256",
")  c #B28359",
"_  c #B4885C",
"`  c #9D8265",
"'  c #9E8469",
"]  c #9F886C",
"[  c #868175",
"{  c #888477",
"}  c #8A867A",
"|  c #88857D",
" . c #9F8C73",
".. c #A18564",
"X. c #A88765",
"o. c #A2856B",
"O. c #A68C6A",
"+. c #AA8C6A",
"@. c #B28D62",
"#. c #B38B69",
"$. c #B88E6C",
"%. c #A79068",
"&. c #AB926C",
"*. c #B59068",
"=. c #A28C73",
"-. c #AA8D70",
";. c #A28E79",
":. c #B18E71",
">. c #A69176",
",. c #AB9474",
"<. c #AD9977",
"1. c #A4937B",
"2. c #AA957B",
"3. c #AE9A7C",
"4. c #B29276",
"5. c #B69777",
"6. c #B39C75",
"7. c #B39E7C",
"8. c #B99B7C",
"9. c #B2A17A",
"0. c #C29F75",
"q. c #53CEE7",
"w. c #918D82",
"e. c #949187",
"r. c #99968D",
"t. c #9C998E",
"y. c #9B9890",
"u. c #A69983",
"i. c #AB9C84",
"p. c #AB9E89",
"a. c #B49E84",
"s. c #B89F88",
"d. c #AB9F90",
"f. c #AEA28D",
"g. c #B4A284",
"h. c #BAA484",
"j. c #B5A58A",
"k. c #BBA68A",
"l. c #B9A98D",
"z. c #AFA391",
"x. c #B1A694",
"c. c #BAA690",
"v. c #B3A996",
"b. c #BCAD94",
"n. c #B2A798",
"m. c #B5AB9B",
"M. c #B9AF9B",
"N. c #BEB196",
"B. c #BDB19A",
"V. c #B8AFA2",
"C. c #BDB5A3",
"Z. c #BEB8A5",
"A. c #BFB6A9",
"S. c #BFB8AA",
"D. c #C2B49C",
"F. c #C3B89F",
"G. c #C1B6A3",
"H. c #C3BAA6",
"J. c #C3BDAC",
"K. c #C5BFB1",
"L. c #C4C0AF",
"P. c #CAC1AD",
"I. c #DBC7A2",
"U. c #C6C3B3",
"Y. c #CAC5B5",
"T. c #CCC7B9",
"R. c #CECABC",
"E. c #D0CDBE",
"W. c #D2D0BF",
"Q. c #CFCDC1",
"!. c #D1CEC1",
"~. c #D4D1C5",
"^. c #D8D5C7",
"/. c #D6D3C9",
"(. c #D8D6CA",
"). c #DAD8CE",
"_. c #DDDCD3",
"`. c #E0DED6",
"'. c #E1DFD8",
"]. c #E2E1DA",
/* pixels */
"Q Q Q Q Q Q Q Q Q Q Q Q Q Q Q Q Q Q Q Q Q Q Q Q Q Q Q Q Q Q Q Q Q Q Q Q Q Q Q Q Q Q Q Q L L L L L ( ) ) ( ( ( ( ( L D D D D V Q Q Q Q Q Q Q Q Q Q Q Q Q Q Q Q Q Q Q Q Q Q Q Q Q Q Q Q Q Q Q Q Q Q Q Q Q Q Q Q Q Q Q Q Q Q Q ",
"Q Q Q Q Q Q Q Q Q Q Q Q Q Q Q Q Q Q Q Q Q Q Q Q Q Q Q Q Q Q Q Q Q Q Q Q Q Q Q Q Q Q Q Z /.R.R.R.T.T.~.!.~.~.^.~.~.~.~.^.~.T.T.Z T T Q Q Q Q Q Q Q Q Q Q Q Q Q Q Q Q Q Q Q Q Q Q Q Q Q Q Q Q Q Q Q Q Q Q Q Q Q Q Q Q Q Q Q Q ",
"Q Q Q Q Q Q Q Q Q Q Q Q Q Q Q Q Q Q Q Q Q Q Q Q Q Q Q Q Q Q Q Q Q Q Q Q Q Q Q Q Q Q Q S (.R.~.~.~.^./.~.~.^.^.~.~.^.~.^.~.~.T.T.Z T T Q Q Q Q Q Q Q Q Q Q Q Q Q Q Q Q Q Q Q Q Q Q Q Q Q Q Q Q Q Q Q Q Q Q Q Q Q Q Q Q Q Q Q ",
"Q Q Q Q Q Q Q Q Q Q Q Q Q Q Q Q Q Q Q Q Q Q Q Q Q Q Q Q Q Q Q Q Q Q Q Q Q Q Q Q Q Q Q Z ).~.~./.~.~./.~.a.g.a.a.a.^.~.~.~.~.~.T.S T T Q Q Q Q Q Q Q Q Q Q Q Q Q Q Q Q Q Q Q Q Q Q Q Q Q Q Q Q Q Q Q Q Q Q Q Q Q Q Q Q Q Q Q ",
"Q Q Q Q Q Q Q Q Q Q Q Q Q Q Q Q Q Q Q Q Q Q Q Q Q Q Q Q Q Q Q Q Q Q Q Q Q Q Q Q Q Q Q Z ).~.~.~.~.^.^./.`.`.`.`.h.^.^.W.^.~.~.).S T T Q Q Q Q Q Q Q Q Q Q Q Q Q Q Q Q Q Q Q Q Q Q Q Q Q Q Q Q Q Q Q Q Q Q Q Q Q Q Q Q Q Q Q ",
"Q Q Q Q Q Q Q Q Q Q Q Q Q Q Q Q Q Q Q Q Q Q Q Q Q Q Q Q Q Q Q Q Q Q Q Q Q Q h h l h N Z ).~.^.~.~./.~.^.a.a.a.a.a.^.^.^.^.~.^._.S 0 9 h h h Q Q Q Q Q Q Q Q Q Q Q Q Q Q Q Q Q Q Q Q Q Q Q Q Q Q Q Q Q Q Q Q Q Q Q Q Q Q Q Q ",
"Q Q Q I.9.Q Q Q Q Q Q Q Q Q Q Q Q Q Q Q Q Q Q Q Q Q Q Q Q Q Q Q Q Q Q B B B R.R.R.R.R.Z ).^.~.^.^./.^.$ $ $ $ $ @ $ ^.^.~.^.^._.S l.l.R.T.R.h h c Q Q Q Q Q Q Q Q Q Q Q Q Q Q Q Q Q Q Q Q Q Q Q Q Q Q Q Q Q Q Q Q 9.I.Q Q Q ",
"Q Q Q I.Q Q Q Q Q Q Q Q 9.Q Q Q Q Q Q Q Q Q Q Q Q Q Q Q Q Q Q Q B S S !.~.R.R.T.R.R.R.Z _.~.~.^.~.^.X 3 3 3 3 3 2 2 X X X ^.^._.D j.l.R.R.T.R.Q.!.l v v Q Q Q Q ~ Q Q Q Q Q Q Q Q Q Q Q Q Q Q Q Q 9.Q Q Q Q Q Q Q Q I.Q Q Q ",
"Q Q Q Q Q Q Q Q Q Q Q Q Q Q Q Q Q Q Q Q Q Q Q Q Q Q Q Q Q Q Q ^ !./.!.!.~.T.l h l l l Z ).^.^.^.^.X 3 3 P 3 3 3 3 [ [ U [ X X X D c c c v l Q.~.!.W.W.~.v Q Q Q ! ! Q Q Q Q Q Q Q Q Q Q Q Q Q Q Q Q Q Q Q Q Q Q Q Q Q Q Q Q ",
"Q Q Q Q Q Q Q Q Q Q Q Q Q Q Q Q Q Q Q Q Q Q Q Q Q Q Q Q G G G !.!.!.!./.h l ~.^.^.^.^.Z ^.@ @ O O 3 P 5 3 3 3 U } [ [ [ [ [ r.u.X ~./.~.~.~.s v ~.~.~.~.v Q Q Q Q Q Q Q Q Q Q Q Q Q Q Q Q Q Q Q Q Q Q Q Q Q Q Q Q Q Q Q Q Q ",
"Q Q Q Q Q Q Q Q Q Q Q Q Q Q Q Q Q Q Q Q Q Q Q Q Q Q N B !.~._.4.!.!.h h E.W.W.W.E.^.^.V X ; > > > > 5 3 3 3 { { [ { [ [ U r.3 3 2 X ~.~.~./.~.^.v Z ^.^.( v v v v Q Q Q Q Q Q Q Q Q Q Q Q Q Q Q Q Q Q Q Q Q Q Q Q Q Q Q Q Q ",
"Q Q Q Q Q Q Q Q Q Q Q Q Q Q Q Q Q Q Q Q Q Q Q Q B B /.).~.!.~._.h l K.K.E.W.W.W.W.W.^.O ; : > > > > 3 3 { | { U [ [ [ { U r.3 3 2 2 X ~.~.~.~./.~./.v S ].Y.P.L.P.v v v Q Q Q Q Q Q Q Q Q Q Q Q Q Q Q Q Q Q Q Q Q Q Q Q Q Q ",
"Q Q Q Q Q Q Q Q Q Q Q Q Q Q Q Q Q Q Q Q Q Q Q h ).).~.!.~.Q.h h !.K.K.K.W.E.E.E.W.E.$ } } > > > > 1 } | { | { { { { { U y.U U 3 2 2 2 X /.~./.!././.^.^.h s Y.Y.P.P.R.T.v Q Q Q Q Q Q Q Q Q Q Q Q Q Q Q Q Q Q Q Q Q Q Q Q Q ",
"3.Q Q Q Q Q Q Q Q Q Q Q Q Q Q Q Q Q Q Q Q N j ).~.~.~.~.!.h W.!.!.!.W.P.W.^.^.W.W.W.% } [ [ [ P [ u.} { | { { | | { { | r.U U 3 2 2 2 O Q.~./././.~././././.q R.R.R.R.T.T.s a Q Q Q Q Q Q Q Q Q Q Q Q Q Q Q Q Q Q Q Q Q Q 9.",
"Q Q Q Q Q Q Q Q Q Q Q Q Q Q Q Q Q Q Q Q h )._./././.~.h h ~.!.W.!.E.E.~.~.W.~.W.W.~.% } [ [ [ [ [ y.} } } { } { { { U y.U U U U 2 2 1 O E.~././././.~././././.w r T.T.T.~.W.Q.r Q Q Q Q Q Q Q Q Q Q Q Q Q Q Q Q Q Q Q Q Q Q ",
"Q Q Q Q Q Q Q Q Q Q Q Q Q Q Q Q Q Q Q Q a )././././.h !.!.~.!.~.!.~.~.~.W.^.^.~.^.).% } U [ [ [ [ u.} } } } } | { { | r.U U U U 2 2 2 O Q.E.!.~.!.!.Y.Y.~.~.!.~.~.q ~.~.~.~.!.r Q Q Q Q Q Q Q Q Q Q Q Q Q Q Q Q Q Q Q Q Q Q ",
"Q Q Q Q Q Q Q Q Q Q Q Q Q Q Q Q Q Q N N ).J Y ~.(.h !.!.!.!.R.W.E.E.~.~.~.~.~.).).f.$ } [ [ [ U r.| } } } } } } } } | r.[ U U U U 2 2 O _.R.Q.Q.Q.T.T.T.Q.Q.!.~.~.!.q !.!.J Y ).i i Q Q Q Q Q Q Q Q Q Q Q Q Q Q Q Q Q Q Q Q ",
"Q Q Q Q Q Q Q Q Q Q Q Q Q Q Q Q Q N ).).Q._.).J h Q.!.!.!.~.~.~.E.~.~.~.~.).).p.f.f.$ } 6 [ [ e.3 3 3 5 r.t.t.r.r.r.y.U U U U U [ 2 2 O U._._.R.R.!.Q.R.Q.Q.!.~.~.R.Q.q J ).`.!.`.`.i Q Q Q Q Q Q Q Q Q Q Q Q Q Q Q Q Q Q Q ",
"Q Q Q Q Q Q Q Q Q Q Q Q Q Q Q Q N ).Q.!.!.!.Q.f !.Q.Q.!.!.~.Q.~.^.~.~.).).>.;.u.p.p.$ } [ [ [ e.P P P w.w.w.w.w.w.w.w.U U U U 6 6 U 2 O U.Z.C._._.!.R.Q.Q.R.R.R.Q.Q.Q.~.0 !.~.!.!.!.`.i Q Q Q Q Q Q Q Q Q Q Q Q Q Q Q Q Q Q ",
"Q Q Q Q Q Q Q Q Q Q Q Q Q Q Q N /.!.!.Q.!.!.f /.Q.Q.~.~./.~.~.~.~.~._.=.=.=.>.u.i.o $ } P [ t.P P U w.w.w.w.w.w.w.w.w.U [ U U 6 6 U 2 O U.S.S.S.S._.E.Q.R.Q.Q.Q.R.R.T.Q.Q.q !.!.!.!.K.).i Q Q Q Q Q Q Q Q Q Q Q Q Q Q Q Q Q ",
"Q Q Q Q Q Q Q Q Q Q Q Q Q Q Q N ).R.!.!.Q.h ~./.!.!././.~./.!.~.~.).=.=.O. . .o o &.+ } U t.} w.w.w.w.w.w.w.w.w.w.w.w.[ P U 6 6 6 6 [ O b S.S.Z.Z.n._.Q.Q.Q.T.Q.T.T.Q.Q.Q.Q.0 ~.!.!.Q.).k Q Q Q Q Q Q Q Q Q Q Q Q Q Q Q Q Q ",
"Q Q Q Q Q Q Q Q Q Q Q Q Q Q p /.T.T.T.T.h ~.~./././././.~.~./.~._.I =.]  .o o ,.+.D.$ } t.w.e.w.w.w.e.} w.: : : r.r.r.t.U U 6 6 6 6 6 O R.h g Z.S.m.m._./.~.Q.Q.Q.Q.Q.T.T.Q.~.0 !.Q.R.R.E.e Q Q Q Q Q Q Q Q Q Q Q Q Q Q Q Q ",
"Q Q Q Q Q Q Q Q Q Q Q Q Q Q s !.T.T.T.T.f /././.~./.!.`.)./.).`.I I ` ' o i.i.B.N.N.O r.w.w.w.w.w.w.w.e.: ; ; * ; ; < > e.r.r.6 6 6 5 O J.T.R.a S.m.m.m._./././.K.Q.T.Q.!.~.~.q !.T.R.E.^.e Q Q Q Q Q Q Q Q Q Q Q Q Q Q Q Q ",
"Q Q Q Q Q Q Q Q Q Q Q Q Q 9 !.T.T.T.T.f /./.~./.~./.(./.`.`.).I I ` o o i.N.N.N.B.B.O w.w.w.w.w.w.r.r.r.: : * * - ; < < < < < r.r.5 6 O L.H.H.T.g j m.n.n._././.).Q.!.!.!.~.!.~.V E.E.E.E.E.e Q Q Q Q Q Q Q Q Q Q Q Q Q Q Q ",
"Q Q Q Q Q Q Q Q Q N N N N N N N N N N v b J Y I _._._.`._._.I I I o %.,.B.N.N.N.B.B.O w.w.w.y.y.y.: - ; 5 6 * * - ; < < < < < < < r.y.X S.H.J.J.T.T.f n.a.3._.~.(.(.~.!.Y Y J Y V V V V V V V V V V V V Q Q Q Q Q Q Q Q Q Q ",
"Q Q Q Q Q Q Q Q N )./././.E.R.Q.Q.Q.T.K.T.Y.K.Y.J J i.-.-._.M M o O.&.B.B.B.N.B.B.B.O y.y.y.< < < - : : - - 5 * * - < 1 > < < < , 4 | . Z.L.Z.Y.U.L.Y.p a.2._.Y J J J J /.~.~.~.E.E.~.~.E.~.E.~.Q.!.~._.Z Q Q Q Q Q Q Q Q Q ",
"Q Q Q Q Q Q Q N _.)./.(.!.Q.Q.E.Q.Q.Q.K.T.Y.Q.R.Q.T.`.X.+.O.M o O.%.C.Z.C.C.B.N.B.R.. } < < < < < - - - - q.< 5 * - - < < < > < < , w.. L.Z.H.L.U.U.U.T.w 3.a._.)./.).(.Q.E.Q.Q.E.~.~.E.~.E.~.E.E.~.~._.Z Q Q Q Q Q Q Q Q Q ",
"Q Q Q Q Q Q Q S _.!.Q.Q.E.Q.!.E.Q.Q.!.!.R.Q.Q.Q.T.Q.T.`._.o.o &.O.C.C.B.C.C.B.B.B.O.. w.< < < - - : ; - : 1 - q.* q.- - < < : - , , 7 . H.L.L.Z.U.U.U.U.T.9 i._.(.).Q.Q.!.!.!.!.E.E.~.~.E.^.E.^.~.E.~.`.v T T Q Q Q Q Q Q Q ",
"Q Q Q Q Q Q Q A _.R.R.!.!.!.Q.E.Q.R.E.Q.R.Q.Q.R.Q.Q.R.R.`.Y o &.B.Z.Z.B.B.C.C.Z.Z.` . } < < < - - : - - - q.- q.4 q.- : < < - - - , 8 . R.L.S.H.S.U.U.U.T.q a._./.E.~.K.T.!.!.!.!.~.~.E.~.!.W.~.~.W.E.`.V T T T Q Q Q Q Q Q ",
"Q Q Q Q Q Q Q S _.Q.!.Q.W.W.!.!.!.!.E.!.R.!.Q.Q.Q.Q.R.).d.9 O.+.Z.Z.Z.3.g.C.Z.Z.H.` . } < < < - - - : - - q.q.q.- 3 - - = - - - - - 8   &.J.J.L.J.U.U.U.K.T.9 s.`.!.~.!.!.!.!.E.~.!.E.~.W.~.!.W.E.~.~.`.Z T T T Q Q Q Q Q Q ",
"Q Q Q Q Q Q Q S _.Q.~.!.!.!.c.c.s.!.!.!.!.!.Q.!.R.Q.R.`.p.9 O.&.Z.Z.Z.U.Y.<.J.S.H.2.. 7 - < < - : - - - - < < q.- q.- - - - - - - - 6 . ,.S.J.L.J.U.L.U.K.K.9 s.`.!.E.!.E.E.~.^.!.~.~.c.D.0.~.~.~.W.~.`.Z T T T Q Q Q Q Q Q ",
"Q Q Q Q Q Q 9.Z _.~.!.~.!.2._.).`.4.!.!.!.!.!.Q.!.R.!.`.o o.+.S.Z.Z.Z.Z.Z.R.` Z.H.3.. 7 - - - , - - - - - - - < - < - - - - - - - - 7   g.L.J.J.J.J.J.S.J.J.K.e '.K.E.E.!.~.~.^.~.!.~.0.(./.~.h.~.~.^.`.Z T T 9.Q Q Q Q Q Q ",
"Q Q Q Q Q Q Q S _.!.!.~.~.4.!.-.~.4.~.!.!.~.~.!.~.).)._.9 X.O.H.J.Z.Z.Z.Z.J.R.....3.. 7 - - - - - - - - - , = - - - - , = = - - - - 7   j.J.J.J.J.J.J.J.J.J.J.0 _.Q.!.Q.!.~.^.!.^.~.^.5.~.8.8.8.^.^.^.`.v T T T Q Q Q Q Q Q ",
"Q Q Q Q Q Q Q B `.~.~.~.~.X.~.).~.X.~.~./.!.~.!.~.(.)._.9 O.O.J.J.J.Z.Z.J.L.E.3.3.3.. 7 - - - - - - - - - - - q.q.q.- - - - - - - = 7   g.L.J.J.L.J.J.J.K.J.U.9 _.Q.!.!.!.~.~.^.^.~.^.#.~._.).Y ^.^.^.`.v T T T Q Q Q Q Q Q ",
"Q Q Q Q Q Q Q V `.~.~.~./.).K K Y /.~././.!./.!.~.Q.)._.9 O.+.J.J.L.J.J.J.L.L.Q.i.a.  7 - - = - - - - - - - - 1 1 q., = = , - = - , 8   L.L.J.J.J.J.J.K.K.J.L.9 _.~.~.~./.~.~.~.~.^./.F A B /._.^.(.^.].( T T T Q Q Q Q Q Q ",
"Q Q Q Q Q Q Q B _./././././._._._././.~././.~.~.~.~.)._.9 %.O.J.J.J.L.L.L.L.L.Q.g.j.  7 = - - - - - - - - q.- q., q.= - = = - = - , 8   L.L.L.J.K.K.J.J.J.J.L.9 _./.~.~.~.~./.~.~.^./._.)._.).^.(.(.^.`.v T T T Q Q Q Q Q Q ",
"Q Q Q Q Q Q Q B '.)././././.^././././././.~.^./.~./.~._.9 O.O.L.L.L.L.L.L.L.L.L.!.f.  7 = - - - - - - - , q.- , = 1 = = = = - = , , 8   U.Y.L.L.J.J.J.K.J.J.J.q `.~.~.~.~././.~.^.(.).(.(.(.(.(.(.(.(.].( T T T Q Q Q Q Q Q ",
"Q Q Q Q Q Q Q B _.).)./.^.^.^.(././././.~./.~.~.~.~.^._.q O.O.L.L.L.L.L.L.L.L.L.U.j.. 7 - = = = = - = - = q.q.q.= = = = = - - , , , 8   U.L.L.L.J.J.J.J.C.C.C.9 `.!.~.~.~.~.~.~.(.(.(.(.).(.(.(.(.(.^.`.v R T T Q Q Q Q Q Q ",
"Q Q Q Q Q Q Q N '.).)./.(./.^././.^./.~.^./.~./././.~._.q X.O.U.L.L.L.T.T.T.U.L.U.j.  7 , = = = - = = = = 1 1 , = = , = = = = , , 1 #   U.U.U.S.J.L.J.H.C.C.C.9 `.Q.~.^./././.(.(.).(.(.(.(.(.P.(.(.(.`.v R T T Q Q Q Q Q Q ",
"Q Q Q Q Q Q Q z '.).).).^./.^./.^.^.~./.^.~././.~.b g j y 9 O.U.U.L.T.T.T.T.T.U.U.v.  7 , = = = = - - = = = = = = , = = = = , , 1 # & . U.U.Y.Z.S.S.C.C.C.C.9 J J J J /.).(.(.(.(.).(.).(.P.P.P.P.(.).`.v T T T Q Q Q Q Q Q ",
"Q Q Q Q Q Q Q h ].].].].]._._._._.'._._.K ..X.+.f.).).).).o &.T.T.T.T.T.T.R.T.U.U.v.  7 , , = = = - - = = - = = = = , , , = = , 1 # &   U.U.U.U.J.H.C.C.C.J.9 /.(.(./.J J b :.:.:.4.'.'._.'.`._.`.`.`.`.N T T T Q Q Q Q Q Q ",
"Q Q Q Q Q Q Q q A.A.S.S.n.V.m.v.m.m.m.^ _._.).(.).~.Q.!.W.!.f Y.T.T.T.Q.T.R.U.U.U.N.  7 , , , , , , = - = = - - = , , , , = = 1 # & &   U.U.U.U.U.U.U.C.C.j R.R.K.Q.K.).`.`.:.:.:.J.s.d.z.z.z.m.v.v.v.S.r T T T Q Q Q Q Q Q ",
"Q Q Q Q Q Q Q q S.K.x.x.z.x.v.v.n.n.n.S b _.!.!.Q.Q.Q.Q.W.E.E.n U.T.T.T.R.T.U.U.L.N.  7 , , , , , , = = = = = = = , , , , - , & & &   B.U.U.U.Y.U.U.U.U.v T.R.Y.~.K.!.K.Q.K.).b Y.p.p.d.f.z.x.z.v.z.v.S.o T T T Q Q Q Q Q Q ",
"Q Q Q Q Q Q Q 9 H.f.f.z.2.@.@.@.@.G C V B _.~.!.~.Q.!.Q.E.E.E.).` U.Q.T.T.R.U.U.U.l.N.                                              B.B.U.Y.U.U.Y.U.K.v H.T.T.R.K.!.K.!.K.Q.).A X.@.) @./ / @.@.v.z.v.Z.o T T T Q Q Q Q Q Q ",
"Q Q Q Q Q Q Q q H.d.x.q ).E.E.E.T.H.H.G.y u.`.!./.~.Q.~.!.!.~.~.(.F U.R.R.T.T.U.U.m.M.M.j.j.j.g.g.g.g.g.g.g.g.g.a.7.7.7.,.4.<.<.7.M.M.M.Y.U.U.U.L.U.c N.S.C.Q.~.^.K.K.E.K.`.n.0 H.E.R././././._.0 x.x.S.r T T T Q Q Q Q Q Q ",
"Q Q Q Q Q Q Q 9 V.d.p.q ).!.R.R.Y.T.H.H.u o._.~.Q.Q.Q./.~.~.Q.~.~.).F Y.T.R.R.Y.U.Q.Q.M.N.B.B.M.B.B.B.B.C.B.D.D.D.B.b.D.M.B.B.b.M.V.b.!.U.U.U.Y.Y.F l.N./.).~.Q.~.^.Q.!.K.`.d.0 H.E.R.!././.!.).0 z.z.M.o T T Q Q Q Q Q Q Q ",
"Q Q Q Q Q Q Q T 0 9 0 9 1.`.E.E.E.Y.Y.T.Y.y -._.Q./.~.~.~.~.~.~.~._.).H F T.R.T.R.L.U.~.Q.!.!.!.Q.!.!.~.Q.!.~.Q.!.~.B.B.B.B.!.!.Q.~.Q.Y.Y.U.U.b v b.k.^.Q.~.Q.~.~.E.!.~.`.I 9 J.E.E.!.!.~./._.d.0 0 0 0 T T Q Q Q Q Q Q Q Q ",
"Q Q Q Q Q Q Q Q T T T 9 ;.).E.E.R.E.Y.Y.Y.u -.,._.Q.~.~.~.~./.~.~.~.).~.!.H T.R.R.T.U.U.U.Y.Y.Y.T.Y.Y.Y.T.Y.T.Y.T.Y.!.Q.B.B.Y.T.U.T.U.Y.U.U.h !.!.!.~.~.~.~.~.~.~.~.!.).Y Y 9 J.E.R.!.!.Q./.).d.0 T T T T Q Q Q Q Q Q Q Q Q ",
"Q Q Q Q Q Q Q Q Q Q Q T q ;.).!.R.Q.R.R.Y.Y.s 4.n._.~.~.~./.~.~.~.~.~.~.~.!.N N R.T.R.R.Y.T.T.T.Y.Y.T.Y.Y.T.Y.Y.T.T.Y.Y.!.!.Y.T.Y.Y.Y.Y.N b ~.~.~.~.~.~.~.~.~./.~.!.).' X.e H.K.R.R./.~.!.).' 0 T T T Q Q Q Q Q Q Q Q Q Q Q ",
"Q Q Q Q Q Q Q Q Q Q Q Q 9 ;.d.).Q.R.R.Q.T.Y.K.s n.V._._._.~.~././././.~.~.~.!.~.l l l T.T.K.T.K.Y.T.T.Y.T.Y.Y.T.T.P.Y.Y.Y.Y.U.U.Y.z v z ~.~././.~.~.Q././.~./.~.~.).' I i H.H.H.R.R.~./.).' ` o T E Q Q Q Q Q Q Q Q Q Q Q Q ",
"Q Q Q Q Q Q Q Q Q Q Q Q T w x.).!.!.Q.!.R.R.Y s V.M.V.2.6._./././.^.~./.E.~.E.W.Q.R.T.l l Y.K.T.Y.Y.Y.Y.Y.Y.Y.T.Y.Y.Y.Y.Y.Y.Y.Y.k R.~././././././././././.~././._.o.Y ' t q H.H.R.~.~.~.).' 0 T T R ! Q Q Q Q Q Q Q Q Q Q Q ",
"Q Q Q Q Q Q Q Q Q Q Q Q Q 0 d.x.(.Q.!.!.#.#.#.J r V.C.C.,.<._.^.~./.^.^.~.W.~.!.E.E.T.T.T.S Z D G D ( ) L L L L L L D G A Y.U.n R.T.~.~././././././././././._._.;.o...t D.D.K Y ~.~.~.).` ` o R T W ! Q Q ~ Q Q Q Q Q Q Q Q ",
"Q Q Q Q Q Q Q Q Q Q Q Q Q T 0 x.n.).$.#.).).).I J i V.G.D.G._./././././.^.!.!.~.E.E.E.E.K.D ^.(.^./.(.(.(.^.!.!.~.~.W.~.!.c v R.E.!.~./.(././././././././.`.,.-.=.o.d b.D.K.K.Y.M J ).4.` o R R R W Q ! ! W Q Q Q Q Q Q Q Q ",
"Q Q Q Q Q Q Q Q Q Q Q Q Q Q T 9 n.J _._.~.~.Q.)._.).i V.F.F.F.`._./././.^.^.~.!.~.E.E.W.0.^.^.^.(.(.(.^.^.W.^.!.~.Q.~.E.~.!.).K !.~.~.~./.~.^././././.`.`.;.;.;.-.u b.Y.P.K.P.P.Y.`.u i.o R T T ! Q Q ! ! W Q Q Q Q Q Q Q Q ",
"Q Q Q Q Q Q Q Q Q Q Q Q Q ~ ~ 9 V.M S.).~.Q.!.~.R.!.R.k k D.G.G.C._._./.^.E.~.~.E.^.^.E.0.^.W.^.^.^.~.W.W.W.~.E.E.~.E.~.~.W.).K ~.~.~.!.~././././.`._.2.,.2.=.y g R.R.R.T.R.Y.T.~.I u i.o R R W ! Q Q W W Q Q Q Q Q Q Q Q Q ",
"Q Q Q Q Q Q Q Q Q Q Q Q Q Q ~ R o I S.V.).~.~./.Q.R.R.Q.^.i F.G.M.M.B._.`.`.~.!.^.E.^._ ).^.~.W.~.~.^.~.^.~.!.^.E.~.~.~.E.~.~.).K ~.!./././.`._._.i.1.2.2.=.f K.Y.T.R.R.R.R.T.!.I I u 9 T x ! W W Q Q Q Q Q Q Q Q Q Q Q Q Q ",
"Q Q Q Q Q Q Q Q Q Q Q Q Q Q W ! R 0 S.V.m._./.!.Q.Q./.~./.^.p p M.M.M.M.b.l.`.`.'.^.~._ `.~.^.^.^.W.^.^.^.W.~.~.~.~.~.!.~.~.E.`.^ R.~._._.`.<.<.>.2.>.,.u a Y.P.T.T.T.T.T.T.~.Y I I o T T Q Q Q Q Q Q Q Q Q Q Q Q Q Q Q Q Q ",
"Q Q Q Q Q Q Q Q Q Q Q Q Q ~ ! W ! R u V.V.M.).).~.~.~.~./.~.).).s s b.M.c.l.l.9.9.'.`._ _.~.W.^.^.^.^.^.D.^.~.W.D.~.~.!.~.W.W._.^ _.`.9.9.9.<.,.2.1.g f P.Y.K.K.E.T.R.T.^.^.I I ` u T T Q Q Q Q Q Q Q Q Q Q Q Q Q Q Q Q Q Q ",
"Q Q Q Q Q Q Q Q Q Q Q Q Q W ! ! W ! T 0 M.M.V.Z.).~././././.).).5.).p q c.l.h.g.9.9.*.L ).^.^.~.W.^.^.^._.D.D.D._.!.^.~.~.!.!.`.^ ^ 6.6.6.<.<.,.c j !.J ~.U.U.R.T.T.T.E.' ` I I o T T Q Q Q Q Q Q Q Q Q Q Q Q Q Q Q Q Q Q Q ",
"Q Q Q Q Q Q Q Q Q Q Q Q Q Q W ! W W Q T 0 V.m.V.V.).(./.).)._.$.^.!.!.!.0 q q 9.9.9.*.L _.^.).^.^.^.^.^.0.`.`._.h.^.^.^.^.~.~.`.( F 6.6.6.9 0 9 ^././.(.k.^.T.T.T.W.^.+.' I I o T T Q Q Q Q Q Q Q Q Q Q Q Q Q Q Q Q Q Q Q Q ",
"Q Q Q Q Q Q Q Q Q Q Q Q Q Q Q Q Q Q Q Q T 0 o C.V.V.m._.`._.$./.!.!.!.Q.!.R.Y.q e e e L `.)._.^.^.^.^.).`.$.*.*.`.^.^.^.^.^.~.`.^ 0 0 q 9 R.R.R.~././.~./.b.T./.~.;.;.] ' o o T T Q Q Q Q Q Q Q Q Q Q Q Q Q Q Q Q Q Q Q Q Q ",
"Q Q Q Q Q Q Q Q Q Q Q Q Q Q Q Q Q Q Q Q Q T T o V.m.V.M.m.J _.!.!.!.!.W.Q.R.Y.Y.P.T.T.D `._.^.^.).).^.^.D `._._.$.^.^.^.^.^.~.`.^ l.l.E.W.W.Y.Y.~./.~.~.!.)._.a.=.;.;.=.o R T Q Q Q Q Q Q Q Q Q Q Q Q Q Q Q Q Q Q Q Q Q Q Q ",
"Q Q Q Q Q Q Q Q Q Q Q Q Q Q Q Q Q Q Q Q Q Q Q T 9 9 m.m.m.J U._._._.!.!.W.R.R.Y.T.P.K.D `.^._.).).).).^.`.(.).^._.^.^.^.^.^.^.'.H j.j.!.W.R.~.~.~./._._._.' j f.=. .o o T Q Q Q Q Q Q Q Q Q Q Q Q Q Q Q Q Q Q Q Q Q Q Q Q Q ",
"Q Q Q Q Q Q Q Q Q Q Q Q Q Q Q Q Q Q Q Q Q Q Q Q T T 9 9 n.M U.n.n.n._._._.`.R.L.P.K.I.D ].^.^.).).^.).^.(.(.^.^.^.^.^.^.^.^.~.'.D j.g.!.R.W._.).)._.....` I j p.o o T T Q Q Q Q Q Q Q Q Q Q Q Q Q Q Q Q Q Q Q Q Q Q Q Q Q Q ",
"Q Q Q Q Q Q Q Q Q Q Q Q Q Q Q Q Q Q Q Q Q Q Q Q Q Q T T 9 9 K.n.n.x.z.z.z.p._.)._.)._.S '.'.].'.'.'.`._._._.).`.).).`.]._.]._.].A D.N._.)._.&.&.%.%.....` ` o o T T Q Q Q Q Q Q Q Q Q Q Q Q Q Q Q Q Q Q Q Q Q Q Q Q Q Q Q Q ",
"Q Q Q Q Q Q Q Q Q Q Q Q Q Q Q Q Q Q Q Q Q Q Q Q Q Q Q Q T T 9 9 x.x.z.d.z.p.p.p.u.>.+.9 J.J.K.V.M.M.M.M.M.m.M.n.M.v.z.H.S.H.A.A.y A A &.&.&.&.&.%.%.....o o T T Q Q Q Q Q Q Q Q Q Q Q Q Q Q Q Q Q Q Q Q Q Q Q Q Q Q Q Q Q Q ",
"Q Q Q Q Q Q Q Q Q Q Q Q Q Q Q Q Q Q Q Q Q Q Q Q Q Q Q Q Q Q T T 0 9 d.x.p.p.p.i.u.,.O.0 J.J.M.m.m.M.m.m.M.v.n.M.z.f.z.z.f.j.A.S.o n m &.&.&.&.%.%...o o T R ~ Q Q Q Q Q Q Q Q Q Q Q Q Q Q Q Q Q Q Q Q Q Q Q Q Q Q Q Q Q Q Q ",
"Q Q Q Q Q Q Q Q Q Q Q Q Q Q Q Q Q Q Q Q Q Q Q Q Q Q Q Q Q Q Q Q T T 0 9 9 9 p.i.2.>.O.0 J.m.m.m.m.n.n.c.x.x.x.d.z.z.f.f.f.f.f.A.o n A &.&.%.o o o o T T Q Q ~ ! Q Q Q Q ~ ~ Q Q Q Q Q Q Q Q Q Q Q Q Q Q Q Q Q Q Q Q Q Q Q Q ",
"Q Q Q Q Q Q Q Q Q Q Q Q Q Q Q Q Q Q Q Q Q Q Q Q Q Q Q Q Q Q Q Q Q Q T T T T 9 9 0 o 9 9 S.m.m.m.z.f.f.p.p.p.j.z.z.z.f.f.f.f.f.A.o o o o o o T T T T Q Q Q Q W ! ! Q Q ! ~ Q Q Q Q Q Q Q Q Q Q Q Q Q Q Q Q Q Q Q Q Q Q Q Q Q ",
"Q Q Q Q Q Q Q Q Q Q Q Q Q Q Q Q Q Q Q Q Q Q Q Q Q Q Q Q Q Q Q Q Q Q Q Q Q Q T T T T T 9 A.m.v.=.%.,.u.p.p.p.p.p.z.f.f.f.f.p.u.C.o T T T T T Q Q Q Q Q Q Q Q Q W W Q ! ! ! Q Q Q Q Q Q Q Q Q Q Q Q Q Q Q Q Q Q Q Q Q Q Q Q Q ",
"Q Q Q Q Q Q Q Q Q Q Q Q Q Q Q Q Q Q Q Q Q Q Q Q Q Q Q Q Q Q Q Q Q Q Q Q Q Q Q Q Q Q Q 0 A.>.%.&.,.O.p.p.p.u.u.p.p.u.u.u.u.u.u.C.o T T Q Q Q Q Q Q Q Q Q Q Q Q Q Q Q ! ! W Q Q Q Q Q Q Q Q Q Q Q Q Q Q Q Q Q Q Q Q Q Q Q Q Q ",
"Q Q Q Q Q Q Q Q Q Q Q Q Q Q Q Q Q Q Q Q Q Q Q Q Q Q Q Q Q Q Q Q Q Q Q Q Q Q Q Q Q Q Q T o o o 0 o o o o o o o o o o o o o o o o T T Q Q Q Q Q Q Q Q Q Q Q Q Q Q Q Q W W Q Q Q Q Q Q Q Q Q Q Q Q Q Q Q Q Q Q Q Q Q Q Q Q Q Q ",
"Q Q Q Q Q Q Q Q Q Q Q Q Q Q Q Q Q Q Q Q Q Q Q Q Q Q Q Q Q Q Q Q Q Q Q Q Q Q Q Q Q Q Q Q T T T T T T T T T T T T T T T T T T T T T Q Q Q Q Q Q Q Q Q Q Q Q Q Q Q Q Q Q Q Q Q Q Q Q Q Q Q Q Q Q Q Q Q Q Q Q Q Q Q Q Q Q Q Q Q "
};
