/* XPM */
static char *Smoke_5[] = {
/* columns rows colors chars-per-pixel */
"110 73 183 2 ",
"   c #4F2913",
".  c #512B14",
"X  c #5A361D",
"o  c #7D3515",
"O  c #5C3A23",
"+  c #5F3F28",
"@  c #56493F",
"#  c #55473E",
"$  c #5E4029",
"%  c #61412A",
"&  c #654934",
"*  c #5A4E43",
"=  c #574A40",
"-  c #5C5146",
";  c #5D5349",
":  c #62594B",
">  c #676159",
",  c #6A635B",
"<  c #6F695A",
"1  c #736C5E",
"2  c #70675B",
"3  c #6E6960",
"4  c #726C63",
"5  c #736F68",
"6  c #777166",
"7  c #797266",
"8  c #7A746A",
"9  c #7E796D",
"0  c #767168",
"q  c #797770",
"w  c #7A7870",
"e  c #823716",
"r  c #843917",
"t  c #883B17",
"y  c #893C19",
"u  c #863C1C",
"i  c #894523",
"p  c #8D4927",
"a  c #8D4C2B",
"s  c #924521",
"d  c #974C27",
"f  c #99532D",
"g  c #90522F",
"h  c #925532",
"j  c #945937",
"k  c #9D5A35",
"l  c #935B3B",
"z  c #9B5936",
"x  c #8E5231",
"c  c #A1522A",
"v  c #A15D36",
"b  c #A15E39",
"n  c #817F20",
"m  c #9C613B",
"M  c #A2633B",
"N  c #9C6844",
"B  c #9F7149",
"V  c #9A7A5D",
"C  c #A56A43",
"Z  c #A96E43",
"A  c #A66B47",
"S  c #AA7046",
"D  c #A3714B",
"F  c #AB744B",
"G  c #AF794E",
"H  c #A97750",
"J  c #AE7B53",
"K  c #A2765B",
"L  c #A57A5D",
"P  c #AA7E5C",
"I  c #A67953",
"U  c #B27F56",
"Y  c #807B6F",
"T  c #9C7E63",
"R  c #837E72",
"E  c #A97F62",
"W  c #8F8824",
"Q  c #948D29",
"!  c #99912E",
"~  c #ACB828",
"^  c #C1C52D",
"/  c #C9CD35",
"(  c #D1D43D",
")  c #AE8259",
"_  c #AF8A5E",
"`  c #B38256",
"'  c #B28359",
"]  c #B4885C",
"[  c #9D8265",
"{  c #9E8469",
"}  c #9F886C",
"|  c #868175",
" . c #888477",
".. c #8A867A",
"X. c #88857D",
"o. c #9F8C73",
"O. c #A18564",
"+. c #A38A66",
"@. c #A68C6A",
"#. c #AA8C6A",
"$. c #A78467",
"%. c #B38B69",
"&. c #B68E69",
"*. c #A79068",
"=. c #AB926C",
"-. c #A28C73",
";. c #AA8D70",
":. c #A28E79",
">. c #B18E71",
",. c #A69176",
"<. c #AB9474",
"1. c #AD9977",
"2. c #A3907A",
"3. c #AA957B",
"4. c #AE9A7C",
"5. c #A79A7F",
"6. c #B29276",
"7. c #B39C75",
"8. c #B39E7C",
"9. c #B99B7C",
"0. c #B69777",
"q. c #B59068",
"w. c #B0A079",
"e. c #C29F75",
"r. c #918D82",
"t. c #949187",
"y. c #99968D",
"u. c #9C998E",
"i. c #959289",
"p. c #9B9890",
"a. c #A69983",
"s. c #AB9C84",
"d. c #AB9E89",
"f. c #B49E84",
"g. c #B89F88",
"h. c #AB9F90",
"j. c #AEA28D",
"k. c #B4A284",
"l. c #B5A58A",
"z. c #BBA68A",
"x. c #B9A98D",
"c. c #BAA484",
"v. c #AFA391",
"b. c #B1A694",
"n. c #BAA690",
"m. c #BCAD94",
"M. c #B2A798",
"N. c #B5AB9B",
"B. c #B9AF9B",
"V. c #B3A996",
"C. c #BDB19A",
"Z. c #BEB196",
"A. c #B8AFA2",
"S. c #BDB5A3",
"D. c #BEB8A5",
"F. c #BFB6A9",
"G. c #BFB8AA",
"H. c #C2B49C",
"J. c #C3B89F",
"K. c #C2BAA6",
"L. c #C3BDAC",
"P. c #C1B6A3",
"I. c #C5BFB1",
"U. c #C4C0AF",
"Y. c #CAC1AD",
"T. c #DBC7A2",
"R. c #C6C3B3",
"E. c #CAC5B5",
"W. c #CCC7B9",
"Q. c #CECABC",
"!. c #D0CDBE",
"~. c #D2D0BF",
"^. c #CFCDC1",
"/. c #D1CEC1",
"(. c #D4D1C5",
"). c #D8D5C7",
"_. c #D6D3C8",
"`. c #D9D6CA",
"'. c #DAD8CE",
"]. c #DDDCD3",
"[. c #E0DED6",
"{. c #E1DFD8",
"}. c #E2E1DA",
/* pixels */
"^ ^ ^ ^ ^ ^ ^ ^ ^ ^ ^ ^ ^ ^ ^ ^ ^ ^ ^ ^ ^ ^ ^ ^ ^ ^ ^ ^ ^ ^ ^ ^ ^ ^ ^ ^ ^ ^ ^ ^ ^ ^ ^ ^ U U U U U U ` ` ` ` ` ` ` U G G G F S ^ ^ ^ ^ ^ ^ ^ ^ ^ ^ ^ ^ ^ ^ ^ ^ ^ ^ ^ ^ ^ ^ ^ ^ ^ ^ ^ ^ ^ ^ ^ ^ ^ ^ ^ ^ ^ ^ ^ ^ ^ ^ ^ ^ ^ ^ ^ ",
"^ ^ ^ ^ ^ ^ ^ ^ ^ ^ ^ ^ ^ ^ ^ ^ ^ ^ ^ ^ ^ ^ ^ ^ ^ ^ ^ ^ ^ ^ ^ ^ ^ ^ ^ ^ ^ ^ ^ ^ ^ ^ ^ S _.Q.Q.!.W.W.(._.(.(.).(.(.(.(.).).W.W.S W W ^ ^ ^ ^ ^ ^ ^ ^ ^ ^ ^ ^ ^ ^ ^ ^ ^ ^ ^ ^ ^ ^ ^ ^ ^ ^ ^ ^ ^ ^ ^ ^ ^ ^ ^ ^ ^ ^ ^ ^ ^ ^ ^ ^ ",
"^ ^ ^ ^ ^ ^ ^ ^ ^ ^ ^ ^ ^ ^ ^ ^ ^ ^ ^ ^ ^ ^ ^ ^ ^ ^ ^ ^ ^ ^ ^ ^ ^ ^ ^ ^ ^ ^ ^ ^ ^ ^ ^ S _.!./.(.(._.(.(.(.).(.(.).(.(.(.(.(.W.W.S W W ^ ^ ^ ^ ^ ^ ^ ^ ^ ^ ^ ^ ^ ^ ^ ^ ^ ^ ^ ^ ^ ^ ^ ^ ^ ^ ^ ^ ^ ^ ^ ^ ^ ^ ^ ^ ^ ^ ^ ^ ^ ^ ^ ",
"^ ^ ^ ^ ^ ^ ^ ^ ^ ^ ^ ^ ^ ^ ^ ^ ^ ^ ^ ^ ^ ^ ^ ^ ^ ^ ^ ^ ^ ^ ^ ^ ^ ^ ^ ^ ^ ^ ^ ^ ^ ^ ^ S ].(.(.(.(.(.(._.f.k.f.f.f.).(.(.).(.).W.F W W ^ ^ ^ ^ ^ ^ ^ ^ ^ ^ ^ ^ ^ ^ ^ ^ ^ ^ ^ ^ ^ ^ ^ ^ ^ ^ ^ ^ ^ ^ ^ ^ ^ ^ ^ ^ ^ ^ ^ ^ ^ ^ ^ ",
"^ ^ ^ ^ ^ ^ ^ ^ ^ ^ ^ ^ ^ ^ ^ ^ ^ ^ ^ ^ ^ ^ ^ ^ ^ ^ ^ ^ ^ ^ ^ ^ ^ ^ ^ ^ ^ ^ ^ ^ ^ ^ ^ S '.(.(.(.).(.(.).[.[.[.[.k.).).~.).(.~.'.F W W ^ ^ ^ ^ ^ ^ ^ ^ ^ ^ ^ ^ ^ ^ ^ ^ ^ ^ ^ ^ ^ ^ ^ ^ ^ ^ ^ ^ ^ ^ ^ ^ ^ ^ ^ ^ ^ ^ ^ ^ ^ ^ ^ ",
"^ ^ ^ ^ ^ ^ ^ ^ ^ ^ ^ ^ ^ ^ ^ ^ ^ ^ ^ ^ ^ ^ ^ ^ ^ ^ ^ ^ ^ ^ ^ ^ ^ ^ ^ ^ ^ ^ k k k v C S '.(._.(.(.).).).f.f.f.f.f.).).).(.).).].F r r k k k ^ ^ ^ ^ ^ ^ ^ ^ ^ ^ ^ ^ ^ ^ ^ ^ ^ ^ ^ ^ ^ ^ ^ ^ ^ ^ ^ ^ ^ ^ ^ ^ ^ ^ ^ ^ ^ ^ ^ ^ ",
"^ ^ ^ ^ ^ ^ ^ ^ ^ ^ ^ ^ ^ ^ ^ ^ ^ ^ ^ ^ ^ ^ ^ ^ ^ ^ ^ ^ ^ ^ ^ ^ ^ ^ ^ A S A W.Q.!.Q.!.S '.).(.)._.(._.% % % % % + % ).).).).).].F x.x.W.W.W.z z k ^ ^ ^ ^ ^ ^ ^ ^ ^ ^ ^ ^ ^ ^ ^ ^ ^ ^ ^ ^ ^ ^ ^ ^ ^ ^ ^ ^ ^ ^ ^ ^ ^ ^ ^ ^ ^ ",
"^ ^ ^ ^ ^ ^ ^ ^ ^ ^ ^ ^ ^ ^ ^ ^ ^ ^ ^ ^ ^ ^ ^ ^ ^ ^ ^ ^ ^ ^ ^ ^ S S D (.(.Q.W.Q.W.!.!.S '.(.).(.).).X 7 8 7 7 7 6 6 X X X ).).].G x.x.Q.W.Q./.Q.(.m M M ^ ^ ^ ^ ( ^ ^ ^ ^ ^ ^ ^ ^ ^ ^ ^ ^ ^ ^ ^ ^ ^ ^ ^ ^ ^ ^ ^ ^ ^ ^ ^ ^ ^ ",
"^ ^ ^ ^ ^ ^ ^ ^ ^ ^ ^ ^ ^ ^ ^ ^ ^ ^ ^ ^ ^ ^ ^ ^ ^ ^ ^ ^ ^ ^ ^ J /.(.^._.~.W.v v v v v Z '.(.).).).O 7 7 7 8 7 7 6 | R  . .X X X G m m m M M ~.(./.!.~.(.M ^ ^ ^ / / ^ ^ ^ ^ ^ ^ ^ ^ ^ ^ ^ ^ ^ ^ ^ ^ ^ ^ ^ ^ ^ ^ ^ ^ ^ ^ ^ ^ ",
"^ ^ ^ ^ ^ ^ ^ ^ ^ ^ ^ ^ ^ ^ ^ ^ ^ ^ ^ ^ ^ ^ ^ ^ ^ ^ ^ ^ J U J /.(./.(.^.k v (.).).).).S ).% $ O O 8 7 8 7 7 7 R  .|  .R R  .y.y.X /.(.(.(.~.f M (.(.(.(.M ^ ^ ^ ^ ^ ^ ^ ^ ^ ^ ^ ^ ^ ^ ^ ^ ^ ^ ^ ^ ^ ^ ^ ^ ^ ^ ^ ^ ^ ^ ^ ^ ^ ",
"^ ^ ^ ^ ^ ^ ^ ^ ^ ^ ^ ^ ^ ^ ^ ^ ^ ^ ^ ^ ^ ^ ^ ^ ^ ^ A A /./.].1.(.(.z z !.~.~.~.~._.).Z X < 1 1 1 1 7 7 9 7  . .| | | R R y.7 7 6 X _.(.(.(.(._.M S ).).` M M M M ^ ^ ^ ^ ^ ^ ^ ^ ^ ^ ^ ^ ^ ^ ^ ^ ^ ^ ^ ^ ^ ^ ^ ^ ^ ^ ^ ^ ^ ",
"^ ^ ^ ^ ^ ^ ^ ^ ^ ^ w.w.w.^ ^ w.w.w.^ ^ ^ ^ ^ ^ A A `.`._./.(.].k z I.R.!.~.~.~.~.~._.O < 1 1 1 1 1 7 8  .....R  . . . .R y.7 7 6 6 X _.(._.(._._.).M F }.E.E.Y.Y.M M M ^ ^ ^ ^ ^ ^ ^ ^ w.w.w.^ ^ w.w.w.^ ^ ^ ^ ^ ^ ^ ^ ^ ^ ",
"^ ^ ^ ^ ^ ^ ^ ^ ^ T.T.T.T.T.^ T.T.T.w.^ ^ ^ ^ k `.`.(.^.(./.k k !.R.L.R.(.!.!.~.~.!.& ..| 1 1 1 1 5 ....R ......R R R r.a.R R 0 6 6 6 X _.(.(.(.(.(.)._.m f U.Y.Y.Y.Q.!.M ^ ^ ^ ^ ^ ^ w.T.T.T.w.T.T.T.T.T.^ ^ ^ ^ ^ ^ ^ ^ ^ ",
"^ ^ ^ ^ ^ ^ ^ ^ w.T.T.T.T.T.T.T.T.T.w.w.^ C k w.8.(.(._./.k !.(.!.!.!.Y.~.(.).(.~.~.& ..| | Y |  .a... .......R r.r.R R y.R R 0 6 6 6 O Q.(._._._._._._.(._.y Q.Q.Q.Q.W.Q.1.w.^ ^ ^ w.w.T.T.T.T.T.T.T.T.T.w.^ ^ ^ ^ ^ ^ ^ ^ ",
"^ ^ ^ ^ ^ ^ ^ w.T.T.T.T.T.T.T.T.T.w.w.w.w.w.w.w.w.w._.z k (././.!.~.~.(.(.(.~.~.~.(.& ..Y | | |  .u.......R ....R X.X.a.R R R R 6 6 5 O ^./.(.(.(._._._._._._.u y W.Q.W.w.w.w.w.w.w.w.w.w.T.T.T.T.T.T.T.T.T.w.^ ^ ^ ^ ^ ^ ^ ",
"^ ^ ^ ^ ^ ^ ^ w.T.T.T.T.T.T.w.w.w.w.w.w.w.w.w.w.w.w.z ^././.(.~.(.!.(.(.~.(.(.).(.'.& ..| | | | R u...............X.R y.R R R R 6 0 6 O /./.(.(.(.(.R.E./._./._.(.y (.(.w.w.w.w.w.w.w.w.w.w.w.w.T.T.T.T.T.T.w.^ ^ ^ ^ ^ ^ ^ ",
"^ ^ ^ ^ ^ ^ ^ w.T.T.T.T.T.w.w.w.w.w.w.w.'.V w.w.w.z (././.(.^.~.~.!.!.(.(./.(.'.'.j.& ..| | | | y.....................p.R R R R R 6 6 O ].Q.^.^.Q.W.W.E.^.^.(././._.r (.(.w.w.w.p s w.w.w.4.7.8.w.T.T.T.T.T.w.^ ^ ^ ^ ^ ^ ^ ",
"^ ^ ^ ^ ^ ^ w.w.w.T.T.w.w.w.1.^ ^ w.w.'./.].].L z Q././././.(.~.!.(.(.(.(.].'.d.s.j.% ..9 | | t.7 7 7 8 u.u.u.y.y.y.y.R R R R R R 6 6 O R.[.].^./.!.^.^.^.^./.(./.Q.Q.r K ].].^.'.'.d w.w.^ ^ 7.w.w.w.T.T.w.w.w.^ ^ ^ ^ ^ ^ ",
"^ ^ ^ ^ w.T.T.T.T.w.w.w.^ ^ ^ ^ C '././.(.Q.^.z ^.(.^./.~.(.!.(.).(.).'.'.:.2.a.s.d.% ..| | | t.Y Y Y r.r.r.r.r.r.r.r.R R R R Y 9 | 6 O R.D.G.].].^.Q.^.^.Q.^.W./.Q./.(.y ^.^.(.(.~.'.p ^ ^ ^ ^ ^ ^ w.w.w.T.T.T.T.w.^ ^ ^ ^ ",
"^ ^ ^ ^ w.T.T.T.T.w.w.^ ^ ^ ^ C '.Q.!.Q.Q./.z (.^.^.(._.(.(.(._.).(.'.-.-.:.2.a.d.o $ ..Y | y.9 Y R r.r.r.r.r.r.r.r.r.R R R R Y 9 | 6 O L.G.G.S.G.].!.^.Q.^.^.^.Q.!.Q.Q.Q.r (./.(.(.W.'.s ^ ^ ^ ^ ^ ^ w.w.T.T.T.T.w.^ ^ ^ ^ ",
"^ ^ ^ ^ T.T.T.T.T.w.^ ^ ^ ^ ^ C '.W.(.Q.Q.z _._././._._._._./.(.(.].@.-.o.-.o.o o =.% ..| y.r.r.r.r.r.r.r.r.r.r.r.r...| R R 9 9 9 9 w O D G.G.D.D.N.[.^.^.^.W.^.Q.Q.^.Q.Q.Q.u (.!./.Q.'.c ^ ^ ^ ^ ^ ^ ^ w.T.T.T.T.T.^ ^ ^ ^ ",
"^ ^ ^ ^ T.T.T.T.T.w.^ ^ ^ ^ d (.W.W.W.W.z _._._._./._._.(.(._.(.'.[ } } @.o o =.#.Z.% ..y.r.r.r.r.r.t...r.2 2 2 u.u.u.y.R R 9 9 9 9 9 O Q.z z D.G.M.N.]._._.^.^.Q.^.Q.Q.Q.^.(.r /.Q.Q.Q.(.t ^ ^ ^ ^ ^ ^ w.T.T.T.T.T.^ ^ ^ ^ ",
"^ ^ ^ ^ w.T.T.T.w.w.^ ^ ^ ^ h (.W.W.W.W.z _._._._._./.[.`._.'.[.T T { { o s.s.Z.Z.C.+ y.r.r.r.r.r.r.r.t.2 2 2 : < < 4 4 t.y.y.9 9 9 9 O L.W.W.g G.M.N.M.'._._._.Q.Q.Q.Q.(././.t !.Q.!.!.).t ^ ^ ^ ^ ^ ^ w.w.T.T.T.w.^ ^ ^ ^ ",
"^ ^ ^ ^ ^ ^ w.w.8.^ ^ ^ ^ e (.W.W.W.W.z _._./._._._.`._.[.[.'.T T T o o s.C.Z.C.Z.C.+ ..r.r.r.r.r.y.y.y.2 2 : : < , 4 4 4 4 4 y.y.9 9 X U.L.K.W.l z N.N.M.]._._._.^.(././.(.(.(.A Q.~.Q.!.Q.y ^ ^ ^ ^ ^ ^ w.w.w.^ ^ ^ ^ ^ ^ ",
"^ ^ ^ ^ ^ ^ ^ w.w.C C N C C C C C C C C N L V K ].].].].].].T T T o *.<.C.Z.C.Z.C.C.O r.r.r.p.p.p.2 2 , 8 8 : : , , 4 4 4 4 4 4 4 y.p.X G.K.L.L.W.W.h V.f.4.].`._._.^./.E E E K Z Z Z Z Z S Z S M S M S ^ w.w.^ ^ ^ ^ ^ ^ ^ ",
"^ ^ ^ ^ ^ ^ ^ ^ C ]._._._.(.Q.Q.Q.!.E.E.W.E.E.W.K K s.;.;.].V V o @.=.Z.Z.C.C.C.C.C.O p.p.p.4 4 4 , 3 2 2 2 8 : : 2 4 4 4 4 4 4 4 4 X.  K.U.K.R.R.R.E.d d.8.].K K T E K (.(.(.(.(.!.!.(.(.~././.).~.~.}.Z ^ ^ ^ ^ ^ ^ ^ ^ ^ ",
"^ ^ ^ ^ ^ ^ ^ C ].`._.`.^.Q./.^.^.^.W.E.W.R.^.Q.Q.Q.[.#.@.@.T o @.@.D.S.S.S.Z.C.C.W.. r.4 4 4 4 4 , 2 , , = , q : , , 4 4 4 4 4 0 3 X.. D.D.K.U.R.R.R.W.r 8.d.[.`.`.`.`.^.^.^./.!.(././.~.(.~.(.(./.~.}.Z ^ ^ ^ ^ ^ ^ ^ ^ ^ ",
"^ ^ ^ ^ ^ ^ ^ F ]./././.!.(.Q.^.Q.^.^.^.^.Q.^.^.^.^.Q.].].$.o #.@.D.S.S.S.S.C.Z.C.$.. ..4 4 4 < 2 , , 2 , 4 , * : = , < 4 4 2 , 3 4 w . U.U.U.K.R.R.R.I.W.e 6.[.`.`.^.^.^.^.^./.!./.(.(.(.~.(.~.!.~.~.}.Z W W ^ ^ ^ ^ ^ ^ ^ ",
"^ ^ ^ ^ ^ ^ ^ w.T.T.w.(.Q././.Q.^.^.w.w.^.^.^.Q.Q.Q.Q.Q.].$.o =.C.S.S.S.S.S.S.K.K.[ . ..4 4 4 2 , , , < , - , - 5 = , , 2 4 , , , 0 w . Q.U.G.L.K.R.R.I.Q.r f.[.`./.Q.!./.!./.!.(.!.0.7.(./.~.~.(.~.!.w.T.T.w.W ^ ^ ^ ^ ^ ^ ",
"^ ^ ^ ^ ^ ^ ^ T.T.T.w.Q.!./.^.^.!./.w.^.Q.^.^./.^.^.Q.].h.e @.#.D.S.D.w.4.D.D.D.K.T . ..4 4 4 , , < , , < * : - , 0 , , , , , , , > q   <.K.L.U.I.R.R.R.I.W.r s.[.Q././.^./.~./.!.(./.9.~.~.).).~.(.(.w.T.T.T.W ^ ^ ^ ^ ^ ^ ",
"^ ^ ^ ^ ^ ^ ^ T.T.T.w.w.w./.n.n.z.^.(.^.^././.^./.Q.Q.].d.o #.=.D.D.D.U.E.1.K.G.L.3.. q , 4 4 , , , , 3 , 4 4 - , * , 3 , , , , , , 9 . <.D.K.U.R.R.G.R.I.I.e g.[.Q.!.^./.!.(.).~.(.(.g.H.0.(.~.(.w.w.w.T.T.T.W ^ ^ ^ ^ ^ ^ ",
"^ ^ ^ ^ ^ ^ ^ S 4.w.w.w.w.6.].'.'.6.^.(././././.Q././.].o @.@.G.D.D.D.D.D.W.[ L.K.4.. q , , , , , , , , , , , 4 , 4 < , , , , , > > q . k.U.L.L.G.L.L.L.L.L.L.e [.^.!./.!.(.(.(.(.(.(.e.'.'.~.g.(.7.w.w.w.w.W W ^ ^ ^ ^ ^ ^ ",
"^ ^ ^ ^ ^ ^ ^ D ].8.4.8.(.6./.#.(.6.(././././._./.'.`.].r #.#.K.U.D.D.D.D.D.Q.[ O.8.. q , , , , , , , , , , , , , , > , , , 3 > , , q . l.U.U.L.L.L.L.L.L.L.L.r ].^./.^./.(.(.).(.(.).9.).9.9.9.).).w.w.w.W W W ^ ^ ^ ^ ^ ^ ",
"^ ^ ^ ^ ^ ^ ^ C ]././.(.(.$._.'.(.$.(.(./._././.(.'.'.].e @.+.L.L.L.D.D.U.L.!.w.s.4.. 8 > , , , , , , , , > , = = * 3 > , , , > > , q   k.U.L.L.L.L.U.L.I.G.I.r ].^.^././.(.(.(.).).(.%._.'.'.$.).).).[.M W W W ^ ^ ^ ^ ^ ^ ",
"^ ^ ^ ^ ^ ^ ^ S {.(.(.(.(.'.L E E '.(._._._._./.(./.'.].e +.#.L.L.U.L.U.G.U.R./.f.4.  q , , , , , , , , > 3 , 3 5 * 3 , > , > , > 3 q   U.K.U.L.L.L.L.I.L.I.L.r ].(.(.(._.(.(.(.(._.`.I D D ).].`.).).[.` W W W ^ ^ ^ ^ ^ ^ ",
"^ ^ ^ ^ ^ ^ ^ S [._._._._._.].].'._._.(.(._./._._.(.`.].r @.@.I.U.L.U.L.U.U.U.^.j.l.  q > , , > , > > 3 > = , = 3 * > > , , , > , 3 q . U.U.U.L.I.I.L.L.L.I.L.r ]._.(.(.(.(._.(.(._.`.'.'.'.).).`.`.).}.M W W W ^ ^ ^ ^ ^ ^ ",
"^ ^ ^ ^ ^ ^ ^ A ].'.w.T._._.)._._._._._._.).(.(.(.(.(.].r #.#.L.R.G.U.U.U.U.U.U.^.l.  q , > > , > , , , > = > 5 , 3 , > > > , > 3 3 q   R.U.U.U.L.L.I.L.L.L.L.r [.(./.(.(._._.(.).`.`.`.`.`.).'.`.`.T.w.F W W W ^ ^ ^ ^ ^ ^ ",
"^ ^ ^ ^ ^ ^ ^ S [.'.w.T.T.T.).)._._.(._.(.).).(.(._._.].r +.+.I.U.U.U.U.U.U.R.R.R.l.  q > , > > , > > > > = = = , , , , , > 3 3 3 3 q   E.U.U.U.L.L.L.K.S.S.S.r [./.(.(.(.(.(.(.`.'.'.`.`.`.'.).T.T.T.w.M W W W ^ ^ ^ ^ ^ ^ ",
"^ ^ ^ ^ ^ ^ ^ M }.'.w.T.T.w.)._.)._._._._._._._._._.(.].r *.@.U.U.U.R.W.W.W.R.U.R.x.  q 3 > > > > > 3 > > 5 5 3 , , > , > > > 3 3 0 @   R.R.U.U.L.L.L.L.S.S.S.r [./.(._.`.)._.'.`.`.`.`.'.`.'.Y.w.T.T.w.S W W W ^ ^ ^ ^ ^ ^ ",
"^ ^ ^ ^ ^ ^ ^ m }.'.'.8.w.`.).)._._.)._.(._.(.(._.N j j p r @.R.R.U.W.W.W.W.E.R.R.V.  w 3 , > > > , > > > > > > > > , > , > > 3 0 @ ; . R.R.U.U.G.G.S.S.S.S.r K K K K _.'.)._.`.`.`.`.`.'.Y.Y.Y.Y.w.w.[.M W W W ^ ^ ^ ^ ^ ^ ",
"^ ^ ^ ^ ^ ^ ^ k {.{.{.{.{.].].].[.[.].[.L O.$.#.j.'.'.'.'.o @.W.W.W.Q.W.Q.E.Q.R.R.V.. q 3 3 > > , > > , , > > > , > 3 3 3 > > 3 5 = ;   R.R.R.R.K.L.S.S.S.F.r `.`.'._.K K N >.>.>.6.].].{.{.].[.}.[.].[.D W W W ^ ^ ^ ^ ^ ^ ",
"^ ^ ^ ^ ^ ^ ^ y L.G.I.G.M.N.V.V.V.N.N.) ].].'.`.].^.!.!.!./.z R.W.W.W.W.W.W.R.R.R.m.  q 3 3 3 3 3 3 , > , , > > , 3 3 3 3 > > 3 @ ; ;   R.R.R.R.R.R.R.S.S.N W.W.I.^.I.'.'.'.>.>.>.I.h.v.v.v.b.b.V.x.b.L.r W W W ^ ^ ^ ^ ^ ^ ",
"^ ^ ^ ^ ^ ^ ^ y L.G.b.b.b.b.w.w.8.b.b.F N ]././././.^.^.!.~.!.B R.Q.Q.W.W.Q.R.E.R.Z.  q 3 , 3 3 3 3 > > > > > > > 3 3 3 3 3 5 = ; ;   C.R.R.R.R.R.R.R.R.M W.W.W.!.I./.I.W.Q.'.N E.s.l.d.v.w.w.w.V.v.v.G.r W W W ^ ^ ^ ^ ^ ^ ",
"^ ^ ^ ^ ^ ^ ^ r F.v.j.b.3.%.w.w.w.w.w.C C ]._./.(././.^.~.!.!.'.V R.W.Q.W.Q.R.R.R.V.m.                        .                     Z.B.E.R.R.R.R.R.R.M P.W.W.Q.!./.I./.W.W.'.D %._ %.8.w.w.w.5.v.V.V.G.r W W W ^ ^ ^ ^ ^ ^ ",
"^ ^ ^ ^ ^ ^ ^ e L.h.v.t '.!.!.!.E.w.w.w.i 5.].(.(././.^.(./._./.'.I E.W.W.Q.Q.U.R.V.B.B.l.l.l.k.k.k.f.k.k.c.k.k.8.8.8.8.3.6.1.1.8.B.B.B.R.R.R.R.U.E.M Z.G.P.^./.(.I.I.Q.Q.[.M.r K.Q.w.w.w.(.(.].u v.v.G.r W W W ^ ^ ^ ^ ^ ^ ",
"^ ^ ^ ^ ^ ^ ^ r A.d.d.t './.Q.!.W.E.K.K.x 4.w./././.(.(./././._._.'.G R.W.W.W.W.E.~./.B.B.Z.C.B.C.C.C.C.C.S.H.C.H.C.B.H.B.B.C.B.B.A.m./.R.R.R.R.R.I z.Z.`.`._.^.(.(././.I.'.h.7.w.Q.!./._._.(.'.r b.v.A.r W W ^ ^ ^ ^ ^ ^ ^ ",
"^ ^ ^ ^ ^ ^ ^ W r r r r 2.'.!.!.!.Y.E.E.W.p w.w.w._._./._./././.(.].'.I H W.Q.Q.W.R.R.(././././.^./.(./././././././.C.C.C.C./././.(.^.E.E.R.R.N M Z.z.`.^.(.^._.(.Q.Q./.[.4.8.8.Q.Q./.(./._.'.v.r r r r W W ^ ^ ^ ^ ^ ^ ^ ^ ",
"^ ^ ^ ^ ^ ^ ^ ^ W W W e :.]./.!.!.!.R.W.E.a ;.3.'._.^._./._._.(.(.(.].(.(.I W.Q.Q.E.R.R.R.E.W.R.W.E.W.E.E.W.W.E.W.W././.Z.C.E.E.R.E.R.E.E.E.z (././././.^._.(./.(.(.(.'.E E e L.Q.Q./.(./._.'.v.o W W W W ^ ^ ^ ^ ^ ^ ^ ^ ^ ",
"^ ^ ^ ^ ^ ^ ^ ^ ^ ^ ^ W r -.'.!.^.Q.^.^.I.W.f 6.M.].(.(._._._.(.(.(._./.(./.M A Q.Q.W.Q.E.I.E.E.E.E.E.W.W.W.E.Y.W.W.E.E.!./.R.E.E.R.W.R.M M _.(.(.(./._._.(.(./.(.(.'.$.$.y K.K.Q.Q.(.(.~.).+.t W W W ^ ^ ^ ^ ^ ^ ^ ^ ^ ^ ^ ",
"^ ^ ^ ^ ^ ^ ^ ^ ^ ^ ^ ^ r 2.v.'.Q.Q.Q.Q.W.W.I.f M.A.].].]._.(._._._._.(.(.(.(./.z v v Q.W.W.E.E.E.W.W.E.E.E.W.W.E.W.E.E.E.E.E.R.R.M M M _._.(._.(.(.^._._.(._._.(.'.{ T s K.I.K.Q.Q._.(.`.[ O.o W ! ^ ^ ^ ^ ^ ^ ^ ^ ^ ^ ^ ^ ",
"^ ^ ^ ^ ^ ^ ^ ^ ^ ^ ^ ^ W u j.'./.!.^.^.Q.Q.P c N.A.A.3.6.]._._.).(._.)./.w.w.!.!.!.E.v k W.E.E.E.E.E.W.E.W.E.E.W.W.E.E.E.R.W.R.d !./._._._._.w.w._._._._._.(.(.'.} O.{ y r K.K.Q.(.(.(.'.[ t W W Q / ^ ^ ^ ^ ^ ^ ^ ^ ^ ^ ^ ",
"^ ^ ^ ^ ^ ^ ^ ^ ^ ^ ^ ^ ^ r v.b.'.^././.%.%.%.K s A.S.D.<.1.]._._.).).).(./.(.7.w.w.w.4.W.F F G G G ` ) U U U U G G ` J D E.R.N Q.!.8.8.8.w.4._._._._._._._.].].-.-.@.p n.H.P P (.(.(.'.O.[ o Q W ~ / ^ ^ ( ^ ^ ^ ^ ^ ^ ^ ^ ",
"^ ^ ^ ^ ^ ^ ^ ^ ^ ^ ^ ^ ^ W e M.M.'.>.%.'.].'.T K s S.S.H.P.].)._._._._.(.(.(.(.!.!.~.~.I.9.`.)._.).`.).).).(./.(./.(./.(.M M Q.w./._._._._._._._._._._._.[.,.,.-.-.x H.H.I.I.E.[ V '.1.+.o Q Q Q ~ ^ / / ~ ^ ^ ^ ^ ^ ^ ^ ^ ",
"^ ^ ^ ^ ^ ^ ^ ^ ^ ^ ^ ^ ^ ^ W r M.K [.'./././.'.'.'.s A.J.J.H.[.]._.(._.).).~.(.(.~.~.!.e.).).).).`.`.).).)./.(./.(.!./././.'.P /.(.(.(.`._._._._._.(.[.[.,.,.:.-.p H.I.E.Y.E.Y.Y.].g 4.t Q n Q / ^ ^ / / ~ ^ ^ ^ ^ ^ ^ ^ ^ ",
"^ ^ ^ ^ ^ ^ ^ ^ ^ ^ ^ ^ ^ ( ( r A.V G.'.(.(.^.(.^.Q.Q.c c P.J.J.B.[.]._.(.(.(.(.!.(.~.~.e.).).~.).).(.~.~.~.(.(.(.~.~.(.(./.'.L (./././._._._._.`.[.].3.<.2.3.p z W.I.W.Q.W.E.R.(.T a s.t Q Q ~ / ^ ^ ~ ~ ^ ^ ^ ^ ^ ^ ^ ^ ^ ",
"^ ^ ^ ^ ^ ^ ^ ^ ^ ^ ^ ^ ^ ^ ( Q o T G.A.].^.(.(.Q././.Q.(.s J.P.S.B.B.].[.[.~.(.(.(.(.] ].(.(.~._.).(.(.(.(.(.!.(.(.(././.(./.'.P (./._._._.[.].].5.5.3.2.;.h R.Y.Q.Q.W.W.Q.W.(.[ [ a o ! & / ~ ~ ^ ^ ^ ^ ^ ^ ^ ^ ^ ^ ^ ^ ^ ",
"^ ^ ^ ^ ^ ^ ^ ^ ^ ^ ^ ^ ^ ^ ~ / Q r G.N.A.].(.(.Q.^.(._._.(.d d B.B.C.m.m.x.[.[.{.).).` [.).).).~.(.).).).~.).(.(.(.!.(.(.(.!.[.) !.(.[.].[.1.1.3.5.3.;.d h E.I.!.Q.W.W.W.W.(.E [ T o W W ^ ^ ^ ^ ^ ^ ^ ^ ^ ^ ^ ^ ^ ^ ^ ^ ^ ",
"^ ^ ^ ^ ^ ^ ^ ^ ^ ^ ^ ^ ^ ( / ~ / Q a A.A.B.'.'.(.(.(._._.).'.'.f f V.Z.V.x.x.w.w.{.[.` ].(.).~.).).).).H.).(.~.H.~.(.(.!.(.!.]._ [.[.w.w.1.1.<.<.,.j j Y.Y.I.I.Q.W.W.Q.).).T T [ a W W ^ ^ ^ ^ ^ ^ ^ ^ ^ ^ ^ ^ ^ ^ ^ ^ ^ ^ ",
"^ ^ ^ ^ ^ ^ ^ ^ ^ ^ ^ ^ ^ ~ / / ~ / W r B.A.A.D.'.(._._._._.'.'.0._.d e V.x.c.c.w.c.q.G ].).).).).).).).].H.H.H.].(.(.(.(.~.(.[.` B 7.7.7.1.1.<.l l /.K (.R.I.Q.W.W.W.!.{ [ T T o W W ^ ^ ^ ^ ^ ^ ^ ^ ^ ^ ^ ^ ^ ^ ^ ^ ^ ^ ^ ",
"^ ^ ^ ^ ^ ^ ^ ^ ^ ^ ^ ^ ^ ^ ~ / ~ ~ ^ W r N.B.A.A.'.'._.`.'.'.0.).(.(.(.r y y w.w.w.=.U '.'.`.).).).).).e.].[.[.c._.).).).(.(.[.` ) 7.7.7.r r e _.)._.`.x.(.W.Q.W.).(.$.} T T o W W ^ ^ ^ ^ ^ ^ ^ ^ ^ ^ ^ ^ ^ ^ ^ ^ ^ ^ ^ ^ ",
"^ ^ ^ ^ ^ ^ ^ ^ ^ ^ ^ ^ ^ ^ ^ ^ ^ ^ ^ ^ W e e A.A.A.N.].].].&._./././.!.!.!.E.y y y y U [.).'.'.).).).).[.&.&.&.[.).).).).).(.[.J r r r r W.Q.W.(._.(.)._.m.Q.`._.:.-.-.} o o W W ^ ^ ^ ^ ^ ^ ^ ^ ^ ^ ^ ^ ^ ^ ^ ^ ^ ^ ^ ^ ^ ",
"^ ^ ^ ^ ^ ^ ^ ^ ^ ^ ^ ^ ^ ^ ^ ^ ^ ^ ^ ^ ^ W W e A.N.S.N.N.K [./././././.!.Q.E.U.Y.E.E.U [.'.).'.'.'.).).G ].].].&.).).).).).(.[.) x.x./.!.~.W.W.(._.(.(./.].'.f.-.:.:.-.o W W ^ ^ ^ ^ ^ ^ ^ ^ ^ ^ ^ ^ ^ ^ ^ ^ ^ ^ ^ ^ ^ ^ ^ ",
"^ ^ ^ ^ ^ ^ ^ ^ ^ ^ ^ ^ ^ ^ ^ ^ ^ ^ ^ ^ ^ ^ ^ W e e N.N.N.K R.].].]./.!.!.Q.Q.E.W.E.T.G [.).'.'.'.'.'.'.[.`.`.`.].).).).).).).{.I x.x.!.!.!.(.(.(.(.].].].[ l d.-.o.o o W ^ ^ ^ ^ ^ ^ ^ ^ ^ ^ ^ ^ ^ ^ ^ ^ ^ ^ ^ ^ ^ ^ ^ ^ ^ ",
"^ ^ ^ ^ ^ ^ ^ ^ ^ ^ ^ ^ ^ ^ ^ ^ ^ ^ ^ ^ ^ ^ ^ ^ W W e e M.V R.M.V.M.].].[.[.Q.Y.Y.Y.I.G }.'.).].).'.).).`.`.`.).).).).).).).).{.G l.k./.!.!.'.].'.].+.O.T T l d.o o W W ^ ^ ^ ^ ^ ^ ^ ^ ^ ^ ^ ^ ^ ^ ^ ^ ^ ^ ^ ^ ^ ^ ^ ^ ^ ^ ",
"^ ^ ^ ^ ^ ^ ^ ^ ^ ^ ^ ^ ^ ^ ^ ^ ^ ^ ^ ^ ^ ^ ^ ^ ^ ^ W W e e I.M.b.M.v.v.v.d.'.'.].'.].D {.}.}.{.{.{.[.[.[.].].].].'.[.[.[.[.].}.D J.Z.].'.].=.=.*.*.O.O.O.[ o o W W ^ ^ ^ ^ ^ ^ ^ ^ ^ ^ ^ ^ ^ ^ ^ ^ ^ ^ ^ ^ ^ ^ ^ ^ ^ ^ ^ ^ ",
"^ ^ ^ ^ ^ ^ ^ ^ ^ ^ ^ ^ ^ ^ ^ ^ ^ ^ ^ ^ ^ ^ ^ ^ ^ ^ ^ ^ W W e e M.b.v.v.v.d.d.j.a.,.#.y L.L.I.A.B.B.B.B.N.N.N.n.m.b.v.K.G.G.K.F.p D D =.=.=.=.=.*.+.+.O.o o W W ^ ^ ^ ^ ^ ^ ^ ^ ^ ^ ^ ^ ^ ^ ^ ^ ^ ^ ^ ^ ^ ^ ^ ^ ^ ^ ^ ^ ^ ^ ",
"^ ^ ^ ^ ^ ^ ^ ^ ^ ^ ^ ^ ^ ^ ^ ^ ^ ^ ^ ^ ^ ^ ^ ^ ^ ^ ^ ^ ^ ^ W W e e v.h.j.d.s.s.s.,.@.r L.L.N.B.N.N.N.N.N.n.M.V.v.v.v.v.v.j.K.G.o N B =.*.=.=.=.+.+.o o W Q ( ^ ^ ^ ^ ^ ^ ^ ^ ^ ^ ^ ^ ^ ^ ^ ^ ^ ^ ^ ^ ^ ^ ^ ^ ^ ^ ^ ^ ^ ^ ^ ",
"^ ^ ^ ^ ^ ^ ^ ^ ^ ^ ^ ^ ^ ^ ^ ^ ^ ^ ^ ^ ^ ^ ^ ^ ^ ^ ^ ^ ^ ^ ^ ^ W W e e e e d.a.5.,.@.r K.N.N.N.N.N.n.M.M.b.b.b.v.v.j.j.j.j.j.D.o N D =.=.*.o o o o W W ^ ^ ( / ^ ^ ^ ^ ( ( ^ ^ ^ ^ ^ ^ ^ ^ ^ ^ ^ ^ ^ ^ ^ ^ ^ ^ ^ ^ ^ ^ ^ ^ ",
"^ ^ ^ ^ ^ ^ ^ ^ ^ ^ ^ ^ ^ ^ ^ ^ ^ ^ ^ ^ ^ ^ ^ ^ ^ ^ ^ ^ ^ ^ ^ ^ ^ ^ W W W W e e e e e e D.V.N.N.j.j.d.d.d.d.j.v.v.v.v.j.j.d.d.F.o o o o o o W W W W ^ ^ ^ ^ ~ / / ^ ^ / ( ^ ^ ^ ^ ^ ^ ^ ^ ^ ^ ^ ^ ^ ^ ^ ^ ^ ^ ^ ^ ^ ^ ^ ^ ^ ",
"^ ^ ^ ^ ^ ^ ^ ^ ^ ^ ^ ^ ^ ^ ^ ^ ^ ^ ^ ^ ^ ^ ^ ^ ^ ^ ^ ^ ^ ^ ^ ^ ^ ^ ^ ^ ^ ^ W W W W W e G.V.N.-.*.,.j.d.d.d.s.j.j.j.d.j.j.j.a.S.o W W W W W ^ ^ ^ ^ ^ ^ ^ ^ ^ ~ ~ ^ / / / ^ ^ ^ ^ ^ ^ ^ ^ ^ ^ ^ ^ ^ ^ ^ ^ ^ ^ ^ ^ ^ ^ ^ ^ ^ ",
"^ ^ ^ ^ ^ ^ ^ ^ ^ ^ ^ ^ ^ ^ ^ ^ ^ ^ ^ ^ ^ ^ ^ ^ ^ ^ ^ ^ ^ ^ ^ ^ ^ ^ ^ ^ ^ ^ ^ ^ ^ ^ ^ e F.3.@.=.*.*.j.d.a.j.a.d.d.d.a.a.a.a.a.F.o W W ^ ^ ^ ^ ^ ^ ^ ^ ^ ^ ^ ^ ^ ^ ^ / / ~ ^ ^ ^ ^ ^ ^ ^ ^ ^ ^ ^ ^ ^ ^ ^ ^ ^ ^ ^ ^ ^ ^ ^ ^ ^ ",
"^ ^ ^ ^ ^ ^ ^ ^ ^ ^ ^ ^ ^ ^ ^ ^ ^ ^ ^ ^ ^ ^ ^ ^ ^ ^ ^ ^ ^ ^ ^ ^ ^ ^ ^ ^ ^ ^ ^ ^ ^ ^ ^ W o e o o o o o o o o o o o o o o o o o o W W ^ ^ ^ ^ ^ ^ ^ ^ ^ ^ ^ ^ ^ ^ ^ ^ ~ ~ ^ ^ ^ ^ ^ ^ ^ ^ ^ ^ ^ ^ ^ ^ ^ ^ ^ ^ ^ ^ ^ ^ ^ ^ ^ ^ ",
"^ ^ ^ ^ ^ ^ ^ ^ ^ ^ ^ ^ ^ ^ ^ ^ ^ ^ ^ ^ ^ ^ ^ ^ ^ ^ ^ ^ ^ ^ ^ ^ ^ ^ ^ ^ ^ ^ ^ ^ ^ ^ ^ ^ W W W W W W W W W W W W W W W W W W W W W ^ ^ ^ ^ ^ ^ ^ ^ ^ ^ ^ ^ ^ ^ ^ ^ ^ ^ ^ ^ ^ ^ ^ ^ ^ ^ ^ ^ ^ ^ ^ ^ ^ ^ ^ ^ ^ ^ ^ ^ ^ ^ ^ ^ ^ "
};
