/* XPM */
static char *Smoke_5[] = {
/* columns rows colors chars-per-pixel */
"79 30 3 1 ",
"  c #B0A079",
". c #DBC7A2",
"X c None",
/* pixels */
"XXXX ....  XXXXX  XXXXXXXXXXXXXXXXXXXXXXXXXXXXXXXXXXXXXXXXX    XXXX  .... .XXXX",
"XX ......... XX    XXXXXXXXXXXXXXXXXXXXXXXXXXXXXXXXXXXXXXX      X ......... .XX",
"X ........... ..    XXXXXXXXXXXXXXXXXXXXXXXXXXXXXXXXXXXXX    .. X ........... X",
"X...............    XXXXXXXXXXX  XXXXXXXXXXXX  XXXXXXXXXX    ... .............X",
".................  XXXXXXXXXXX     X  XX  X     XXXXXXXXXX  .................. ",
".............         XXXXXXXXXX   XXXXXXXX   XXXXXXXXXX        .............. ",
"............            XXXXXXXXXXXXXXXXXXXXXXXXXXXXX           . ............ ",
"...........       XXXXXXXXXXXXXXXXXXXXXXXXXXXXXXXXXXXXXXXXX       ............ ",
" ..........     XXXXXXXXXXXXXXXXXXXXXXXXXXXXXXXXXXXXXXXXXXXXX      ........... ",
"  .......         XXXXXXXXXXXXXXXXXXXXXXXXXXXXXXXXXXXXXXXXXX       . ........  ",
"X   ...             XXXXXXXXXXXXXXXXXXXXXXXXXXXXXXXXXXXXXX         .   ...    X",
"X ......      XXXXXXXXXXXXXXXXXXXXXXXXXXXXXXXXXXXXXXXXXXXXXXXXX       ......  X",
"XX.........    XXXXXXXXXXXXXXXXXXXXXXXXXXXXXXXXXXXXXXXXXXXXXXXX    ......... XX",
"XX .........    XXX  XXXXXXXXXXXXXXXXXXXXXXXXXXXXXXXXXXXX  XXX    .........  XX",
"XXX ......           XXXXXXXXXXXXXXXXXXXXXXXXXXXXXXXXXXXX            .....  XXX",
"XXXXX  ..       XXXXXXXXXXXXXXXXXXXXXXXXXXXXXXXXXXXXXXXXXXXXX        ..   XXXXX",
"XXXXXX ..     XXXXXXXXXXXXXXXXXXXXXXXXXXXXXXXXXXXXXXXXXXXXXXXXXX     .. XXXXXXX",
"XXXXX.....  XXXXXXXXXXXXXXXXXXXXXXXXXXXXXXXXXXXXXXXXXXXXXXXXXXXXXX   .... XXXXX",
"XXXX.......   XXXXXXXXXXXXXXXXXXXXXXXXXXXXXXXXXXXXXXXXXXXXXXXXXX   ........XXXX",
"XXXX........    XXXXXXXXXXXXXXXXXXXXXXXXXXXXXXXXXXXXXXXXXXXXX     .........XXXX",
"XXXX........     XXXXXXXXXXXXXXXXXXXXXXXXXXXXXXXXXXXXXXXXXXX      .........XXXX",
"XXXXX.......  XXXXXXXXXXXXXXXXXXXXXXXXXXXXXXXXXXXXXXXXXXXXXXXXX    ...... XXXXX",
"XXXXXX...     XXXXXXXXXXXXXXXXXXXXXXXXXXXXXXXXXXXXXXXXXXXXXXXXXX    .... XXXXXX",
"XXXXXX   X   XXXXXXXXXXXXXXXXXXXXXXXXXXXXXXXXXXXXXXXXXXXXXXXXXXX       XXXXXXXX",
"XXXXXXXXXXXX    XXXXXXXXXXXXXXXXXXXXXXXXXXXXXXXXXXXXXXXXXXXXX      XXXXXXXXXXXX",
"XXXXXXXXXXXXXX..   XXXXXXXXXXXXXXXXXXXXXXXXXXXXXXXXXXXXXXX       XXXXXXXXXXXXXX",
"XXXXXXXXXXXXXXXX...   XXXXXXXXXXXXXXXXXXXXXXXXXXXXXXXXXXX    XXXXXXXXXXXXXXXXXX",
"XXXXXXXXXXXXXXXXXXXXXXXXXXXX     XXXXXXXXXXXX     XXXXXXXXXXXXXXXXXXXXXXXXXXXXX",
"XXXXXXXXXXXXXXXXXXXXXXXXXXX        X  XX  X        XXXXXXXXXXXXXXXXXXXXXXXXXXXX",
"XXXXXXXXXXXXXXXXXXXXXXXXXXXXXX    XXXXXXXXXX    XXXXXXXXXXXXXXXXXXXXXXXXXXXXXXX"
};
