/* XPM */
static char *Smoke_6[] = {
/* columns rows colors chars-per-pixel */
"110 73 184 2 ",
"   c #4F2913",
".  c #512B14",
"X  c #5A361D",
"o  c #7D3515",
"O  c #5C3A23",
"+  c #5F3F28",
"@  c #56493F",
"#  c #55473E",
"$  c #5E4029",
"%  c #61412A",
"&  c #654934",
"*  c #5A4E43",
"=  c #574A40",
"-  c #5C5146",
";  c #5D5349",
":  c #62594B",
">  c #676159",
",  c #6A635B",
"<  c #6F695A",
"1  c #736C5E",
"2  c #70675B",
"3  c #6E6960",
"4  c #726C63",
"5  c #736F68",
"6  c #777166",
"7  c #797266",
"8  c #7A746A",
"9  c #7E796D",
"0  c #767168",
"q  c #797770",
"w  c #7A7870",
"e  c #823716",
"r  c #843917",
"t  c #883B17",
"y  c #893C19",
"u  c #863C1C",
"i  c #8C421E",
"p  c #8D4927",
"a  c #8D4C2B",
"s  c #894422",
"d  c #924521",
"f  c #9A4D28",
"g  c #94512C",
"h  c #99532D",
"j  c #925532",
"k  c #945937",
"l  c #9D5A35",
"z  c #935B3B",
"x  c #9B5936",
"c  c #8E5231",
"v  c #A1522A",
"b  c #A15D36",
"n  c #A15E39",
"m  c #817F20",
"M  c #9C613B",
"N  c #A2643B",
"B  c #9D6642",
"V  c #9C6A46",
"C  c #9F7149",
"Z  c #9A7A5D",
"A  c #A66B44",
"S  c #A96E44",
"D  c #A66B47",
"F  c #AA7046",
"G  c #A4714A",
"H  c #AB744B",
"J  c #AF794E",
"K  c #A97750",
"L  c #AE7B53",
"P  c #A2765B",
"I  c #A57A5D",
"U  c #A87B57",
"Y  c #B27F56",
"T  c #807B6F",
"R  c #9C7E63",
"E  c #837E72",
"W  c #A97F62",
"Q  c #8F8824",
"!  c #948D29",
"~  c #99912E",
"^  c #ACB828",
"/  c #C1C52D",
"(  c #C9CD35",
")  c #D1D43D",
"_  c #AE8259",
"`  c #AF8A5E",
"'  c #B38256",
"]  c #B28359",
"[  c #B4885C",
"{  c #9D8265",
"}  c #9E8469",
"|  c #9F886C",
" . c #868175",
".. c #888477",
"X. c #8A867A",
"o. c #88857D",
"O. c #9F8C73",
"+. c #A18564",
"@. c #A38A66",
"#. c #A68C6A",
"$. c #AA8C6A",
"%. c #A78467",
"&. c #B38B69",
"*. c #B48D66",
"=. c #A79068",
"-. c #AB926C",
";. c #A28C73",
":. c #AA8D70",
">. c #A28E79",
",. c #B18E71",
"<. c #A69176",
"1. c #AB9474",
"2. c #AD9977",
"3. c #A3907A",
"4. c #AA957A",
"5. c #AE9A7C",
"6. c #A79A7F",
"7. c #B39375",
"8. c #B39C75",
"9. c #B39E7C",
"0. c #BA9C7C",
"q. c #B69777",
"w. c #B59068",
"e. c #B0A079",
"r. c #C29F75",
"t. c #918D82",
"y. c #949187",
"u. c #99968D",
"i. c #9C998E",
"p. c #959289",
"a. c #9B9890",
"s. c #A69983",
"d. c #AB9C84",
"f. c #AB9E89",
"g. c #B49E84",
"h. c #B89F88",
"j. c #AC9F90",
"k. c #ADA28D",
"l. c #B4A284",
"z. c #B5A58A",
"x. c #BBA68A",
"c. c #B8A98C",
"v. c #B8A684",
"b. c #AFA391",
"n. c #B1A694",
"m. c #B3A996",
"M. c #BCAD94",
"N. c #B2A798",
"B. c #B5AB9B",
"V. c #B9AF9B",
"C. c #BBA790",
"Z. c #BDB19A",
"A. c #BDB196",
"S. c #B8AFA2",
"D. c #BDB5A3",
"F. c #BEB8A5",
"G. c #BFB6A9",
"H. c #BFB8AA",
"J. c #C2B49C",
"K. c #C3B89F",
"L. c #C3BAA6",
"P. c #C3BDAC",
"I. c #C1B6A3",
"U. c #C5BFB1",
"Y. c #C4C0AF",
"T. c #C9C2AE",
"R. c #DBC7A2",
"E. c #C6C3B3",
"W. c #CAC5B5",
"Q. c #CCC7B9",
"!. c #CECABC",
"~. c #D0CDBE",
"^. c #D2D0BF",
"/. c #CFCDC1",
"(. c #D1CEC1",
"). c #D4D1C5",
"_. c #D8D5C7",
"`. c #D6D3C9",
"'. c #D9D6CA",
"]. c #DAD8CE",
"[. c #DDDCD3",
"{. c #E0DED6",
"}. c #E1DFD8",
"|. c #E2E1DA",
/* pixels */
"/ / / / / / / / / / / / / / / / / / / / / / / / / / / / / / / / / / / / / / / / / / / / ' ' Y Y Y ' ' ' ' ' ' ' ' Y J J H H F / / / / / / / / / / / / / / / / / / / / / / / / / / / / / / / / / / / / / / / / / / / / / / / ",
"/ / / / / / / / / / / / / / / / / / / / / / / / / / / / / / / / / / / / / / / / / / / F ).!.Q.~.Q.Q.).`._.).)._.).).)._._.Q.Q.H Q Q / / / / / / / / / / / / / / / / / / / / / / / / / / / / / / / / / / / / / / / / / / / / ",
"/ / / / / / / / / / / / / / / / / / / / / / / / / / / / / / / / / / / / / / / / / / / F '.~.(.)._.).).`.)._.`.).).).).).).^.Q.Q.H Q Q / / / / / / / / / / / / / / / / / / / / / / / / / / / / / / / / / / / / / / / / / / / ",
"/ / / / / / / / / / / / / / / / / / / / / / / / / / / / / / / / / / / / / / / / / / / H [.(.`.).).`.).).g.g.l.g.g._._.)._._.).Q.F Q Q / / / / / / / / / / / / / / / / / / / / / / / / / / / / / / / / / / / / / / / / / / / ",
"/ / / / / / / / / / / / / / / / / / / / / / / / / / / / / / / / / / / / / / / / / / / F ].).).`.).`.).'.{.{.[.{.l._._.^.).)._.].H Q Q / / / / / / / / / / / / / / / / / / / / / / / / / / / / / / / / / / / / / / / / / / / ",
"/ / / / / / / / / / / / / / / / / / / / / / / / / / / / / / / / / / / / / / h x l b N F ].).).).)._._.`.g.g.h.g.g._._._._.)._.[.H r r l l x / / / / / / / / / / / / / / / / / / / / / / / / / / / / / / / / / / / / / / / / ",
"/ / / / / / / / / / / / / / / / / / / / / / / / / / / / / / / / / / / A F D !.!.!.!.~.F ]._._.).)._._.+ + % + % + % _._._._._.].H c.z.!.!.Q.x l l / / / / / / / / / / / / / / / / / / / / / / / / / / / / / / / / / / / / / ",
"/ / / / / / / / / / / / / / / / / / / / / / / / / / / / / / / / S H G ).).!.!.!.!.~.~.F ].`.).)._.`.X 7 7 7 7 7 6 6 X X X _._.[.J c.c.!.!.Q.(./.).l N N / / / / ) / / / / / / / / / / / / / / / / / / / / / / / / / / / / / ",
"/ / / / / / / / / / / / / / / / / / / / / / / / / / / / / / / L (.).(.).~.!.b b l b b S '.)._._._.X 7 7 7 8 7 7 7  ...E ..X X X J M M N b b )././.^.).^.N / / / ( ( / / / / / / / / / / / / / / / / / / / / / / / / / / / / ",
"/ / / / / / / / / / / / / / / / / / / / / / / / / / / / L L L (.(.).)./.b b )._._._._.F `.% % O O 7 T 8 7 7 8 E .. .E ..E ..u.i.X (.).).).).h N ).).(.).N / / / / / / / / / / / / / / / / / / / / / / / / / / / / / / / / / ",
"/ / / / / / / / / / / / / / / / / / / / / / / / / / D D ).).[.7.).(.x l ~.^.^.^.^._._.S X 2 1 1 1 1 8 8 8 7 ........E E E p.7 7 6 X `.).).`.).`.N F ).).' N N N N / / / / / / / / / / / / / / / / / / / / / / / / / / / / / ",
"/ / / / / / / / / / / / / / / / / / / / / / / / D D `.'.).).).[.l l E.U.~.^.^.^.^.~._.O < 1 1 1 1 1 7 7 ..X.o.E  .......E u.7 6 6 6 X `.).).).`.).`.S J |.T.T.T.T.N N N / / / / / / / / / / / / / / / / / / / / / / / / / / ",
"/ / / / / / / / / / / / / / / e.e.e.e./ / / / x '.'.).(.).(.x x (.U.P.E.).~.^.^.~.^.& X. .1 1 1 1 6 ..............E o.E s.E E 0 6 6 6 O ).`.).`.`.`.`.'.l h W.W.T.T.~.Q.N / / / / / / e.e.e.e./ / / / / / / / / / / / / / / ",
"/ / / / / / / / / / / / e.R.R.R.e.e.e.e./ D z ].`.).).).).x ^.^.~.(.^.T.^.).).).~.^.& X. . . .T ..i.X...........o...o.o.a.E E 0 6 6 6 X /.).).).).).).`.).`.y !.!.~.Q.!.!.f g / / / e.e.e.e.R.R.R.e./ / / / / / / / / / / / ",
"/ / / / / / / / / / / e.R.R.R.R.R.e.R.R.9.].[.`.`.`.).x x ^.).(.^.).~.).).).^.^.^.).& X.E E  . . .a.X.X.X.X...X...o.E s.E E E E 6 0 0 O /.).).).).).).`.`.`.`.u t Q.~.!.).!.(.i / e.R.R.e.R.R.R.R.R.e./ / / / / / / / / / / ",
"/ / / / / / / / / / / R.R.R.R.R.R.R.R.R.R.e.`.`.'.'.x (.).(.(.^.(.~.).^.).^.)._._.].& X. . . . . .s.X.X.X.X.o...X.X.o.u.E E E E 6 6 0 O (./.).).).).W.Q.(.).).).).t ).^.e.e.).i e.R.R.R.R.R.R.R.R.R.R./ / / / / / / / / / / ",
"/ / / / / / / / e.e.R.R.R.R.R.R.R.R.R.R.R.e.P e.e.e.e./.).(.(.(.^.^.^.).).).).].'.k.& X. . . . .u...X.X.X.X.X.X.X.X.X.a.E E E E E 0 6 O [.~././.!.!.E.!././.(.).(.`.t e.e.e.9.[.e.R.R.R.R.R.R.R.R.R.R.R.e.e./ / / / / / / / ",
"/ / / / / / / e.R.R.R.R.R.R.R.R.R.R.e.e.e.e.[.e.e.e.e.).!.).(.^.~.).).).).].].f.f.k.% X.T E  .y.8 8 7 7 u.u.i.u.u.i.u.E E E E E E 6 6 O E.[.[./.(.!./.!././.(.).(.!.!.e.e.e.5.(.e.e.e.e.R.R.R.R.R.R.R.R.R.R.e./ / / / / / / ",
"/ / / / / / e.R.R.R.R.R.R.R.R.R.R.e.e.e.^.(.(.x e.e.e.9.).^.^.)._.).).].].>.>.s.s.f.% X. . . .y.T T E t.t.t.t.t.t.t.t.E E E E T 9 E 6 O E.F.D.[.{.(./.!./././.Q.(.!.!.).e.e.(.(.).).e.e.e.R.R.R.R.R.R.R.R.R.R.e./ / / / / / ",
"/ / / / / / R.R.R.R.R.R.R.R.R.e.e.!./.~.!.!.x `././.).).`.).).).).).].;.;.>.<.s.f.o % X.T  .i.9 T E t.t.t.t.t.t.t.t.t.E E E E 9 9 E 6 O U.H.H.G.D.{.!.(.Q./././.!.(./.!.!.t ).(.).(.Q.].d e.e.R.R.R.R.R.R.R.R.R./ / / / / / ",
"/ / / / / / R.R.R.R.R.R.R.e.e.e.'.Q.^.~.(.x `.).(.(.`.`.).`.).)._.[.#.O.O.O.;.o o -.% X. .i.t.t.t.t.t.t.t.t.t.t.t.t.t.T E E 9 9 9 9 E % B H.H.D.H.N.[./././.Q./.!./././.(.!.r ).~.(.!.'.h / e.e.e.e.R.R.R.R.R.R./ / / / / / ",
"/ / / / / / R.R.R.R.R.R.R.e.e.).Q.Q.!.Q.x `.`.`.`.`.`.`.).`.(.(.].R ;.| #.o o 1.$.c.% X.i.t.t.t.t.t.t.t.t.2 2 2 u.u.i.i.E E 9 9 9 9 9 + e.M x F.H.B.B.[.`.)././.!.Q.Q.!.!.!.(.r (.~.~.~.(.y / e.e.R.R.R.R.R.R.R./ / / / / / ",
"/ / / / / / e.R.R.R.R.R.R.e.e.).Q.Q.Q.Q.k `.`.`.`.(.(.{.].`.[.[.R R R } o d.d.Z.A.A.+ u.X.t.t.t.t.t.t.t.2 2 2 : < < 4 4 p.u.u.9 9 9 9 O L.!.!.a D.B.B.B.[.`.`.`./.Q./.Q.(.`.(.y !.Q.~.~.(.y / 8.e.R.R.R.R.R.R.e./ / / / / / ",
"/ / / / / / / R.R.R.R.R.e.e.e.!.Q.!.Q.x `.`.(.`.`.`.'.`.{.{.[.Z R R o o d.A.A.A.Z.J.+ X.t.t.t.t.t.u.u.u.2 2 : : < , 4 4 4 4 4 u.u.9 9 O Y.L.F.!.z k B.B.N.[.`.`.`./.).(.(.`.(.(.A ~.~.~.~.~.y 9.e.e.R.R.R.R.R./ / / / / / / ",
"/ / / / / / / 9.R.R.R.e.e.e.e.A A A A N V P P Z [.[.[.[.[.[.R R R o =.1.A.Z.A.Z.Z.J.O t.t.t.a.a.u.3 2 2 8 8 : : , < 4 4 4 4 4 4 4 a.u.X H.L.L.Y.Q.Q.j B.g.5.[.'.`.`.(.).W W P W S S N S F F S 8.e.e.e.R.R.R.e./ / / / / / / ",
"/ / / / / / / / 5.e.e.e.e.e./.!.~.!.W.W.W.Q.Q.Q.P P d.:.:.[.Z Z o #.-.Z.Z.A.Z.A.V.Z.O a.a.a.4 4 4 , < , , 2 8 : : < 4 4 4 4 4 4 4 4 o.. Y.L.L.E.E.E.W.p g.9.[.P Z W I P ).).`.).).~.).).^.^.).).e.e.e.e.e.e./ / / / / / / / ",
"/ / / / / / / A ].e.e.e./.!.(./././.Q.Q.W.W./.!.(.Q.{.$.:.#.R o #.#.D.D.D.D.A.Z.Z.Q.. t.4 4 4 4 4 , , 2 2 = , 8 : , < 4 4 4 4 4 3 4 t.. H.L.P.Y.E.E.E.Q.e 5.d.[.`.].'.'.~././.(.~.).).~.).^.).^.).!.e.e.e./ / / / / / / / / ",
"/ / / / / / / G [.e.e.e.e./.^.!./././././.!.(.(.Q.(.Q.[.[.+.o -.-.D.D.D.D.D.Z.A.J.@.. X.4 4 4 , , 2 , 3 , 4 3 * : = , , 4 4 , , 3 3 q . Y.L.F.Y.E.E.E.E.Q.r 9.{.`.`./.(./.(.~.(.~.(.(.).^.).^.).^.e.e.e.e.Q Q / / / / / / / ",
"/ / / / / / / H e.R.R.e.e.^.!.(.!.(./././.!.!.!.(./.!.!.[.%.e $.F.F.Z.D.D.F.D.F.H.{ . X.4 4 4 3 , < , , , * < ; 5 = , , 4 4 , , , 3 w . /.L.L.L.L.E.U.E.T.t g.{._.).(.!.(.(.(.~.).(.).^.).(.).).).e.e.R.R.e.Q Q / / / / / / ",
"/ / / / / / / F R.R.R.R.e.e.^.(.(./././.e.e./././.!.!.[.j.e #.=.F.F.F.5.e.F.L.F.L.W . X.4 3 4 , , 2 , 3 < * ; * , 0 < , , , , , , , w . <.Y.H.Y.U.E.E.E.U.Q.r d.{.!.~.(.!.(.~.(.e.8.~.).^.).^.e.e.e.R.R.R.R.Q Q / / / / / / ",
"/ / / / / / / H R.R.R.R.e.e.e.e.h./././.e.e././././.!.[.f.o #.$.F.F.F.E.E.2.H.L.L.4.. w , 3 4 , 2 , , , , 4 4 - , * , < , , , , , , w . 2.L.P.E.P.U.P.E.U.Q.e j.{.!.!.(.(.~.).).q.9.!.J.J.q.e.e.e.e.R.R.R.R.Q Q / / / / / / ",
"/ / / / / / / H [.R.R.R.e.e.e.e.].q.)./.).(.(.(.~.~.(.[.o #.$.H.L.Z.F.D.F.!.{ H.P.4.. w , , , , , , , , , , , 4 , 4 , , , , , , , , w   l.Y.P.L.P.P.P.P.P.P.P.e {./.(.(.!._.).).).^.).r.'.'.e.e.e.e.R.R.R.Q Q Q / / / / / / ",
"/ / / / / / / G ].e.e.5.e.9.e.$.(.q.).(.(.(.(.(.(.'.'.[.e $.$.L.P.F.F.F.F.F.!.{ +.5.. q , , , , , , , , , , , , , , , , , 3 > , , , q   z.P.Y.L.Y.P.P.P.P.P.U.r [./.!.(.(.).).)._.).).0.).0.0.8.e.e.e.e.e.Q Q Q / / / / / / ",
"/ / / / / / / A [.).e.9.e.$.).].).%.).).`.(.`.(.(.[.].[.e #.#.P.P.P.F.F.Y.Y./.e.5.5.. q > , , , , , , , > 3 , = = * > 3 , > , > , > q   z.Y.L.Y.P.P.P.U.P.U.Y.e [././.(.).).(._.)._._.&._.].'.%._.e.e.e.N Q Q Q / / / / / / ",
"/ / / / / / / F |.).).`.).].I I W ].).`.`.(.(.`.).(.'.[.e =.#.P.Y.P.Y.P.H.Y.E.(.d.g.  q , , , , > > , , > > 3 4 5 * 3 > , , , , , 3 q   L.Y.Y.Y.E.H.P.U.U.H.E.r [.).).).).)._.).)._.'.P G D '.]._.'._.|.J Q Q Q / / / / / / ",
"/ / / / / / / F [.`.)._.`._.[.].].`.`.).`.`.`.).).`.'.[.e $.@.U.Y.P.P.Y.Y.Y.Y./.l.z.  q > , , > , 3 , , > = > = 3 * > > , > , > , 3 q . Y.Y.Y.H.P.U.P.P.P.U.H.r }.).).).`.).`.).).).'.].].[.'.'.'._.'.|.N Q Q Q / / / / / / ",
"/ / / / / / / A |.].`._.e.R.`.`.`.`.`.`.`._.).).`.).).[.e =.#.P.E.P.Y.P.Y.Y.Y.Y./.z.  q > 3 > , > , , , > = > 4 3 3 , , > > > 3 3 3 q . E.Y.Y.Y.P.U.P.P.U.P.P.r {.(.).).).`.).).(.'.'.'.].'.'.'.R.e.'.{.H Q Q Q / / / / / / ",
"/ / / / / / / F [.'.].e.R.R.R.`.`.`.`.`.).`._.).).`.`.[.e $.$.P.H.Y.Y.Y.Y.Y.E.E.E.n.  q > > > > > > > > > = = = > > > > > , > 3 3 3 q   E.T.Y.Y.P.H.P.P.D.D.D.r {.).(.).(.`.).).].`.'.].'.'.'.R.R.R.e.{.N Q Q Q / / / / / / ",
"/ / / / / / / N |.].].e.R.R.e.e.9.`.`.).`._.`.`.`.`.`.[.r $.#.Y.E.E.E.!.Q.Q.E.Y.E.z.  q 3 > > > , > > > > 5 5 3 > > > > > , > 3 3 5 @   E.E.Y.Y.L.Y.H.P.D.Z.D.r {.(.).`.`.`.'.'.].].'.'.'.e.e.e.R.R.e.{.A Q Q Q / / / / / / ",
"/ / / / / / / N |.].].].e.e.e.e.`.`._.`.).`.`.(.`.B k k p r =.Y.E.U.E.Q.!.!.E.E.E.C.  q 3 > > > > , 3 > > > > > > , > 3 > > > 3 5 @ ; . E.W.Y.Y.P.H.D.D.D.D.r P P P P `.].'.'.'.].'.].'.'.T.e.e.e.e.].{.A Q Q Q / / / / / / ",
"/ / / / / / / l |.|.|.|.|.[.{.{.{.[.[.[.W W %.$.z.].].].].o #.!.W.Q.Q.!.!.Q.W.E.E.M.  q 3 3 > > , > > > , > > , > , 3 3 3 , > 3 5 = ;   E.E.W.E.L.L.D.D.D.H.r ].'.].`.P W V :.,.,.7.[.}.{.{.{.{.{.{.{.{.A Q Q Q / / / / / / ",
"/ / / / / / / t H.H.H.H.N.S.B.m.m.V.V.U [.[.].].].(././.^.(.x E.Q.Q.!.W.Q.!.E.E.E.V.  q , 3 3 3 3 3 , , > > , > > 3 3 3 3 > > 4 @ ; ;   E.E.E.E.E.Y.E.D.D.B Q.Q.U./.U.{.].].,.,.,.P.j.j.b.b.b.m.m.m.m.H.r Q Q Q / / / / / / ",
"/ / / / / / / t H.U.n.n.b.n.n.n.n.e.e.e.B [././.(.)././.!.~.~.C E.!.!.!.E.!.E.E.E.M.  q 3 3 3 3 3 , > > > > > > > 3 3 3 3 3 4 = ; ;   Z.E.E.E.E.E.E.E.E.N Q.Q.Q.!.~.Q.Q.Q.Q.].B E.k.9.9.e.b.b.N.m.b.m.H.i Q Q Q / / / / / / ",
"/ / / / / / / r L.k.k.n.4.*.` *.e.e.e.e.e.[.).).(.(.(./.(.~.~.].P W.!.W.!.!.E.E.E.c.V.                      . .                     A.V.E.E.E.E.E.E.E.N L.Q.Q.Q.U.U.!.Q.Q.Q.].K *.e.e.8.e.e.` @.m.m.b.F.o Q Q Q / / / / / / ",
"/ / / / / / / r H.j.b.r ].(.~.~.Q.L.e.8.e.e.[.).(.)././.(.(.(.).'.K E.!.!.!.!.E.E.m.V.Z.z.z.z.l.l.l.l.l.l.l.l.l.9.9.9.9.4.2.7.2.5.Z.Z.V.Q.E.E.E.E.E.N A.H.D.(.)._.U.Q.Q.Q.[.m.t 2.e.e.e.).`.`.[.r N.b.H.r Q Q Q / / / / / / ",
"/ / / / / / / r S.f.k.r [.(.Q.~.W.W.L.L.c 5.e.e.e.).).).(.).(.).).].U E.!.Q.!.E.E.(.(.V.V.Z.Z.Z.Z.Z.Z.Z.J.D.J.Z.Z.J.V.J.V.Z.Z.V.V.S.A./.E.E.E.E.E.U x.A.`.].(.(.)._.~.~.Q.9.e.e.e.!.~.(.).`.).].r b.b.S.r Q Q / / / / / / / ",
"/ / / / / / / Q r r r r >.[.~.!.~.W.W.Q.W.p ;.e.e.e.e.(.`.(.).).).[.[.U H !.!.!.!.E.E.(./.(.(././.(.(.(.(.(.(.(.(.(.Z.Z.Z.Z.(.(./././.Q.E.E.E.N N M.c.'.(.)./.).).(.(.9.8.5.e.L.!.!.(.).(.`.[.b.r r r r Q Q / / / / / / / / ",
"/ / / / / / / / Q Q Q r >.'.~.~.~.~.Q.W.W.a :.1.].).`.e.e.`.).).).).].(.).J W.!.!.W.E.E.E.E.Q.Q.Q.W.Q.Q.W.Q.Q.W.Q.Q.(.(.Z.Z.W.W.W.W.W.Q.E.E.x (.(.)./.).(.).).).(.q.9.].{ { r P.!.!.).(.(.`.].k.r Q Q Q Q / / / / / / / / / ",
"/ / / / / / / / / / / Q e <.]././.!.!./.U.Q.g 4.N.{.`.(.).`.).`.`.).).).).^.N A !.!.!.!.W.E.W.W.E.W.Q.W.W.Q.W.Q.Q.W.W.W.(.(.W.E.W.E.W.E.N A ).`.)./.).).`.).).).)./.].} &.y L.P.!.!.`.).^.^._ i Q Q Q / / / / / / / / / / / ",
"/ / / / / / / / / / / / r <.j.].!.!./.!.Q.Q.Q.f N.B.[.{.[.`.).`.`.`.).).).).).).l b l !.Q.E.W.W.!.W.Q.Q.W.Q.Q.W.W.Q.Q.W.W.W.E.W.W.N N N ).).`.`.`.(.).`.).).).`.).].%.} d L.L.P.!.!.).).].{ { o Q ~ / / / / / / / / / / / / ",
"/ / / / / / / / / / / / Q u b.].(.~./.!.!.!.W f B.S.S.7.1.{.`.`.`.).`.`./.).e.e.9.e.Q.l l Q.W.W.W.W.W.Q.W.W.W.W.Q.Q.W.W.W.W.E.W.h Q.)._.5.e.e.e.`.`.).`.`.`.`.).].| %.} y r L.L.!.).).).].{ o Q Q ! ( / / / / / / / / / / / ",
"/ / / / / / / / / / / / / r b.b.]./.(.(.&.*.&.P d S.D.D.2.2.[.`.`.`.`.`.).^.(.).e.e.e.e.e.H H J J J L ' Y Y Y Y J J J ' G W.E.V !.e.9.9.e.e.`.`.`.`.`.`.`.`.[.[.;.;.+.p M.J.I W ).).).].{ { i ! Q ^ ( / / ) / / / / / / / / ",
"/ / / / / / / / / / / / / Q e N.N.].,.&.].[.`.R Z d I.D.I.J.[.`.`.`.`.).).).^.^.~.~.^.^.U.0.0.e.`.'.'.'._.'.~.).).^./.).).M e.e.9.(.)._.`.'.`.`.`.`.'.`.`.[.3.<.;.;.c J.J.P.U.T.{ Z ].2.@.o ! ! ! ^ / ( ( ^ / / / / / / / / ",
"/ / / / / / / / / / / / / / Q r N.P {.[./.)./.].].[.d S.J.I.K.[.[.`.`.`._.).).).).~.^.~.r._.'.'._._.'.'._.^.).)./.).).~.).^.].I (.).).(.`.`.`.`.`.`.`.[.{.3.;.<.;.p J.P.W.W.T.T.Y.[.a e.o ! m ! ( / / ( ( ^ / / / / / / / / ",
"/ / / / / / / / / / / / / ) ) r S.Z H.].)./.).).~.~.!.v v J.I.K.V.{.[.`.).).^.).).^.^.^.r._._.^.'._.).^.^.).).(.).).~.).~.).].I _.).(.(.`.`.`.`.`.[.}.4.4.<.<.p l !.U.!.Q.Q.E.W.`.{ a d.i ! ! ^ ( / / ^ ^ / / / / / / / / / ",
"/ / / / / / / / / / / / / / ) ! o R H.S.[.).).).!.!./.!.'.d K.I.V.V.Z.[.{.{.).).).).).[ ].).).^.)._.).)._.^.^.).).~.).^.).).).].I (.).`.`.`.}.[.[.d.4.4.4.<.c W.T.Q.!.Q.~.Q.Q.(.{ { a o ~ & ( ^ ^ / / / / / / / / / / / / / ",
"/ / / / / / / / / / / / / / ^ ( ! r H.S.V.[.).).Q./.).).).).f f V.V.V.A.M.c.{.{.|._._.[ [.)._._._.)._._.)._.).).).).).^.).).^.{._ ~.(.[.|.[.2.2.4.4.1.1.p j W.U.!.!.Q.!.Q.Q.).W R R o Q Q / / / / / / / / / / / / / / / / / ",
"/ / / / / / / / / / / / / ) ( ^ ( ! a S.S.V.].'.`.).).`.`._.'.].h h V.M.C.c.z.l.e.|.{.[ [.).^._.^._._._.J.).^.).J.(.^.).).^.).].' [.[.e.e.e.2.<.4.3.k k T.T.U.W.Q.!.Q.!.)._.R W { a Q Q / / / / / / / / / / / / / / / / / / ",
"/ / / / / / / / / / / / / ^ ( ( ^ ( Q r B.S.V.H.].).`.`.`.`.].].0._.f e M.c.v.e.e.0.w.Y ]._._._._._._._.[.J.J.J.[.).).).).^.).{._ _ 8.e.8.8.2.1.z z (.P _.T.U.Q.!.Q.Q.~.} { R R o Q Q / / / / / / / / / / / / / / / / / / / ",
"/ / / / / / / / / / / / / / ^ ( ^ ^ / Q r S.S.V.S.].].`.'.[.].q._.).(.).e r i e.e.e.w.Y [._.]._._._._._.r.[.{.{.x.)._._._.).).{.' J 8.8.8.e e e `.`.`.'.x._.Q.Q.W.)._.%.} R R o Q Q / / / / / / / / / / / / / / / / / / / / ",
"/ / / / / / / / / / / / / / / / / / / / Q e e S.S.S.S.[.[.[.&.`.(.(.(.!./.(.W.t y y y Y {.[.[._._._._._.{.w.&.*.{._._._._.).).{.U e t e t Q.!.Q.`.`.`.).`.M.Q.`.`.>.>.O.| o o Q Q / / / / / / / / / / / / / / / / / / / / / ",
"/ / / / / / / / / / / / / / / / / / / / / Q Q e S.B.V.V.B.P {.(.(.(.(.).!.!.T.W.T.W.W.J {._._.[.].]._._.J {.{.{.*._._._._._.).{._ c.c.^.^.^.Q.Q.).`.).).(.[.[.g.;.>.;.O.o Q Q / / / / / / / / / / / / / / / / / / / / / / / ",
"/ / / / / / / / / / / / / / / / / / / / / / / Q o r B.B.B.P E.{.[.[.).!.^.!.!.W.U.W.U.J {._.[._.[._.].].{._.]._.{._._._._._._.{.U c.z.(.^.!.).).).).].].[.{ z f.;.O.o o Q / / / / / / / / / / / / / / / / / / / / / / / / / ",
"/ / / / / / / / / / / / / / / / / / / / / / / / Q Q r o N.Z E.N.m.N.[.[.[.[.!.E.Q.R.U.J |._._.]._.[._._._._.]._._._._._._._._.{.J z.l.(.!.^.].[.].[.@.@.} R z f.o o Q Q / / / / / / / / / / / / / / / / / / / / / / / / / / ",
"/ / / / / / / / / / / / / / / / / / / / / / / / / / Q Q e e U.N.n.N.b.b.b.f.].].].].].H |.|.|.}.}.}.}.{.{.{.].[.].[.].{.[.|.[.|.G J.c.[.].].-.-.=.@.{ { @.{ o o Q Q / / / / / / / / / / / / / / / / / / / / / / / / / / / / ",
"/ / / / / / / / / / / / / / / / / / / / / / / / / / / / Q Q e e N.n.b.b.b.f.f.f.f.<.$.t P.P.U.S.B.V.B.V.V.N.B.M.V.n.n.L.H.L.G.G.p G C 8.8.=.-.-.=.@.@.@.o o Q Q / / / / / / / / / / / / / / / / / / / / / / / / / / / / / / ",
"/ / / / / / / / / / / / / / / / / / / / / / / / / / / / / / Q Q e e b.b.f.f.f.f.d.<.#.r P.P.B.B.B.V.B.C.V.N.N.M.n.k.b.z.k.z.H.G.o V C -.=.-.-.=.` @.o o Q ! ) / / / / / / / / / / / / / / / / / / / / / / / / / / / / / / / ",
"/ / / / / / / / / / / / / / / / / / / / / / / / / / / / / / / / Q Q o e e e f.s.6.<.#.r P.B.B.B.B.B.N.N.n.n.n.b.k.b.b.k.b.k.k.G.o V G -.-.-.o o o o Q Q / / ) ( / / / / ) ) / / / / / / / / / / / / / / / / / / / / / / / / ",
"/ / / / / / / / / / / / / / / / / / / / / / / / / / / / / / / / / / Q Q Q Q e e e e e e H.B.B.B.b.k.k.k.f.f.k.b.k.k.b.k.k.k.k.G.o o o o o o Q Q Q Q / / / / ^ ( ( / / ( ) / / / / / / / / / / / / / / / / / / / / / / / / / ",
"/ / / / / / / / / / / / / / / / / / / / / / / / / / / / / / / / / / / / / / Q Q Q Q Q e G.m.B.#.-.1.s.s.f.f.f.f.k.k.k.k.k.f.s.D.o Q Q Q Q Q / / / / / / / / / ^ ^ / ( ( ( / / / / / / / / / / / / / / / / / / / / / / / / / ",
"/ / / / / / / / / / / / / / / / / / / / / / / / / / / / / / / / / / / / / / / / / / / e G.1.-.-.-.#.f.f.f.f.s.f.f.f.f.6.s.p.s.D.o Q Q / / / / / / / / / / / / / / / ( ( ^ / / / / / / / / / / / / / / / / / / / / / / / / / ",
"/ / / / / / / / / / / / / / / / / / / / / / / / / / / / / / / / / / / / / / / / / / / Q o o o o o o o o o o o o o o o o o o o o Q Q / / / / / / / / / / / / / / / / ^ ^ / / / / / / / / / / / / / / / / / / / / / / / / / / ",
"/ / / / / / / / / / / / / / / / / / / / / / / / / / / / / / / / / / / / / / / / / / / / Q Q Q Q Q Q Q Q Q Q Q Q Q Q Q Q Q Q Q Q Q / / / / / / / / / / / / / / / / / / / / / / / / / / / / / / / / / / / / / / / / / / / / / "
};
