/* XPM */
static char *Smoke_4[] = {
/* columns rows colors chars-per-pixel */
"110 73 184 2 ",
"   c #4F2913",
".  c #512B14",
"X  c #5A361D",
"o  c #7D3515",
"O  c #5C3A23",
"+  c #5F3F28",
"@  c #56493F",
"#  c #55473E",
"$  c #5E4029",
"%  c #61412A",
"&  c #654934",
"*  c #5A4E43",
"=  c #574A40",
"-  c #5C5146",
";  c #5D5349",
":  c #62594B",
">  c #676159",
",  c #6A635B",
"<  c #6F695A",
"1  c #736C5E",
"2  c #70675B",
"3  c #6E6960",
"4  c #726C63",
"5  c #736F68",
"6  c #777166",
"7  c #797266",
"8  c #7A746A",
"9  c #7E796D",
"0  c #767168",
"q  c #797770",
"w  c #7A7870",
"e  c #823716",
"r  c #843917",
"t  c #883B17",
"y  c #893C19",
"u  c #863C1C",
"i  c #8D4927",
"p  c #8D4C2B",
"a  c #894422",
"s  c #924521",
"d  c #974C27",
"f  c #99532D",
"g  c #92512E",
"h  c #925532",
"j  c #945937",
"k  c #9D5A35",
"l  c #935B3B",
"z  c #9B5936",
"x  c #8E5231",
"c  c #A1522A",
"v  c #A15D36",
"b  c #A15E39",
"n  c #817F20",
"m  c #9C613B",
"M  c #A2633B",
"N  c #9D6642",
"B  c #9C6A46",
"V  c #9F7149",
"C  c #9A7A5D",
"Z  c #A56A43",
"A  c #A96E44",
"S  c #A66B47",
"D  c #AA7046",
"F  c #A4714A",
"G  c #AB744B",
"H  c #AF794E",
"J  c #A77047",
"K  c #A97750",
"L  c #AE7C53",
"P  c #A2765B",
"I  c #A57A5D",
"U  c #A87B57",
"Y  c #B27F56",
"T  c #807B6F",
"R  c #9C7E63",
"E  c #837E72",
"W  c #A97F62",
"Q  c #8F8824",
"!  c #948D29",
"~  c #99912E",
"^  c #ACB828",
"/  c #C1C52D",
"(  c #C9CD35",
")  c #D1D43D",
"_  c #AE8259",
"`  c #AF8A5E",
"'  c #B38256",
"]  c #B28359",
"[  c #B4885C",
"{  c #9D8265",
"}  c #9E8469",
"|  c #9F886C",
" . c #868175",
".. c #888477",
"X. c #8A867A",
"o. c #88857D",
"O. c #9F8C73",
"+. c #A18564",
"@. c #A38A66",
"#. c #A68C6A",
"$. c #AA8C6A",
"%. c #A78467",
"&. c #B38B69",
"*. c #B58E67",
"=. c #A79068",
"-. c #AB926C",
";. c #A28C73",
":. c #AA8D70",
">. c #A28E79",
",. c #B18E71",
"<. c #A69176",
"1. c #AB9474",
"2. c #AD9977",
"3. c #A3907A",
"4. c #AA957B",
"5. c #AE9A7C",
"6. c #A79A7F",
"7. c #B29276",
"8. c #B39C75",
"9. c #B39E7C",
"0. c #B99B7C",
"q. c #B69777",
"w. c #B59068",
"e. c #B0A079",
"r. c #C29F75",
"t. c #918D82",
"y. c #949187",
"u. c #99968D",
"i. c #9C998E",
"p. c #959289",
"a. c #9B9890",
"s. c #A69983",
"d. c #AB9C84",
"f. c #AB9E89",
"g. c #B49E84",
"h. c #B89F88",
"j. c #AB9F90",
"k. c #AEA28D",
"l. c #B4A284",
"z. c #B5A58A",
"x. c #BBA68A",
"c. c #B9A98D",
"v. c #BAA484",
"b. c #AFA391",
"n. c #B1A694",
"m. c #BAA690",
"M. c #BCAD94",
"N. c #B2A798",
"B. c #B5AB9B",
"V. c #B9AF9B",
"C. c #B3A996",
"Z. c #BDB19A",
"A. c #BEB196",
"S. c #B8AFA2",
"D. c #BDB5A3",
"F. c #BEB8A5",
"G. c #BFB6A9",
"H. c #BFB8AA",
"J. c #C2B49C",
"K. c #C3B89F",
"L. c #C3BAA6",
"P. c #C3BDAC",
"I. c #C1B6A3",
"U. c #C5BFB1",
"Y. c #C4C0AF",
"T. c #CAC1AD",
"R. c #DBC7A2",
"E. c #C6C3B3",
"W. c #CAC5B5",
"Q. c #CCC7B9",
"!. c #CECABC",
"~. c #D0CDBE",
"^. c #D2D0BF",
"/. c #CFCDC1",
"(. c #D1CEC1",
"). c #D4D1C5",
"_. c #D8D5C7",
"`. c #D6D3C9",
"'. c #D8D6CA",
"]. c #DAD8CE",
"[. c #DDDCD3",
"{. c #E0DED6",
"}. c #E1DFD8",
"|. c #E2E1DA",
/* pixels */
"/ / / / / / / / / / / / / / / / / / / / / / / / / / / / / / / / / / / / / / / / / / / / Y Y Y Y Y ' ] ] ' ' ' ' ' ' H H H H D / / / / / / / / / / / / / / / / / / / / / / / / / / / / / / / / / / / / / / / / / / / / / / / ",
"/ / / / / / / / / / / / / / / / / / / / / / / / / / / / / / / / / / / / / / / / / / / D `.!.Q.~.Q.Q.).).).`.).`.).).)._.).Q.Q.D Q Q / / / / / / / / / / / / / / / / / / / / / / / / / / / / / / / / / / / / / / / / / / / / ",
"/ / / / / / / / / / / / / / / / / / / / / / / / / / / / / / / / / / / / / / / / / / / D './.(.).).`.).`.).`._.).).).).)._.).Q.Q.D Q Q / / / / / / / / / / / / / / / / / / / / / / / / / / / / / / / / / / / / / / / / / / / ",
"/ / / / / / / / / / / / / / / / / / / / / / / / / / / / / / / / / / / / / / / / / / / D [.(.`.).`.).`.).0.l.g.g.g._._.).).).).Q.G Q Q / / / / / / / / / / / / / / / / / / / / / / / / / / / / / / / / / / / / / / / / / / / ",
"/ / / / / / / / / / / / / / / / / / / / / / / / / / / / / / / / / / / / / / / / / / / D ].).).).).`.)._.{.{.{.{.l._.^._._._.^.].D Q Q / / / / / / / / / / / / / / / / / / / / / / / / / / / / / / / / / / / / / / / / / / / ",
"/ / / / / / / / / / / / / / / / / / / / / / / / / / / / / / / / / / / / / / k k z v A A ].).`.).)._._.`.g.g.g.g.g._._._._.)._.].H r r k z z / / / / / / / / / / / / / / / / / / / / / / / / / / / / / / / / / / / / / / / / ",
"/ / / / / / / / / / / / / / / / / / / / / / / / / / / / / / / / / / / S D D Q.Q.Q.~.~.D ].`.)._._._._.+ % % % + + % _._._._._.[.G c.c.Q.Q.!.z k k / / / / / / / / / / / / / / / / / / / / / / / / / / / / / / / / / / / / / ",
"/ / / / / / / / / / / / / / / / / / / / / / / / / / / / / / / / D D F ).).!.Q.!.~.Q.~.D ]._.)._.).`.X 7 7 7 7 7 6 6 X X X _._.[.H c.c.!.Q.!.!./.).k M M / / / / ) / / / / / / / / / / / / / / / / / / / / / / / / / / / / / ",
"/ / / / / / / / / / / / / / / / / / / / / / / / / / / / / / / L /.)./.).).Q.z v k v v D ].)._._._.X 7 T T 7 7 7 7  .E ....X X X H m m k M v ).).(.^.~.).M / / / ( ( / / / / / / / / / / / / / / / / / / / / / / / / / / / / ",
"/ / / / / / / / / / / / / / / / / / / / / / / / / / / / L L Y (.).).`.(.v k _._._._._.D _.$ + O O 7 7 7 7 8 7  . . ... .E ..u.u.X )._.).).).f M (.).).).M / / / / / / / / / / / / / / / / / / / / / / / / / / / / / / / / / ",
"/ / / / / / / / e.R.R./ / R.R.e./ / / / / / / / / / S S (.(.[.2.).(.z z ~.^.^.^.^.`._.A X < < 1 1 1 7 8 7 7  ... . . . .E u.7 7 6 X ).).`.).).`.M D ^.).L M M M M / / / / / / / / / / / / / e.R.R./ / R.R.e./ / / / / / / / ",
"/ / / / / / / R.R.R.R.R.e.R.R.R.e./ / / / / / / S S '.].(.).).[.z z E.U.^.^.~.^.^.^._.O < 1 1 1 1 1 8 8 .. ... ... . .X.E u.6 7 6 6 X ).).).).`.`.`.D H |.W.T.T.T.M M M / / / / / / / / / e.R.R.R.e.R.R.R.R.R./ / / / / / / ",
"/ / / / / / R.R.R.R.R.R.R.R.R.e.e./ / / / e.e.e.].`.).)./.).k k ~.E.Y.E.(.~.~.^.~.^.& X. .1 1 1 1 4 X.X. . .X. .E E E t.s.E E 0 6 6 6 O ).).).`.`.`.`._.m f W.W.W.T.Q.~.M / e.e.e./ / / / e.e.R.R.R.R.R.R.R.R.R./ / / / / / ",
"/ / / / / / R.R.R.R.R.e.e.e.e.e.e./ / / / e.e.5.9.).).).).k !.).~.~.~.T.^._._.^.^.~.& X. . . . . .f.X. .o.....o.t.t.E E u.E E 0 6 6 6 X /.).).`.).).`.`.`.).t !.!.!.!.!.Q.e.e.e.e./ / / / e.e.e.e.e.e.R.R.R.R.R./ / / / / / ",
"/ / / / / / R.R.R.R.e.e./ / e.e./ / / / z e.e.'.`.`.).z k ).(.).^.~.).).).~.).~.^.).& X. . . . . .a.X.X.X...X. .E o.E s.E E E E 0 0 6 O (.).`.(.).`.).`.).`.).u y !.!.Q.).!.(.e.e./ / / / / e.e./ / e.e.R.R.R.R./ / / / / / ",
"/ / / / / / e.R.R.R.e./ / / / / / / / / g ].`.'.'.`.z /.~.).(.^.).~.).^.^._._._._.'.& X.T  . . . .f.X.X.X.X.X.o.o.o.o.u.E E E E 0 6 6 O /./.).).).).W.W.).).).).).t ).(.).).).y / / / / / / / / / / / e.R.R.R.e./ / / / / / ",
"/ / / / / / e.e.9.5./ / / / / / / / Z Z '.P P '.'.z (.(.).(.).!.^.~.).).).(.).].].k.% X. . . . .u.X.X.X.X.X.X.X.X.X.X.u.E E E E E 0 6 O [./.(././.Q.Q.W./.!.(.).).(.t (./.W W ].s s / / / / / / / / / / e.e.e.e./ / / / / / ",
"/ / / e.R.R.e.e./ / / / / / / / / Z ].]./.[.[.C z /.(.(.(.).).^.~.).).(.(.].[.f.k.k.% X.9  . .y.0 7 7 7 u.u.i.u.u.u.a.E E E E E E 6 6 O E.[.[./.!.(././././.`.(.(././.t W ].]./.[.].d / / / / / / / / / / / e.e.R.R.e./ / / ",
"/ / / R.R.R.e./ / / / / / / / / Z ]./.).(./.(.z /././.(.~.).~.).`.).).].[.3.<.s.f.f.% X. . . .y.T T E t.t.t.t.t.t.t.t.E E E E E 9 E 6 O E.F.D.[.[./.!././.!.!./././.!.(.e /.(.).(.(.{.s / / / / / / / / / / / e.R.R.R./ / / ",
"/ / / R.R.R.e./ / / / / / / / Z '././.!.!.~.z `.)./.(.`.`.).).)._.).[.;.;.;.<.s.e.e.% X.T  .u. .T w t.t.t.t.t.t.t.t.t.E E E E 9 9 E 6 O 9.e.H.D.F.[./.~././.!.!.!./.!././.r ).).).(.U.'.s / / / / / / / / / / e.R.R.R./ / / ",
"/ / / R.R.e.e./ / / / / / / / Z ].Q.(.~.(.z `.).(.(.`.`.`.).`.).).].;.;.O.O.;.e.o -.% X.E u.t.X.t.t.t.t.t.t.t.t.t.t.t.T E E 9 9 9 9 E O B H.e.D.H.B.[./././.!./.!./.!./.!.!.t (.(.(./.].c / / / / / / / / / / e.e.R.R./ / / ",
"/ / / / 5.e./ / / / / / / / d `.Q.Q.Q.Q.z ).`.`.).`.`.`.).`.(.(.].R O.#.#.o o <.-.A.% X.u.t.t.t.t.t.t.t.t.2 2 2 u.u.u.u.E E 9 9 9 9 9 O Q.z z F.H.N.B.[.`.)././.!.!.!.!././.(.t (./.!.!.).t / / / / / / / / / / e.e./ / / / ",
"/ / / / / / / / / / / / / / f (.Q.Q.Q.Q.z `.`.`.`.`.(.{.].).[.[.R R R } o 5.d.Z.A.A.O u.t.t.t.t.t.t.t.y.2 < < : 2 2 4 6 p.u.u.8 9 9 9 O Y.Q.Q.g H.B.B.B.[.).`.`./.Q.U.(.).(.).t !.!.!.(._.t / / / / / / / / / / / / / / / / ",
"/ / / / / / / / / / / / / e (.Q.Q.Q.Q.z `.`.(.`.).).].`.{.{.].R R { o o 6.Z.Z.Z.Z.J.+ X.t.t.t.t.t.i.u.u.< < : : < < 4 4 4 4 4 u.u.9 9 X Y.L.L.Q.l j B.N.N.[.`.`.`./.).).(.).(.).A !.(.!.~.!.y / / / / / / / / / / / / / / / ",
"/ / / / / / / / / Z Z Z Z Z Z Z Z Z Z Z B C P C {.[.[.[.[.[.R R R o =.2.Z.A.Z.Z.Z.Z.O t.t.t.a.a.a.2 < 2 8 8 : : , , 4 4 4 4 4 4 4 a.i.X H.L.Y.P.Q.Q.z B.g.d.{.`.`.`.(.(.W P W W A A A A A A A A A A A A ( / / / / / / / / / ",
"/ / / / / / / / Z ].`.`.`.~.!./.(.~.Q.U.Q.W.Q.W.P P d.:.:.[.C C o #.-.Z.A.Z.Z.Z.Z.Z.O a.a.a.4 4 4 , 3 , , 2 w : : < 4 4 4 4 4 4 4 3 o.  F.Y.F.Y.E.E.T.i g.7.[.P P P P W ).).).).~.~.).~.)._.).).(.(.~.[.M ( / / / / / / / / ",
"/ / / / / / / R.R.].`.'.(./.(.!.!./.Q.Q.W.W./.!./.!.{.$.:.%.R o #.#.D.Z.F.Z.Z.A.Z.!.. t.4 4 4 4 4 , , 2 2 = 2 0 : , < 4 1 4 4 4 6 3 t.. Y.Y.F.W.E.E.E.Q.r 5.g.[.].`.].`.!.(././.~.).).~.~.(.(.(.).).).{.M R.R./ / / / / / / ",
"/ / / / / / R.R.R.e./.(.~./.(.(.(.2./././.!.~./.!.!.Q.{.[.+.o -.#.F.D.D.D.D.A.Z.Z.%.. X.4 4 4 < 2 , , 2 , 4 , * : # , , 4 4 , 2 3 3 q . Y.F.L.L.E.U.E.E.Q.r 5.{.`.]././.(.(./.).~.).~.).r.(.).(.^.~.).{.e.R.R.R./ / / / / / ",
"/ / / / / / R.R.R.e.(.(.~.(./././.~.(.!.(.!./.~./.!.!.!.[.W o -.Z.D.D.D.D.F.D.F.L.R . X.4 4 4 , , , , < < ; , ; 0 = , , 4 4 , , , 3 w . !.L.P.L.P.E.E.E.Q.t g.{.'.(.U.(./.~.(.~.(.).^.^.).^.).^.).^.~.{.e.e.R.R./ / / / / / ",
"/ / / / / / / R.e./.(.(.(.~.(./.(.(.!././.(././.!./.~.[.j.e =.$.F.F.D.e.e.F.F.H.L.+.. o.4 4 4 < , < , , , * ; * , 0 , < , , , , , , w . 1.Y.H.Y.P.E.E.E.U.Q.r d.{.(.).~.(.(.~.(.(.).).).^.).^.).^.).).{.D e.e.Q / / / / / / ",
"/ / / / / / / G [.(.(.(.(.(.m.m.h./.(./.(./.(./.(.!.!.[.j.o #.-.F.F.F.E.E.2.L.H.L.4.. w , 4 4 , , , 3 , , 4 4 ; , * , , , , , , , , w   1.L.P.Y.U.E.H.E.U.U.e h.{.(.~.(.(.(.).).(.(.~.J.J.q.(.).).).~.|.D Q Q Q / / / / / / ",
"/ / / / / / / D [.).).(.(.2.[.].[.7.).(.(.(./.(.~.(.(.[.o %.#.H.F.F.F.D.F.Q.{ P.P.4.. q , , , , , , , , , , , 4 , 4 , , , , , , > , w   l.Y.P.H.P.P.P.P.P.U.U.y }.U.~.(.~.).).).).(.~.r.]._._.l.(.)._.{.D Q Q Q / / / / / / ",
"/ / / / / / / G [.).(.`.`.7.).$.).7.(.).`.(.(.(.).]._.[.e =.$.H.Y.F.F.F.F.L.!.{ +.5.. q , , , , , , , , , , , , , , , , , , > , , , q   n.Y.L.P.Y.P.P.P.P.P.U.r [./.(.(.(.).).`._.)._.q.`.0.q.0._.'._.{.J Q Q Q / / / / / / ",
"/ / / / / / / A [.).).(.(.%.).[.).%.).).).(.).).).].].{.e #.#.P.Y.Y.F.F.Y.Y./.e.9.5.. q , , , , , , , , , > , = = - , > 3 > 3 > , > q   l.Y.P.P.P.P.U.P.P.U.P.r [././.(.(.).).).).)._.&.`.].].&._._._.{.M Q Q Q / / / / / / ",
"/ / / / / / / A [.).).).`.[.I I W ].).`.`.).).(.(.).].{.e #.$.P.F.P.P.P.P.P.E./.9.d.  q > , , > , , , , > 3 > 5 5 * > > , , > > , 3 w   Y.Y.Y.P.P.U.P.P.U.P.P.r [.).(.).`._.).).`.`.`.K F S _.]._.'._.{.' Q Q Q / / / / / / ",
"/ / / / / / / S [.9.9.`.`.(.].[.].).`.).`.).`.).).).'.].e #.$.P.Y.Y.P.Y.Y.Y.Y./.k.l.  q > , , , , > > 3 > = , = 3 * , 3 > , , > , 3 w   L.Y.Y.P.P.P.P.U.P.P.P.r [.`.`.).).).).).`.).'.].].].]._._.'.^.e.e.Q Q Q / / / / / / ",
"/ / / / / / / J [.e.e.`.`._.`._.`.`.`.`.)._.).).).).).[.r $.$.P.Y.Y.Y.P.Y.Y.Y.Y.).z.  q > > > , > , , , , = > 3 > 3 3 , > , > > 3 3 w   E.Y.Y.Y.U.P.P.P.P.P.P.r {.).).).).).`.).).'.].]._.].]._.'.'.'.e.e.Q Q Q / / / / / / ",
"/ / / / / / / S |.e.e.`.`._._._.`.`.`.`.`.`.`.).).).`.[.r @.@.U.Y.P.Y.E.Y.Y.U.E.Y.n.  q , , > , , > > > > = = = , > > > , > , 3 3 3 w   E.Y.Y.Y.P.P.P.P.D.D.D.r {.).).).).).).).'.].'.'.]._.]._.'.'.'.e.e.! Q Q / / / / / / ",
"/ / / / / / / Z |.].[.`.`.`._.`._.`.`.)._.`.).`.`.`.`.[.r $.#.Y.Y.U.E.Q.Q.Q.E.E.Y.z.  q 3 > , > > > 3 > > 5 5 3 > , > , > > > 3 < 5 * . E.E.Y.Y.P.P.P.H.D.D.D.r {./.).`.`.'.'.'.'.'.'._.]._.].T.'._.'.{.M ! Q Q / / / / / / ",
"/ / / / / / / k |.].].].`.`.'._.`._.`._.).`.`.).`.N j j i r =.E.E.U.Q.Q.Q.Q.W.Y.E.C.  q 3 , > > > , > > > > > > > > , > > > 3 3 5 @ ; . E.E.Y.Y.P.H.D.D.D.D.r P P P P `.'.'.'.'.'.'.'.].].T.T.T.T.'.[.{.M Q Q Q / / / / / / ",
"/ / / / / / / k |.|.|.[.|.[.[.{.[.|.[.[.I +.%.$.k.].].].].o #.Q.Q.Q.!.W.!.Q.Q.E.E.M.  q 3 3 > > > , , > > , , > , > 3 3 3 > > 3 5 = ;   E.E.E.W.P.P.D.D.D.P.e '.`.'.`.P P N ,.,.,.7.}.{.{.{.{.}.{.{.[.{.F Q Q Q / / / / / / ",
"/ / / / / / / r H.P.H.U.B.e.e.C.B.B.B._ [.[.].].]./././.~.(.z E.Q.Q.Q.!.W.!.E.E.E.V.  q 3 3 3 3 3 3 > , > > > , , 3 3 3 3 > > 5 = ; ;   E.E.E.E.Y.E.U.D.D.m Q.!.U./.U.].{.{.,.,.,.P.h.j.b.b.b.e.e.C.N.H.r Q Q Q / / / / / / ",
"/ / / / / / / t H.H.n.n.n.e.e.e.2.n.n.G N [.(.(.(.)././.~.~.~.V E.!.Q.!.Q.Q.E.E.E.M.  q 3 3 , 3 3 3 > > > > > > > 3 3 3 3 3 3 = ; ; . A.E.E.E.E.W.Y.E.E.M Q.Q.Q.).U.(.U./.U.].N W.d.f.j.k.e.e.e.e.k.n.P.r Q Q Q / / / / / / ",
"/ / / / / / / r P.k.k.n.4.*.*.2.e.' F A S [.(.(./.).)./.(.~.^.].C E.!.Q.!.!.E.E.E.C.M.                        .                     M.V.E.E.E.E.E.E.E.M L.Q.Q.!.U.(.U.(.U./.].F &.` [ &.` e.e.#.C.C.n.F.r Q Q Q / / / / / / ",
"/ / / / / / / r H.j.b.r ].(.~.(.Q.L.e.8.e.s.{.(.)./.)./.(.(.`.(.].K Q.Q.Q.!.!.Y.E.M.B.Z.z.z.z.l.l.l.l.l.l.z.l.l.9.9.9.9.2.7.2.2.9.Z.B.V.W.E.E.E.W.E.m A.H.F.(.(._.U.U.~.U.{.N.r L.9.e.e.`.`.`.[.u b.C.H.r Q Q Q / / / / / / ",
"/ / / / / / / r S.f.k.r [.(.!.!.W.W.L.9.e.#.{.(./.)./.).).(./.`.).].K E.Q.!.!.W.E././.V.Z.A.Z.V.Z.Z.Z.Z.J.Z.J.Z.J.J.V.Z.V.Z.J.V.B.D.A.(.E.E.E.E.Y.K c.A.`.].)./.)._.(./.U.{.j.r Y.2.e.(.).`.).].r b.b.S.r Q Q / / / / / / / ",
"/ / / / / / / Q r r r r 3.].~.!.~.W.W.W.Q.i $.[.).).).).).).).(.).[.].U K !.Q.Q.!.E.E.)./.)./.)././.(.(././.(.(./.(.J.Z.Z.Z.(./././.).W.W.E.E.m M M.c._.(.)./.`.).~.(.).{.R e P.!.!.).(.).`.].k.r r o r Q Q / / / / / / / / ",
"/ / / / / / / / Q Q Q r >.].~.~.!.~.Q.W.W.p :.<.].).).).).).).`.).).].).).K !.!.!.W.E.E.E.E.Q.E.Q.W.Q.Q.Q.Q.Q.W.Q.Q.(.(.Z.Z.E.W.Q.E.E.Q.E.E.z (.).(.).).(./.`./.).).(.].W W e P.!.!.).~.).).].b.r Q Q Q Q / / / / / / / / / ",
"/ / / / / / / / / / / Q r O.[.!./.!./.!.U.Q.g :.N.{.(.).).`.).`.`.).).).).(.M S !.!.Q.!.Q.U.W.W.E.Q.Q.W.W.Q.W.W.W.Q.W.E.).(.E.W.W.W.W.E.Z Z ).`./.)./.`.).).`.).).(.].{ %.y L.P.!.~.).).)._.+.e Q Q Q / / / / / / / / / / / ",
"/ / / / / / / / / / / / r <.b.].!.!.!./.Q.Q.Q.d N.S.[.}.[.).`.).`.).`.).).(.).).v k v Q.Q.W.W.Q.Q.Q.Q.W.Q.W.W.Q.W.W.Q.W.W.W.W.E.Q.b M b ).(.`.`.`.(.(.`.`.`.`.).).].} } s L.L.L.!.!.)._.].{ +.e Q ~ / / / / / / / / / / / / ",
"/ / / / / / / / / / / / Q u j.]./.(././.!.!.W c B.V.S.2.8.[.`.`.`._.)._.e.e.^.^.~.~.Q.v k Q.U.Q.W.E.W.W.W.W.W.Q.W.W.W.W.Q.W.E.W.c Q.)._.`.`.`.`.e.5.'.`.`.).).`.].;.%.} s r L.P.Q.).).).].{ e Q Q ! ( / / / / / / / / / / / ",
"/ / / / / / / / / / / / / r b.b.].(./.(.&.&.&.P s S.D.D.1.2.[.`.`.`._._.).(.).2.5.9.Q.Q.Q.G G H H H ' ' Y Y Y Y Y Y H Y F W.E.N !.Q.).).9.5.e.`.`.`.`.`.`.`.[.[.;.;.%.i c.J.I U `.).).].{ { e ! Q ^ ( / / ) / / / / / / / / ",
"/ / / / / / / / / / / / / Q r N.N.].&.&.].[.].R P s D.I.I.J.[._.`.`.).`._.^.).).~.^.!.^.Q.D _._.`.]._.]._._._.~.).(.).(.(.m M ~.~.(.)._.`._.`.`.`.`.`.`.`.[.<.<.;.;.x J.J.P.T.W.C P ].1.{ r ! ! ! ^ / ( ( ^ / / / / / / / / ",
"/ / / / / / / / / / / / / / Q r N.C {.]./.)./.].].].s S.J.I.L.[.[.`.`.`.`._.).^.).^.^.^.r._._._._._.'._.^._.(.).).).~.).).(.].U (.(.).).`.`.`.`.`.`.`.[.[.4.;.<.%.p J.P.W.W.W.U.W.[.g d.o ! & ^ ( / / ( ( ^ / / / / / / / / ",
"/ / / / / / / / / / / / / ) ) r B.W H.].)././.).(.!.!.c c K.K.I.V.{.[.`.).).).^.).).^.^.r._.).^._._._.^.).).).(.(.).).~.(.(.].I `._.(.(.`.`.`.`.'.{.{.4.4.<.<.i z !.Q.Q.Q.Q.E.W.).R p d.o ! ! ^ ( / / ^ ^ / / / / / / / / / ",
"/ / / / / / / / / / / / / / ) ! o R H.S.[.).).)./././.!.`.s J.I.S.V.Z.[.[.{.).).).^.).[ [.).).)._.).).).).^.^.).).^.^.).(.).(.[.I (.).`.`.`.{.[.[.6.4.4.4.<.x W.W.Q.Q.Q.~.Q.Q.).{ R p e Q n ( ^ ^ / / / / / / / / / / / / / ",
"/ / / / / / / / / / / / / / ^ ( ! r H.B.S.[.`.).!.(.).).).`.d d V.V.M.V.M.c.[.{.{.)._.[ ]._.^._._._._._.)._.).).).(.^.).~.^.(.{._ ~.(.[.|.[.2.4.4.4.2.<.i h W.W.Q.Q.Q.~.Q.Q.).W R R o Q Q / / / / / / / / / / / / / / / / / ",
"/ / / / / / / / / / / / / ) ( ^ ( ! p S.S.V.].].).).).`.`.`.].].f f V.V.M.z.c.e.e.|.{.[ '._._._._._._._.J.).).).J.).).(.).).(.[.' '.[.e.e.e.2.1.<.<.j h T.T.U.U.Q.~.Q.Q._.).R C { p Q Q / / / / / / / / / / / / / / / / / / ",
"/ / / / / / / / / / / / / ^ ( ( ^ ( Q r V.V.S.F.].).).`.`.`.].].0.'.d r M.c.v.l.l.0.w.Y [._._._.^._._._.[.J.J.J.[.(.`._.).).(.{._ _ 8.8.8.2.2.1.N l (.P `.T.U.Q.Q.Q.Q.~.} { { R o Q Q / / / / / / / / / / / / / / / / / / / ",
"/ / / / / / / / / / / / / / ^ ( ^ ^ / Q o S.S.V.S.].].`.].].].q.`.^.).^.r t y e.e.e.w.Y [.'._._._._._._.r.[.{.{.v.`._._._.).).{._ _ 8.8.8.r e r ).`.`.].x.`.Q.Q.Q.).).$.} { R o Q Q / / / / / / / / / / / / / / / / / / / / ",
"/ / / / / / / / / / / / / / / / / / / / Q e e S.S.S.S.[.[.[.*.`.(.(.(.(.!.~.W.t y y y Y {._._.[._._.'._.{.r.[ &.{._._._._.).).{._ r r r e !.Q.Q.).`.`.`.`.M.Q.`.`.>.;.;.O.o o Q Q / / / / / / / / / / / / / / / / / / / / / ",
"/ / / / / / / / / / / / / / / / / / / / / Q Q e S.B.V.B.B.P {.(.(.(.(.~.(.!.W.W.T.Q.T.Y {._.[._.'.'._._.H {.].].*._._._._._.).{._ c.c.~.~.^.Q.Q.).).).).(.].{.g.;.>.;.;.o Q Q / / / / / / / / / / / / / / / / / / / / / / / ",
"/ / / / / / / / / / / / / / / / / / / / / / / Q e e B.B.B.P E.[.[.[.(.(.~.~.!.W.T.Q.U.H {._.].].].].[._.{.'.]._.[._._._._._._.{.U v.c.(.~.~.).).).).[.].[.} l f.;.O.o o Q / / / / / / / / / / / / / / / / / / / / / / / / / ",
"/ / / / / / / / / / / / / / / / / / / / / / / / Q Q r r N.C E.N.C.N.[.[.[.[.!.Y.T.U.R.H |.]._.].]._.].].'.'._.'._._._._._._._.}.H z.l.~.~.~.[.].[.[.@.+.{ R l f.o o Q Q / / / / / / / / / / / / / / / / / / / / / / / / / / ",
"/ / / / / / / / / / / / / / / / / / / / / / / / / / Q Q e e U.N.N.n.b.b.b.f.].].].].].G }.}.|.}.}.}.{.{.{.].{.].[.].[.[.[.|.}.}.F J.A.].].[.-.-.=.@.@.+.+.{ o o Q Q / / / / / / / / / / / / / / / / / / / / / / / / / / / / ",
"/ / / / / / / / / / / / / / / / / / / / / / / / / / / / Q Q e e n.N.b.b.b.f.k.f.d.<.:.t P.P.U.S.V.V.V.V.B.B.B.M.B.n.C.L.F.P.H.G.i F F -.-.-.-.-.=.@.@.+.o o Q Q / / / / / / / / / / / / / / / / / / / / / / / / / / / / / / ",
"/ / / / / / / / / / / / / / / / / / / / / / / / / / / / / / Q Q e e j.b.k.f.f.f.6.<.#.r P.P.B.B.V.V.N.B.B.N.B.m.z.b.k.b.k.z.G.H.o B V -.-.=.-.-.@.@.o o Q ! ) / / / / / / / / / / / / / / / / / / / / / / / / / / / / / / / ",
"/ / / / / / / / / / / / / / / / / / / / / / / / / / / / / / / / Q Q e e o e f.s.6.<.#.r P.B.B.B.V.N.N.n.n.n.n.n.b.n.k.k.k.b.f.G.o B F -.-.-.o o o o Q Q / / ) ( / / / / ) ) / / / / / / / / / / / / / / / / / / / / / / / / ",
"/ / / / / / / / / / / / / / / / / / / / / / / / / / / / / / / / / / Q Q Q Q e e r e e e H.B.B.B.k.k.f.k.f.f.z.b.b.k.b.k.k.k.k.G.o o o o o o Q Q Q Q / / / / ^ ( ( / / ( ) / / / / / / / / / / / / / / / / / / / / / / / / / ",
"/ / / / / / / / / / / / / / / / / / / / / / / / / / / / / / / / / / / / / / Q Q Q Q Q e D.C.C.<.-.<.k.s.f.f.f.f.k.k.k.k.f.f.s.D.o Q Q Q Q Q / / / / / / / / / ^ ^ / ( ( ( / / / / / / / / / / / / / / / / / / / / / / / / / ",
"/ / / / / / / / / / / / / / / / / / / / / / / / / / / / / / / / / / / / / / / / / / / e G.<.$.-.-.#.f.f.f.f.s.f.f.f.s.6.s.i.s.D.o Q Q / / / / / / / / / / / / / / / ( ( ^ / / / / / / / / / / / / / / / / / / / / / / / / / ",
"/ / / / / / / / / / / / / / / / / / / / / / / / / / / / / / / / / / / / / / / / / / / Q o e o o o o o o o o o o o o o o o o o o Q Q / / / / / / / / / / / / / / / / ^ ^ / / / / / / / / / / / / / / / / / / / / / / / / / / ",
"/ / / / / / / / / / / / / / / / / / / / / / / / / / / / / / / / / / / / / / / / / / / / Q Q Q Q Q Q Q Q Q Q Q Q Q Q Q Q Q Q Q Q Q / / / / / / / / / / / / / / / / / / / / / / / / / / / / / / / / / / / / / / / / / / / / / "
};
