/* XPM */
static char *Smoke_8[] = {
/* columns rows colors chars-per-pixel */
"110 73 182 2 ",
"   c #4F2913",
".  c #512B14",
"X  c #5A361D",
"o  c #7D3515",
"O  c #5C3A23",
"+  c #5F3F28",
"@  c #56493F",
"#  c #55473E",
"$  c #5E4029",
"%  c #61412A",
"&  c #654934",
"*  c #5A4E43",
"=  c #574A40",
"-  c #5C5146",
";  c #5D5349",
":  c #62594B",
">  c #676159",
",  c #6A635B",
"<  c #6F695A",
"1  c #736C5E",
"2  c #70675B",
"3  c #6E6960",
"4  c #726C63",
"5  c #736F68",
"6  c #777166",
"7  c #797266",
"8  c #7A746A",
"9  c #7E796D",
"0  c #767168",
"q  c #797770",
"w  c #7A7870",
"e  c #823716",
"r  c #843917",
"t  c #893C1A",
"y  c #873B19",
"u  c #8C421E",
"i  c #894523",
"p  c #8D4927",
"a  c #8D4C2B",
"s  c #934521",
"d  c #9A4D28",
"f  c #94512C",
"g  c #9A532D",
"h  c #8E5231",
"j  c #925532",
"k  c #945937",
"l  c #9D5B35",
"z  c #935B3B",
"x  c #9B5936",
"c  c #A1522A",
"v  c #A15E36",
"b  c #A15E39",
"n  c #817F20",
"m  c #9C613B",
"M  c #A2643B",
"N  c #9C6844",
"B  c #9F7149",
"V  c #9A7A5D",
"C  c #A66B44",
"Z  c #A96E44",
"A  c #A66B47",
"S  c #AA7046",
"D  c #A3714A",
"F  c #AB744B",
"G  c #AF794E",
"H  c #A77047",
"J  c #A97750",
"K  c #AE7C53",
"L  c #A2765B",
"P  c #A57A5D",
"I  c #A87E58",
"U  c #B27F56",
"Y  c #807B6F",
"T  c #9C7E63",
"R  c #837E72",
"E  c #A97F62",
"W  c #8F8824",
"Q  c #948D29",
"!  c #99912E",
"~  c #ACB828",
"^  c #C1C52D",
"/  c #C9CD35",
"(  c #D1D43D",
")  c #AE8259",
"_  c #AF8A5E",
"`  c #B38256",
"'  c #B28359",
"]  c #B4885C",
"[  c #9D8265",
"{  c #9E8469",
"}  c #9F886C",
"|  c #868175",
" . c #888477",
".. c #8A867A",
"X. c #88857D",
"o. c #9F8C73",
"O. c #A18564",
"+. c #A38A66",
"@. c #A68C6A",
"#. c #A98C6A",
"$. c #A78568",
"%. c #B38B69",
"&. c #B48D65",
"*. c #A79068",
"=. c #AB926C",
"-. c #A28C73",
";. c #AA8D70",
":. c #A28E79",
">. c #B18E70",
",. c #A69176",
"<. c #AB9474",
"1. c #AD9977",
"2. c #A3907A",
"3. c #AA957B",
"4. c #AE9A7C",
"5. c #A79A7F",
"6. c #B29375",
"7. c #B39C75",
"8. c #B39E7C",
"9. c #BB9A76",
"0. c #B59068",
"q. c #B0A079",
"w. c #C29F75",
"e. c #918D82",
"r. c #949187",
"t. c #99968D",
"y. c #9C998E",
"u. c #959289",
"i. c #9B9890",
"p. c #A69983",
"a. c #AB9C84",
"s. c #AA9E89",
"d. c #B49E84",
"f. c #B89F88",
"g. c #AB9F90",
"h. c #ADA28D",
"j. c #B4A284",
"k. c #B5A58A",
"l. c #BAA68A",
"z. c #B9A98D",
"x. c #B8A684",
"c. c #AFA391",
"v. c #B1A694",
"b. c #B3A996",
"n. c #BCAD94",
"m. c #B2A798",
"M. c #B5AB9B",
"N. c #B9AF9B",
"B. c #BBA790",
"V. c #BDB19A",
"C. c #BEB196",
"Z. c #B8AFA2",
"A. c #BDB5A3",
"S. c #BEB8A5",
"D. c #BFB6A9",
"F. c #BFB8AA",
"G. c #C2B49C",
"H. c #C3B89F",
"J. c #C3BAA6",
"K. c #C3BDAC",
"L. c #C1B6A3",
"P. c #C5BFB1",
"I. c #C4C0AF",
"U. c #CAC1AD",
"Y. c #DBC7A2",
"T. c #C6C2B3",
"R. c #CAC5B4",
"E. c #CCC7B9",
"W. c #CECABC",
"Q. c #D0CEBE",
"!. c #D2D0BF",
"~. c #CFCDC1",
"^. c #D1CEC2",
"/. c #D4D1C5",
"(. c #D8D5C7",
"). c #D6D3C9",
"_. c #D8D6CA",
"`. c #DAD8CE",
"'. c #DDDCD3",
"]. c #E0DED6",
"[. c #E1DFD8",
"{. c #E2E1DA",
/* pixels */
"^ ^ ^ ^ ^ ^ ^ ^ ^ ^ ^ ^ ^ ^ ^ ^ ^ ^ ^ ^ ^ ^ ^ ^ ^ ^ ^ ^ ^ ^ ^ ^ ^ ^ ^ ^ ^ ^ ^ ^ ^ ^ ^ ^ U U U U U U ` ` ` ` ` ` ` U G F G F S ^ ^ ^ ^ ^ ^ ^ ^ ^ ^ ^ ^ ^ ^ ^ ^ ^ ^ ^ ^ ^ ^ ^ ^ ^ ^ ^ ^ ^ ^ ^ ^ ^ ^ ^ ^ ^ ^ ^ ^ ^ ^ ^ ^ ^ ^ ^ ",
"^ ^ ^ ^ ^ ^ ^ ^ ^ ^ ^ ^ ^ ^ ^ ^ ^ ^ ^ ^ ^ ^ ^ ^ ^ ^ ^ ^ ^ ^ ^ ^ ^ ^ ^ ^ ^ ^ ^ ^ ^ ^ ^ H /.Q.W.W.E.E./.)././.(././././.(.(.E.E.F W W ^ ^ ^ ^ ^ ^ ^ ^ ^ ^ ^ ^ ^ ^ ^ ^ ^ ^ ^ ^ ^ ^ ^ ^ ^ ^ ^ ^ ^ ^ ^ ^ ^ ^ ^ ^ ^ ^ ^ ^ ^ ^ ^ ^ ",
"^ ^ ^ ^ ^ ^ ^ ^ ^ ^ ^ ^ ^ ^ ^ ^ ^ ^ ^ ^ ^ ^ ^ ^ ^ ^ ^ ^ ^ ^ ^ ^ ^ ^ ^ ^ ^ ^ ^ ^ ^ ^ ^ F _.Q.^.(.^._./._./.(.)././.(./.(.(.!.E.E.F W W ^ ^ ^ ^ ^ ^ ^ ^ ^ ^ ^ ^ ^ ^ ^ ^ ^ ^ ^ ^ ^ ^ ^ ^ ^ ^ ^ ^ ^ ^ ^ ^ ^ ^ ^ ^ ^ ^ ^ ^ ^ ^ ^ ",
"^ ^ ^ ^ ^ ^ ^ ^ ^ ^ ^ ^ ^ ^ ^ ^ ^ ^ ^ ^ ^ ^ ^ ^ ^ ^ ^ ^ ^ ^ ^ ^ ^ ^ ^ ^ ^ ^ ^ ^ ^ ^ ^ S `./.(.^._.^._.^.d.d.d.d.d.(././.(././.E.F W W ^ ^ ^ ^ ^ ^ ^ ^ ^ ^ ^ ^ ^ ^ ^ ^ ^ ^ ^ ^ ^ ^ ^ ^ ^ ^ ^ ^ ^ ^ ^ ^ ^ ^ ^ ^ ^ ^ ^ ^ ^ ^ ^ ",
"^ ^ ^ ^ ^ ^ ^ ^ ^ ^ ^ ^ ^ ^ ^ ^ ^ ^ ^ ^ ^ ^ ^ ^ ^ ^ ^ ^ ^ ^ ^ ^ ^ ^ ^ ^ ^ ^ ^ ^ ^ ^ ^ S `././.(./.(./._.].].].].j.(.(.(./././.`.F W W ^ ^ ^ ^ ^ ^ ^ ^ ^ ^ ^ ^ ^ ^ ^ ^ ^ ^ ^ ^ ^ ^ ^ ^ ^ ^ ^ ^ ^ ^ ^ ^ ^ ^ ^ ^ ^ ^ ^ ^ ^ ^ ^ ",
"^ ^ ^ ^ ^ ^ ^ ^ ^ ^ ^ ^ ^ ^ ^ ^ ^ ^ ^ ^ ^ ^ ^ ^ ^ ^ ^ ^ ^ ^ ^ ^ ^ ^ ^ ^ ^ ^ l x l v M F `./././.)./.(._.d.d.d.f.d.(.(.(.(./.(.'.F r r l l l ^ ^ ^ ^ ^ ^ ^ ^ ^ ^ ^ ^ ^ ^ ^ ^ ^ ^ ^ ^ ^ ^ ^ ^ ^ ^ ^ ^ ^ ^ ^ ^ ^ ^ ^ ^ ^ ^ ^ ^ ",
"^ ^ ^ ^ ^ ^ ^ ^ ^ ^ ^ ^ ^ ^ ^ ^ ^ ^ ^ ^ ^ ^ ^ ^ ^ ^ ^ ^ ^ ^ ^ ^ ^ ^ ^ A S S E.W.W.W.Q.S `.(././.(.(.(.+ + % + + + % (.(.(.!.(.'.F z.k.W.E.W.x l l ^ ^ ^ ^ ^ ^ ^ ^ ^ ^ ^ ^ ^ ^ ^ ^ ^ ^ ^ ^ ^ ^ ^ ^ ^ ^ ^ ^ ^ ^ ^ ^ ^ ^ ^ ^ ^ ",
"^ ^ ^ ^ ^ ^ ^ ^ ^ ^ ^ ^ ^ ^ ^ ^ ^ ^ ^ ^ ^ ^ ^ ^ ^ ^ ^ ^ ^ ^ ^ ^ S F D /.^.E.W.W.W.Q.Q.S `.)./.(.^._.X 7 7 7 7 7 6 6 X X X (.(.'.G z.z.W.W.E.W./.^.l M M ^ ^ ^ ^ ( ^ ^ ^ ^ ^ ^ ^ ^ ^ ^ ^ ^ ^ ^ ^ ^ ^ ^ ^ ^ ^ ^ ^ ^ ^ ^ ^ ^ ^ ",
"^ ^ ^ ^ ^ ^ ^ ^ ^ ^ ^ ^ ^ ^ ^ ^ ^ ^ ^ ^ ^ ^ ^ ^ ^ ^ ^ ^ ^ ^ ^ K ^./././.Q.W.v v l v v Z `./.(.(.(.X 7 7 7 7 7 7 6 | R R  .X X X G m m m M v /.W.Q./././.M ^ ^ ^ / / ^ ^ ^ ^ ^ ^ ^ ^ ^ ^ ^ ^ ^ ^ ^ ^ ^ ^ ^ ^ ^ ^ ^ ^ ^ ^ ^ ^ ",
"^ ^ ^ ^ ^ ^ ^ ^ ^ ^ ^ ^ ^ ^ ^ ^ ^ ^ ^ ^ ^ ^ ^ ^ ^ ^ ^ ^ U K K ~.^.^./.~.l v /.(.(.(._.Z ).% $ O O 7 9 7 9 7 7 R |  . .|  .R t.p.X /././././.g M /.!./.!.M ^ ^ ^ ^ ^ ^ ^ ^ ^ ^ ^ ^ ^ ^ ^ ^ ^ ^ ^ ^ ^ ^ ^ ^ ^ ^ ^ ^ ^ ^ ^ ^ ^ ",
"^ ^ ^ ^ ^ ^ ^ ^ ^ ^ ^ ^ ^ ^ ^ ^ ^ ^ ^ ^ ^ ^ ^ ^ ^ ^ A S ^./.].1.^.^.x x Q.!.!.!.!.(.(.Z X 2 1 1 1 1 7 7 7 7  . .| | | | R t.7 7 6 X /././././.).M Z /./.` M M M M ^ ^ ^ ^ ^ ^ ^ ^ ^ ^ ^ ^ ^ ^ ^ ^ ^ ^ ^ ^ ^ ^ ^ ^ ^ ^ ^ ^ ^ ",
"^ ^ ^ ^ ^ ^ ^ ^ ^ ^ ^ ^ ^ ^ ^ ^ ^ ^ ^ ^ ^ ^ ^ ^ A H ).)./.^.^.].x v P.P.!.!.!.!.!.^.(.O 2 2 1 1 1 1 9 7  .X.|  . .|  . .R t.0 0 0 6 X /.)././.)././.S S {.R.U.U.U.M M M ^ ^ ^ ^ ^ ^ ^ ^ ^ ^ ^ ^ ^ ^ ^ ^ ^ ^ ^ ^ ^ ^ ^ ^ ^ ^ ",
"^ ^ ^ ^ ^ ^ ^ ^ ^ ^ ^ ^ ^ ^ ^ ^ ^ ^ ^ ^ ^ ^ ^ x ).)././.^./.l l ^.P.U.P.^.Q.!.Q.Q.!.& ..| 1 1 1 1 6  . .|  . . .X.X.R e.i.R R 7 6 6 6 X /././.).)./._.).m f I.U.U.U.W.W.M ^ ^ ^ ^ ^ ^ ^ ^ ^ ^ ^ ^ ^ ^ ^ ^ ^ ^ ^ ^ ^ ^ ^ ^ ^ ",
"^ ^ ^ ^ ^ ^ ^ ^ ^ ^ ^ ^ ^ ^ ^ ^ ^ ^ ^ ^ ^ A x `.).)./././.l Q.^.^.^.Q.U././.(.!.!.Q.& ..R | | R  .y... .X. . .X. .X.R R t.R R 7 6 6 6 O ~.)././.)././.).).).u W.Q.W.E.W.E.d f ^ ^ ^ ^ ^ ^ ^ ^ ^ ^ ^ ^ ^ ^ ^ ^ ^ ^ ^ ^ ^ ^ ^ ",
"^ ^ ^ ^ ^ ^ ^ ^ ^ ^ ^ ^ ^ ^ ^ ^ ^ ^ ^ ^ x `.`.).).)./.x l ^.^./.^.Q.!././.!./.!.!.!.& ..| R | | | i....... . .X.X. .R p.R R R R 6 6 5 O ~././.).)./.).).).).).r t W.W.W./.Q.^.u ^ ^ ^ ^ ^ ^ ^ ^ ^ ^ ^ ^ ^ ^ ^ ^ ^ ^ ^ ^ ^ ^ ",
"^ ^ ^ ^ ^ ^ ^ ^ ^ ^ ^ ^ ^ ^ ^ Y.Y.Y.Y.q.8.`.).`.).).x ~.Q./.^.!./.Q././.!././.(.(.`.& ..| | | | | p........... . .X...t.R R R R 6 6 6 O Q.Q././././.T.E.^././.)./.r /././.^.^.u ^ q.q.Y.Y.Y.Y.^ ^ ^ ^ ^ ^ ^ ^ ^ ^ ^ ^ ^ ^ ^ ",
"^ ^ ^ ^ ^ ^ ^ ^ ^ ^ ^ ^ ^ ^ q.Y.Y.Y.Y.Y.q.q.q.).`.x /.^./.~.^.Q.Q.Q./././././.`.`.h.% ..| | | | t.....................t.R R R R R 6 6 X '.~.~.~.W.E.E.T.~.~./././.^.r /./.L L q.Y.q.Y.Y.Y.Y.Y.q.^ ^ ^ ^ ^ ^ ^ ^ ^ ^ ^ ^ ^ ^ ",
"^ ^ ^ ^ ^ ^ ^ ^ ^ ^ ^ ^ ^ q.Y.Y.Y.Y.Y.Y.Y.Y.q.q.q.W.W./.Q././.^.Q./././.^.'.`.s.h.h.% ..Y | | r.7 8 7 8 t.t.i.t.t.t.i.R | R R R R 6 6 O T.'.'.~.Q.^.~.~.~.~./.~.^.Q.W.r L '.q.q.Y.Y.Y.Y.Y.Y.Y.Y.q.^ q.^ ^ ^ ^ ^ ^ ^ ^ ^ ^ ^ ",
"^ ^ ^ ^ ^ ^ ^ ^ ^ ^ ^ ^ q.q.Y.Y.Y.Y.Y.Y.Y.Y.Y.q.q.^.^.q.q.q.Q./././.^.`.`.,.2.p.a.s.% ..| | | r.Y Y Y e.e.e.e.e.e.e.e.R R R R Y 9 R 0 O T.S.D.'.].^.W.^.Q.W.W.W.q.q.q./.r /.q.Y.Y.Y.Y.Y.Y.Y.Y.Y.q.q.Y.^ ^ ^ ^ ^ ^ ^ ^ ^ ^ ^ ",
"^ ^ ^ ^ ^ ^ ^ ^ ^ ^ ^ Y.Y.Y.Y.Y.Y.Y.Y.Y.Y.Y.Y.q.q.q.q.q.q.q.q./././.'.:.-.-.2.p.a.o $ ..Y | t.| Y R e.e.e.e.e.e.e.e.e.R R R R 9 9 R 6 O T.F.F.A.A.].W.^.Q.~.~.q.q.q.q.q.W.q.q.Y.Y.Y.Y.Y.Y.Y.Y.Y.Y.Y.Y.q.^ ^ ^ ^ ^ ^ ^ ^ ^ ^ ",
"^ ^ ^ ^ ^ ^ ^ ^ ^ ^ ^ Y.Y.Y.Y.Y.Y.Y.Y.Y.Y.Y.Y.q.q.q.q.q.q.q.8.^.(.`.-.-.o.-.-.o o =.% ..| t.....e.e.e.e.e.e.e.e.e.e.e.R R R 9 9 9 9 | O N F.F.A.A.M.'.~.~.~.W.4.q.q.q.q.q.q.q.Y.Y.Y.Y.Y.Y.Y.Y.Y.Y.Y.Y.Y.^ ^ ^ ^ ^ ^ ^ ^ ^ ^ ",
"^ ^ ^ ^ ^ ^ ^ ^ ^ ^ ^ Y.Y.Y.Y.Y.Y.Y.Y.Y.Y.q.q.q.q.q.q.q.q.q././.`.[ o.@.@.o o =.#.G.% ..y.e.r.r.e.e.e.e.e.2 2 2 t.t.t.y.R R 9 9 9 9 9 O W.l k S.F.m.M.'.).).W.~.q.q.q.q.q.q.q.q.q.Y.Y.Y.Y.Y.Y.Y.Y.Y.Y.Y.^ ^ ^ ^ ^ ^ ^ ^ ^ ^ ",
"^ ^ ^ ^ ^ ^ ^ ^ ^ ^ ^ Y.Y.Y.Y.Y.Y.Y.Y.Y.q.q.q.q.q./.4.7.`.(.'.'.T T T { o a.a.C.C.C.O t.e.e.e.e.e.e.e.e.2 2 < : 2 < 4 4 r.t.t.9 9 9 9 O K.W.W.f F.m.M.M.'.).).).W.W.q.q./.q.q.q.q.q.Y.Y.Y.Y.Y.Y.Y.Y.Y.Y.^ ^ ^ ^ ^ ^ ^ ^ ^ ^ ",
"^ ^ ^ ^ ^ ^ ^ ^ ^ ^ ^ q.Y.Y.Y.Y.Y.Y.Y.Y.q.q.q.).)./.`.`.'.'.`.V T T o o 5.V.V.V.V.V.O e.e.e.e.e.e.t.t.t.2 < : : , < 4 4 4 4 4 t.t.9 9 O J.J.K.E.z z m.M.m.'.).).).~.^./.^././.q.q.q.Y.Y.Y.Y.Y.Y.Y.Y.Y.q.^ ^ ^ ^ ^ ^ ^ ^ ^ ^ ",
"^ ^ ^ ^ ^ ^ ^ ^ ^ C C C q.q.Y.Y.Y.Y.Y.q.q.q.q.V '.'.'.'.'.'.T T T o *.<.V.V.V.V.V.V.O e.e.e.t.i.i.2 , 2 9 8 : : < , 4 4 4 4 4 4 4 t.t.X K.S.K.J.E.E.k m.s.4.'.).).).~./.L P E 4.q.q.q.Y.Y.Y.Y.Y.Y.q.q.C / ^ ^ ^ ^ ^ ^ ^ ^ ^ ",
"^ ^ ^ ^ ^ ^ ^ ^ C `.)./.).q.q.Y.Y.q.q.q.q.q.T.E.L L d.;.;.'.T V o @.=.V.V.V.C.V.V.V.O i.i.t.4 4 5 , 2 , , , 8 : : , 4 4 4 4 4 4 4 4 X.. J.K.K.T.T.I.R.d f.7.'.P L V P P )./.).).q.q.7.q.q.Y.Y.Y.q.q.!.].M ^ ^ ^ ^ ^ ^ ^ ^ ^ ",
"^ ^ ^ ^ ^ ^ ^ C '.`.).).q.Y.Y.Y.Y.q.q.q.E.E.~.W.~.W.'.;.@.$.T o @.@.A.V.S.S.V.C.V.E.. e.5 4 4 4 4 , , 2 2 = 2 8 : , 2 4 4 4 4 1 5 3 e.. I.J.J.T.T.T.T.R.r 4.a.'.`.).`.`.^.Q.!.W.Q./.q.q.q.Y.Y.Y.Y.q./.'.M / ^ ^ ^ ^ ^ ^ ^ ^ ",
"^ ^ ^ ^ ^ ^ ^ F '.~.^.4.Y.Y.Y.Y.Y.Y.q.q.q.W.~.~.W.W.W.'.'.$.o =.=.A.A.A.S.V.C.V.G.+.. ..4 4 4 , , 2 , 2 , 4 , * : @ , < 4 4 , , 3 3 q . S.I.K.S.T.T.T.T.R.r d.'.).`.~.~.W.^.!.!.Q.q.q.q.Y.Y.Y.Y.Y.Y.q.Y.S W W ^ ^ ^ ^ ^ ^ ^ ",
"^ ^ ^ ^ ^ ^ ^ F '.~.~.q.Y.Y.Y.Y.Y.Y.q.q.q.~.~.W.W.~.W.W.'.$.o =.S.V.A.A.V.A.A.S.S.[ . ..4 4 5 , , 2 , , , * , ; 0 = , 2 4 4 , , , 3 w . ~.J.K.S.K.T.T.T.R.r a.].).^.Q.~.^.^.Q.^.^.q.q.q.Y.Y.Y.Y.Y.Y.q.Y.M W W W ^ ^ ^ ^ ^ ^ ",
"^ ^ ^ ^ ^ ^ ^ H '.~.^.q.Y.Y.Y.Y.Y.q.q.q.W.~.~.~.W.~.~.'.g.e @.#.S.S.S.q.j.A.S.S.J.[ . ..2 4 4 , , , 2 , , * : ; , 7 , , , , , , , , q   ,.K.K.I.K.T.T.T.R.R.r a.'.W.^.^.^.Q.Q.^./.^.q.q.q.Y.Y.Y.Y.Y.q.{.S W W W ^ ^ ^ ^ ^ ^ ",
"^ ^ ^ ^ ^ ^ ^ F '.^.^.^.q.Y.Y.Y.q.q.q.q.q.q.~.~.~.W.W.'.g.o @.*.S.S.S.T.R.<.F.K.K.<.. w , 4 5 , , 2 , , , 4 4 ; , * , , , , , , , , 9 . =.I.K.I.K.P.K.T.T.R.r s.'.^.~.~.^.^./.(.q.q.q.q.q.q.Y.Y.Y.q./.].S W W W ^ ^ ^ ^ ^ ^ ",
"^ ^ ^ ^ ^ ^ ^ F '.^.^././.q.q.q.q.q.q.q.q.q.q.~.^.Q.q.q.o @.@.J.S.S.S.S.S.W.[ S.K.4.. w , , , , , , , , , , , 4 , 4 , , , , , , , , q . j.K.K.K.K.K.K.K.K.K.P.r '.^.q.7.Q././.7.q.q.q.q.q.q.q.q.q./.).].S W W W ^ ^ ^ ^ ^ ^ ",
"^ ^ ^ ^ ^ ^ ^ H './.^././.6./.4.q.q.q.q.^.^.^.^.~.`.q.q.q.7.#.K.S.S.S.S.S.K.W.O.O.8.. w , , , , , , , , , 3 > , , , , , 3 , , > , , q   k.I.J.I.K.K.I.K.K.F.P.e q.q.4.q././././.(./.7.q.q.q.q.q.(.(.(.].F W W W ^ ^ ^ ^ ^ ^ ",
"^ ^ ^ ^ ^ ^ ^ H '.^.).^./.$./.'./.q.q.q.).^.)././.`.`.'.r #.+.q.K.I.S.S.K.K.W.q.a.4.. q > , , , , , , , , , , = = * , > > , , , , > q   k.K.K.K.K.K.K.K.K.P.q.e './.~./././././././.8.7.q.'.7.$.(.(.(.].M W W W ^ ^ ^ ^ ^ ^ ",
"^ ^ ^ ^ ^ ^ ^ H '.)./.)./.'.I E P 4.q.q.)././.^./.^.`.'.o @.#.K.K.I.K.K.F.I.T.~.d.4.  q , , , , , , , , , , > 5 5 * , > 3 , , > , 3 q . I.I.K.K.P.K.P.K.K.K.T.e './././.^././././.(.q.q.q.H ).`._.(.(.{.M ! W W ^ ^ ^ ^ ^ ^ ",
"^ ^ ^ ^ ^ ^ ^ C '.)./.)././.`.`.'.q.q./.)././.)././._.'.r @.@.P.I.K.I.I.T.I.I.~.h.j.  q > , , > , , , , > = , = 3 * > 3 > > , > > 3 q . I.I.I.K.F.K.P.K.P.K.I.r '././././.(././.(.(.(.q.q.`._._._._._.{.M Q W W ^ ^ ^ ^ ^ ^ ",
"^ ^ ^ ^ ^ ^ ^ A [.`.)./.).(.).q.q.Y.Y.Y.q.)./././././.'.r #.+.K.F.I.I.I.I.I.I.I.^.h.  w > , , , , , , > , = > 3 3 3 > > > > , > 3 3 q . R.I.I.I.P.K.K.K.K.K.K.e ]./.^./.(.).)./.(.q.Y.Y.Y.q.q.(._._.`.].F W W W ^ ^ ^ ^ ^ ^ ",
"^ ^ ^ ^ ^ ^ ^ A '.'.`._.(.(.(.q.Y.Y.Y.Y.q.q.)././.).).'.e #.#.K.I.I.I.I.I.I.T.T.T.k.. w > > > > , , , > > = = = > , > > > > , 3 3 3 q   T.I.I.I.K.K.F.K.A.A.V.r ].^./.^.^./.^.8.q.Y.Y.Y.Y.Y.q.(.`.(._.].M W W W ^ ^ ^ ^ ^ ^ ",
"^ ^ ^ ^ ^ ^ ^ C [.`.`.).).).).q.Y.Y.Y.Y.Y.7.)./._././.'.r #.@.I.T.P.I.E.E.E.I.T.T.k.  q 3 , > , > > , , > 5 5 3 > > 3 > > > > 3 < 5 @   T.T.I.I.F.I.K.K.A.A.A.r '.^./.)._.)._.8.Y.Y.Y.Y.Y.Y.q.U._._._.].D W W W ^ ^ ^ ^ ^ ^ ",
"^ ^ ^ ^ ^ ^ ^ b {.`.`.`._.).).).Y.Y.Y.Y.Y.)./.)./.N k z p r *.T.T.T.E.E.E.E.E.I.T.b.  q 3 > , > , > > > > > > > > > > > > > 3 3 5 @ ; . R.T.I.I.K.F.A.A.A.A.r P L P P )._._._.7.Y.Y.Y.Y.Y.Y.U.U.U._.`.].M W W W ^ ^ ^ ^ ^ ^ ",
"^ ^ ^ ^ ^ ^ ^ l {.{.{.'.{.'.].].q.Y.Y.Y.P O.$.#.k.'.).`.`.o @.E.E.E.E.E.E.W.E.T.T.C.  q 3 3 > > > , , > > , > > > 3 3 3 3 > > 3 0 @ ;   T.T.T.T.K.F.A.A.A.K.e ).`.).).P P N %.7.q.Y.Y.Y.Y.1.{.'.].].'.'.D W W W ^ ^ ^ ^ ^ ^ ",
"^ ^ ^ ^ ^ ^ ^ y D.D.F.P.m.Z.M.b.b.q.q.q.q.`.`.`.`.~.~.Q.Q.Q.x T.E.E.E.W.W.E.T.T.T.b.  q 3 3 3 3 3 3 > > , > , , > 3 3 3 3 > > 5 @ ; ;   T.T.R.T.I.T.T.A.A.m W.E.E.W.E.`.`.`.;.6.q.q.q.q.v.v.v.v.b.b.b.F.u W W W ^ ^ ^ ^ ^ ^ ",
"^ ^ ^ ^ ^ ^ ^ r D.K.v.v.c.v.v.v.m.v.b.q.q.q.^.^.~./.Q.Q.Q.Q.Q.B T.W.W.E.R.W.T.T.T.n.  q 3 , 3 3 3 3 > > > > , > > 3 3 3 3 3 3 = - ;   C.T.T.T.T.T.T.T.T.M E.E.W.E.E.E.E.E.W.'.N q.q.q.h.h.c.v.c.b.h.b.F.o W W W ^ ^ ^ ^ ^ ^ ",
"^ ^ ^ ^ ^ ^ ^ y K.h.h.v.3.&._ &.&.K H C C '.q.7.q.q.~.Q.Q.^.Q.`.V T.W.E.W.W.T.T.T.n.b.                      . .                     V.N.T.T.T.T.R.I.T.M J.E.E.W.E.E.W.E.q.q.4.q.+._ _ &._ _ _ +.b.b.b.S.r W W W ^ ^ ^ ^ ^ ^ ",
"^ ^ ^ ^ ^ ^ ^ r K.g.g.y `.^.Q.W.E.J.J.J.p 5.'.7.q.q.q././.^././.`.J E.E.W.W.W.T.T.n.M.V.k.k.k.j.d.j.j.j.j.k.k.q.d.8.8.7.<.1.6.1.a.V.N.N.T.T.T.T.T.I.M C.S.J.^.^.^.E.W.q.q.q.7.e J.Q.W.)./.).).'.r c.c.F.r W W W ^ ^ ^ ^ ^ ^ ",
"^ ^ ^ ^ ^ ^ ^ r Z.g.s.y ].^.W.Q.R.R.J.J.h $.'.)./.5.q.q.q.^.^././.`.J R.E.E.W.T.T.~.~.N.V.V.V.N.V.V.V.V.V.V.G.V.G.V.N.G.N.V.V.V.V.Z.V.Q.E.T.T.R.T.I l.C.).`.^.^.^.7.q.a.q.`.c.r J.Q.W.~./.)./.`.r m.c.N.r W W ^ ^ ^ ^ ^ ^ ^ ",
"^ ^ ^ ^ ^ ^ ^ W r r r r ;.`.Q.W.Q.R.R.R.R.p -.'.^.)./.q.q.q.q././.'.'.J J W.W.W.W.T.E.^.~.~.~./.^.~.^.^.~./.^./.^.^.V.V.V.V.^.^.^.^.^.T.T.T.T.M M n.l.`.^.^./.q.7.q.q.^.`.T r K.Q.E././.^.).'.h.r r r r W W ^ ^ ^ ^ ^ ^ ^ ^ ",
"^ ^ ^ ^ ^ ^ ^ ^ W W W r :.`.Q.Q.W.Q.R.R.R.a -.<.`./././././.q.q.q./.`.^.~.J W.W.W.T.T.T.T.R.E.T.E.R.E.E.E.R.E.R.R.E.^.^.V.N.R.R.E.T.T.E.T.T.x ^.^./.^.!.^.q.q.4./.^./.`.[ T r K.Q.W./.Q./.).`.h.o W W W W ^ ^ ^ ^ ^ ^ ^ ^ ^ ",
"^ ^ ^ ^ ^ ^ ^ ^ ^ ^ ^ W r -.'.Q.~.W.~.~.P.E.f ;.m.'.)./.).)./././././././.Q.C A W.W.q.q.q.T.R.R.T.R.E.E.E.R.R.E.R.R.R.R.^.^.R.T.E.q.q.q.N M /.).~./.~.)././.)./././.`.T $.t J.J.Q.W.)./.!.!.[ u Q W W ^ ^ ^ ^ ^ ^ ^ ^ ^ ^ ^ ",
"^ ^ ^ ^ ^ ^ ^ ^ ^ ^ ^ ^ r -.g.`.W.W.W.W.E.E.E.g M.M.'.'.'.)./.).).).)./././.~.^.4.q.q.q.q.8.7.8.q.E.E.R.R.E.E.R.E.R.R.R.R.q.q.q.q.q.q.q.q.7.).).).^.~.).)././.)./.`.{ $.s J.J.J.W.W././._.[ [ o W ! ^ ^ ^ ^ ^ ^ ^ ^ ^ ^ ^ ^ ",
"^ ^ ^ ^ ^ ^ ^ ^ ^ ^ ^ ^ W r v.`.^.^.W.~.W.W.E d M.M.Z.1.<.'.)._.)./.).)./.W.!.!.Q.q.q.q.q.q.9.8.q.1.E.R.R.R.R.R.R.R.R.R.q.q.q.q.q.q.7.8.q.).).).).).).).).)././.`.} { { u e K.K.W./././.`.[ u W W Q / ^ ^ ^ ^ ^ ^ ^ ^ ^ ^ ^ ",
"^ ^ ^ ^ ^ ^ ^ ^ ^ ^ ^ ^ ^ r g.v.`.~.^.^.%.%.%.L s A.Z.D.6.<.'./.).).)././././.!.W.!.E.q.q.q.S G G G ` ` U U U U U U G U F T.T.N q.q.7.(.).).).).).).).).).).'.'.-.-.$.a B.G.U I /././._.O.+.o Q W ~ / ^ ^ ( ^ ^ ^ ^ ^ ^ ^ ^ ",
"^ ^ ^ ^ ^ ^ ^ ^ ^ ^ ^ ^ ^ W r m.m.`.%.%.`.'.`.T L s A.A.L.H.].).)./.)._.).!././.!.!.Q.Q.P.S _._._._.`.(.(._./.^./.^./././.M M W.Q.^././.).).).).).).).).).'.,.,.-.-.a G.G.K.P.R.V V '.1.+.o Q W Q ~ ^ / / ~ ^ ^ ^ ^ ^ ^ ^ ^ ",
"^ ^ ^ ^ ^ ^ ^ ^ ^ ^ ^ ^ ^ ^ W r m.L [.'.^.^.~.'.`.'.s Z.H.H.H.].'._.)./.).(./.!./.!.!.!.w.(._._.(._.(.(././.!./././.Q.W./.W.`.P ^.^././.).).).).).).).'.'.3.,.2.-.p G.P.R.R.R.P.R.`.a 8.o Q W W / ^ ^ / / ~ ^ ^ ^ ^ ^ ^ ^ ^ ",
"^ ^ ^ ^ ^ ^ ^ ^ ^ ^ ^ ^ ^ ( ( r Z.V F.`./.^.^.^.~.~.W.c c L.L.H.N.].'.)././.!./.Q./.!.!.w.(.(.!.(.(./.!.!./././.^./.!./.Q./.`.P /./.!./.).).).).).'.].3.3.,.,.p x W.E.E.E.E.R.R.).T a a.u Q Q ~ / ^ ^ ~ ~ ^ ^ ^ ^ ^ ^ ^ ^ ^ ",
"^ ^ ^ ^ ^ ^ ^ ^ ^ ^ ^ ^ ^ ^ ( Q o T F.Z.'./././.~.W.Q.W.^.s H.L.N.N.V.'.'.]./././././.] '././.!././.(./.(.!.!././.!./.Q./././.`.I ^./.).).).].'.'.a.3.3.3.,.h T.R.E.E.E.Q.E.R.^.[ [ a o ! & / ~ ~ ^ ^ ^ ^ ^ ^ ^ ^ ^ ^ ^ ^ ^ ",
"^ ^ ^ ^ ^ ^ ^ ^ ^ ^ ^ ^ ^ ^ ~ / Q e P.M.Z.'././.~.~././.^.).d d N.N.N.n.n.z.].].[.(.(.] ]./.(.(.(./.(.(.(.!./././.^./.^./.^.^.].) Q./.'.].].<.4.3.3.3.2.a j R.U.E.W.E.E.E.E./.E T T o W W ^ ^ ^ ^ ^ ^ ^ ^ ^ ^ ^ ^ ^ ^ ^ ^ ^ ",
"^ ^ ^ ^ ^ ^ ^ ^ ^ ^ ^ ^ ^ ( / ~ / Q a Z.Z.N.`.`./././.).).).`.`.g g N.V.b.z.z.q.q.[.].] './.(.(.(.(.(.(.G.(./.^.G././././.!.!.'.) '.'.q.q.q.1.<.,.<.k j P.R.U.P.E.W.E.E.(.(.T T [ a W W ^ ^ ^ ^ ^ ^ ^ ^ ^ ^ ^ ^ ^ ^ ^ ^ ^ ^ ",
"^ ^ ^ ^ ^ ^ ^ ^ ^ ^ ^ ^ ^ ~ / / ~ / W r N.N.Z.S.`./.).).).)._.`.9.).d r B.z.x.x.q.q.0.U '.(.(.(.!.(.(.(.'.G.G.G.'.^.(.^././.^.].) J 7.7.7.1.1.<.z m Q.J /.U.R.E.E.E.E.Q.{ [ T T o W W ^ ^ ^ ^ ^ ^ ^ ^ ^ ^ ^ ^ ^ ^ ^ ^ ^ ^ ^ ",
"^ ^ ^ ^ ^ ^ ^ ^ ^ ^ ^ ^ ^ ^ ~ / ~ ~ ^ W o Z.Z.N.Z.`.`.).`.`._.9._././.W.r y r q.q.8.0.U _._._.(.(.(.(.(.w.'.].].x.(.(.(.(././.].` ) 7.7.7.e r e ).)././.G./.E.E.E./.(.#.{ [ T o W W ^ ^ ^ ^ ^ ^ ^ ^ ^ ^ ^ ^ ^ ^ ^ ^ ^ ^ ^ ^ ",
"^ ^ ^ ^ ^ ^ ^ ^ ^ ^ ^ ^ ^ ^ ^ ^ ^ ^ ^ ^ W e e M.Z.Z.M.'.'.'.%._.^.~.^.^.^.Q.R.r t t t U ].(.'.(.(.(.(.(.].w.%.%.].(.(.(.(././.].` r r r e W.W.E.).).)./.).B.E._.).:.:.-.{ o o W W ^ ^ ^ ^ ^ ^ ^ ^ ^ ^ ^ ^ ^ ^ ^ ^ ^ ^ ^ ^ ^ ",
"^ ^ ^ ^ ^ ^ ^ ^ ^ ^ ^ ^ ^ ^ ^ ^ ^ ^ ^ ^ ^ W W e Z.M.Z.M.M.L ].^.^.^.^.^.W.Q.R.R.U.R.R.G ].`.(.'.`.`.(.(.G ].(.'.&.(.(.(.(.(./.].K b.k./.!.Q.E.E././././.^.'.'.s.-.:.-.-.o W W ^ ^ ^ ^ ^ ^ ^ ^ ^ ^ ^ ^ ^ ^ ^ ^ ^ ^ ^ ^ ^ ^ ^ ",
"^ ^ ^ ^ ^ ^ ^ ^ ^ ^ ^ ^ ^ ^ ^ ^ ^ ^ ^ ^ ^ ^ ^ W e e M.M.M.L T.'.'.'./.W.!.W.W.U.R.R.Y.G ].(.'.(.'.(.`.`.]._._.(.].(.(.(.(.(.(.].I x.k.^.Q.Q././././.'.'.'.[ z s.-.o.o o W ^ ^ ^ ^ ^ ^ ^ ^ ^ ^ ^ ^ ^ ^ ^ ^ ^ ^ ^ ^ ^ ^ ^ ^ ^ ",
"^ ^ ^ ^ ^ ^ ^ ^ ^ ^ ^ ^ ^ ^ ^ ^ ^ ^ ^ ^ ^ ^ ^ ^ W W r r m.V R.m.b.m.'.'.'.].W.T.P.E.P.G {.(.(.`.(.'.(.(._._._.(.(.(.(.(.(.(.(.[.G k.x.Q.W.Q.`.'.`.'.+.[ [ [ z s.o o W W ^ ^ ^ ^ ^ ^ ^ ^ ^ ^ ^ ^ ^ ^ ^ ^ ^ ^ ^ ^ ^ ^ ^ ^ ^ ^ ",
"^ ^ ^ ^ ^ ^ ^ ^ ^ ^ ^ ^ ^ ^ ^ ^ ^ ^ ^ ^ ^ ^ ^ ^ ^ ^ W W e e P.m.v.m.c.h.c.s.`.`.`.'.`.F [.[.[.[.[.[.'.'.'.'.'.'.`.`.{.'.].{.{.[.D G.z.'.`.'.=.=.*.+._ [ [ [ o o W W ^ ^ ^ ^ ^ ^ ^ ^ ^ ^ ^ ^ ^ ^ ^ ^ ^ ^ ^ ^ ^ ^ ^ ^ ^ ^ ^ ^ ",
"^ ^ ^ ^ ^ ^ ^ ^ ^ ^ ^ ^ ^ ^ ^ ^ ^ ^ ^ ^ ^ ^ ^ ^ ^ ^ ^ ^ W W e r m.m.c.c.c.s.h.s.p.,.;.r K.K.P.Z.N.N.N.N.N.M.M.M.N.v.k.F.F.F.F.D.p B D 7.=.=.=.=.*.+.+.[ o o W W ^ ^ ^ ^ ^ ^ ^ ^ ^ ^ ^ ^ ^ ^ ^ ^ ^ ^ ^ ^ ^ ^ ^ ^ ^ ^ ^ ^ ^ ^ ",
"^ ^ ^ ^ ^ ^ ^ ^ ^ ^ ^ ^ ^ ^ ^ ^ ^ ^ ^ ^ ^ ^ ^ ^ ^ ^ ^ ^ ^ ^ W W e e c.g.s.s.a.a.p.,.@.r K.P.M.M.M.M.M.M.M.b.M.B.v.h.c.c.h.k.D.S.e N B =.=.*.=.=.+.+.o o W Q ( ^ ^ ^ ^ ^ ^ ^ ^ ^ ^ ^ ^ ^ ^ ^ ^ ^ ^ ^ ^ ^ ^ ^ ^ ^ ^ ^ ^ ^ ^ ^ ",
"^ ^ ^ ^ ^ ^ ^ ^ ^ ^ ^ ^ ^ ^ ^ ^ ^ ^ ^ ^ ^ ^ ^ ^ ^ ^ ^ ^ ^ ^ ^ ^ W W e e e e h.p.5.<.@.r K.M.M.N.M.M.m.B.v.v.m.c.c.c.h.h.h.h.h.D.o N B =.=.*.o o o o W W ^ ^ ( / / ^ ^ ^ ( ( ^ ^ ^ ^ ^ ^ ^ ^ ^ ^ ^ ^ ^ ^ ^ ^ ^ ^ ^ ^ ^ ^ ^ ^ ",
"^ ^ ^ ^ ^ ^ ^ ^ ^ ^ ^ ^ ^ ^ ^ ^ ^ ^ ^ ^ ^ ^ ^ ^ ^ ^ ^ ^ ^ ^ ^ ^ ^ ^ W W W W e e e e e e J.m.M.M.c.h.p.h.s.s.k.c.c.c.h.h.h.s.s.A.o o o o o o W W W W ^ ^ ^ ^ ~ / / ^ ^ / ( ^ ^ ^ ^ ^ ^ ^ ^ ^ ^ ^ ^ ^ ^ ^ ^ ^ ^ ^ ^ ^ ^ ^ ^ ^ ",
"^ ^ ^ ^ ^ ^ ^ ^ ^ ^ ^ ^ ^ ^ ^ ^ ^ ^ ^ ^ ^ ^ ^ ^ ^ ^ ^ ^ ^ ^ ^ ^ ^ ^ ^ ^ ^ ^ W W W W W e F.m.m.@.*.,.h.h.s.s.s.s.c.h.s.h.h.h.p.A.o W W W W W ^ ^ ^ ^ ^ ^ ^ ^ ^ ~ ~ ^ / / / ^ ^ ^ ^ ^ ^ ^ ^ ^ ^ ^ ^ ^ ^ ^ ^ ^ ^ ^ ^ ^ ^ ^ ^ ^ ",
"^ ^ ^ ^ ^ ^ ^ ^ ^ ^ ^ ^ ^ ^ ^ ^ ^ ^ ^ ^ ^ ^ ^ ^ ^ ^ ^ ^ ^ ^ ^ ^ ^ ^ ^ ^ ^ ^ ^ ^ ^ ^ ^ e D.,.@.=.=.@.h.p.s.p.p.s.s.s.p.p.p.p.p.A.o W W ^ ^ ^ ^ ^ ^ ^ ^ ^ ^ ^ ^ ^ ^ ^ / / ~ ^ ^ ^ ^ ^ ^ ^ ^ ^ ^ ^ ^ ^ ^ ^ ^ ^ ^ ^ ^ ^ ^ ^ ^ ^ ",
"^ ^ ^ ^ ^ ^ ^ ^ ^ ^ ^ ^ ^ ^ ^ ^ ^ ^ ^ ^ ^ ^ ^ ^ ^ ^ ^ ^ ^ ^ ^ ^ ^ ^ ^ ^ ^ ^ ^ ^ ^ ^ ^ W o r r o o o o o o o o o o o o o o o o o W W ^ ^ ^ ^ ^ ^ ^ ^ ^ ^ ^ ^ ^ ^ ^ ^ ~ ~ ^ ^ ^ ^ ^ ^ ^ ^ ^ ^ ^ ^ ^ ^ ^ ^ ^ ^ ^ ^ ^ ^ ^ ^ ^ ^ ",
"^ ^ ^ ^ ^ ^ ^ ^ ^ ^ ^ ^ ^ ^ ^ ^ ^ ^ ^ ^ ^ ^ ^ ^ ^ ^ ^ ^ ^ ^ ^ ^ ^ ^ ^ ^ ^ ^ ^ ^ ^ ^ ^ ^ W W W W Q W W W W W W W W W W W W W W W W ^ ^ ^ ^ ^ ^ ^ ^ ^ ^ ^ ^ ^ ^ ^ ^ ^ ^ ^ ^ ^ ^ ^ ^ ^ ^ ^ ^ ^ ^ ^ ^ ^ ^ ^ ^ ^ ^ ^ ^ ^ ^ ^ ^ ^ "
};
