/* XPM */
static char *Smoke_9[] = {
/* columns rows colors chars-per-pixel */
"110 73 181 2 ",
"   c #4F2913",
".  c #512B14",
"X  c #5A361D",
"o  c #7D3515",
"O  c #5C3A23",
"+  c #5F3F28",
"@  c #56493F",
"#  c #55473E",
"$  c #5E4029",
"%  c #61412A",
"&  c #654934",
"*  c #5A4E43",
"=  c #574A40",
"-  c #5C5146",
";  c #5D5349",
":  c #62594B",
">  c #676159",
",  c #6A635B",
"<  c #6F695A",
"1  c #736C5E",
"2  c #70675B",
"3  c #6E6960",
"4  c #726C63",
"5  c #736F68",
"6  c #777166",
"7  c #797266",
"8  c #7A746A",
"9  c #7E796D",
"0  c #767168",
"q  c #797770",
"w  c #7A7870",
"e  c #823716",
"r  c #843917",
"t  c #893C1A",
"y  c #873B19",
"u  c #8C421E",
"i  c #894523",
"p  c #8D4927",
"a  c #8D4C2B",
"s  c #924521",
"d  c #994D28",
"f  c #94512C",
"g  c #9A532D",
"h  c #8E5231",
"j  c #925532",
"k  c #945937",
"l  c #9D5A35",
"z  c #935B3B",
"x  c #9B5936",
"c  c #A1522A",
"v  c #A15E36",
"b  c #A15E39",
"n  c #817F20",
"m  c #9C613B",
"M  c #A3643B",
"N  c #9D6542",
"B  c #9B6B44",
"V  c #9F7149",
"C  c #9A7A5D",
"Z  c #A66B43",
"A  c #A96E44",
"S  c #A66B47",
"D  c #AA7046",
"F  c #A4714A",
"G  c #AB744B",
"H  c #AF794E",
"J  c #A77047",
"K  c #A97750",
"L  c #AE7C53",
"P  c #A2765B",
"I  c #A57A5D",
"U  c #A77B56",
"Y  c #B27F56",
"T  c #807B6F",
"R  c #9C7F64",
"E  c #837E72",
"W  c #AA7F62",
"Q  c #8F8824",
"!  c #948D29",
"~  c #99912E",
"^  c #ACB828",
"/  c #C1C52D",
"(  c #C9CD35",
")  c #D1D43D",
"_  c #AE8259",
"`  c #AF8A5E",
"'  c #B38256",
"]  c #B28359",
"[  c #B4885C",
"{  c #9D8265",
"}  c #9E8469",
"|  c #9F886C",
" . c #868175",
".. c #888477",
"X. c #8A867A",
"o. c #88857D",
"O. c #9F8C73",
"+. c #A18564",
"@. c #A38A66",
"#. c #A68C6A",
"$. c #AA8C6A",
"%. c #A88567",
"&. c #B38B69",
"*. c #B48D65",
"=. c #A79068",
"-. c #AB926C",
";. c #A28C73",
":. c #A78D73",
">. c #A69176",
",. c #AB9474",
"<. c #AD9977",
"1. c #A3907A",
"2. c #AA957B",
"3. c #AE9A7C",
"4. c #A79A7F",
"5. c #B29375",
"6. c #B39C75",
"7. c #B39E7C",
"8. c #BA9B7B",
"9. c #B79876",
"0. c #B59068",
"q. c #B0A079",
"w. c #C29F75",
"e. c #918D82",
"r. c #949187",
"t. c #99968D",
"y. c #9C998E",
"u. c #959289",
"i. c #9B9890",
"p. c #A69983",
"a. c #AB9C84",
"s. c #AB9E89",
"d. c #B49E84",
"f. c #AB9F90",
"g. c #AEA28D",
"h. c #B4A284",
"j. c #B5A58A",
"k. c #BAA68A",
"l. c #B9A98D",
"z. c #BAA484",
"x. c #AFA391",
"c. c #B1A694",
"v. c #B3A996",
"b. c #BCAD94",
"n. c #B2A798",
"m. c #B5AB9B",
"M. c #B9AF9B",
"N. c #BBA790",
"B. c #BDB19A",
"V. c #BEB196",
"C. c #B8AFA2",
"Z. c #BDB5A3",
"A. c #BEB8A5",
"S. c #BFB6A9",
"D. c #BFB8AA",
"F. c #C2B49C",
"G. c #C3B89F",
"H. c #C3BAA6",
"J. c #C3BDAC",
"K. c #C1B6A3",
"L. c #C5BFB1",
"P. c #C4C0AF",
"I. c #CAC1AD",
"U. c #DBC7A2",
"Y. c #C6C2B2",
"T. c #CAC5B4",
"R. c #CCC7B9",
"E. c #CECABC",
"W. c #D1CDBE",
"Q. c #D2D0BF",
"!. c #CFCDC1",
"~. c #D1CFC2",
"^. c #D4D1C5",
"/. c #D8D5C7",
"(. c #D6D3C8",
"). c #D9D6C9",
"_. c #DAD8CE",
"`. c #DDDCD3",
"'. c #E0DED6",
"]. c #E1DFD8",
"[. c #E2E1DA",
/* pixels */
"/ / / / / / / / / / / / / / / / / / / / / / / / / / / / / / / / / / / / / / / / / / / / Y Y Y Y Y Y ] ] ' ' ' ' ' Y H H G G D / / / / / / / / / / / / / / / / / / / / / / / / / / / / / / / / / / / / / / / / / / / / / / / ",
"/ / / / / / / / / / / / / / / / / / / / / / / / / / / / / / / / / / / / / / / / / / / D ^.W.E.W.R.R./.~./.^.^.^.^.^.^././.R.R.D Q Q / / / / / / / / / / / / / / / / / / / / / / / / / / / / / / / / / / / / / / / / / / / / ",
"/ / / / / / / / / / / / / / / / / / / / / / / / / / / / / / / / / / / / / / / / / / / D ).W.~.^.~././.~././.^.^./.^.^.^./.^.R.R.G Q Q / / / / / / / / / / / / / / / / / / / / / / / / / / / / / / / / / / / / / / / / / / / ",
"/ / / / / / / / / / / / / / / / / / / / / / / / / / / / / / / / / / / / / / / / / / / J _.(.(.~.(.^.(.(.d.d.h.d.d././.^.^.^.^.R.G Q Q / / / / / / / / / / / / / / / / / / / / / / / / / / / / / / / / / / / / / / / / / / / ",
"/ / / / / / / / / / / / / / / / / / / / / / / / / / / / / / / / / / / / / / / / / / / D _.^.^.^./.^.^./.].].].].h./.Q././.^.^._.G Q Q / / / / / / / / / / / / / / / / / / / / / / / / / / / / / / / / / / / / / / / / / / / ",
"/ / / / / / / / / / / / / / / / / / / / / / / / / / / / / / / / / / / / / / x x l b Z D _.^././.^././.(.d.d.d.d.h./././.^././.`.G y e l l x / / / / / / / / / / / / / / / / / / / / / / / / / / / / / / / / / / / / / / / / ",
"/ / / / / / / / / / / / / / / / / / / / / / / / / / / / / / / / / / / S S S R.E.E.E.W.D _././.^.(././.+ + % % + + % /././././.`.G l.l.E.R.R.x x l / / / / / / / / / / / / / / / / / / / / / / / / / / / / / / / / / / / / / ",
"/ / / / / / / / / / / / / / / / / / / / / / / / / / / / / / / / S G G ~.^.E.E.E.E.E.W.D _.^.^.^.^.(.X 7 7 7 7 7 7 7 X X X /.Q.`.H l.l.E.R.E.!.!.~.v M M / / / / ) / / / / / / / / / / / / / / / / / / / / / / / / / / / / / ",
"/ / / / / / / / / / / / / / / / / / / / / / / / / / / / / / / L ~.^.~.^.~.R.v v x v v D _.^./././.O 7 7 T 7 7 7 7  .E E X.X X X H m m M M v ~.^.Q.^.^.Q.M / / / ( ( / / / / / / / / / / / / / / / / / / / / / / / / / / / / ",
"/ / / / / / / / / / / / / / / / / / / / / / / / / / / / L Y L !.^.~.^.~.l v ^././././.D /.% $ O O 7 T 7 7 7 7 X... ...E ..E t.p.X ^.^.^.^.Q.g M ^.Q.^.^.M / / / / / / / / / / / / / / / / / / / / / / / / / / / / / / / / / ",
"/ / / / / / / / / / / / / / / / / / / / / / / / / / S S ~.~.'.<.~.~.x x W.Q.Q.Q.W././.A X 2 1 1 1 1 8 8 7 7 ..E ....E ..E t.0 0 6 X ^.^.^.^.^.(.M D /.^.L M M M M / / / / / / / / / / / / / / / / / / / / / / / / / / / / / ",
"/ / / / / / / / / / / / / / / / / / / / / / / / S S )._.~.^.~.`.x v Y.L.Q.Q.W.Q.Q.^./.O < 1 1 1 1 1 7 7 ......E  .....E E t.7 7 0 0 X ^.^.^.^./.^./.M H [.T.T.I.I.M M M / / / / / / / / / / / / / / / / / / / / / / / / / / ",
"/ / / / / / / / / / / / / / / / / / / / / / / x _.).^.~.^.~.l l W.L.L.L.^.W.W.W.W.Q.& X. .1 1 1 1 5 o.X.E X.....X.E X.E p.E E 5 6 6 6 O (.~.^.(.^.(.).).m f Y.T.I.I.R.W.M / / / / / / / / / / / / / / / / / / / / / / / / / ",
"/ / / / / / / / / / / / / / / / / / / / / S x _.^.^.^.^.~.l W.^.~.~.W.I.W././.Q.W.Q.& X. . .T  .E p.X.....X.X.X.X.X...X.i.E E 0 0 6 6 X !.(.^.(./.^.^.^.(.^.t E.E.E.E.E.R.f f / / / / / / / / / / / / / / / / / / / / / / / ",
"/ / / / / / / / / / / / / / / / / / / / x `._.(.(.(.^.x l ^.~.^.Q.W.W.Q.^.Q.^.W.Q.Q.& X.E E  . . .i.X.X.X...X.X.X.E E i.E E E E 6 6 0 O !.^.^.^.^.(.^.(.(.(.^.y t R.E.R.^.E.~.u / / / / / / / / / / / / / / / / / / / / / / ",
"/ / / / / / / / / / / / / / / / / / / / f _.(._.(.(.l ~.~.W.^.W.W.^./.^.Q././././._.& X. . . . .E p.X.X.X.X.X.X.o.o.o.t.E E E E 6 0 0 O !.!.^.^.^.~.T.R.^.^.^.^.^.y ^.^.^.^.^.t / / / / / / / / / / / / / / / / / / / / / / ",
"/ / / / / / / / / / / / / / / / / / Z M `.C P (.).x ^.W.^.~.~.W.Q.W.~.^.^.^.^._._.g.% X. . . . .i...X.X.X.X.X.X.X.X.X.t.E E E E T 6 6 O `.Q.~.E.~.R.T.T.!.!.~.^.^.^.y ^.^.P P `.s p / / / / / / / / / / / / / / / / / / / / ",
"/ / / / / / / / / / / / / / / / / q.q.q.q.`.`.P k W.!.^.E.^.^.W.W.^.^.^.^._._.s.g.g.% X. .T  .r.8 8 7 8 t.t.i.t.t.t.i.E E E E E  .6 6 O Y.`.`.E.W.W.!.!.!.W.^.~.~.E.E.y P `.`.~._.q.q.q.q./ / / / / / / / / / / / / / / / / ",
"/ / / / / / / / / / / / / / / q.U.U.U.U.U.U.3.q.~.W.~.~.^.q.q.q.^.^.^._._.;.1.p.a.s.% X. . . .r.T T T e.e.e.e.e.e.e.e.E E E E E 9  .0 O Y.A.D.`.'.!.!.!.!.q.q.q.q.~.E.^.y ^.q.q.U.U.U.U.U.U.q./ / / / / / / / / / / / / / / ",
"/ / / / / / / / / / / / / q.U.U.U.U.U.U.U.U.U.U.q.q.^.^.^.q.q.q.q.^.`.;.1.;.>.p.a.o $ X.9  .t.T T E e.e.e.e.e.e.e.e.e.E E E E 9 9 w 0 O J.D.D.S.D.'.E.!.q.q.q.q.q.q.E.R.q.q.U.U.U.U.U.U.U.U.U.U.q./ / / / / / / / / / / / / ",
"/ / / / / / / / / / / / / U.U.U.U.U.U.U.U.U.U.U.U.q.q./.U.U.q.q.q._.;.;.O.>.O.o o $.% X. .t.e.r.e.e.e.e.e.e.e.e.e.e.X.E E E 9 9 9 9  .O N D.D.A.Z.n.'.!.q.q.q.U.U.q.E.q.U.U.U.U.U.U.U.U.U.U.U.U.U./ / / / / / / / / / / / / ",
"/ / / / / / / / / / / / U.U.U.U.U.U.U.U.U.U.U.U.U.U.U.U.U.U.q.q.q.R O.#.| o o -.-.F.% X.y.e.X.r.e.e.e.e.e.2 2 2 t.t.y.y.E E 9 9 9 9 9 O R.l k D.D.n.n.'.q.q.q.U.U.U.q.q.U.U.U.U.U.U.U.U.U.U.U.U.U.q./ / / / / / / / / / / / ",
"/ / / / / / / / / / / / U.U.U.U.U.U.U.U.U.U.U.U.U.U.U.U.U.q.q.q.q.R R } o a.a.B.V.V.O t.e.e.e.e.e.e.e.e.2 2 < : 2 < 4 4 u.t.t.9 9 9 9 O P.R.R.f D.m.m.n.q.q.q.U.q.U.U.U.U.U.U.U.U.U.U.U.U.U.U.U.U.q./ / / / / / / / / / / / ",
"/ / / / / / / / / / / / U.U.U.U.U.U.U.U.U.U.U.U.U.U.q.q.q.q.q.q.{ R o o 3.B.B.B.B.B.O e.e.e.e.e.e.t.t.t.2 < : : < < 4 4 4 1 4 t.t.9 9 X P.H.H.R.z k m.m.n.q.q.q.q.q.q.q.U.U.U.U.U.U.U.U.U.U.U.U.U.U./ / / / / / / / / / / / ",
"/ / / / / / / / / Z Z Z U.U.U.U.U.U.U.U.U.U.U.U.q.q.q.q.q.q.q.q.R o =.,.B.B.B.V.M.F.O e.e.e.i.t.i., 2 2 8 8 : : , , 4 4 4 4 4 4 4 i.i.X D.H.J.J.R.R.f m.h.3.q.q.q.q.q.q.q.q.U.U.U.U.U.U.U.U.U.U.U.U.D Z / / / / / / / / / / ",
"/ / / / / / / / Z _.(.^.U.U.U.U.U.U.U.U.U.U.U.q.q.q.q.q.q.3.C C o #.-.B.B.B.V.B.B.B.O y.i.i.4 4 5 2 , , 2 , 8 : : < 4 5 4 1 4 4 4 3 o.  A.P.H.Y.Y.Y.T.f a.7.`.I q.q.q.q.U.q.q.U.U.U.U.U.U.U.U.U.U.U.Q.[.D / / / / / / / / / ",
"/ / / / / / / Z `._.(.(.q.U.U.U.U.U.U.U.U.U.q.q.q.q.q.q.q.#.C o #.#.A.A.Z.A.B.V.M.R.. e.4 4 4 4 4 , , 2 , * 2 8 : , , 5 4 4 4 1 4 4 e.. P.A.P.Y.Y.Y.Y.T.y 3.a.`._.q.q.q.q.q.q.U.U.U.U.U.U.U.U.U.U.q.W.].D / / / / / / / / / ",
"/ / / / / / / G `.!.~.!.q.U.U.U.U.U.U.U.U.U.q.q.q.q.q.q.q.7.o -.#.A.Z.B.A.B.B.B.F.#.. X.4 4 4 , , 2 , 2 , 4 , * : = , , 4 4 , , 3 3 q . H.P.H.A.Y.Y.Y.P.R.r 7.`.q.q.q.q.q.q.U.q.U.U.U.U.U.U.U.U.q.q.^.`.M Q Q / / / / / / / ",
"/ / / / / / / G _.!.~.!.~.3.q.q.U.U.U.U.U.q.q.q.q.q.q.E.q.q.q.-.Z.Z.B.Z.B.Z.Z.A.H.{ . X.4 4 5 , , , , < , - , : 0 = , , 4 4 , , , 3 q . ~.H.A.J.H.Y.Y.Y.T.y a.q.q.q.q.q.q.q.U.q.q.U.U.U.U.U.q.q.q.^.^.'.A Q Q Q / / / / / / ",
"/ / / / / / / J `.~.~.!.W.q.3.U.U.U.U.U.U.U.q.q.q.E.E.`.s.r #.#.A.A.A.q.h.Z.A.A.H.R . ..4 4 4 , , 2 , , , * : * , 0 , 2 , , , , , , w   ,.J.J.P.L.Y.Y.Y.Y.R.e a.'.E.!.!.q.q.q.q.U.U.U.U.U.U.U.q.q.Q.~.'.D Q Q Q / / / / / / ",
"/ / / / / / / G `.~.~.~.^.!.q.U.U.U.U.U.U.U.U.q.q.q.E.'.s.o -.-.A.A.A.Y.Y.<.D.D.J.2.. w > 4 4 , , , , < , 4 4 - , - , , , , , , , , 9 . ,.A.J.P.L.Y.D.Y.Y.T.r g.'.!.E.q.q.q.q.U.U.U.U.U.U.U.U.6.^.W.^.'.D Q Q Q / / / / / / ",
"/ / / / / / / G `.~.^.^.^.5.`._.q.q.U.U.U.U.U.U.q.q.q.q.o #.#.D.A.A.A.A.A.R.+.J.H.3.. 8 , , , 3 , , , , , , , 4 , 4 , , , , , , , , q   h.P.J.J.D.J.J.J.D.P.P.o '.q.q.q.q.q.U.U.U.U.U.U.q.q.7.z.~././.'.D Q Q Q / / / / / / ",
"/ / / / / / / G `.^.~.(.(.5.(.%.^.5.U.U.U.U.U.U.q.q.q.q.<.$.$.q.q.A.A.A.A.J.R.+.+.7.. w , , , , , , , , , , , , , , > , , , > 3 , , q   j.J.A.P.J.J.J.J.D.q.q.r `.q.q.q.q.q.U.U.U.U.U.U./.8.8.8./././.'.D Q Q Q / / / / / / ",
"/ / / / / / / J `.~.(.~.~.%.~.`.^.%.q.U.U.U.q.q.q.q.q.`.r $.@.7.q.q.A.A.P.P.E.q.a.3.  8 , , , , , , , , , > , = = * 3 , , , > > , > q   h.P.P.J.P.J.J.J.q.q.q.r `.~.q.q.q.q.q.q.U.U.U.q./._._.%./././.'.M Q Q Q / / / / / / ",
"/ / / / / / / S ].^.~.(.(._.I I I _.^.(.q.q.q.q.q.^._.`.r @.$.J.J.J.P.J.P.P.Y.!.a.d.. q , , , , > 3 , , > 3 3 3 5 * > > , , , > , 3 q . P.J.P.P.L.J.L.J.J.L.L.r '.^.^.^.q.q.q.q.q.q./.U F S (._.)././.[.G Q Q Q / / / / / / ",
"/ / / / / / / S '.(.(.(.(.(.`.`.`.(.(.).U.U.q.q.^.^._.`.r @.#.L.P.J.P.J.P.P.P.!.h.g.. q > , > , > > , , > = > = 3 * 3 > , > , > , 3 q   J.P.P.J.D.J.L.J.J.Y.D.r `.^.^.^.^.q.q.q.U.U.q._.`._./._.).)._.[.M Q Q Q / / / / / / ",
"/ / / / / / / S `._.(.(.(.(.(./.^.).3.U.U.U.q.q.q.q.^.`.e @.$.J.P.P.P.P.D.P.P.P.!.j.  q > , , > , , > > , = > 4 > 3 3 > > , > > 3 3 q   Y.I.P.P.L.J.J.J.J.J.P.r `.~.^.^.q.q.q.q.U.U.U.q._.)./._.).).).'.J Q Q Q / / / / / / ",
"/ / / / / / / S '._.).(./././.(.(.q.U.U.U.U.U.U.q.q./.`.y $.@.Y.D.P.P.P.Y.P.Y.Y.Y.j.  q , > > , > > > 3 > = = = , > > > , > 3 3 3 3 q   Y.P.P.P.J.J.D.J.Z.Z.B.r `.^.^.q.q.q.U.U.U.U.U.U.q.).)./._.).).'.J Q Q Q / / / / / / ",
"/ / / / / / / Z ]._._.(.).^.).).).q.U.U.U.U.U.U.q.q.q.`.r @.@.Y.Y.Y.Y.R.R.R.P.Y.P.j.  q 3 > > , , , > > > 5 5 3 > , > > > > > 3 3 5 * . Y.Y.P.P.D.P.J.J.Z.Z.Z.r `.^.3.q.q.q.U.U.U.U.U.U.q.)._.I.).).).'.M Q Q Q / / / / / / ",
"/ / / / / / / b ]._._._.(.).^.).(.).U.U.U.U.U.U.q.N k k p y $.Y.Y.D.R.R.R.R.T.P.Y.v.  q 3 , > > > > > , > > > > , > > > 3 > > 3 5 @ ; . Y.Y.P.P.J.D.Z.Z.Z.Z.y P P I P ).q.q.U.U.U.U.U.U.).I.I.I.I.).`.'.J Q Q Q / / / / / / ",
"/ / / / / / / v [.[.[.].[.`.`.`.`.`.q.U.U.U.q.q.q._._._._.o #.R.E.R.R.R.T.E.R.Y.Y.b.  q 3 3 > > > , , > > , , > , > 3 3 3 , > 3 0 @ ;   Y.Y.Y.Y.H.J.Z.Z.S.D.r )._.(.(.P I q.q.q.U.U.U.q.'.'.'.`.'.'.'.'.Z Q Q Q / / / / / / ",
"/ / / / / / / r D.S.L.S.n.m.m.v.m.m.v.q.q.q.q.q.q.!.!.W.W.~.l Y.E.E.E.R.E.R.Y.Y.Y.M.  q 3 3 3 3 3 3 > > , > > , , 3 3 3 3 > > 4 @ ; ;   Y.Y.Y.Y.Y.Y.Y.Z.Z.m E.R.E.R.R.`._.3.q.q.q.q.q.g.g.c.x.m.v.v.v.D.r Q Q Q / / / / / / ",
"/ / / / / / / r J.S.c.c.x.v.v.v.n.v.v.G B `.q.q.U.U.U.E.W.W.W.V Y.!.R.R.R.E.Y.Y.P.V.  q 3 3 3 , 3 3 > > > > > > > 3 3 3 3 3 4 = - ;   B.Y.T.Y.Y.Y.Y.Y.Y.M R.R.R.E.R.R.U.U.U.q.3.Y.g.g.g.g.x.x.n.v.v.g.D.u Q Q Q / / / / / / ",
"/ / / / / / / r S.x.g.j.2.*.` *.*.U J Z M `.^.^.U.U.U.U.W.W.!._.C Y.R.E.E.E.Y.Y.Y.b.v.                        .                     B.M.Y.Y.Y.Y.Y.Y.Y.M K.R.R.E.R.R.U.U.U.U.`.F *.` ` ` ` ` ` @.v.g.v.D.o Q Q Q / / / / / / ",
"/ / / / / / / r J.s.x.y '.W.W.~.T.H.H.H.p 4.`.~.g.U.U.U.q.^.~.(._.K T.E.R.E.E.P.Y.M.M.M.l.l.j.h.h.h.d.h.h.z.h.h.7.7.7.7.2.5.<.<.a.B.M.B.Y.T.Y.Y.Y.I.m V.D.H.!.!.!.3.U.U.q.`.n.r H.R.W.(.^.(.(.`.y x.x.D.r Q Q Q / / / / / / ",
"/ / / / / / / r C.f.f.y ).~.E.E.T.T.H.H.h @.`.^.~.~.q.q.q.U.q.~.^._.K T.R.E.E.T.Y.W.!.M.M.M.B.B.B.B.B.B.Z.B.F.B.B.F.B.B.M.B.F.M.B.B.B.E.Y.Y.Y.T.Y.U l.V.(._.^.q.q.q.q.!.R._.s.y I.E.E.~.^.(.~._.r x.x.C.r Q Q / / / / / / / ",
"/ / / / / / / Q e y e e 1.'.W.E.W.I.T.T.R.p :.`.^.^.^.^.~.^.~.q.q.q._.U K R.E.E.E.Y.Y.~.W.~.!.!.~.!.~.^.~.~.~.~.~.~.B.B.B.V.~.~.!.!.!.Y.T.Y.T.m M b.k.).q.q.3.^.^.!.~.~._.R r J.E.E.^.^.^.^.`.x.r r r r Q Q / / / / / / / / ",
"/ / / / / / / / Q Q Q e 1.).W.W.W.^.T.T.T.a :.>._.^.^.^.^.^.(.^.^.^._.q.~.U E.R.R.T.Y.q.q.q.q.T.T.T.R.T.T.R.R.T.R.R.!.^.B.V.T.3.q.q.h.R.Y.Y.x ~.~.~.^.^.~.^.^.^.^.!.^._.{ { r J.E.E.~.~.~.(._.x.r Q Q Q Q / / / / / / / / / ",
"/ / / / / / / / / / / Q r ;.`.W.E.!.E.!.T.T.f :.n.'.^.^.^.^.(.^.^.^.^.^.^.^.M S R.q.q.q.q.q.q.7.q.q.R.q.q.T.R.R.T.q.q.T.q.q.q.q.q.q.q.q.q.M ^.(.~.~.^.(.^.^.^.^.^.(.`.R %.t H.L.E.E.^.(.^._.} r Q Q Q / / / / / / / / / / / ",
"/ / / / / / / / / / / / r :.f._.!.E.!.E.T.T.R.g m.m.`.`.`./.(.(.).(.^.^.~.~.^.^.v l q.q.q.q.q.7.q.q.T.R.R.T.T.T.R.T.T.T.q.q.q.q.q.q.q.q.(.(.(.(.(.~.!.(.^.(.(.^.^._.+.R s H.H.H.E.E.(.^._.{ } r Q ~ / / / / / / / / / / / / ",
"/ / / / / / / / / / / / Q y x._.~.~.!.~.!.E.W d m.C.C.2.<.`.(.(.(.(.^.).^.W.E.Q.W.W.R.q.q.q.8.8.q.T.T.R.T.T.R.T.T.T.T.T.T.q.q.q.6.7.7.(.(.(.(.(.(.(.(.(.(.^.(.^._.R +.} u r H.H.E.^.^.^._.} o Q Q ! ( / / / / / / / / / / / ",
"/ / / / / / / / / / / / / e x.c.).~.~.~.&.&.&.P s C.Z.K.5.,.`.(.(.^./.^.^.^.^.^.W.W.R.R.T.G G H H H ' _ Y Y Y Y Y Y H L F T.T.m E.W.~.(.^.(.(.(.(.(.(.(.(.(.`.`.1.;.+.p F.b.W L ^.^.^._.{ R o ! Q ^ ( / / ) / / / / / / / / ",
"/ / / / / / / / / / / / / Q r n.n._.&.&._._._.R P s Z.Z.F.K.`./.(.(.^.(./.^.Q.Q.Q.Q.W.Q.R.D )./.)././._./././.W.^.~.^.~.^.m M W.W.~.~.(.(.).).(.(.(.(.(.(.`.>.;.1.;.a F.F.L.I.T.C P _.2.{ o ! ! ! ^ / ( ( ^ / / / / / / / / ",
"/ / / / / / / / / / / / / / Q r n.P ]._.^.^.!._.`._.s C.G.G.G.'.'.(.(.(.^./.^.^.^.W.W.Q.w././././.)././.^.^.~.^.~.^.Q.~.^.~._.U ~.^.(.~.(.^.(.(.(.(.(.`.`.2.2.>.;.p F.L.L.T.T.L.T.`.a d.o ! Q Q ( / / ( ( ^ / / / / / / / / ",
"/ / / / / / / / / / / / / ) ) r C.C D._.^.!.!.^.E.!.E.c c K.G.K.M.'.'.^.^.^.Q.^.Q.^.^.Q.w./.^.^.)./.^.^.Q./.W.~.^.W.W.^.~.~.`.I ^.^.^.~.^.(.^.(.).'.`.2.2.2.;.p x R.L.E.E.E.Y.T.(.R a a.o ! ! ^ ( / / ^ ^ / / / / / / / / / ",
"/ / / / / / / / / / / / / / ) ! e R D.C._.^.^.^.!.E.~.E.^.s G.K.M.M.M.'.'.'.^.^.^.^.^.] _.^.^.Q.^.^.^.^./.Q.^.^.^.^.^.~.^.~.~._.I ~.^.(.(.(.'.'.`.a.2.2.2.;.j Y.T.E.E.R.R.R.R.~.R R a e Q n ( ^ ^ / / / / / / / / / / / / / ",
"/ / / / / / / / / / / / / / ^ ( ! r D.C.C._.~.(.E.E.~.(.~.(.d d M.M.M.M.b.l.'.'.]././.[ '.^.Q./.Q././.^.^.^.^.^.^.~.Q.^.Q.W.^.'._ W.~.'.'.'.,.<.2.2.2.,.a g L.T.E.E.E.R.R.R.^.I R R o Q Q / / / / / / / / / / / / / / / / / ",
"/ / / / / / / / / / / / / ) ( ^ ( ! a C.C.M._._.(.(.(.(.(.(._._.g g b.M.v.l.l.q.q.].'.[ _.^././././././.F.^.^.Q.F.^.^.~.^.^.^._._ `.'.q.<.q.<.,.2.2.j j L.T.I.L.R.R.R.R././.R R { a Q Q / / / / / / / / / / / / / / / / / / ",
"/ / / / / / / / / / / / / ^ ( ( ^ ( Q r M.C.M.D.).^.(.(.(.(._._.8.).d r N.l.z.q.q.q.0.Y `./././././././.'.F.F.F.'.~./.^.^.^.W.'.' K 6.6.q.6.<.,.z z ~.P /.L.L.E.R.R.R.W.} } { R o Q Q / / / / / / / / / / / / / / / / / / / ",
"/ / / / / / / / / / / / / / ^ ( ^ ^ / Q o C.C.M.C._._.(._._.).9./.^.~.~.r y u q.q.7.0.Y `./.)./././././.w.'.'.'.z././././.^.^.'.' ' 6.q.6.r e e ^.)./.).k./.R.R.R././.%.} R R o Q Q / / / / / / / / / / / / / / / / / / / / ",
"/ / / / / / / / / / / / / / / / / / / / Q r r m.C.C.m.`.`.`.0.(.~.~.~.W.!.W.T.y t t t Y '././.`././././.'.w.W *.'././././.^.^.'.U r r r r E.E.R.^./.(.^.(.b.R.).(.1.;.;.| o o Q Q / / / / / / / / / / / / / / / / / / / / / ",
"/ / / / / / / / / / / / / / / / / / / / / Q Q e C.m.Z.m.m.P '.~.~.~.~.~.W.E.T.Y.T.R.I.Y './.`././._././.H '.`.`.*././././././.'._ l.k.Q.W.W.R.R./.^.^.^.^.`._.s.;.;.;.;.o Q Q / / / / / / / / / / / / / / / / / / / / / / / ",
"/ / / / / / / / / / / / / / / / / / / / / / / Q e e m.m.m.P Y.`.`.`.~.~.W.E.E.T.R.I.U.H './._._._._._._.'./.)./.'./././././.^.'.U k.l.~.W.W.^.^.^.^.`.`._.} z s.;.O.o o Q / / / / / / / / / / / / / / / / / / / / / / / / / ",
"/ / / / / / / / / / / / / / / / / / / / / / / / Q Q e r n.C Y.n.n.n.`.`.'.'.E.I.I.I.L.D [.`._./._.`././._.).)././././././././.].K l.h.E.W.W._.`._.`.@.+.} R z s.o o Q Q / / / / / / / / / / / / / / / / / / / / / / / / / / ",
"/ / / / / / / / / / / / / / / / / / / / / / / / / / Q Q e e L.n.c.n.x.x.f.s.`._.`._._.G ].[.[.].[.].'.'._.'._.'._.`.`.`.`.[.`.[.F F.l._._.'.-.-.=.@.| +.{ { o o Q Q / / / / / / / / / / / / / / / / / / / / / / / / / / / / ",
"/ / / / / / / / / / / / / / / / / / / / / / / / / / / / Q Q e e c.n.x.x.x.s.s.g.p.>.#.y J.J.L.m.M.C.M.M.M.m.m.n.m.c.l.H.D.H.H.S.p F F 6.-.-.-.-.=.@.@.+.o o Q Q / / / / / / / / / / / / / / / / / / / / / / / / / / / / / / ",
"/ / / / / / / / / / / / / / / / / / / / / / / / / / / / / / Q Q e e x.f.g.s.a.a.p.>.#.y J.J.m.m.m.M.m.b.m.n.m.N.v.g.x.x.x.g.S.S.o B V -.-.=.-.=.@.` o o Q ! ) / / / / / / / / / / / / / / / / / / / / / / / / / / / / / / / ",
"/ / / / / / / / / / / / / / / / / / / / / / / / / / / / / / / / Q Q e e e e s.p.4.>.#.r J.m.m.m.m.n.n.n.c.c.c.c.g.c.g.g.g.x.g.S.o B F -.-.-.o o o o Q Q / / ) ( ( / / / ) ) / / / / / / / / / / / / / / / / / / / / / / / / ",
"/ / / / / / / / / / / / / / / / / / / / / / / / / / / / / / / / / / Q Q Q Q e e e e e e H.m.m.m.c.g.g.s.s.s.j.x.x.x.x.g.g.g.s.S.o o o o o o Q Q Q Q / / / / ^ ( ( / / ( ( / / / / / / / / / / / / / / / / / / / / / / / / / ",
"/ / / / / / / / / / / / / / / / / / / / / / / / / / / / / / / / / / / / / / Q Q Q Q Q e S.m.m.#.=.>.p.g.a.s.s.s.g.g.s.g.g.s.p.Z.o Q Q Q Q Q / / / / / / / / / ^ ^ / ( ( ( / / / / / / / / / / / / / / / / / / / / / / / / / ",
"/ / / / / / / / / / / / / / / / / / / / / / / / / / / / / / / / / / / / / / / / / / / e S.>.$.-.-.-.s.p.s.s.p.s.a.s.p.4.p.y.p.Z.o Q Q / / / / / / / / / / / / / / / ( ( ^ / / / / / / / / / / / / / / / / / / / / / / / / / ",
"/ / / / / / / / / / / / / / / / / / / / / / / / / / / / / / / / / / / / / / / / / / / Q o o o r o o o o o o o o o o o o o o o o Q Q / / / / / / / / / / / / / / / / ^ ^ / / / / / / / / / / / / / / / / / / / / / / / / / / ",
"/ / / / / / / / / / / / / / / / / / / / / / / / / / / / / / / / / / / / / / / / / / / / Q Q Q Q Q Q Q Q Q Q Q Q Q Q Q Q Q Q Q Q Q / / / / / / / / / / / / / / / / / / / / / / / / / / / / / / / / / / / / / / / / / / / / / "
};
