/* XPM */
static char *Smoke_1[] = {
/* columns rows colors chars-per-pixel */
"110 73 183 2 ",
"   c #4F2913",
".  c #512B14",
"X  c #5A361D",
"o  c #7D3515",
"O  c #5C3A23",
"+  c #5F3F28",
"@  c #56493F",
"#  c #55473E",
"$  c #5E4029",
"%  c #61412A",
"&  c #654934",
"*  c #5A4E43",
"=  c #574A40",
"-  c #5C5146",
";  c #5D5349",
":  c #62594B",
">  c #676159",
",  c #6A635B",
"<  c #6F695A",
"1  c #736C5E",
"2  c #70675B",
"3  c #6E6960",
"4  c #726C63",
"5  c #736F68",
"6  c #777166",
"7  c #797266",
"8  c #7A746A",
"9  c #7E796D",
"0  c #767168",
"q  c #797770",
"w  c #7A7870",
"e  c #823716",
"r  c #843917",
"t  c #883B17",
"y  c #893C19",
"u  c #863C1C",
"i  c #8C421E",
"p  c #8D4927",
"a  c #8D4C2B",
"s  c #894523",
"d  c #924521",
"f  c #974C27",
"g  c #94512C",
"h  c #99532D",
"j  c #945937",
"k  c #9D5A35",
"l  c #935B3B",
"z  c #955633",
"x  c #8E5231",
"c  c #A1522A",
"v  c #A15D36",
"b  c #A15E39",
"n  c #817F20",
"m  c #9C613B",
"M  c #A2633B",
"N  c #9D6642",
"B  c #9C6A46",
"V  c #9F7149",
"C  c #9A7A5D",
"Z  c #A56A43",
"A  c #A96E43",
"S  c #A66B47",
"D  c #AA7046",
"F  c #A4714A",
"G  c #AB744B",
"H  c #AF794E",
"J  c #A77047",
"K  c #A97750",
"L  c #AE7C53",
"P  c #A2765B",
"I  c #A57A5D",
"U  c #A87B57",
"Y  c #B27F56",
"T  c #807B6F",
"R  c #9C7E63",
"E  c #837E72",
"W  c #A97F62",
"Q  c #8F8824",
"!  c #948D29",
"~  c #99912E",
"^  c #ACB828",
"/  c #C1C52D",
"(  c #C9CD35",
")  c #D1D43D",
"_  c #AE8259",
"`  c #AF8A5E",
"'  c #B38256",
"]  c #B28359",
"[  c #B4885C",
"{  c #9D8265",
"}  c #9E8469",
"|  c #9F886C",
" . c #868175",
".. c #888477",
"X. c #8A867A",
"o. c #88857D",
"O. c #9F8C73",
"+. c #A18564",
"@. c #A68C6A",
"#. c #AA8C6A",
"$. c #A68667",
"%. c #B38B69",
"&. c #B48D65",
"*. c #A79068",
"=. c #AB926C",
"-. c #A28C73",
";. c #AA8D70",
":. c #A28E79",
">. c #B18E71",
",. c #A69176",
"<. c #AB9474",
"1. c #AD9977",
"2. c #A3907A",
"3. c #AA957B",
"4. c #AE9A7C",
"5. c #A79A7F",
"6. c #B29276",
"7. c #B39C75",
"8. c #B39E7C",
"9. c #B99B7C",
"0. c #B69777",
"q. c #B59068",
"w. c #B0A079",
"e. c #C29F75",
"r. c #918D82",
"t. c #949187",
"y. c #99968D",
"u. c #9C998E",
"i. c #959289",
"p. c #9B9890",
"a. c #A69983",
"s. c #AB9C84",
"d. c #AB9E89",
"f. c #B49E84",
"g. c #B89F88",
"h. c #AB9F90",
"j. c #AEA28D",
"k. c #B4A284",
"l. c #B5A58A",
"z. c #BBA68A",
"x. c #B9A98D",
"c. c #BAA484",
"v. c #AFA391",
"b. c #B1A694",
"n. c #BAA690",
"m. c #B3A996",
"M. c #BCAD94",
"N. c #B2A798",
"B. c #B5AB9B",
"V. c #B9AF9B",
"C. c #BDB19A",
"Z. c #BEB196",
"A. c #B8AFA2",
"S. c #BDB5A3",
"D. c #BEB8A5",
"F. c #BFB6A9",
"G. c #BFB8AA",
"H. c #C2B49C",
"J. c #C3B89F",
"K. c #C3BAA6",
"L. c #C3BDAC",
"P. c #C1B6A3",
"I. c #C5BFB1",
"U. c #C4C0AF",
"Y. c #CAC1AD",
"T. c #DBC7A2",
"R. c #C6C3B3",
"E. c #CAC5B5",
"W. c #CCC7B9",
"Q. c #CECABC",
"!. c #D0CDBE",
"~. c #D2D0BF",
"^. c #CFCDC1",
"/. c #D1CEC1",
"(. c #D4D1C5",
"). c #D8D5C7",
"_. c #D6D3C9",
"`. c #D8D6CA",
"'. c #DAD8CE",
"]. c #DDDCD3",
"[. c #E0DED6",
"{. c #E1DFD8",
"}. c #E2E1DA",
/* pixels */
"/ / / / / / / / / / / / / / / / / / / / / / / / / / / / / / / / / / / / / / / / / / / / Y Y Y Y Y Y ' ' ' ' ' ' ' Y H H G G G / / / / / / / / / / / / / / / / / / / / / / / / / / / / / / / / / / / / / / / / / / / / / / / ",
"/ / / / / / / / / / / / / / / / / / / / / / / / / / / / / / / / / / / / / / / / / / / G _.Q.Q.!.W.W.(._.).(.(.(.(.(.(.).).W.W.D Q Q / / / / / / / / / / / / / / / / / / / / / / / / / / / / / / / / / / / / / / / / / / / / ",
"/ / / / / / / / / / / / / / / / / / / / / / / / / / / / / / / / / / / / / / / / / / / D _.!./.(.).(.(._.).(.(._.).(.(.(.(.~.W.W.G Q Q / / / / / / / / / / / / / / / / / / / / / / / / / / / / / / / / / / / / / / / / / / / ",
"/ / / / / / / / / / / / / / / / / / / / / / / / / / / / / / / / / / / / / / / / / / / D '.(._.(.(._.(.(.f.f.k.k.g.(.).(.).).(.W.G Q Q / / / / / / / / / / / / / / / / / / / / / / / / / / / / / / / / / / / / / / / / / / / ",
"/ / / / / / / / / / / / / / / / / / / / / / / / / / / / / / / / / / / / / / / / / / / A '.(.(.).(.).(.).[.[.].].k.).).).(.(.).'.G Q Q / / / / / / / / / / / / / / / / / / / / / / / / / / / / / / / / / / / / / / / / / / / ",
"/ / / / / / / / / / / / / / / / / / / / / / / / / / / / / / / / / / / / / / k k k v Z A '.(.(.(._.(._.).f.g.f.g.f.).).).).(.).].G r e k k k / / / / / / / / / / / / / / / / / / / / / / / / / / / / / / / / / / / / / / / / ",
"/ / / / w.w./ / / / / / / / / / / / / / / / / / / / / / / / / / / / / S D S W.Q.W.!.!.D '.).(.(.).).).+ + % % + O % ).).).~.).].G x.l.Q.W.W.k k k / / / / / / / / / / / / / / / / / / / / / / / / / / / / / / / w.w./ / / / ",
"/ / / w.T.T.w./ / / / w.w.w./ / / / / / / / / / / / / / / / / / G D G /./.Q.Q.Q.!.!.!.G '.(.(.).(._.X 7 7 7 7 7 7 7 X X X ).).].H x.x.Q.Q.Q.^.^./.k M M / / / / ) / / / / / / / / / / / / / / / w.w.w./ / / / w.T.T.w./ / / ",
"/ / / T.T.T.w./ / / / 4.w./ / / / / / / / / / / / / / / / / / L /.(.(././.!.v v v v v A '.(.).).).O 7 7 7 7 7 7 7  ...E ..X X X H m m M v v /.(./.~.~.(.M / / / ( ( / / / / / / / / / / / / / / / w.w./ / / / w.T.T.T./ / / ",
"/ / / w.w./ / / / / / / / / / / / / / / / / / / / / / / L Y L ^./././.(.v v /.).).).).A ).$ $ O O 7 7 9 7 T 7 E .. .E  . . .y.y.X (.(.(.(.(.h M (.(.(.(.M / / / / / / / / / / / / / / / / / / / / / / / / / / / / w.w./ / / ",
"/ / / / / / / / / / / / w./ / / / / / / / / / / / / Z S (./.[.1./._.k k !.~.~.~.!.).).A X 2 1 1 1 1 8 7 7 7 E X..... ...E y.7 7 6 X (.(.(.(.(._.M D ~.(.' M M M M / / / / / / / / / / / / / / / / w./ / / / / / / / / / / / ",
"/ / / / / / / / / / / / / / / / / / / / / / / / S S `.`.(.(./.].k k I.I.!.~.~.~.~./.).O < 1 1 1 1 4 7 7 ..X...X. . ... ...i.7 7 0 6 X (.`.(._.(.(.(.D G }.E.Y.E.Y.M M M / / / / / / / / / / / / / / / / / / / / / / / / / / ",
"/ / / / / / / / / / / / / / / / / / / / / / / k `.`.^._.(./.k k /.I.Y.I.(.!.~.~.!.~.& X. .1 1 1 1 5 X...X.X...E X.E ....y.E E 7 6 6 6 X (.(.(._.(.`.`.(.m h U.Y.Y.E.!.W.M / / / / / / / / / / / / / / / / / / / / / / / / / ",
"/ / / / / / / / / / / / / / / / / / / / / S l '._._._././.k !.(././.~.L.(.(.(.~.!.~.& X. . .T  ...a.X...E ....X.X...X.E y.E E 7 6 6 6 O ^.(.(._.`.(.(._.(._.t Q.!.Q.Q.Q.W.g g / / / / / / / / / / / / / / / / / / / / / / / ",
"w.w./ / / / / / / / / / / / / / / / / / k '.'._._._._.z k (./.(././.!.(.~.~.~.(.~.(.& X.E E  . . .p.X.X.X.X.X.X.X.X.X.y.E E E E 6 6 0 O ^.(._.(.(._._.(._._._.u t W.W.W.(.!.!.i / / / / / / / / / / / / / / / / / / / / w.w.",
"w.w./ / / / / / / / / / / / / / / / / / g '._.`._._.k /.!.(./.~.!./.(.(.(.(.).(.).'.& X. . . . . .a.X.X.X.X.X.X.E X...y.E E E E 6 6 0 O ^.^./.(.(._.E.E./._./.(.(.t (.(.(.(.(.y / / / / / / / / / / / / / / / / / / / / w.w.",
"/ / / / / / / / / / / / / / / / / / Z Z '.P P _._.k ^.(././.!.!.~.!.(.(.(.(.(.'.'.j.& X. . . . .y.o.o.X.X.X.X.X.X.X.X.p.E E E E E 6 6 O ].!.^.^.Q.W.E.E.^.!./._.(./.t /./.P P ].d f / / / / / / / / / / / / / / / / / / / / ",
"/ / / / / / / / / / / / / / / / ^ Z '.'./.].].P k ^.(.^.^.(.(.(.!.(.(.(.(.].'.d.d.j.$ X.T  .T t.7 8 7 7 y.y.y.y.y.p.y.E E E E E  .6 6 X R.].].^./.Q.^./.^.^.(././.^.^.t P [.[./.`.'.f / / / / / / / / / / / / / / / / / / / ",
"/ / / / / / / / / / / / / / / / S './.!./././.k ^./.^.^.(.!./.(.(.(.(.'.`.,.2.a.d.d.$ X. . . .t.T T E r.r.r.r.r.r.r.r.E E E E T 9  .0 O R.D.F.].]./.^.^.^.Q.^.^.^.^.W.(.e /./.(./.(.[.d / / / / / / / / / / / / / / / / / / ",
"/ / / / / / / / / / / / / / / Z '././.!.!./.z _././.(._.(.(.(.(.(.(.`.-.:.:.,.a.s.o $ X.E  .u. .T T r.r.r.r.r.r.r.r.r.E E E E T 9 w 6 O R.G.G.S.G.[.Q.^.^.^.Q.W.Q.^./.W./.y /.(.(./.I.`.d / / / / / / / / / / / / / / / / / ",
"/ / / / / / / / / / / / / / / Z _.W././.!.k _._././._._._._.(.(.).'.-.-.O.@.O.o o =.+ X. .u.r.X.r.r.r.r.r.r.r.r.r.r.r.T E E 9 9 9 9  .O N L.G.F.S.B.].^.^.^.^.^.W.^.^.W.I./.y /././.^.`.c / / / / / / / / / / / / / / / / / ",
"/ / / / / / / / / / / / / / f _.Q.W.W.W.z _./._._._._.(.(._./._.'.{ -.@.-.o o ,.#.H.% X.u.r.r.r.r.r.r.r.r.2 2 2 u.y.y.y.E E T 9 9 9 9 O W.j k D.G.B.A.]._._.W.^.^.W.W./.^.^.(.y /.^.Q.^.(.t / / / / / / / / / / / / / / / / ",
"/ / / / / / / / / / / / / / h (.W.W.W.W.z _._._._.(./.[.`._.].'.R R R } o 4.s.C.Z.Z.O y.X.t.r.r.r.r.r.t.2 < < : < < 4 7 i.y.y.7 9 9 9 O U.E.W.g G.B.B.N.'._._._.^.I.^.W.(././.y Q.Q.Q.^.).t / / / / / / / / / / / / / / / / ",
"/ / / / / / / / / / / / / e /.W.W.Q.W.k _._.(._._._.'._.].[.'.R R R o o 5.C.C.C.Z.H.+ X.r.r.r.r.r.y.y.y.2 < : : , < 4 4 4 4 4 y.y.9 9 X U.K.L.E.j j N.B.N.]._._._.^.(.(.(./.(.(.A Q.Q.!.!.Q.y / / / / / / / / / / / / / / / ",
"/ / / / / / / / / Z Z m Z Z Z Z Z Z Z Z Z P W W ].].].].].].R R R o *.<.C.C.C.Z.C.H.O r.r.r.p.p.p., 2 2 8 8 : : , < 4 4 4 4 4 4 4 p.p.X G.K.L.L.Q.E.z N.g.s.]._.`._././.W P W I A A A A A A A A Z Z D M / / / / / / / / / / ",
"/ / / / / / / / Z ].`.`.`.Q.Q.^.^.Q.I.I.R.W.I.R.C P s.;.;.].C C o @.=.C.C.C.Z.C.C.C.O p.p.p.4 4 4 3 < , , 2 8 : : , 4 4 4 4 4 4 4 4 o.  D.U.K.R.R.U.E.f f.3.].W P W P W (.(._._.(.!.!.(././.(./.~.(.~.}.A / / / / / / / / / ",
"/ / / / / / / Z ].'.`.`././.^.!.^./.^.I.W.R.^.Q.^.^.[.#.;.$.C o @.@.S.S.S.S.C.Z.C.W.. r.4 4 4 4 4 , , 2 2 = , w : , , 4 4 4 4 1 4 3 r.. U.D.U.R.R.R.U.W.e 4.f.]._.`.`.`./.^.^.^.!.(.!.(.).!././.(.~.(.}.A / / / / / / / / / ",
"/ / / / / / / G ].^.^.^.Q././.^././././.^.^.Q.^.W./.I.[.].$.o =.*.F.C.D.S.C.C.C.C.$.. X.4 4 4 , 2 , , 2 , 4 , - : = , 2 4 4 , , 3 3 q . K.U.D.K.R.R.R.R.W.r 6.[.`.`.^.^.^.^././.!.!.).!.!.).).!.~.(.~.].A Q Q / / / / / / / ",
"/ / / / / / / G '.^.^././.!.^./.Q./.Q.^.^.Q.^.^.^.^.Q.W.[.W o =.D.S.D.C.D.D.D.S.F.{ . X.4 4 4 2 , , , < , - , - 0 = , , 4 4 , , , 3 w . Q.U.L.K.K.R.R.R.Q.y f.{.).^.!.^.^.^./.(.!.(.!.).(.~.(.~.(.!.~.[.A Q Q Q / / / / / / ",
"/ / / / / / / J ]./././.!././.^.Q./././.Q./.^.^./.W.Q.'.h.e @.#.C.D.D.4.w.D.D.D.K.+.. X.4 4 4 , , < , , < * ; - , 0 2 , , , , , , , q   <.L.G.U.I.R.R.R.I.I.e d.[.!.!.!.^./.(.Q.(.(.(.~.~.(.~.(.~.(.(.[.A Q Q Q / / / / / / ",
"/ / / / / / / J ]./.(.(././.n.n.g./././././.^./.^./.Q.[.h.o #.=.K.D.D.R.R.1.D.L.K.3.. w , 4 4 , , , 3 , , 4 4 - , * , , , , , , , , 9 . =.G.U.U.L.R.G.R.I.I.e g.[.^.(.(.!.!.(.).!.!.~.g.H.e.~.(.(.~.(.[.D Q Q Q / / / / / / ",
"/ / / / / / w.w.]././././.1.].'.[.6./././././.^./.Q./.[.o $.@.G.K.D.D.D.S.Q.{ G.L.3.. q , , , , , , , , , , , 4 , 4 , < , , , , , , q . k.U.G.L.L.L.L.L.L.L.L.t [.Q.I.(.!.(.(.(.).(.).g.`.).(.g.(.(.).[.D Q 7.w./ / / / / / ",
"/ / / / / / 4.G ].(.(./.(.6./.>./.0./.(._././././.'.'.].r #.#.D.L.D.D.D.D.D.Q.{ +.3.. q , , , , , , , , , , , , , , > , , , , 3 , > w   l.L.K.U.L.L.U.L.I.L.L.e ].^./././._.).).).).).9.(.9.9.9.).).).[.M Q Q w./ / / / / / ",
"/ / / / / / / D ].(.(.(.(.$.(.'.(.$.(.(././._././.'.`.].e $.*.L.L.L.D.D.U.L.^.w.8.4.. q , , , , , , , , , > , = = * 3 > , , > > , , q . k.L.L.U.L.L.L.L.L.I.I.e ]./././././.)./.(.).(.%.(.].'.$.).).).[.H Q Q Q / / / / / / ",
"/ / / / / / / A ].(./.(._.'.I I W '._.(._._./._._./.`.].e $.#.L.L.U.L.L.U.U.R.^.f.s.  q , , > , , , , , > 3 > 5 5 * 3 , , , > , > 3 w . U.U.U.U.I.L.L.I.L.L.I.r ]./.(.(.(.(./._.(.(.`.K F S ).].`.).).}.M ! Q Q / / / / / / ",
"/ / / / / / / S {._._._._._.].].]._.(._._./._./.(._.'.].r *.@.R.U.L.U.U.U.U.U.^.j.l.  q , , , , , > , , > = , = 3 * > > > , , > > 3 q   U.U.U.G.G.L.I.L.I.L.L.r ]._.(.(.(.(.).(.(.(.`.'.].'.`.).`.`.`.}.M ! Q Q / / / / / / ",
"/ / / / / / / S ].'._._.(.(.).`._._._./.(.).(._._._.(.].r #.$.L.U.U.U.U.U.U.U.U.^.l.  q > , > > > , , , , = > 3 > 4 , , > > , > 3 3 w . R.U.U.U.I.L.L.L.I.L.L.r [.(.(.(.(.(._.(.(.'.`.`.'.'.`.`.`.`.`.[.H Q Q Q / / / / / / ",
"/ / / / / / / S {.'.'._.`._.).)._._._._._.(.).(./._.(.].r #.*.L.U.G.U.U.U.U.R.U.R.l.  q , > , > , > > > > = = = , > > , , > 3 3 3 3 w   R.U.U.U.L.L.L.K.S.S.S.r [./.(.(.(.(.(.(.`.`.'.`.).'.`.).`.`.`.[.M Q Q Q / / / / / / ",
"/ / / / / / / Z {.'.'._.`.`.).)._._._._.(.`._._._._._.].r @.*.U.I.I.R.Q.W.E.U.R.R.l.  q 3 > > > > > > > > 5 5 3 > > > > > > > 3 3 0 @ . R.R.U.U.G.U.L.L.S.S.C.r [.^.(._._.`.`.`.`.`.'.).'.'.).Y.`.).`.[.J Q Q Q / / / / / / ",
"/ / / / / / / b {.'.'.'.`.).).(._._.)._._._.(._./.B j j p r @.R.R.I.W.E.Q.W.E.U.R.m.  q 3 , > > > , 3 > > > > > > , , > , > > 3 0 @ ; . R.R.U.U.L.G.S.S.S.S.r C P P P _.`.`.`.`.`.'.).'.).Y.Y.Y.Y.`.].[.M Q Q Q / / / / / / ",
"/ / / / / / / k {.}.}.{.}.].}.].[.[.[.].I +.$.#.j.].'.'.'.o =.W.W.Q.W.W.Q.E.Q.R.R.M.  q 3 3 > > > , , > > , , > > 3 3 3 3 > > 3 0 @ ;   R.R.R.R.L.K.S.S.P.L.e '._._._.I W N >.>.>.6.{.{.[.[.[.}.[.[.[.[.F Q Q Q / / / / / / ",
"/ / / / / / / r G.G.I.G.N.N.N.m.m.B.N._ [.]._.`.'.^.!.!.!.^.j R.W.W.W.Q.Q.E.R.R.R.M.  q 3 3 3 3 3 3 > > , > > , > 3 3 3 3 > > 4 @ ; ;   R.R.R.R.R.R.R.S.S.l Q.E.W.W.I.].`.].>.>.>.L.h.h.j.b.v.N.m.m.v.L.r Q Q Q / / / / / / ",
"/ / / / / / / t G.L.b.b.N.b.b.m.b.b.b.G B ]./._.^.(.^.^.!.~.!.B R.Q.Q.W.W.Q.R.R.R.M.  q 3 3 3 3 3 3 > > > > > > > 3 3 3 3 3 5 = ; ;   C.R.R.R.R.R.R.R.R.b W.E.Q.I.Q.Q.Q.W.W.].N I.s.d.g.j.v.b.b.m.m.v.L.r Q Q Q / / / / / / ",
"/ / / / / / / r K.v.j.b.3.&.&.` &.L G Z Z {././.(.^.(.^.^.~.!.'.C R.Q.W.Q.Q.R.R.R.M.B.                        .                     V.V.R.R.R.R.R.R.R.M K.W.Q.Q.!.Q.I.Q.W.W.'.F &.&.[ $.` ` ` $.v.v.m.D.r Q Q Q / / / / / / ",
"/ / / / / / / r L.h.h.t [./.!.!.W.K.K.P.s a.[./.^.(.^.(.(.^./._.'.K E.W.W.Q.Q.U.R.m.V.V.l.l.l.k.k.k.k.k.k.c.k.k.8.8.8.8.3.6.1.1.f.C.C.C.R.R.R.R.R.R.M Z.G.K.^.(.(.I.I.Q.I.{.N.e K.!.Q._._._._.].u v.m.G.r Q Q Q / / / / / / ",
"/ / / / / / / r A.d.d.t `./.Q.Q.E.W.K.K.a #.[./.(.^.(.^./._././.(.'.K E.W.Q.Q.E.R.~./.V.C.C.C.C.C.C.C.C.C.A.H.C.H.C.V.H.V.V.C.M.C.B.M.^.R.E.R.E.R.K z.Z._.'./.^.(._./.^.I.[.h.e K.Q.Q.^._._.(.'.r v.v.A.o Q Q / / / / / / / ",
"/ / / / / / / Q e t t e 2.[.!.Q.!.E.E.E.E.p #.'.(.(.(.(.(././._.(.].'.U K W.Q.W.Q.R.R././.^./.^.^./././.(.(.(.(././.C.C.C.C././.(.^.^.R.R.W.E.m Z M.z.`.(.^././.(./././.[.R e L.!.Q./._./._.'.h.r r r r Q Q / / / / / / / / ",
"/ / / / / / / / Q Q Q e :.`.!.!.!.Q.W.E.E.a ;.3.'.(.(.(.(._.(.(.(.(.'.(./.U W.Q.Q.E.R.R.R.E.E.E.E.E.W.E.E.E.E.E.W.E././.C.C.E.E.R.R.W.W.R.R.z /./.(././.^.(._.(./././.].W W u L.Q.Q.(././._.'.v.r Q Q Q Q / / / / / / / / / ",
"/ / / / / / / / / / / Q r -.].Q.^.Q.Q.^.I.W.g ;.N.].(.(.(.`.(.(.(.(.(.(.(./.M A W.Q.Q.W.E.E.E.W.W.E.E.W.E.W.E.E.W.E.E.E./.^.E.E.E.E.E.E.M Z _._././.(.(.(.(.(././.(.].R $.y K.I.Q.Q.(.(.~.~.{ i Q Q Q / / / / / / / / / / / ",
"/ / / / / / / / / / / / r :.d.].Q./.^.Q.W.W.E.c B.A.].].[.(._._._.`.`.(.(.(.(.(.v v v Q.E.I.E.W.W.W.W.E.E.W.W.E.E.E.E.E.E.E.E.E.W.b M b _.(._./._./.(._._._._._._.'.} $.d K.K.K.Q.~.(.(.'.{ { o Q ~ / / / / / / / / / / / / ",
"/ / / / / / / / / / / / Q u v.'././.Q.^.Q.W.W h B.V.A.1.6.]._._.(.`.`.(./.(.!.~.!.!.W.v b E.W.I.E.E.E.E.E.E.E.E.W.E.E.E.W.E.R.R.f Q.(._._._._._._._._._.(._._._.'.-.+.R s r K.K.Q.(.(.(.].+.i Q Q ! ( / / / / / / / / / / / ",
"/ / / / / / / / / / / / / r h.b._./././.%.%.%.P d A.A.F.<.<.]._._.(.(.(.(.~.(.~.!.!.W.W.W.G D H L H ' _ Y Y Y Y Y Y H Y F E.E.N Q.Q.(._._._._._._._._._._._.].].:.R +.i H.H.I U (.(.(.`.{ { o ! Q ^ ( / / ) / / / / / / / / ",
"/ / / / / / / / / / / / / Q r N.N.'.%.%.].'.'.R P d A.S.P.J.].`._._._.(.).(.!.(.!.!.!.!.W.D `.).(.).`.).).`.~.(.(.^.(./.^.M M W.!././.)._._._.`._._._._._.[.,.,.-.;.x H.H.L.E.E.C C '.1.` o Q ! ! ^ / ( ( ^ / / / / / / / / ",
"/ / / / / / / / / / / / / / Q r N.P {.].(.(.^.'.].].d S.J.J.H.[.].`._._.(.).(.(././.~.~.e.).).`.).'.`.).(.).(.(.(.(.~./.(.^.'.I /.(.(.(._._._._._._._.[.[.-.,.-.-.a H.L.Y.E.I.E.E.].a w.o ! n ! ( / / ( ( ^ / / / / / / / / ",
"/ / / / / / / / / / / / / ) ) r A.C G.'.^.(.^.(.Q.Q.^.c c J.J.P.S.].].`.(.(.~.(.(.~.(.!.e.).(.~.).).).~.~.(.~.~./.(.(.~.!.(.].I (.(.(.^._._._._._.].{.3.3.,.2.p k W.I.Q.!.W.E.E._.R a s.i ! ! ^ ( / / ^ ^ / / / / / / / / / ",
"/ / / / / / / / / / / / / / ) ! r R G.A.'.^.(.(.Q.^.Q.Q.(.d J.P.V.V.V.].[.[.(.(.(.(.(.[ ].(.(.(.(.(.(.(.(.(.(.(.(.!.(.!.(./.(.'.I (./._._._.[.].].s.3.2.3.;.x E.E.Q.Q.W.W.W.W./.{ { a e ~ & ( ^ ^ / / / / / / / / / / / / / ",
"/ / / / / / / / / / / / / / ^ ( ! r G.A.B.]./._.Q.Q./._./.).f f V.V.V.M.M.x.].[.}.(.).[ ].(.~.).~.).).).).(.(.(.(.(.(.!.(.~./.[._ ~.~.}.].}.1.1.3.3.,.3.p g E.I.W.Q.W.W.W.W.(.W { R o Q Q / / / / / / / / / / / / / / / / / ",
"/ / / / / / / / / / / / / ) ( ^ ( ! a A.A.V.'.'./._._._._.).'.'.f h V.V.M.x.l.k.9.{.[.[ ].).).).).).).).H.).(.(.H./.(./.(.(.~.]._ '.].w.w.1.<.<.3.,.j z E.E.Y.E.W.Q.W.W.).).R R R a Q Q / / / / / / / / / / / / / / / / / / ",
"/ / / / / / / / / / / / / ^ ( ( ^ ( Q r V.A.V.G.'._._._._._.'.'.9.`.f t M.x.c.k.w.w.q.Y '.).).).).).).).'.H.H.H.[./.).(.(././.[._ _ 7.w.7.7.<.<.m l /.P /.E.I.W.Q.W.W.Q.} } R R o Q Q / / / / / / / / / / / / / / / / / / / ",
"/ / / / / / / / / / / / / / ^ ( ^ ^ / Q o A.A.V.A.'.'._.'.'.'.0.)./././.r t t w.w.w.>.Y ].).).).).).).).e.].[.[.c.).).).).)./.[._ H 7.7.7.r r r (._._._.z.).W.W.Y.).).;.} R R o Q Q / / / / / / / / / / / / / / / / / / / / ",
"/ / / / / / / / / / / / / / / / / / / / Q e e A.A.A.B.[.].].q._././././.Q.!.E.t y y y Y }.).'.'.).).).`.[.e.&.%.[.).).).).).(.[._ r o r r Q.W.Q.(.`.(.(._.M.W._._.:.-.-.| o o Q Q / / / / / / / / / / / / / / / / / / / / / ",
"/ / / / / / / / / / / / / / / / / / / / / Q Q e B.A.B.V.B.P [././././.!.!.Q.R.E.Y.W.Y.Y }.).).'.`.'.).).H [.`.'.&.).).).).).(.[._ x.l.(.!.~.W.E.(._.(.(./.].].f.-.-.-.-.o Q Q / / / / / / / / / / / / / / / / / / / / / / / ",
"/ / / / / / / / / / / / / / / / / / / / / / / Q e e B.B.B.P R.].].]././.!.Q.Q.E.W.Y.I.H }.).'.'.).'.'.'.[.).`.).[.).).).).).).{._ k.x.!.!.!.(.(.(.(.].].'.} l h.-.O.o o Q / / / / / / / / / / / / / / / / / / / / / / / / / ",
"/ / / / / / / / / / / / / / / / / / / / / / / / Q Q r r N.C R.N.N.N.].].[.[.Q.Y.Y.T.I.H }.).'.).].'.).).`.`.`.`.).).).).).).(.{.H l.k.!.!.!.].'.].'.@.{ } R l d.o o Q Q / / / / / / / / / / / / / / / / / / / / / / / / / / ",
"/ / / / / / / / / / / / / / / / / / / / / / / / / / Q Q e e I.N.N.b.v.v.v.d.'.'.'.'.].G {.{.}.{.{.{.].[.'.].'.[.'.'.].].].}.}.].J H.Z.].'.].=.=.*.+.+.+.{ { o o Q Q / / / / / / / / / / / / / / / / / / / / / / / / / / / / ",
"/ / / / / / / / / / / / / / / / / / / / / / / / / / / / Q Q e e b.b.N.h.v.d.d.j.s.,.@.r L.L.I.A.V.V.V.V.V.B.B.B.V.b.b.K.G.L.G.F.p V F =.=.=.=.=.*.*.*.+.o o Q Q / / / / / / / / / / / / / / / / / / / / / / / / / / / / / / ",
"/ / / / / / / / / / / / / / / / / / / / / / / / / / / / / / Q Q e e b.h.d.d.d.s.5.,.@.u I.L.V.B.B.B.B.V.B.N.B.n.j.b.v.v.j.l.G.G.r B V =.=.=.=.*.+.*.o o Q ! ) / / / / / / / / / / / / / / / / / / / / / / / / / / / / / / / ",
"/ / / / / / / / / / / / / / / / / / / / / / / / / / / / / / / / Q Q e e e e d.a.5.,.@.r L.N.B.B.B.B.m.b.m.b.b.b.v.v.j.j.j.j.j.F.o B V =.=.*.o o o o Q Q / / ) ( / / / / ) ) / / / / / / / / / / / / / / / / / / / / / / / / ",
"/ / / / / / / / / / / / / / / / / / / / / / / / / / / / / / / / / / Q Q Q Q e e e e e e K.N.N.V.j.j.d.d.d.d.l.v.v.v.v.j.j.j.d.S.o o o o o o Q Q Q Q / / / / ^ ( ( / / ( ) / / / / / / / / / / / / / / / / / / / / / / / / / ",
"/ / / / / / / / / / / / / / / / / / / / / / / / / / / / / / / / / / / / / / Q Q Q Q Q e K.N.N.;.*.,.j.d.s.d.d.d.j.j.j.d.d.j.a.S.o Q Q Q Q Q / / / / / / / / / ^ ^ / ( ( ( / / / / / / / / / / / / / / / / / / / / / / / / / ",
"/ / / / / / / / / / / / / / / / / / / / / / / / / / / / / / / / / / / / / / / / / / / e F.3.@.=.,.@.j.d.a.d.a.d.d.d.a.a.a.a.a.S.o Q Q / / / / / / / / / / / / / / / ( ( ^ / / / / / / / / / / / / / / / / / / / / / / / / / ",
"/ / / / / / / / / / / / / / / / / / / / / / / / / / / / / / / / / / / / / / / / / / / Q o o r o r o o o o o o o o o o o o o o o Q Q / / / / / / / / / / / / / / / / ^ ^ / / / / / / / / / / / / / / / / / / / / / / / / / / ",
"/ / / / / / / / / / / / / / / / / / / / / / / / / / / / / / / / / / / / / / / / / / / / Q Q Q Q Q Q Q Q Q Q Q Q Q Q Q Q Q Q Q Q Q / / / / / / / / / / / / / / / / / / / / / / / / / / / / / / / / / / / / / / / / / / / / / "
};
