/* XPM */
static char *Smoke_12[] = {
/* columns rows colors chars-per-pixel */
"110 73 186 2 ",
"   c #4F2913",
".  c #512B14",
"X  c #5A361D",
"o  c #7D3515",
"O  c #5C3A23",
"+  c #5F3F28",
"@  c #56493F",
"#  c #55473E",
"$  c #5E4029",
"%  c #61412A",
"&  c #654934",
"*  c #5A4E43",
"=  c #574A40",
"-  c #5C5146",
";  c #5D5349",
":  c #62594B",
">  c #676159",
",  c #6A645B",
"<  c #6F695A",
"1  c #736C5E",
"2  c #70675B",
"3  c #6D6860",
"4  c #726C63",
"5  c #736F68",
"6  c #777166",
"7  c #797266",
"8  c #7A746A",
"9  c #7E796D",
"0  c #767168",
"q  c #7B7870",
"w  c #7A7770",
"e  c #823716",
"r  c #843917",
"t  c #883B17",
"y  c #893C19",
"u  c #863C1C",
"i  c #8C421E",
"p  c #8D4927",
"a  c #8D4C2B",
"s  c #894523",
"d  c #924521",
"f  c #974C27",
"g  c #94512C",
"h  c #99532D",
"j  c #945937",
"k  c #9D5A35",
"l  c #935B3B",
"z  c #955633",
"x  c #8E5231",
"c  c #A1522A",
"v  c #A15D36",
"b  c #A15E39",
"n  c #817F20",
"m  c #9C613B",
"M  c #A2633B",
"N  c #9D6642",
"B  c #9C6A46",
"V  c #9F7149",
"C  c #987A5C",
"Z  c #A56A43",
"A  c #A96E43",
"S  c #A66B47",
"D  c #AA7046",
"F  c #A4714A",
"G  c #AB744B",
"H  c #AF794E",
"J  c #A77047",
"K  c #A97750",
"L  c #AE7C53",
"P  c #A2765B",
"I  c #A57A5D",
"U  c #A87B57",
"Y  c #B27F56",
"T  c #807B6F",
"R  c #9C7E63",
"E  c #837E72",
"W  c #A97F62",
"Q  c #8F8824",
"!  c #948D29",
"~  c #99912E",
"^  c #ACB828",
"/  c #C1C52D",
"(  c #C9CD35",
")  c #D1D43D",
"_  c #AE8259",
"`  c #AF8A5E",
"'  c #B38256",
"]  c #B28359",
"[  c #B4885C",
"{  c #9D8265",
"}  c #9E8469",
"|  c #9F886C",
" . c #868175",
".. c #888477",
"X. c #8A867A",
"o. c #88857D",
"O. c #9F8C73",
"+. c #A18665",
"@. c #A68C6A",
"#. c #AA8C6A",
"$. c #A68667",
"%. c #B38B69",
"&. c #B48D65",
"*. c #A79068",
"=. c #AB926C",
"-. c #A28C73",
";. c #AA8D70",
":. c #A28E79",
">. c #B18E71",
",. c #A69176",
"<. c #AB9475",
"1. c #AD9977",
"2. c #A3907A",
"3. c #AA957B",
"4. c #AE9A7B",
"5. c #A79A7F",
"6. c #B29276",
"7. c #B39C75",
"8. c #B39E7C",
"9. c #B99B7C",
"0. c #B69777",
"q. c #B59068",
"w. c #B0A079",
"e. c #C29F75",
"r. c #918D82",
"t. c #949187",
"y. c #99968D",
"u. c #9C998E",
"i. c #959289",
"p. c #9B9890",
"a. c #A69983",
"s. c #AB9C84",
"d. c #AB9E89",
"f. c #B49E85",
"g. c #B89F88",
"h. c #AB9F90",
"j. c #AEA28D",
"k. c #B5A284",
"l. c #B6A68B",
"z. c #BBA68A",
"x. c #B9A98D",
"c. c #BAA484",
"v. c #AFA391",
"b. c #B1A694",
"n. c #BAA690",
"m. c #B3A996",
"M. c #BCAD94",
"N. c #B2A798",
"B. c #B5AB9B",
"V. c #B9AF9B",
"C. c #BDB19A",
"Z. c #BEB196",
"A. c #B8AFA2",
"S. c #BDB5A3",
"D. c #BEB8A5",
"F. c #BFB6A9",
"G. c #BFB8AA",
"H. c #C2B49C",
"J. c #C3B89F",
"K. c #CEBD9C",
"L. c #C2AB88",
"P. c #C4BAA6",
"I. c #C3BDAD",
"U. c #C1B6A3",
"Y. c #C5BFB1",
"T. c #D8C49F",
"R. c #C4C0AF",
"E. c #CAC1AD",
"W. c #DBC7A2",
"Q. c #C6C3B3",
"!. c #CAC5B5",
"~. c #CCC7B9",
"^. c #CECABC",
"/. c #D0CDBE",
"(. c #D2D0BF",
"). c #CFCDC0",
"_. c #D1CEC1",
"`. c #D4D1C5",
"'. c #D8D5C7",
"]. c #D6D3C9",
"[. c #D8D6CA",
"{. c #DAD8CE",
"}. c #DDDCD3",
"|. c #E0DED6",
" X c #E1DFD8",
".X c #E2E1DA",
/* pixels */
"/ / / / / / / / / / / / / / / / / / / / / / / / / / / / / / / / / / / / / / / / / / / / Y Y Y Y Y Y ] ] ' ' ' ' ' Y H H G G D / / / / / / / / / / / / / / / / / / / / / / / / / / / / / / / / / / / / / / / / / / / / / / / ",
"/ / / / / / / / / / / / / / / / / / / / / / / / / / / / / / / / / / / / / / / / / / / G ].^.^.^.~.~._.'.`.'.'.`.`._.`.'.'.~.~.G Q Q / / / / / / / / / / / / / / / / / / / / / / / / / / / / / / / / / / / / / / / / / / / / ",
"/ / / / / / / / / / / / / / / / / / / / / / / / / / / / / / / / / / / / / / / / / / / D [._._.`._.[.'._.`.'.]._.'.'.`.`.'.`.~.~.G Q Q / / / / / / / / / / / / / / / / / / / / / / / / / / / / / / / / / / / / / / / / / / / ",
"/ / / / / / / / / / / / / / / / / / / / / / / / / / / / / / / / / / / / / / / / / / / D {._.].`.[._.'.[.f.f.f.f.f.'.`.`.'.`.`.~.G Q Q / / / / / / / / / / / / / / / / / / / / / / / / / / / / / / / / / / / / / / / / / / / ",
"/ / / / / / / / / / / / / / / / / / / / / / / / / / / / / / / / / / / / / / / / / / / D {.`.`.`.`.[._.[.|.|.|.|.c.(.'.'.`.`.`.}.D Q Q / / / / / / / / / / / / / / / / / / / / / / / / / / / / / / / / / / / / / / / / / / / ",
"/ / / / / / / / / / / / / / / / / / / / / / / / / / / / / / / / / / / / / / k k k v Z D {.`.'.`.[._.'.[.f.f.f.g.f.'.'.'.'.`.'.{.G r r k k k / / / / / / / / / / / / / / / / / / / / / / / / / / / / / / / / / / / / / / / / ",
"/ / / / / / / / / / / / / / / / / / / / / / / / / / / / / / / / / / / S D S ~.^.^.^./.D {.'.`.'.'.'.'.+ % + % + % % '.'.'.'.'.}.G x.l.~.~.^.k k k / / / / / / / / / / / / / / / / / / / / / / / / / / / / / / / / / / / / / ",
"/ / / / / / / / / / / / / / / / / / / / / / / / / / / / / / / / S G S `.`.~.~.).^.^./.D {.`.'.`._.[.X 7 7 7 7 7 6 6 X X X '.(.}.L x.l.^.~.^.).).`.k M M / / / / ) / / / / / / / / / / / / / / / / / / / / / / / / / / / / / ",
"/ / / / / / / / / / / / / / / / / / / / / / / / / / / / / / / L _.`.`.`.(.~.v v v v v A {.`.'.'.'.X 7 7 7 7 7 8 7 ..E E ..X X X H m m v M v _.`.(.`.`.(.M / / / ( ( / / / / / / / / / / / / / / / / / / / / / / / / / / / / ",
"/ / / / / / / / / / / / / / / / / / / / / / / / / / / / Y L L _.`._.`._.k v `.'.'.'.[.D '.$ + O O 7 T 8 8 8 7 E .. ... .....y.y.X `.`.`.`.`.h M _.(.`.`.M / / / / / / / / / / / / / / / / / / / / / / / / / / / / / / / / / ",
"/ / / / / / / / / / / / / / / / / / / / / / / / / / S S _._.}.6.`._.k k /.(.(.(.(.'.'.A X < 1 1 1 1 8 8 8 7 .... . . ...E i.7 7 6 X ].`.`.`.].[.M J [.'.Y M M M M / / / / / / / / / / / / / / / / / / / / / / / / / / / / / ",
"/ / / / / / / / / / / / / / / / / / / / / / / / S S [.{._.`.`.|.k k Y.Y./.(.(.(.(.`.`.O < 1 1 1 1 1 7 7 ......E  . . . .E y.7 7 6 0 X `.`.`.`.`.`.'.M G .X!.!.E.E.M M M / / / / / / / / / / / / / / / / / / / / / / / / / / ",
"/ / / / / / / / / / / / / / / / / / / / / / / k {.[.`.`.`._.v k _.Y.I.Q.`././.(./.(.& X...1 1 1 1 0 o...............o.E a.E E 0 6 6 6 X `.`.`.].'.].[.].k z Q.E.E.!.^./.M / / / / / / / / / / / / / / / / / / / / / / / / / ",
"/ / / / / / / / / / / / / / / / / / / / / S k {.`.`._.`._.k /._._._.(.E.(.`.'.`.(./.& X.E .. .T  .a.X.........o.o.....E p.E E 0 6 6 6 O ).].`.`.].`.].`.].].y ^.^./.^.~.~.f g / / / / / / / / / / / / / / / / / / / / / / / ",
"/ / / / / / / / / / / / / / / / / / / / k {.{.].].].].j v /._._._._./.`.`.`.(.(.(.(.& X. . . . . .u.X.X.X...o.....o.E h.E E E E 6 6 0 O ).`.`.].`.`.`.].].`.`.u t ~.~.~.`./.).i / / / / / / / / / / / / / / / / / / / / / / ",
"/ / / / / / / / / / / / / / / / / / / / x {.].[.].[.k _.`._._.`._./.`.`.(.`.`.'.`.{.& X.E  . . . .u.X.X.X.X.X.o.....o.y.E E E E 6 0 0 O ).).`.`.`.`.!.!._.`.`.`.`.t '.`.`.`.`.i / / / / / / / / / / / / / / / / / / / / / / ",
"/ / / / / / / / / / / / / / / / / / Z Z {.W P `.{.k _._._._._._.(.(.(.`.`.`.`.{.[.j.& X. . . . .y.X.X.X.X.X.X.o.X.X.X.y.E E E E  .6 6 O }.).).).).^.Q.~.).).).`._.].t `._.P P {.d d / / / / / / / / / / / / / / / / / / / / ",
"/ / / / / / / / / / / / / / / ( / Z {.[._.}.{.P j )._._._._._._./.`.`.`.`.{.{.d.j.j.$ X.T  . .t.7 7 7 8 y.u.u.y.y.u.y.E E  .E E E 6 6 O Q.}.}.^.^._.^.).).).`.`.].~./.t P |.|._.|.{.f / / / / / / / / / / / / / / / / / / / ",
"/ / / / / / / / / / / / / / / ^ Z [._./._.).).z ).)._._._._._.`.'.`.`.{.{.:.:.a.a.d.% X.T  . .t.T T E r.r.r.r.r.r.r.r.E E E E 9 9 E 4 O Q.D.S.}.|.`.).).).^.^.).).~.^._.t _._._._._.|.d / / / / / / / / / / / / / / / / / / ",
"/ / / / / / / / / / / / / / / Z [._._._.).).k ]._._._.].[.].`.`.`.`.{.-.-.:.,.a.s.o $ X. . .y.9 T T r.r.r.r.r.r.r.r.r.E E E E 9 9 E 7 O Y.G.G.G.S.}.).^.).^.).^.).).).).).e ]._.]._.Y.[.d / / / / / / / / / / / / / / / / / ",
"/ / / / / / / / / / / / / / / Z {.~._._.).k ].]._.`.`.].].`.`.`.'.}.@.-.@.O.O.o o #.% X. .u.X.r.r.r.r.r.r.r.r.r.r.r.r.T E E 9 9 9 9 q + B G.G.S.F.N.}.).).).^.).~.).).~.Y._.y _.)._.^.[.c / / / / / / / / / / / / / / / / / ",
"/ / / / / / / / / / / / / / f `.~.~.~.~.k ].].].[.`.].`.`.].`.].{.R O.O.O.o o <.=.H.% X.u.r.t.r.r.r.r.r.r.2 2 2 u.y.u.u.E E 9 9 9 9 9 O ^.k k D.F.B.B.}.].[.^.^.).~.~.).).).].t _.).^.).`.t / / / / / / / / / / / / / / / / ",
"/ / / / / / / / / / / / / / h `.~.~.~.~.z ].`.].`.]._.|.[.].|.{.R R R } o s.s.C.Z.Z.+ i.r.r.r.r.r.r.r.r.2 2 2 : < < 4 4 i.y.y.9 9 9 9 O I.^.^.a G.N.B.B.}.].].].).Y.).)._.`._.t ^.^.^._.'.t / / / / / / / / / / / / / / / / ",
"/ / / / / / / / / / / / / u _.~.~.~.~.z ].].`.`.].`.[.].|.|.{.C R R o o s.Z.Z.Z.C.H.+ X.r.r.r.r.r.u.y.y.2 2 : : < , 4 4 4 4 4 y.y.9 9 O P.D.P.~.l j B.N.N.}.{.`.[.)._._.`._.`.`.A ^._.^././.y / / / / / / / / / / / / / / / ",
"/ / / / / / / / / Z Z Z Z Z Z Z S Z M S S R P W |.}.}.}.}.{.R R R o *.<.Z.Z.C.C.Z.H.O r.r.r.p.p.p.2 , 2 8 8 : : , , 4 4 4 4 4 4 4 y.y.O G.P.P.I.~.~.z N.f.f.}.].].]._._.W P W P A A A A A A A A A A A A / / / / / / / / / / ",
"/ / / / / / / / Z {.].].].^.).^.).).Y.Y.~.Y.Y.Y.P P s.;.;.}.R C o @.=.Z.C.Z.C.Z.C.J.O p.p.p.4 4 4 , 2 2 4 2 8 : : , 4 4 4 4 4 4 4 5 ... w.G.I.Q.Q.Q.!.f f.4.}.P P P P W `.`.].].`././.`.`.`./.`.).`.(.}.A / / / / / / / / / ",
"/ / / / / / / Z }.{.].]._._._.).).).).Y.!.!.).^.).).|.#.;.@.C o @.*.S.S.S.S.w.w.W.W.. X.4 4 4 4 4 , , , , = , 8 : , 2 4 4 4 4 4 5 3 r.. W.W.w.w.Q.Q.Q.!.e 3.f.}.{.].{.].^._._._.`././.`./.'././.`._.`.}.A / / / / / / / / / ",
"/ / / / / / / G }.)._.).^._.)._.).)._.`.).^.).).~._.Y.|.}.$.e <.@.S.S.S.C.w.W.W.W.W.. o.4 4 4 , 2 , 2 , , 4 , * : = , , 4 1 , 2 3 3 q . W.W.W.W.4.Q.Q.Q.~.r s.}.{.{.).)._._._._././.`.(.'././.'./._.`.|.A Q Q / / / / / / / ",
"/ / / / / / / G {.).)._.)._.).).)._._.^._.).).^.).).~.~.|.W o #.D.C.S.S.w.W.W.W.W.W.. o.4 4 5 , , , 2 , , - , ; 0 = , , 4 4 , , , 3 q . W.W.W.W.W.w.Q.R./.y f.|.'./._.^._._._.^._.`.`.`.(.'.(.`.`.(.(.|.A Q Q Q / / / / / / ",
"/ / / / / / / J }._._.)._._._.)._./.^._.^.).).).).).~.|.h.e *.@.D.D.D.4.W.W.W.W.W.w.. X.4 4 4 , , , , 2 , * : * , 7 , , , , , , , > q . w.W.W.W.W.W.Q.Q.Y.Y.e f.|._.^._.^._._._._._.`.(.(.(.`.(.(.`.`.|.A Q Q Q / / / / / / ",
"/ / / / / / / G }._._._._._.n.n.g.)._._._._._._.~.)./.|.h.o @.#.D.D.D.!.W.W.W.W.W.w.X q , 3 3 , , , , , , 4 4 - , * , , , , , , , , 9   w.W.W.W.W.W.R.Q.Y.Y.e g.|._./._._.^.'.`._._.'.g.L.e.(.`.`.(.`.|.D Q Q Q / / / / / / ",
"/ / / / / / / G }._.`.`._.6.}.{.|.6._._._._._._.).).).|.e $.@.P.D.D.D.D.W.W.W.W.T.T.C q , , , 3 , 2 , , , , , 4 , 4 , , , , , , > > q X W.W.W.W.W.W.I.I.I.I.I.e |.^.^._._.'._.'.'._.`.g.{.{.`.g.`.`.'.|.A Q Q Q / / / / / / ",
"/ / / / / / / D }.`._.].`.6._.#.`.0.`._._._.`._.`.{.[.|.e @.@.P.P.D.D.D.D.W.W.T.T.W.W.W.w., , , , , , , , , , > , , , , , > , > , > T.x.W.W.T.W.W.G.R.I.I.I.Y.r }.).).)._.`.`.`.'.`.'.0.`.9.9.9.'.'.[.|.G Q Q Q / / / / / / ",
"/ / / / / / / A |._.]._.].$._.}.`.$.`._.`.`.`._.`.[.{.}.e @.@.R.R.R.D.D.R.R.w.W.W.W.W.W.W.w., , , , , , , 3 , = = - , > > 3 3 , w.W.W.W.W.W.T.w.R.R.R.I.I.I.G.u }.).^.`.`.`._.'.'.`.'.%.`.}.{.$.[.'.[.|.M Q Q Q / / / / / / ",
"/ / / / / / / S |._.`.`.].{.I I W {.`.].].`._.`.`._.{.}.e *.#.P.R.I.I.I.I.I.Q.w.w.w.W.w.w., , , > > , , , > 3 3 5 - , > , > > > > w.w.W.w.w.w.R.I.I.I.I.G.Q.R.r }.`.`.`.`.`.'.`.`.'.'.P F S {.{.'.[.[.|.M ~ Q Q / / / / / / ",
"/ / / / / / / S |.].].].].].}.}.{.`.].].].`.]._.`.`.[.}.e $.@.I.R.D.R.I.R.R.R.).j.w.W.W.w.w.> , > , , , > = > = 3 - > > , , , > w.w.W.W.w.w.R.R.R.I.I.I.Y.I.I.r |.`.`.`.].].`.`.`.`.[.{.{.{.[.[.'.[.[..XM ! Q Q / / / / / / ",
"/ / / / / / / S |.{.].].`.].[.`.].].].`.[.`.'.[.`.].`.}.r @.@.R.Q.I.R.I.R.R.R.R.).w.W.W.W.w.> > , > , , > = > 3 3 3 , > > , > > w.W.W.W.w.R.R.R.I.Y.I.I.Y.I.I.r |._.`.`.`.].`.`.`.[.{.[.[.[.[.[.[.[.[.|.G Q Q Q / / / / / / ",
"/ / / / / / / S |.[.{.].'.].[.'.].].].].`.`.`.`.`.`.'.}.r #.#.I.R.R.R.Q.R.R.Q.Q.Q.l.  W.W.w.w.w., > > , > = # = > > > > > > w.w.w.W.W.  Q.R.R.R.G.I.G.I.S.S.S.r |.`._.`._.].`.`.[.].{.[.{.{.[.[.[.[.'.|.M Q Q Q / / / / / / ",
"/ / / / / / / Z  X{.{.].`.[.[.[.].[.].].`.[.].`.].].`.}.r @.@.R.R.R.Q.~.~.!.R.Q.Q.l.  q w.w.w.w.w.w.w.> > 5 5 3 > > 3 w.w.w.w.w.w.w.@   Q.Q.Q.R.I.R.I.I.S.D.S.r |._.`.].].].[.[.{.{.[.{.[.[.'.W.[.'.[.|.J ! Q Q / / / / / / ",
"/ / / / / / / b  X{.{.{.[.].].[.[.].].[.[.`.].].`.N j l p r @.Q.Q.R.~.~.~.^.!.R.Q.m.  q 3 > > w.w.w.> > w.w.w.w.w.w.> > w.w.w.3 5 @ ; . Q.Q.Q.P.I.G.C.S.S.C.r P P P P [.[.[.[.[.[.[.{.[.[.E.Y.E.E.'.}.|.M Q Q Q / / / / / / ",
"/ / / / / / / k  X X.X X X}.}.}.}.|.}.|.I +.$.#.j.}.{.[.{.o *.^.~.~.^.~.~.~.^.Q.Q.M.  q 3 3 > > > , , > > w.w.w.w.> 3 3 3 , > 3 5 = ;   Q.Q.Q.!.I.P.S.S.S.Y.e ].{.[.].P P S >.>.>.6.}. X|.|.|.}.|.|.|.|.V Q Q Q / / / / / / ",
"/ / / / / / / t G.I.Y.G.N.B.N.m.N.N.N._ |.}.{.[.{.`.).).).).j Q.~.~.^.~.~.~.Q.Q.Q.B.  w 3 3 , 3 3 3 > > , > > > , 3 3 3 3 > > 5 # ; ;   Q.Q.Q.Q.Q.Q.Q.S.S.k ^.^.Y.).Y.|.[.|.>.>.>.I.h.h.v.v.m.m.m.m.v.I.r Q Q Q / / / / / / ",
"/ / / / / / / r I.G.b.b.m.l.v.m.b.m.m.G N  X_._._._._.).)././.S Q.).~.~.!.^.Q.Q.R.Z.  8 3 3 3 3 3 3 > > > > > > > 3 3 3 3 3 3 = ; ;   C.Q.Q.Q.Q.Q.Q.Q.Q.m ~.~.~./.Y.^.Y.~.~.[.N Y.d.g.d.j.v.v.m.m.j.m.I.r Q Q Q / / / / / / ",
"/ / / / / / / t G.v.j.m.3.&.&.&.&.L S A Z }.`._._._._.).)./._.{.C Q.~.~.^.^.Q.Q.Q.M.B.                                              C.V.Q.Q.Q.!.Q.Q.Q.M P.~.~.)./._.Y._.~.~.{.P &.` ` &.` ` ` $.m.m.v.D.r Q Q Q / / / / / / ",
"/ / / / / / / r I.h.g.r |.).^./.!.P.P.P.s a.}._.].).)._._._.`.`.{.K Q.^.^.^.^.R.Q.B.B.C.l.l.l.k.k.k.k.k.k.c.c.c.f.8.8.7.1.1.1.1.8.C.V.C.!.Q.Q.Q.R.Q.M Z.G.S.)._._.Y.Y.^.Y. XN.e P.^.^.`.].].].}.r N.m.G.o Q Q Q / / / / / / ",
"/ / / / / / / r A.h.d.r [.)././.!.!.P.P.x $. X_._.).].).`._.`.`.`.{.H Q.~.~.^.!.Q.(._.V.Z.V.C.V.C.C.C.C.C.C.C.C.C.H.V.C.C.C.H.V.V.A.M.).~.Q.Q.Q.Q.K x.Z.{.{._._._.'._._.Y.|.h.r I.^.^.`.].].`.{.r v.v.V.i Q Q / / / / / / / ",
"/ / / / / / / Q r r e e :.|./.^./.!.!.!.!.p ;.{.).]._.].`.`.`.`.`.}.}.U K ^.^.~.~.Q.Q._.)._._._.).`.`._._.`._._._._.C.H.C.C._._._._.).Q.Q.Q.Q.m M M.z.[._._.`._.`._._._.|.R e P./.~.`.).`.`.{.h.r r o r Q Q / / / / / / / / ",
"/ / / / / / / / Q Q Q e :.[._./././.!.!.!.a ;.3.{.].]._.]._.`.`.`.`.}.).).L ~.^.^.!.Q.!.Q.!.~.Q.~.Q.~.~.~.!.~.~.!.~._._.C.C.Q.!.Q.Q.~.~.Q.!.z `.`.`.).`.).`.`.`.`._._.{.W W u I.^.^.`.`.).].}.j.o Q Q Q Q / / / / / / / / / ",
"/ / / / / / / / / / / Q r :.{././.~.).).Y.~.g 6.N.}.`.].'.`.`.`.`._.[._.`._.Z A ~.~.^.^.!.~.~.Y.Q.~.!.!.~.!.~.~.!.!.!.!._._.Q.!.!.!.!.!.Z k `.]._._._.].`.`.`.`.].].{.R $.t P.Y.^.^.`.].`.{.} r Q Q Q / / / / / / / / / / / ",
"/ / / / / / / / / / / / r :.h.{.).^.).^.~.Y.~.f N.B.}.}.}.`.`.[.[.[.`._.`._._._.v v v ^.~.Y.~.^.~.!.Q.^.!.!.!.!.~.!.!.!.!.!.^.Q.!.b b M ].].].].].`._.].].].].`.`.{.} } s I.K.P.^.^.].`.{.{ { e Q ~ / / / / / / / / / / / / ",
"/ / / / / / / / / / / / Q u b.{.).).).)././.W c B.A.A.3.<.|.[.`.[.`.[.'._._./.(././.~.v v !.Y.Y.Q.Q.~.~.!.~.!.!.!.!.!.!.~.Q.Q.Q.c /.`.`.].].].].].].].].`.'.`.`.{.} W } i r P.P.^.`.`.`.{.} e Q Q ! ( / / / / / / / / / / / ",
"/ / / / / / / / / / / / / r h.b.{.).).).%.%.%.P d A.S.U.<.1.}.'.].`.'.'.`.`.`./././.~.~.~.G G H L H ' ' Y Y Y Y Y Y H Y J Q.Q.Z ~.^.`.].].].].].].].].].[.`.|.}.-.-.+.p H.M.I W `.`.`.{.{ R e ! Q ^ ( / / ) / / / / / / / / ",
"/ / / / / / / / / / / / / Q r b.N.{.%.%.{.}.{.R P d A.U.H.U.}.[.].`.].].'._._.`.(.(./.(.Y.G {.'.'.'.[.[.'.'.`.(._.`.(.`.`.m M /./._.`.].].].`.[.].].].].]. X,.:.-.-.x H.L.~.!.Y.C P {.6.{ o ! ! ! ^ / ( ( ^ / / / / / / / / ",
"/ / / / / / / / / / / / / / Q r N.P |.}._._._.{.{.{.d A.J.J.J.|.}.[.`.[.'.'.`.`._.(./.(.e.'.'.'.[.[.[.'.(.'.`.(.`._.`./.).`.{.I _.`.`.`.].].].].].].].}.|.:.,.2.-.p L.I.E.!.Y.!.!.|.a s.o ! n ! ( / / ( ( ^ / / / / / / / / ",
"/ / / / / / / / / / / / / ) ) r A.R G.{.`.`._.`.)._.^.c c H.U.U.V.|.}.].`.`.`.`.`.`.`.(.e.'.'.(.[.'.`.(.'.`.(.`._.`./.`._._.{.I `._._._.].].[.].]. X}.3.3.,.;.p j /.).~./.~.Q.~.].R a s.o Q ! ^ ( / / ^ ^ / / / / / / / / / ",
"/ / / / / / / / / / / / / / ) ! o R G.A.{._.`.`.).^.^.).'.d J.U.S.A.V.}.|.|.(.`.(.`.`.] {.'.(.(.`.`.`.`.(.`.`.`.`._.`.`._.`._.{.W _.`.].].].}.}.}.a.3.3.3.:.x !.Y.^.~.~.~.~.~._.R R a e Q Q ( ^ ^ / / / / / / / / / / / / / ",
"/ / / / / / / / / / / / / / ^ ( ! r I.B.A.}.`.`.).).].`.`.`.f f V.V.V.M.M.n.|.}. X'.`.[ }.`.'.'.'.`.'.'.`.`._.`.`._.`.(.`.(._.|.` /.`.}..X}.1.1.3.3.<.:.a g Q.!./.~.~.~.^.~.`.W R R o Q Q / / / / / / / / / / / / / / / / / ",
"/ / / / / / / / / / / / / ) ( ^ ( ! a A.V.B.{.{.].`.`.`.].'.{.{.f c V.V.n.x.z.k.w..X X[ {.'.'.'.(.'.'.'.H.`.'.).H.`.(.`._.`._.}._ |.}.w.w.1.1.<.3.,.j z E.!.Y.E.~./.~.!.'.'.W R { a Q Q / / / / / / / / / / / / / / / / / / ",
"/ / / / / / / / / / / / / ^ ( ( ^ ( Q r V.A.A.S.{.].].].].[.{.{.9.[.f r M.x.c.k.w.w.&.Y }.'.'.'.'.'.'.'.|.H.H.H.|.`.'.`.`.`.(.|.' V 7.w.7.1.1.<.m l _.P `.Q.Y.~.~.~.~./.} R R R o Q Q / / / / / / / / / / / / / / / / / / / ",
"/ / / / / / / / / / / / / / ^ ( ^ ^ / Q r A.V.A.A.].{.].{.[.{.0.[._._._.r t t w.w.w.>.Y }.'.'.'.'.'.'.'.e.}.|.|.c.`.'.'.'.`.`.|.' ' 7.7.7.t t e `.].[.[.z.'.~.~.~.`.`.;.} R R o Q Q / / / / / / / / / / / / / / / / / / / / ",
"/ / / / / / / / / / / / / / / / / / / / Q e e A.A.A.B.|.|.{.%.[.).`./.`.^./.Q.t y y y Y |.'.'.}.'.'.'.'.|.e.Y %.|.'.'.'.'.`.`.|._ e r r r ^.~.^.`.`.[.`.`.M.~.].].:.:.} O.o o Q Q / / / / / / / / / / / / / / / / / / / / / ",
"/ / / / / / / / / / / / / / / / / / / / / Q Q e B.A.V.B.B.P |._.`.).).)./.^.!.!.!.E.E.Y |.'.}.'.{.{.'.'.H |.|.|.&.'.'.'.'.'.'.|._ x.l.(././.~.~.`.[.`.`._.}.|.f.-.:.:.O.o Q Q / / / / / / / / / / / / / / / / / / / / / / / ",
"/ / / / / / / / / / / / / / / / / / / / / / / Q e e B.B.B.P Q.}.}.}.`.^././.^.!.~.!.W.H |.'.}.'.}.'.{.{.|.'.[.'.|.'.'.'.'.'.'.|.K l.l.)././.).'.`.`.}.{.}.} l d.-.O.o o Q / / / / / / / / / / / / / / / / / / / / / / / / / ",
"/ / / / / / / / / / / / / / / / / / / / / / / / Q Q e r N.C Q.N.m.m.}.}.}.}./.R.Y.!.Y.D .X}.'.}.'.}.'.'.[.[.[.'.'.'.'.'.'.'.'.|.H l.l./././.}.{.}.{.@.+.{ R l d.o o Q Q / / / / / / / / / / / / / / / / / / / / / / / / / / ",
"/ / / / / / / / / / / / / / / / / / / / / / / / / / Q Q r e Y.N.b.N.v.b.h.d.{.{.{.{.{.G  X.X.X X X X|.|.|.{.}.{.{..X{.}.}..X|. XS J.Z.{.{.|.=.=.*.*.+.{ +.{ o o Q Q / / / / / / / / / / / / / / / / / / / / / / / / / / / / ",
"/ / / / / / / / / / / / / / / / / / / / / / / / / / / / Q Q e e N.b.v.h.v.d.d.d.d.,.#.t I.I.Y.B.V.A.V.B.B.B.V.V.B.b.l.I.G.P.G.G.p V F =.=.=.=.=.*.*.` { o o Q Q / / / / / / / / / / / / / / / / / / / / / / / / / / / / / / ",
"/ / / / / / / / / / / / / / / / / / / / / / / / / / / / / / Q Q r e h.h.j.d.d.s.5.,.@.u I.I.V.B.B.V.B.M.B.b.B.n.j.v.v.v.j.j.P.G.e B V =.=.=.=.*.+.+.o o Q ! ) / / / / / / / / / / / / / / / / / / / / / / / / / / / / / / / ",
"/ / / / / / / / / / / / / / / / / / / / / / / / / / / / / / / / Q Q r e e e d.a.5.,.@.r P.B.B.B.B.B.N.N.b.b.b.b.v.v.j.j.j.v.j.G.o N V =.=.*.o o o o Q Q / / ) ( ( / / / ) ) / / / / / / / / / / / / / / / / / / / / / / / / ",
"/ / / / / / / / / / / / / / / / / / / / / / / / / / / / / / / / / / Q Q Q Q e e r e e e P.N.B.B.v.j.j.d.d.d.l.v.v.v.j.j.j.d.d.F.o o o o o o Q Q Q Q / / / / ^ ( ( / / ( ( / / / / / / / / / / / / / / / / / / / / / / / / / ",
"/ / / / / / / / / / / / / / / / / / / / / / / / / / / / / / / / / / / / / / Q Q Q Q Q e G.N.B.-.*.<.a.d.d.d.d.d.j.j.j.j.j.j.a.S.o Q Q Q Q Q / / / / / / / / / ^ ^ / ( ( ( / / / / / / / / / / / / / / / / / / / / / / / / / ",
"/ / / / / / / / / / / / / / / / / / / / / / / / / / / / / / / / / / / / / / / / / / / e G.,.#.*.,.*.d.d.d.a.a.d.d.d.a.a.a.a.a.S.o Q Q / / / / / / / / / / / / / / / ( ( ^ / / / / / / / / / / / / / / / / / / / / / / / / / ",
"/ / / / / / / / / / / / / / / / / / / / / / / / / / / / / / / / / / / / / / / / / / / Q o e o r o e o o o o o o o o o o o o o o Q Q / / / / / / / / / / / / / / / / ^ ^ / / / / / / / / / / / / / / / / / / / / / / / / / / ",
"/ / / / / / / / / / / / / / / / / / / / / / / / / / / / / / / / / / / / / / / / / / / / Q Q Q Q Q Q Q Q Q Q Q Q Q Q Q Q Q Q Q Q Q / / / / / / / / / / / / / / / / / / / / / / / / / / / / / / / / / / / / / / / / / / / / / "
};
