/* XPM */
static char *Smoke_0[] = {
/* columns rows colors chars-per-pixel */
"110 73 178 2 ",
"   c #4F2913",
".  c #512B14",
"X  c #5A361D",
"o  c #7D3515",
"O  c #5C3A23",
"+  c #5F3F28",
"@  c #5E4029",
"#  c #564A3E",
"$  c #61412A",
"%  c #654934",
"&  c #5D5349",
"*  c #62594B",
"=  c #676159",
"-  c #6A635B",
";  c #6F695A",
":  c #70675B",
">  c #736C5E",
",  c #6E6960",
"<  c #726C63",
"1  c #736F68",
"2  c #777166",
"3  c #797266",
"4  c #767168",
"5  c #7A746A",
"6  c #7E796D",
"7  c #797770",
"8  c #7A7870",
"9  c #823716",
"0  c #843917",
"q  c #883B18",
"w  c #893C19",
"e  c #8C421E",
"r  c #894523",
"t  c #8D4927",
"y  c #8D4C2B",
"u  c #924521",
"i  c #974C27",
"p  c #94512C",
"a  c #99532D",
"s  c #8E5231",
"d  c #955633",
"f  c #945937",
"g  c #9D5A35",
"h  c #935B3B",
"j  c #A1522A",
"k  c #A15D36",
"l  c #A15E39",
"z  c #817F20",
"x  c #9C613B",
"c  c #A2633B",
"v  c #9D6642",
"b  c #9C6A46",
"n  c #9F7149",
"m  c #9A7A5D",
"M  c #A56A43",
"N  c #A66B47",
"B  c #A96E43",
"V  c #A77047",
"C  c #AA7046",
"Z  c #A4714A",
"A  c #AB744B",
"S  c #AF794E",
"D  c #A97750",
"F  c #AE7C53",
"G  c #A87B57",
"H  c #A2765B",
"J  c #A57A5D",
"K  c #B27F56",
"L  c #807B6F",
"P  c #9C7E63",
"I  c #837E72",
"U  c #A97F62",
"Y  c #8F8824",
"T  c #948D29",
"R  c #99912E",
"E  c #ACB828",
"W  c #C1C52D",
"Q  c #C9CD35",
"!  c #D1D43D",
"~  c #AE8259",
"^  c #AF8A5E",
"/  c #B38256",
"(  c #B28359",
")  c #B4885C",
"_  c #9D8265",
"`  c #9E8469",
"'  c #9F886C",
"]  c #868175",
"[  c #888477",
"{  c #8A867A",
"}  c #88857D",
"|  c #9F8C73",
" . c #A18564",
".. c #A68667",
"X. c #A68C6A",
"o. c #AA8C6A",
"O. c #B48D65",
"+. c #B38B69",
"@. c #A79068",
"#. c #AB926C",
"$. c #B59068",
"%. c #A28C73",
"&. c #AA8D70",
"*. c #A28E79",
"=. c #B18E71",
"-. c #A69176",
";. c #AB9474",
":. c #AD9977",
">. c #A4937B",
",. c #AA957B",
"<. c #AE9A7C",
"1. c #B29276",
"2. c #B69777",
"3. c #B39C75",
"4. c #B99B7C",
"5. c #B2A17A",
"6. c #C29F75",
"7. c #557E82",
"8. c #588286",
"9. c #588386",
"0. c #918D82",
"q. c #949187",
"w. c #99968D",
"e. c #9C998E",
"r. c #9B9890",
"t. c #A69983",
"y. c #AB9C84",
"u. c #AB9E89",
"i. c #B49E84",
"p. c #B89F88",
"a. c #AB9F90",
"s. c #AEA28D",
"d. c #B4A284",
"f. c #BAA484",
"g. c #B5A58A",
"h. c #BBA68A",
"j. c #B9A98D",
"k. c #AFA391",
"l. c #B1A694",
"z. c #BAA690",
"x. c #B3A996",
"c. c #BCAD94",
"v. c #B2A798",
"b. c #B5AB9B",
"n. c #B9AF9B",
"m. c #BEB196",
"M. c #BDB19A",
"N. c #B8AFA2",
"B. c #BDB5A3",
"V. c #BEB8A5",
"C. c #BFB6A9",
"Z. c #BFB8AA",
"A. c #C2B49C",
"S. c #C3B89F",
"D. c #C1B6A3",
"F. c #C3BAA6",
"G. c #C3BDAC",
"H. c #C5BFB1",
"J. c #C4C0AF",
"K. c #CAC1AD",
"L. c #DBC7A2",
"P. c #C6C3B3",
"I. c #CAC5B5",
"U. c #CCC7B9",
"Y. c #CECABC",
"T. c #D0CDBE",
"R. c #D2D0BF",
"E. c #CFCDC1",
"W. c #D1CEC1",
"Q. c #D4D1C5",
"!. c #D8D5C7",
"~. c #D6D3C9",
"^. c #D8D6CA",
"/. c #DAD8CE",
"(. c #DDDCD3",
"). c #E0DED6",
"_. c #E1DFD8",
"`. c #E2E1DA",
/* pixels */
"W W W W W W W W W W W W W W W W W W W W W W W W W W W W W W W W W W W W W W W W W W W W K K K K K / ( ( / / / / / K S S A A A W W W W W W W W W W W W W W W W W W W W W W W W W W W W W W W W W W W W W W W W W W W W W W W ",
"W W W W W W W W W W W W W W W W W W W W W W W W W W W W W W W W W W W W W W W W W W W C ~.Y.U.Y.U.U.Q.Q.Q.!.Q.!.Q.W.Q.!.!.U.U.C Y Y W W W W W W W W W W W W W W W W W W W W W W W W W W W W W W W W W W W W W W W W W W W W ",
"W W W W W W W W W W W W W W W W W W W W W W W W W W W W W W W W W W W W W W W W W W W C ^.Y.W.Q.Q.~.Q.~.!.Q.Q.Q.~.!.Q.Q.Q.Q.U.U.C Y Y W W W W W W W W W W W W W W W W W W W W W W W W W W W W W W W W W W W W W W W W W W W ",
"W W W W W W W W W W W W W W W W W W W W W W W W W W W W W W W W W W W W W W W W W W W C /.~.~.~.Q.Q.Q.Q.i.d.i.d.i.!.Q.!.!.Q.Q.U.A Y Y W W W W W W W W W W W W W W W W W W W W W W W W W W W W W W W W W W W W W W W W W W W ",
"W W W W W W W W W W W W W W W W W W W W W W W W W W W W W W W W W W W W W W W W W W W C /.Q.Q.Q.!.Q.Q.!._._.(._.d.!.!.R.!.Q.Q./.C Y Y W W W W W W W W W W W W W W W W W W W W W W W W W W W W W W W W W W W W W W W W W W W ",
"W W W W W W W W W W W W W W W W W W W W W W W W W W W W W W W W W W W W W W g g g k B C /.Q.Q.!.~.!.!.!.i.i.i.i.i.!.!.!.Q.!.!.(.S 9 9 g g g W W W W W W W W W W W W W W W W W W W W W W W W W W W W W W W W W W W W W W W W ",
"W W W L.5.W W W W W W W W W W W W W W W W W W W W W W W W W W W W W W N N N Y.Y.Y.Y.T.C /.~.Q.!.Q.Q.!.+ $ $ + $ + $ !.!.!.!.!./.A j.j.U.U.U.g g x W W W W W W W W W W W W W W W W W W W W W W W W W W W W W W W W 5.L.W W W ",
"W W W L.W W W W W W W W 5.W W W W W W W W W W W W W W W W W W W N A A Q.W.Y.Y.U.Y.U.T.C /.!.Q.!.!.!.X 5 3 3 3 3 2 2 X X X !.!.(.S j.j.Y.Y.Y.Y.W.W.g c c W W W W ! W W W W W W W W W W W W W W W W 5.W W W W W W W W L.W W W ",
"W W W W W W W W W W W W W W W W W W W W W W W W W W W W W W W F W.Q.W.~.W.U.k k k k k B /.Q.!.!.!.X L 3 3 3 3 4 2 [ I [ [ X X X S x x x c k Q.T.W.R.Q.R.c W W W Q Q W W W W W W W W W W W W W W W W W W W W W W W W W W W W ",
"W W W W W W W W W W W W W W W W W W W W W W W W W W W W F F K W.W.W.Q.W.k k Q.!.!.!.^.N !.@ @ O X 3 3 3 5 5 5 [ [ [ [ I I [ w.t.X Q.!.Q.Q.R.a c Q.Q.R.!.c W W W W W W W W W W W W W W W W W W W W W W W W W W W W W W W W W ",
"W W W W W W W W W W W W W W W W W W W W W W W W W W N N W.W.(.:.W.W.g g T.R.R.R.R.!.!.B X : > > > > 3 5 5 5 I [ [ [ I I I w.4 2 2 X Q.Q.Q.Q.Q.~.c C !.!./ c c c c W W W W W W W W W W W W W W W W W W W W W W W W W W W W W ",
"W W W W W W W W W W W W W W W W W W W W W W W W N N ^./.W.Q.Q.(.g k H.H.T.R.R.R.R.R.!.O ; > > > < > 3 L [ I [ [ I [ [ [ I w.2 2 4 4 X Q.Q.~.Q.~.~.Q.c A `.I.I.J.K.c c c W W W W W W W W W W W W W W W W W W W W W W W W W W ",
"W W W W W W W W W W W W W W W W W W W W W W W g /./.W.W.Q.W.g g W.H.H.H.Q.T.R.R.T.R.% { ] > > > > 2 [ [ { [ [ [ I I I 0.r.I I 3 4 2 2 O Q.~.W.~.Q.Q.~.^.g a P.K.I.K.T.T.c W W W W W W W W W W W W W W W W W W W W W W W W W ",
"<.W W W W W W W W W W W W W W W W W W W W M h /.Q.Q.W.~.Q.g Y.Q.W.W.R.K.R.Q.R.!.T.R.% { I ] ] L [ t.} [ I { [ [ 0.0.I I r.I I 2 2 2 2 X E.Q.~.~.~.~.Q.~.~.~.q Y.Y.T.U.U.U.i p W W W W W W W W W W W W W W W W W W W W W W :.",
"W W W W W W W W W W W W W W W W W W W W g /.(.~.~.~.~.g g T.Q.T.W.Q.T.R.Q.Q.R.R.R.Q.% { ] I ] ] I w.{ { { { } I I I { t.I I I I 2 2 4 O E.Q.~.Q.~.Q.~.Q.~.~.~.0 q U.T.U.Q.Y.W.e W W W W W W W W W W W W W W W W W W W W W W ",
"W W W W W W W W W W W W W W W W W W W W p /.~.~.~.~.g W.Q.W.W.Q.W.T.Q.Q.R.Q.!.Q.!./.% { ] ] ] ] ] a.{ { { } } 0.I 0.I w.I I I I 2 4 2 O T.T.W.~.W.Q.I.U.Q.Q.Q.Q.Q.q Q.Q.Q.Q.Q.e W W W W W W W W W W W W W W W W W W W W W W ",
"W W W W W W W W W W W W W W W W W W M M /.H U Q.~.g W.W.W.W.W.T.T.T.Q.Q.Q.Q.Q.(./.s.$ { ] ] ] ] w.} { { { { { { { { { r.I I I I I 2 2 O (.E.E.E.Y.U.U.U.E.E.W.~.Q.Q.q W.W.H H ).u i W W W W W W W W W W W W W W W W W W W W ",
"W W W W W W W W W W W W W W W W W M /./.E.(./.H f E.Q.W.W.Q.Q.R.T.Q.Q.Q.W././.u.s.s.$ { L ] ] q.3 3 3 5 w.e.w.e.w.w.w.I ] I I I I 2 2 O P.(.(.E.W.Y.E.Y.E.E.Q.W.W.Y.Y.q U /.).W././.i W W W W W W W W W W W W W W W W W W W ",
"W W W W W W W W W W W W W W W W M /.E.W.W.W.E.d W.W.E.Q.W.R.T.Q.!.Q.Q./.(.*.*.t.y.u.$ { ] ] ] q.L L L 0.0.0.0.0.0.0.0.I I I I 6 6 I 2 O P.V.V.(.(.E.E.T.E.Y.Y.E.E.E.Y.Q.9 W.W.W.W.W.).u W W W W W W W W W W W W W W W W W W ",
"W W W W W W W W W W W W W W W M ~.W.W.E.W.W.d ~.W.W.W.Q.~.Q.Q.~.Q.Q./.%.%.*.-.t.y.o @ { L ] w.L L I 0.0.0.0.0.0.0.0.0.I I I I 6 6 I 2 O H.Z.C.C.Z.(.E.T.Y.E.E.E.E.Y.E.Y.E.9 Q.W.Q.Q.H.^.u W W W W W W W W W W W W W W W W W ",
"W W W W W W W W W W W W W W W M /.Y.W.W.E.g Q.~.W.W.~.~.Q.~.Q.Q.Q./.X.%.| | %.o o #.$ { ] w.{ 0.0.0.0.0.0.0.0.0.0.0.{ ] I I 6 6 6 6 I O v Z.Z.B.V.v.(.E.E.E.E.U.U.E.E.Y.E.U.q W.W.W.E.^.j W W W W W W W W W W W W W W W W W ",
"W W W W W W W W W W W W W W i ~.U.U.U.U.g Q.Q.~.~.~.~.Q.~.~.W.~.).P | | X.o o #.#.M.$ } w.0.q.0.0.0.q.{ 0.: : : w.e.e.e.I I 6 6 6 6 6 O U.g h V.Z.v.b.(.~.~.U.E.E.U.U.Y.E.U.Q.q W.E.U.E.T.w W W W W W W W W W W W W W W W W ",
"W W W W W W W W W W W W W W a W.U.U.U.U.d ~.~.~.~.Q.W.(./.Q.(./.P P P ` o y.y.M.m.m.O w.0.0.0.0.0.0.0.q.: : : * ; ; < < q.w.w.6 6 6 6 O J.U.Y.p Z.b.b.b.(.~.~.~.E.U.E.U.Q.W.Q.q W.Y.E.E.!.w W W W W W W W W W W W W W W W W ",
"W W W W W W W W W W W W W 9 W.U.U.U.U.d ~.~.Q.~.~.~././.(.(./.P P P o o y.M.m.m.M.A.+ { 0.0.0.0.0.w.w.w.: : * * - - < < < < < w.w.6 6 X J.F.F.U.h h x.b.v.(.~.~.Q.E.Q.Q.W.Q.Q.Q.B Y.Y.Y.T.T.w W W W W W W W W W W W W W W W ",
"W W W W W W W W W M M M M M M M M M M c v H U P (.(.(.).(.(.P P P o X.;.m.m.M.m.m.M.O 0.0.0.r.r.r.- : - 5 6 * * : - < < < < 2 > < w.w.X G.F.G.G.U.U.d x.p.<.(.~.~.^.Q.W.U U H U B B B B B B B B B B B B Q W W W W W W W W W ",
"W W W W W W W W M /.~.~.~.T.Y.E.E.E.U.H.U.I.H.I.H H y.&.&.(.m m o X.#.m.m.M.m.M.M.M.O r.r.r.< < 4 : - : - - 6 * * - < < < < < < < < } . G.V.V.P.P.P.I.i i.<.(.H H H H H Q.Q.Q.Q.T.T.Q.T.Q.Q.T.Q.R.W.R.).c W W W W W W W W W ",
"W W W W W W W M (./.~.^.W.E.E.T.E.E.E.H.U.I.E.Y.E.U.)...&...P o X.X.V.V.V.B.M.m.M.U.. 0.< < < < < - : - - 7.- 6 * ; - < > < < < 1 , 0.. F.G.V.P.P.P.H.U.9 <.i.)./.~./.^.E.W.W.W.T.Q.Q.T.Q.R.Q.T.W.R.W.).c Q W W W W W W W W ",
"W W W W W W W A (.W.E.E.T.E.W.T.E.E.W.W.Y.E.E.E.E.Y.U.).(...o #.X.V.M.V.M.B.M.M.A.X.. { < < < - - ; - : - < , 9.* 8.- - < < - - , , 7 . J.F.J.F.P.P.P.P.U.9 <.).^./.E.E.W.W.W.E.T.Q.T.Q.R.Q.R.Q.Q.Q.Q.).B Y Y W W W W W W W ",
"W W W W W W W Z (.Y.Y.W.W.W.E.T.E.Y.T.E.Y.E.E.Y.Y.E.U.Y.).U o o.V.M.B.B.V.V.B.V.V._ . { < < 1 - - - - : - 8.- 9.4 7.- - < < - - - , 8 . E.F.V.G.G.H.P.P.U.q i.).!.W.T.W.E.W.W.Y.W.W.Q.Q.Q.R.W.R.R.Q.R.).B Y Y Y W W W W W W ",
"W W W W W W W A (.E.W.E.R.R.W.W.W.W.T.W.Y.W.E.E.Y.E.U.).a.9 @.X.V.V.V.5.<.V.V.V.V._ . { : < < - - : : - - 8.8.8.- 3 : - - - - - - - 8   ;.G.G.J.G.P.P.P.H.U.9 u.).Y.W.Y.Y.W.Y.Q.W.W.W.Q.R.Q.Q.R.Q.T.R.).C Y Y Y W W W W W W ",
"W W W W W W W A (.E.Q.W.W.W.z.z.p.W.W.W.W.W.E.W.E.E.Y.).u.o o.#.V.V.V.J.I.:.G.Z.G.:.. 8 - , 1 - - : - - - < < 8.- 8.- - - - - - - - 8 . ;.V.G.J.G.P.G.P.H.H.9 p.).W.W.W.W.T.!.!.Q.Q.Q.p.h.6.R.!.Q.Q.Q.`.C Y Y Y W W W W W W ",
"W W W W W W 5.C (.Q.W.Q.W.,.(./.).1.W.W.W.W.W.E.W.Y.W.).o ..o.Z.V.V.V.V.B.Y._ Z.G.<.. 7 - - - - - - - - - - - < - < - - - - - - - - 8 . d.J.G.G.G.G.G.Z.G.G.H.w _.H.Y.W.T.Q.Q.Q.Q.Q.Q.6./.).Q.p.T.Q.Q.).C Y Y 5.W W W W W W ",
"W W W W W W W A (.Q.Q.Q.Q.1.Q.o.W.1.Q.Q.Q.W.W.W.Q.^./.(.9 o.X.F.V.V.V.V.V.G.Y. .` <.. 7 = - - - - - - - , = = = = - - - , - - = - = 7 . g.J.G.G.G.G.G.G.G.G.G.0 (.W.W.W.W.~.Q.!.!.Q.Q.4.Q.4.4.4.!.!.!.`.c Y Y Y W W W W W W ",
"W W W W W W W N (.Q.Q.W.~...Q./.~...Q.Q.~.W.~.W.Q././.(.9 o.o.J.J.J.V.V.J.G.T.<.<.<.. 6 - - - - - - - - = = , 7.7.8.- = = - - - - - 7   g.Z.G.G.G.G.P.G.H.G.H.9 (.E.W.W.W.W.Q.Q.!.Q.!.+.!././...!.!.!.)./ Y Y Y W W W W W W ",
"W W W W W W W B (.Q.W.~.Q./.J J J /.Q.~.Q.~.Q.Q.W.Q./.(.9 @.X.G.G.G.G.G.G.J.J.W.y.i.  7 - - - = - - - - = , , < 4 8.- = , - - = - , 8   J.G.J.G.H.G.G.G.H.G.J.9 (.Q.Q.Q.Q.Q.Q.Q.Q.!.~.G Z N !.(.!.!.!.`.c T Y Y W W W W W W ",
"W W W W W W W N _.~.~.~.~.~.(.(.(.~.Q.~.~.W.Q.~.Q.Q.^./.9 X.X.G.J.G.G.J.J.J.J.Y.d.s.  7 = - - - = - - - = 7.= 7., 8.= , = = = - - , 7   J.J.J.G.G.G.H.G.G.G.G.0 (.~.Q.Q.Q.~.Q.Q.Q.Q.~.(./././.!.^.!.!.`.c Y Y Y W W W W W W ",
"W W W W W W W B (./.Q.~.~.~.~.!.~.~.~.Q.~.Q.!.Q.Q.Q.Q.(.0 o.X.G.J.Z.J.J.J.J.J.J.Q.g.  5 - = = - - - - - - 7.= < - , = = = = - = , , 7   I.J.J.J.H.G.G.G.G.G.G.0 ).Q.Q.Q.~.Q.!.Q.Q.^./.^.^.^.^.~.^.^.^.`.A Y Y Y W W W W W W ",
"W W W W W W W N _././.~.!.~.!.!.~.~.~.~.!.Q.Q.Q.Q.~.~.(.0 X.X.G.J.J.J.J.J.J.P.J.P.k.  6 = = - = = = = - = 7.7.7.= = = , = = - , , ; 7   P.J.J.J.G.G.C.G.B.B.B.0 ).Q.Q.Q.Q.Q.Q.Q.^./.^.^./.^././.^.^.!.`.c Y Y Y W W W W W W ",
"W W W W W W W M _././.~.~.!.~.~.!.~.~.Q.~.~.~.Q.~.~.Q.(.0 o.X.P.J.H.J.Y.U.U.P.J.P.g.  8 , , = - - - = = = < < , - = = = = = = , , 4 #   P.P.J.J.G.G.G.G.B.B.B.0 /.W.Q.~.~.^.^.^.~.^.^.^.^././.L.^.^.^.).V T Y Y W W W W W W ",
"W W W W W W W l _./././.~.~.^.~.~.!.~.!.~.Q.~.~.~.v f f t 9 o.P.P.H.U.U.U.Y.I.P.P.l.  8 , = = = = = = - , = , = = - - = = = , , 4 # & . P.P.J.J.G.Z.B.B.B.B.9 H H H H ~.^.^.^.^././.^./.~.K.F.K.K.^./.).c Y Y Y W W W W W W ",
"W W W W W W W g _._.`.`.`.(.(.)._.(.(.).J  ...o.s././././.o @.U.U.Y.U.U.Y.U.U.P.P.x.  8 , , = = = - - = = - - = - = , , , = = , 1 # &   P.P.P.P.G.G.B.B.B.G.9 ~./.^.~.H U v =.=.=.1._._.(._._.(.).).).).n Y Y Y W W W W W W ",
"W W W W W W W q H.Z.Z.Z.v.b.v.x.x.b.x.~ (.(.~./.(.W.E.E.R.W.d P.Y.U.U.U.U.Y.J.P.P.n.  7 , , - , , , = = - = = - - , , , , = = < # & &   P.P.P.P.J.P.P.B.B.x Y.U.H.E.H././.).=.=.=.G.u.a.l.k.l.v.x.x.k.G.0 Y Y Y W W W W W W ",
"W W W W W W W q Z.Z.g.l.v.g.x.l.x.v.v.A v (.W.Q.E.W.E.E.T.T.T.n P.Y.Y.U.Y.I.P.P.P.m.  7 , , , , , , = = = = = = = , , , , = < & & &   M.I.P.P.P.P.P.P.P.l Y.U.U.Q.H.W.H.E.H./.v I.u.p.a.s.g.x.k.x.k.x.G.0 Y Y Y W W W W W W ",
"W W W W W W W 0 C.k.k.l.,.O.O.O.O.F V B N (.Q.W.Q.W.Q.E.T.T.T./.m P.U.Y.U.Y.P.P.P.j.n.                                              M.n.P.P.P.P.P.J.H.c F.U.Y.Y.H.W.H.W.H.E./.Z +.^ ~ O.^ ^ ..o.k.x.k.V.0 Y Y Y W W W W W W ",
"W W W W W W W 0 G.a.u.q /.T.T.T.I.F.F.D.t t.(.W.Q.E.Q.E.W.W.Q.Q./.A I.Y.U.Y.Y.J.P.x.M.M.g.g.g.d.d.d.d.d.d.d.d.d.d.3.2.2.,.;.<.:.<.M.n.n.I.P.P.P.P.P.x m.Z.F.E.E.!.H.H.Y.H._.v.0 F.Y.Y.~.Q.~.Q.(.9 v.x.Z.0 Y Y Y W W W W W W ",
"W W W W W W W 0 N.a.a.q /.W.Y.Y.I.U.F.D.y X._.W.E.Q.E.Q.Q.W.W.Q.Q./.D I.I.Y.Y.I.P.R.E.M.b.M.M.M.M.M.M.M.B.M.A.A.M.M.M.M.M.M.A.n.n.B.c.W.P.P.P.P.P.F j.m.~./.E.Q.Q.!.W.E.H.).a.q G.U.Y.E.~.~.Q./.9 k.k.n.0 Y Y W W W W W W W ",
"W W W W W W W Y 0 0 0 0 ,./.T.T.T.I.U.I.I.t &./.Q.Q.Q.Q.Q.Q.Q.Q.Q.(./.G D U.Y.Y.Y.P.P.E.Q.E.E.E.W.W.W.W.E.W.Q.E.~.E.M.A.M.M.W.W.E.E.Q.P.I.P.I.c c c.h.!.Q.E.Q.W.Q.W.Y.Q.).P 9 G.T.T.W.Q.W.~./.s.0 0 0 0 Y Y W W W W W W W W ",
"W W W W W W W W Y Y Y 0 *./.T.T.T.T.I.U.I.y &.,./.Q.Q.Q.Q.Q.Q.Q.Q.Q./.Q.Q.F Y.U.Y.I.P.P.P.I.U.P.U.I.I.U.I.U.U.I.U.U.W.W.M.M.P.I.U.P.P.U.P.P.d W.Q.W.Q.Q.E.Q.Q.Q.Q.Q.Q./.U U 9 G.T.U.W.Q.W.~.(.s.0 Y Y Y Y W W W W W W W W W ",
"W W W W W W W W W W W Y 9 *.(.Y.Y.T.Y.E.U.H.p ,.v.).Q.Q.~.Q.~.Q.Q.Q.Q.R.Q.R.c N U.Y.U.T.I.H.H.U.I.I.I.U.U.I.I.U.U.I.I.I.W.W.I.P.U.I.I.I.c c Q.~.W.Q.Q.Q.Q.Q.~.W.Q.~./. ...w F.F.U.Y.~.~.W.(.` 9 Y Y Y W W W W W W W W W W W ",
"W W W W W W W W W W W W 0 -.u.(.Y.Y.E.Y.I.I.H.j b.b.(.(.(.~.Q.~.~.Q.~.!.Q.Q.Q.Q.k g k U.U.I.U.U.I.U.U.I.I.U.U.I.U.I.U.I.I.I.U.P.U.l c l ~.~.Q.~.~.W.Q.~.~.~.Q.~.Q.~...P u F.G.F.Y.Y.W.~./._ ` 9 Y R W W W W W W W W W W W W ",
"W W W W W W W W W W W W Y w k./.W.W.Y.W.T.Y.U a b.n.N.1.:.(.~.~.~.~.~.~.W.Q.T.R.W.T.U.k k I.H.U.I.I.I.U.I.I.I.I.I.I.I.I.I.I.P.P.i Y.Q.~.~.~.~.~.~.~.~.~.Q.~.~.Q./.` ` ` w 0 G.G.Y.Q.~.W./.` 9 Y Y T Q W W W W W W W W W W W ",
"W W W W W W W W W W W W W 9 a.l./.W.W.W.+.+.+.H u N.B.C.;.1.(.~.~.~.~.~.Q.T.Q.Q.T.T.U.U.U.A A S S S ( ~ K K K K S K S / Z I.I.v Y.Y.Q.~.~.~.~.~.~.~.~.~.~.~.(.(.%.%...r A.A.K J ~.Q.Q./._ _ o T Y E Q W W ! W W W W W W W W ",
"W W W W W W W W W W W W W Y 0 v.v./.=.+.(.(./.P m u N.N.D.D.).Q.~.Q.~.~.!.W.Q.W.T.T.R.R.H.A ^.!.~.!.!.^.!.^.W.Q.Q.W.W.Q.W.c c Y.T.W.W.~.~.~.~.~.~.~.~.~.~._.-.-.%...s A.A.H.H.I.m H ).;._ o T T T E W Q Q E W W W W W W W W ",
"W W W W W W W W W W W W W W Y 9 v.H )./.E.W.E./././.u A.S.S.S._.(.~.~.~.!.!.Q.R.W.T.R.T.6.!.!.!.!.^.!.^.R.!.Q.R.Q.W.Q.W.W.W./.J W.Q.Q.Q.~.~.~.~.Q.~.~.(.(.-.-.*.%.y A.H.H.I.I.K.I./.y i.o T Y Y Q W W Q Q E W W W W W W W W ",
"W W W W W W W W W W W W W ! ! 0 N.m Z./.Q.E.Q.Q.W.Y.E.j j S.S.D.n.(.(.~.Q.Q.Q.Q.Q.R.Q.R.6.!.R.!.^.!.Q.R.Q.Q.Q.Q.Q.Y.R.W.E.R.(.J Q.Q.Q.W.~.~.~.~.~._.(.,.,.,.%.t g Y.U.U.Y.U.I.I.W.P y y.o T T E Q W W E E W W W W W W W W W ",
"W W W W W W W W W W W W W W ! T 9 P Z.b.(.Q.W.~.E.Y.Y.E.!.u A.D.n.n.M.).).).R.W.Q.Q.Q.) (.!.Q.R.!.Q.Q.Q.!.R.T.Q.Q.Q.Q.R.Q.Q.Q./.G W.Q.~.~.~.).(.(.t.,.,.,.%.d P.I.U.U.U.U.U.U.W...P y o Y z Q E E W W W W W W W W W W W W W ",
"W W W W W W W W W W W W W W E Q T 9 H.N.N./.Q.W.Y.W.Q.Q.Q.!.i i B.n.n.c.c.j.).)._.Q.Q.) /.!.!.!.!.Q.!.!.Q.R.R.!.Q.Q.Q.W.Q.R.W.).~ T.Q.(.(.).:.:.,.,.,.-.y a I.I.Y.U.U.U.U.U.Q.U P P o Y Y W W W W W W W W W W W W W W W W W ",
"W W W W W W W W W W W W W ! Q E Q T y n.N.b././.Q.~.Q.~.!.Q.(./.i a n.c.x.j.j.5.5.`._.) (.Q.!.R.R.!.!.!.A.!.Q.Q.A.R.W.W.Q.Q.R.(.~ ^.(.5.3.5.:.;.;.-.f d I.K.H.H.Y.U.U.U.!.!.P P _ y Y Y W W W W W W W W W W W W W W W W W W ",
"W W W W W W W W W W W W W E Q Q E Q Y 9 n.n.N.Z./.Q.Q.~.Q.~././.4.!.i 0 c.j.f.f.5.4.O.K (.!.Q.!.!.!.!.!.).A.A.A.(.W.!.!.W.Q.W.)./ ~ 3.3.:.:.:.;.x h T.H W.K.H.U.U.U.U.W.` ` _ P o Y Y W W W W W W W W W W W W W W W W W W W ",
"W W W W W W W W W W W W W W E Q E E W Y 0 N.N.b.N././.~././.^.2.!.Q.Q.W.9 0 q 5.5.5.$.K (.!./.!.!.!.!.!.6.(.).).f.!.!.~.!.Q.Q.)./ / 3.3.5.0 0 9 ~.~.!./.z.Q.U.U.U.Q.!...` P P o Y Y W W W W W W W W W W W W W W W W W W W W ",
"W W W W W W W W W W W W W W W W W W W W Y 9 9 N.N.N.N.(.).(.+.~.W.W.W.R.Y.T.I.q w w w K ).!.(.!.!.!.!.!.).$.+.+.).!.!.!.!.!.!.).~ 9 9 9 9 Y.Y.U.Q.~.Q.Q.~.A.U.~.~.*.%.| ' o o Y Y W W W W W W W W W W W W W W W W W W W W W ",
"W W W W W W W W W W W W W W W W W W W W W Y Y 9 N.b.n.b.b.H ).W.W.W.E.W.R.Y.I.P.I.K.I.S )./.!.(././.!.!.S ).).(.O.!.!.!.!.!.Q.).~ j.j.R.R.R.U.U.Q.~.~.Q.W././.i.*.%.%.%.o Y Y W W W W W W W W W W W W W W W W W W W W W W W ",
"W W W W W W W W W W W W W W W W W W W W W W W Y 9 9 n.b.b.H P.(.(.(.W.W.Y.Y.Y.I.I.I.L.S ).!.(.!.(.!././.).!.^.!.).!.!.!.!.!.!.).G g.g.T.R.T.R.Q.Q.Q.(./.(.` h u.| | o o Y W W W W W W W W W W W W W W W W W W W W W W W W W ",
"W W W W W W W W W W W W W W W W W W W W W W W W Y Y 9 9 v.m P.v.v.v.(.(.).).Y.K.I.I.H.C `.(.!./.!.(.!.!.^.^.^.!.!.!.!.!.!.!.!.).S g.g.T.T.T.(.(././.X.` ` P h u.o o Y Y W W W W W W W W W W W W W W W W W W W W W W W W W W ",
"W W W W W W W W W W W W W W W W W W W W W W W W W W Y Y 9 9 H.v.v.k.k.k.k.u./.(././.(.A _._._._._._.).)./.)./.)./.(./.(.(.`._._.Z A.c.(.(.(.#.#.@. . . . ._ o o Y Y W W W W W W W W W W W W W W W W W W W W W W W W W W W W ",
"W W W W W W W W W W W W W W W W W W W W W W W W W W W W Y Y 9 9 v.v.k.k.k.u.u.s.t.-.o.q G.G.H.N.n.n.n.n.n.b.b.v.n.l.x.F.V.G.C.F.t Z Z #.#.#.#.#.@.@. . .o o Y Y W W W W W W W W W W W W W W W W W W W W W W W W W W W W W W ",
"W W W W W W W W W W W W W W W W W W W W W W W W W W W W W W Y Y 9 9 k.k.u.u.u.u.t.-.o.9 G.G.b.b.n.b.b.b.b.x.b.z.l.k.k.k.s.l.C.V.o b n #.#.#.#.@. .@.o o Y T ! W W W W W W W W W W W W W W W W W W W W W W W W W W W W W W W ",
"W W W W W W W W W W W W W W W W W W W W W W W W W W W W W W W W Y Y 9 9 9 9 y.t.<.-.o.0 G.b.b.b.b.b.z.v.x.l.l.l.s.k.s.s.s.s.s.V.o b Z #.#.@.o o o o Y Y W W ! Q Q W W W ! ! W W W W W W W W W W W W W W W W W W W W W W W W ",
"W W W W W W W W W W W W W W W W W W W W W W W W W W W W W W W W W W Y Y Y Y 9 9 o o 9 9 Z.b.b.b.l.s.u.s.u.u.g.k.k.s.k.s.s.s.u.C.o o o o o o Y Y Y Y W W W W E Q Q W W Q Q W W W W W W W W W W W W W W W W W W W W W W W W W ",
"W W W W W W W W W W W W W W W W W W W W W W W W W W W W W W W W W W W W W W Y Y Y Y Y 9 V.b.b.%.@.-.u.u.y.u.u.u.k.s.s.s.u.s.t.B.o Y Y Y Y Y W W W W W W W W W E E W Q Q Q W W W W W W W W W W W W W W W W W W W W W W W W W ",
"W W W W W W W W W W W W W W W W W W W W W W W W W W W W W W W W W W W W W W W W W W W 9 C.;.#.#.#.o.u.u.t.u.t.u.s.t.y.>.t.e.t.B.o Y Y W W W W W W W W W W W W W W W Q Q E W W W W W W W W W W W W W W W W W W W W W W W W W ",
"W W W W W W W W W W W W W W W W W W W W W W W W W W W W W W W W W W W W W W W W W W W Y o o o o o o o o o o o o o o o o o o o o Y Y W W W W W W W W W W W W W W W W E E W W W W W W W W W W W W W W W W W W W W W W W W W W ",
"W W W W W W W W W W W W W W W W W W W W W W W W W W W W W W W W W W W W W W W W W W W W Y Y Y Y Y Y Y Y Y Y Y Y Y Y Y Y Y Y Y Y Y W W W W W W W W W W W W W W W W W W W W W W W W W W W W W W W W W W W W W W W W W W W W W "
};
