/* XPM */
static char *Smoke_3[] = {
/* columns rows colors chars-per-pixel */
"38 17 3 1 ",
"  c #B0A079",
". c #DBC7A2",
"X c None",
/* pixels */
"XXXXXXXX   XXXXXXXXXXXXXXXX   XXXXXXXX",
"XXXXXX...   XXXX  XX  XXXX   ... XXXXX",
"XX  .....    XX        XX    .....  XX",
"X ......   XXXXX  XX  XXXXX   ...... X",
" .....   XXXXXXXXXXXXXXXXXXXX   ..... ",
".....     XXXXXXXXXXXXXXXXXX     .....",
".....  XXXXXXXXXXXXXXXXXXXXXXXX  .....",
"...... XXXXXXXXXXXXXXXXXXXXXXXX ......",
"X....... XXXXXXXXXXXXXXXXXXXXX.......X",
"XX ...... XXXXXXXXXXXXXXXXXX ...... XX",
"XXX   .  XXXXXXXXXXXXXXXXXXXX  .   XXX",
"XXXXX ..  XXXXXXXXXXXXXXXXXX  ..  XXXX",
"XXXXX ... XXXXXXXXXXXXXXXXXX ... XXXXX",
"XXXXXXX..   XXXXXXXXXXXXXX   ..XXXXXXX",
"XXXXXXXX       XXXXXXXX       XXXXXXXX",
"XXXXXXXXXXX   XX      XX   XXXXXXXXXXX",
"XXXXXXXXXXXXXXXXX    XXXXXXXXXXXXXXXXX"
};
